<?xml version="1.0" standalone="no"?>
<!DOCTYPE svg PUBLIC "-//W3C//DTD SVG 1.1//EN" "http://www.w3.org/Graphics/SVG/1.1/DTD/svg11.dtd" >
<svg>
<metadata>
Created by FontForge 20120731 at Mon Jul 10 16:04:43 2017
 By www
Copyright (c) 2014 by Ryoichi Tsunekawa. All rights reserved.
</metadata>
<defs>
<font id="KiroW03-Thin" horiz-adv-x="330" >
  <font-face 
    font-family="KiroW03-Thin"
    font-weight="250"
    font-stretch="normal"
    units-per-em="1000"
    panose-1="2 15 3 6 2 2 3 5 2 4"
    ascent="800"
    descent="-200"
    x-height="490"
    cap-height="664"
    bbox="-149.45 -172 1021 909"
    underline-thickness="50"
    underline-position="-75"
    unicode-range="U+0020-FB04"
  />
<missing-glyph horiz-adv-x="600" 
d="M69 0v664h462v-664h-462zM144 623l156 -248l156 248h-312zM114 585v-506l159 253zM486 79v506l-159 -253zM300 289l-156 -248h312z" />
    <glyph glyph-name="uniFB00" unicode="ff" horiz-adv-x="590" 
d="M617 686q7 -4 2 -13l-2 -4q-5 -8 -12 -3q-19 13 -38.5 18.5t-45.5 5.5q-114 0 -114 -139v-61h175q9 0 9 -9v-4q0 -9 -9 -9h-175v-459q0 -9 -9 -9h-6q-9 0 -9 9v459h-256v-459q0 -9 -9 -9h-6q-9 0 -9 9v459h-74q-9 0 -9 9v4q0 9 9 9h74v47q0 77 41.5 121t116.5 44
q46 0 81 -15.5t60 -39.5q32 65 119 65q29 0 51.5 -6t44.5 -20zM383 557q0 37 9 66q-20 23 -52.5 40t-78.5 17q-64 0 -99 -39t-35 -110v-41h256v67z" />
    <glyph glyph-name="uniFB01" unicode="fi" horiz-adv-x="487" 
d="M362 652q-18 17 -42.5 27.5t-65.5 10.5q-63 0 -95 -35.5t-32 -103.5v-61h175q9 0 9 -9v-4q0 -9 -9 -9h-175v-459q0 -9 -9 -9h-6q-9 0 -9 9v459h-74q-9 0 -9 9v4q0 9 9 9h74v67q0 74 39.5 114.5t111.5 40.5q42 0 71 -11t52 -31q7 -6 1 -13l-3 -4q-6 -8 -13 -1zM396 490
q9 0 9 -9v-472q0 -9 -9 -9h-6q-9 0 -9 9v472q0 9 9 9h6z" />
    <glyph glyph-name="uniFB02" unicode="fl" horiz-adv-x="497" 
d="M406 700q9 0 9 -9v-682q0 -9 -9 -9h-6q-9 0 -9 9v626q-18 22 -53 38.5t-79 16.5q-63 0 -97.5 -39t-34.5 -110v-51h165q9 0 9 -9v-4q0 -9 -9 -9h-165v-459q0 -9 -9 -9h-6q-9 0 -9 9v459h-74q-9 0 -9 9v4q0 9 9 9h74v57q0 77 41.5 121t114.5 44q39 0 73.5 -12.5t58.5 -32.5
v24q0 9 9 9h6z" />
    <glyph glyph-name="uniFB03" unicode="ffi" horiz-adv-x="767" 
d="M657 670q7 -6 1 -13l-3 -4q-6 -8 -13 -1q-18 17 -42.5 27.5t-65.5 10.5q-63 0 -95 -35.5t-32 -103.5v-61h175q9 0 9 -9v-4q0 -9 -9 -9h-175v-459q0 -9 -9 -9h-6q-9 0 -9 9v459h-256v-459q0 -9 -9 -9h-6q-9 0 -9 9v459h-74q-9 0 -9 9v4q0 9 9 9h74v47q0 77 41.5 121
t116.5 44q47 0 82.5 -16t59.5 -41q19 32 52 49.5t79 17.5q42 0 71 -11t52 -31zM383 557q0 38 10 65q-20 24 -52.5 41t-79.5 17q-64 0 -99 -39t-35 -110v-41h256v67zM676 490q9 0 9 -9v-472q0 -9 -9 -9h-6q-9 0 -9 9v472q0 9 9 9h6z" />
    <glyph glyph-name="uniFB04" unicode="ffl" horiz-adv-x="777" 
d="M686 700q9 0 9 -9v-682q0 -9 -9 -9h-6q-9 0 -9 9v626q-18 22 -53 38.5t-79 16.5q-63 0 -97.5 -39t-34.5 -110v-51h165q9 0 9 -9v-4q0 -9 -9 -9h-165v-459q0 -9 -9 -9h-6q-9 0 -9 9v459h-256v-459q0 -9 -9 -9h-6q-9 0 -9 9v459h-74q-9 0 -9 9v4q0 9 9 9h74v47
q0 77 41.5 121t116.5 44q48 0 84.5 -17t60.5 -43q19 34 53 52t80 18q39 0 73.5 -12.5t58.5 -32.5v24q0 9 9 9h6zM383 547q0 40 12 73q-20 25 -53 42.5t-81 17.5q-64 0 -99 -39t-35 -110v-41h256v57z" />
    <glyph glyph-name="f_b.liga" unicode="fb" horiz-adv-x="801" 
d="M415 416h1q38 86 150 86q175 0 175 -185v-143q0 -92 -44 -139t-131 -47t-131 47t-44 139v461q-18 22 -53 38.5t-79 16.5q-63 0 -97.5 -39t-34.5 -110v-51h165q9 0 9 -9v-4q0 -9 -9 -9h-165v-459q0 -9 -9 -9h-6q-9 0 -9 9v459h-74q-9 0 -9 9v4q0 9 9 9h74v57
q0 77 41.5 121t114.5 44q39 0 73.5 -12.5t58.5 -32.5v24q0 9 9 9h6q9 0 9 -9v-275zM717 307q0 90 -36.5 131.5t-114.5 41.5q-151 0 -151 -173v-124q0 -90 36.5 -131.5t114.5 -41.5t114.5 41.5t36.5 131.5v124z" />
    <glyph glyph-name="f_f_b.liga" unicode="ffb" horiz-adv-x="1081" 
d="M671 691q0 9 9 9h6q9 0 9 -9v-275h1q38 86 150 86q175 0 175 -185v-143q0 -92 -44 -139t-131 -47t-131 47t-44 139v461q-18 22 -53 38.5t-79 16.5q-63 0 -97.5 -39t-34.5 -110v-51h165q9 0 9 -9v-4q0 -9 -9 -9h-165v-459q0 -9 -9 -9h-6q-9 0 -9 9v459h-256v-459
q0 -9 -9 -9h-6q-9 0 -9 9v459h-74q-9 0 -9 9v4q0 9 9 9h74v47q0 77 41.5 121t116.5 44q48 0 84.5 -17t60.5 -43q19 34 53 52t80 18q39 0 73.5 -12.5t58.5 -32.5v24zM997 307q0 90 -36.5 131.5t-114.5 41.5q-151 0 -151 -173v-124q0 -90 36.5 -131.5t114.5 -41.5t114.5 41.5
t36.5 131.5v124zM383 547q0 40 12 73q-20 25 -53 42.5t-81 17.5q-64 0 -99 -39t-35 -110v-41h256v57z" />
    <glyph glyph-name="f_h.liga" unicode="fh" horiz-adv-x="811" 
d="M391 635q-18 22 -53 38.5t-79 16.5q-63 0 -97.5 -39t-34.5 -110v-51h165q9 0 9 -9v-4q0 -9 -9 -9h-165v-459q0 -9 -9 -9h-6q-9 0 -9 9v459h-74q-9 0 -9 9v4q0 9 9 9h74v57q0 77 41.5 121t114.5 44q39 0 73.5 -12.5t58.5 -32.5v24q0 9 9 9h6q9 0 9 -9v-272h1q36 83 147 83
q172 0 172 -181v-312q0 -9 -9 -9h-6q-9 0 -9 9v302q0 88 -36 128.5t-112 40.5q-148 0 -148 -169v-302q0 -9 -9 -9h-6q-9 0 -9 9v626v0z" />
    <glyph glyph-name="f_f_h.liga" unicode="ffh" horiz-adv-x="1091" 
d="M671 691q0 9 9 9h6q9 0 9 -9v-272h1q36 83 147 83q172 0 172 -181v-312q0 -9 -9 -9h-6q-9 0 -9 9v302q0 88 -36 128.5t-112 40.5q-148 0 -148 -169v-302q0 -9 -9 -9h-6q-9 0 -9 9v626q-18 22 -53 38.5t-79 16.5q-63 0 -97.5 -39t-34.5 -110v-51h165q9 0 9 -9v-4
q0 -9 -9 -9h-165v-459q0 -9 -9 -9h-6q-9 0 -9 9v459h-256v-459q0 -9 -9 -9h-6q-9 0 -9 9v459h-74q-9 0 -9 9v4q0 9 9 9h74v47q0 77 41.5 121t116.5 44q48 0 84.5 -17t60.5 -43q19 34 53 52t80 18q39 0 73.5 -12.5t58.5 -32.5v24zM383 547q0 40 12 73q-20 25 -53 42.5
t-81 17.5q-64 0 -99 -39t-35 -110v-41h256v57z" />
    <glyph glyph-name="f_j.liga" unicode="fj" horiz-adv-x="487" 
d="M254 690q-63 0 -95 -35.5t-32 -103.5v-61h175q9 0 9 -9v-4q0 -9 -9 -9h-175v-459q0 -9 -9 -9h-6q-9 0 -9 9v459h-74q-9 0 -9 9v4q0 9 9 9h74v67q0 74 39.5 114.5t111.5 40.5q42 0 71 -11t52 -31q7 -6 1 -13l-3 -4q-6 -8 -13 -1q-19 17 -43 27.5t-65 10.5zM283 -160
q-6 0 -6 9v4q0 9 9 9h3q92 0 92 102v517q0 9 9 9h6q9 0 9 -9v-517q0 -124 -116 -124h-6z" />
    <glyph glyph-name="f_f_j.liga" unicode="ffj" horiz-adv-x="767" 
d="M591 477q0 -9 -9 -9h-175v-459q0 -9 -9 -9h-6q-9 0 -9 9v459h-256v-459q0 -9 -9 -9h-6q-9 0 -9 9v459h-74q-9 0 -9 9v4q0 9 9 9h74v47q0 77 41.5 121t116.5 44q47 0 82.5 -16t59.5 -41q19 32 52 49.5t79 17.5q42 0 71 -11t52 -31q7 -6 1 -13l-3 -4q-6 -8 -13 -1
q-19 17 -43 27.5t-65 10.5q-63 0 -95 -35.5t-32 -103.5v-61h175q9 0 9 -9v-4zM383 557q0 38 10 65q-20 24 -52.5 41t-79.5 17q-64 0 -99 -39t-35 -110v-41h256v67zM676 490q9 0 9 -9v-517q0 -124 -116 -124h-6q-6 0 -6 9v4q0 9 9 9h3q92 0 92 102v517q0 9 9 9h6z" />
    <glyph glyph-name="f_k.liga" unicode="fk" horiz-adv-x="721" 
d="M391 635q-18 22 -53 38.5t-79 16.5q-63 0 -97.5 -39t-34.5 -110v-51h165q9 0 9 -9v-4q0 -9 -9 -9h-165v-459q0 -9 -9 -9h-6q-9 0 -9 9v459h-74q-9 0 -9 9v4q0 9 9 9h74v57q0 77 41.5 121t114.5 44q39 0 73.5 -12.5t58.5 -32.5v24q0 9 9 9h6q9 0 9 -9v-436l246 230
q5 5 11 5h12q6 0 7.5 -3t-3.5 -8l-246 -229l257 -239q5 -4 3.5 -7.5t-7.5 -3.5h-12q-6 0 -11 5l-257 239v-235q0 -9 -9 -9h-6q-9 0 -9 9v626v0z" />
    <glyph glyph-name="f_f_k.liga" unicode="ffk" horiz-adv-x="1001" 
d="M671 691q0 9 9 9h6q9 0 9 -9v-436l246 230q5 5 11 5h12q6 0 7.5 -3t-3.5 -8l-246 -229l257 -239q5 -4 3.5 -7.5t-7.5 -3.5h-12q-6 0 -11 5l-257 239v-235q0 -9 -9 -9h-6q-9 0 -9 9v626q-18 22 -53 38.5t-79 16.5q-63 0 -97.5 -39t-34.5 -110v-51h165q9 0 9 -9v-4
q0 -9 -9 -9h-165v-459q0 -9 -9 -9h-6q-9 0 -9 9v459h-256v-459q0 -9 -9 -9h-6q-9 0 -9 9v459h-74q-9 0 -9 9v4q0 9 9 9h74v47q0 77 41.5 121t116.5 44q48 0 84.5 -17t60.5 -43q19 34 53 52t80 18q39 0 73.5 -12.5t58.5 -32.5v24zM383 547q0 40 12 73q-20 25 -53 42.5
t-81 17.5q-64 0 -99 -39t-35 -110v-41h256v57z" />
    <glyph glyph-name="f_t.liga" unicode="ft" horiz-adv-x="625" 
d="M605 31q4 -8 -3 -12q-40 -31 -93 -31q-62 0 -94.5 34.5t-32.5 99.5v346h-255v-459q0 -9 -9 -9h-6q-9 0 -9 9v459h-74q-9 0 -9 9v4q0 9 9 9h74v67q0 74 39.5 114.5t111.5 40.5q42 0 71 -11t52 -31q7 -6 1 -13l-3 -4q-6 -8 -13 -1q-19 17 -44 27.5t-64 10.5
q-63 0 -95 -35.5t-32 -103.5v-61h255v98q0 9 9 9h6q9 0 9 -9v-98h175q9 0 9 -9v-4q0 -9 -9 -9h-175v-340q0 -118 103 -118q21 0 40.5 6.5t39.5 21.5q8 6 13 -2z" />
    <glyph glyph-name="f_f_t.liga" unicode="fft" horiz-adv-x="905" 
d="M885 31q4 -8 -3 -12q-40 -31 -93 -31q-62 0 -94.5 34.5t-32.5 99.5v346h-255v-459q0 -9 -9 -9h-6q-9 0 -9 9v459h-256v-459q0 -9 -9 -9h-6q-9 0 -9 9v459h-74q-9 0 -9 9v4q0 9 9 9h74v47q0 77 41.5 121t116.5 44q47 0 82.5 -16t59.5 -41q19 32 52 49.5t79 17.5
q42 0 71 -11t52 -31q7 -6 1 -13l-3 -4q-6 -8 -13 -1q-19 17 -44 27.5t-64 10.5q-63 0 -95 -35.5t-32 -103.5v-61h255v98q0 9 9 9h6q9 0 9 -9v-98h175q9 0 9 -9v-4q0 -9 -9 -9h-175v-340q0 -118 103 -118q21 0 40.5 6.5t39.5 21.5q8 6 13 -2zM383 557q0 38 10 65
q-20 24 -52.5 41t-79.5 17q-64 0 -99 -39t-35 -110v-41h256v67z" />
    <glyph glyph-name=".notdef" horiz-adv-x="600" 
d="M69 0v664h462v-664h-462zM144 623l156 -248l156 248h-312zM114 585v-506l159 253zM486 79v506l-159 -253zM300 289l-156 -248h312z" />
    <glyph glyph-name=".null" horiz-adv-x="0" 
 />
    <glyph glyph-name="nonmarkingreturn" horiz-adv-x="333" 
 />
    <glyph glyph-name="space" unicode=" " horiz-adv-x="215" 
 />
    <glyph glyph-name="exclam" unicode="!" horiz-adv-x="202" 
d="M101 -12q-11 0 -18.5 7.5t-7.5 18.5t7.5 18.5t18.5 7.5t18.5 -7.5t7.5 -18.5t-7.5 -18.5t-18.5 -7.5zM104 664q9 0 9 -9v-298l-5 -208q0 -6 -6 -6h-2q-6 0 -6 6l-5 208v298q0 9 9 9h6z" />
    <glyph glyph-name="quotedbl" unicode="&#x22;" horiz-adv-x="315" 
d="M77 655q0 9 9 9h8q9 0 9 -9l-6 -175q0 -6 -6 -6h-2q-6 0 -6 6zM212 655q0 9 9 9h8q9 0 9 -9l-6 -175q0 -6 -6 -6h-2q-6 0 -6 6z" />
    <glyph glyph-name="numbersign" unicode="#" horiz-adv-x="528" 
d="M462 230q10 0 8 -10l-1 -4q-2 -8 -9 -8h-109l-35 -200q-2 -8 -9 -8h-6q-10 0 -8 10l34 198h-166l-35 -200q-2 -8 -9 -8h-6q-10 0 -8 10l34 198h-107q-10 0 -8 10l1 4q2 8 9 8h109l32 184h-107q-10 0 -8 10l1 4q2 8 9 8h109l32 180q2 8 9 8h6q10 0 8 -10l-31 -178h166
l32 180q2 8 9 8h6q10 0 8 -10l-31 -178h107q10 0 8 -10l-1 -4q-2 -8 -9 -8h-109l-32 -184h107zM165 230h166l32 184h-166z" />
    <glyph glyph-name="dollar" unicode="$" horiz-adv-x="528" 
d="M470 169q0 -35 -13.5 -64t-38.5 -50t-59.5 -33.5t-76.5 -13.5v-69q0 -9 -9 -9h-4q-9 0 -9 9v69q-135 4 -199 101q-5 6 2 12l4 3q8 6 13 -2q29 -45 73 -67.5t107 -24.5v271q-53 5 -89 16t-58.5 29.5t-32.5 45t-10 63.5q0 35 14 64t39 50.5t60 33.5t77 13v63q0 9 9 9h4
q9 0 9 -9v-63q114 -6 169 -88q5 -9 -2 -13l-5 -3q-8 -5 -13 3q-47 73 -149 79v-274q52 -5 88 -16t58.5 -29t32 -44t9.5 -62zM94 454q0 -30 9 -53t28.5 -38.5t51 -25.5t77.5 -14v271q-75 -2 -120.5 -39.5t-45.5 -100.5zM282 30q37 1 67.5 11.5t52.5 29t33.5 43.5t11.5 56
q0 59 -37 88.5t-128 39.5v-268z" />
    <glyph glyph-name="percent" unicode="%" horiz-adv-x="614" 
d="M120 6q-5 -6 -11 -6h-7q-13 0 -6 11l398 607q4 6 11 6h7q13 0 6 -11zM36 515q0 121 113 121q112 0 112 -121v-75q0 -122 -112 -122q-113 0 -113 122v75zM60 444q0 -55 20.5 -79.5t68.5 -24.5t68.5 24.5t20.5 79.5v67q0 54 -20.5 78.5t-68.5 24.5t-68.5 -24.5t-20.5 -78.5
v-67zM353 185q0 121 113 121q112 0 112 -121v-75q0 -122 -112 -122q-113 0 -113 122v75zM377 114q0 -55 20.5 -79.5t68.5 -24.5t68.5 24.5t20.5 79.5v67q0 54 -20.5 78.5t-68.5 24.5t-68.5 -24.5t-20.5 -78.5v-67z" />
    <glyph glyph-name="ampersand" unicode="&#x26;" horiz-adv-x="570" 
d="M441 91q-75 -103 -196 -103q-48 0 -86.5 14t-64.5 38.5t-40 59t-14 76.5q0 63 28 112.5t87 92.5q-29 35 -42 67t-13 67q0 75 44.5 118t122.5 43q40 0 77 -12.5t63 -37.5q6 -6 1 -13l-4 -5q-7 -7 -13 0q-21 22 -53.5 34t-70.5 12q-69 0 -106 -36.5t-37 -102.5
q0 -42 20 -78.5t63 -79.5l230 -230q21 35 38.5 80t30.5 102q2 10 11 8l6 -1q10 -2 7 -13q-30 -120 -76 -193l99 -99q5 -5 3 -8t-8 -3h-10q-7 0 -12 5zM245 10q109 0 179 97l-255 255q-54 -38 -79.5 -82.5t-25.5 -103.5q0 -73 47.5 -119.5t133.5 -46.5z" />
    <glyph glyph-name="quotesingle" unicode="'" horiz-adv-x="180" 
d="M77 655q0 9 9 9h8q9 0 9 -9l-6 -175q0 -6 -6 -6h-2q-6 0 -6 6z" />
    <glyph glyph-name="parenleft" unicode="(" horiz-adv-x="305" 
d="M233 664q13 0 4 -11q-62 -83 -90.5 -177.5t-28.5 -188.5t28.5 -188.5t90.5 -177.5q9 -11 -5 -11h-6q-7 0 -11 5q-63 83 -92.5 179.5t-29.5 192.5t29.5 192.5t92.5 179.5q4 5 11 5h7z" />
    <glyph glyph-name="parenright" unicode=")" horiz-adv-x="305" 
d="M72 -90q-13 0 -4 11q62 83 90.5 177.5t28.5 188.5t-28.5 188.5t-90.5 177.5q-9 11 5 11h6q7 0 11 -5q63 -83 92.5 -179.5t29.5 -192.5t-29.5 -192.5t-92.5 -179.5q-4 -5 -11 -5h-7z" />
    <glyph glyph-name="asterisk" unicode="*" horiz-adv-x="468" 
d="M226 499l-5 191q0 10 10 10h6q10 0 10 -10l-5 -191l180 63q11 4 14 -7l1 -4q3 -10 -7 -13l-183 -56l117 -152q6 -8 -2 -14l-4 -3q-9 -6 -15 2l-109 158l-109 -158q-6 -8 -15 -2l-4 3q-8 6 -2 14l117 152l-183 56q-10 3 -7 13l1 4q3 11 14 7z" />
    <glyph glyph-name="plus" unicode="+" horiz-adv-x="528" 
d="M275 45q0 -9 -9 -9h-4q-9 0 -9 9v223h-223q-9 0 -9 9v4q0 9 9 9h223v223q0 9 9 9h4q9 0 9 -9v-223h223q9 0 9 -9v-4q0 -9 -9 -9h-223v-223z" />
    <glyph glyph-name="comma" unicode="," horiz-adv-x="200" 
d="M100 40q11 0 18.5 -8t7.5 -22q0 -53 -43 -90q-4 -4 -9 2q-4 4 0 8q26 23 30 62h-4q-11 0 -18.5 6.5t-7.5 17.5t7.5 17.5t18.5 6.5z" />
    <glyph glyph-name="hyphen" unicode="-" horiz-adv-x="325" 
d="M286 282q9 0 9 -9v-6q0 -9 -9 -9h-247q-9 0 -9 9v6q0 9 9 9h247z" />
    <glyph glyph-name="period" unicode="." horiz-adv-x="200" 
d="M100 -12q-11 0 -18.5 7.5t-7.5 18.5t7.5 18.5t18.5 7.5t18.5 -7.5t7.5 -18.5t-7.5 -18.5t-18.5 -7.5z" />
    <glyph glyph-name="slash" unicode="/" horiz-adv-x="343" 
d="M57 7q-3 -7 -11 -7h-6q-10 0 -7 10l253 647q3 7 11 7h6q10 0 7 -10z" />
    <glyph glyph-name="zero" unicode="0" horiz-adv-x="528" 
d="M61 420q0 216 203 216t203 -216v-215q0 -217 -203 -217t-203 217v215zM85 215q0 -106 43 -155.5t136 -49.5t136 49.5t43 155.5v195q0 106 -43 155t-136 49t-136 -49t-43 -155v-195z" />
    <glyph glyph-name="one" unicode="1" horiz-adv-x="528" 
d="M354 9q0 -9 -9 -9h-6q-9 0 -9 9v582l-182 -135q-7 -5 -12 3l-2 3q-5 7 2 12l197 146q5 4 10 4h2q9 0 9 -9v-606z" />
    <glyph glyph-name="two" unicode="2" horiz-adv-x="528" 
d="M465 9q0 -9 -9 -9h-374q-9 0 -9 9v4q0 7 5 12l262 260q28 28 47 51t30 44t16 42.5t5 47.5q0 68 -44.5 106t-123.5 38q-123 0 -176 -108q-4 -9 -12 -4l-6 3q-7 4 -2 12q27 57 78.5 88t117.5 31q89 0 140.5 -44.5t51.5 -121.5q0 -28 -5.5 -51.5t-18 -47t-32 -47.5
t-47.5 -52l-252 -250h349q9 0 9 -9v-4z" />
    <glyph glyph-name="three" unicode="3" horiz-adv-x="528" 
d="M348 331q66 -14 102.5 -56t36.5 -107q0 -85 -55.5 -132.5t-154.5 -47.5q-141 0 -208 94q-6 8 1 14l4 3q8 6 13 -3q31 -44 77.5 -65t112.5 -21q89 0 137.5 41.5t48.5 116.5q0 72 -50 111.5t-141 39.5h-66q-9 0 -9 9v4q0 9 9 9h61q87 0 133 34t46 99q0 67 -45 103.5
t-129 36.5q-120 0 -179 -86q-5 -8 -12 -2l-5 4q-5 5 -1 12q67 94 197 94q94 0 146 -43t52 -119q0 -56 -31.5 -92.5t-90.5 -49.5v-1z" />
    <glyph glyph-name="four" unicode="4" horiz-adv-x="528" 
d="M492 180q9 0 9 -9v-4q0 -9 -9 -9h-70v-149q0 -9 -9 -9h-6q-9 0 -9 9v149h-342q-9 0 -9 9v9q0 6 4 11l342 431q4 6 11 6h9q9 0 9 -9v-435h70zM397 588l-323 -408h324v408h-1z" />
    <glyph glyph-name="five" unicode="5" horiz-adv-x="528" 
d="M273 393q47 0 85 -14.5t65 -40.5t41.5 -63t14.5 -83q0 -47 -14.5 -84.5t-41.5 -64t-65.5 -41t-86.5 -14.5q-141 0 -208 94q-6 8 1 14l4 3q8 6 13 -3q31 -44 77.5 -65t112.5 -21q86 0 135 48.5t49 133.5q0 83 -48.5 131t-133.5 48q-111 0 -173 -68q-6 -6 -12 -4q-7 1 -7 9
l20 307q1 9 10 9h326q9 0 9 -9v-4q0 -9 -9 -9h-314l-19 -268h1q68 59 168 59z" />
    <glyph glyph-name="six" unicode="6" horiz-adv-x="528" 
d="M274 392q46 0 83.5 -14.5t64 -41t41 -64t14.5 -82.5t-14.5 -82.5t-41 -64t-64 -41t-83.5 -14.5t-83.5 14.5t-64 41t-41 64t-14.5 82.5v242q0 95 54.5 149.5t149.5 54.5q118 0 177 -82q5 -8 -2 -13l-5 -4q-7 -5 -12 3q-53 74 -158 74q-88 0 -134 -49t-46 -143v-137h1
q22 51 68 79t110 28zM274 10q82 0 130.5 48.5t48.5 131.5t-48.5 131.5t-130.5 48.5q-40 0 -73 -13t-56.5 -36.5t-36.5 -57t-13 -73.5q0 -83 48.5 -131.5t130.5 -48.5z" />
    <glyph glyph-name="seven" unicode="7" horiz-adv-x="528" 
d="M496 606q0 -5 -3 -11l-312 -589q-3 -6 -10 -6h-8q-12 0 -6 11l313 591h-386v-103q0 -9 -9 -9h-4q-9 0 -9 9v116q0 9 9 9h416q9 0 9 -9v-9z" />
    <glyph glyph-name="eight" unicode="8" horiz-adv-x="528" 
d="M344 331q66 -17 101.5 -58.5t35.5 -104.5q0 -85 -57 -132.5t-160 -47.5t-160 47.5t-57 132.5q0 63 35.5 104.5t101.5 57.5v1q-57 15 -88.5 52t-31.5 91q0 76 53 119t147 43t147 -43t53 -119q0 -54 -31.5 -91t-88.5 -51v-1zM88 474q0 -63 46.5 -98t129.5 -35t129.5 35
t46.5 98q0 67 -45.5 103.5t-130.5 36.5t-130.5 -36.5t-45.5 -103.5zM264 10q92 0 142.5 41.5t50.5 116.5q0 71 -51 111t-142 40t-142 -40t-51 -111q0 -75 50.5 -116.5t142.5 -41.5z" />
    <glyph glyph-name="nine" unicode="9" horiz-adv-x="528" 
d="M254 636q46 0 83.5 -14.5t64 -41t41 -64t14.5 -82.5v-242q0 -95 -54.5 -149.5t-149.5 -54.5q-118 0 -177 82q-5 8 2 13l5 4q7 5 12 -3q53 -74 158 -74q88 0 134 49t46 143v137h-1q-22 -51 -68 -79t-110 -28q-46 0 -83.5 14.5t-64 41t-41 64t-14.5 82.5t14.5 82.5t41 64
t64 41t83.5 14.5zM254 254q40 0 73 13t56.5 36.5t36.5 56.5t13 74q0 83 -48.5 131.5t-130.5 48.5t-130.5 -48.5t-48.5 -131.5t48.5 -131.5t130.5 -48.5z" />
    <glyph glyph-name="colon" unicode=":" horiz-adv-x="200" 
d="M100 -12q-11 0 -18.5 7.5t-7.5 18.5t7.5 18.5t18.5 7.5t18.5 -7.5t7.5 -18.5t-7.5 -18.5t-18.5 -7.5zM100 402q-11 0 -18.5 7.5t-7.5 18.5t7.5 18.5t18.5 7.5t18.5 -7.5t7.5 -18.5t-7.5 -18.5t-18.5 -7.5z" />
    <glyph glyph-name="semicolon" unicode=";" horiz-adv-x="200" 
d="M100 40q11 0 18.5 -8t7.5 -22q0 -53 -43 -90q-4 -4 -9 2q-4 4 0 8q26 23 30 62h-4q-11 0 -18.5 6.5t-7.5 17.5t7.5 17.5t18.5 6.5zM100 402q-11 0 -18.5 7.5t-7.5 18.5t7.5 18.5t18.5 7.5t18.5 -7.5t7.5 -18.5t-7.5 -18.5t-18.5 -7.5z" />
    <glyph glyph-name="less" unicode="&#x3c;" horiz-adv-x="528" 
d="M477 75q7 -3 7 -10v-5q0 -12 -11 -7l-423 213q-7 3 -7 10v6q0 7 7 10l423 213q11 5 11 -7v-5q0 -7 -7 -10l-407 -204z" />
    <glyph glyph-name="equal" unicode="=" horiz-adv-x="528" 
d="M478 400q9 0 9 -9v-4q0 -9 -9 -9h-428q-9 0 -9 9v4q0 9 9 9h428zM478 180q9 0 9 -9v-4q0 -9 -9 -9h-428q-9 0 -9 9v4q0 9 9 9h428z" />
    <glyph glyph-name="greater" unicode="&#x3e;" horiz-adv-x="528" 
d="M50 483q-7 3 -7 10v5q0 12 11 7l423 -213q7 -3 7 -10v-6q0 -7 -7 -10l-423 -213q-11 -5 -11 7v5q0 7 7 10l407 204z" />
    <glyph glyph-name="question" unicode="?" horiz-adv-x="443" 
d="M226 676q90 0 141 -45.5t51 -125.5q0 -29 -5.5 -52.5t-19 -44.5t-35 -40t-52.5 -38q-29 -18 -48 -34t-30 -32.5t-16 -35t-5 -41.5v-35q0 -9 -9 -9h-4q-9 0 -9 9v37q0 25 5 45.5t17 39t32 36t50 35.5q30 19 50.5 36.5t32.5 36.5t17 40t5 47q0 70 -44.5 109.5t-123.5 39.5
q-59 0 -104.5 -27.5t-71.5 -80.5q-4 -9 -12 -4l-5 3q-7 4 -3 12q29 57 79.5 88t116.5 31zM196 -12q-11 0 -18.5 7.5t-7.5 18.5t7.5 18.5t18.5 7.5t18.5 -7.5t7.5 -18.5t-7.5 -18.5t-18.5 -7.5z" />
    <glyph glyph-name="at" unicode="@" horiz-adv-x="724" 
d="M388 654q-72 0 -130 -24.5t-98.5 -72.5t-62.5 -118t-22 -160q0 -80 21 -142t60 -104.5t96 -64.5t129 -22q106 0 180 51q8 7 13 -3l2 -4q5 -8 -4 -14q-38 -26 -87 -39t-105 -13q-77 0 -138 24t-103.5 69.5t-65 111.5t-22.5 151q0 94 24 167.5t68 124.5t106.5 77.5
t139.5 26.5q66 0 118.5 -23.5t89 -67.5t56.5 -106.5t20 -139.5q0 -236 -118 -236q-35 0 -56 20.5t-28 52.5h-1q-16 -36 -47.5 -54t-70.5 -18q-63 0 -95.5 29t-32.5 81q0 51 35.5 80.5t98.5 29.5h107v18q0 69 -26.5 100.5t-83.5 31.5q-61 0 -97 -43q-7 -8 -14 -1l-4 4
q-6 6 1 13q23 26 52.5 37.5t61.5 11.5q68 0 101 -36.5t33 -107.5v-139q0 -37 16 -62.5t50 -25.5q45 0 69.5 54t24.5 161q0 73 -18 131t-52 98.5t-82 62.5t-109 22zM360 302q-54 0 -83 -22.5t-29 -65.5q0 -88 104 -88q23 0 43.5 7t36 22.5t24.5 39.5t9 58v49h-105z" />
    <glyph glyph-name="A" unicode="A" horiz-adv-x="572" 
d="M539 10q3 -10 -7 -10h-7q-9 0 -11 7l-60 166h-337l-60 -166q-2 -7 -11 -7h-6q-10 0 -7 10l238 646q3 8 11 8h8q8 0 11 -8zM285 630l-159 -435h319l-159 435h-1z" />
    <glyph glyph-name="B" unicode="B" horiz-adv-x="560" 
d="M372 339q73 -12 107.5 -52.5t34.5 -112.5q0 -90 -52 -132t-164 -42h-197q-9 0 -9 9v646q0 9 9 9h179q112 0 164 -40.5t52 -128.5q0 -64 -30 -102.5t-94 -52.5v-1zM280 349q100 0 146 35t46 111q0 77 -46 112t-146 35h-164v-293h164zM298 22q100 0 146 36.5t46 115.5
q0 80 -46 116.5t-146 36.5h-182v-305h182z" />
    <glyph glyph-name="C" unicode="C" horiz-adv-x="537" 
d="M285 10q71 0 116.5 28.5t70.5 86.5q3 9 12 6l6 -2q9 -3 5 -12q-55 -129 -210 -129q-109 0 -164.5 60.5t-55.5 179.5v208q0 119 55.5 179.5t164.5 60.5q155 0 210 -129q3 -9 -5 -12l-4 -2q-10 -5 -13 4q-25 59 -71 88t-117 29q-100 0 -148 -56t-48 -172v-188
q0 -116 48 -172t148 -56z" />
    <glyph glyph-name="D" unicode="D" horiz-adv-x="589" 
d="M299 664q112 0 168.5 -56.5t56.5 -168.5v-214q0 -112 -56.5 -168.5t-168.5 -56.5h-198q-9 0 -9 9v646q0 9 9 9h198zM500 428q0 109 -49 161.5t-152 52.5h-183v-620h183q103 0 152 52.5t49 161.5v192z" />
    <glyph glyph-name="E" unicode="E" horiz-adv-x="537" 
d="M435 347q9 0 9 -9v-4q0 -9 -9 -9h-319v-303h363q9 0 9 -9v-4q0 -9 -9 -9h-378q-9 0 -9 9v646q0 9 9 9h378q9 0 9 -9v-4q0 -9 -9 -9h-363v-295h319z" />
    <glyph glyph-name="F" unicode="F" horiz-adv-x="498" 
d="M425 345q9 0 9 -9v-4q0 -9 -9 -9h-309v-314q0 -9 -9 -9h-6q-9 0 -9 9v646q0 9 9 9h368q9 0 9 -9v-4q0 -9 -9 -9h-353v-297h309z" />
    <glyph glyph-name="G" unicode="G" horiz-adv-x="570" 
d="M512 228q0 -119 -56 -179.5t-167 -60.5t-167.5 60.5t-56.5 179.5v208q0 119 56.5 179.5t168.5 60.5q155 0 211 -129q3 -9 -5 -12l-5 -2q-9 -4 -13 5q-25 58 -71 87t-117 29q-103 0 -152 -56t-49 -173v-186q0 -117 49 -173t151 -56t151 56t49 173v68h-178q-9 0 -9 9v4
q0 9 9 9h192q9 0 9 -9v-92z" />
    <glyph glyph-name="H" unicode="H" horiz-adv-x="624" 
d="M532 9q0 -9 -9 -9h-6q-9 0 -9 9v316h-392v-316q0 -9 -9 -9h-6q-9 0 -9 9v646q0 9 9 9h6q9 0 9 -9v-308h392v308q0 9 9 9h6q9 0 9 -9v-646z" />
    <glyph glyph-name="I" unicode="I" horiz-adv-x="208" 
d="M92 655q0 9 9 9h6q9 0 9 -9v-646q0 -9 -9 -9h-6q-9 0 -9 9v646z" />
    <glyph glyph-name="J" unicode="J" horiz-adv-x="515" 
d="M436 219q0 -115 -53 -173t-158 -58q-137 0 -198 116q-5 8 3 12l5 3q7 4 12 -3q56 -106 178 -106q96 0 141.5 53.5t45.5 165.5v426q0 9 9 9h6q9 0 9 -9v-436z" />
    <glyph glyph-name="K" unicode="K" horiz-adv-x="533" 
d="M116 9q0 -9 -9 -9h-6q-9 0 -9 9v646q0 9 9 9h6q9 0 9 -9v-311l341 315q5 5 11 5h12q6 0 7.5 -3.5t-3.5 -7.5l-341 -316l352 -326q4 -4 3 -7.5t-7 -3.5h-14q-6 0 -11 5l-350 325v-321z" />
    <glyph glyph-name="L" unicode="L" horiz-adv-x="493" 
d="M473 9q0 -9 -9 -9h-363q-9 0 -9 9v646q0 9 9 9h6q9 0 9 -9v-633h348q9 0 9 -9v-4z" />
    <glyph glyph-name="M" unicode="M" horiz-adv-x="803" 
d="M711 9q0 -9 -9 -9h-6q-9 0 -9 9v616h-1l-272 -618q-3 -7 -10 -7h-6q-7 0 -10 7l-271 615h-1v-613q0 -9 -9 -9h-6q-9 0 -9 9v646q0 9 9 9h17q7 0 10 -7l274 -624l273 624q3 7 10 7h17q9 0 9 -9v-646z" />
    <glyph glyph-name="N" unicode="N" horiz-adv-x="624" 
d="M92 655q0 9 9 9h9q6 0 11 -6l386 -609h1v606q0 9 9 9h6q9 0 9 -9v-646q0 -9 -9 -9h-6q-7 0 -11 6l-389 614h-1v-611q0 -9 -9 -9h-6q-9 0 -9 9v646z" />
    <glyph glyph-name="O" unicode="O" horiz-adv-x="580" 
d="M65 436q0 119 56.5 179.5t168.5 60.5t168.5 -60.5t56.5 -179.5v-208q0 -119 -56.5 -179.5t-168.5 -60.5t-168.5 60.5t-56.5 179.5v208zM89 238q0 -116 49 -172t152 -56t152 56t49 172v188q0 116 -49 172t-152 56t-152 -56t-49 -172v-188z" />
    <glyph glyph-name="P" unicode="P" horiz-adv-x="534" 
d="M284 664q115 0 168.5 -45.5t53.5 -142.5t-53.5 -142.5t-168.5 -45.5h-168v-279q0 -9 -9 -9h-6q-9 0 -9 9v646q0 9 9 9h183zM284 310q103 0 150.5 40t47.5 126t-47.5 126t-150.5 40h-168v-332h168z" />
    <glyph glyph-name="Q" unicode="Q" horiz-adv-x="580" 
d="M545 -105q4 -7 -2 -12q-20 -17 -47 -27t-56 -10q-64 0 -99 36.5t-37 105.5h-14q-112 0 -168.5 60.5t-56.5 179.5v208q0 119 56.5 179.5t168.5 60.5t168.5 -60.5t56.5 -179.5v-208q0 -217 -186 -238q3 -122 111 -122q50 0 89 33q8 6 13 -2zM89 238q0 -116 49 -172t152 -56
t152 56t49 172v188q0 116 -49 172t-152 56t-152 -56t-49 -172v-188z" />
    <glyph glyph-name="R" unicode="R" horiz-adv-x="566" 
d="M116 288v-279q0 -9 -9 -9h-6q-9 0 -9 9v646q0 9 9 9h175q116 0 170.5 -45.5t54.5 -142.5q0 -86 -42 -131t-131 -54l186 -280q7 -11 -6 -11h-11q-7 0 -11 6l-186 283q-6 -1 -12 -1h-12h-160zM276 310q105 0 153 40t48 126t-48 126t-153 40h-160v-332h160z" />
    <glyph glyph-name="S" unicode="S" horiz-adv-x="501" 
d="M255 676q134 0 194 -92q5 -9 -2 -13l-5 -3q-8 -5 -13 3q-50 83 -174 83q-41 0 -74 -11.5t-56.5 -32t-36.5 -49.5t-13 -65q0 -33 9.5 -58t32 -43.5t58.5 -31t90 -21.5q57 -9 96 -23.5t63 -35.5t34.5 -49.5t10.5 -66.5q0 -40 -14.5 -73t-41 -56.5t-64 -36.5t-83.5 -13
q-77 0 -133.5 26.5t-90.5 78.5q-5 7 2 13l4 3q8 6 14 -3q64 -96 204 -96q40 0 73.5 11.5t57 32t36.5 49.5t13 65q0 32 -9.5 56.5t-31 42.5t-57.5 30.5t-90 21.5q-58 9 -97.5 23.5t-63.5 36t-34.5 50.5t-10.5 68q0 40 14.5 73t41 56.5t64 36.5t83.5 13z" />
    <glyph glyph-name="T" unicode="T" horiz-adv-x="470" 
d="M247 9q0 -9 -9 -9h-6q-9 0 -9 9v633h-194q-9 0 -9 9v4q0 9 9 9h412q9 0 9 -9v-4q0 -9 -9 -9h-194v-633z" />
    <glyph glyph-name="U" unicode="U" horiz-adv-x="588" 
d="M500 664q9 0 9 -9v-436q0 -115 -54.5 -173t-160.5 -58t-160.5 58t-54.5 173v436q0 9 9 9h6q9 0 9 -9v-426q0 -112 46.5 -165.5t144.5 -53.5t144.5 53.5t46.5 165.5v426q0 9 9 9h6z" />
    <glyph glyph-name="V" unicode="V" horiz-adv-x="554" 
d="M515 664q10 0 6 -11l-230 -645q-3 -8 -11 -8h-6q-8 0 -11 8l-230 645q-4 11 7 11h7q8 0 11 -8l220 -618h1l218 618q3 8 11 8h7z" />
    <glyph glyph-name="W" unicode="W" horiz-adv-x="845" 
d="M608 0q-8 0 -11 9l-174 611h-1l-174 -611q-3 -9 -11 -9h-7q-8 0 -11 9l-185 644q-4 11 8 11h7q8 0 10 -8l175 -613h1l174 613q3 8 11 8h6q8 0 11 -8l175 -613h1l174 613q3 8 10 8h7q11 0 7 -11l-185 -644q-3 -9 -11 -9h-7z" />
    <glyph glyph-name="X" unicode="X" horiz-adv-x="540" 
d="M70 6q-4 -6 -11 -6h-7q-13 0 -6 11l209 328l-200 314q-7 11 6 11h9q7 0 11 -6l189 -299l190 299q4 6 11 6h7q13 0 6 -11l-199 -313l209 -329q7 -11 -6 -11h-9q-7 0 -11 6l-199 314z" />
    <glyph glyph-name="Y" unicode="Y" horiz-adv-x="500" 
d="M247 0q-9 0 -9 9v293l-224 351q-7 11 6 11h8q7 0 11 -6l212 -333l211 333q4 6 11 6h7q13 0 6 -11l-224 -351v-293q0 -9 -9 -9h-6z" />
    <glyph glyph-name="Z" unicode="Z" horiz-adv-x="510" 
d="M50 0q-9 0 -9 9v9q0 3 0.5 5t2.5 6l392 613h-371q-9 0 -9 9v4q0 9 9 9h390q9 0 9 -9v-9q0 -3 -0.5 -5t-2.5 -6l-394 -613h393q9 0 9 -9v-4q0 -9 -9 -9h-410z" />
    <glyph glyph-name="bracketleft" unicode="[" horiz-adv-x="305" 
d="M252 -68q9 0 9 -9v-4q0 -9 -9 -9h-142q-9 0 -9 9v736q0 9 9 9h142q9 0 9 -9v-4q0 -9 -9 -9h-127v-710h127z" />
    <glyph glyph-name="backslash" unicode="\" horiz-adv-x="343" 
d="M297 0q-8 0 -11 7l-253 647q-3 10 7 10h6q8 0 11 -7l253 -647q3 -10 -7 -10h-6z" />
    <glyph glyph-name="bracketright" unicode="]" horiz-adv-x="305" 
d="M53 642q-9 0 -9 9v4q0 9 9 9h142q9 0 9 -9v-736q0 -9 -9 -9h-142q-9 0 -9 9v4q0 9 9 9h127v710h-127z" />
    <glyph glyph-name="asciicircum" unicode="^" horiz-adv-x="528" 
d="M53 264q-5 -6 -11 -6h-6q-13 0 -6 11l220 349q4 6 11 6h6q6 0 11 -6l220 -349q7 -11 -6 -11h-6q-7 0 -11 6l-211 335z" />
    <glyph glyph-name="underscore" unicode="_" horiz-adv-x="500" 
d="M500 -90h-500v20h500v-20z" />
    <glyph glyph-name="grave" unicode="`" horiz-adv-x="500" 
d="M169 710q6 0 11 -6l86 -127q7 -10 -5 -10h-6q-6 0 -10 5l-90 127q-4 5 -2 8t7 3h9z" />
    <glyph glyph-name="a" unicode="a" horiz-adv-x="449" 
d="M216 502q173 0 173 -185v-143q0 -92 -44.5 -139t-133.5 -47q-78 0 -121.5 37.5t-43.5 104.5q0 68 45.5 105.5t127.5 37.5h146v34q0 90 -36 131.5t-113 41.5q-40 0 -73.5 -14t-57.5 -43q-6 -8 -13 -1l-4 4q-6 6 0 13q29 32 67 47.5t81 15.5zM211 10q81 0 117.5 41.5
t36.5 131.5v68h-144q-73 0 -112 -31t-39 -90q0 -58 36 -89t105 -31z" />
    <glyph glyph-name="b" unicode="b" horiz-adv-x="486" 
d="M251 502q175 0 175 -185v-143q0 -92 -44 -139t-131 -47t-131 47t-44 139v517q0 9 9 9h6q9 0 9 -9v-275h1q38 86 150 86zM402 307q0 90 -36.5 131.5t-114.5 41.5q-151 0 -151 -173v-124q0 -90 36.5 -131.5t114.5 -41.5t114.5 41.5t36.5 131.5v124z" />
    <glyph glyph-name="c" unicode="c" horiz-adv-x="415" 
d="M381 65q6 -6 0 -13q-60 -64 -146 -64t-130.5 47t-44.5 139v143q0 92 44 138.5t129 46.5q89 0 140 -55q6 -7 0 -13l-4 -4q-7 -7 -13 0q-23 26 -52.5 38t-70.5 12q-77 0 -113 -41.5t-36 -131.5v-124q0 -90 37.5 -131.5t115.5 -41.5q38 0 68.5 14t58.5 45q6 6 13 0z" />
    <glyph glyph-name="d" unicode="d" horiz-adv-x="486" 
d="M410 174q0 -92 -44 -139t-131 -47t-131 47t-44 139v143q0 185 175 185q112 0 150 -86h1v275q0 9 9 9h6q9 0 9 -9v-517zM386 307q0 173 -151 173q-78 0 -114.5 -41.5t-36.5 -131.5v-124q0 -90 36.5 -131.5t114.5 -41.5t114.5 41.5t36.5 131.5v124z" />
    <glyph glyph-name="e" unicode="e" horiz-adv-x="450" 
d="M232 502q172 0 172 -185v-68q0 -9 -9 -9h-311v-57q0 -91 38.5 -132t122.5 -41q74 0 130 66q6 7 13 0l4 -4q6 -6 0 -13q-58 -71 -149 -71t-137 46.5t-46 138.5v144q0 185 172 185zM380 307q0 91 -35.5 132t-112.5 41t-112.5 -41t-35.5 -132v-45h296v45z" />
    <glyph glyph-name="f" unicode="f" horiz-adv-x="310" 
d="M241 690q-114 0 -114 -139v-61h175q9 0 9 -9v-4q0 -9 -9 -9h-175v-459q0 -9 -9 -9h-6q-9 0 -9 9v459h-74q-9 0 -9 9v4q0 9 9 9h74v67q0 75 35.5 115t102.5 40q29 0 51.5 -6t44.5 -20q7 -4 2 -13l-2 -4q-5 -8 -12 -3q-19 13 -38.5 18.5t-45.5 5.5z" />
    <glyph glyph-name="g" unicode="g" horiz-adv-x="486" 
d="M235 502q87 0 131 -47t44 -139v-321q0 -78 -46 -122.5t-126 -44.5q-50 0 -88 14.5t-70 46.5q-8 7 -1 14l4 4q6 6 13 0q28 -29 62 -43t80 -14q72 0 110 40t38 115v81h-1q-38 -86 -150 -86q-175 0 -175 185v131q0 92 44 139t131 47zM235 22q151 0 151 173v112
q0 90 -36.5 131.5t-114.5 41.5t-114.5 -41.5t-36.5 -131.5v-112q0 -90 36.5 -131.5t114.5 -41.5z" />
    <glyph glyph-name="h" unicode="h" horiz-adv-x="502" 
d="M254 502q172 0 172 -181v-312q0 -9 -9 -9h-6q-9 0 -9 9v302q0 88 -36 128.5t-112 40.5q-148 0 -148 -169v-302q0 -9 -9 -9h-6q-9 0 -9 9v682q0 9 9 9h6q9 0 9 -9v-272h1q36 83 147 83z" />
    <glyph glyph-name="i" unicode="i" horiz-adv-x="188" 
d="M97 490q9 0 9 -9v-472q0 -9 -9 -9h-6q-9 0 -9 9v472q0 9 9 9h6zM94 603q-11 0 -18 7t-7 18t7 18t18 7t18 -7t7 -18t-7 -18t-18 -7z" />
    <glyph glyph-name="j" unicode="j" horiz-adv-x="188" 
d="M94 603q-11 0 -18 7t-7 18t7 18t18 7t18 -7t7 -18t-7 -18t-18 -7zM-10 -138q92 0 92 102v517q0 9 9 9h6q9 0 9 -9v-517q0 -124 -116 -124h-3q-9 0 -9 9v4q0 9 9 9h3z" />
    <glyph glyph-name="k" unicode="k" horiz-adv-x="412" 
d="M106 9q0 -9 -9 -9h-6q-9 0 -9 9v682q0 9 9 9h6q9 0 9 -9v-436l246 230q5 5 11 5h12q6 0 7.5 -3t-3.5 -8l-246 -229l257 -239q5 -4 3.5 -7.5t-7.5 -3.5h-12q-6 0 -11 5l-257 239v-235z" />
    <glyph glyph-name="l" unicode="l" horiz-adv-x="188" 
d="M97 700q9 0 9 -9v-682q0 -9 -9 -9h-6q-9 0 -9 9v682q0 9 9 9h6z" />
    <glyph glyph-name="m" unicode="m" horiz-adv-x="766" 
d="M529 502q161 0 161 -179v-314q0 -9 -9 -9h-6q-9 0 -9 9v304q0 87 -33 127t-104 40q-69 0 -101.5 -40t-32.5 -127v-304q0 -9 -9 -9h-6q-9 0 -9 9v304q0 87 -33 127t-104 40q-69 0 -101.5 -40t-32.5 -127v-304q0 -9 -9 -9h-6q-9 0 -9 9v314q0 179 158 179q61 0 97.5 -24
t51.5 -76h1q14 52 49.5 76t95.5 24z" />
    <glyph glyph-name="n" unicode="n" horiz-adv-x="496" 
d="M405 0q-9 0 -9 9v302q0 88 -36 128.5t-112 40.5t-112 -40.5t-36 -128.5v-302q0 -9 -9 -9h-6q-9 0 -9 9v312q0 181 172 181t172 -181v-312q0 -9 -9 -9h-6z" />
    <glyph glyph-name="o" unicode="o" horiz-adv-x="470" 
d="M235 502q175 0 175 -185v-144q0 -185 -175 -185t-175 185v144q0 185 175 185zM386 307q0 90 -36.5 131.5t-114.5 41.5t-114.5 -41.5t-36.5 -131.5v-124q0 -90 36.5 -131.5t114.5 -41.5t114.5 41.5t36.5 131.5v124z" />
    <glyph glyph-name="p" unicode="p" horiz-adv-x="486" 
d="M251 502q87 0 131 -47t44 -139v-143q0 -185 -175 -185q-112 0 -150 86h-1v-225q0 -9 -9 -9h-6q-9 0 -9 9v467q0 92 44 139t131 47zM402 307q0 90 -36.5 131.5t-114.5 41.5t-114.5 -41.5t-36.5 -131.5v-124q0 -173 151 -173q78 0 114.5 41.5t36.5 131.5v124z" />
    <glyph glyph-name="q" unicode="q" horiz-adv-x="486" 
d="M235 502q87 0 131 -47t44 -139v-467q0 -9 -9 -9h-6q-9 0 -9 9v225h-1q-38 -86 -150 -86q-175 0 -175 185v143q0 92 44 139t131 47zM235 10q151 0 151 173v124q0 90 -36.5 131.5t-114.5 41.5t-114.5 -41.5t-36.5 -131.5v-124q0 -90 36.5 -131.5t114.5 -41.5z" />
    <glyph glyph-name="r" unicode="r" horiz-adv-x="360" 
d="M76 337q0 81 37.5 123t112.5 42q65 0 109 -36q7 -6 1 -13l-3 -4q-6 -7 -13 -1q-37 32 -94 32q-66 0 -96 -36t-30 -117v-318q0 -9 -9 -9h-6q-9 0 -9 9v328z" />
    <glyph glyph-name="s" unicode="s" horiz-adv-x="410" 
d="M375 126q0 -64 -43 -101t-117 -37q-116 0 -174 67q-6 7 0 13l4 4q6 6 13 0q53 -62 157 -62q66 0 101.5 30.5t35.5 86.5q0 25 -7.5 44t-25 32.5t-46 22.5t-70.5 14q-44 6 -74 15.5t-48 24.5t-25.5 35.5t-7.5 48.5q0 64 44.5 101t121.5 37q41 0 77.5 -13t63.5 -37
q7 -7 1 -13l-4 -4q-7 -7 -13 0q-47 45 -125 45q-69 0 -106 -30t-37 -87q0 -23 7 -40t23.5 -29t43 -20t66.5 -13q30 -4 59.5 -10t52.5 -20t37.5 -39t14.5 -66z" />
    <glyph glyph-name="t" unicode="t" horiz-adv-x="346" 
d="M326 31q4 -7 -2 -12q-41 -31 -94 -31q-62 0 -94.5 34.5t-32.5 99.5v346h-74q-9 0 -9 9v4q0 9 9 9h74v128q0 9 9 9h6q9 0 9 -9v-128h175q9 0 9 -9v-4q0 -9 -9 -9h-175v-340q0 -118 103 -118q21 0 40.5 6.5t39.5 21.5q8 6 13 -2z" />
    <glyph glyph-name="u" unicode="u" horiz-adv-x="490" 
d="M414 166q0 -178 -169 -178t-169 178v315q0 9 9 9h6q9 0 9 -9v-305q0 -86 35 -126t110 -40t110 40t35 126v305q0 9 9 9h6q9 0 9 -9v-315z" />
    <glyph glyph-name="v" unicode="v" horiz-adv-x="436" 
d="M215 0q-8 0 -11 8l-179 472q-3 10 7 10h7q8 0 11 -7l169 -445h1l167 445q3 7 11 7h6q10 0 7 -10l-179 -472q-3 -8 -11 -8h-6z" />
    <glyph glyph-name="w" unicode="w" horiz-adv-x="670" 
d="M480 0q-8 0 -11 9l-133 437h-1l-134 -437q-3 -9 -12 -9h-7q-9 0 -12 9l-144 471q-3 10 8 10h7q9 0 10 -7l135 -440h1l134 440q1 7 10 7h8q7 0 10 -7l136 -440h1l134 440q1 7 10 7h6q11 0 8 -10l-145 -471q-3 -9 -11 -9h-8z" />
    <glyph glyph-name="x" unicode="x" horiz-adv-x="442" 
d="M62 6q-5 -6 -11 -6h-7q-13 0 -5 11l168 242l-157 226q-8 11 5 11h9q6 0 11 -6l147 -213l147 213q4 6 11 6h7q13 0 5 -11l-157 -226l168 -242q8 -11 -5 -11h-9q-7 0 -11 6l-158 228z" />
    <glyph glyph-name="y" unicode="y" horiz-adv-x="502" 
d="M420 -5q0 -78 -46 -122.5t-126 -44.5q-97 0 -159 62q-7 6 0 13l4 4q6 6 13 0q28 -29 62 -43t80 -14q72 0 110 40t38 115v78h-1q-36 -83 -147 -83q-172 0 -172 181v300q0 9 9 9h6q9 0 9 -9v-290q0 -88 36 -128.5t112 -40.5q148 0 148 169v290q0 9 9 9h6q9 0 9 -9v-486z
" />
    <glyph glyph-name="z" unicode="z" horiz-adv-x="414" 
d="M48 0q-9 0 -9 9v9q0 3 0.5 5t2.5 6l300 439h-279q-9 0 -9 9v4q0 9 9 9h298q9 0 9 -9v-9q0 -3 -0.5 -5t-2.5 -6l-301 -439h300q9 0 9 -9v-4q0 -9 -9 -9h-318z" />
    <glyph glyph-name="braceleft" unicode="{" horiz-adv-x="315" 
d="M155 393q0 -45 -13.5 -70.5t-44.5 -34.5v-1q31 -10 44.5 -35.5t13.5 -70.5v-148q0 -55 24.5 -78t81.5 -23h1q9 0 9 -9v-4q0 -9 -9 -9h-1q-69 0 -99.5 29t-30.5 94v152q0 48 -18 69.5t-56 21.5q-9 0 -9 9v4q0 9 9 9q38 0 56 21.5t18 69.5v152q0 65 30.5 94t99.5 29h1
q9 0 9 -9v-4q0 -9 -9 -9h-1q-57 0 -81.5 -23t-24.5 -78v-148z" />
    <glyph glyph-name="bar" unicode="|" horiz-adv-x="264" 
d="M134 700q9 0 9 -9v-842q0 -9 -9 -9h-4q-9 0 -9 9v842q0 9 9 9h4z" />
    <glyph glyph-name="braceright" unicode="}" horiz-adv-x="315" 
d="M160 181q0 45 13.5 70.5t44.5 34.5v1q-31 10 -44.5 35.5t-13.5 70.5v148q0 55 -24.5 78t-81.5 23h-1q-9 0 -9 9v4q0 9 9 9h1q69 0 99.5 -29t30.5 -94v-152q0 -48 18 -69.5t56 -21.5q9 0 9 -9v-4q0 -9 -9 -9q-38 0 -56 -21.5t-18 -69.5v-152q0 -65 -30.5 -94t-99.5 -29h-1
q-9 0 -9 9v4q0 9 9 9h1q57 0 81.5 23t24.5 78v148z" />
    <glyph glyph-name="asciitilde" unicode="~" horiz-adv-x="528" 
d="M153 307q-35 0 -59.5 -16.5t-50.5 -57.5q-5 -9 -13 -3l-4 3q-7 5 -2 13q27 43 57.5 63t69.5 20q30 0 56 -9t64 -33q33 -22 55.5 -30.5t48.5 -8.5q35 0 59.5 16.5t50.5 57.5q5 8 13 3l4 -3q7 -5 2 -13q-27 -43 -57.5 -63t-69.5 -20q-30 0 -56 9t-64 33q-33 22 -55.5 30.5
t-48.5 8.5z" />
    <glyph glyph-name="uni00A0" unicode="&#xa0;" horiz-adv-x="215" 
 />
    <glyph glyph-name="exclamdown" unicode="&#xa1;" horiz-adv-x="202" 
d="M101 676q11 0 18.5 -7.5t7.5 -18.5t-7.5 -18.5t-18.5 -7.5t-18.5 7.5t-7.5 18.5t7.5 18.5t18.5 7.5zM98 0q-9 0 -9 9v298l5 208q0 6 6 6h2q6 0 6 -6l5 -208v-298q0 -9 -9 -9h-6z" />
    <glyph glyph-name="cent" unicode="&#xa2;" horiz-adv-x="528" 
d="M450 88q6 -6 0 -13q-29 -31 -64 -47.5t-82 -19.5v-69q0 -9 -9 -9h-4q-9 0 -9 9v69q-94 2 -140.5 51t-46.5 143v129q0 95 46.5 143.5t140.5 49.5v63q0 9 9 9h4q9 0 9 -9v-63q89 -6 138 -58q6 -7 0 -13l-4 -4q-7 -7 -13 0q-23 25 -51 37.5t-70 15.5v-472q41 2 71.5 17.5
t57.5 44.5q6 6 13 0zM119 211q0 -91 38.5 -135t124.5 -46v472q-87 -1 -125 -45t-38 -137v-109z" />
    <glyph glyph-name="sterling" unicode="&#xa3;" horiz-adv-x="528" 
d="M470 547q6 -8 -2 -13l-5 -3q-8 -5 -13 3q-50 80 -166 80q-81 0 -126 -40t-45 -111q0 -30 7 -56.5t25 -63.5l10 -22t9 -23h222q9 0 9 -9v-4q0 -9 -9 -9h-215q5 -16 7.5 -34t2.5 -40q0 -54 -16 -95.5t-52 -83.5v-1h339q9 0 9 -9v-4q0 -9 -9 -9h-359q-9 0 -9 9v5q0 7 4 11
q39 42 54.5 81.5t15.5 95.5q0 41 -11 74h-69q-9 0 -9 9v4q0 9 9 9h62q-4 10 -8 19.5t-9 18.5q-19 40 -26.5 68t-7.5 60q0 39 13.5 71t39 54.5t61.5 34.5t81 12q63 0 110 -22t76 -67z" />
    <glyph glyph-name="currency" unicode="&#xa4;" horiz-adv-x="528" 
d="M439 309q0 -35 -11 -64t-31 -52l79 -80q6 -6 0 -12l-3 -3q-6 -6 -12 0l-80 79q-23 -20 -52.5 -31t-64.5 -11t-64.5 11t-52.5 31l-80 -79q-6 -6 -12 0l-3 3q-6 6 0 12l79 80q-20 23 -31 52t-11 64t11 64.5t31 52.5l-79 80q-6 6 0 12l3 3q6 6 12 0l80 -79q23 20 52.5 31.5
t64.5 11.5t64.5 -11.5t52.5 -31.5l80 79q6 6 12 0l3 -3q6 -6 0 -12l-79 -80q20 -23 31 -52.5t11 -64.5zM112 309q0 -33 11.5 -61.5t32 -48.5t48 -31.5t60.5 -11.5t61 11.5t48.5 32t32 48.5t11.5 61t-11.5 61.5t-32 49.5t-48.5 32.5t-61 11.5t-60.5 -11.5t-48 -32.5
t-32 -49.5t-11.5 -61.5z" />
    <glyph glyph-name="yen" unicode="&#xa5;" horiz-adv-x="528" 
d="M445 314q9 0 9 -9v-4q0 -9 -9 -9h-169v-118h168q9 0 9 -9v-4q0 -9 -9 -9h-168v-143q0 -9 -9 -9h-6q-9 0 -9 9v143h-173q-9 0 -9 9v4q0 9 9 9h173v118h-172q-9 0 -9 9v4q0 9 9 9h166l-201 299q-7 11 6 11h9q6 0 11 -6l194 -292l194 292q4 6 11 6h8q13 0 6 -11l-201 -299
h162z" />
    <glyph glyph-name="brokenbar" unicode="&#xa6;" horiz-adv-x="264" 
d="M134 700q9 0 9 -9v-332q0 -9 -9 -9h-4q-9 0 -9 9v332q0 9 9 9h4zM134 190q9 0 9 -9v-332q0 -9 -9 -9h-4q-9 0 -9 9v332q0 9 9 9h4z" />
    <glyph glyph-name="section" unicode="&#xa7;" horiz-adv-x="561" 
d="M375 117q23 -6 42.5 -15.5t34 -24.5t22.5 -37t8 -52q0 -36 -14 -65.5t-39.5 -50.5t-61.5 -32.5t-81 -11.5q-149 0 -215 94q-6 8 1 13l5 4q4 3 7.5 1.5t5.5 -5.5q30 -45 78 -65.5t118 -20.5q80 0 127 37.5t47 102.5q0 28 -9 49.5t-30.5 36t-57 23.5t-87.5 13
q-59 5 -99.5 16.5t-65.5 30.5t-36 46.5t-11 65.5q0 55 32.5 94t89.5 56v1q-23 6 -42.5 15.5t-34 25t-22.5 37.5t-8 53q0 36 14 65.5t40 50.5t62.5 32.5t80.5 11.5q127 0 188 -83q2 -3 2.5 -7t-3.5 -6l-5 -3q-9 -5 -14 4q-26 38 -67 55.5t-101 17.5q-80 0 -127 -37.5
t-47 -101.5q0 -29 9.5 -50.5t31 -36.5t57 -24.5t87.5 -13.5q58 -5 98.5 -16t65 -30t35.5 -46t11 -64q0 -56 -32.5 -95.5t-89.5 -56.5v-1zM87 269q0 -32 10 -55.5t33 -40t59.5 -26.5t90.5 -15q11 -1 21 -2t20 -3q72 8 113 46t41 98q0 31 -10 54.5t-32.5 39.5t-59 26t-90.5 15
q-16 2 -25 2.5t-20 2.5q-71 -8 -111 -45.5t-40 -96.5z" />
    <glyph glyph-name="dieresis" unicode="&#xa8;" horiz-adv-x="500" 
d="M175 603q-11 0 -18 7t-7 18t7 18t18 7t18 -7t7 -18t-7 -18t-18 -7zM325 603q-11 0 -18 7t-7 18t7 18t18 7t18 -7t7 -18t-7 -18t-18 -7z" />
    <glyph glyph-name="copyright" unicode="&#xa9;" horiz-adv-x="780" 
d="M390 676q73 0 136 -26t109.5 -72.5t72.5 -109.5t26 -136q0 -74 -26 -136.5t-72.5 -109t-109.5 -72.5t-136 -26q-74 0 -136.5 26t-109 72.5t-72.5 109t-26 136.5q0 73 26 136t72.5 109.5t109 72.5t136.5 26zM390 10q68 0 126.5 24.5t101.5 68t67.5 102t24.5 127.5
t-24.5 127.5t-67.5 102t-101.5 68t-126.5 24.5t-126.5 -24.5t-101.5 -68t-67.5 -102t-24.5 -127.5t24.5 -127.5t67.5 -102t101.5 -68t126.5 -24.5zM389 502q-101 0 -101 -118v-104q0 -118 101 -118q67 0 95 56q4 8 12 4l4 -2q8 -5 4 -12q-31 -67 -115 -67q-125 0 -125 133
v116q0 133 125 133q84 0 115 -68q4 -8 -3 -12l-4 -2q-8 -5 -12 4q-27 57 -96 57z" />
    <glyph glyph-name="ordfeminine" unicode="&#xaa;" horiz-adv-x="343" 
d="M163 636q135 0 135 -143v-110q0 -143 -138 -143q-61 0 -94.5 29t-33.5 81q0 53 35 82t99 29h108v24q0 67 -27 98t-84 31q-29 0 -54.5 -10t-42.5 -31q-6 -8 -13 -1l-4 4q-6 6 1 13q47 47 113 47zM160 262q60 0 87 31t27 97v49h-106q-54 0 -83 -22.5t-29 -65.5t26.5 -66
t77.5 -23z" />
    <glyph glyph-name="guillemotleft" unicode="&#xab;" horiz-adv-x="377" 
d="M170 69q6 -9 -7 -9h-5q-6 0 -10 5l-113 174q-5 6 0 12l113 174q4 5 10 5h5q13 0 7 -9l-114 -176zM330 69q6 -9 -7 -9h-5q-6 0 -10 5l-113 174q-5 6 0 12l113 174q4 5 10 5h5q13 0 7 -9l-114 -176z" />
    <glyph glyph-name="logicalnot" unicode="&#xac;" horiz-adv-x="528" 
d="M507 115q0 -9 -9 -9h-4q-9 0 -9 9v223h-455q-9 0 -9 9v4q0 9 9 9h468q9 0 9 -9v-236z" />
    <glyph glyph-name="uni00AD" unicode="&#xad;" horiz-adv-x="325" 
d="M286 282q9 0 9 -9v-6q0 -9 -9 -9h-247q-9 0 -9 9v6q0 9 9 9h247z" />
    <glyph glyph-name="registered" unicode="&#xae;" horiz-adv-x="780" 
d="M390 676q73 0 136 -26t109.5 -72.5t72.5 -109.5t26 -136q0 -74 -26 -136.5t-72.5 -109t-109.5 -72.5t-136 -26q-74 0 -136.5 26t-109 72.5t-72.5 109t-26 136.5q0 73 26 136t72.5 109.5t109 72.5t136.5 26zM390 10q68 0 126.5 24.5t101.5 68t67.5 102t24.5 127.5
t-24.5 127.5t-67.5 102t-101.5 68t-126.5 24.5t-126.5 -24.5t-101.5 -68t-67.5 -102t-24.5 -127.5t24.5 -127.5t67.5 -102t101.5 -68t126.5 -24.5zM518 410q0 -90 -91 -105l95 -146q7 -11 -6 -11h-8q-7 0 -11 6l-95 149h-92v-146q0 -9 -9 -9h-6q-9 0 -9 9v350q0 9 9 9h96
q65 0 96 -25.5t31 -80.5zM391 324q54 0 78.5 20.5t24.5 65.5t-24.5 65t-78.5 20h-81v-171h81z" />
    <glyph glyph-name="macron" unicode="&#xaf;" horiz-adv-x="500" 
d="M130 628q0 9 9 9h223q9 0 9 -9v-4q0 -9 -9 -9h-223q-9 0 -9 9v4z" />
    <glyph glyph-name="degree" unicode="&#xb0;" horiz-adv-x="346" 
d="M173 360q-30 0 -55 10.5t-43.5 29t-29 43.5t-10.5 55t10.5 55t29 43.5t43.5 29t55 10.5t55 -10.5t43.5 -29t29 -43.5t10.5 -55t-10.5 -55t-29 -43.5t-43.5 -29t-55 -10.5zM173 382q24 0 45 9t36 24.5t24 36.5t9 46t-9 46t-24 36.5t-36 24.5t-45 9t-45 -9t-36 -24.5
t-24 -36.5t-9 -46t9 -46t24 -36.5t36 -24.5t45 -9z" />
    <glyph glyph-name="plusminus" unicode="&#xb1;" horiz-adv-x="528" 
d="M488 320q9 0 9 -9v-4q0 -9 -9 -9h-213v-203q0 -9 -9 -9h-4q-9 0 -9 9v203h-213q-9 0 -9 9v4q0 9 9 9h213v203q0 9 9 9h4q9 0 9 -9v-203h213zM31 13q0 9 9 9h448q9 0 9 -9v-4q0 -9 -9 -9h-448q-9 0 -9 9v4z" />
    <glyph glyph-name="uni00B2" unicode="&#xb2;" 
d="M287 372q0 -9 -9 -9h-220q-9 0 -9 9v5q0 6 5 11l154 157q30 30 42 53.5t12 52.5q0 40 -24.5 61.5t-69.5 21.5q-67 0 -97 -58q-4 -7 -11 -4l-6 3q-8 4 -3 12q17 33 48 51t70 18q55 0 86 -27.5t31 -77.5q0 -33 -12.5 -59.5t-46.5 -60.5l-144 -146h195q9 0 9 -9v-4z" />
    <glyph glyph-name="uni00B3" unicode="&#xb3;" 
d="M225 567q37 -11 57 -36t20 -63q0 -54 -34 -83t-94 -29q-82 0 -125 55q-5 7 1 13l3 3q6 6 13 -2q36 -47 107 -47q50 0 77.5 23.5t27.5 66.5q0 42 -28 64.5t-82 22.5h-34q-9 0 -9 9v4q0 9 9 9h31q103 0 103 77q0 38 -25.5 59t-72.5 21q-66 0 -99 -47q-5 -8 -13 -2l-4 3
q-6 5 -1 13q20 27 50.5 41t67.5 14q57 0 89 -27t32 -75q0 -67 -67 -86v-1z" />
    <glyph glyph-name="acute" unicode="&#xb4;" horiz-adv-x="500" 
d="M320 704q4 6 11 6h9q5 0 7 -3t-2 -8l-90 -127q-4 -5 -10 -5h-6q-12 0 -5 10z" />
    <glyph glyph-name="uni00B5" unicode="&#xb5;" horiz-adv-x="502" 
d="M426 169q0 -181 -172 -181q-111 0 -147 83h-1v-222q0 -9 -9 -9h-6q-9 0 -9 9v632q0 9 9 9h6q9 0 9 -9v-302q0 -169 148 -169q76 0 112 40.5t36 128.5v302q0 9 9 9h6q9 0 9 -9v-312z" />
    <glyph glyph-name="paragraph" unicode="&#xb6;" horiz-adv-x="558" 
d="M469 -151q0 -9 -9 -9h-6q-9 0 -9 9v829h-166v-829q0 -9 -9 -9h-6q-9 0 -9 9v475h-8q-115 0 -168.5 45.5t-53.5 142.5t53.5 142.5t168.5 45.5h213q9 0 9 -9v-842z" />
    <glyph glyph-name="periodcentered" unicode="&#xb7;" horiz-adv-x="200" 
d="M100 286q-11 0 -18.5 7.5t-7.5 18.5t7.5 18.5t18.5 7.5t18.5 -7.5t7.5 -18.5t-7.5 -18.5t-18.5 -7.5z" />
    <glyph glyph-name="cedilla" unicode="&#xb8;" horiz-adv-x="500" 
d="M250 -58q35 0 54 -13.5t19 -39.5q0 -29 -20.5 -45t-57.5 -16q-42 0 -71 20q-8 5 -2 13l2 3q5 8 13 2q12 -8 27 -12.5t31 -4.5q27 0 41 11t14 29q0 35 -61 35h-6q-10 0 -8 10l15 66h23z" />
    <glyph glyph-name="uni00B9" unicode="&#xb9;" 
d="M236 372q0 -9 -9 -9h-6q-9 0 -9 9v343l-100 -75q-8 -6 -13 2l-3 4q-4 7 4 13l113 86q5 4 11 4h3q9 0 9 -9v-368z" />
    <glyph glyph-name="ordmasculine" unicode="&#xba;" horiz-adv-x="362" 
d="M181 636q136 0 136 -143v-110q0 -143 -136 -143t-136 143v110q0 143 136 143zM293 485q0 67 -27 98t-85 31t-85 -31t-27 -98v-95q0 -66 27 -97t85 -31t85 31t27 97v95z" />
    <glyph glyph-name="guillemotright" unicode="&#xbb;" horiz-adv-x="377" 
d="M207 421q-6 9 7 9h5q6 0 10 -5l113 -174q4 -6 0 -12l-113 -174q-4 -5 -10 -5h-5q-13 0 -7 9l114 176zM47 421q-6 9 7 9h5q6 0 10 -5l113 -174q4 -6 0 -12l-113 -174q-4 -5 -10 -5h-5q-13 0 -7 9l114 176z" />
    <glyph glyph-name="onequarter" unicode="&#xbc;" horiz-adv-x="788" 
d="M247 6q-5 -6 -11 -6h-7q-13 0 -6 11l398 607q4 6 11 6h7q13 0 6 -11zM759 117q9 0 9 -9v-4q0 -9 -9 -9h-38v-86q0 -9 -9 -9h-6q-9 0 -9 9v86h-196q-9 0 -9 9v9q0 6 4 11l196 256q4 6 11 6h9q9 0 9 -9v-260h38zM696 349l-177 -232h178v232h-1zM236 247q0 -9 -9 -9h-6
q-9 0 -9 9v343l-100 -75q-8 -6 -13 2l-3 4q-4 7 4 13l113 86q5 4 11 4h3q9 0 9 -9v-368z" />
    <glyph glyph-name="onehalf" unicode="&#xbd;" horiz-adv-x="788" 
d="M207 6q-5 -6 -11 -6h-7q-13 0 -6 11l398 607q4 6 11 6h7q13 0 6 -11zM745 9q0 -9 -9 -9h-220q-9 0 -9 9v5q0 6 5 11l154 157q30 30 42 53.5t12 52.5q0 40 -24.5 61.5t-69.5 21.5q-67 0 -97 -58q-4 -7 -11 -4l-6 3q-8 4 -3 12q17 33 48 51t70 18q55 0 86 -27.5t31 -77.5
q0 -33 -12.5 -59.5t-46.5 -60.5l-144 -146h195q9 0 9 -9v-4zM236 247q0 -9 -9 -9h-6q-9 0 -9 9v343l-100 -75q-8 -6 -13 2l-3 4q-4 7 4 13l113 86q5 4 11 4h3q9 0 9 -9v-368z" />
    <glyph glyph-name="threequarters" unicode="&#xbe;" horiz-adv-x="788" 
d="M257 6q-5 -6 -11 -6h-7q-13 0 -6 11l398 607q4 6 11 6h7q13 0 6 -11zM759 117q9 0 9 -9v-4q0 -9 -9 -9h-38v-86q0 -9 -9 -9h-6q-9 0 -9 9v86h-196q-9 0 -9 9v9q0 6 4 11l196 256q4 6 11 6h9q9 0 9 -9v-260h38zM696 349l-177 -232h178v232h-1zM225 442q37 -11 57 -36
t20 -63q0 -54 -34 -83t-94 -29q-82 0 -125 55q-5 7 1 13l3 3q6 6 13 -2q36 -47 107 -47q50 0 77.5 23.5t27.5 66.5q0 42 -28 64.5t-82 22.5h-34q-9 0 -9 9v4q0 9 9 9h31q103 0 103 77q0 38 -25.5 59t-72.5 21q-66 0 -99 -47q-5 -8 -13 -2l-4 3q-6 5 -1 13q20 27 50.5 41
t67.5 14q57 0 89 -27t32 -75q0 -67 -67 -86v-1z" />
    <glyph glyph-name="questiondown" unicode="&#xbf;" horiz-adv-x="443" 
d="M217 -12q-90 0 -141 45.5t-51 125.5q0 29 5.5 52.5t19 44.5t34.5 39.5t53 38.5q28 18 47.5 34t30.5 32.5t16 35t5 41.5v35q0 9 9 9h4q9 0 9 -9v-37q0 -25 -5 -45.5t-17 -39t-32 -36t-50 -35.5q-30 -19 -50.5 -36.5t-32.5 -36.5t-17 -40t-5 -47q0 -70 44.5 -109.5
t123.5 -39.5q59 0 104.5 27.5t71.5 80.5q4 9 12 4l5 -3q7 -4 3 -12q-29 -57 -79.5 -88t-116.5 -31zM247 676q11 0 18.5 -7.5t7.5 -18.5t-7.5 -18.5t-18.5 -7.5t-18.5 7.5t-7.5 18.5t7.5 18.5t18.5 7.5z" />
    <glyph glyph-name="Agrave" unicode="&#xc0;" horiz-adv-x="572" 
d="M539 10q3 -10 -7 -10h-7q-9 0 -11 7l-60 166h-337l-60 -166q-2 -7 -11 -7h-6q-10 0 -7 10l238 646q3 8 11 8h8q8 0 11 -8zM285 630l-159 -435h319l-159 435h-1zM205 878q6 0 11 -6l86 -127q7 -10 -5 -10h-6q-6 0 -10 5l-90 127q-4 5 -2 8t7 3h9z" />
    <glyph glyph-name="Aacute" unicode="&#xc1;" horiz-adv-x="572" 
d="M539 10q3 -10 -7 -10h-7q-9 0 -11 7l-60 166h-337l-60 -166q-2 -7 -11 -7h-6q-10 0 -7 10l238 646q3 8 11 8h8q8 0 11 -8zM285 630l-159 -435h319l-159 435h-1zM356 872q4 6 11 6h9q5 0 7 -3t-2 -8l-90 -127q-4 -5 -10 -5h-6q-12 0 -5 10z" />
    <glyph glyph-name="Acircumflex" unicode="&#xc2;" horiz-adv-x="572" 
d="M539 10q3 -10 -7 -10h-7q-9 0 -11 7l-60 166h-337l-60 -166q-2 -7 -11 -7h-6q-10 0 -7 10l238 646q3 8 11 8h8q8 0 11 -8zM285 630l-159 -435h319l-159 435h-1zM204 740q-4 -5 -10 -5h-6q-12 0 -5 10l88 127q4 6 11 6h7q6 0 11 -6l88 -127q7 -10 -5 -10h-6q-5 0 -10 5
l-81 115z" />
    <glyph glyph-name="Atilde" unicode="&#xc3;" horiz-adv-x="572" 
d="M539 10q3 -10 -7 -10h-7q-9 0 -11 7l-60 166h-337l-60 -166q-2 -7 -11 -7h-6q-10 0 -7 10l238 646q3 8 11 8h8q8 0 11 -8zM285 630l-159 -435h319l-159 435h-1zM166 754q-10 0 -8 10q7 35 25.5 54.5t47.5 19.5q15 0 28 -6.5t34 -26.5q17 -16 27.5 -22t22.5 -6q39 0 49 53
q2 8 9 8h5q10 0 8 -10q-7 -35 -25.5 -54.5t-47.5 -19.5q-15 0 -28 6.5t-34 26.5q-17 17 -27.5 22.5t-22.5 5.5q-39 0 -49 -53q-2 -8 -9 -8h-5z" />
    <glyph glyph-name="Adieresis" unicode="&#xc4;" horiz-adv-x="572" 
d="M539 10q3 -10 -7 -10h-7q-9 0 -11 7l-60 166h-337l-60 -166q-2 -7 -11 -7h-6q-10 0 -7 10l238 646q3 8 11 8h8q8 0 11 -8zM285 630l-159 -435h319l-159 435h-1zM211 771q-11 0 -18 7t-7 18t7 18t18 7t18 -7t7 -18t-7 -18t-18 -7zM361 771q-11 0 -18 7t-7 18t7 18t18 7
t18 -7t7 -18t-7 -18t-18 -7z" />
    <glyph glyph-name="Aring" unicode="&#xc5;" horiz-adv-x="572" 
d="M539 10q3 -10 -7 -10h-7q-9 0 -11 7l-60 166h-337l-60 -166q-2 -7 -11 -7h-6q-10 0 -7 10l238 646q3 8 11 8h8q8 0 11 -8zM285 630l-159 -435h319l-159 435h-1zM286 755q22 0 36.5 14.5t14.5 37.5t-14.5 37.5t-36.5 14.5t-36.5 -14.5t-14.5 -37.5t14.5 -37.5t36.5 -14.5z
M286 734q-32 0 -52.5 20.5t-20.5 52.5t20.5 52.5t52.5 20.5t52.5 -20.5t20.5 -52.5t-20.5 -52.5t-52.5 -20.5z" />
    <glyph glyph-name="AE" unicode="&#xc6;" horiz-adv-x="889" 
d="M787 347q9 0 9 -9v-4q0 -9 -9 -9h-319v-303h363q9 0 9 -9v-4q0 -9 -9 -9h-378q-9 0 -9 9v154h-303l-100 -157q-5 -6 -11 -6h-8q-13 0 -6 11l417 647q4 6 11 6h387q9 0 9 -9v-4q0 -9 -9 -9h-363v-295h319zM443 635l-288 -450h289v450h-1z" />
    <glyph glyph-name="Ccedilla" unicode="&#xc7;" horiz-adv-x="537" 
d="M490 129q9 -3 5 -12q-53 -125 -198 -129l-10 -46q35 0 54 -13.5t19 -39.5q0 -29 -20.5 -45t-57.5 -16q-42 0 -71 20q-8 5 -2 13l2 3q5 8 13 2q12 -8 27 -12.5t31 -4.5q27 0 41 11t14 29q0 35 -61 35h-6q-10 0 -8 10l12 54q-104 3 -156.5 63.5t-52.5 176.5v208
q0 119 55.5 179.5t164.5 60.5q155 0 210 -129q3 -9 -5 -12l-4 -2q-10 -5 -13 4q-25 59 -71 88t-117 29q-100 0 -148 -56t-48 -172v-188q0 -116 48 -172t148 -56q71 0 116.5 28.5t70.5 86.5q3 9 12 6z" />
    <glyph glyph-name="Egrave" unicode="&#xc8;" horiz-adv-x="537" 
d="M435 347q9 0 9 -9v-4q0 -9 -9 -9h-319v-303h363q9 0 9 -9v-4q0 -9 -9 -9h-378q-9 0 -9 9v646q0 9 9 9h378q9 0 9 -9v-4q0 -9 -9 -9h-363v-295h319zM209 878q6 0 11 -6l86 -127q7 -10 -5 -10h-6q-6 0 -10 5l-90 127q-4 5 -2 8t7 3h9z" />
    <glyph glyph-name="Eacute" unicode="&#xc9;" horiz-adv-x="537" 
d="M435 347q9 0 9 -9v-4q0 -9 -9 -9h-319v-303h363q9 0 9 -9v-4q0 -9 -9 -9h-378q-9 0 -9 9v646q0 9 9 9h378q9 0 9 -9v-4q0 -9 -9 -9h-363v-295h319zM360 872q4 6 11 6h9q5 0 7 -3t-2 -8l-90 -127q-4 -5 -10 -5h-6q-12 0 -5 10z" />
    <glyph glyph-name="Ecircumflex" unicode="&#xca;" horiz-adv-x="537" 
d="M435 347q9 0 9 -9v-4q0 -9 -9 -9h-319v-303h363q9 0 9 -9v-4q0 -9 -9 -9h-378q-9 0 -9 9v646q0 9 9 9h378q9 0 9 -9v-4q0 -9 -9 -9h-363v-295h319zM208 740q-4 -5 -10 -5h-6q-12 0 -5 10l88 127q4 6 11 6h7q6 0 11 -6l88 -127q7 -10 -5 -10h-6q-5 0 -10 5l-81 115z" />
    <glyph glyph-name="Edieresis" unicode="&#xcb;" horiz-adv-x="537" 
d="M435 347q9 0 9 -9v-4q0 -9 -9 -9h-319v-303h363q9 0 9 -9v-4q0 -9 -9 -9h-378q-9 0 -9 9v646q0 9 9 9h378q9 0 9 -9v-4q0 -9 -9 -9h-363v-295h319zM215 771q-11 0 -18 7t-7 18t7 18t18 7t18 -7t7 -18t-7 -18t-18 -7zM365 771q-11 0 -18 7t-7 18t7 18t18 7t18 -7t7 -18
t-7 -18t-18 -7z" />
    <glyph glyph-name="Igrave" unicode="&#xcc;" horiz-adv-x="208" 
d="M92 655q0 9 9 9h6q9 0 9 -9v-646q0 -9 -9 -9h-6q-9 0 -9 9v646zM23 878q6 0 11 -6l86 -127q7 -10 -5 -10h-6q-6 0 -10 5l-90 127q-4 5 -2 8t7 3h9z" />
    <glyph glyph-name="Iacute" unicode="&#xcd;" horiz-adv-x="208" 
d="M92 655q0 9 9 9h6q9 0 9 -9v-646q0 -9 -9 -9h-6q-9 0 -9 9v646zM174 872q4 6 11 6h9q5 0 7 -3t-2 -8l-90 -127q-4 -5 -10 -5h-6q-12 0 -5 10z" />
    <glyph glyph-name="Icircumflex" unicode="&#xce;" horiz-adv-x="208" 
d="M92 655q0 9 9 9h6q9 0 9 -9v-646q0 -9 -9 -9h-6q-9 0 -9 9v646zM22 740q-4 -5 -10 -5h-6q-12 0 -5 10l88 127q4 6 11 6h7q6 0 11 -6l88 -127q7 -10 -5 -10h-6q-5 0 -10 5l-81 115z" />
    <glyph glyph-name="Idieresis" unicode="&#xcf;" horiz-adv-x="208" 
d="M92 655q0 9 9 9h6q9 0 9 -9v-646q0 -9 -9 -9h-6q-9 0 -9 9v646zM29 771q-11 0 -18 7t-7 18t7 18t18 7t18 -7t7 -18t-7 -18t-18 -7zM179 771q-11 0 -18 7t-7 18t7 18t18 7t18 -7t7 -18t-7 -18t-18 -7z" />
    <glyph glyph-name="Eth" unicode="&#xd0;" horiz-adv-x="597" 
d="M307 664q112 0 168.5 -56.5t56.5 -168.5v-214q0 -112 -56.5 -168.5t-168.5 -56.5h-198q-9 0 -9 9v316h-66q-9 0 -9 9v4q0 9 9 9h66v308q0 9 9 9h198zM508 428q0 109 -49 161.5t-152 52.5h-183v-295h173q9 0 9 -9v-4q0 -9 -9 -9h-173v-303h183q103 0 152 52.5t49 161.5
v192z" />
    <glyph glyph-name="Ntilde" unicode="&#xd1;" horiz-adv-x="624" 
d="M92 655q0 9 9 9h9q6 0 11 -6l386 -609h1v606q0 9 9 9h6q9 0 9 -9v-646q0 -9 -9 -9h-6q-7 0 -11 6l-389 614h-1v-611q0 -9 -9 -9h-6q-9 0 -9 9v646zM192 754q-10 0 -8 10q7 35 25.5 54.5t47.5 19.5q15 0 28 -6.5t34 -26.5q17 -16 27.5 -22t22.5 -6q39 0 49 53q2 8 9 8h5
q10 0 8 -10q-7 -35 -25.5 -54.5t-47.5 -19.5q-15 0 -28 6.5t-34 26.5q-17 17 -27.5 22.5t-22.5 5.5q-39 0 -49 -53q-2 -8 -9 -8h-5z" />
    <glyph glyph-name="Ograve" unicode="&#xd2;" horiz-adv-x="580" 
d="M65 436q0 119 56.5 179.5t168.5 60.5t168.5 -60.5t56.5 -179.5v-208q0 -119 -56.5 -179.5t-168.5 -60.5t-168.5 60.5t-56.5 179.5v208zM89 238q0 -116 49 -172t152 -56t152 56t49 172v188q0 116 -49 172t-152 56t-152 -56t-49 -172v-188zM209 878q6 0 11 -6l86 -127
q7 -10 -5 -10h-6q-6 0 -10 5l-90 127q-4 5 -2 8t7 3h9z" />
    <glyph glyph-name="Oacute" unicode="&#xd3;" horiz-adv-x="580" 
d="M65 436q0 119 56.5 179.5t168.5 60.5t168.5 -60.5t56.5 -179.5v-208q0 -119 -56.5 -179.5t-168.5 -60.5t-168.5 60.5t-56.5 179.5v208zM89 238q0 -116 49 -172t152 -56t152 56t49 172v188q0 116 -49 172t-152 56t-152 -56t-49 -172v-188zM360 872q4 6 11 6h9q5 0 7 -3
t-2 -8l-90 -127q-4 -5 -10 -5h-6q-12 0 -5 10z" />
    <glyph glyph-name="Ocircumflex" unicode="&#xd4;" horiz-adv-x="580" 
d="M65 436q0 119 56.5 179.5t168.5 60.5t168.5 -60.5t56.5 -179.5v-208q0 -119 -56.5 -179.5t-168.5 -60.5t-168.5 60.5t-56.5 179.5v208zM89 238q0 -116 49 -172t152 -56t152 56t49 172v188q0 116 -49 172t-152 56t-152 -56t-49 -172v-188zM208 740q-4 -5 -10 -5h-6
q-12 0 -5 10l88 127q4 6 11 6h7q6 0 11 -6l88 -127q7 -10 -5 -10h-6q-5 0 -10 5l-81 115z" />
    <glyph glyph-name="Otilde" unicode="&#xd5;" horiz-adv-x="580" 
d="M65 436q0 119 56.5 179.5t168.5 60.5t168.5 -60.5t56.5 -179.5v-208q0 -119 -56.5 -179.5t-168.5 -60.5t-168.5 60.5t-56.5 179.5v208zM89 238q0 -116 49 -172t152 -56t152 56t49 172v188q0 116 -49 172t-152 56t-152 -56t-49 -172v-188zM170 754q-10 0 -8 10
q7 35 25.5 54.5t47.5 19.5q15 0 28 -6.5t34 -26.5q17 -16 27.5 -22t22.5 -6q39 0 49 53q2 8 9 8h5q10 0 8 -10q-7 -35 -25.5 -54.5t-47.5 -19.5q-15 0 -28 6.5t-34 26.5q-17 17 -27.5 22.5t-22.5 5.5q-39 0 -49 -53q-2 -8 -9 -8h-5z" />
    <glyph glyph-name="Odieresis" unicode="&#xd6;" horiz-adv-x="580" 
d="M65 436q0 119 56.5 179.5t168.5 60.5t168.5 -60.5t56.5 -179.5v-208q0 -119 -56.5 -179.5t-168.5 -60.5t-168.5 60.5t-56.5 179.5v208zM89 238q0 -116 49 -172t152 -56t152 56t49 172v188q0 116 -49 172t-152 56t-152 -56t-49 -172v-188zM215 771q-11 0 -18 7t-7 18t7 18
t18 7t18 -7t7 -18t-7 -18t-18 -7zM365 771q-11 0 -18 7t-7 18t7 18t18 7t18 -7t7 -18t-7 -18t-18 -7z" />
    <glyph glyph-name="multiply" unicode="&#xd7;" horiz-adv-x="528" 
d="M476 83q6 -6 0 -12l-4 -4q-6 -6 -12 0l-196 196l-196 -196q-6 -6 -12 0l-4 4q-6 6 0 12l196 196l-196 196q-6 6 0 12l4 4q6 6 12 0l196 -196l196 196q6 6 12 0l4 -4q6 -6 0 -12l-196 -196z" />
    <glyph glyph-name="Oslash" unicode="&#xd8;" horiz-adv-x="580" 
d="M473 597q42 -60 42 -161v-208q0 -119 -56.5 -179.5t-168.5 -60.5t-168 61l-33 -51q-5 -8 -13 -3l-3 2q-8 5 -3 13l37 57q-42 60 -42 161v208q0 119 56.5 179.5t168.5 60.5t168 -61l33 51q5 8 13 3l3 -2q8 -5 3 -13zM445 594q-50 60 -155 60q-103 0 -152 -56t-49 -172
v-188q0 -92 32 -148h1zM491 426q0 92 -32 148h-1l-323 -504q49 -60 155 -60q103 0 152 56t49 172v188z" />
    <glyph glyph-name="Ugrave" unicode="&#xd9;" horiz-adv-x="588" 
d="M500 664q9 0 9 -9v-436q0 -115 -54.5 -173t-160.5 -58t-160.5 58t-54.5 173v436q0 9 9 9h6q9 0 9 -9v-426q0 -112 46.5 -165.5t144.5 -53.5t144.5 53.5t46.5 165.5v426q0 9 9 9h6zM213 878q6 0 11 -6l86 -127q7 -10 -5 -10h-6q-6 0 -10 5l-90 127q-4 5 -2 8t7 3h9z" />
    <glyph glyph-name="Uacute" unicode="&#xda;" horiz-adv-x="588" 
d="M500 664q9 0 9 -9v-436q0 -115 -54.5 -173t-160.5 -58t-160.5 58t-54.5 173v436q0 9 9 9h6q9 0 9 -9v-426q0 -112 46.5 -165.5t144.5 -53.5t144.5 53.5t46.5 165.5v426q0 9 9 9h6zM364 872q4 6 11 6h9q5 0 7 -3t-2 -8l-90 -127q-4 -5 -10 -5h-6q-12 0 -5 10z" />
    <glyph glyph-name="Ucircumflex" unicode="&#xdb;" horiz-adv-x="588" 
d="M500 664q9 0 9 -9v-436q0 -115 -54.5 -173t-160.5 -58t-160.5 58t-54.5 173v436q0 9 9 9h6q9 0 9 -9v-426q0 -112 46.5 -165.5t144.5 -53.5t144.5 53.5t46.5 165.5v426q0 9 9 9h6zM212 740q-4 -5 -10 -5h-6q-12 0 -5 10l88 127q4 6 11 6h7q6 0 11 -6l88 -127
q7 -10 -5 -10h-6q-5 0 -10 5l-81 115z" />
    <glyph glyph-name="Udieresis" unicode="&#xdc;" horiz-adv-x="588" 
d="M500 664q9 0 9 -9v-436q0 -115 -54.5 -173t-160.5 -58t-160.5 58t-54.5 173v436q0 9 9 9h6q9 0 9 -9v-426q0 -112 46.5 -165.5t144.5 -53.5t144.5 53.5t46.5 165.5v426q0 9 9 9h6zM219 771q-11 0 -18 7t-7 18t7 18t18 7t18 -7t7 -18t-7 -18t-18 -7zM369 771q-11 0 -18 7
t-7 18t7 18t18 7t18 -7t7 -18t-7 -18t-18 -7z" />
    <glyph glyph-name="Yacute" unicode="&#xdd;" horiz-adv-x="500" 
d="M247 0q-9 0 -9 9v293l-224 351q-7 11 6 11h8q7 0 11 -6l212 -333l211 333q4 6 11 6h7q13 0 6 -11l-224 -351v-293q0 -9 -9 -9h-6zM320 872q4 6 11 6h9q5 0 7 -3t-2 -8l-90 -127q-4 -5 -10 -5h-6q-12 0 -5 10z" />
    <glyph glyph-name="Thorn" unicode="&#xde;" horiz-adv-x="534" 
d="M284 530q115 0 168.5 -45.5t53.5 -142.5t-53.5 -142.5t-168.5 -45.5h-168v-145q0 -9 -9 -9h-6q-9 0 -9 9v646q0 9 9 9h6q9 0 9 -9v-125h168zM284 176q103 0 150.5 40t47.5 126t-47.5 126t-150.5 40h-168v-332h168z" />
    <glyph glyph-name="germandbls" unicode="&#xdf;" horiz-adv-x="548" 
d="M82 547q0 78 48 121.5t135 43.5q84 0 130.5 -37.5t46.5 -104.5q0 -41 -18 -69t-65 -53q-41 -22 -56 -43t-15 -52q0 -35 20.5 -55t76.5 -33q71 -17 99 -49t28 -90q0 -64 -43 -101t-117 -37q-116 0 -175 68q-5 7 0 12l5 5q7 7 13 -1q53 -62 157 -62q66 0 101.5 30.5
t35.5 86.5q0 47 -25 74.5t-90 43.5q-62 15 -85.5 39.5t-23.5 69.5q0 35 16.5 59.5t61.5 50.5q42 24 59.5 48t17.5 58q0 57 -40.5 88.5t-114.5 31.5q-78 0 -118.5 -38t-40.5 -111v-532q0 -9 -9 -9h-6q-9 0 -9 9v538z" />
    <glyph glyph-name="agrave" unicode="&#xe0;" horiz-adv-x="449" 
d="M216 502q173 0 173 -185v-143q0 -92 -44.5 -139t-133.5 -47q-78 0 -121.5 37.5t-43.5 104.5q0 68 45.5 105.5t127.5 37.5h146v34q0 90 -36 131.5t-113 41.5q-40 0 -73.5 -14t-57.5 -43q-6 -8 -13 -1l-4 4q-6 6 0 13q29 32 67 47.5t81 15.5zM211 10q81 0 117.5 41.5
t36.5 131.5v68h-144q-73 0 -112 -31t-39 -90q0 -58 36 -89t105 -31zM148 710q6 0 11 -6l86 -127q7 -10 -5 -10h-6q-6 0 -10 5l-90 127q-4 5 -2 8t7 3h9z" />
    <glyph glyph-name="aacute" unicode="&#xe1;" horiz-adv-x="449" 
d="M216 502q173 0 173 -185v-143q0 -92 -44.5 -139t-133.5 -47q-78 0 -121.5 37.5t-43.5 104.5q0 68 45.5 105.5t127.5 37.5h146v34q0 90 -36 131.5t-113 41.5q-40 0 -73.5 -14t-57.5 -43q-6 -8 -13 -1l-4 4q-6 6 0 13q29 32 67 47.5t81 15.5zM211 10q81 0 117.5 41.5
t36.5 131.5v68h-144q-73 0 -112 -31t-39 -90q0 -58 36 -89t105 -31zM299 704q4 6 11 6h9q5 0 7 -3t-2 -8l-90 -127q-4 -5 -10 -5h-6q-12 0 -5 10z" />
    <glyph glyph-name="acircumflex" unicode="&#xe2;" horiz-adv-x="449" 
d="M216 502q173 0 173 -185v-143q0 -92 -44.5 -139t-133.5 -47q-78 0 -121.5 37.5t-43.5 104.5q0 68 45.5 105.5t127.5 37.5h146v34q0 90 -36 131.5t-113 41.5q-40 0 -73.5 -14t-57.5 -43q-6 -8 -13 -1l-4 4q-6 6 0 13q29 32 67 47.5t81 15.5zM211 10q81 0 117.5 41.5
t36.5 131.5v68h-144q-73 0 -112 -31t-39 -90q0 -58 36 -89t105 -31zM147 572q-4 -5 -10 -5h-6q-12 0 -5 10l88 127q4 6 11 6h7q6 0 11 -6l88 -127q7 -10 -5 -10h-6q-5 0 -10 5l-81 115z" />
    <glyph glyph-name="atilde" unicode="&#xe3;" horiz-adv-x="449" 
d="M216 502q173 0 173 -185v-143q0 -92 -44.5 -139t-133.5 -47q-78 0 -121.5 37.5t-43.5 104.5q0 68 45.5 105.5t127.5 37.5h146v34q0 90 -36 131.5t-113 41.5q-40 0 -73.5 -14t-57.5 -43q-6 -8 -13 -1l-4 4q-6 6 0 13q29 32 67 47.5t81 15.5zM211 10q81 0 117.5 41.5
t36.5 131.5v68h-144q-73 0 -112 -31t-39 -90q0 -58 36 -89t105 -31zM109 586q-10 0 -8 10q7 35 25.5 54.5t47.5 19.5q15 0 28 -6.5t34 -26.5q17 -16 27.5 -22t22.5 -6q39 0 49 53q2 8 9 8h5q10 0 8 -10q-7 -35 -25.5 -54.5t-47.5 -19.5q-15 0 -28 6.5t-34 26.5
q-17 17 -27.5 22.5t-22.5 5.5q-39 0 -49 -53q-2 -8 -9 -8h-5z" />
    <glyph glyph-name="adieresis" unicode="&#xe4;" horiz-adv-x="449" 
d="M216 502q173 0 173 -185v-143q0 -92 -44.5 -139t-133.5 -47q-78 0 -121.5 37.5t-43.5 104.5q0 68 45.5 105.5t127.5 37.5h146v34q0 90 -36 131.5t-113 41.5q-40 0 -73.5 -14t-57.5 -43q-6 -8 -13 -1l-4 4q-6 6 0 13q29 32 67 47.5t81 15.5zM211 10q81 0 117.5 41.5
t36.5 131.5v68h-144q-73 0 -112 -31t-39 -90q0 -58 36 -89t105 -31zM154 603q-11 0 -18 7t-7 18t7 18t18 7t18 -7t7 -18t-7 -18t-18 -7zM304 603q-11 0 -18 7t-7 18t7 18t18 7t18 -7t7 -18t-7 -18t-18 -7z" />
    <glyph glyph-name="aring" unicode="&#xe5;" horiz-adv-x="449" 
d="M216 502q173 0 173 -185v-143q0 -92 -44.5 -139t-133.5 -47q-78 0 -121.5 37.5t-43.5 104.5q0 68 45.5 105.5t127.5 37.5h146v34q0 90 -36 131.5t-113 41.5q-40 0 -73.5 -14t-57.5 -43q-6 -8 -13 -1l-4 4q-6 6 0 13q29 32 67 47.5t81 15.5zM211 10q81 0 117.5 41.5
t36.5 131.5v68h-144q-73 0 -112 -31t-39 -90q0 -58 36 -89t105 -31zM229 587q22 0 36.5 14.5t14.5 37.5t-14.5 37.5t-36.5 14.5t-36.5 -14.5t-14.5 -37.5t14.5 -37.5t36.5 -14.5zM229 566q-32 0 -52.5 20.5t-20.5 52.5t20.5 52.5t52.5 20.5t52.5 -20.5t20.5 -52.5
t-20.5 -52.5t-52.5 -20.5z" />
    <glyph glyph-name="ae" unicode="&#xe6;" horiz-adv-x="755" 
d="M537 502q172 0 172 -185v-62q0 -9 -9 -9h-311v-63q0 -91 38.5 -132t122.5 -41q38 0 69.5 15.5t60.5 49.5q6 8 13 1l4 -4q6 -6 1 -13q-29 -37 -66.5 -54t-83.5 -17q-140 0 -171 114h-1q-29 -114 -165 -114q-78 0 -121.5 36.5t-43.5 103.5q0 68 45.5 104t127.5 36h146v39
q0 90 -36 131.5t-113 41.5q-40 0 -73.5 -14t-57.5 -43q-6 -8 -13 -1l-4 4q-6 6 0 13q29 32 67 47.5t81 15.5q131 0 161 -112h1q28 112 159 112zM685 307q0 91 -35.5 132t-112.5 41t-112.5 -41t-35.5 -132v-39h296v39zM221 246q-73 0 -112 -29.5t-39 -88.5q0 -58 36 -88
t105 -30q81 0 117.5 41.5t36.5 131.5v63h-144z" />
    <glyph glyph-name="ccedilla" unicode="&#xe7;" horiz-adv-x="415" 
d="M381 65q6 -6 0 -13q-57 -60 -136 -64l-10 -46q35 0 54 -13.5t19 -39.5q0 -29 -20.5 -45t-57.5 -16q-42 0 -71 20q-8 5 -2 13l2 3q5 8 13 2q12 -8 27 -12.5t31 -4.5q27 0 41 11t14 29q0 35 -61 35h-6q-10 0 -8 10l12 54q-80 4 -121 51t-41 135v143q0 92 44 138.5t129 46.5
q89 0 140 -55q6 -7 0 -13l-4 -4q-7 -7 -13 0q-23 26 -52.5 38t-70.5 12q-77 0 -113 -41.5t-36 -131.5v-124q0 -90 37.5 -131.5t115.5 -41.5q38 0 68.5 14t58.5 45q6 6 13 0z" />
    <glyph glyph-name="egrave" unicode="&#xe8;" horiz-adv-x="450" 
d="M232 502q172 0 172 -185v-68q0 -9 -9 -9h-311v-57q0 -91 38.5 -132t122.5 -41q74 0 130 66q6 7 13 0l4 -4q6 -6 0 -13q-58 -71 -149 -71t-137 46.5t-46 138.5v144q0 185 172 185zM380 307q0 91 -35.5 132t-112.5 41t-112.5 -41t-35.5 -132v-45h296v45zM153 710q6 0 11 -6
l86 -127q7 -10 -5 -10h-6q-6 0 -10 5l-90 127q-4 5 -2 8t7 3h9z" />
    <glyph glyph-name="eacute" unicode="&#xe9;" horiz-adv-x="450" 
d="M232 502q172 0 172 -185v-68q0 -9 -9 -9h-311v-57q0 -91 38.5 -132t122.5 -41q74 0 130 66q6 7 13 0l4 -4q6 -6 0 -13q-58 -71 -149 -71t-137 46.5t-46 138.5v144q0 185 172 185zM380 307q0 91 -35.5 132t-112.5 41t-112.5 -41t-35.5 -132v-45h296v45zM304 704q4 6 11 6
h9q5 0 7 -3t-2 -8l-90 -127q-4 -5 -10 -5h-6q-12 0 -5 10z" />
    <glyph glyph-name="ecircumflex" unicode="&#xea;" horiz-adv-x="450" 
d="M232 502q172 0 172 -185v-68q0 -9 -9 -9h-311v-57q0 -91 38.5 -132t122.5 -41q74 0 130 66q6 7 13 0l4 -4q6 -6 0 -13q-58 -71 -149 -71t-137 46.5t-46 138.5v144q0 185 172 185zM380 307q0 91 -35.5 132t-112.5 41t-112.5 -41t-35.5 -132v-45h296v45zM152 572
q-4 -5 -10 -5h-6q-12 0 -5 10l88 127q4 6 11 6h7q6 0 11 -6l88 -127q7 -10 -5 -10h-6q-5 0 -10 5l-81 115z" />
    <glyph glyph-name="edieresis" unicode="&#xeb;" horiz-adv-x="450" 
d="M232 502q172 0 172 -185v-68q0 -9 -9 -9h-311v-57q0 -91 38.5 -132t122.5 -41q74 0 130 66q6 7 13 0l4 -4q6 -6 0 -13q-58 -71 -149 -71t-137 46.5t-46 138.5v144q0 185 172 185zM380 307q0 91 -35.5 132t-112.5 41t-112.5 -41t-35.5 -132v-45h296v45zM159 603
q-11 0 -18 7t-7 18t7 18t18 7t18 -7t7 -18t-7 -18t-18 -7zM309 603q-11 0 -18 7t-7 18t7 18t18 7t18 -7t7 -18t-7 -18t-18 -7z" />
    <glyph glyph-name="igrave" unicode="&#xec;" horiz-adv-x="188" 
d="M97 490q9 0 9 -9v-472q0 -9 -9 -9h-6q-9 0 -9 9v472q0 9 9 9h6zM13 710q6 0 11 -6l86 -127q7 -10 -5 -10h-6q-6 0 -10 5l-90 127q-4 5 -2 8t7 3h9z" />
    <glyph glyph-name="iacute" unicode="&#xed;" horiz-adv-x="188" 
d="M97 490q9 0 9 -9v-472q0 -9 -9 -9h-6q-9 0 -9 9v472q0 9 9 9h6zM164 704q4 6 11 6h9q5 0 7 -3t-2 -8l-90 -127q-4 -5 -10 -5h-6q-12 0 -5 10z" />
    <glyph glyph-name="icircumflex" unicode="&#xee;" horiz-adv-x="188" 
d="M97 490q9 0 9 -9v-472q0 -9 -9 -9h-6q-9 0 -9 9v472q0 9 9 9h6zM12 572q-4 -5 -10 -5h-6q-12 0 -5 10l88 127q4 6 11 6h7q6 0 11 -6l88 -127q7 -10 -5 -10h-6q-5 0 -10 5l-81 115z" />
    <glyph glyph-name="idieresis" unicode="&#xef;" horiz-adv-x="188" 
d="M97 490q9 0 9 -9v-472q0 -9 -9 -9h-6q-9 0 -9 9v472q0 9 9 9h6zM19 603q-11 0 -18 7t-7 18t7 18t18 7t18 -7t7 -18t-7 -18t-18 -7zM169 603q-11 0 -18 7t-7 18t7 18t18 7t18 -7t7 -18t-7 -18t-18 -7z" />
    <glyph glyph-name="eth" unicode="&#xf0;" horiz-adv-x="480" 
d="M304 650q56 -45 81 -122t25 -195v-159q0 -92 -44 -139t-131 -47t-131 47t-44 139v143q0 185 175 185q106 0 146 -76h1q-9 75 -31.5 126.5t-63.5 83.5l-63 -52q-8 -6 -13 1l-2 3q-5 8 2 13l57 47q-57 36 -152 44q-8 0 -8 8v4q0 8 9 8q104 -8 169 -49l52 43q8 6 13 -1l2 -3
q5 -8 -2 -13zM386 307q0 173 -151 173q-78 0 -114.5 -41.5t-36.5 -131.5v-124q0 -90 36.5 -131.5t114.5 -41.5t114.5 41.5t36.5 131.5v124z" />
    <glyph glyph-name="ntilde" unicode="&#xf1;" horiz-adv-x="496" 
d="M405 0q-9 0 -9 9v302q0 88 -36 128.5t-112 40.5t-112 -40.5t-36 -128.5v-302q0 -9 -9 -9h-6q-9 0 -9 9v312q0 181 172 181t172 -181v-312q0 -9 -9 -9h-6zM128 586q-10 0 -8 10q7 35 25.5 54.5t47.5 19.5q15 0 28 -6.5t34 -26.5q17 -16 27.5 -22t22.5 -6q39 0 49 53
q2 8 9 8h5q10 0 8 -10q-7 -35 -25.5 -54.5t-47.5 -19.5q-15 0 -28 6.5t-34 26.5q-17 17 -27.5 22.5t-22.5 5.5q-39 0 -49 -53q-2 -8 -9 -8h-5z" />
    <glyph glyph-name="ograve" unicode="&#xf2;" horiz-adv-x="470" 
d="M235 502q175 0 175 -185v-144q0 -185 -175 -185t-175 185v144q0 185 175 185zM386 307q0 90 -36.5 131.5t-114.5 41.5t-114.5 -41.5t-36.5 -131.5v-124q0 -90 36.5 -131.5t114.5 -41.5t114.5 41.5t36.5 131.5v124zM154 710q6 0 11 -6l86 -127q7 -10 -5 -10h-6q-6 0 -10 5
l-90 127q-4 5 -2 8t7 3h9z" />
    <glyph glyph-name="oacute" unicode="&#xf3;" horiz-adv-x="470" 
d="M235 502q175 0 175 -185v-144q0 -185 -175 -185t-175 185v144q0 185 175 185zM386 307q0 90 -36.5 131.5t-114.5 41.5t-114.5 -41.5t-36.5 -131.5v-124q0 -90 36.5 -131.5t114.5 -41.5t114.5 41.5t36.5 131.5v124zM305 704q4 6 11 6h9q5 0 7 -3t-2 -8l-90 -127
q-4 -5 -10 -5h-6q-12 0 -5 10z" />
    <glyph glyph-name="ocircumflex" unicode="&#xf4;" horiz-adv-x="470" 
d="M235 502q175 0 175 -185v-144q0 -185 -175 -185t-175 185v144q0 185 175 185zM386 307q0 90 -36.5 131.5t-114.5 41.5t-114.5 -41.5t-36.5 -131.5v-124q0 -90 36.5 -131.5t114.5 -41.5t114.5 41.5t36.5 131.5v124zM153 572q-4 -5 -10 -5h-6q-12 0 -5 10l88 127q4 6 11 6
h7q6 0 11 -6l88 -127q7 -10 -5 -10h-6q-5 0 -10 5l-81 115z" />
    <glyph glyph-name="otilde" unicode="&#xf5;" horiz-adv-x="470" 
d="M235 502q175 0 175 -185v-144q0 -185 -175 -185t-175 185v144q0 185 175 185zM386 307q0 90 -36.5 131.5t-114.5 41.5t-114.5 -41.5t-36.5 -131.5v-124q0 -90 36.5 -131.5t114.5 -41.5t114.5 41.5t36.5 131.5v124zM115 586q-10 0 -8 10q7 35 25.5 54.5t47.5 19.5
q15 0 28 -6.5t34 -26.5q17 -16 27.5 -22t22.5 -6q39 0 49 53q2 8 9 8h5q10 0 8 -10q-7 -35 -25.5 -54.5t-47.5 -19.5q-15 0 -28 6.5t-34 26.5q-17 17 -27.5 22.5t-22.5 5.5q-39 0 -49 -53q-2 -8 -9 -8h-5z" />
    <glyph glyph-name="odieresis" unicode="&#xf6;" horiz-adv-x="470" 
d="M235 502q175 0 175 -185v-144q0 -185 -175 -185t-175 185v144q0 185 175 185zM386 307q0 90 -36.5 131.5t-114.5 41.5t-114.5 -41.5t-36.5 -131.5v-124q0 -90 36.5 -131.5t114.5 -41.5t114.5 41.5t36.5 131.5v124zM160 603q-11 0 -18 7t-7 18t7 18t18 7t18 -7t7 -18
t-7 -18t-18 -7zM310 603q-11 0 -18 7t-7 18t7 18t18 7t18 -7t7 -18t-7 -18t-18 -7z" />
    <glyph glyph-name="divide" unicode="&#xf7;" horiz-adv-x="528" 
d="M498 290q9 0 9 -9v-4q0 -9 -9 -9h-468q-9 0 -9 9v4q0 9 9 9h468zM264 452q-11 0 -18 7t-7 18t7 18t18 7t18 -7t7 -18t-7 -18t-18 -7zM264 56q-11 0 -18 7t-7 18t7 18t18 7t18 -7t7 -18t-7 -18t-18 -7z" />
    <glyph glyph-name="oslash" unicode="&#xf8;" horiz-adv-x="470" 
d="M378 440q32 -46 32 -123v-144q0 -185 -175 -185q-82 0 -128 44l-23 -35q-5 -7 -13 -2l-3 2q-8 5 -3 13l27 40q-32 46 -32 123v144q0 185 175 185q82 0 128 -44l23 35q5 7 13 2l3 -2q8 -5 3 -13zM84 183q0 -69 22 -110h1l243 365q-38 42 -115 42q-78 0 -114.5 -41.5
t-36.5 -131.5v-124zM386 307q0 69 -22 110h-1l-243 -365q37 -42 115 -42t114.5 41.5t36.5 131.5v124z" />
    <glyph glyph-name="ugrave" unicode="&#xf9;" horiz-adv-x="490" 
d="M414 166q0 -178 -169 -178t-169 178v315q0 9 9 9h6q9 0 9 -9v-305q0 -86 35 -126t110 -40t110 40t35 126v305q0 9 9 9h6q9 0 9 -9v-315zM164 710q6 0 11 -6l86 -127q7 -10 -5 -10h-6q-6 0 -10 5l-90 127q-4 5 -2 8t7 3h9z" />
    <glyph glyph-name="uacute" unicode="&#xfa;" horiz-adv-x="490" 
d="M414 166q0 -178 -169 -178t-169 178v315q0 9 9 9h6q9 0 9 -9v-305q0 -86 35 -126t110 -40t110 40t35 126v305q0 9 9 9h6q9 0 9 -9v-315zM315 704q4 6 11 6h9q5 0 7 -3t-2 -8l-90 -127q-4 -5 -10 -5h-6q-12 0 -5 10z" />
    <glyph glyph-name="ucircumflex" unicode="&#xfb;" horiz-adv-x="490" 
d="M414 166q0 -178 -169 -178t-169 178v315q0 9 9 9h6q9 0 9 -9v-305q0 -86 35 -126t110 -40t110 40t35 126v305q0 9 9 9h6q9 0 9 -9v-315zM163 572q-4 -5 -10 -5h-6q-12 0 -5 10l88 127q4 6 11 6h7q6 0 11 -6l88 -127q7 -10 -5 -10h-6q-5 0 -10 5l-81 115z" />
    <glyph glyph-name="udieresis" unicode="&#xfc;" horiz-adv-x="490" 
d="M414 166q0 -178 -169 -178t-169 178v315q0 9 9 9h6q9 0 9 -9v-305q0 -86 35 -126t110 -40t110 40t35 126v305q0 9 9 9h6q9 0 9 -9v-315zM170 603q-11 0 -18 7t-7 18t7 18t18 7t18 -7t7 -18t-7 -18t-18 -7zM320 603q-11 0 -18 7t-7 18t7 18t18 7t18 -7t7 -18t-7 -18
t-18 -7z" />
    <glyph glyph-name="yacute" unicode="&#xfd;" horiz-adv-x="502" 
d="M420 -5q0 -78 -46 -122.5t-126 -44.5q-97 0 -159 62q-7 6 0 13l4 4q6 6 13 0q28 -29 62 -43t80 -14q72 0 110 40t38 115v78h-1q-36 -83 -147 -83q-172 0 -172 181v300q0 9 9 9h6q9 0 9 -9v-290q0 -88 36 -128.5t112 -40.5q148 0 148 169v290q0 9 9 9h6q9 0 9 -9v-486z
M318 704q4 6 11 6h9q5 0 7 -3t-2 -8l-90 -127q-4 -5 -10 -5h-6q-12 0 -5 10z" />
    <glyph glyph-name="thorn" unicode="&#xfe;" horiz-adv-x="492" 
d="M257 502q175 0 175 -185v-144q0 -185 -175 -185q-112 0 -150 86h-1v-225q0 -9 -9 -9h-6q-9 0 -9 9v842q0 9 9 9h6q9 0 9 -9v-275h1q38 86 150 86zM408 307q0 90 -36.5 131.5t-114.5 41.5q-151 0 -151 -173v-124q0 -173 151 -173q78 0 114.5 41.5t36.5 131.5v124z" />
    <glyph glyph-name="ydieresis" unicode="&#xff;" horiz-adv-x="502" 
d="M420 -5q0 -78 -46 -122.5t-126 -44.5q-97 0 -159 62q-7 6 0 13l4 4q6 6 13 0q28 -29 62 -43t80 -14q72 0 110 40t38 115v78h-1q-36 -83 -147 -83q-172 0 -172 181v300q0 9 9 9h6q9 0 9 -9v-290q0 -88 36 -128.5t112 -40.5q148 0 148 169v290q0 9 9 9h6q9 0 9 -9v-486z
M173 603q-11 0 -18 7t-7 18t7 18t18 7t18 -7t7 -18t-7 -18t-18 -7zM323 603q-11 0 -18 7t-7 18t7 18t18 7t18 -7t7 -18t-7 -18t-18 -7z" />
    <glyph glyph-name="Amacron" unicode="&#x100;" horiz-adv-x="572" 
d="M539 10q3 -10 -7 -10h-7q-9 0 -11 7l-60 166h-337l-60 -166q-2 -7 -11 -7h-6q-10 0 -7 10l238 646q3 8 11 8h8q8 0 11 -8zM285 630l-159 -435h319l-159 435h-1zM165 796q0 9 9 9h223q9 0 9 -9v-4q0 -9 -9 -9h-223q-9 0 -9 9v4z" />
    <glyph glyph-name="amacron" unicode="&#x101;" horiz-adv-x="449" 
d="M216 502q173 0 173 -185v-143q0 -92 -44.5 -139t-133.5 -47q-78 0 -121.5 37.5t-43.5 104.5q0 68 45.5 105.5t127.5 37.5h146v34q0 90 -36 131.5t-113 41.5q-40 0 -73.5 -14t-57.5 -43q-6 -8 -13 -1l-4 4q-6 6 0 13q29 32 67 47.5t81 15.5zM211 10q81 0 117.5 41.5
t36.5 131.5v68h-144q-73 0 -112 -31t-39 -90q0 -58 36 -89t105 -31zM108 628q0 9 9 9h223q9 0 9 -9v-4q0 -9 -9 -9h-223q-9 0 -9 9v4z" />
    <glyph glyph-name="Abreve" unicode="&#x102;" horiz-adv-x="572" 
d="M539 10q3 -10 -7 -10h-7q-9 0 -11 7l-60 166h-337l-60 -166q-2 -7 -11 -7h-6q-10 0 -7 10l238 646q3 8 11 8h8q8 0 11 -8zM285 630l-159 -435h319l-159 435h-1zM388 850q9 0 8 -9q-8 -40 -37 -62.5t-73 -22.5t-73 22.5t-37 62.5q-2 9 8 9h5q7 0 8 -7q7 -30 30.5 -47.5
t58.5 -17.5t58.5 17.5t30.5 47.5q1 7 8 7h5z" />
    <glyph glyph-name="abreve" unicode="&#x103;" horiz-adv-x="449" 
d="M216 502q173 0 173 -185v-143q0 -92 -44.5 -139t-133.5 -47q-78 0 -121.5 37.5t-43.5 104.5q0 68 45.5 105.5t127.5 37.5h146v34q0 90 -36 131.5t-113 41.5q-40 0 -73.5 -14t-57.5 -43q-6 -8 -13 -1l-4 4q-6 6 0 13q29 32 67 47.5t81 15.5zM211 10q81 0 117.5 41.5
t36.5 131.5v68h-144q-73 0 -112 -31t-39 -90q0 -58 36 -89t105 -31zM331 682q9 0 8 -9q-8 -40 -37 -62.5t-73 -22.5t-73 22.5t-37 62.5q-2 9 8 9h5q7 0 8 -7q7 -30 30.5 -47.5t58.5 -17.5t58.5 17.5t30.5 47.5q1 7 8 7h5z" />
    <glyph glyph-name="Aogonek" unicode="&#x104;" horiz-adv-x="572" 
d="M556 -131q6 -6 0 -12q-13 -13 -29.5 -21t-39.5 -8q-32 0 -53 19t-21 51q0 70 99 115l-58 160h-337l-60 -166q-2 -7 -11 -7h-6q-10 0 -7 10l238 646q3 8 11 8h8q8 0 11 -8l238 -646q3 -10 -7 -10h-4q-92 -42 -92 -101q0 -21 14.5 -35.5t36.5 -14.5q18 0 30 6t23 17
q6 6 12 1zM285 630l-159 -435h319l-159 435h-1z" />
    <glyph glyph-name="aogonek" unicode="&#x105;" horiz-adv-x="449" 
d="M305 6q-45 -23 -62.5 -51.5t-17.5 -55.5q0 -21 14.5 -35.5t36.5 -14.5q17 0 29.5 6t23.5 17q6 6 13 0l3 -3q6 -6 0 -12q-13 -13 -29.5 -21t-39.5 -8q-32 0 -53 19t-21 51q0 23 10.5 46t34.5 45v1q-8 -1 -17.5 -1.5t-18.5 -0.5q-78 0 -121.5 37.5t-43.5 104.5
q0 68 45.5 105.5t127.5 37.5h146v34q0 90 -36 131.5t-113 41.5q-40 0 -73.5 -14t-57.5 -43q-6 -8 -13 -1l-4 4q-6 6 0 13q29 32 67 47.5t81 15.5q173 0 173 -185v-143q0 -125 -84 -168zM70 130q0 -58 36 -89t105 -31q81 0 117.5 41.5t36.5 131.5v68h-144q-73 0 -112 -31
t-39 -90z" />
    <glyph glyph-name="Cacute" unicode="&#x106;" horiz-adv-x="537" 
d="M285 10q71 0 116.5 28.5t70.5 86.5q3 9 12 6l6 -2q9 -3 5 -12q-55 -129 -210 -129q-109 0 -164.5 60.5t-55.5 179.5v208q0 119 55.5 179.5t164.5 60.5q155 0 210 -129q3 -9 -5 -12l-4 -2q-10 -5 -13 4q-25 59 -71 88t-117 29q-100 0 -148 -56t-48 -172v-188
q0 -116 48 -172t148 -56zM353 872q4 6 11 6h9q5 0 7 -3t-2 -8l-90 -127q-4 -5 -10 -5h-6q-12 0 -5 10z" />
    <glyph glyph-name="cacute" unicode="&#x107;" horiz-adv-x="415" 
d="M381 65q6 -6 0 -13q-60 -64 -146 -64t-130.5 47t-44.5 139v143q0 92 44 138.5t129 46.5q89 0 140 -55q6 -7 0 -13l-4 -4q-7 -7 -13 0q-23 26 -52.5 38t-70.5 12q-77 0 -113 -41.5t-36 -131.5v-124q0 -90 37.5 -131.5t115.5 -41.5q38 0 68.5 14t58.5 45q6 6 13 0zM296 704
q4 6 11 6h9q5 0 7 -3t-2 -8l-90 -127q-4 -5 -10 -5h-6q-12 0 -5 10z" />
    <glyph glyph-name="Ccircumflex" unicode="&#x108;" horiz-adv-x="537" 
d="M285 10q71 0 116.5 28.5t70.5 86.5q3 9 12 6l6 -2q9 -3 5 -12q-55 -129 -210 -129q-109 0 -164.5 60.5t-55.5 179.5v208q0 119 55.5 179.5t164.5 60.5q155 0 210 -129q3 -9 -5 -12l-4 -2q-10 -5 -13 4q-25 59 -71 88t-117 29q-100 0 -148 -56t-48 -172v-188
q0 -116 48 -172t148 -56zM201 740q-4 -5 -10 -5h-6q-12 0 -5 10l88 127q4 6 11 6h7q6 0 11 -6l88 -127q7 -10 -5 -10h-6q-5 0 -10 5l-81 115z" />
    <glyph glyph-name="ccircumflex" unicode="&#x109;" horiz-adv-x="415" 
d="M381 65q6 -6 0 -13q-60 -64 -146 -64t-130.5 47t-44.5 139v143q0 92 44 138.5t129 46.5q89 0 140 -55q6 -7 0 -13l-4 -4q-7 -7 -13 0q-23 26 -52.5 38t-70.5 12q-77 0 -113 -41.5t-36 -131.5v-124q0 -90 37.5 -131.5t115.5 -41.5q38 0 68.5 14t58.5 45q6 6 13 0zM144 572
q-4 -5 -10 -5h-6q-12 0 -5 10l88 127q4 6 11 6h7q6 0 11 -6l88 -127q7 -10 -5 -10h-6q-5 0 -10 5l-81 115z" />
    <glyph glyph-name="Cdotaccent" unicode="&#x10a;" horiz-adv-x="537" 
d="M285 10q71 0 116.5 28.5t70.5 86.5q3 9 12 6l6 -2q9 -3 5 -12q-55 -129 -210 -129q-109 0 -164.5 60.5t-55.5 179.5v208q0 119 55.5 179.5t164.5 60.5q155 0 210 -129q3 -9 -5 -12l-4 -2q-10 -5 -13 4q-25 59 -71 88t-117 29q-100 0 -148 -56t-48 -172v-188
q0 -116 48 -172t148 -56zM283 771q-11 0 -18 7t-7 18t7 18t18 7t18 -7t7 -18t-7 -18t-18 -7z" />
    <glyph glyph-name="cdotaccent" unicode="&#x10b;" horiz-adv-x="415" 
d="M381 65q6 -6 0 -13q-60 -64 -146 -64t-130.5 47t-44.5 139v143q0 92 44 138.5t129 46.5q89 0 140 -55q6 -7 0 -13l-4 -4q-7 -7 -13 0q-23 26 -52.5 38t-70.5 12q-77 0 -113 -41.5t-36 -131.5v-124q0 -90 37.5 -131.5t115.5 -41.5q38 0 68.5 14t58.5 45q6 6 13 0zM226 603
q-11 0 -18 7t-7 18t7 18t18 7t18 -7t7 -18t-7 -18t-18 -7z" />
    <glyph glyph-name="Ccaron" unicode="&#x10c;" horiz-adv-x="537" 
d="M285 10q71 0 116.5 28.5t70.5 86.5q3 9 12 6l6 -2q9 -3 5 -12q-55 -129 -210 -129q-109 0 -164.5 60.5t-55.5 179.5v208q0 119 55.5 179.5t164.5 60.5q155 0 210 -129q3 -9 -5 -12l-4 -2q-10 -5 -13 4q-25 59 -71 88t-117 29q-100 0 -148 -56t-48 -172v-188
q0 -116 48 -172t148 -56zM279 735q-7 0 -11 6l-88 127q-7 10 5 10h6q6 0 10 -5l82 -115l81 115q5 5 10 5h6q12 0 5 -10l-88 -127q-5 -6 -11 -6h-7z" />
    <glyph glyph-name="ccaron" unicode="&#x10d;" horiz-adv-x="415" 
d="M381 65q6 -6 0 -13q-60 -64 -146 -64t-130.5 47t-44.5 139v143q0 92 44 138.5t129 46.5q89 0 140 -55q6 -7 0 -13l-4 -4q-7 -7 -13 0q-23 26 -52.5 38t-70.5 12q-77 0 -113 -41.5t-36 -131.5v-124q0 -90 37.5 -131.5t115.5 -41.5q38 0 68.5 14t58.5 45q6 6 13 0zM222 567
q-7 0 -11 6l-88 127q-7 10 5 10h6q6 0 10 -5l82 -115l81 115q5 5 10 5h6q12 0 5 -10l-88 -127q-5 -6 -11 -6h-7z" />
    <glyph glyph-name="Dcaron" unicode="&#x10e;" horiz-adv-x="589" 
d="M299 664q112 0 168.5 -56.5t56.5 -168.5v-214q0 -112 -56.5 -168.5t-168.5 -56.5h-198q-9 0 -9 9v646q0 9 9 9h198zM500 428q0 109 -49 161.5t-152 52.5h-183v-620h183q103 0 152 52.5t49 161.5v192zM277 735q-7 0 -11 6l-88 127q-7 10 5 10h6q6 0 10 -5l82 -115l81 115
q5 5 10 5h6q12 0 5 -10l-88 -127q-5 -6 -11 -6h-7z" />
    <glyph glyph-name="dcaron" unicode="&#x10f;" horiz-adv-x="486" 
d="M410 174q0 -92 -44 -139t-131 -47t-131 47t-44 139v143q0 185 175 185q112 0 150 -86h1v275q0 9 9 9h6q9 0 9 -9v-517zM386 307q0 173 -151 173q-78 0 -114.5 -41.5t-36.5 -131.5v-124q0 -90 36.5 -131.5t114.5 -41.5t114.5 41.5t36.5 131.5v124zM489 692q2 8 9 8h5
q10 0 8 -10l-25 -163q-1 -7 -8 -7h-3q-10 0 -8 9z" />
    <glyph glyph-name="Dcroat" unicode="&#x110;" horiz-adv-x="597" 
d="M307 664q112 0 168.5 -56.5t56.5 -168.5v-214q0 -112 -56.5 -168.5t-168.5 -56.5h-198q-9 0 -9 9v316h-66q-9 0 -9 9v4q0 9 9 9h66v308q0 9 9 9h198zM508 428q0 109 -49 161.5t-152 52.5h-183v-295h173q9 0 9 -9v-4q0 -9 -9 -9h-173v-303h183q103 0 152 52.5t49 161.5
v192z" />
    <glyph glyph-name="dcroat" unicode="&#x111;" horiz-adv-x="488" 
d="M474 597q9 0 9 -9v-4q0 -9 -9 -9h-64v-401q0 -92 -44 -139t-131 -47t-131 47t-44 139v143q0 185 175 185q112 0 150 -86h1v159h-157q-9 0 -9 9v4q0 9 9 9h157v94q0 9 9 9h6q9 0 9 -9v-94h64zM386 307q0 173 -151 173q-78 0 -114.5 -41.5t-36.5 -131.5v-124
q0 -90 36.5 -131.5t114.5 -41.5t114.5 41.5t36.5 131.5v124z" />
    <glyph glyph-name="Emacron" unicode="&#x112;" horiz-adv-x="537" 
d="M435 347q9 0 9 -9v-4q0 -9 -9 -9h-319v-303h363q9 0 9 -9v-4q0 -9 -9 -9h-378q-9 0 -9 9v646q0 9 9 9h378q9 0 9 -9v-4q0 -9 -9 -9h-363v-295h319zM169 796q0 9 9 9h223q9 0 9 -9v-4q0 -9 -9 -9h-223q-9 0 -9 9v4z" />
    <glyph glyph-name="emacron" unicode="&#x113;" horiz-adv-x="450" 
d="M232 502q172 0 172 -185v-68q0 -9 -9 -9h-311v-57q0 -91 38.5 -132t122.5 -41q74 0 130 66q6 7 13 0l4 -4q6 -6 0 -13q-58 -71 -149 -71t-137 46.5t-46 138.5v144q0 185 172 185zM380 307q0 91 -35.5 132t-112.5 41t-112.5 -41t-35.5 -132v-45h296v45zM113 628q0 9 9 9
h223q9 0 9 -9v-4q0 -9 -9 -9h-223q-9 0 -9 9v4z" />
    <glyph glyph-name="Ebreve" unicode="&#x114;" horiz-adv-x="537" 
d="M435 347q9 0 9 -9v-4q0 -9 -9 -9h-319v-303h363q9 0 9 -9v-4q0 -9 -9 -9h-378q-9 0 -9 9v646q0 9 9 9h378q9 0 9 -9v-4q0 -9 -9 -9h-363v-295h319zM392 850q9 0 8 -9q-8 -40 -37 -62.5t-73 -22.5t-73 22.5t-37 62.5q-2 9 8 9h5q7 0 8 -7q7 -30 30.5 -47.5t58.5 -17.5
t58.5 17.5t30.5 47.5q1 7 8 7h5z" />
    <glyph glyph-name="ebreve" unicode="&#x115;" horiz-adv-x="450" 
d="M232 502q172 0 172 -185v-68q0 -9 -9 -9h-311v-57q0 -91 38.5 -132t122.5 -41q74 0 130 66q6 7 13 0l4 -4q6 -6 0 -13q-58 -71 -149 -71t-137 46.5t-46 138.5v144q0 185 172 185zM380 307q0 91 -35.5 132t-112.5 41t-112.5 -41t-35.5 -132v-45h296v45zM336 682q9 0 8 -9
q-8 -40 -37 -62.5t-73 -22.5t-73 22.5t-37 62.5q-2 9 8 9h5q7 0 8 -7q7 -30 30.5 -47.5t58.5 -17.5t58.5 17.5t30.5 47.5q1 7 8 7h5z" />
    <glyph glyph-name="Edotaccent" unicode="&#x116;" horiz-adv-x="537" 
d="M435 347q9 0 9 -9v-4q0 -9 -9 -9h-319v-303h363q9 0 9 -9v-4q0 -9 -9 -9h-378q-9 0 -9 9v646q0 9 9 9h378q9 0 9 -9v-4q0 -9 -9 -9h-363v-295h319zM290 771q-11 0 -18 7t-7 18t7 18t18 7t18 -7t7 -18t-7 -18t-18 -7z" />
    <glyph glyph-name="edotaccent" unicode="&#x117;" horiz-adv-x="450" 
d="M232 502q172 0 172 -185v-68q0 -9 -9 -9h-311v-57q0 -91 38.5 -132t122.5 -41q74 0 130 66q6 7 13 0l4 -4q6 -6 0 -13q-58 -71 -149 -71t-137 46.5t-46 138.5v144q0 185 172 185zM380 307q0 91 -35.5 132t-112.5 41t-112.5 -41t-35.5 -132v-45h296v45zM234 603
q-11 0 -18 7t-7 18t7 18t18 7t18 -7t7 -18t-7 -18t-18 -7z" />
    <glyph glyph-name="Eogonek" unicode="&#x118;" horiz-adv-x="537" 
d="M487 -131q6 -6 0 -12q-13 -13 -29.5 -21t-39.5 -8q-32 0 -53 18t-21 50q0 29 18 55.5t58 47.5v1h-319q-9 0 -9 9v646q0 9 9 9h378q9 0 9 -9v-4q0 -9 -9 -9h-363v-295h319q9 0 9 -9v-4q0 -9 -9 -9h-319v-303h363q9 0 9 -9v-4q0 -9 -9 -9h-11q-54 -20 -77.5 -47t-23.5 -56
q0 -21 14.5 -34.5t36.5 -13.5q18 0 30 6t23 17q6 6 12 1z" />
    <glyph glyph-name="eogonek" unicode="&#x119;" horiz-adv-x="450" 
d="M232 502q172 0 172 -185v-68q0 -9 -9 -9h-311v-57q0 -91 38.5 -132t122.5 -41q74 0 130 66q6 7 13 0l4 -4q6 -6 0 -13q-26 -32 -60 -51q-46 -25 -64.5 -53t-18.5 -56q0 -21 14.5 -35.5t36.5 -14.5q17 0 29.5 6t23.5 17q6 6 13 0l3 -3q6 -6 0 -12q-13 -13 -29.5 -21
t-39.5 -8q-32 0 -53 19t-21 51q0 23 10.5 46t34.5 45v1q-6 -1 -13.5 -1.5t-14.5 -0.5q-91 0 -137 46.5t-46 138.5v144q0 185 172 185zM380 307q0 91 -35.5 132t-112.5 41t-112.5 -41t-35.5 -132v-45h296v45z" />
    <glyph glyph-name="Ecaron" unicode="&#x11a;" horiz-adv-x="537" 
d="M435 347q9 0 9 -9v-4q0 -9 -9 -9h-319v-303h363q9 0 9 -9v-4q0 -9 -9 -9h-378q-9 0 -9 9v646q0 9 9 9h378q9 0 9 -9v-4q0 -9 -9 -9h-363v-295h319zM286 735q-7 0 -11 6l-88 127q-7 10 5 10h6q6 0 10 -5l82 -115l81 115q5 5 10 5h6q12 0 5 -10l-88 -127q-5 -6 -11 -6h-7z
" />
    <glyph glyph-name="ecaron" unicode="&#x11b;" horiz-adv-x="450" 
d="M232 502q172 0 172 -185v-68q0 -9 -9 -9h-311v-57q0 -91 38.5 -132t122.5 -41q74 0 130 66q6 7 13 0l4 -4q6 -6 0 -13q-58 -71 -149 -71t-137 46.5t-46 138.5v144q0 185 172 185zM380 307q0 91 -35.5 132t-112.5 41t-112.5 -41t-35.5 -132v-45h296v45zM230 567
q-7 0 -11 6l-88 127q-7 10 5 10h6q6 0 10 -5l82 -115l81 115q5 5 10 5h6q12 0 5 -10l-88 -127q-5 -6 -11 -6h-7z" />
    <glyph glyph-name="Gcircumflex" unicode="&#x11c;" horiz-adv-x="570" 
d="M512 228q0 -119 -56 -179.5t-167 -60.5t-167.5 60.5t-56.5 179.5v208q0 119 56.5 179.5t168.5 60.5q155 0 211 -129q3 -9 -5 -12l-5 -2q-9 -4 -13 5q-25 58 -71 87t-117 29q-103 0 -152 -56t-49 -173v-186q0 -117 49 -173t151 -56t151 56t49 173v68h-178q-9 0 -9 9v4
q0 9 9 9h192q9 0 9 -9v-92zM203 740q-4 -5 -10 -5h-6q-12 0 -5 10l88 127q4 6 11 6h7q6 0 11 -6l88 -127q7 -10 -5 -10h-6q-5 0 -10 5l-81 115z" />
    <glyph glyph-name="gcircumflex" unicode="&#x11d;" horiz-adv-x="486" 
d="M235 502q87 0 131 -47t44 -139v-321q0 -78 -46 -122.5t-126 -44.5q-50 0 -88 14.5t-70 46.5q-8 7 -1 14l4 4q6 6 13 0q28 -29 62 -43t80 -14q72 0 110 40t38 115v81h-1q-38 -86 -150 -86q-175 0 -175 185v131q0 92 44 139t131 47zM235 22q151 0 151 173v112
q0 90 -36.5 131.5t-114.5 41.5t-114.5 -41.5t-36.5 -131.5v-112q0 -90 36.5 -131.5t114.5 -41.5zM153 572q-4 -5 -10 -5h-6q-12 0 -5 10l88 127q4 6 11 6h7q6 0 11 -6l88 -127q7 -10 -5 -10h-6q-5 0 -10 5l-81 115z" />
    <glyph glyph-name="Gbreve" unicode="&#x11e;" horiz-adv-x="570" 
d="M512 228q0 -119 -56 -179.5t-167 -60.5t-167.5 60.5t-56.5 179.5v208q0 119 56.5 179.5t168.5 60.5q155 0 211 -129q3 -9 -5 -12l-5 -2q-9 -4 -13 5q-25 58 -71 87t-117 29q-103 0 -152 -56t-49 -173v-186q0 -117 49 -173t151 -56t151 56t49 173v68h-178q-9 0 -9 9v4
q0 9 9 9h192q9 0 9 -9v-92zM387 850q9 0 8 -9q-8 -40 -37 -62.5t-73 -22.5t-73 22.5t-37 62.5q-2 9 8 9h5q7 0 8 -7q7 -30 30.5 -47.5t58.5 -17.5t58.5 17.5t30.5 47.5q1 7 8 7h5z" />
    <glyph glyph-name="gbreve" unicode="&#x11f;" horiz-adv-x="486" 
d="M235 502q87 0 131 -47t44 -139v-321q0 -78 -46 -122.5t-126 -44.5q-50 0 -88 14.5t-70 46.5q-8 7 -1 14l4 4q6 6 13 0q28 -29 62 -43t80 -14q72 0 110 40t38 115v81h-1q-38 -86 -150 -86q-175 0 -175 185v131q0 92 44 139t131 47zM235 22q151 0 151 173v112
q0 90 -36.5 131.5t-114.5 41.5t-114.5 -41.5t-36.5 -131.5v-112q0 -90 36.5 -131.5t114.5 -41.5zM337 682q9 0 8 -9q-8 -40 -37 -62.5t-73 -22.5t-73 22.5t-37 62.5q-2 9 8 9h5q7 0 8 -7q7 -30 30.5 -47.5t58.5 -17.5t58.5 17.5t30.5 47.5q1 7 8 7h5z" />
    <glyph glyph-name="Gdotaccent" unicode="&#x120;" horiz-adv-x="570" 
d="M512 228q0 -119 -56 -179.5t-167 -60.5t-167.5 60.5t-56.5 179.5v208q0 119 56.5 179.5t168.5 60.5q155 0 211 -129q3 -9 -5 -12l-5 -2q-9 -4 -13 5q-25 58 -71 87t-117 29q-103 0 -152 -56t-49 -173v-186q0 -117 49 -173t151 -56t151 56t49 173v68h-178q-9 0 -9 9v4
q0 9 9 9h192q9 0 9 -9v-92zM285 771q-11 0 -18 7t-7 18t7 18t18 7t18 -7t7 -18t-7 -18t-18 -7z" />
    <glyph glyph-name="gdotaccent" unicode="&#x121;" horiz-adv-x="486" 
d="M235 502q87 0 131 -47t44 -139v-321q0 -78 -46 -122.5t-126 -44.5q-50 0 -88 14.5t-70 46.5q-8 7 -1 14l4 4q6 6 13 0q28 -29 62 -43t80 -14q72 0 110 40t38 115v81h-1q-38 -86 -150 -86q-175 0 -175 185v131q0 92 44 139t131 47zM235 22q151 0 151 173v112
q0 90 -36.5 131.5t-114.5 41.5t-114.5 -41.5t-36.5 -131.5v-112q0 -90 36.5 -131.5t114.5 -41.5zM235 603q-11 0 -18 7t-7 18t7 18t18 7t18 -7t7 -18t-7 -18t-18 -7z" />
    <glyph glyph-name="Gcommaaccent" unicode="&#x122;" horiz-adv-x="570" 
d="M512 228q0 -119 -56 -179.5t-167 -60.5t-167.5 60.5t-56.5 179.5v208q0 119 56.5 179.5t168.5 60.5q155 0 211 -129q3 -9 -5 -12l-5 -2q-9 -4 -13 5q-25 58 -71 87t-117 29q-103 0 -152 -56t-49 -173v-186q0 -117 49 -173t151 -56t151 56t49 173v68h-178q-9 0 -9 9v4
q0 9 9 9h192q9 0 9 -9v-92zM289 -55q11 0 18.5 -8t7.5 -22q0 -46 -36 -60q-5 -2 -7 2l-2 3q-2 4 3 6q17 9 21 31h-5q-11 0 -18.5 6.5t-7.5 17.5t7.5 17.5t18.5 6.5z" />
    <glyph glyph-name="gcommaaccent" unicode="&#x123;" horiz-adv-x="486" 
d="M235 646q11 0 18.5 -6.5t7.5 -17.5t-7.5 -17.5t-18.5 -6.5t-18.5 8t-7.5 22q0 22 9.5 37t26.5 23q5 2 7 -2l1 -2q3 -5 -3 -8q-16 -8 -20 -30h5zM235 502q87 0 131 -47t44 -139v-321q0 -78 -46 -122.5t-126 -44.5q-50 0 -88 14.5t-70 46.5q-8 7 -1 14l4 4q6 6 13 0
q28 -29 62 -43t80 -14q72 0 110 40t38 115v81h-1q-38 -86 -150 -86q-175 0 -175 185v131q0 92 44 139t131 47zM235 22q151 0 151 173v112q0 90 -36.5 131.5t-114.5 41.5t-114.5 -41.5t-36.5 -131.5v-112q0 -90 36.5 -131.5t114.5 -41.5z" />
    <glyph glyph-name="Hcircumflex" unicode="&#x124;" horiz-adv-x="624" 
d="M532 9q0 -9 -9 -9h-6q-9 0 -9 9v316h-392v-316q0 -9 -9 -9h-6q-9 0 -9 9v646q0 9 9 9h6q9 0 9 -9v-308h392v308q0 9 9 9h6q9 0 9 -9v-646zM230 740q-4 -5 -10 -5h-6q-12 0 -5 10l88 127q4 6 11 6h7q6 0 11 -6l88 -127q7 -10 -5 -10h-6q-5 0 -10 5l-81 115z" />
    <glyph glyph-name="hcircumflex" unicode="&#x125;" horiz-adv-x="502" 
d="M254 502q172 0 172 -181v-312q0 -9 -9 -9h-6q-9 0 -9 9v302q0 88 -36 128.5t-112 40.5q-148 0 -148 -169v-302q0 -9 -9 -9h-6q-9 0 -9 9v682q0 9 9 9h6q9 0 9 -9v-272h1q36 83 147 83zM12 771q-4 -5 -10 -5h-6q-12 0 -5 10l88 127q4 6 11 6h7q6 0 11 -6l88 -127
q7 -10 -5 -10h-6q-5 0 -10 5l-81 115z" />
    <glyph glyph-name="Hbar" unicode="&#x126;" horiz-adv-x="632" 
d="M599 497q9 0 9 -9v-4q0 -9 -9 -9h-63v-466q0 -9 -9 -9h-6q-9 0 -9 9v316h-392v-316q0 -9 -9 -9h-6q-9 0 -9 9v466h-63q-9 0 -9 9v4q0 9 9 9h63v158q0 9 9 9h6q9 0 9 -9v-158h392v158q0 9 9 9h6q9 0 9 -9v-158h63zM512 347v128h-392v-128h392z" />
    <glyph glyph-name="hbar" unicode="&#x127;" horiz-adv-x="504" 
d="M256 502q172 0 172 -181v-312q0 -9 -9 -9h-6q-9 0 -9 9v302q0 88 -36 128.5t-112 40.5q-148 0 -148 -169v-302q0 -9 -9 -9h-6q-9 0 -9 9v566h-71q-9 0 -9 9v4q0 9 9 9h71v94q0 9 9 9h6q9 0 9 -9v-94h145q9 0 9 -9v-4q0 -9 -9 -9h-145v-156h1q36 83 147 83z" />
    <glyph glyph-name="Itilde" unicode="&#x128;" horiz-adv-x="208" 
d="M92 655q0 9 9 9h6q9 0 9 -9v-646q0 -9 -9 -9h-6q-9 0 -9 9v646zM-16 754q-10 0 -8 10q7 35 25.5 54.5t47.5 19.5q15 0 28 -6.5t34 -26.5q17 -16 27.5 -22t22.5 -6q39 0 49 53q2 8 9 8h5q10 0 8 -10q-7 -35 -25.5 -54.5t-47.5 -19.5q-15 0 -28 6.5t-34 26.5
q-17 17 -27.5 22.5t-22.5 5.5q-39 0 -49 -53q-2 -8 -9 -8h-5z" />
    <glyph glyph-name="itilde" unicode="&#x129;" horiz-adv-x="188" 
d="M97 490q9 0 9 -9v-472q0 -9 -9 -9h-6q-9 0 -9 9v472q0 9 9 9h6zM-26 586q-10 0 -8 10q7 35 25.5 54.5t47.5 19.5q15 0 28 -6.5t34 -26.5q17 -16 27.5 -22t22.5 -6q39 0 49 53q2 8 9 8h5q10 0 8 -10q-7 -35 -25.5 -54.5t-47.5 -19.5q-15 0 -28 6.5t-34 26.5
q-17 17 -27.5 22.5t-22.5 5.5q-39 0 -49 -53q-2 -8 -9 -8h-5z" />
    <glyph glyph-name="Imacron" unicode="&#x12a;" horiz-adv-x="208" 
d="M92 655q0 9 9 9h6q9 0 9 -9v-646q0 -9 -9 -9h-6q-9 0 -9 9v646zM-17 796q0 9 9 9h223q9 0 9 -9v-4q0 -9 -9 -9h-223q-9 0 -9 9v4z" />
    <glyph glyph-name="imacron" unicode="&#x12b;" horiz-adv-x="188" 
d="M97 490q9 0 9 -9v-472q0 -9 -9 -9h-6q-9 0 -9 9v472q0 9 9 9h6zM-27 628q0 9 9 9h223q9 0 9 -9v-4q0 -9 -9 -9h-223q-9 0 -9 9v4z" />
    <glyph glyph-name="Ibreve" unicode="&#x12c;" horiz-adv-x="208" 
d="M92 655q0 9 9 9h6q9 0 9 -9v-646q0 -9 -9 -9h-6q-9 0 -9 9v646zM206 850q9 0 8 -9q-8 -40 -37 -62.5t-73 -22.5t-73 22.5t-37 62.5q-2 9 8 9h5q7 0 8 -7q7 -30 30.5 -47.5t58.5 -17.5t58.5 17.5t30.5 47.5q1 7 8 7h5z" />
    <glyph glyph-name="ibreve" unicode="&#x12d;" horiz-adv-x="188" 
d="M97 490q9 0 9 -9v-472q0 -9 -9 -9h-6q-9 0 -9 9v472q0 9 9 9h6zM196 682q9 0 8 -9q-8 -40 -37 -62.5t-73 -22.5t-73 22.5t-37 62.5q-2 9 8 9h5q7 0 8 -7q7 -30 30.5 -47.5t58.5 -17.5t58.5 17.5t30.5 47.5q1 7 8 7h5z" />
    <glyph glyph-name="Iogonek" unicode="&#x12e;" horiz-adv-x="208" 
d="M159 -131q6 -6 0 -12q-13 -13 -29.5 -21t-39.5 -8q-32 0 -53 19.5t-21 51.5q0 63 76 111v645q0 9 9 9h6q9 0 9 -9v-646q0 -6 -3 -8q-38 -23 -56 -47.5t-18 -53.5q0 -21 14.5 -36t36.5 -15q18 0 30.5 6t22.5 17q6 7 12 1z" />
    <glyph glyph-name="iogonek" unicode="&#x12f;" horiz-adv-x="188" 
d="M94 603q-11 0 -18 7t-7 18t7 18t18 7t18 -7t7 -18t-7 -18t-18 -7zM158 -131q6 -6 0 -12q-13 -13 -29.5 -21t-39.5 -8q-32 0 -53 19.5t-21 51.5q0 30 17.5 57.5t49.5 52.5v472q0 9 9 9h6q9 0 9 -9v-472q0 -5 -5 -9q-30 -23 -46.5 -47t-16.5 -53q0 -21 14.5 -36t36.5 -15
q18 0 30.5 6.5t22.5 16.5q6 6 12 1z" />
    <glyph glyph-name="Idotaccent" unicode="&#x130;" horiz-adv-x="208" 
d="M92 655q0 9 9 9h6q9 0 9 -9v-646q0 -9 -9 -9h-6q-9 0 -9 9v646zM104 771q-11 0 -18 7t-7 18t7 18t18 7t18 -7t7 -18t-7 -18t-18 -7z" />
    <glyph glyph-name="dotlessi" unicode="&#x131;" horiz-adv-x="188" 
d="M97 490q9 0 9 -9v-472q0 -9 -9 -9h-6q-9 0 -9 9v472q0 9 9 9h6z" />
    <glyph glyph-name="IJ" unicode="&#x132;" horiz-adv-x="717" 
d="M92 655q0 9 9 9h6q9 0 9 -9v-646q0 -9 -9 -9h-6q-9 0 -9 9v646zM638 219q0 -115 -53 -173t-158 -58q-137 0 -198 116q-5 8 3 12l5 3q7 4 12 -3q56 -106 178 -106q96 0 141.5 53.5t45.5 165.5v426q0 9 9 9h6q9 0 9 -9v-436z" />
    <glyph glyph-name="ij" unicode="&#x133;" horiz-adv-x="376" 
d="M97 490q9 0 9 -9v-472q0 -9 -9 -9h-6q-9 0 -9 9v472q0 9 9 9h6zM94 603q-11 0 -18 7t-7 18t7 18t18 7t18 -7t7 -18t-7 -18t-18 -7zM282 603q-11 0 -18 7t-7 18t7 18t18 7t18 -7t7 -18t-7 -18t-18 -7zM178 -138q92 0 92 102v517q0 9 9 9h6q9 0 9 -9v-517q0 -124 -116 -124
h-3q-9 0 -9 9v4q0 9 9 9h3z" />
    <glyph glyph-name="Jcircumflex" unicode="&#x134;" horiz-adv-x="515" 
d="M436 219q0 -115 -53 -173t-158 -58q-137 0 -198 116q-5 8 3 12l5 3q7 4 12 -3q56 -106 178 -106q96 0 141.5 53.5t45.5 165.5v426q0 9 9 9h6q9 0 9 -9v-436zM342 740q-4 -5 -10 -5h-6q-12 0 -5 10l88 127q4 6 11 6h7q6 0 11 -6l88 -127q7 -10 -5 -10h-6q-5 0 -10 5
l-81 115z" />
    <glyph glyph-name="jcircumflex" unicode="&#x135;" horiz-adv-x="188" 
d="M-16 -160q-6 0 -6 9v4q0 9 9 9h3q92 0 92 102v517q0 9 9 9h6q9 0 9 -9v-517q0 -124 -116 -124h-6zM12 572q-4 -5 -10 -5h-6q-12 0 -5 10l88 127q4 6 11 6h7q6 0 11 -6l88 -127q7 -10 -5 -10h-6q-5 0 -10 5l-81 115z" />
    <glyph glyph-name="Kcommaaccent" unicode="&#x136;" horiz-adv-x="533" 
d="M116 9q0 -9 -9 -9h-6q-9 0 -9 9v646q0 9 9 9h6q9 0 9 -9v-311l341 315q5 5 11 5h12q6 0 7.5 -3.5t-3.5 -7.5l-341 -316l352 -326q4 -4 3 -7.5t-7 -3.5h-14q-6 0 -11 5l-350 325v-321zM286 -55q11 0 18.5 -8t7.5 -22q0 -46 -36 -60q-5 -2 -7 2l-2 3q-2 4 3 6q17 9 21 31
h-5q-11 0 -18.5 6.5t-7.5 17.5t7.5 17.5t18.5 6.5z" />
    <glyph glyph-name="kcommaaccent" unicode="&#x137;" horiz-adv-x="412" 
d="M106 9q0 -9 -9 -9h-6q-9 0 -9 9v682q0 9 9 9h6q9 0 9 -9v-436l246 230q5 5 11 5h12q6 0 7.5 -3t-3.5 -8l-246 -229l257 -239q5 -4 3.5 -7.5t-7.5 -3.5h-12q-6 0 -11 5l-257 239v-235zM233 -55q11 0 18.5 -8t7.5 -22q0 -46 -36 -60q-5 -2 -7 2l-2 3q-2 4 3 6q17 9 21 31
h-5q-11 0 -18.5 6.5t-7.5 17.5t7.5 17.5t18.5 6.5z" />
    <glyph glyph-name="kgreenlandic" unicode="&#x138;" horiz-adv-x="412" 
d="M106 9q0 -9 -9 -9h-6q-9 0 -9 9v472q0 9 9 9h6q9 0 9 -9v-226l246 230q5 5 11 5h12q6 0 7.5 -3t-3.5 -8l-246 -229l257 -239q5 -4 3.5 -7.5t-7.5 -3.5h-12q-6 0 -11 5l-257 239v-235z" />
    <glyph glyph-name="Lacute" unicode="&#x139;" horiz-adv-x="493" 
d="M473 9q0 -9 -9 -9h-363q-9 0 -9 9v646q0 9 9 9h6q9 0 9 -9v-633h348q9 0 9 -9v-4zM174 872q4 6 11 6h9q5 0 7 -3t-2 -8l-90 -127q-4 -5 -10 -5h-6q-12 0 -5 10z" />
    <glyph glyph-name="lacute" unicode="&#x13a;" horiz-adv-x="188" 
d="M97 700q9 0 9 -9v-682q0 -9 -9 -9h-6q-9 0 -9 9v682q0 9 9 9h6zM164 903q4 6 11 6h9q5 0 7 -3t-2 -8l-90 -127q-4 -5 -10 -5h-6q-12 0 -5 10z" />
    <glyph glyph-name="Lcommaaccent" unicode="&#x13b;" horiz-adv-x="493" 
d="M473 9q0 -9 -9 -9h-363q-9 0 -9 9v646q0 9 9 9h6q9 0 9 -9v-633h348q9 0 9 -9v-4zM278 -55q11 0 18.5 -8t7.5 -22q0 -46 -36 -60q-5 -2 -7 2l-2 3q-2 4 3 6q17 9 21 31h-5q-11 0 -18.5 6.5t-7.5 17.5t7.5 17.5t18.5 6.5z" />
    <glyph glyph-name="lcommaaccent" unicode="&#x13c;" horiz-adv-x="188" 
d="M97 700q9 0 9 -9v-682q0 -9 -9 -9h-6q-9 0 -9 9v682q0 9 9 9h6zM94 -55q11 0 18.5 -8t7.5 -22q0 -46 -36 -60q-5 -2 -7 2l-2 3q-2 4 3 6q17 9 21 31h-5q-11 0 -18.5 6.5t-7.5 17.5t7.5 17.5t18.5 6.5z" />
    <glyph glyph-name="Lcaron" unicode="&#x13d;" horiz-adv-x="493" 
d="M473 9q0 -9 -9 -9h-363q-9 0 -9 9v646q0 9 9 9h6q9 0 9 -9v-633h348q9 0 9 -9v-4zM233 692q2 8 9 8h5q10 0 8 -10l-25 -163q-1 -7 -8 -7h-3q-10 0 -8 9z" />
    <glyph glyph-name="lcaron" unicode="&#x13e;" horiz-adv-x="188" 
d="M97 700q9 0 9 -9v-682q0 -9 -9 -9h-6q-9 0 -9 9v682q0 9 9 9h6zM185 692q2 8 9 8h5q10 0 8 -10l-25 -163q-1 -7 -8 -7h-3q-10 0 -8 9z" />
    <glyph glyph-name="Ldot" unicode="&#x13f;" horiz-adv-x="493" 
d="M473 9q0 -9 -9 -9h-363q-9 0 -9 9v646q0 9 9 9h6q9 0 9 -9v-633h348q9 0 9 -9v-4zM350 307q-11 0 -18 7t-7 18t7 18t18 7t18 -7t7 -18t-7 -18t-18 -7z" />
    <glyph glyph-name="ldot" unicode="&#x140;" horiz-adv-x="188" 
d="M97 700q9 0 9 -9v-682q0 -9 -9 -9h-6q-9 0 -9 9v682q0 9 9 9h6zM188 307q-11 0 -18 7t-7 18t7 18t18 7t18 -7t7 -18t-7 -18t-18 -7z" />
    <glyph glyph-name="Lslash" unicode="&#x141;" horiz-adv-x="501" 
d="M472 22q9 0 9 -9v-4q0 -9 -9 -9h-363q-9 0 -9 9v215l-65 -46q-5 -3 -7.5 -1.5t-2.5 6.5v8q0 6 6 11l69 49v404q0 9 9 9h6q9 0 9 -9v-387l242 173q5 3 7.5 1.5t2.5 -6.5v-8q0 -7 -6 -11l-246 -176v-219h348z" />
    <glyph glyph-name="lslash" unicode="&#x142;" horiz-adv-x="208" 
d="M192 481q5 4 8 2t3 -7v-6q0 -7 -5 -11l-82 -64v-386q0 -9 -9 -9h-6q-9 0 -9 9v368l-76 -59q-5 -4 -8 -2t-3 7v6q0 7 5 11l82 64v287q0 9 9 9h6q9 0 9 -9v-269z" />
    <glyph glyph-name="Nacute" unicode="&#x143;" horiz-adv-x="624" 
d="M92 655q0 9 9 9h9q6 0 11 -6l386 -609h1v606q0 9 9 9h6q9 0 9 -9v-646q0 -9 -9 -9h-6q-7 0 -11 6l-389 614h-1v-611q0 -9 -9 -9h-6q-9 0 -9 9v646zM382 872q4 6 11 6h9q5 0 7 -3t-2 -8l-90 -127q-4 -5 -10 -5h-6q-12 0 -5 10z" />
    <glyph glyph-name="nacute" unicode="&#x144;" horiz-adv-x="496" 
d="M405 0q-9 0 -9 9v302q0 88 -36 128.5t-112 40.5t-112 -40.5t-36 -128.5v-302q0 -9 -9 -9h-6q-9 0 -9 9v312q0 181 172 181t172 -181v-312q0 -9 -9 -9h-6zM318 704q4 6 11 6h9q5 0 7 -3t-2 -8l-90 -127q-4 -5 -10 -5h-6q-12 0 -5 10z" />
    <glyph glyph-name="Ncommaaccent" unicode="&#x145;" horiz-adv-x="624" 
d="M92 655q0 9 9 9h9q6 0 11 -6l386 -609h1v606q0 9 9 9h6q9 0 9 -9v-646q0 -9 -9 -9h-6q-7 0 -11 6l-389 614h-1v-611q0 -9 -9 -9h-6q-9 0 -9 9v646zM312 -55q11 0 18.5 -8t7.5 -22q0 -46 -36 -60q-5 -2 -7 2l-2 3q-2 4 3 6q17 9 21 31h-5q-11 0 -18.5 6.5t-7.5 17.5
t7.5 17.5t18.5 6.5z" />
    <glyph glyph-name="ncommaaccent" unicode="&#x146;" horiz-adv-x="496" 
d="M405 0q-9 0 -9 9v302q0 88 -36 128.5t-112 40.5t-112 -40.5t-36 -128.5v-302q0 -9 -9 -9h-6q-9 0 -9 9v312q0 181 172 181t172 -181v-312q0 -9 -9 -9h-6zM248 -55q11 0 18.5 -8t7.5 -22q0 -46 -36 -60q-5 -2 -7 2l-2 3q-2 4 3 6q17 9 21 31h-5q-11 0 -18.5 6.5t-7.5 17.5
t7.5 17.5t18.5 6.5z" />
    <glyph glyph-name="Ncaron" unicode="&#x147;" horiz-adv-x="624" 
d="M92 655q0 9 9 9h9q6 0 11 -6l386 -609h1v606q0 9 9 9h6q9 0 9 -9v-646q0 -9 -9 -9h-6q-7 0 -11 6l-389 614h-1v-611q0 -9 -9 -9h-6q-9 0 -9 9v646zM308 735q-7 0 -11 6l-88 127q-7 10 5 10h6q6 0 10 -5l82 -115l81 115q5 5 10 5h6q12 0 5 -10l-88 -127q-5 -6 -11 -6h-7z
" />
    <glyph glyph-name="ncaron" unicode="&#x148;" horiz-adv-x="496" 
d="M405 0q-9 0 -9 9v302q0 88 -36 128.5t-112 40.5t-112 -40.5t-36 -128.5v-302q0 -9 -9 -9h-6q-9 0 -9 9v312q0 181 172 181t172 -181v-312q0 -9 -9 -9h-6zM244 567q-7 0 -11 6l-88 127q-7 10 5 10h6q6 0 10 -5l82 -115l81 115q5 5 10 5h6q12 0 5 -10l-88 -127
q-5 -6 -11 -6h-7z" />
    <glyph glyph-name="napostrophe" unicode="&#x149;" horiz-adv-x="496" 
d="M405 0q-9 0 -9 9v302q0 88 -36 128.5t-112 40.5t-112 -40.5t-36 -128.5v-302q0 -9 -9 -9h-6q-9 0 -9 9v312q0 181 172 181t172 -181v-312q0 -9 -9 -9h-6zM92 670q11 0 18.5 -8t7.5 -22q0 -53 -43 -90q-4 -4 -9 2q-4 4 0 8q26 23 30 62h-4q-11 0 -18.5 6.5t-7.5 17.5
t7.5 17.5t18.5 6.5z" />
    <glyph glyph-name="Eng" unicode="&#x14a;" horiz-adv-x="624" 
d="M532 -36q0 -124 -116 -124h-23q-9 0 -9 9v6q0 9 9 9h23q92 0 92 100v39l-391 617h-1v-611q0 -9 -9 -9h-6q-9 0 -9 9v646q0 9 9 9h9q6 0 11 -6l386 -609h1v606q0 9 9 9h6q9 0 9 -9v-691z" />
    <glyph glyph-name="eng" unicode="&#x14b;" horiz-adv-x="496" 
d="M248 502q172 0 172 -181v-357q0 -124 -116 -124h-3q-9 0 -9 9v4q0 9 9 9h3q92 0 92 102v347q0 88 -36 128.5t-112 40.5t-112 -40.5t-36 -128.5v-302q0 -9 -9 -9h-6q-9 0 -9 9v312q0 181 172 181z" />
    <glyph glyph-name="Omacron" unicode="&#x14c;" horiz-adv-x="580" 
d="M65 436q0 119 56.5 179.5t168.5 60.5t168.5 -60.5t56.5 -179.5v-208q0 -119 -56.5 -179.5t-168.5 -60.5t-168.5 60.5t-56.5 179.5v208zM89 238q0 -116 49 -172t152 -56t152 56t49 172v188q0 116 -49 172t-152 56t-152 -56t-49 -172v-188zM169 796q0 9 9 9h223q9 0 9 -9
v-4q0 -9 -9 -9h-223q-9 0 -9 9v4z" />
    <glyph glyph-name="omacron" unicode="&#x14d;" horiz-adv-x="470" 
d="M235 502q175 0 175 -185v-144q0 -185 -175 -185t-175 185v144q0 185 175 185zM386 307q0 90 -36.5 131.5t-114.5 41.5t-114.5 -41.5t-36.5 -131.5v-124q0 -90 36.5 -131.5t114.5 -41.5t114.5 41.5t36.5 131.5v124zM114 628q0 9 9 9h223q9 0 9 -9v-4q0 -9 -9 -9h-223
q-9 0 -9 9v4z" />
    <glyph glyph-name="Obreve" unicode="&#x14e;" horiz-adv-x="580" 
d="M65 436q0 119 56.5 179.5t168.5 60.5t168.5 -60.5t56.5 -179.5v-208q0 -119 -56.5 -179.5t-168.5 -60.5t-168.5 60.5t-56.5 179.5v208zM89 238q0 -116 49 -172t152 -56t152 56t49 172v188q0 116 -49 172t-152 56t-152 -56t-49 -172v-188zM392 850q9 0 8 -9
q-8 -40 -37 -62.5t-73 -22.5t-73 22.5t-37 62.5q-2 9 8 9h5q7 0 8 -7q7 -30 30.5 -47.5t58.5 -17.5t58.5 17.5t30.5 47.5q1 7 8 7h5z" />
    <glyph glyph-name="obreve" unicode="&#x14f;" horiz-adv-x="470" 
d="M235 502q175 0 175 -185v-144q0 -185 -175 -185t-175 185v144q0 185 175 185zM386 307q0 90 -36.5 131.5t-114.5 41.5t-114.5 -41.5t-36.5 -131.5v-124q0 -90 36.5 -131.5t114.5 -41.5t114.5 41.5t36.5 131.5v124zM337 682q9 0 8 -9q-8 -40 -37 -62.5t-73 -22.5t-73 22.5
t-37 62.5q-2 9 8 9h5q7 0 8 -7q7 -30 30.5 -47.5t58.5 -17.5t58.5 17.5t30.5 47.5q1 7 8 7h5z" />
    <glyph glyph-name="Ohungarumlaut" unicode="&#x150;" horiz-adv-x="580" 
d="M65 436q0 119 56.5 179.5t168.5 60.5t168.5 -60.5t56.5 -179.5v-208q0 -119 -56.5 -179.5t-168.5 -60.5t-168.5 60.5t-56.5 179.5v208zM89 238q0 -116 49 -172t152 -56t152 56t49 172v188q0 116 -49 172t-152 56t-152 -56t-49 -172v-188zM289 872q4 6 11 6h9q13 0 6 -11
l-82 -127q-3 -5 -9 -5h-7q-10 0 -5 10zM419 872q4 6 11 6h9q13 0 6 -11l-82 -127q-3 -5 -9 -5h-7q-10 0 -5 10z" />
    <glyph glyph-name="ohungarumlaut" unicode="&#x151;" horiz-adv-x="470" 
d="M235 502q175 0 175 -185v-144q0 -185 -175 -185t-175 185v144q0 185 175 185zM386 307q0 90 -36.5 131.5t-114.5 41.5t-114.5 -41.5t-36.5 -131.5v-124q0 -90 36.5 -131.5t114.5 -41.5t114.5 41.5t36.5 131.5v124zM234 704q4 6 11 6h9q13 0 6 -11l-82 -127q-3 -5 -9 -5
h-7q-10 0 -5 10zM364 704q4 6 11 6h9q13 0 6 -11l-82 -127q-3 -5 -9 -5h-7q-10 0 -5 10z" />
    <glyph glyph-name="OE" unicode="&#x152;" horiz-adv-x="918" 
d="M816 347q9 0 9 -9v-4q0 -9 -9 -9h-319v-303h363q9 0 9 -9v-4q0 -9 -9 -9h-570q-112 0 -168.5 56.5t-56.5 168.5v214q0 112 56.5 168.5t168.5 56.5h570q9 0 9 -9v-4q0 -9 -9 -9h-363v-295h319zM290 642q-103 0 -152 -52.5t-49 -161.5v-192q0 -109 49 -161.5t152 -52.5h183
v620h-183z" />
    <glyph glyph-name="oe" unicode="&#x153;" horiz-adv-x="776" 
d="M558 502q172 0 172 -185v-68q0 -9 -9 -9h-311v-57q0 -91 38.5 -132t122.5 -41q38 0 69.5 15.5t60.5 50.5q6 6 13 0l4 -4q5 -6 1 -13q-59 -71 -150 -71q-140 0 -171 114h-1q-29 -114 -162 -114q-175 0 -175 185v144q0 185 175 185q133 0 163 -112h1q28 112 159 112z
M386 307q0 90 -36.5 131.5t-114.5 41.5t-114.5 -41.5t-36.5 -131.5v-124q0 -90 36.5 -131.5t114.5 -41.5t114.5 41.5t36.5 131.5v124zM706 307q0 91 -35.5 132t-112.5 41t-112.5 -41t-35.5 -132v-45h296v45z" />
    <glyph glyph-name="Racute" unicode="&#x154;" horiz-adv-x="566" 
d="M116 288v-279q0 -9 -9 -9h-6q-9 0 -9 9v646q0 9 9 9h175q116 0 170.5 -45.5t54.5 -142.5q0 -86 -42 -131t-131 -54l186 -280q7 -11 -6 -11h-11q-7 0 -11 6l-186 283q-6 -1 -12 -1h-12h-160zM276 310q105 0 153 40t48 126t-48 126t-153 40h-160v-332h160zM347 872
q4 6 11 6h9q5 0 7 -3t-2 -8l-90 -127q-4 -5 -10 -5h-6q-12 0 -5 10z" />
    <glyph glyph-name="racute" unicode="&#x155;" horiz-adv-x="360" 
d="M76 337q0 81 37.5 123t112.5 42q65 0 109 -36q7 -6 1 -13l-3 -4q-6 -7 -13 -1q-37 32 -94 32q-66 0 -96 -36t-30 -117v-318q0 -9 -9 -9h-6q-9 0 -9 9v328zM277 704q4 6 11 6h9q5 0 7 -3t-2 -8l-90 -127q-4 -5 -10 -5h-6q-12 0 -5 10z" />
    <glyph glyph-name="Rcommaaccent" unicode="&#x156;" horiz-adv-x="566" 
d="M116 288v-279q0 -9 -9 -9h-6q-9 0 -9 9v646q0 9 9 9h175q116 0 170.5 -45.5t54.5 -142.5q0 -86 -42 -131t-131 -54l186 -280q7 -11 -6 -11h-11q-7 0 -11 6l-186 283q-6 -1 -12 -1h-12h-160zM276 310q105 0 153 40t48 126t-48 126t-153 40h-160v-332h160zM298 -55
q11 0 18.5 -8t7.5 -22q0 -46 -36 -60q-5 -2 -7 2l-2 3q-2 4 3 6q17 9 21 31h-5q-11 0 -18.5 6.5t-7.5 17.5t7.5 17.5t18.5 6.5z" />
    <glyph glyph-name="rcommaaccent" unicode="&#x157;" horiz-adv-x="360" 
d="M76 337q0 81 37.5 123t112.5 42q65 0 109 -36q7 -6 1 -13l-3 -4q-6 -7 -13 -1q-37 32 -94 32q-66 0 -96 -36t-30 -117v-318q0 -9 -9 -9h-6q-9 0 -9 9v328zM88 -55q11 0 18.5 -8t7.5 -22q0 -46 -36 -60q-5 -2 -7 2l-2 3q-2 4 3 6q17 9 21 31h-5q-11 0 -18.5 6.5t-7.5 17.5
t7.5 17.5t18.5 6.5z" />
    <glyph glyph-name="Rcaron" unicode="&#x158;" horiz-adv-x="566" 
d="M116 288v-279q0 -9 -9 -9h-6q-9 0 -9 9v646q0 9 9 9h175q116 0 170.5 -45.5t54.5 -142.5q0 -86 -42 -131t-131 -54l186 -280q7 -11 -6 -11h-11q-7 0 -11 6l-186 283q-6 -1 -12 -1h-12h-160zM276 310q105 0 153 40t48 126t-48 126t-153 40h-160v-332h160zM273 735
q-7 0 -11 6l-88 127q-7 10 5 10h6q6 0 10 -5l82 -115l81 115q5 5 10 5h6q12 0 5 -10l-88 -127q-5 -6 -11 -6h-7z" />
    <glyph glyph-name="rcaron" unicode="&#x159;" horiz-adv-x="360" 
d="M76 337q0 81 37.5 123t112.5 42q65 0 109 -36q7 -6 1 -13l-3 -4q-6 -7 -13 -1q-37 32 -94 32q-66 0 -96 -36t-30 -117v-318q0 -9 -9 -9h-6q-9 0 -9 9v328zM203 567q-7 0 -11 6l-88 127q-7 10 5 10h6q6 0 10 -5l82 -115l81 115q5 5 10 5h6q12 0 5 -10l-88 -127
q-5 -6 -11 -6h-7z" />
    <glyph glyph-name="Sacute" unicode="&#x15a;" horiz-adv-x="501" 
d="M255 676q134 0 194 -92q5 -9 -2 -13l-5 -3q-8 -5 -13 3q-50 83 -174 83q-41 0 -74 -11.5t-56.5 -32t-36.5 -49.5t-13 -65q0 -33 9.5 -58t32 -43.5t58.5 -31t90 -21.5q57 -9 96 -23.5t63 -35.5t34.5 -49.5t10.5 -66.5q0 -40 -14.5 -73t-41 -56.5t-64 -36.5t-83.5 -13
q-77 0 -133.5 26.5t-90.5 78.5q-5 7 2 13l4 3q8 6 14 -3q64 -96 204 -96q40 0 73.5 11.5t57 32t36.5 49.5t13 65q0 32 -9.5 56.5t-31 42.5t-57.5 30.5t-90 21.5q-58 9 -97.5 23.5t-63.5 36t-34.5 50.5t-10.5 68q0 40 14.5 73t41 56.5t64 36.5t83.5 13zM325 872q4 6 11 6h9
q5 0 7 -3t-2 -8l-90 -127q-4 -5 -10 -5h-6q-12 0 -5 10z" />
    <glyph glyph-name="sacute" unicode="&#x15b;" horiz-adv-x="410" 
d="M375 126q0 -64 -43 -101t-117 -37q-116 0 -174 67q-6 7 0 13l4 4q6 6 13 0q53 -62 157 -62q66 0 101.5 30.5t35.5 86.5q0 25 -7.5 44t-25 32.5t-46 22.5t-70.5 14q-44 6 -74 15.5t-48 24.5t-25.5 35.5t-7.5 48.5q0 64 44.5 101t121.5 37q41 0 77.5 -13t63.5 -37
q7 -7 1 -13l-4 -4q-7 -7 -13 0q-47 45 -125 45q-69 0 -106 -30t-37 -87q0 -23 7 -40t23.5 -29t43 -20t66.5 -13q30 -4 59.5 -10t52.5 -20t37.5 -39t14.5 -66zM275 704q4 6 11 6h9q5 0 7 -3t-2 -8l-90 -127q-4 -5 -10 -5h-6q-12 0 -5 10z" />
    <glyph glyph-name="Scircumflex" unicode="&#x15c;" horiz-adv-x="501" 
d="M255 676q134 0 194 -92q5 -9 -2 -13l-5 -3q-8 -5 -13 3q-50 83 -174 83q-41 0 -74 -11.5t-56.5 -32t-36.5 -49.5t-13 -65q0 -33 9.5 -58t32 -43.5t58.5 -31t90 -21.5q57 -9 96 -23.5t63 -35.5t34.5 -49.5t10.5 -66.5q0 -40 -14.5 -73t-41 -56.5t-64 -36.5t-83.5 -13
q-77 0 -133.5 26.5t-90.5 78.5q-5 7 2 13l4 3q8 6 14 -3q64 -96 204 -96q40 0 73.5 11.5t57 32t36.5 49.5t13 65q0 32 -9.5 56.5t-31 42.5t-57.5 30.5t-90 21.5q-58 9 -97.5 23.5t-63.5 36t-34.5 50.5t-10.5 68q0 40 14.5 73t41 56.5t64 36.5t83.5 13zM173 740q-4 -5 -10 -5
h-6q-12 0 -5 10l88 127q4 6 11 6h7q6 0 11 -6l88 -127q7 -10 -5 -10h-6q-5 0 -10 5l-81 115z" />
    <glyph glyph-name="scircumflex" unicode="&#x15d;" horiz-adv-x="410" 
d="M375 126q0 -64 -43 -101t-117 -37q-116 0 -174 67q-6 7 0 13l4 4q6 6 13 0q53 -62 157 -62q66 0 101.5 30.5t35.5 86.5q0 25 -7.5 44t-25 32.5t-46 22.5t-70.5 14q-44 6 -74 15.5t-48 24.5t-25.5 35.5t-7.5 48.5q0 64 44.5 101t121.5 37q41 0 77.5 -13t63.5 -37
q7 -7 1 -13l-4 -4q-7 -7 -13 0q-47 45 -125 45q-69 0 -106 -30t-37 -87q0 -23 7 -40t23.5 -29t43 -20t66.5 -13q30 -4 59.5 -10t52.5 -20t37.5 -39t14.5 -66zM123 572q-4 -5 -10 -5h-6q-12 0 -5 10l88 127q4 6 11 6h7q6 0 11 -6l88 -127q7 -10 -5 -10h-6q-5 0 -10 5l-81 115
z" />
    <glyph glyph-name="Scedilla" unicode="&#x15e;" horiz-adv-x="501" 
d="M42 93q-5 7 2 13l4 3q8 6 14 -3q64 -96 204 -96q40 0 73.5 11.5t57 32t36.5 49.5t13 65q0 32 -9.5 56.5t-31 42.5t-57.5 30.5t-90 21.5q-58 9 -97.5 23.5t-63.5 36t-34.5 50.5t-10.5 68q0 40 14.5 73t41 56.5t64 36.5t83.5 13q134 0 194 -92q5 -9 -2 -13l-5 -3
q-8 -5 -13 3q-50 83 -174 83q-41 0 -74 -11.5t-56.5 -32t-36.5 -49.5t-13 -65q0 -33 9.5 -58t32 -43.5t58.5 -31t90 -21.5q57 -9 96 -23.5t63 -35.5t34.5 -49.5t10.5 -66.5q0 -39 -14 -72t-40 -56.5t-62.5 -36.5t-81.5 -14l-10 -46q35 0 54 -13.5t19 -39.5q0 -29 -20.5 -45
t-57.5 -16q-42 0 -71 20q-8 5 -2 13l2 3q5 8 13 2q12 -8 27 -12.5t31 -4.5q27 0 41 11t14 29q0 35 -61 35h-6q-10 0 -8 10l12 54q-69 3 -121.5 29t-84.5 76z" />
    <glyph glyph-name="scedilla" unicode="&#x15f;" horiz-adv-x="410" 
d="M41 55q-6 7 0 13l4 4q6 6 13 0q53 -62 157 -62q66 0 101.5 30.5t35.5 86.5q0 25 -7.5 44t-25 32.5t-46 22.5t-70.5 14q-44 6 -74 15.5t-48 24.5t-25.5 35.5t-7.5 48.5q0 64 44.5 101t121.5 37q41 0 77.5 -13t63.5 -37q7 -7 1 -13l-4 -4q-7 -7 -13 0q-47 45 -125 45
q-69 0 -106 -30t-37 -87q0 -23 7 -40t23.5 -29t43 -20t66.5 -13q30 -4 59.5 -10t52.5 -20t37.5 -39t14.5 -66q0 -63 -40.5 -99.5t-111.5 -38.5l-10 -46q35 0 54 -13.5t19 -39.5q0 -29 -20.5 -45t-57.5 -16q-42 0 -71 20q-8 5 -2 13l2 3q5 8 13 2q12 -8 27 -12.5t31 -4.5
q27 0 41 11t14 29q0 35 -61 35h-6q-10 0 -8 10l12 54q-106 5 -159 67z" />
    <glyph glyph-name="Scaron" unicode="&#x160;" horiz-adv-x="501" 
d="M255 676q134 0 194 -92q5 -9 -2 -13l-5 -3q-8 -5 -13 3q-50 83 -174 83q-41 0 -74 -11.5t-56.5 -32t-36.5 -49.5t-13 -65q0 -33 9.5 -58t32 -43.5t58.5 -31t90 -21.5q57 -9 96 -23.5t63 -35.5t34.5 -49.5t10.5 -66.5q0 -40 -14.5 -73t-41 -56.5t-64 -36.5t-83.5 -13
q-77 0 -133.5 26.5t-90.5 78.5q-5 7 2 13l4 3q8 6 14 -3q64 -96 204 -96q40 0 73.5 11.5t57 32t36.5 49.5t13 65q0 32 -9.5 56.5t-31 42.5t-57.5 30.5t-90 21.5q-58 9 -97.5 23.5t-63.5 36t-34.5 50.5t-10.5 68q0 40 14.5 73t41 56.5t64 36.5t83.5 13zM251 735q-7 0 -11 6
l-88 127q-7 10 5 10h6q6 0 10 -5l82 -115l81 115q5 5 10 5h6q12 0 5 -10l-88 -127q-5 -6 -11 -6h-7z" />
    <glyph glyph-name="scaron" unicode="&#x161;" horiz-adv-x="410" 
d="M375 126q0 -64 -43 -101t-117 -37q-116 0 -174 67q-6 7 0 13l4 4q6 6 13 0q53 -62 157 -62q66 0 101.5 30.5t35.5 86.5q0 25 -7.5 44t-25 32.5t-46 22.5t-70.5 14q-44 6 -74 15.5t-48 24.5t-25.5 35.5t-7.5 48.5q0 64 44.5 101t121.5 37q41 0 77.5 -13t63.5 -37
q7 -7 1 -13l-4 -4q-7 -7 -13 0q-47 45 -125 45q-69 0 -106 -30t-37 -87q0 -23 7 -40t23.5 -29t43 -20t66.5 -13q30 -4 59.5 -10t52.5 -20t37.5 -39t14.5 -66zM201 567q-7 0 -11 6l-88 127q-7 10 5 10h6q6 0 10 -5l82 -115l81 115q5 5 10 5h6q12 0 5 -10l-88 -127
q-5 -6 -11 -6h-7z" />
    <glyph glyph-name="Tcommaaccent" unicode="&#x162;" horiz-adv-x="470" 
d="M441 664q9 0 9 -9v-4q0 -9 -9 -9h-194v-630v-3t-1 -6l-12 -61q35 0 54.5 -13.5t19.5 -39.5q0 -29 -20.5 -45t-57.5 -16q-42 0 -71 20q-8 5 -2 13l2 3q5 8 13 2q12 -8 27 -12.5t31 -4.5q27 0 41 11t14 29q0 35 -61 35h-6q-10 0 -8 10l14 70q-1 1 -1 5v633h-194q-9 0 -9 9
v4q0 9 9 9h412z" />
    <glyph glyph-name="tcommaaccent" unicode="&#x163;" horiz-adv-x="346" 
d="M326 31q4 -7 -2 -12q-41 -31 -94 -31h-9.5t-9.5 1l-11 -47q35 0 54 -13.5t19 -39.5q0 -29 -20.5 -45t-57.5 -16q-42 0 -71 20q-8 5 -2 13l2 3q5 8 13 2q12 -8 27 -12.5t31 -4.5q27 0 41 11t14 29q0 35 -61 35h-6q-10 0 -8 10l13 59q-85 22 -85 129v346h-74q-9 0 -9 9v4
q0 9 9 9h74v128q0 9 9 9h6q9 0 9 -9v-128h175q9 0 9 -9v-4q0 -9 -9 -9h-175v-340q0 -118 103 -118q21 0 40.5 6.5t39.5 21.5q8 6 13 -2z" />
    <glyph glyph-name="Tcaron" unicode="&#x164;" horiz-adv-x="470" 
d="M247 9q0 -9 -9 -9h-6q-9 0 -9 9v633h-194q-9 0 -9 9v4q0 9 9 9h412q9 0 9 -9v-4q0 -9 -9 -9h-194v-633zM231 735q-7 0 -11 6l-88 127q-7 10 5 10h6q6 0 10 -5l82 -115l81 115q5 5 10 5h6q12 0 5 -10l-88 -127q-5 -6 -11 -6h-7z" />
    <glyph glyph-name="tcaron" unicode="&#x165;" horiz-adv-x="346" 
d="M326 31q4 -7 -2 -12q-41 -31 -94 -31q-62 0 -94.5 34.5t-32.5 99.5v346h-74q-9 0 -9 9v4q0 9 9 9h74v128q0 9 9 9h6q9 0 9 -9v-128h175q9 0 9 -9v-4q0 -9 -9 -9h-175v-340q0 -118 103 -118q21 0 40.5 6.5t39.5 21.5q8 6 13 -2zM280 722q2 8 9 8h5q10 0 8 -10l-25 -163
q-1 -7 -8 -7h-3q-10 0 -8 9z" />
    <glyph glyph-name="Tbar" unicode="&#x166;" horiz-adv-x="470" 
d="M441 664q9 0 9 -9v-4q0 -9 -9 -9h-194v-259h129q9 0 9 -9v-4q0 -9 -9 -9h-129v-352q0 -9 -9 -9h-6q-9 0 -9 9v352h-130q-9 0 -9 9v4q0 9 9 9h130v259h-194q-9 0 -9 9v4q0 9 9 9h412z" />
    <glyph glyph-name="tbar" unicode="&#x167;" horiz-adv-x="360" 
d="M333 31q4 -7 -2 -12q-41 -31 -94 -31q-62 0 -94.5 34.5t-32.5 99.5v151h-64q-9 0 -9 9v4q0 9 9 9h64v173h-74q-9 0 -9 9v4q0 9 9 9h74v128q0 9 9 9h6q9 0 9 -9v-128h175q9 0 9 -9v-4q0 -9 -9 -9h-175v-173h155q9 0 9 -9v-4q0 -9 -9 -9h-155v-145q0 -118 103 -118
q21 0 40.5 6.5t39.5 21.5q8 6 13 -2z" />
    <glyph glyph-name="Utilde" unicode="&#x168;" horiz-adv-x="588" 
d="M500 664q9 0 9 -9v-436q0 -115 -54.5 -173t-160.5 -58t-160.5 58t-54.5 173v436q0 9 9 9h6q9 0 9 -9v-426q0 -112 46.5 -165.5t144.5 -53.5t144.5 53.5t46.5 165.5v426q0 9 9 9h6zM174 754q-10 0 -8 10q7 35 25.5 54.5t47.5 19.5q15 0 28 -6.5t34 -26.5q17 -16 27.5 -22
t22.5 -6q39 0 49 53q2 8 9 8h5q10 0 8 -10q-7 -35 -25.5 -54.5t-47.5 -19.5q-15 0 -28 6.5t-34 26.5q-17 17 -27.5 22.5t-22.5 5.5q-39 0 -49 -53q-2 -8 -9 -8h-5z" />
    <glyph glyph-name="utilde" unicode="&#x169;" horiz-adv-x="490" 
d="M414 166q0 -178 -169 -178t-169 178v315q0 9 9 9h6q9 0 9 -9v-305q0 -86 35 -126t110 -40t110 40t35 126v305q0 9 9 9h6q9 0 9 -9v-315zM125 586q-10 0 -8 10q7 35 25.5 54.5t47.5 19.5q15 0 28 -6.5t34 -26.5q17 -16 27.5 -22t22.5 -6q39 0 49 53q2 8 9 8h5q10 0 8 -10
q-7 -35 -25.5 -54.5t-47.5 -19.5q-15 0 -28 6.5t-34 26.5q-17 17 -27.5 22.5t-22.5 5.5q-39 0 -49 -53q-2 -8 -9 -8h-5z" />
    <glyph glyph-name="Umacron" unicode="&#x16a;" horiz-adv-x="588" 
d="M500 664q9 0 9 -9v-436q0 -115 -54.5 -173t-160.5 -58t-160.5 58t-54.5 173v436q0 9 9 9h6q9 0 9 -9v-426q0 -112 46.5 -165.5t144.5 -53.5t144.5 53.5t46.5 165.5v426q0 9 9 9h6zM173 796q0 9 9 9h223q9 0 9 -9v-4q0 -9 -9 -9h-223q-9 0 -9 9v4z" />
    <glyph glyph-name="umacron" unicode="&#x16b;" horiz-adv-x="490" 
d="M414 166q0 -178 -169 -178t-169 178v315q0 9 9 9h6q9 0 9 -9v-305q0 -86 35 -126t110 -40t110 40t35 126v305q0 9 9 9h6q9 0 9 -9v-315zM124 628q0 9 9 9h223q9 0 9 -9v-4q0 -9 -9 -9h-223q-9 0 -9 9v4z" />
    <glyph glyph-name="Ubreve" unicode="&#x16c;" horiz-adv-x="588" 
d="M500 664q9 0 9 -9v-436q0 -115 -54.5 -173t-160.5 -58t-160.5 58t-54.5 173v436q0 9 9 9h6q9 0 9 -9v-426q0 -112 46.5 -165.5t144.5 -53.5t144.5 53.5t46.5 165.5v426q0 9 9 9h6zM396 850q9 0 8 -9q-8 -40 -37 -62.5t-73 -22.5t-73 22.5t-37 62.5q-2 9 8 9h5q7 0 8 -7
q7 -30 30.5 -47.5t58.5 -17.5t58.5 17.5t30.5 47.5q1 7 8 7h5z" />
    <glyph glyph-name="ubreve" unicode="&#x16d;" horiz-adv-x="490" 
d="M414 166q0 -178 -169 -178t-169 178v315q0 9 9 9h6q9 0 9 -9v-305q0 -86 35 -126t110 -40t110 40t35 126v305q0 9 9 9h6q9 0 9 -9v-315zM347 682q9 0 8 -9q-8 -40 -37 -62.5t-73 -22.5t-73 22.5t-37 62.5q-2 9 8 9h5q7 0 8 -7q7 -30 30.5 -47.5t58.5 -17.5t58.5 17.5
t30.5 47.5q1 7 8 7h5z" />
    <glyph glyph-name="Uring" unicode="&#x16e;" horiz-adv-x="588" 
d="M500 664q9 0 9 -9v-436q0 -115 -54.5 -173t-160.5 -58t-160.5 58t-54.5 173v436q0 9 9 9h6q9 0 9 -9v-426q0 -112 46.5 -165.5t144.5 -53.5t144.5 53.5t46.5 165.5v426q0 9 9 9h6zM294 755q22 0 36.5 14.5t14.5 37.5t-14.5 37.5t-36.5 14.5t-36.5 -14.5t-14.5 -37.5
t14.5 -37.5t36.5 -14.5zM294 734q-32 0 -52.5 20.5t-20.5 52.5t20.5 52.5t52.5 20.5t52.5 -20.5t20.5 -52.5t-20.5 -52.5t-52.5 -20.5z" />
    <glyph glyph-name="uring" unicode="&#x16f;" horiz-adv-x="490" 
d="M414 166q0 -178 -169 -178t-169 178v315q0 9 9 9h6q9 0 9 -9v-305q0 -86 35 -126t110 -40t110 40t35 126v305q0 9 9 9h6q9 0 9 -9v-315zM245 587q22 0 36.5 14.5t14.5 37.5t-14.5 37.5t-36.5 14.5t-36.5 -14.5t-14.5 -37.5t14.5 -37.5t36.5 -14.5zM245 566
q-32 0 -52.5 20.5t-20.5 52.5t20.5 52.5t52.5 20.5t52.5 -20.5t20.5 -52.5t-20.5 -52.5t-52.5 -20.5z" />
    <glyph glyph-name="Uhungarumlaut" unicode="&#x170;" horiz-adv-x="588" 
d="M500 664q9 0 9 -9v-436q0 -115 -54.5 -173t-160.5 -58t-160.5 58t-54.5 173v436q0 9 9 9h6q9 0 9 -9v-426q0 -112 46.5 -165.5t144.5 -53.5t144.5 53.5t46.5 165.5v426q0 9 9 9h6zM293 872q4 6 11 6h9q13 0 6 -11l-82 -127q-3 -5 -9 -5h-7q-10 0 -5 10zM423 872q4 6 11 6
h9q13 0 6 -11l-82 -127q-3 -5 -9 -5h-7q-10 0 -5 10z" />
    <glyph glyph-name="uhungarumlaut" unicode="&#x171;" horiz-adv-x="490" 
d="M414 166q0 -178 -169 -178t-169 178v315q0 9 9 9h6q9 0 9 -9v-305q0 -86 35 -126t110 -40t110 40t35 126v305q0 9 9 9h6q9 0 9 -9v-315zM244 704q4 6 11 6h9q13 0 6 -11l-82 -127q-3 -5 -9 -5h-7q-10 0 -5 10zM374 704q4 6 11 6h9q13 0 6 -11l-82 -127q-3 -5 -9 -5h-7
q-10 0 -5 10z" />
    <glyph glyph-name="Uogonek" unicode="&#x172;" horiz-adv-x="588" 
d="M500 664q9 0 9 -9v-436q0 -81 -26.5 -133t-80.5 -78q-47 -23 -65.5 -52t-18.5 -57q0 -21 14.5 -35.5t36.5 -14.5q17 0 29.5 6t23.5 17q6 6 13 0l3 -3q6 -6 0 -12q-13 -13 -29.5 -21t-39.5 -8q-32 0 -53 19t-21 51q0 23 10.5 46.5t35.5 45.5v1q-23 -3 -47 -3
q-106 0 -160.5 58t-54.5 173v436q0 9 9 9h6q9 0 9 -9v-426q0 -112 46.5 -165.5t144.5 -53.5t144.5 53.5t46.5 165.5v426q0 9 9 9h6z" />
    <glyph glyph-name="uogonek" unicode="&#x173;" horiz-adv-x="490" 
d="M338 8q-47 -26 -64.5 -53.5t-17.5 -55.5q0 -21 14.5 -35.5t36.5 -14.5q17 0 29.5 6t23.5 17q6 6 13 0l3 -3q6 -6 0 -12q-13 -13 -29.5 -21t-39.5 -8q-32 0 -53 19t-21 51q0 23 10.5 46t34.5 45v1q-8 -1 -16.5 -1.5t-16.5 -0.5q-169 0 -169 178v315q0 9 9 9h6q9 0 9 -9
v-305q0 -86 35 -126t110 -40t110 40t35 126v305q0 9 9 9h6q9 0 9 -9v-315q0 -59 -19.5 -98.5t-56.5 -59.5z" />
    <glyph glyph-name="Wcircumflex" unicode="&#x174;" horiz-adv-x="845" 
d="M608 0q-8 0 -11 9l-174 611h-1l-174 -611q-3 -9 -11 -9h-7q-8 0 -11 9l-185 644q-4 11 8 11h7q8 0 10 -8l175 -613h1l174 613q3 8 11 8h6q8 0 11 -8l175 -613h1l174 613q3 8 10 8h7q11 0 7 -11l-185 -644q-3 -9 -11 -9h-7zM341 740q-4 -5 -10 -5h-6q-12 0 -5 10l88 127
q4 6 11 6h7q6 0 11 -6l88 -127q7 -10 -5 -10h-6q-5 0 -10 5l-81 115z" />
    <glyph glyph-name="wcircumflex" unicode="&#x175;" horiz-adv-x="670" 
d="M480 0q-8 0 -11 9l-133 437h-1l-134 -437q-3 -9 -12 -9h-7q-9 0 -12 9l-144 471q-3 10 8 10h7q9 0 10 -7l135 -440h1l134 440q1 7 10 7h8q7 0 10 -7l136 -440h1l134 440q1 7 10 7h6q11 0 8 -10l-145 -471q-3 -9 -11 -9h-8zM253 572q-4 -5 -10 -5h-6q-12 0 -5 10l88 127
q4 6 11 6h7q6 0 11 -6l88 -127q7 -10 -5 -10h-6q-5 0 -10 5l-81 115z" />
    <glyph glyph-name="Ycircumflex" unicode="&#x176;" horiz-adv-x="500" 
d="M247 0q-9 0 -9 9v293l-224 351q-7 11 6 11h8q7 0 11 -6l212 -333l211 333q4 6 11 6h7q13 0 6 -11l-224 -351v-293q0 -9 -9 -9h-6zM168 740q-4 -5 -10 -5h-6q-12 0 -5 10l88 127q4 6 11 6h7q6 0 11 -6l88 -127q7 -10 -5 -10h-6q-5 0 -10 5l-81 115z" />
    <glyph glyph-name="ycircumflex" unicode="&#x177;" horiz-adv-x="502" 
d="M420 -5q0 -78 -46 -122.5t-126 -44.5q-97 0 -159 62q-7 6 0 13l4 4q6 6 13 0q28 -29 62 -43t80 -14q72 0 110 40t38 115v78h-1q-36 -83 -147 -83q-172 0 -172 181v300q0 9 9 9h6q9 0 9 -9v-290q0 -88 36 -128.5t112 -40.5q148 0 148 169v290q0 9 9 9h6q9 0 9 -9v-486z
M166 572q-4 -5 -10 -5h-6q-12 0 -5 10l88 127q4 6 11 6h7q6 0 11 -6l88 -127q7 -10 -5 -10h-6q-5 0 -10 5l-81 115z" />
    <glyph glyph-name="Ydieresis" unicode="&#x178;" horiz-adv-x="500" 
d="M247 0q-9 0 -9 9v293l-224 351q-7 11 6 11h8q7 0 11 -6l212 -333l211 333q4 6 11 6h7q13 0 6 -11l-224 -351v-293q0 -9 -9 -9h-6zM175 771q-11 0 -18 7t-7 18t7 18t18 7t18 -7t7 -18t-7 -18t-18 -7zM325 771q-11 0 -18 7t-7 18t7 18t18 7t18 -7t7 -18t-7 -18t-18 -7z" />
    <glyph glyph-name="Zacute" unicode="&#x179;" horiz-adv-x="510" 
d="M50 0q-9 0 -9 9v9q0 3 0.5 5t2.5 6l392 613h-371q-9 0 -9 9v4q0 9 9 9h390q9 0 9 -9v-9q0 -3 -0.5 -5t-2.5 -6l-394 -613h393q9 0 9 -9v-4q0 -9 -9 -9h-410zM328 872q4 6 11 6h9q5 0 7 -3t-2 -8l-90 -127q-4 -5 -10 -5h-6q-12 0 -5 10z" />
    <glyph glyph-name="zacute" unicode="&#x17a;" horiz-adv-x="414" 
d="M48 0q-9 0 -9 9v9q0 3 0.5 5t2.5 6l300 439h-279q-9 0 -9 9v4q0 9 9 9h298q9 0 9 -9v-9q0 -3 -0.5 -5t-2.5 -6l-301 -439h300q9 0 9 -9v-4q0 -9 -9 -9h-318zM280 704q4 6 11 6h9q5 0 7 -3t-2 -8l-90 -127q-4 -5 -10 -5h-6q-12 0 -5 10z" />
    <glyph glyph-name="Zdotaccent" unicode="&#x17b;" horiz-adv-x="510" 
d="M50 0q-9 0 -9 9v9q0 3 0.5 5t2.5 6l392 613h-371q-9 0 -9 9v4q0 9 9 9h390q9 0 9 -9v-9q0 -3 -0.5 -5t-2.5 -6l-394 -613h393q9 0 9 -9v-4q0 -9 -9 -9h-410zM258 771q-11 0 -18 7t-7 18t7 18t18 7t18 -7t7 -18t-7 -18t-18 -7z" />
    <glyph glyph-name="zdotaccent" unicode="&#x17c;" horiz-adv-x="414" 
d="M48 0q-9 0 -9 9v9q0 3 0.5 5t2.5 6l300 439h-279q-9 0 -9 9v4q0 9 9 9h298q9 0 9 -9v-9q0 -3 -0.5 -5t-2.5 -6l-301 -439h300q9 0 9 -9v-4q0 -9 -9 -9h-318zM210 603q-11 0 -18 7t-7 18t7 18t18 7t18 -7t7 -18t-7 -18t-18 -7z" />
    <glyph glyph-name="Zcaron" unicode="&#x17d;" horiz-adv-x="510" 
d="M50 0q-9 0 -9 9v9q0 3 0.5 5t2.5 6l392 613h-371q-9 0 -9 9v4q0 9 9 9h390q9 0 9 -9v-9q0 -3 -0.5 -5t-2.5 -6l-394 -613h393q9 0 9 -9v-4q0 -9 -9 -9h-410zM254 735q-7 0 -11 6l-88 127q-7 10 5 10h6q6 0 10 -5l82 -115l81 115q5 5 10 5h6q12 0 5 -10l-88 -127
q-5 -6 -11 -6h-7z" />
    <glyph glyph-name="zcaron" unicode="&#x17e;" horiz-adv-x="414" 
d="M48 0q-9 0 -9 9v9q0 3 0.5 5t2.5 6l300 439h-279q-9 0 -9 9v4q0 9 9 9h298q9 0 9 -9v-9q0 -3 -0.5 -5t-2.5 -6l-301 -439h300q9 0 9 -9v-4q0 -9 -9 -9h-318zM206 567q-7 0 -11 6l-88 127q-7 10 5 10h6q6 0 10 -5l82 -115l81 115q5 5 10 5h6q12 0 5 -10l-88 -127
q-5 -6 -11 -6h-7z" />
    <glyph glyph-name="florin" unicode="&#x192;" horiz-adv-x="528" 
d="M385 614q-56 0 -86 -33.5t-40 -105.5l-10 -71h187q9 0 9 -9v-4q0 -9 -9 -9h-190l-63 -444q-2 -8 -9 -8h-6q-11 0 -9 10l63 442h-129q-9 0 -9 9v4q0 9 9 9h132l11 77q11 79 47 117t102 38q29 0 51.5 -6t44.5 -20q7 -5 3 -12l-3 -5q-5 -8 -12 -3q-19 13 -38.5 18.5
t-45.5 5.5z" />
    <glyph glyph-name="AEacute" unicode="&#x1fc;" horiz-adv-x="889" 
d="M787 347q9 0 9 -9v-4q0 -9 -9 -9h-319v-303h363q9 0 9 -9v-4q0 -9 -9 -9h-378q-9 0 -9 9v154h-303l-100 -157q-5 -6 -11 -6h-8q-13 0 -6 11l417 647q4 6 11 6h387q9 0 9 -9v-4q0 -9 -9 -9h-363v-295h319zM443 635l-288 -450h289v450h-1zM523 872q4 6 11 6h9q5 0 7 -3
t-2 -8l-90 -127q-4 -5 -10 -5h-6q-12 0 -5 10z" />
    <glyph glyph-name="aeacute" unicode="&#x1fd;" horiz-adv-x="755" 
d="M537 502q172 0 172 -185v-62q0 -9 -9 -9h-311v-63q0 -91 38.5 -132t122.5 -41q38 0 69.5 15.5t60.5 49.5q6 8 13 1l4 -4q6 -6 1 -13q-29 -37 -66.5 -54t-83.5 -17q-140 0 -171 114h-1q-29 -114 -165 -114q-78 0 -121.5 36.5t-43.5 103.5q0 68 45.5 104t127.5 36h146v39
q0 90 -36 131.5t-113 41.5q-40 0 -73.5 -14t-57.5 -43q-6 -8 -13 -1l-4 4q-6 6 0 13q29 32 67 47.5t81 15.5q131 0 161 -112h1q28 112 159 112zM685 307q0 91 -35.5 132t-112.5 41t-112.5 -41t-35.5 -132v-39h296v39zM221 246q-73 0 -112 -29.5t-39 -88.5q0 -58 36 -88
t105 -30q81 0 117.5 41.5t36.5 131.5v63h-144zM447 704q4 6 11 6h9q5 0 7 -3t-2 -8l-90 -127q-4 -5 -10 -5h-6q-12 0 -5 10z" />
    <glyph glyph-name="Oslashacute" unicode="&#x1fe;" horiz-adv-x="580" 
d="M473 597q42 -60 42 -161v-208q0 -119 -56.5 -179.5t-168.5 -60.5t-168 61l-33 -51q-5 -8 -13 -3l-3 2q-8 5 -3 13l37 57q-42 60 -42 161v208q0 119 56.5 179.5t168.5 60.5t168 -61l33 51q5 8 13 3l3 -2q8 -5 3 -13zM445 594q-50 60 -155 60q-103 0 -152 -56t-49 -172
v-188q0 -92 32 -148h1zM491 426q0 92 -32 148h-1l-323 -504q49 -60 155 -60q103 0 152 56t49 172v188zM360 872q4 6 11 6h9q5 0 7 -3t-2 -8l-90 -127q-4 -5 -10 -5h-6q-12 0 -5 10z" />
    <glyph glyph-name="oslashacute" unicode="&#x1ff;" horiz-adv-x="470" 
d="M378 440q32 -46 32 -123v-144q0 -185 -175 -185q-82 0 -128 44l-23 -35q-5 -7 -13 -2l-3 2q-8 5 -3 13l27 40q-32 46 -32 123v144q0 185 175 185q82 0 128 -44l23 35q5 7 13 2l3 -2q8 -5 3 -13zM84 183q0 -69 22 -110h1l243 365q-38 42 -115 42q-78 0 -114.5 -41.5
t-36.5 -131.5v-124zM386 307q0 69 -22 110h-1l-243 -365q37 -42 115 -42t114.5 41.5t36.5 131.5v124zM305 704q4 6 11 6h9q5 0 7 -3t-2 -8l-90 -127q-4 -5 -10 -5h-6q-12 0 -5 10z" />
    <glyph glyph-name="Scommaaccent" unicode="&#x218;" horiz-adv-x="501" 
d="M255 676q134 0 194 -92q5 -9 -2 -13l-5 -3q-8 -5 -13 3q-50 83 -174 83q-41 0 -74 -11.5t-56.5 -32t-36.5 -49.5t-13 -65q0 -33 9.5 -58t32 -43.5t58.5 -31t90 -21.5q57 -9 96 -23.5t63 -35.5t34.5 -49.5t10.5 -66.5q0 -40 -14.5 -73t-41 -56.5t-64 -36.5t-83.5 -13
q-77 0 -133.5 26.5t-90.5 78.5q-5 7 2 13l4 3q8 6 14 -3q64 -96 204 -96q40 0 73.5 11.5t57 32t36.5 49.5t13 65q0 32 -9.5 56.5t-31 42.5t-57.5 30.5t-90 21.5q-58 9 -97.5 23.5t-63.5 36t-34.5 50.5t-10.5 68q0 40 14.5 73t41 56.5t64 36.5t83.5 13zM261 -55q11 0 18.5 -8
t7.5 -22q0 -46 -36 -60q-5 -2 -7 2l-2 3q-2 4 3 6q17 9 21 31h-5q-11 0 -18.5 6.5t-7.5 17.5t7.5 17.5t18.5 6.5z" />
    <glyph glyph-name="scommaaccent" unicode="&#x219;" horiz-adv-x="410" 
d="M375 126q0 -64 -43 -101t-117 -37q-116 0 -174 67q-6 7 0 13l4 4q6 6 13 0q53 -62 157 -62q66 0 101.5 30.5t35.5 86.5q0 25 -7.5 44t-25 32.5t-46 22.5t-70.5 14q-44 6 -74 15.5t-48 24.5t-25.5 35.5t-7.5 48.5q0 64 44.5 101t121.5 37q41 0 77.5 -13t63.5 -37
q7 -7 1 -13l-4 -4q-7 -7 -13 0q-47 45 -125 45q-69 0 -106 -30t-37 -87q0 -23 7 -40t23.5 -29t43 -20t66.5 -13q30 -4 59.5 -10t52.5 -20t37.5 -39t14.5 -66zM213 -55q11 0 18.5 -8t7.5 -22q0 -46 -36 -60q-5 -2 -7 2l-2 3q-2 4 3 6q17 9 21 31h-5q-11 0 -18.5 6.5
t-7.5 17.5t7.5 17.5t18.5 6.5z" />
    <glyph glyph-name="uni021A" unicode="&#x21a;" horiz-adv-x="470" 
d="M247 9q0 -9 -9 -9h-6q-9 0 -9 9v633h-194q-9 0 -9 9v4q0 9 9 9h412q9 0 9 -9v-4q0 -9 -9 -9h-194v-633zM235 -55q11 0 18.5 -8t7.5 -22q0 -46 -36 -60q-5 -2 -7 2l-2 3q-2 4 3 6q17 9 21 31h-5q-11 0 -18.5 6.5t-7.5 17.5t7.5 17.5t18.5 6.5z" />
    <glyph glyph-name="uni021B" unicode="&#x21b;" horiz-adv-x="346" 
d="M326 31q4 -7 -2 -12q-41 -31 -94 -31q-62 0 -94.5 34.5t-32.5 99.5v346h-74q-9 0 -9 9v4q0 9 9 9h74v128q0 9 9 9h6q9 0 9 -9v-128h175q9 0 9 -9v-4q0 -9 -9 -9h-175v-340q0 -118 103 -118q21 0 40.5 6.5t39.5 21.5q8 6 13 -2zM200 -55q11 0 18.5 -8t7.5 -22
q0 -46 -36 -60q-5 -2 -7 2l-2 3q-2 4 3 6q17 9 21 31h-5q-11 0 -18.5 6.5t-7.5 17.5t7.5 17.5t18.5 6.5z" />
    <glyph glyph-name="uni0237" unicode="&#x237;" horiz-adv-x="188" 
d="M-16 -160q-6 0 -6 9v4q0 9 9 9h3q92 0 92 102v517q0 9 9 9h6q9 0 9 -9v-517q0 -124 -116 -124h-6z" />
    <glyph glyph-name="circumflex" unicode="&#x2c6;" horiz-adv-x="500" 
d="M169 572q-4 -5 -10 -5h-6q-12 0 -5 10l88 127q4 6 11 6h7q6 0 11 -6l88 -127q7 -10 -5 -10h-6q-5 0 -10 5l-81 115z" />
    <glyph glyph-name="caron" unicode="&#x2c7;" horiz-adv-x="500" 
d="M247 567q-7 0 -11 6l-88 127q-7 10 5 10h6q6 0 10 -5l82 -115l81 115q5 5 10 5h6q12 0 5 -10l-88 -127q-5 -6 -11 -6h-7z" />
    <glyph glyph-name="breve" unicode="&#x2d8;" horiz-adv-x="500" 
d="M352 682q9 0 8 -9q-8 -40 -37 -62.5t-73 -22.5t-73 22.5t-37 62.5q-2 9 8 9h5q7 0 8 -7q7 -30 30.5 -47.5t58.5 -17.5t58.5 17.5t30.5 47.5q1 7 8 7h5z" />
    <glyph glyph-name="dotaccent" unicode="&#x2d9;" horiz-adv-x="500" 
d="M250 603q-11 0 -18 7t-7 18t7 18t18 7t18 -7t7 -18t-7 -18t-18 -7z" />
    <glyph glyph-name="ring" unicode="&#x2da;" horiz-adv-x="500" 
d="M250 587q22 0 36.5 14.5t14.5 37.5t-14.5 37.5t-36.5 14.5t-36.5 -14.5t-14.5 -37.5t14.5 -37.5t36.5 -14.5zM250 566q-32 0 -52.5 20.5t-20.5 52.5t20.5 52.5t52.5 20.5t52.5 -20.5t20.5 -52.5t-20.5 -52.5t-52.5 -20.5z" />
    <glyph glyph-name="ogonek" unicode="&#x2db;" horiz-adv-x="500" 
d="M319 -128q6 6 13 0l3 -3q6 -6 0 -12q-13 -13 -29.5 -21t-39.5 -8q-32 0 -53 19t-21 51t21 64t69 59l15 -13q-46 -26 -64 -53.5t-18 -55.5q0 -21 14.5 -35.5t36.5 -14.5q17 0 29.5 6t23.5 17z" />
    <glyph glyph-name="tilde" unicode="&#x2dc;" horiz-adv-x="500" 
d="M130 586q-10 0 -8 10q7 35 25.5 54.5t47.5 19.5q15 0 28 -6.5t34 -26.5q17 -16 27.5 -22t22.5 -6q39 0 49 53q2 8 9 8h5q10 0 8 -10q-7 -35 -25.5 -54.5t-47.5 -19.5q-15 0 -28 6.5t-34 26.5q-17 17 -27.5 22.5t-22.5 5.5q-39 0 -49 -53q-2 -8 -9 -8h-5z" />
    <glyph glyph-name="hungarumlaut" unicode="&#x2dd;" horiz-adv-x="500" 
d="M249 704q4 6 11 6h9q13 0 6 -11l-82 -127q-3 -5 -9 -5h-7q-10 0 -5 10zM379 704q4 6 11 6h9q13 0 6 -11l-82 -127q-3 -5 -9 -5h-7q-10 0 -5 10z" />
    <glyph glyph-name="Delta" unicode="&#x394;" horiz-adv-x="572" 
d="M40 0q-10 0 -7 10l238 646q3 8 11 8h8q8 0 11 -8l238 -646q3 -10 -7 -10h-492zM62 22h447l-222 609h-1z" />
    <glyph glyph-name="Omega" unicode="&#x3a9;" horiz-adv-x="580" 
d="M515 253q0 -83 -30 -140.5t-88 -86.5v-1h109q9 0 9 -9v-7q0 -9 -9 -9h-152q-9 0 -9 9v10q0 7 7 10q139 48 139 232v165q0 116 -49 172t-152 56t-152 -56t-49 -172v-165q0 -184 139 -232q7 -3 7 -10v-10q0 -9 -9 -9h-152q-9 0 -9 9v7q0 9 9 9h109v1q-118 61 -118 227v183
q0 119 56.5 179.5t168.5 60.5t168.5 -60.5t56.5 -179.5v-183z" />
    <glyph glyph-name="mu" unicode="&#x3bc;" horiz-adv-x="502" 
d="M426 169q0 -181 -172 -181q-111 0 -147 83h-1v-222q0 -9 -9 -9h-6q-9 0 -9 9v632q0 9 9 9h6q9 0 9 -9v-302q0 -169 148 -169q76 0 112 40.5t36 128.5v302q0 9 9 9h6q9 0 9 -9v-312z" />
    <glyph glyph-name="pi" unicode="&#x3c0;" horiz-adv-x="524" 
d="M127 468v-459q0 -9 -9 -9h-6q-9 0 -9 9v459h-74q-9 0 -9 9v4q0 9 9 9h466q9 0 9 -9v-4q0 -9 -9 -9h-74v-459q0 -9 -9 -9h-6q-9 0 -9 9v459h-270z" />
    <glyph glyph-name="uni1E02" unicode="&#x1e02;" horiz-adv-x="560" 
d="M372 339q73 -12 107.5 -52.5t34.5 -112.5q0 -90 -52 -132t-164 -42h-197q-9 0 -9 9v646q0 9 9 9h179q112 0 164 -40.5t52 -128.5q0 -64 -30 -102.5t-94 -52.5v-1zM280 349q100 0 146 35t46 111q0 77 -46 112t-146 35h-164v-293h164zM298 22q100 0 146 36.5t46 115.5
q0 80 -46 116.5t-146 36.5h-182v-305h182zM275 771q-11 0 -18 7t-7 18t7 18t18 7t18 -7t7 -18t-7 -18t-18 -7z" />
    <glyph glyph-name="uni1E03" unicode="&#x1e03;" horiz-adv-x="486" 
d="M251 502q175 0 175 -185v-143q0 -92 -44 -139t-131 -47t-131 47t-44 139v517q0 9 9 9h6q9 0 9 -9v-275h1q38 86 150 86zM402 307q0 90 -36.5 131.5t-114.5 41.5q-151 0 -151 -173v-124q0 -90 36.5 -131.5t114.5 -41.5t114.5 41.5t36.5 131.5v124zM88 802q-11 0 -18 7
t-7 18t7 18t18 7t18 -7t7 -18t-7 -18t-18 -7z" />
    <glyph glyph-name="uni1E0A" unicode="&#x1e0a;" horiz-adv-x="589" 
d="M299 664q112 0 168.5 -56.5t56.5 -168.5v-214q0 -112 -56.5 -168.5t-168.5 -56.5h-198q-9 0 -9 9v646q0 9 9 9h198zM500 428q0 109 -49 161.5t-152 52.5h-183v-620h183q103 0 152 52.5t49 161.5v192zM281 771q-11 0 -18 7t-7 18t7 18t18 7t18 -7t7 -18t-7 -18t-18 -7z
" />
    <glyph glyph-name="uni1E0B" unicode="&#x1e0b;" horiz-adv-x="486" 
d="M410 174q0 -92 -44 -139t-131 -47t-131 47t-44 139v143q0 185 175 185q112 0 150 -86h1v275q0 9 9 9h6q9 0 9 -9v-517zM386 307q0 173 -151 173q-78 0 -114.5 -41.5t-36.5 -131.5v-124q0 -90 36.5 -131.5t114.5 -41.5t114.5 41.5t36.5 131.5v124zM398 802q-11 0 -18 7
t-7 18t7 18t18 7t18 -7t7 -18t-7 -18t-18 -7z" />
    <glyph glyph-name="uni1E1E" unicode="&#x1e1e;" horiz-adv-x="498" 
d="M425 345q9 0 9 -9v-4q0 -9 -9 -9h-309v-314q0 -9 -9 -9h-6q-9 0 -9 9v646q0 9 9 9h368q9 0 9 -9v-4q0 -9 -9 -9h-353v-297h309zM271 771q-11 0 -18 7t-7 18t7 18t18 7t18 -7t7 -18t-7 -18t-18 -7z" />
    <glyph glyph-name="uni1E1F" unicode="&#x1e1f;" horiz-adv-x="310" 
d="M241 690q-114 0 -114 -139v-61h175q9 0 9 -9v-4q0 -9 -9 -9h-175v-459q0 -9 -9 -9h-6q-9 0 -9 9v459h-74q-9 0 -9 9v4q0 9 9 9h74v67q0 75 35.5 115t102.5 40q29 0 51.5 -6t44.5 -20q7 -4 2 -13l-2 -4q-5 -8 -12 -3q-19 13 -38.5 18.5t-45.5 5.5zM200 802q-11 0 -18 7
t-7 18t7 18t18 7t18 -7t7 -18t-7 -18t-18 -7z" />
    <glyph glyph-name="uni1E40" unicode="&#x1e40;" horiz-adv-x="803" 
d="M711 9q0 -9 -9 -9h-6q-9 0 -9 9v616h-1l-272 -618q-3 -7 -10 -7h-6q-7 0 -10 7l-271 615h-1v-613q0 -9 -9 -9h-6q-9 0 -9 9v646q0 9 9 9h17q7 0 10 -7l274 -624l273 624q3 7 10 7h17q9 0 9 -9v-646zM401 771q-11 0 -18 7t-7 18t7 18t18 7t18 -7t7 -18t-7 -18t-18 -7z" />
    <glyph glyph-name="uni1E41" unicode="&#x1e41;" horiz-adv-x="766" 
d="M529 502q161 0 161 -179v-314q0 -9 -9 -9h-6q-9 0 -9 9v304q0 87 -33 127t-104 40q-69 0 -101.5 -40t-32.5 -127v-304q0 -9 -9 -9h-6q-9 0 -9 9v304q0 87 -33 127t-104 40q-69 0 -101.5 -40t-32.5 -127v-304q0 -9 -9 -9h-6q-9 0 -9 9v314q0 179 158 179q61 0 97.5 -24
t51.5 -76h1q14 52 49.5 76t95.5 24zM383 603q-11 0 -18 7t-7 18t7 18t18 7t18 -7t7 -18t-7 -18t-18 -7z" />
    <glyph glyph-name="uni1E56" unicode="&#x1e56;" horiz-adv-x="534" 
d="M284 664q115 0 168.5 -45.5t53.5 -142.5t-53.5 -142.5t-168.5 -45.5h-168v-279q0 -9 -9 -9h-6q-9 0 -9 9v646q0 9 9 9h183zM284 310q103 0 150.5 40t47.5 126t-47.5 126t-150.5 40h-168v-332h168zM279 771q-11 0 -18 7t-7 18t7 18t18 7t18 -7t7 -18t-7 -18t-18 -7z" />
    <glyph glyph-name="uni1E57" unicode="&#x1e57;" horiz-adv-x="486" 
d="M251 502q87 0 131 -47t44 -139v-143q0 -185 -175 -185q-112 0 -150 86h-1v-225q0 -9 -9 -9h-6q-9 0 -9 9v467q0 92 44 139t131 47zM402 307q0 90 -36.5 131.5t-114.5 41.5t-114.5 -41.5t-36.5 -131.5v-124q0 -173 151 -173q78 0 114.5 41.5t36.5 131.5v124zM251 603
q-11 0 -18 7t-7 18t7 18t18 7t18 -7t7 -18t-7 -18t-18 -7z" />
    <glyph glyph-name="uni1E60" unicode="&#x1e60;" horiz-adv-x="501" 
d="M255 676q134 0 194 -92q5 -9 -2 -13l-5 -3q-8 -5 -13 3q-50 83 -174 83q-41 0 -74 -11.5t-56.5 -32t-36.5 -49.5t-13 -65q0 -33 9.5 -58t32 -43.5t58.5 -31t90 -21.5q57 -9 96 -23.5t63 -35.5t34.5 -49.5t10.5 -66.5q0 -40 -14.5 -73t-41 -56.5t-64 -36.5t-83.5 -13
q-77 0 -133.5 26.5t-90.5 78.5q-5 7 2 13l4 3q8 6 14 -3q64 -96 204 -96q40 0 73.5 11.5t57 32t36.5 49.5t13 65q0 32 -9.5 56.5t-31 42.5t-57.5 30.5t-90 21.5q-58 9 -97.5 23.5t-63.5 36t-34.5 50.5t-10.5 68q0 40 14.5 73t41 56.5t64 36.5t83.5 13zM255 771q-11 0 -18 7
t-7 18t7 18t18 7t18 -7t7 -18t-7 -18t-18 -7z" />
    <glyph glyph-name="uni1E61" unicode="&#x1e61;" horiz-adv-x="410" 
d="M375 126q0 -64 -43 -101t-117 -37q-116 0 -174 67q-6 7 0 13l4 4q6 6 13 0q53 -62 157 -62q66 0 101.5 30.5t35.5 86.5q0 25 -7.5 44t-25 32.5t-46 22.5t-70.5 14q-44 6 -74 15.5t-48 24.5t-25.5 35.5t-7.5 48.5q0 64 44.5 101t121.5 37q41 0 77.5 -13t63.5 -37
q7 -7 1 -13l-4 -4q-7 -7 -13 0q-47 45 -125 45q-69 0 -106 -30t-37 -87q0 -23 7 -40t23.5 -29t43 -20t66.5 -13q30 -4 59.5 -10t52.5 -20t37.5 -39t14.5 -66zM205 603q-11 0 -18 7t-7 18t7 18t18 7t18 -7t7 -18t-7 -18t-18 -7z" />
    <glyph glyph-name="uni1E6A" unicode="&#x1e6a;" horiz-adv-x="470" 
d="M247 9q0 -9 -9 -9h-6q-9 0 -9 9v633h-194q-9 0 -9 9v4q0 9 9 9h412q9 0 9 -9v-4q0 -9 -9 -9h-194v-633zM235 771q-11 0 -18 7t-7 18t7 18t18 7t18 -7t7 -18t-7 -18t-18 -7z" />
    <glyph glyph-name="uni1E6B" unicode="&#x1e6b;" horiz-adv-x="346" 
d="M326 31q4 -7 -2 -12q-41 -31 -94 -31q-62 0 -94.5 34.5t-32.5 99.5v346h-74q-9 0 -9 9v4q0 9 9 9h74v128q0 9 9 9h6q9 0 9 -9v-128h175q9 0 9 -9v-4q0 -9 -9 -9h-175v-340q0 -118 103 -118q21 0 40.5 6.5t39.5 21.5q8 6 13 -2zM115 734q-11 0 -18 7t-7 18t7 18t18 7
t18 -7t7 -18t-7 -18t-18 -7z" />
    <glyph glyph-name="Wgrave" unicode="&#x1e80;" horiz-adv-x="845" 
d="M608 0q-8 0 -11 9l-174 611h-1l-174 -611q-3 -9 -11 -9h-7q-8 0 -11 9l-185 644q-4 11 8 11h7q8 0 10 -8l175 -613h1l174 613q3 8 11 8h6q8 0 11 -8l175 -613h1l174 613q3 8 10 8h7q11 0 7 -11l-185 -644q-3 -9 -11 -9h-7zM342 878q6 0 11 -6l86 -127q7 -10 -5 -10h-6
q-6 0 -10 5l-90 127q-4 5 -2 8t7 3h9z" />
    <glyph glyph-name="wgrave" unicode="&#x1e81;" horiz-adv-x="670" 
d="M480 0q-8 0 -11 9l-133 437h-1l-134 -437q-3 -9 -12 -9h-7q-9 0 -12 9l-144 471q-3 10 8 10h7q9 0 10 -7l135 -440h1l134 440q1 7 10 7h8q7 0 10 -7l136 -440h1l134 440q1 7 10 7h6q11 0 8 -10l-145 -471q-3 -9 -11 -9h-8zM254 710q6 0 11 -6l86 -127q7 -10 -5 -10h-6
q-6 0 -10 5l-90 127q-4 5 -2 8t7 3h9z" />
    <glyph glyph-name="Wacute" unicode="&#x1e82;" horiz-adv-x="845" 
d="M608 0q-8 0 -11 9l-174 611h-1l-174 -611q-3 -9 -11 -9h-7q-8 0 -11 9l-185 644q-4 11 8 11h7q8 0 10 -8l175 -613h1l174 613q3 8 11 8h6q8 0 11 -8l175 -613h1l174 613q3 8 10 8h7q11 0 7 -11l-185 -644q-3 -9 -11 -9h-7zM493 872q4 6 11 6h9q5 0 7 -3t-2 -8l-90 -127
q-4 -5 -10 -5h-6q-12 0 -5 10z" />
    <glyph glyph-name="wacute" unicode="&#x1e83;" horiz-adv-x="670" 
d="M480 0q-8 0 -11 9l-133 437h-1l-134 -437q-3 -9 -12 -9h-7q-9 0 -12 9l-144 471q-3 10 8 10h7q9 0 10 -7l135 -440h1l134 440q1 7 10 7h8q7 0 10 -7l136 -440h1l134 440q1 7 10 7h6q11 0 8 -10l-145 -471q-3 -9 -11 -9h-8zM405 704q4 6 11 6h9q5 0 7 -3t-2 -8l-90 -127
q-4 -5 -10 -5h-6q-12 0 -5 10z" />
    <glyph glyph-name="Wdieresis" unicode="&#x1e84;" horiz-adv-x="845" 
d="M608 0q-8 0 -11 9l-174 611h-1l-174 -611q-3 -9 -11 -9h-7q-8 0 -11 9l-185 644q-4 11 8 11h7q8 0 10 -8l175 -613h1l174 613q3 8 11 8h6q8 0 11 -8l175 -613h1l174 613q3 8 10 8h7q11 0 7 -11l-185 -644q-3 -9 -11 -9h-7zM348 771q-11 0 -18 7t-7 18t7 18t18 7t18 -7
t7 -18t-7 -18t-18 -7zM498 771q-11 0 -18 7t-7 18t7 18t18 7t18 -7t7 -18t-7 -18t-18 -7z" />
    <glyph glyph-name="wdieresis" unicode="&#x1e85;" horiz-adv-x="670" 
d="M480 0q-8 0 -11 9l-133 437h-1l-134 -437q-3 -9 -12 -9h-7q-9 0 -12 9l-144 471q-3 10 8 10h7q9 0 10 -7l135 -440h1l134 440q1 7 10 7h8q7 0 10 -7l136 -440h1l134 440q1 7 10 7h6q11 0 8 -10l-145 -471q-3 -9 -11 -9h-8zM260 603q-11 0 -18 7t-7 18t7 18t18 7t18 -7
t7 -18t-7 -18t-18 -7zM410 603q-11 0 -18 7t-7 18t7 18t18 7t18 -7t7 -18t-7 -18t-18 -7z" />
    <glyph glyph-name="Ygrave" unicode="&#x1ef2;" horiz-adv-x="500" 
d="M247 0q-9 0 -9 9v293l-224 351q-7 11 6 11h8q7 0 11 -6l212 -333l211 333q4 6 11 6h7q13 0 6 -11l-224 -351v-293q0 -9 -9 -9h-6zM169 878q6 0 11 -6l86 -127q7 -10 -5 -10h-6q-6 0 -10 5l-90 127q-4 5 -2 8t7 3h9z" />
    <glyph glyph-name="ygrave" unicode="&#x1ef3;" horiz-adv-x="502" 
d="M420 -5q0 -78 -46 -122.5t-126 -44.5q-97 0 -159 62q-7 6 0 13l4 4q6 6 13 0q28 -29 62 -43t80 -14q72 0 110 40t38 115v78h-1q-36 -83 -147 -83q-172 0 -172 181v300q0 9 9 9h6q9 0 9 -9v-290q0 -88 36 -128.5t112 -40.5q148 0 148 169v290q0 9 9 9h6q9 0 9 -9v-486z
M167 710q6 0 11 -6l86 -127q7 -10 -5 -10h-6q-6 0 -10 5l-90 127q-4 5 -2 8t7 3h9z" />
    <glyph glyph-name="uni2007" unicode="&#x2007;" horiz-adv-x="528" 
 />
    <glyph glyph-name="figuredash" unicode="&#x2012;" horiz-adv-x="528" 
d="M489 322q9 0 9 -9v-2q0 -9 -9 -9h-450q-9 0 -9 9v2q0 9 9 9h450z" />
    <glyph glyph-name="endash" unicode="&#x2013;" horiz-adv-x="500" 
d="M461 280q9 0 9 -9v-2q0 -9 -9 -9h-422q-9 0 -9 9v2q0 9 9 9h422z" />
    <glyph glyph-name="emdash" unicode="&#x2014;" horiz-adv-x="900" 
d="M861 280q9 0 9 -9v-2q0 -9 -9 -9h-822q-9 0 -9 9v2q0 9 9 9h822z" />
    <glyph glyph-name="quoteleft" unicode="&#x2018;" horiz-adv-x="200" 
d="M100 554q-11 0 -18.5 8t-7.5 22q0 53 43 90q4 4 9 -2q4 -4 0 -8q-26 -23 -30 -62h4q11 0 18.5 -6.5t7.5 -17.5t-7.5 -17.5t-18.5 -6.5z" />
    <glyph glyph-name="quoteright" unicode="&#x2019;" horiz-adv-x="200" 
d="M100 676q11 0 18.5 -8t7.5 -22q0 -53 -43 -90q-4 -4 -9 2q-4 4 0 8q26 23 30 62h-4q-11 0 -18.5 6.5t-7.5 17.5t7.5 17.5t18.5 6.5z" />
    <glyph glyph-name="quotesinglbase" unicode="&#x201a;" horiz-adv-x="200" 
d="M100 40q11 0 18.5 -8t7.5 -22q0 -53 -43 -90q-4 -4 -9 2q-4 4 0 8q26 23 30 62h-4q-11 0 -18.5 6.5t-7.5 17.5t7.5 17.5t18.5 6.5z" />
    <glyph glyph-name="quotedblleft" unicode="&#x201c;" horiz-adv-x="345" 
d="M245 554q-11 0 -18.5 8t-7.5 22q0 53 43 90q4 4 9 -2q4 -4 0 -8q-26 -23 -30 -62h4q11 0 18.5 -6.5t7.5 -17.5t-7.5 -17.5t-18.5 -6.5zM100 554q-11 0 -18.5 8t-7.5 22q0 53 43 90q4 4 9 -2q4 -4 0 -8q-26 -23 -30 -62h4q11 0 18.5 -6.5t7.5 -17.5t-7.5 -17.5t-18.5 -6.5
z" />
    <glyph glyph-name="quotedblright" unicode="&#x201d;" horiz-adv-x="345" 
d="M100 676q11 0 18.5 -8t7.5 -22q0 -53 -43 -90q-4 -4 -9 2q-4 4 0 8q26 23 30 62h-4q-11 0 -18.5 6.5t-7.5 17.5t7.5 17.5t18.5 6.5zM245 676q11 0 18.5 -8t7.5 -22q0 -53 -43 -90q-4 -4 -9 2q-4 4 0 8q26 23 30 62h-4q-11 0 -18.5 6.5t-7.5 17.5t7.5 17.5t18.5 6.5z" />
    <glyph glyph-name="quotedblbase" unicode="&#x201e;" horiz-adv-x="345" 
d="M245 40q11 0 18.5 -8t7.5 -22q0 -53 -43 -90q-4 -4 -9 2q-4 4 0 8q26 23 30 62h-4q-11 0 -18.5 6.5t-7.5 17.5t7.5 17.5t18.5 6.5zM100 40q11 0 18.5 -8t7.5 -22q0 -53 -43 -90q-4 -4 -9 2q-4 4 0 8q26 23 30 62h-4q-11 0 -18.5 6.5t-7.5 17.5t7.5 17.5t18.5 6.5z" />
    <glyph glyph-name="dagger" unicode="&#x2020;" horiz-adv-x="430" 
d="M384 517q0 -9 -9 -9h-148v-409q0 -9 -9 -9h-6q-9 0 -9 9v409h-148q-9 0 -9 9v4q0 9 9 9h148v161q0 9 9 9h6q9 0 9 -9v-161h148q9 0 9 -9v-4z" />
    <glyph glyph-name="daggerdbl" unicode="&#x2021;" horiz-adv-x="430" 
d="M227 282h148q9 0 9 -9v-4q0 -9 -9 -9h-148v-161q0 -9 -9 -9h-6q-9 0 -9 9v161h-148q-9 0 -9 9v4q0 9 9 9h148v226h-148q-9 0 -9 9v4q0 9 9 9h148v161q0 9 9 9h6q9 0 9 -9v-161h148q9 0 9 -9v-4q0 -9 -9 -9h-148v-226z" />
    <glyph glyph-name="bullet" unicode="&#x2022;" horiz-adv-x="500" 
d="M250 186q-44 0 -74 30t-30 74t30 74t74 30t74 -30t30 -74t-30 -74t-74 -30z" />
    <glyph glyph-name="ellipsis" unicode="&#x2026;" horiz-adv-x="900" 
d="M725 -12q-11 0 -18.5 7.5t-7.5 18.5t7.5 18.5t18.5 7.5t18.5 -7.5t7.5 -18.5t-7.5 -18.5t-18.5 -7.5zM450 -12q-11 0 -18.5 7.5t-7.5 18.5t7.5 18.5t18.5 7.5t18.5 -7.5t7.5 -18.5t-7.5 -18.5t-18.5 -7.5zM175 -12q-11 0 -18.5 7.5t-7.5 18.5t7.5 18.5t18.5 7.5
t18.5 -7.5t7.5 -18.5t-7.5 -18.5t-18.5 -7.5z" />
    <glyph glyph-name="perthousand" unicode="&#x2030;" horiz-adv-x="895" 
d="M634 185q0 121 113 121q112 0 112 -121v-75q0 -122 -112 -122q-113 0 -113 122v75zM658 114q0 -55 20.5 -79.5t68.5 -24.5t68.5 24.5t20.5 79.5v67q0 54 -20.5 78.5t-68.5 24.5t-68.5 -24.5t-20.5 -78.5v-67zM120 6q-5 -6 -11 -6h-7q-13 0 -6 11l398 607q4 6 11 6h7
q13 0 6 -11zM36 515q0 121 113 121q112 0 112 -121v-75q0 -122 -112 -122q-113 0 -113 122v75zM60 444q0 -55 20.5 -79.5t68.5 -24.5t68.5 24.5t20.5 79.5v67q0 54 -20.5 78.5t-68.5 24.5t-68.5 -24.5t-20.5 -78.5v-67zM353 185q0 121 113 121q112 0 112 -121v-75
q0 -122 -112 -122q-113 0 -113 122v75zM377 114q0 -55 20.5 -79.5t68.5 -24.5t68.5 24.5t20.5 79.5v67q0 54 -20.5 78.5t-68.5 24.5t-68.5 -24.5t-20.5 -78.5v-67z" />
    <glyph glyph-name="guilsinglleft" unicode="&#x2039;" horiz-adv-x="217" 
d="M170 69q6 -9 -7 -9h-5q-6 0 -10 5l-113 174q-5 6 0 12l113 174q4 5 10 5h5q13 0 7 -9l-114 -176z" />
    <glyph glyph-name="guilsinglright" unicode="&#x203a;" horiz-adv-x="217" 
d="M47 421q-6 9 7 9h5q6 0 10 -5l113 -174q4 -6 0 -12l-113 -174q-4 -5 -10 -5h-5q-13 0 -7 9l114 176z" />
    <glyph glyph-name="fraction" unicode="&#x2044;" horiz-adv-x="128" 
d="M-123 6q-5 -6 -11 -6h-7q-13 0 -6 11l398 607q4 6 11 6h7q13 0 6 -11z" />
    <glyph glyph-name="uni2070" unicode="&#x2070;" 
d="M41 623q0 133 124 133t124 -133v-133q0 -134 -124 -134t-124 134v133zM65 495q0 -61 24 -89t76 -28t76 28t24 89v123q0 60 -24 88t-76 28t-76 -28t-24 -88v-123z" />
    <glyph glyph-name="uni2074" unicode="&#x2074;" 
d="M301 480q9 0 9 -9v-4q0 -9 -9 -9h-38v-86q0 -9 -9 -9h-6q-9 0 -9 9v86h-196q-9 0 -9 9v9q0 6 4 11l196 256q4 6 11 6h9q9 0 9 -9v-260h38zM238 712l-177 -232h178v232h-1z" />
    <glyph glyph-name="uni2075" unicode="&#x2075;" 
d="M173 607q57 0 90.5 -34t33.5 -91q0 -59 -34.5 -92.5t-95.5 -33.5q-79 0 -122 55q-5 7 0 12l6 5q6 5 11 -2q36 -48 104 -48q51 0 79 27.5t28 76.5q0 48 -27.5 75.5t-75.5 27.5q-62 0 -96 -37q-5 -5 -10 -4l-3 1q-7 3 -7 8l12 187q1 9 10 9h191q9 0 9 -9v-4q0 -9 -9 -9
h-180l-10 -151h1q40 31 95 31z" />
    <glyph glyph-name="uni2076" unicode="&#x2076;" 
d="M176 607q54 0 87 -34t33 -91t-34 -91.5t-90 -34.5t-90 34.5t-34 91.5v147q0 60 33 93.5t92 33.5q68 0 105 -45q5 -7 -1 -13l-4 -4q-6 -6 -13 2q-30 38 -86 38q-102 0 -102 -111v-69h1q14 25 41 39t62 14zM172 378q46 0 73 28t27 76t-27 75.5t-73 27.5q-45 0 -72.5 -28
t-27.5 -75q0 -48 27 -76t73 -28z" />
    <glyph glyph-name="uni2077" unicode="&#x2077;" 
d="M307 731q0 -5 -3 -11l-178 -350q-3 -7 -10 -7h-8q-12 0 -7 11l181 353h-214v-60q0 -9 -9 -9h-5q-9 0 -9 9v73q0 9 9 9h244q9 0 9 -9v-9z" />
    <glyph glyph-name="uni2078" unicode="&#x2078;" 
d="M222 567q76 -25 76 -99q0 -54 -35 -83t-98 -29t-98 29t-35 83q0 75 76 98v1q-65 22 -65 87q0 48 32 75t90 27t90 -27t32 -75q0 -32 -16.5 -54t-48.5 -32v-1zM66 654q0 -37 26 -57t73 -20t73 20t26 57q0 38 -25.5 59t-73.5 21t-73.5 -21t-25.5 -59zM165 378
q52 0 80.5 23.5t28.5 66.5q0 42 -28.5 64.5t-80.5 22.5q-51 0 -80 -22.5t-29 -64.5q0 -43 28.5 -66.5t80.5 -23.5z" />
    <glyph glyph-name="uni2079" unicode="&#x2079;" 
d="M158 756q56 0 90 -34.5t34 -91.5v-147q0 -60 -33 -93.5t-92 -33.5q-68 0 -105 45q-5 7 1 13l4 4q7 7 13 -1q31 -39 86 -39q102 0 102 111v69h-1q-14 -25 -41 -39t-62 -14q-54 0 -87 34t-33 91t34 91.5t90 34.5zM158 527q45 0 72.5 28t27.5 75q0 48 -27 76t-73 28t-73 -28
t-27 -76t27 -75.5t73 -27.5z" />
    <glyph glyph-name="uni2080" unicode="&#x2080;" 
d="M41 100q0 133 124 133t124 -133v-133q0 -134 -124 -134t-124 134v133zM65 -28q0 -61 24 -89t76 -28t76 28t24 89v123q0 60 -24 88t-76 28t-76 -28t-24 -88v-123z" />
    <glyph glyph-name="uni2081" unicode="&#x2081;" 
d="M236 -151q0 -9 -9 -9h-6q-9 0 -9 9v343l-100 -75q-8 -6 -13 2l-3 4q-4 7 4 13l113 86q5 4 11 4h3q9 0 9 -9v-368z" />
    <glyph glyph-name="uni2082" unicode="&#x2082;" 
d="M287 -151q0 -9 -9 -9h-220q-9 0 -9 9v5q0 6 5 11l154 157q30 30 42 53.5t12 52.5q0 40 -24.5 61.5t-69.5 21.5q-67 0 -97 -58q-4 -7 -11 -4l-6 3q-8 4 -3 12q17 33 48 51t70 18q55 0 86 -27.5t31 -77.5q0 -33 -12.5 -59.5t-46.5 -60.5l-144 -146h195q9 0 9 -9v-4z" />
    <glyph glyph-name="uni2083" unicode="&#x2083;" 
d="M225 44q37 -11 57 -36t20 -63q0 -54 -34 -83t-94 -29q-82 0 -125 55q-5 7 1 13l3 3q6 6 13 -2q36 -47 107 -47q50 0 77.5 23.5t27.5 66.5q0 42 -28 64.5t-82 22.5h-34q-9 0 -9 9v4q0 9 9 9h31q103 0 103 77q0 38 -25.5 59t-72.5 21q-66 0 -99 -47q-5 -8 -13 -2l-4 3
q-6 5 -1 13q20 27 50.5 41t67.5 14q57 0 89 -27t32 -75q0 -67 -67 -86v-1z" />
    <glyph glyph-name="uni2084" unicode="&#x2084;" 
d="M301 -43q9 0 9 -9v-4q0 -9 -9 -9h-38v-86q0 -9 -9 -9h-6q-9 0 -9 9v86h-196q-9 0 -9 9v9q0 6 4 11l196 256q4 6 11 6h9q9 0 9 -9v-260h38zM238 189l-177 -232h178v232h-1z" />
    <glyph glyph-name="uni2085" unicode="&#x2085;" 
d="M173 84q57 0 90.5 -34t33.5 -91q0 -59 -34.5 -92.5t-95.5 -33.5q-79 0 -122 55q-5 7 0 12l6 5q6 5 11 -2q36 -48 104 -48q51 0 79 27.5t28 76.5q0 48 -27.5 75.5t-75.5 27.5q-62 0 -96 -37q-5 -5 -10 -4l-3 1q-7 3 -7 8l12 187q1 9 10 9h191q9 0 9 -9v-4q0 -9 -9 -9h-180
l-10 -151h1q40 31 95 31z" />
    <glyph glyph-name="uni2086" unicode="&#x2086;" 
d="M176 84q54 0 87 -34t33 -91t-34 -91.5t-90 -34.5t-90 34.5t-34 91.5v147q0 60 33 93.5t92 33.5q68 0 105 -45q5 -7 -1 -13l-4 -4q-6 -6 -13 2q-30 38 -86 38q-102 0 -102 -111v-69h1q14 25 41 39t62 14zM172 -145q46 0 73 28t27 76t-27 75.5t-73 27.5q-45 0 -72.5 -28
t-27.5 -75q0 -48 27 -76t73 -28z" />
    <glyph glyph-name="uni2087" unicode="&#x2087;" 
d="M307 208q0 -5 -3 -11l-178 -350q-3 -7 -10 -7h-8q-12 0 -7 11l181 353h-214v-60q0 -9 -9 -9h-5q-9 0 -9 9v73q0 9 9 9h244q9 0 9 -9v-9z" />
    <glyph glyph-name="uni2088" unicode="&#x2088;" 
d="M222 44q76 -25 76 -99q0 -54 -35 -83t-98 -29t-98 29t-35 83q0 75 76 98v1q-65 22 -65 87q0 48 32 75t90 27t90 -27t32 -75q0 -32 -16.5 -54t-48.5 -32v-1zM66 131q0 -37 26 -57t73 -20t73 20t26 57q0 38 -25.5 59t-73.5 21t-73.5 -21t-25.5 -59zM165 -145
q52 0 80.5 23.5t28.5 66.5q0 42 -28.5 64.5t-80.5 22.5q-51 0 -80 -22.5t-29 -64.5q0 -43 28.5 -66.5t80.5 -23.5z" />
    <glyph glyph-name="uni2089" unicode="&#x2089;" 
d="M158 233q56 0 90 -34.5t34 -91.5v-147q0 -60 -33 -93.5t-92 -33.5q-68 0 -105 45q-5 7 1 13l4 4q7 7 13 -1q31 -39 86 -39q102 0 102 111v69h-1q-14 -25 -41 -39t-62 -14q-54 0 -87 34t-33 91t34 91.5t90 34.5zM158 4q45 0 72.5 28t27.5 75q0 48 -27 76t-73 28t-73 -28
t-27 -76t27 -75.5t73 -27.5z" />
    <glyph glyph-name="Euro" unicode="&#x20ac;" horiz-adv-x="528" 
d="M290 10q119 0 168 99q4 7 12 4l5 -2q8 -3 4 -12q-26 -54 -74.5 -82.5t-114.5 -28.5q-98 0 -149 55t-51 161v29h-44q-9 0 -9 9v4q0 9 9 9h44v124h-44q-9 0 -9 9v4q0 9 9 9h44v19q0 106 51 161t149 55q66 0 114.5 -28.5t74.5 -82.5q5 -8 -4 -12l-5 -2q-8 -3 -12 4
q-49 99 -168 99q-176 0 -176 -204v-9h262q10 0 8 -10l-1 -4q-2 -8 -10 -8h-259v-124h231q10 0 8 -10l-1 -4q-2 -8 -10 -8h-228v-19q0 -204 176 -204z" />
    <glyph glyph-name="uni20B9" unicode="&#x20b9;" horiz-adv-x="528" 
d="M487 458q10 0 8 -10l-1 -4q-2 -8 -10 -8h-44q-3 -86 -59 -126t-173 -40h-100v-1l317 -258q5 -4 4 -7.5t-8 -3.5h-12q-6 0 -11 4l-326 266q-6 6 -4 12l1 3q3 7 9 7h130q106 0 155.5 34.5t52.5 109.5h-344q-10 0 -8 10l1 4q2 8 9 8h342q-3 75 -52.5 109.5t-155.5 34.5h-136
q-10 0 -8 10l1 4q2 8 9 8h413q10 0 8 -10l-1 -4q-2 -8 -10 -8h-145v-1q95 -35 101 -143h47z" />
    <glyph glyph-name="afii61289" unicode="&#x2113;" horiz-adv-x="392" 
d="M336 38q5 -7 -1 -13q-40 -37 -95 -37q-59 0 -91 37t-32 104v42q-14 -11 -28.5 -21t-29.5 -20q-8 -5 -13 3l-3 5q-4 7 4 12q19 11 36 23.5t34 25.5v310q0 62 27.5 94.5t79.5 32.5q48 0 74 -31.5t26 -91.5q0 -81 -48 -165.5t-135 -157.5v-56q0 -124 99 -124q23 0 41.5 7.5
t37.5 25.5q7 7 13 0zM142 220q75 65 116.5 141t41.5 152q0 101 -76 101q-83 0 -83 -110v-284h1z" />
    <glyph glyph-name="uni2117" unicode="&#x2117;" horiz-adv-x="780" 
d="M390 676q73 0 136 -26t109.5 -72.5t72.5 -109.5t26 -136q0 -74 -26 -136.5t-72.5 -109t-109.5 -72.5t-136 -26q-74 0 -136.5 26t-109 72.5t-72.5 109t-26 136.5q0 73 26 136t72.5 109.5t109 72.5t136.5 26zM390 10q68 0 126.5 24.5t101.5 68t67.5 102t24.5 127.5
t-24.5 127.5t-67.5 102t-101.5 68t-126.5 24.5t-126.5 -24.5t-101.5 -68t-67.5 -102t-24.5 -127.5t24.5 -127.5t67.5 -102t101.5 -68t126.5 -24.5zM403 516q65 0 95 -25.5t30 -80.5q0 -56 -30 -81.5t-95 -25.5h-85v-146q0 -9 -9 -9h-6q-9 0 -9 9v350q0 9 9 9h100zM403 324
q53 0 77 20.5t24 65.5t-24 65t-77 20h-85v-171h85z" />
    <glyph glyph-name="trademark" unicode="&#x2122;" horiz-adv-x="753" 
d="M250 664q9 0 9 -9v-4q0 -9 -9 -9h-101v-323q0 -9 -9 -9h-6q-9 0 -9 9v323h-101q-9 0 -9 9v4q0 9 9 9h226zM682 664q9 0 9 -9v-336q0 -9 -9 -9h-6q-9 0 -9 9v315h-1l-144 -317q-3 -7 -10 -7h-2q-7 0 -10 7l-144 315h-1v-313q0 -9 -9 -9h-5q-9 0 -9 9v336q0 9 9 9h17
q7 0 10 -7l143 -315l143 315q3 7 10 7h18z" />
    <glyph glyph-name="uni2126" unicode="&#x2126;" horiz-adv-x="574" 
d="M512 253q0 -83 -30 -140.5t-88 -86.5v-1h109q9 0 9 -9v-7q0 -9 -9 -9h-152q-9 0 -9 9v10q0 7 7 10q139 48 139 232v165q0 116 -49 172t-152 56t-152 -56t-49 -172v-165q0 -184 139 -232q7 -3 7 -10v-10q0 -9 -9 -9h-152q-9 0 -9 9v7q0 9 9 9h109v1q-118 61 -118 227v183
q0 119 56.5 179.5t168.5 60.5t168.5 -60.5t56.5 -179.5v-183z" />
    <glyph glyph-name="estimated" unicode="&#x212e;" horiz-adv-x="820" 
d="M189 111q42 -48 99.5 -75.5t123.5 -27.5q70 0 130 31t103 84h54q-51 -62 -126 -98.5t-163 -36.5q-75 0 -141 27t-115 73.5t-77.5 109.5t-28.5 134q0 72 28.5 134.5t77.5 109t115 73.5t141 27t141 -27t115 -73.5t77.5 -109t28.5 -134.5v-8h-587q-4 0 -4 -4v-189
q0 -6 2.5 -10.5t5.5 -9.5zM635 342q6 0 6 6v189q0 12 -10 22q-43 45 -99.5 71t-119.5 26q-66 0 -123 -27t-100 -74q-3 -5 -5.5 -10.5t-2.5 -11.5v-185q0 -6 4 -6h450z" />
    <glyph glyph-name="onethird" unicode="&#x2153;" horiz-adv-x="788" 
d="M207 6q-5 -6 -11 -6h-7q-13 0 -6 11l398 607q4 6 11 6h7q13 0 6 -11zM683 204q37 -11 57 -36t20 -63q0 -54 -34 -83t-94 -29q-82 0 -125 55q-5 7 1 13l3 3q6 6 13 -2q36 -47 107 -47q50 0 77.5 23.5t27.5 66.5q0 42 -28 64.5t-82 22.5h-34q-9 0 -9 9v4q0 9 9 9h31
q103 0 103 77q0 38 -25.5 59t-72.5 21q-66 0 -99 -47q-5 -8 -13 -2l-4 3q-6 5 -1 13q20 27 50.5 41t67.5 14q57 0 89 -27t32 -75q0 -67 -67 -86v-1zM236 247q0 -9 -9 -9h-6q-9 0 -9 9v343l-100 -75q-8 -6 -13 2l-3 4q-4 7 4 13l113 86q5 4 11 4h3q9 0 9 -9v-368z" />
    <glyph glyph-name="twothirds" unicode="&#x2154;" horiz-adv-x="788" 
d="M237 6q-5 -6 -11 -6h-7q-13 0 -6 11l398 607q4 6 11 6h7q13 0 6 -11zM683 204q37 -11 57 -36t20 -63q0 -54 -34 -83t-94 -29q-82 0 -125 55q-5 7 1 13l3 3q6 6 13 -2q36 -47 107 -47q50 0 77.5 23.5t27.5 66.5q0 42 -28 64.5t-82 22.5h-34q-9 0 -9 9v4q0 9 9 9h31
q103 0 103 77q0 38 -25.5 59t-72.5 21q-66 0 -99 -47q-5 -8 -13 -2l-4 3q-6 5 -1 13q20 27 50.5 41t67.5 14q57 0 89 -27t32 -75q0 -67 -67 -86v-1zM287 247q0 -9 -9 -9h-220q-9 0 -9 9v5q0 6 5 11l154 157q30 30 42 53.5t12 52.5q0 40 -24.5 61.5t-69.5 21.5q-67 0 -97 -58
q-4 -7 -11 -4l-6 3q-8 4 -3 12q17 33 48 51t70 18q55 0 86 -27.5t31 -77.5q0 -33 -12.5 -59.5t-46.5 -60.5l-144 -146h195q9 0 9 -9v-4z" />
    <glyph glyph-name="oneeighth" unicode="&#x215b;" horiz-adv-x="788" 
d="M207 6q-5 -6 -11 -6h-7q-13 0 -6 11l398 607q4 6 11 6h7q13 0 6 -11zM680 204q76 -25 76 -99q0 -54 -35 -83t-98 -29t-98 29t-35 83q0 75 76 98v1q-65 22 -65 87q0 48 32 75t90 27t90 -27t32 -75q0 -32 -16.5 -54t-48.5 -32v-1zM524 291q0 -37 26 -57t73 -20t73 20t26 57
q0 38 -25.5 59t-73.5 21t-73.5 -21t-25.5 -59zM623 15q52 0 80.5 23.5t28.5 66.5q0 42 -28.5 64.5t-80.5 22.5q-51 0 -80 -22.5t-29 -64.5q0 -43 28.5 -66.5t80.5 -23.5zM236 247q0 -9 -9 -9h-6q-9 0 -9 9v343l-100 -75q-8 -6 -13 2l-3 4q-4 7 4 13l113 86q5 4 11 4h3
q9 0 9 -9v-368z" />
    <glyph glyph-name="threeeighths" unicode="&#x215c;" horiz-adv-x="788" 
d="M212 6q-5 -6 -11 -6h-7q-13 0 -6 11l398 607q4 6 11 6h7q13 0 6 -11zM680 204q76 -25 76 -99q0 -54 -35 -83t-98 -29t-98 29t-35 83q0 75 76 98v1q-65 22 -65 87q0 48 32 75t90 27t90 -27t32 -75q0 -32 -16.5 -54t-48.5 -32v-1zM524 291q0 -37 26 -57t73 -20t73 20t26 57
q0 38 -25.5 59t-73.5 21t-73.5 -21t-25.5 -59zM623 15q52 0 80.5 23.5t28.5 66.5q0 42 -28.5 64.5t-80.5 22.5q-51 0 -80 -22.5t-29 -64.5q0 -43 28.5 -66.5t80.5 -23.5zM225 442q37 -11 57 -36t20 -63q0 -54 -34 -83t-94 -29q-82 0 -125 55q-5 7 1 13l3 3q6 6 13 -2
q36 -47 107 -47q50 0 77.5 23.5t27.5 66.5q0 42 -28 64.5t-82 22.5h-34q-9 0 -9 9v4q0 9 9 9h31q103 0 103 77q0 38 -25.5 59t-72.5 21q-66 0 -99 -47q-5 -8 -13 -2l-4 3q-6 5 -1 13q20 27 50.5 41t67.5 14q57 0 89 -27t32 -75q0 -67 -67 -86v-1z" />
    <glyph glyph-name="fiveeighths" unicode="&#x215d;" horiz-adv-x="788" 
d="M212 6q-5 -6 -11 -6h-7q-13 0 -6 11l398 607q4 6 11 6h7q13 0 6 -11zM680 204q76 -25 76 -99q0 -54 -35 -83t-98 -29t-98 29t-35 83q0 75 76 98v1q-65 22 -65 87q0 48 32 75t90 27t90 -27t32 -75q0 -32 -16.5 -54t-48.5 -32v-1zM524 291q0 -37 26 -57t73 -20t73 20t26 57
q0 38 -25.5 59t-73.5 21t-73.5 -21t-25.5 -59zM623 15q52 0 80.5 23.5t28.5 66.5q0 42 -28.5 64.5t-80.5 22.5q-51 0 -80 -22.5t-29 -64.5q0 -43 28.5 -66.5t80.5 -23.5zM173 482q57 0 90.5 -34t33.5 -91q0 -59 -34.5 -92.5t-95.5 -33.5q-79 0 -122 55q-5 7 0 12l6 5
q6 5 11 -2q36 -48 104 -48q51 0 79 27.5t28 76.5q0 48 -27.5 75.5t-75.5 27.5q-62 0 -96 -37q-5 -5 -10 -4l-3 1q-7 3 -7 8l12 187q1 9 10 9h191q9 0 9 -9v-4q0 -9 -9 -9h-180l-10 -151h1q40 31 95 31z" />
    <glyph glyph-name="seveneighths" unicode="&#x215e;" horiz-adv-x="788" 
d="M167 6q-5 -6 -11 -6h-7q-13 0 -6 11l398 607q4 6 11 6h7q13 0 6 -11zM680 204q76 -25 76 -99q0 -54 -35 -83t-98 -29t-98 29t-35 83q0 75 76 98v1q-65 22 -65 87q0 48 32 75t90 27t90 -27t32 -75q0 -32 -16.5 -54t-48.5 -32v-1zM524 291q0 -37 26 -57t73 -20t73 20t26 57
q0 38 -25.5 59t-73.5 21t-73.5 -21t-25.5 -59zM623 15q52 0 80.5 23.5t28.5 66.5q0 42 -28.5 64.5t-80.5 22.5q-51 0 -80 -22.5t-29 -64.5q0 -43 28.5 -66.5t80.5 -23.5zM307 606q0 -5 -3 -11l-178 -350q-3 -7 -10 -7h-8q-12 0 -7 11l181 353h-214v-60q0 -9 -9 -9h-5
q-9 0 -9 9v73q0 9 9 9h244q9 0 9 -9v-9z" />
    <glyph glyph-name="partialdiff" unicode="&#x2202;" horiz-adv-x="538" 
d="M282 676q200 0 200 -263q0 -101 -17 -180t-49.5 -133.5t-79.5 -83t-107 -28.5q-39 0 -72 13.5t-56 38.5t-36 59t-13 76q0 55 17 100.5t48 78t74 50.5t95 18q62 0 105.5 -29t60.5 -79h1q2 25 3.5 50t1.5 52q0 238 -179 238q-39 0 -76.5 -15.5t-66.5 -47.5q-8 -8 -14 0
l-4 5q-5 6 2 13q33 32 75 49.5t87 17.5zM231 10q83 0 137 62t76 177q-2 69 -45.5 110t-115.5 41q-45 0 -83 -16t-65.5 -45t-43 -69t-15.5 -88q0 -81 41.5 -126.5t113.5 -45.5z" />
    <glyph glyph-name="uni2206" unicode="&#x2206;" horiz-adv-x="566" 
d="M37 0q-10 0 -7 10l238 646q3 8 11 8h8q8 0 11 -8l238 -646q3 -10 -7 -10h-492zM59 22h447l-222 609h-1z" />
    <glyph glyph-name="product" unicode="&#x220f;" horiz-adv-x="606" 
d="M533 -71q0 -9 -9 -9h-6q-9 0 -9 9v713h-412v-713q0 -9 -9 -9h-6q-9 0 -9 9v726q0 9 9 9h442q9 0 9 -9v-726z" />
    <glyph glyph-name="summation" unicode="&#x2211;" horiz-adv-x="472" 
d="M289 298q4 -6 0 -12l-239 -344h401q9 0 9 -9v-4q0 -9 -9 -9h-420q-9 0 -9 9v9q0 6 4 11l239 343l-239 343q-4 5 -4 11v9q0 9 9 9h420q9 0 9 -9v-4q0 -9 -9 -9h-401z" />
    <glyph glyph-name="minus" unicode="&#x2212;" horiz-adv-x="528" 
d="M498 290q9 0 9 -9v-4q0 -9 -9 -9h-468q-9 0 -9 9v4q0 9 9 9h468z" />
    <glyph glyph-name="uni2219" unicode="&#x2219;" horiz-adv-x="200" 
d="M100 286q-11 0 -18.5 7.5t-7.5 18.5t7.5 18.5t18.5 7.5t18.5 -7.5t7.5 -18.5t-7.5 -18.5t-18.5 -7.5z" />
    <glyph glyph-name="radical" unicode="&#x221a;" horiz-adv-x="496" 
d="M475 664q10 0 7 -10l-195 -726q-1 -8 -10 -8h-14q-8 0 -11 7l-117 311l-94 -26q-9 -3 -11 7l-1 4q-1 7 7 10l105 29q8 2 11 -6l116 -310h1l190 710q2 8 10 8h6z" />
    <glyph glyph-name="infinity" unicode="&#x221e;" horiz-adv-x="645" 
d="M476 448q57 0 92 -37.5t35 -98.5t-35.5 -98.5t-93.5 -37.5q-45 0 -79.5 26t-72.5 88q-19 -31 -36.5 -52.5t-36 -35t-38.5 -20t-42 -6.5q-57 0 -92 37.5t-35 98.5t35.5 98.5t93.5 37.5q45 0 79.5 -26t72.5 -88q37 61 72.5 87.5t80.5 26.5zM174 198q19 0 35.5 5.5t32 19
t32 35t35.5 53.5q-38 63 -70.5 89t-72.5 26q-45 0 -72.5 -31.5t-27.5 -82.5t30 -82.5t78 -31.5zM479 198q45 0 72.5 31.5t27.5 82.5t-30 82.5t-78 31.5q-19 0 -35.5 -5.5t-32 -19t-32 -35t-35.5 -53.5q19 -32 36 -53.5t34 -35.5t35 -20t38 -6z" />
    <glyph glyph-name="integral" unicode="&#x222b;" horiz-adv-x="306" 
d="M126 537q0 83 38 127.5t101 47.5q9 0 9 -9v-4q0 -9 -9 -9q-54 -3 -84.5 -42t-30.5 -117q0 -63 5 -126t10 -129q6 -68 10.5 -136t4.5 -137q0 -83 -38 -127.5t-101 -47.5q-9 0 -9 9v4q0 9 9 9q54 3 84.5 42t30.5 117q0 63 -5 126t-10 129q-6 68 -10.5 136t-4.5 137z" />
    <glyph glyph-name="approxequal" unicode="&#x2248;" horiz-adv-x="528" 
d="M153 417q-35 0 -59.5 -16.5t-50.5 -57.5q-5 -9 -13 -3l-4 3q-7 5 -2 13q27 43 57.5 63t69.5 20q30 0 56 -9t64 -33q33 -22 55.5 -30.5t48.5 -8.5q35 0 59.5 16.5t50.5 57.5q5 8 13 3l4 -3q7 -5 2 -13q-27 -43 -57.5 -63t-69.5 -20q-30 0 -56 9t-64 33q-33 22 -55.5 30.5
t-48.5 8.5zM153 197q-35 0 -59.5 -16.5t-50.5 -57.5q-5 -9 -13 -3l-4 3q-7 5 -2 13q27 43 57.5 63t69.5 20q30 0 56 -9t64 -33q33 -22 55.5 -30.5t48.5 -8.5q35 0 59.5 16.5t50.5 57.5q5 8 13 3l4 -3q7 -5 2 -13q-27 -43 -57.5 -63t-69.5 -20q-30 0 -56 9t-64 33
q-33 22 -55.5 30.5t-48.5 8.5z" />
    <glyph glyph-name="notequal" unicode="&#x2260;" horiz-adv-x="528" 
d="M478 180q9 0 9 -9v-4q0 -9 -9 -9h-280l-80 -132q-3 -6 -11 -6h-5q-13 0 -6 11l77 127h-123q-9 0 -9 9v4q0 9 9 9h136l121 198h-257q-9 0 -9 9v4q0 9 9 9h270l80 132q3 6 11 6h5q13 0 6 -11l-77 -127h133q9 0 9 -9v-4q0 -9 -9 -9h-146l-121 -198h267z" />
    <glyph glyph-name="lessequal" unicode="&#x2264;" horiz-adv-x="528" 
d="M477 125q7 -3 7 -10v-5q0 -12 -11 -7l-423 203q-7 3 -7 10v6q0 7 7 10l423 203q11 5 11 -7v-5q0 -7 -7 -10l-407 -194zM475 22q9 0 9 -9v-4q0 -9 -9 -9h-423q-9 0 -9 9v4q0 9 9 9h423z" />
    <glyph glyph-name="greaterequal" unicode="&#x2265;" horiz-adv-x="528" 
d="M484 316q0 -7 -7 -10l-423 -203q-11 -5 -11 7v5q0 7 7 10l407 194l-407 194q-7 3 -7 10v5q0 12 11 7l423 -203q7 -3 7 -10v-6zM475 22q9 0 9 -9v-4q0 -9 -9 -9h-423q-9 0 -9 9v4q0 9 9 9h423z" />
    <glyph glyph-name="lozenge" unicode="&#x25ca;" horiz-adv-x="516" 
d="M466 338q4 -6 0 -12l-194 -329q-4 -7 -11 -7h-6q-7 0 -11 7l-194 329q-5 6 0 12l194 329q4 7 11 7h6q7 0 11 -7zM258 647l-186 -315l185 -315h1l186 315l-185 315h-1z" />
    <glyph glyph-name="uniE069" unicode="&#xe069;" horiz-adv-x="188" 
d="M97 490q9 0 9 -9v-472q0 -9 -9 -9h-6q-9 0 -9 9v472q0 9 9 9h6zM94 603q-11 0 -18 7t-7 18t7 18t18 7t18 -7t7 -18t-7 -18t-18 -7z" />
    <glyph glyph-name="uniEF01" unicode="&#xef01;" horiz-adv-x="500" 
d="M250 -55q11 0 18.5 -8t7.5 -22q0 -46 -36 -60q-5 -2 -7 2l-2 3q-2 4 3 6q17 9 21 31h-5q-11 0 -18.5 6.5t-7.5 17.5t7.5 17.5t18.5 6.5z" />
    <glyph glyph-name="uniEF02" unicode="&#xef02;" horiz-adv-x="500" 
d="M250 692q2 8 9 8h5q10 0 8 -10l-25 -163q-1 -7 -8 -7h-3q-10 0 -8 9z" />
    <glyph glyph-name="uniF8FF" unicode="&#xf8ff;" horiz-adv-x="1000" 
d="M439 262h-1l-17 -78h-23l28 126h27v-66h1l28 66h31l-28 -126h-24l17 78h-1l-22 -52h-16v52zM123 208q-7 -24 -25 -24h-46l28 126h43q18 0 18 -15v-3.5t-1 -6.5zM269 184l6 26h-17l-7 -26h-24l23 103q5 23 26 23h22q18 0 18 -15v-3.5t-1 -6.5l-22 -101h-24zM546 184l6 26
h-17l-7 -26h-24l23 103q5 23 26 23h22q18 0 18 -15v-3.5t-1 -6.5l-22 -101h-24zM390 233q-4 -17 -13 -20l6 -29h-23l-4 26h-13l-6 -26h-24l28 126h43q18 0 18 -15v-3.5t-1 -6.5zM833 232q-4 -22 -24 -22h-22l-6 -26h-24l28 126h43q18 0 18 -15v-3.5t-1 -6.5zM205 184h-24
l6 26h-18l-6 -26h-24l28 126h24l-18 -81h18l18 81h24zM727 310l-17 -75q-1 -6 4 -6h7q5 0 6 4l17 77h24l-17 -78q-4 -22 -24 -22l-14 -26h-24l14 26q-7 0 -12.5 3.5t-5.5 11.5q0 5 1 10l17 75h24zM897 223h-26l-4 -20h33l-5 -19h-56l28 126h57l-5 -19h-32l-11 -49h25z
M647 184h-24l24 107h-19l4 19h61l-4 -19h-18zM80 203h13q4 0 6 5l17 77q1 6 -3 6h-13zM821 285q1 6 -4 6h-12l-14 -62h13q5 0 6 4zM377 285q1 6 -4 6h-12l-14 -62h13q5 0 6 4zM557 291q-5 0 -6 -5l-13 -57h18l12 56q1 6 -4 6h-7zM280 291q-5 0 -6 -5l-13 -57h18l12 56
q1 6 -4 6h-7zM987 303h-6v25h-1l-7 -20h-4l-7 20h-1v-25h-5v30h10l5 -16h1l5 16h10v-30zM952 328h-9v-25h-6v25h-8v5h23v-5z" />
    <glyph glyph-name="zero.numr" 
d="M41 498q0 133 124 133t124 -133v-133q0 -134 -124 -134t-124 134v133zM65 370q0 -61 24 -89t76 -28t76 28t24 89v123q0 60 -24 88t-76 28t-76 -28t-24 -88v-123z" />
    <glyph glyph-name="one.numr" 
d="M236 247q0 -9 -9 -9h-6q-9 0 -9 9v343l-100 -75q-8 -6 -13 2l-3 4q-4 7 4 13l113 86q5 4 11 4h3q9 0 9 -9v-368z" />
    <glyph glyph-name="two.numr" 
d="M287 247q0 -9 -9 -9h-220q-9 0 -9 9v5q0 6 5 11l154 157q30 30 42 53.5t12 52.5q0 40 -24.5 61.5t-69.5 21.5q-67 0 -97 -58q-4 -7 -11 -4l-6 3q-8 4 -3 12q17 33 48 51t70 18q55 0 86 -27.5t31 -77.5q0 -33 -12.5 -59.5t-46.5 -60.5l-144 -146h195q9 0 9 -9v-4z" />
    <glyph glyph-name="three.numr" 
d="M225 442q37 -11 57 -36t20 -63q0 -54 -34 -83t-94 -29q-82 0 -125 55q-5 7 1 13l3 3q6 6 13 -2q36 -47 107 -47q50 0 77.5 23.5t27.5 66.5q0 42 -28 64.5t-82 22.5h-34q-9 0 -9 9v4q0 9 9 9h31q103 0 103 77q0 38 -25.5 59t-72.5 21q-66 0 -99 -47q-5 -8 -13 -2l-4 3
q-6 5 -1 13q20 27 50.5 41t67.5 14q57 0 89 -27t32 -75q0 -67 -67 -86v-1z" />
    <glyph glyph-name="four.numr" 
d="M301 355q9 0 9 -9v-4q0 -9 -9 -9h-38v-86q0 -9 -9 -9h-6q-9 0 -9 9v86h-196q-9 0 -9 9v9q0 6 4 11l196 256q4 6 11 6h9q9 0 9 -9v-260h38zM238 587l-177 -232h178v232h-1z" />
    <glyph glyph-name="five.numr" 
d="M173 482q57 0 90.5 -34t33.5 -91q0 -59 -34.5 -92.5t-95.5 -33.5q-79 0 -122 55q-5 7 0 12l6 5q6 5 11 -2q36 -48 104 -48q51 0 79 27.5t28 76.5q0 48 -27.5 75.5t-75.5 27.5q-62 0 -96 -37q-5 -5 -10 -4l-3 1q-7 3 -7 8l12 187q1 9 10 9h191q9 0 9 -9v-4q0 -9 -9 -9
h-180l-10 -151h1q40 31 95 31z" />
    <glyph glyph-name="six.numr" 
d="M176 482q54 0 87 -34t33 -91t-34 -91.5t-90 -34.5t-90 34.5t-34 91.5v147q0 60 33 93.5t92 33.5q68 0 105 -45q5 -7 -1 -13l-4 -4q-6 -6 -13 2q-30 38 -86 38q-102 0 -102 -111v-69h1q14 25 41 39t62 14zM172 253q46 0 73 28t27 76t-27 75.5t-73 27.5q-45 0 -72.5 -28
t-27.5 -75q0 -48 27 -76t73 -28z" />
    <glyph glyph-name="seven.numr" 
d="M307 606q0 -5 -3 -11l-178 -350q-3 -7 -10 -7h-8q-12 0 -7 11l181 353h-214v-60q0 -9 -9 -9h-5q-9 0 -9 9v73q0 9 9 9h244q9 0 9 -9v-9z" />
    <glyph glyph-name="eight.numr" 
d="M222 442q76 -25 76 -99q0 -54 -35 -83t-98 -29t-98 29t-35 83q0 75 76 98v1q-65 22 -65 87q0 48 32 75t90 27t90 -27t32 -75q0 -32 -16.5 -54t-48.5 -32v-1zM66 529q0 -37 26 -57t73 -20t73 20t26 57q0 38 -25.5 59t-73.5 21t-73.5 -21t-25.5 -59zM165 253
q52 0 80.5 23.5t28.5 66.5q0 42 -28.5 64.5t-80.5 22.5q-51 0 -80 -22.5t-29 -64.5q0 -43 28.5 -66.5t80.5 -23.5z" />
    <glyph glyph-name="nine.numr" 
d="M158 631q56 0 90 -34.5t34 -91.5v-147q0 -60 -33 -93.5t-92 -33.5q-68 0 -105 45q-5 7 1 13l4 4q7 7 13 -1q31 -39 86 -39q102 0 102 111v69h-1q-14 -25 -41 -39t-62 -14q-54 0 -87 34t-33 91t34 91.5t90 34.5zM158 402q45 0 72.5 28t27.5 75q0 48 -27 76t-73 28t-73 -28
t-27 -76t27 -75.5t73 -27.5z" />
    <glyph glyph-name="zero.dnom" 
d="M41 260q0 133 124 133t124 -133v-133q0 -134 -124 -134t-124 134v133zM65 132q0 -61 24 -89t76 -28t76 28t24 89v123q0 60 -24 88t-76 28t-76 -28t-24 -88v-123z" />
    <glyph glyph-name="one.dnom" 
d="M236 9q0 -9 -9 -9h-6q-9 0 -9 9v343l-100 -75q-8 -6 -13 2l-3 4q-4 7 4 13l113 86q5 4 11 4h3q9 0 9 -9v-368z" />
    <glyph glyph-name="two.dnom" 
d="M287 9q0 -9 -9 -9h-220q-9 0 -9 9v5q0 6 5 11l154 157q30 30 42 53.5t12 52.5q0 40 -24.5 61.5t-69.5 21.5q-67 0 -97 -58q-4 -7 -11 -4l-6 3q-8 4 -3 12q17 33 48 51t70 18q55 0 86 -27.5t31 -77.5q0 -33 -12.5 -59.5t-46.5 -60.5l-144 -146h195q9 0 9 -9v-4z" />
    <glyph glyph-name="three.dnom" 
d="M225 204q37 -11 57 -36t20 -63q0 -54 -34 -83t-94 -29q-82 0 -125 55q-5 7 1 13l3 3q6 6 13 -2q36 -47 107 -47q50 0 77.5 23.5t27.5 66.5q0 42 -28 64.5t-82 22.5h-34q-9 0 -9 9v4q0 9 9 9h31q103 0 103 77q0 38 -25.5 59t-72.5 21q-66 0 -99 -47q-5 -8 -13 -2l-4 3
q-6 5 -1 13q20 27 50.5 41t67.5 14q57 0 89 -27t32 -75q0 -67 -67 -86v-1z" />
    <glyph glyph-name="four.dnom" 
d="M301 117q9 0 9 -9v-4q0 -9 -9 -9h-38v-86q0 -9 -9 -9h-6q-9 0 -9 9v86h-196q-9 0 -9 9v9q0 6 4 11l196 256q4 6 11 6h9q9 0 9 -9v-260h38zM238 349l-177 -232h178v232h-1z" />
    <glyph glyph-name="five.dnom" 
d="M173 244q57 0 90.5 -34t33.5 -91q0 -59 -34.5 -92.5t-95.5 -33.5q-79 0 -122 55q-5 7 0 12l6 5q6 5 11 -2q36 -48 104 -48q51 0 79 27.5t28 76.5q0 48 -27.5 75.5t-75.5 27.5q-62 0 -96 -37q-5 -5 -10 -4l-3 1q-7 3 -7 8l12 187q1 9 10 9h191q9 0 9 -9v-4q0 -9 -9 -9
h-180l-10 -151h1q40 31 95 31z" />
    <glyph glyph-name="six.dnom" 
d="M176 244q54 0 87 -34t33 -91t-34 -91.5t-90 -34.5t-90 34.5t-34 91.5v147q0 60 33 93.5t92 33.5q68 0 105 -45q5 -7 -1 -13l-4 -4q-6 -6 -13 2q-30 38 -86 38q-102 0 -102 -111v-69h1q14 25 41 39t62 14zM172 15q46 0 73 28t27 76t-27 75.5t-73 27.5q-45 0 -72.5 -28
t-27.5 -75q0 -48 27 -76t73 -28z" />
    <glyph glyph-name="seven.dnom" 
d="M307 368q0 -5 -3 -11l-178 -350q-3 -7 -10 -7h-8q-12 0 -7 11l181 353h-214v-60q0 -9 -9 -9h-5q-9 0 -9 9v73q0 9 9 9h244q9 0 9 -9v-9z" />
    <glyph glyph-name="eight.dnom" 
d="M222 204q76 -25 76 -99q0 -54 -35 -83t-98 -29t-98 29t-35 83q0 75 76 98v1q-65 22 -65 87q0 48 32 75t90 27t90 -27t32 -75q0 -32 -16.5 -54t-48.5 -32v-1zM66 291q0 -37 26 -57t73 -20t73 20t26 57q0 38 -25.5 59t-73.5 21t-73.5 -21t-25.5 -59zM165 15q52 0 80.5 23.5
t28.5 66.5q0 42 -28.5 64.5t-80.5 22.5q-51 0 -80 -22.5t-29 -64.5q0 -43 28.5 -66.5t80.5 -23.5z" />
    <glyph glyph-name="nine.dnom" 
d="M158 393q56 0 90 -34.5t34 -91.5v-147q0 -60 -33 -93.5t-92 -33.5q-68 0 -105 45q-5 7 1 13l4 4q7 7 13 -1q31 -39 86 -39q102 0 102 111v69h-1q-14 -25 -41 -39t-62 -14q-54 0 -87 34t-33 91t34 91.5t90 34.5zM158 164q45 0 72.5 28t27.5 75q0 48 -27 76t-73 28t-73 -28
t-27 -76t27 -75.5t73 -27.5z" />
    </font>
</defs>
</svg>
