<?xml version="1.0" standalone="no"?>
<!DOCTYPE svg PUBLIC "-//W3C//DTD SVG 1.1//EN" "http://www.w3.org/Graphics/SVG/1.1/DTD/svg11.dtd" >
<svg>
<metadata>
Created by FontForge 20120731 at Mon Jul 10 16:07:47 2017
 By www
Copyright (c) 2014 by Ryoichi Tsunekawa. All rights reserved.
</metadata>
<defs>
<font id="KiroW03-ExtraBoldItalic" horiz-adv-x="330" >
  <font-face 
    font-family="KiroW03-ExtraBoldItalic"
    font-weight="800"
    font-style="italic"
    font-stretch="normal"
    units-per-em="1000"
    panose-1="2 11 6 6 2 2 3 12 2 4"
    ascent="800"
    descent="-200"
    x-height="500"
    cap-height="664"
    bbox="-220.231 -262.714 1094.81 916"
    underline-thickness="50"
    underline-position="-75"
    slope="-9"
    unicode-range="U+0020-FB04"
  />
<missing-glyph horiz-adv-x="600" 
d="M81 0v664h462v-664h-462zM156 623l156 -248l156 248h-312zM126 585v-506l159 253zM498 79v506l-159 -253zM312 289l-156 -248h312z" />
    <glyph glyph-name="uniFB00" unicode="ff" horiz-adv-x="631" 
d="M707 695q26 -11 13 -37l-29 -60q-6 -13 -14 -15.5t-19 0.5q-12 4 -25 5.5t-26 1.5q-26 0 -44 -17.5t-23 -47.5l-4 -25h98q30 0 25 -30l-10 -66q-5 -26 -30 -26h-102l-56 -352q-5 -26 -30 -26h-86q-30 0 -25 30l55 348h-140l-56 -352q-5 -26 -30 -26h-86q-30 0 -25 30
l55 348h-28q-30 0 -25 30l10 66q5 26 30 26h33l2 15q29 187 217 187q38 0 73.5 -8.5t63.5 -24.5q49 43 132 43q61 0 106 -17zM394 500q5 32 8 45t6 22q-15 8 -34.5 12t-39.5 4q-29 0 -50 -17.5t-26 -47.5l-3 -18h139z" />
    <glyph glyph-name="uniFB01" unicode="fi" horiz-adv-x="548" 
d="M504 500q30 0 25 -30l-70 -444q-5 -26 -30 -26h-86q-30 0 -25 30l55 348h-138l-56 -352q-5 -26 -30 -26h-86q-30 0 -25 30l55 348h-28q-30 0 -25 30l10 66q5 26 30 26h32l4 25q15 93 68 140t150 47q78 0 131 -29q24 -12 10 -38l-36 -59q-12 -21 -37 -10q-29 14 -68 14
q-33 0 -52 -17.5t-24 -47.5l-4 -25h250z" />
    <glyph glyph-name="uniFB02" unicode="fl" horiz-adv-x="558" 
d="M546 700q30 0 25 -30l-102 -644q-5 -26 -30 -26h-86q-30 0 -25 30l86 541q-16 10 -36.5 14.5t-43.5 4.5q-29 0 -50 -17.5t-26 -47.5l-4 -25h78q30 0 25 -30l-10 -66q-5 -26 -30 -26h-82l-56 -352q-5 -26 -30 -26h-86q-30 0 -25 30l55 348h-28q-30 0 -25 30l10 66
q5 26 30 26h32l4 25q30 187 216 187q28 0 56.5 -5t51.5 -14q7 7 20 7h86z" />
    <glyph glyph-name="uniFB03" unicode="ffi" horiz-adv-x="830" 
d="M786 500q30 0 25 -30l-70 -444q-5 -26 -30 -26h-86q-30 0 -25 30l55 348h-138l-56 -352q-5 -26 -30 -26h-86q-30 0 -25 30l55 348h-140l-56 -352q-5 -26 -30 -26h-86q-30 0 -25 30l55 348h-28q-30 0 -25 30l10 66q5 26 30 26h33l2 15q29 187 217 187q38 0 74 -9t64 -25
q55 44 146 44q78 0 131 -29q24 -12 10 -38l-36 -59q-12 -21 -37 -10q-29 14 -68 14q-33 0 -52 -17.5t-24 -47.5l-4 -25h250zM394 500q5 32 8 45t6 22q-15 8 -34.5 12t-39.5 4q-29 0 -50 -17.5t-26 -47.5l-3 -18h139z" />
    <glyph glyph-name="uniFB04" unicode="ffl" horiz-adv-x="840" 
d="M828 700q30 0 25 -30l-102 -644q-5 -26 -30 -26h-86q-30 0 -25 30l86 541q-16 10 -36.5 14.5t-43.5 4.5q-29 0 -50 -17.5t-26 -47.5l-4 -25h78q30 0 25 -30l-10 -66q-5 -26 -30 -26h-82l-56 -352q-5 -26 -30 -26h-86q-30 0 -25 30l55 348h-140l-56 -352q-5 -26 -30 -26
h-86q-30 0 -25 30l55 348h-28q-30 0 -25 30l10 66q5 26 30 26h33l2 15q29 187 217 187q38 0 73.5 -9t63.5 -24q54 43 145 43q28 0 56.5 -5t51.5 -14q7 7 20 7h86zM394 500q5 32 8 45t6 22q-15 8 -34.5 12t-39.5 4q-29 0 -50 -17.5t-26 -47.5l-3 -18h139z" />
    <glyph glyph-name="f_b.liga" unicode="fb" horiz-adv-x="806" 
d="M414 571q-16 10 -36.5 14.5t-43.5 4.5q-29 0 -50 -17.5t-26 -47.5l-4 -25h78q30 0 25 -30l-10 -66q-5 -26 -30 -26h-82l-56 -352q-5 -26 -30 -26h-86q-30 0 -25 30l55 348h-28q-30 0 -25 30l10 66q5 26 30 26h32l4 25q30 187 216 187q28 0 56.5 -5t51.5 -14q7 7 20 7h86
q30 0 25 -30l-28 -181h2q32 23 80 23q77 0 116.5 -39.5t39.5 -111.5q0 -23 -4 -46l-22 -140q-30 -187 -219 -187q-90 0 -138.5 41.5t-48.5 116.5q0 19 3 39zM634 312q2 7 2 13.5v12.5q0 52 -49 52q-61 0 -73 -78l-19 -124q-1 -7 -1.5 -13t-0.5 -12q0 -53 49 -53q61 0 73 78z
" />
    <glyph glyph-name="f_f_b.liga" unicode="ffb" horiz-adv-x="1088" 
d="M722 693q7 7 20 7h86q30 0 25 -30l-28 -181h2q32 23 80 23q77 0 116.5 -39.5t39.5 -111.5q0 -23 -4 -46l-22 -140q-30 -187 -219 -187q-90 0 -138.5 41.5t-48.5 116.5q0 19 3 39l62 386q-16 10 -36.5 14.5t-43.5 4.5q-29 0 -50 -17.5t-26 -47.5l-4 -25h78q30 0 25 -30
l-10 -66q-5 -26 -30 -26h-82l-56 -352q-5 -26 -30 -26h-86q-30 0 -25 30l55 348h-140l-56 -352q-5 -26 -30 -26h-86q-30 0 -25 30l55 348h-28q-30 0 -25 30l10 66q5 26 30 26h33l2 15q29 187 217 187q38 0 73.5 -9t63.5 -24q54 43 145 43q28 0 56.5 -5t51.5 -14zM394 500
q5 32 8 45t6 22q-15 8 -34.5 12t-39.5 4q-29 0 -50 -17.5t-26 -47.5l-3 -18h139zM916 312q2 7 2 13.5v12.5q0 52 -49 52q-61 0 -73 -78l-19 -124q-1 -7 -1.5 -13t-0.5 -12q0 -53 49 -53q61 0 73 78z" />
    <glyph glyph-name="f_h.liga" unicode="fh" horiz-adv-x="808" 
d="M542 489h2q34 23 83 23q72 0 109 -38t37 -107q0 -26 -4 -49l-46 -292q-5 -26 -30 -26h-86q-30 0 -25 30l45 286q1 7 1.5 13t0.5 12q0 49 -46 49q-56 0 -68 -74l-46 -290q-5 -26 -30 -26h-86q-30 0 -25 30l86 541q-16 10 -36.5 14.5t-43.5 4.5q-29 0 -50 -17.5t-26 -47.5
l-4 -25h78q30 0 25 -30l-10 -66q-5 -26 -30 -26h-82l-56 -352q-5 -26 -30 -26h-86q-30 0 -25 30l55 348h-28q-30 0 -25 30l10 66q5 26 30 26h32l4 25q30 187 216 187q28 0 56.5 -5t51.5 -14q7 7 20 7h86q30 0 25 -30z" />
    <glyph glyph-name="f_f_h.liga" unicode="ffh" horiz-adv-x="1090" 
d="M722 693q7 7 20 7h86q30 0 25 -30l-29 -181h2q34 23 83 23q72 0 109 -38t37 -107q0 -26 -4 -49l-46 -292q-5 -26 -30 -26h-86q-30 0 -25 30l45 286q1 7 1.5 13t0.5 12q0 49 -46 49q-56 0 -68 -74l-46 -290q-5 -26 -30 -26h-86q-30 0 -25 30l86 541q-16 10 -36.5 14.5
t-43.5 4.5q-29 0 -50 -17.5t-26 -47.5l-4 -25h78q30 0 25 -30l-10 -66q-5 -26 -30 -26h-82l-56 -352q-5 -26 -30 -26h-86q-30 0 -25 30l55 348h-140l-56 -352q-5 -26 -30 -26h-86q-30 0 -25 30l55 348h-28q-30 0 -25 30l10 66q5 26 30 26h33l2 15q29 187 217 187
q38 0 73.5 -9t63.5 -24q54 43 145 43q28 0 56.5 -5t51.5 -14zM394 500q5 32 8 45t6 22q-15 8 -34.5 12t-39.5 4q-29 0 -50 -17.5t-26 -47.5l-3 -18h139z" />
    <glyph glyph-name="f_j.liga" unicode="fj" horiz-adv-x="548" 
d="M504 500q30 0 25 -30l-73 -465q-14 -85 -58.5 -125t-124.5 -40h-27q-30 0 -25 30l10 66q5 26 30 26q26 0 37.5 10.5t16.5 37.5l58 368h-138l-56 -352q-5 -26 -30 -26h-86q-30 0 -25 30l55 348h-28q-30 0 -25 30l10 66q5 26 30 26h32l4 25q15 93 68 140t150 47
q78 0 131 -29q24 -12 10 -38l-36 -59q-12 -21 -37 -10q-29 14 -68 14q-33 0 -52 -17.5t-24 -47.5l-4 -25h250z" />
    <glyph glyph-name="f_f_j.liga" unicode="ffj" horiz-adv-x="830" 
d="M786 500q30 0 25 -30l-73 -465q-14 -85 -58.5 -125t-124.5 -40h-27q-30 0 -25 30l10 66q5 26 30 26q26 0 37.5 10.5t16.5 37.5l58 368h-138l-56 -352q-5 -26 -30 -26h-86q-30 0 -25 30l55 348h-140l-56 -352q-5 -26 -30 -26h-86q-30 0 -25 30l55 348h-28q-30 0 -25 30
l10 66q5 26 30 26h33l2 15q29 187 217 187q38 0 74 -9t64 -25q55 44 146 44q78 0 131 -29q24 -12 10 -38l-36 -59q-12 -21 -37 -10q-29 14 -68 14q-33 0 -52 -17.5t-24 -47.5l-4 -25h250zM394 500q5 32 8 45t6 22q-15 8 -34.5 12t-39.5 4q-29 0 -50 -17.5t-26 -47.5l-3 -18
h139z" />
    <glyph glyph-name="f_k.liga" unicode="fk" horiz-adv-x="801" 
d="M414 571q-16 10 -36.5 14.5t-43.5 4.5q-29 0 -50 -17.5t-26 -47.5l-4 -25h78q30 0 25 -30l-10 -66q-5 -26 -30 -26h-82l-56 -352q-5 -26 -30 -26h-86q-30 0 -25 30l55 348h-28q-30 0 -25 30l10 66q5 26 30 26h32l4 25q30 187 216 187q28 0 56.5 -5t51.5 -14q7 7 20 7h86
q30 0 25 -30l-58 -366h2l136 179q13 17 34 17h104q18 0 22.5 -10t-6.5 -24l-173 -211l112 -222q8 -14 2.5 -23.5t-22.5 -9.5h-103q-23 0 -32 21l-88 197h-2l-30 -192q-5 -26 -30 -26h-86q-30 0 -25 30z" />
    <glyph glyph-name="f_f_k.liga" unicode="ffk" horiz-adv-x="1083" 
d="M722 693q7 7 20 7h86q30 0 25 -30l-58 -366h2l136 179q13 17 34 17h104q18 0 22.5 -10t-6.5 -24l-173 -211l112 -222q8 -14 2.5 -23.5t-22.5 -9.5h-103q-23 0 -32 21l-88 197h-2l-30 -192q-5 -26 -30 -26h-86q-30 0 -25 30l86 541q-16 10 -36.5 14.5t-43.5 4.5
q-29 0 -50 -17.5t-26 -47.5l-4 -25h78q30 0 25 -30l-10 -66q-5 -26 -30 -26h-82l-56 -352q-5 -26 -30 -26h-86q-30 0 -25 30l55 348h-140l-56 -352q-5 -26 -30 -26h-86q-30 0 -25 30l55 348h-28q-30 0 -25 30l10 66q5 26 30 26h33l2 15q29 187 217 187q38 0 73.5 -9
t63.5 -24q54 43 145 43q28 0 56.5 -5t51.5 -14zM394 500q5 32 8 45t6 22q-15 8 -34.5 12t-39.5 4q-29 0 -50 -17.5t-26 -47.5l-3 -18h139z" />
    <glyph glyph-name="f_t.liga" unicode="ft" horiz-adv-x="645" 
d="M518 577q30 0 25 -30l-7 -47h98q30 0 25 -30l-10 -66q-5 -26 -30 -26h-102l-33 -210q-1 -5 -1 -14q0 -44 50 -44q14 0 29 5q31 10 34 -19l7 -64q3 -27 -20 -34q-17 -5 -36 -7.5t-38 -2.5q-84 0 -127 36t-43 108q0 11 1 21.5t3 22.5l32 202h-140l-56 -352q-5 -26 -30 -26
h-86q-30 0 -25 30l55 348h-28q-30 0 -25 30l10 66q5 26 30 26h32l4 25q30 187 203 187q63 0 106 -17q13 -5 16 -15t-3 -22l-30 -60q-6 -12 -14.5 -14.5t-22.5 1.5q-23 5 -46 5q-26 0 -44 -17.5t-23 -47.5l-4 -25h140l9 51q5 26 30 26h85z" />
    <glyph glyph-name="f_f_t.liga" unicode="fft" horiz-adv-x="927" 
d="M916 500q30 0 25 -30l-10 -66q-5 -26 -30 -26h-102l-33 -210q-1 -5 -1 -14q0 -44 50 -44q14 0 29 5q31 10 34 -19l7 -64q3 -27 -20 -34q-17 -5 -36 -7.5t-38 -2.5q-84 0 -127 36t-43 108q0 11 1 21.5t3 22.5l32 202h-140l-56 -352q-5 -26 -30 -26h-86q-30 0 -25 30
l55 348h-140l-56 -352q-5 -26 -30 -26h-86q-30 0 -25 30l55 348h-28q-30 0 -25 30l10 66q5 26 30 26h33l2 15q29 187 217 187q38 0 73.5 -8.5t63.5 -24.5q49 43 132 43q63 0 106 -17q13 -5 16 -15t-3 -22l-30 -60q-6 -12 -14.5 -14t-22.5 1q-23 5 -46 5q-26 0 -44 -17.5
t-23 -47.5l-4 -25h140l9 51q5 26 30 26h85q30 0 25 -30l-7 -47h98zM399 528q3 21 9 39q-15 8 -34.5 12t-39.5 4q-29 0 -50 -17.5t-26 -47.5l-3 -18h139z" />
    <glyph glyph-name=".notdef" horiz-adv-x="600" 
d="M81 0v664h462v-664h-462zM156 623l156 -248l156 248h-312zM126 585v-506l159 253zM498 79v506l-159 -253zM312 289l-156 -248h312z" />
    <glyph glyph-name=".null" horiz-adv-x="0" 
 />
    <glyph glyph-name="nonmarkingreturn" horiz-adv-x="333" 
 />
    <glyph glyph-name="space" unicode=" " horiz-adv-x="215" 
 />
    <glyph glyph-name="exclam" unicode="!" horiz-adv-x="268" 
d="M176 238q-6 -17 -24 -17h-43q-21 0 -21 21l-2 137q0 10 0.5 17t2.5 17l34 225q5 26 30 26h86q30 0 25 -30l-33 -221q-3 -17 -8 -33zM99 -12q-36 0 -57.5 22t-21.5 57q0 39 26 65t64 26q36 0 57.5 -22t21.5 -57q0 -39 -26 -65t-64 -26z" />
    <glyph glyph-name="quotedbl" unicode="&#x22;" horiz-adv-x="435" 
d="M111 637q1 27 29 27h83q32 0 25 -31l-51 -218q-5 -21 -27 -21h-55q-25 0 -23 25zM306 637q1 27 29 27h83q32 0 25 -31l-51 -218q-5 -21 -27 -21h-55q-25 0 -23 25z" />
    <glyph glyph-name="numbersign" unicode="#" horiz-adv-x="530" 
d="M451 275q14 0 19 -7.5t1 -19.5l-22 -65q-7 -20 -28 -20h-51l-48 -143q-7 -20 -28 -20h-66q-14 0 -19 7.5t-1 19.5l46 136h-64l-48 -143q-7 -20 -28 -20h-66q-14 0 -19 7.5t-1 19.5l46 136h-43q-14 0 -19 7.5t-1 19.5l22 65q7 20 28 20h50l32 94h-44q-14 0 -19 7.5
t-1 19.5l22 65q7 20 28 20h51l41 123q7 20 28 20h66q14 0 19 -7.5t1 -19.5l-39 -116h64l41 123q7 20 28 20h66q14 0 19 -7.5t1 -19.5l-39 -116h43q14 0 19 -7.5t1 -19.5l-22 -65q-7 -20 -28 -20h-50l-32 -94h44zM227 275h64l32 94h-64z" />
    <glyph glyph-name="dollar" unicode="$" horiz-adv-x="530" 
d="M307 378q97 -10 137.5 -46.5t40.5 -107.5q0 -48 -17 -87.5t-47.5 -67.5t-74.5 -44t-98 -17l-10 -68q-1 -10 -12 -10h-20q-12 0 -10 12l11 67q-63 4 -107 23.5t-77 57.5q-18 21 4 40l65 56q19 17 39 -3q20 -21 43.5 -31.5t52.5 -12.5l17 108q-95 10 -135.5 47t-40.5 106
q0 48 16.5 87.5t47 67.5t74 44t97.5 17l9 62q1 10 12 10h20q11 0 10 -12l-10 -61q105 -7 157 -67q18 -20 -3 -39l-64 -56q-19 -16 -40 2q-27 25 -70 30zM217 427q0 -32 49 -42l16 100q-30 -4 -47.5 -19.5t-17.5 -38.5zM334 197q0 33 -49 43l-16 -101q31 4 48 19t17 39z" />
    <glyph glyph-name="percent" unicode="%" horiz-adv-x="652" 
d="M66 515q18 121 138 121q58 0 90.5 -29t32.5 -78q0 -6 -0.5 -12t-1.5 -12l-13 -82q-20 -121 -137 -121q-59 0 -91.5 28.5t-32.5 77.5q0 6 0.5 12t1.5 13zM146 427q-1 -5 -1 -6.5v-3.5q0 -30 31 -30q17 0 28.5 10.5t14.5 29.5l13 84q1 5 1 9q0 31 -31 31q-37 0 -43 -40z
M357 201q18 121 138 121q58 0 90.5 -28.5t32.5 -77.5q0 -6 -0.5 -12t-1.5 -13l-13 -82q-20 -121 -137 -121q-59 0 -91.5 28.5t-32.5 77.5q0 6 0.5 12t1.5 13zM437 113q-1 -5 -1 -9q0 -31 32 -31q17 0 28 10.5t14 29.5l13 84q1 5 1 6.5v3.5q0 30 -30 30q-17 0 -29 -10.5
t-15 -29.5zM519 611q12 13 28 13h67q14 0 18 -8.5t-5 -19.5l-477 -583q-12 -13 -28 -13h-67q-14 0 -18 8.5t5 19.5z" />
    <glyph glyph-name="ampersand" unicode="&#x26;" horiz-adv-x="613" 
d="M568 317q29 -10 14 -37q-22 -42 -44.5 -77.5t-47.5 -65.5l68 -103q9 -14 3.5 -24t-22.5 -10h-112q-22 0 -34 18l-12 19q-77 -49 -163 -49q-94 0 -148 47t-54 130q0 69 33.5 123t107.5 97q-26 53 -26 107q0 87 54.5 135.5t151.5 48.5q42 0 78 -10.5t63 -27.5
q11 -7 12.5 -17t-6.5 -21l-42 -58q-14 -21 -39 -6q-30 18 -61 18t-50.5 -14.5t-19.5 -44.5q0 -14 7 -30t21 -37l115 -175q11 17 21.5 36t20.5 39q12 24 36 15zM242 113q34 0 72 26l-90 139q-32 -22 -46 -46.5t-14 -51.5q0 -31 20 -49t58 -18z" />
    <glyph glyph-name="quotesingle" unicode="'" horiz-adv-x="240" 
d="M111 637q1 27 29 27h83q32 0 25 -31l-51 -218q-5 -21 -27 -21h-55q-25 0 -23 25z" />
    <glyph glyph-name="parenleft" unicode="(" horiz-adv-x="354" 
d="M204 182q0 -66 13.5 -127t42.5 -117q7 -12 2 -20t-19 -8h-80q-19 0 -29 16q-35 62 -54 131.5t-19 144.5q0 52 10 109.5t32.5 116t59 115.5t88.5 109q11 12 29 12h78q15 0 16.5 -11t-10.5 -28q-85 -114 -122.5 -225.5t-37.5 -217.5z" />
    <glyph glyph-name="parenright" unicode=")" horiz-adv-x="354" 
d="M200 664q19 0 29 -16q35 -62 54 -131.5t19 -144.5q0 -53 -10 -110t-32.5 -115.5t-59 -115.5t-88.5 -109q-11 -12 -29 -12h-78q-15 0 -19 8.5t6 21.5q89 115 128 229.5t39 222.5q0 66 -13.5 127t-42.5 117q-6 12 -1.5 20t18.5 8h80z" />
    <glyph glyph-name="asterisk" unicode="*" horiz-adv-x="490" 
d="M431 365q19 -20 -3 -36l-58 -41q-22 -16 -34 9l-57 121l-70 -123q-6 -11 -15 -13t-19 5l-59 42q-23 16 -2 35l102 100l-133 22q-28 5 -18 31l24 69q10 25 33 13l124 -62l-12 137q-2 26 24 26h71q28 0 22 -27l-27 -134l123 60q12 6 20.5 2t11.5 -16l20 -68q7 -25 -19 -30
l-142 -24z" />
    <glyph glyph-name="plus" unicode="+" horiz-adv-x="530" 
d="M300 62q-5 -26 -30 -26h-76q-30 0 -25 30l23 147h-147q-30 0 -25 30l12 76q5 26 30 26h151l24 151q5 26 30 26h76q30 0 25 -30l-23 -147h147q30 0 25 -30l-12 -76q-5 -26 -30 -26h-151z" />
    <glyph glyph-name="comma" unicode="," horiz-adv-x="266" 
d="M109 158q35 0 56.5 -22.5t21.5 -61.5q0 -27 -9.5 -56.5t-26.5 -58.5t-42 -56.5t-56 -51.5q-16 -13 -29 2l-27 29q-16 16 2 30q23 20 38 42t25 51q-20 8 -31.5 25t-11.5 41q0 41 26 64t64 23z" />
    <glyph glyph-name="hyphen" unicode="-" horiz-adv-x="340" 
d="M293 343q30 0 25 -30l-12 -80q-5 -26 -30 -26h-224q-30 0 -25 30l12 80q5 26 30 26h224z" />
    <glyph glyph-name="period" unicode="." horiz-adv-x="266" 
d="M98 -12q-36 0 -57.5 22t-21.5 57q0 39 26 65t64 26q36 0 57.5 -22t21.5 -57q0 -39 -26 -65t-64 -26z" />
    <glyph glyph-name="slash" unicode="/" horiz-adv-x="370" 
d="M111 18q-8 -18 -29 -18h-82q-14 0 -18.5 8t1.5 20l299 618q8 18 29 18h82q14 0 18.5 -8t-1.5 -20z" />
    <glyph glyph-name="zero" unicode="0" horiz-adv-x="530" 
d="M68 427q16 103 77.5 156t165.5 53q98 0 152.5 -46.5t54.5 -129.5q0 -10 -1 -21t-3 -22l-35 -220q-16 -103 -77.5 -156t-165.5 -53q-98 0 -152.5 46.5t-54.5 129.5q0 10 1 21t3 22zM180 202q-1 -5 -1.5 -10t-0.5 -10q0 -64 65 -64q36 0 59.5 22t29.5 62l35 220q1 5 1.5 10
t0.5 10q0 64 -65 64q-36 0 -59.5 -22t-29.5 -62z" />
    <glyph glyph-name="one" unicode="1" horiz-adv-x="530" 
d="M375 26q-5 -26 -30 -26h-92q-30 0 -25 30l62 402l-88 -58q-24 -16 -38 9l-35 61q-12 23 9 38l197 131q16 11 35 11h70q30 0 25 -30z" />
    <glyph glyph-name="two" unicode="2" horiz-adv-x="530" 
d="M432 130q31 0 26 -30l-12 -74q-5 -26 -30 -26h-368q-30 0 -25 30l12 76q3 20 18 32l262 222q31 26 42.5 46t11.5 42q0 27 -17.5 42.5t-47.5 15.5q-28 0 -54.5 -15.5t-50.5 -42.5q-20 -23 -40 -2l-52 55q-19 19 0 39q47 49 101.5 72.5t114.5 23.5q88 0 141 -47.5
t53 -130.5q0 -59 -24.5 -103t-82.5 -91l-164 -132v-2h186z" />
    <glyph glyph-name="three" unicode="3" horiz-adv-x="530" 
d="M417 314q64 -40 64 -126q0 -94 -67 -147t-184 -53q-71 0 -122 21t-85 62q-17 21 3 39l57 56q20 20 40 -2q23 -25 51 -35.5t60 -10.5q100 0 100 82q0 31 -24.5 43.5t-82.5 12.5h-13q-30 0 -25 30l10 68q5 26 30 26h12q64 0 91 16t27 54q0 27 -18 41.5t-51 14.5
q-29 0 -56 -14t-56 -41q-23 -21 -39 3l-44 64q-15 22 4 40q49 41 102 59.5t111 18.5q91 0 143.5 -44.5t52.5 -123.5q0 -112 -91 -152v-2z" />
    <glyph glyph-name="four" unicode="4" horiz-adv-x="530" 
d="M481 253q31 0 26 -30l-12 -74q-5 -26 -30 -26h-46l-16 -97q-5 -26 -30 -26h-91q-31 0 -26 30l15 93h-238q-31 0 -26 30l14 87q2 11 5.5 18t10.5 15l297 336q12 15 35 15h99q30 0 25 -30l-54 -341h42zM316 423l-150 -170h125l27 170h-2z" />
    <glyph glyph-name="five" unicode="5" horiz-adv-x="530" 
d="M488 624q31 0 26 -30l-12 -74q-5 -26 -30 -26h-228l-23 -103h2q40 18 91 18q39 0 71 -13.5t55.5 -38t36 -59.5t12.5 -77q0 -54 -17.5 -97t-50.5 -73.5t-80 -46.5t-106 -16q-71 0 -122 21t-85 62q-17 21 3 39l57 56q20 20 40 -2q23 -25 51 -35.5t60 -10.5q47 0 74.5 24
t27.5 66q0 32 -21.5 51.5t-57.5 19.5q-40 0 -73 -19q-10 -5 -18 -7.5t-19 -0.5l-59 9q-29 5 -23 32l68 306q6 25 31 25h319z" />
    <glyph glyph-name="six" unicode="6" horiz-adv-x="530" 
d="M218 377q46 39 118 39q71 0 113 -49t42 -132q0 -57 -17.5 -102.5t-49.5 -77.5t-77.5 -49.5t-102.5 -17.5q-97 0 -151 49.5t-54 134.5q0 22 4 45l32 200q17 107 82 163t168 56q54 0 98 -12t76 -35q11 -8 12.5 -18t-6.5 -21l-47 -63q-8 -11 -17.5 -11.5t-21.5 7.5
q-19 12 -42 17.5t-49 5.5q-45 0 -71.5 -24.5t-34.5 -70.5l-6 -34h2zM342 215q0 34 -17 52.5t-47 18.5q-25 0 -42.5 -10t-28 -25t-15 -33t-4.5 -34q0 -32 18 -49t50 -17q39 0 62.5 25.5t23.5 71.5z" />
    <glyph glyph-name="seven" unicode="7" horiz-adv-x="530" 
d="M541 506q-2 -10 -4.5 -17.5t-7.5 -15.5l-279 -454q-12 -19 -34 -19h-109q-17 0 -22.5 10t3.5 24l293 460h-169l-13 -81q-5 -26 -30 -26h-78q-30 0 -25 30l29 181q5 26 30 26h404q31 0 26 -30z" />
    <glyph glyph-name="eight" unicode="8" horiz-adv-x="530" 
d="M423 311q30 -22 46.5 -52.5t16.5 -71.5q0 -95 -64 -147t-182 -52q-108 0 -166 45.5t-58 128.5q0 60 29 101.5t83 64.5v2q-51 42 -51 112q0 91 62 142.5t169 51.5q100 0 153.5 -44t53.5 -123q0 -55 -23.5 -94t-68.5 -62v-2zM288 380q37 0 57.5 18t20.5 53q0 55 -64 55
q-37 0 -57.5 -19t-20.5 -54q0 -53 64 -53zM246 118q94 0 94 79q0 29 -21 44t-59 15q-45 0 -70.5 -21.5t-25.5 -57.5q0 -29 21.5 -44t60.5 -15z" />
    <glyph glyph-name="nine" unicode="9" horiz-adv-x="530" 
d="M305 636q97 0 150 -49t53 -134q0 -11 -1 -22.5t-3 -23.5l-32 -200q-17 -107 -82 -163t-168 -56q-54 0 -98 12t-77 35q-11 8 -12 18t7 21l46 63q8 11 17.5 12t21.5 -7q20 -13 43 -18.5t49 -5.5q45 0 71.5 24.5t34.5 70.5l6 34h-2q-47 -39 -118 -39t-113 48.5t-42 131.5
q0 58 17 104t49.5 78t78.5 49t104 17zM269 338q26 0 43 10t27.5 25t15 33t4.5 34q0 32 -17.5 49t-49.5 17q-43 0 -65 -26t-22 -73q0 -33 17 -51t47 -18z" />
    <glyph glyph-name="colon" unicode=":" horiz-adv-x="266" 
d="M98 -12q-36 0 -57.5 22t-21.5 57q0 39 26 65t64 26q36 0 57.5 -22t21.5 -57q0 -39 -26 -65t-64 -26zM151 324q-36 0 -57.5 22t-21.5 57q0 39 26 65t64 26q36 0 57.5 -22t21.5 -57q0 -39 -26 -65t-64 -26z" />
    <glyph glyph-name="semicolon" unicode=";" horiz-adv-x="266" 
d="M109 158q35 0 56.5 -22.5t21.5 -61.5q0 -27 -9.5 -56.5t-26.5 -58.5t-42 -56.5t-56 -51.5q-16 -13 -29 2l-27 29q-16 16 2 30q23 20 38 42t25 51q-20 8 -31.5 25t-11.5 41q0 41 26 64t64 23zM151 324q-36 0 -57.5 22t-21.5 57q0 39 26 65t64 26q36 0 57.5 -22t21.5 -57
q0 -39 -26 -65t-64 -26z" />
    <glyph glyph-name="less" unicode="&#x3c;" horiz-adv-x="530" 
d="M52 208q-23 10 -20 34l11 76q3 22 24 30l433 164q16 6 24.5 -1t6.5 -24l-13 -85q-3 -23 -24 -30l-273 -98v-2l238 -93q23 -9 19 -34l-13 -80q-5 -32 -34 -19z" />
    <glyph glyph-name="equal" unicode="=" horiz-adv-x="530" 
d="M73 328q-30 0 -25 30l12 76q5 26 30 26h410q30 0 25 -30l-12 -76q-5 -26 -30 -26h-410zM37 98q-30 0 -25 30l11 76q5 26 30 26h410q30 0 25 -30l-11 -76q-5 -26 -30 -26h-410z" />
    <glyph glyph-name="greater" unicode="&#x3e;" horiz-adv-x="530" 
d="M483 350q23 -10 20 -34l-11 -76q-3 -22 -24 -30l-433 -164q-16 -6 -24.5 1t-6.5 24l13 85q3 22 24 30l273 98v2l-238 93q-23 9 -19 34l13 80q5 32 34 19z" />
    <glyph glyph-name="question" unicode="?" horiz-adv-x="466" 
d="M286 676q44 0 80 -12.5t61.5 -35t39.5 -54t14 -70.5q0 -68 -29 -111.5t-100 -73.5q-43 -18 -60 -34.5t-21 -39.5q-3 -15 -10.5 -19.5t-20.5 -4.5h-78q-31 0 -26 31q4 27 13 49.5t24 42t37 36.5t53 34q41 22 56 40t15 41t-16.5 37t-45.5 14q-56 0 -110 -58q-21 -24 -40 -2
l-51 55q-19 19 2 42q91 93 213 93zM172 -12q-36 0 -57.5 22t-21.5 57q0 39 26 65t64 26q36 0 57.5 -22t21.5 -57q0 -39 -26 -65t-64 -26z" />
    <glyph glyph-name="at" unicode="@" horiz-adv-x="738" 
d="M422 340q1 5 1.5 9.5t0.5 8.5q0 24 -13 34.5t-38 10.5q-14 0 -28 -5.5t-27 -14.5q-22 -14 -31 8l-18 42q-7 19 10 31q26 17 53.5 22.5t56.5 5.5q67 0 103 -31t36 -89q0 -16 -3 -34l-13 -88q-1 -5 -1.5 -10t-0.5 -9q0 -34 30 -34q23 0 37.5 22t22.5 53t10.5 63.5t2.5 52.5
q0 38 -9 74t-30 63.5t-56 44t-88 16.5q-60 0 -104.5 -17.5t-76.5 -47t-52.5 -66.5t-33 -76.5t-17 -78t-4.5 -69.5q0 -101 54.5 -159.5t161.5 -58.5q51 0 91 13t72 34q21 14 30 -10l18 -46q7 -19 -11 -30q-43 -26 -95 -38t-111 -12q-77 0 -135.5 21t-99 60.5t-61 96
t-20.5 126.5q0 42 7.5 91.5t25.5 99t48 96t74 82.5t104.5 57.5t140.5 21.5q77 0 130.5 -23t87 -62t48.5 -91t15 -109q0 -42 -8.5 -92t-29.5 -92.5t-57 -71t-90 -28.5q-33 0 -55.5 12t-33.5 33h-2q-19 -23 -47 -34t-63 -11q-51 0 -82.5 27.5t-31.5 78.5q0 63 35.5 95
t113.5 32h56zM373 269q-52 0 -52 -43q0 -14 9.5 -21.5t24.5 -7.5q45 0 53 58l2 14h-37z" />
    <glyph glyph-name="A" unicode="A" horiz-adv-x="602" 
d="M544 30q5 -30 -26 -30h-101q-27 0 -30 26l-8 79h-196l-36 -84q-9 -21 -32 -21h-107q-16 0 -22 9t1 24l282 610q10 21 33 21h123q25 0 30 -26zM337 486l-99 -251h127l-26 251h-2z" />
    <glyph glyph-name="B" unicode="B" horiz-adv-x="569" 
d="M451 333q75 -35 75 -132q0 -54 -14.5 -92t-46.5 -62t-82 -35.5t-120 -11.5h-208q-30 0 -25 30l96 608q5 26 30 26h186q109 0 161.5 -38t52.5 -119q0 -131 -105 -172v-2zM306 403q48 0 69.5 18t21.5 56q0 51 -71 51h-62l-19 -125h61zM280 136q48 0 69 19t21 60
q0 54 -69 54h-77l-21 -133h77z" />
    <glyph glyph-name="C" unicode="C" horiz-adv-x="521" 
d="M272 124q56 0 97 54q18 24 40 7l64 -53q22 -17 5 -39q-43 -55 -94.5 -80t-121.5 -25q-106 0 -164.5 51t-58.5 145q0 11 1 23.5t3 25.5l33 208q18 116 85 175.5t186 59.5q69 0 120.5 -28t80.5 -83q12 -24 -12 -38l-73 -44q-23 -14 -38 11q-16 23 -37 34.5t-50 11.5
q-91 0 -109 -116l-29 -184q-3 -18 -3 -34q0 -82 75 -82z" />
    <glyph glyph-name="D" unicode="D" horiz-adv-x="593" 
d="M351 664q226 0 226 -184q0 -13 -1 -26t-3 -27l-32 -199q-19 -117 -85.5 -172.5t-193.5 -55.5h-207q-30 0 -25 30l96 608q5 26 30 26h195zM416 421q2 8 2 15v14q0 78 -89 78h-65l-61 -392h64q54 0 83 26t38 82z" />
    <glyph glyph-name="E" unicode="E" horiz-adv-x="540" 
d="M451 403q30 0 25 -30l-12 -78q-5 -26 -30 -26h-210l-21 -133h249q31 0 26 -30l-13 -80q-5 -26 -30 -26h-380q-30 0 -25 30l96 608q5 26 30 26h380q30 0 25 -30l-12 -80q-5 -26 -30 -26h-255l-19 -125h206z" />
    <glyph glyph-name="F" unicode="F" horiz-adv-x="512" 
d="M439 394q30 0 25 -30l-12 -80q-5 -26 -30 -26h-200l-37 -232q-5 -26 -30 -26h-100q-30 0 -25 30l96 608q5 26 30 26h370q30 0 25 -30l-12 -80q-5 -26 -30 -26h-245l-21 -134h196z" />
    <glyph glyph-name="G" unicode="G" horiz-adv-x="573" 
d="M533 230q-19 -120 -86 -181t-183 -61q-109 0 -167 50.5t-58 144.5q0 12 1 24t3 26l33 208q18 116 87.5 175.5t190.5 59.5q74 0 129 -28.5t84 -82.5q12 -24 -12 -37l-76 -45q-23 -13 -38 10q-17 23 -41 35t-58 12q-94 0 -113 -116l-29 -184q-3 -20 -3 -35q0 -81 78 -81
q47 0 74 30.5t38 95.5h-70q-30 0 -25 30l12 78q5 26 30 26h193q31 0 26 -30z" />
    <glyph glyph-name="H" unicode="H" horiz-adv-x="622" 
d="M519 26q-5 -26 -30 -26h-100q-30 0 -25 30l37 238h-178l-38 -242q-5 -26 -30 -26h-100q-30 0 -25 30l96 608q5 26 30 26h100q30 0 25 -30l-36 -230h178l37 234q5 26 30 26h100q30 0 25 -30z" />
    <glyph glyph-name="I" unicode="I" horiz-adv-x="288" 
d="M185 26q-5 -26 -30 -26h-100q-30 0 -25 30l96 608q5 26 30 26h100q30 0 25 -30z" />
    <glyph glyph-name="J" unicode="J" horiz-adv-x="525" 
d="M461 216q-18 -113 -80 -170.5t-172 -57.5q-74 0 -126.5 26t-82.5 74q-13 22 9 38l71 52q21 15 39 -7q34 -47 90 -47q38 0 64.5 27t34.5 80l64 407q5 26 30 26h100q30 0 25 -30z" />
    <glyph glyph-name="K" unicode="K" horiz-adv-x="589" 
d="M593 664q18 0 22.5 -10t-6.5 -24l-239 -295l152 -302q8 -14 2.5 -23.5t-22.5 -9.5h-121q-23 0 -33 21l-119 265h-2l-42 -260q-5 -26 -30 -26h-100q-30 0 -25 30l96 608q5 26 30 26h100q30 0 25 -30l-38 -233h2l190 246q13 17 34 17h124z" />
    <glyph glyph-name="L" unicode="L" horiz-adv-x="505" 
d="M437 136q31 0 26 -30l-13 -80q-5 -26 -30 -26h-365q-30 0 -25 30l96 608q5 26 30 26h100q30 0 25 -30l-78 -498h234z" />
    <glyph glyph-name="M" unicode="M" horiz-adv-x="837" 
d="M805 664q30 0 25 -30l-96 -608q-5 -26 -30 -26h-99q-31 0 -26 30l68 428h-2l-199 -437q-11 -21 -33 -21h-69q-25 0 -30 26l-64 422h-2l-67 -422q-5 -26 -30 -26h-96q-30 0 -25 30l96 608q5 26 30 26h165q27 0 30 -26l59 -404h2l184 409q9 21 33 21h176z" />
    <glyph glyph-name="N" unicode="N" horiz-adv-x="622" 
d="M590 664q30 0 25 -30l-96 -608q-5 -26 -30 -26h-100q-25 0 -31 23l-116 385h-2l-59 -382q-5 -26 -30 -26h-96q-30 0 -25 30l96 608q5 26 30 26h112q25 0 31 -23l109 -361h2l54 358q5 26 30 26h96z" />
    <glyph glyph-name="O" unicode="O" horiz-adv-x="596" 
d="M76 441q18 116 86.5 175.5t186.5 59.5q110 0 170.5 -51t60.5 -144q0 -12 -1 -24.5t-3 -25.5l-33 -208q-18 -116 -86.5 -175.5t-186.5 -59.5q-111 0 -171 51t-60 145q0 26 4 49zM200 240q-3 -20 -3 -35q0 -81 80 -81q95 0 113 116l29 184q3 19 3 36q0 80 -79 80
q-95 0 -114 -116z" />
    <glyph glyph-name="P" unicode="P" horiz-adv-x="558" 
d="M343 664q221 0 221 -190q0 -130 -68 -190t-215 -60h-65l-31 -198q-5 -26 -30 -26h-100q-30 0 -25 30l96 608q5 26 30 26h187zM406 461q0 67 -81 67h-60l-27 -168h60q56 0 82 24t26 77z" />
    <glyph glyph-name="Q" unicode="Q" horiz-adv-x="596" 
d="M349 676q110 0 170.5 -51t60.5 -144q0 -12 -1 -24.5t-3 -25.5l-33 -208q-27 -177 -172 -221q-3 -43 43 -43q19 0 39 11q29 14 36 -15l17 -61q6 -26 -15 -36q-47 -23 -102 -23q-82 0 -122.5 40t-38.5 115q-91 9 -140 59t-49 135q0 26 4 49l33 208q18 116 86.5 175.5
t186.5 59.5zM419 424q3 19 3 36q0 80 -79 80q-95 0 -114 -116l-29 -184q-3 -20 -3 -35q0 -81 80 -81q95 0 113 116z" />
    <glyph glyph-name="R" unicode="R" horiz-adv-x="570" 
d="M493 32q6 -14 0 -23t-22 -9h-112q-25 0 -32 23l-70 215h-38l-34 -212q-5 -26 -30 -26h-100q-30 0 -25 30l96 608q5 26 30 26h185q108 0 163.5 -46.5t55.5 -140.5q0 -90 -39 -147t-115 -78zM402 464q0 64 -78 64h-59l-25 -158h59q54 0 78.5 23t24.5 71z" />
    <glyph glyph-name="S" unicode="S" horiz-adv-x="524" 
d="M321 676q135 0 201 -72q18 -20 -4 -39l-69 -60q-19 -16 -40 3q-37 32 -96 32q-42 0 -66 -21t-24 -57q0 -23 20 -36.5t75 -22.5q96 -16 137 -58t41 -118q0 -56 -17.5 -100t-50.5 -75t-80.5 -47.5t-106.5 -16.5q-153 0 -229 88q-17 20 4 39l70 60q11 9 20 8t20 -11
q48 -48 124 -48q89 0 89 79q0 23 -20 36t-75 23q-97 17 -137.5 59t-40.5 117q0 55 18 99t51 75t80 47.5t106 16.5z" />
    <glyph glyph-name="T" unicode="T" horiz-adv-x="516" 
d="M299 26q-5 -26 -30 -26h-100q-30 0 -25 30l78 498h-131q-30 0 -25 30l12 80q5 26 30 26h424q30 0 25 -30l-12 -80q-5 -26 -30 -26h-137z" />
    <glyph glyph-name="U" unicode="U" horiz-adv-x="588" 
d="M524 216q-18 -113 -82 -170.5t-176 -57.5q-104 0 -161 49t-57 140q0 11 1 23.5t3 25.5l65 412q5 26 30 26h100q30 0 25 -30l-64 -405q-3 -18 -3 -33q0 -72 70 -72q42 0 66.5 25.5t32.5 79.5l65 409q5 26 30 26h96q30 0 25 -30z" />
    <glyph glyph-name="V" unicode="V" horiz-adv-x="584" 
d="M600 664q16 0 22 -9t-1 -24l-276 -610q-11 -21 -33 -21h-117q-27 0 -30 26l-83 608q-5 30 26 30h102q26 0 29 -26l46 -418h2l176 422q9 22 32 22h105z" />
    <glyph glyph-name="W" unicode="W" horiz-adv-x="860" 
d="M876 664q16 0 22 -9t0 -23l-248 -610q-9 -22 -33 -22h-107q-26 0 -29 27l-30 358h-2l-143 -363q-9 -22 -33 -22h-107q-26 0 -29 27l-55 608q-3 29 26 29h106q26 0 28 -27l18 -395h2l156 400q9 22 33 22h79q27 0 29 -27l30 -394h2l148 399q9 22 32 22h105z" />
    <glyph glyph-name="X" unicode="X" horiz-adv-x="594" 
d="M596 664q18 0 23 -10t-5 -24l-208 -291l120 -307q5 -14 -0.5 -23t-21.5 -9h-113q-23 0 -32 23l-65 191h-2l-130 -196q-11 -18 -34 -18h-117q-18 0 -23 10t5 24l221 311l-113 287q-5 14 0.5 23t21.5 9h114q25 0 32 -23l58 -169h2l114 174q12 18 34 18h119z" />
    <glyph glyph-name="Y" unicode="Y" horiz-adv-x="558" 
d="M593 664q17 0 22 -10t-5 -24l-251 -361l-39 -243q-5 -26 -30 -26h-100q-30 0 -25 30l39 250l-136 352q-5 14 1 23t22 9h114q25 0 32 -23l66 -203h2l134 208q12 18 34 18h120z" />
    <glyph glyph-name="Z" unicode="Z" horiz-adv-x="535" 
d="M448 136q30 0 25 -30l-12 -80q-5 -26 -30 -26h-405q-30 0 -25 30l14 92q3 19 15 33l315 373h-220q-30 0 -25 30l12 80q5 26 30 26h385q30 0 25 -30l-14 -92q-3 -19 -15 -33l-315 -373h240z" />
    <glyph glyph-name="bracketleft" unicode="[" horiz-adv-x="354" 
d="M250 22q12 0 18 -6.5t4 -19.5l-10 -64q-3 -22 -25 -22h-191q-12 0 -18 6.5t-4 19.5l112 706q3 22 25 22h191q25 0 22 -26l-10 -64q-4 -22 -26 -22h-75l-83 -530h70z" />
    <glyph glyph-name="backslash" unicode="\" horiz-adv-x="370" 
d="M180 664q22 0 26 -22l107 -616q2 -12 -4 -19t-18 -7h-78q-22 0 -26 22l-107 616q-2 12 4 19t18 7h78z" />
    <glyph glyph-name="bracketright" unicode="]" horiz-adv-x="354" 
d="M227 -68q-3 -22 -25 -22h-191q-25 0 -22 26l10 64q4 22 26 22h75l83 530h-70q-12 0 -18 6.5t-4 19.5l10 64q3 22 25 22h191q12 0 18 -6.5t4 -19.5z" />
    <glyph glyph-name="asciicircum" unicode="^" horiz-adv-x="530" 
d="M170 276q-12 -18 -34 -18h-95q-17 0 -22.5 10t4.5 24l225 315q11 17 33 17h77q24 0 33 -22l123 -312q6 -14 0 -23t-22 -9h-84q-25 0 -32 22l-72 191z" />
    <glyph glyph-name="underscore" unicode="_" horiz-adv-x="500" 
d="M440 -120h-500l13 80h500z" />
    <glyph glyph-name="grave" unicode="`" horiz-adv-x="500" 
d="M265 565q-17 0 -26 16l-63 117q-7 13 -2 21t19 8h93q19 0 28 -19l48 -117q10 -26 -18 -26h-79z" />
    <glyph glyph-name="a" unicode="a" horiz-adv-x="464" 
d="M245 512q91 0 141.5 -42t50.5 -123q0 -19 -3 -38l-21 -134q-30 -187 -223 -187q-87 0 -132.5 38t-45.5 111q0 83 49 125t154 42h76q2 7 2 13.5v12.5q0 32 -17 46t-51 14q-20 0 -41 -7.5t-40 -19.5q-26 -18 -37 10l-26 60q-11 25 14 39q37 22 72.5 31t77.5 9zM200 110
q61 0 73 78l3 21h-52q-33 0 -51 -15.5t-18 -41.5q0 -20 12 -31t33 -11z" />
    <glyph glyph-name="b" unicode="b" horiz-adv-x="490" 
d="M309 512q77 0 116.5 -39.5t39.5 -111.5q0 -23 -4 -46l-22 -140q-30 -187 -219 -187q-90 0 -138.5 41.5t-48.5 116.5q0 19 3 39l78 489q5 26 30 26h86q30 0 25 -30l-28 -181h2q32 23 80 23zM318 312q2 7 2 13.5v12.5q0 52 -49 52q-61 0 -73 -78l-19 -124q-1 -7 -1.5 -13
t-0.5 -12q0 -53 49 -53q61 0 73 78z" />
    <glyph glyph-name="c" unicode="c" horiz-adv-x="395" 
d="M352 67q12 -25 -8 -39q-28 -20 -59.5 -30t-69.5 -10q-90 0 -140.5 42t-50.5 123q0 11 1 21t3 22l19 119q16 100 71.5 148.5t149.5 48.5q42 0 74 -9.5t54 -25.5t4 -39l-42 -52q-8 -11 -17.5 -11.5t-21.5 5.5q-19 10 -47 10q-34 0 -55.5 -20.5t-29.5 -67.5l-17 -104
q-1 -7 -1.5 -13t-0.5 -11q0 -34 16.5 -49t47.5 -15q15 0 27.5 5.5t24.5 15.5q25 19 39 -7z" />
    <glyph glyph-name="d" unicode="d" horiz-adv-x="490" 
d="M482 700q30 0 25 -30l-78 -495q-30 -187 -219 -187q-90 0 -138.5 41.5t-48.5 116.5q0 19 3 39l22 140q15 93 65 140t132 47q58 0 88 -33h2l31 195q5 26 30 26h86zM308 312q2 8 2 13v11q0 54 -49 54q-61 0 -73 -78l-19 -124q-2 -8 -2 -13.5v-11.5q0 -53 49 -53q61 0 73 78
z" />
    <glyph glyph-name="e" unicode="e" horiz-adv-x="463" 
d="M263 512q88 0 135.5 -41.5t47.5 -116.5q0 -18 -3 -39l-13 -80q-5 -26 -30 -26h-229q-3 -20 -3 -37q0 -35 16.5 -48.5t52.5 -13.5q21 0 40 7t39 21q25 18 38 -7l30 -57q13 -24 -8 -39q-67 -47 -149 -47q-99 0 -151 41t-52 122q0 11 1 22t3 23l20 129q30 187 215 187z
M261 390q-30 0 -49 -19t-24 -58l-1 -9h120q2 11 2.5 19.5t0.5 14.5q0 52 -49 52z" />
    <glyph glyph-name="f" unicode="f" horiz-adv-x="349" 
d="M325 590q-26 0 -44 -17.5t-23 -47.5l-4 -25h98q30 0 25 -30l-10 -66q-5 -26 -30 -26h-102l-56 -352q-5 -26 -30 -26h-86q-30 0 -25 30l55 348h-28q-30 0 -25 30l10 66q5 26 30 26h32l4 25q30 187 203 187q61 0 106 -17q26 -11 13 -37l-29 -60q-6 -13 -14 -15.5t-19 0.5
q-12 4 -25 5.5t-26 1.5z" />
    <glyph glyph-name="g" unicode="g" horiz-adv-x="490" 
d="M267 512q90 0 138.5 -41t48.5 -116q0 -19 -3 -40l-48 -304q-14 -89 -70.5 -136t-150.5 -47q-51 0 -94 13.5t-73 36.5q-20 17 -3 39l40 55q15 21 39 5q21 -15 43 -21.5t45 -6.5q72 0 83 69l2 12h-2q-30 -21 -76 -21q-77 0 -118.5 40t-41.5 112q0 11 1 22t3 23l19 119
q29 187 218 187zM309 312q1 7 1.5 13t0.5 11q0 54 -50 54q-60 0 -72 -78l-17 -103q-1 -7 -1.5 -13t-0.5 -11q0 -54 50 -54q60 0 72 78z" />
    <glyph glyph-name="h" unicode="h" horiz-adv-x="496" 
d="M315 512q72 0 109 -38t37 -107q0 -26 -4 -49l-46 -292q-5 -26 -30 -26h-86q-30 0 -25 30l45 286q1 7 1.5 13t0.5 12q0 49 -46 49q-56 0 -68 -74l-46 -290q-5 -26 -30 -26h-86q-30 0 -25 30l102 644q5 26 30 26h86q30 0 25 -30l-29 -181h2q34 23 83 23z" />
    <glyph glyph-name="i" unicode="i" horiz-adv-x="246" 
d="M179 566q-34 0 -54.5 20.5t-20.5 52.5q0 38 24 62.5t61 24.5q35 0 55 -20.5t20 -53.5q0 -38 -24.5 -62t-60.5 -24zM41 0q-30 0 -25 30l70 444q5 26 30 26h86q30 0 25 -30l-70 -444q-5 -26 -30 -26h-86z" />
    <glyph glyph-name="j" unicode="j" horiz-adv-x="246" 
d="M179 566q-34 0 -54.5 20.5t-20.5 52.5q0 38 24 62.5t61 24.5q35 0 55 -20.5t20 -53.5q0 -38 -24.5 -62t-60.5 -24zM-41 -38q26 0 37.5 10.5t16.5 37.5l73 464q5 26 30 26h86q30 0 25 -30l-73 -465q-14 -85 -58.5 -125t-124.5 -40h-27q-30 0 -25 30l10 66q5 26 30 26z" />
    <glyph glyph-name="k" unicode="k" horiz-adv-x="489" 
d="M477 500q18 0 22.5 -10t-6.5 -24l-173 -211l112 -222q8 -14 2.5 -23.5t-22.5 -9.5h-103q-23 0 -32 21l-88 197h-2l-30 -192q-5 -26 -30 -26h-86q-30 0 -25 30l102 644q5 26 30 26h86q30 0 25 -30l-58 -366h2l136 179q13 17 34 17h104z" />
    <glyph glyph-name="l" unicode="l" horiz-adv-x="246" 
d="M41 0q-30 0 -25 30l102 644q5 26 30 26h86q30 0 25 -30l-102 -644q-5 -26 -30 -26h-86z" />
    <glyph glyph-name="m" unicode="m" horiz-adv-x="742" 
d="M533 512q83 0 128.5 -40.5t45.5 -112.5q0 -10 -1 -20t-3 -22l-46 -291q-5 -26 -30 -26h-86q-30 0 -25 30l45 287q1 7 1.5 13t0.5 11q0 49 -45 49q-55 0 -67 -73l-46 -291q-5 -26 -30 -26h-86q-30 0 -25 30l45 287q1 7 1.5 13t0.5 11q0 49 -46 49q-54 0 -66 -73l-46 -291
q-5 -26 -30 -26h-86q-30 0 -25 30l47 297q29 185 203 185q89 0 132 -51h2q49 51 137 51z" />
    <glyph glyph-name="n" unicode="n" horiz-adv-x="492" 
d="M311 316q1 7 1.5 13t0.5 12q0 49 -46 49q-56 0 -68 -74l-46 -290q-5 -26 -30 -26h-86q-30 0 -25 30l47 298q29 184 214 184q88 0 135.5 -40t47.5 -114q0 -19 -3 -40l-46 -292q-5 -26 -30 -26h-86q-30 0 -25 30z" />
    <glyph glyph-name="o" unicode="o" horiz-adv-x="480" 
d="M267 512q90 0 138.5 -41.5t48.5 -116.5q0 -20 -3 -39l-22 -140q-30 -187 -219 -187q-90 0 -138.5 41.5t-48.5 116.5q0 19 3 39l22 140q30 187 219 187zM308 312q2 7 2 13.5v12.5q0 52 -49 52q-61 0 -73 -78l-19 -124q-1 -7 -1.5 -13t-0.5 -12q0 -53 49 -53q61 0 73 78z
" />
    <glyph glyph-name="p" unicode="p" horiz-adv-x="490" 
d="M277 512q90 0 138.5 -41t48.5 -116q0 -19 -3 -40l-22 -140q-15 -93 -65 -140t-132 -47q-57 0 -87 33h-2l-25 -155q-5 -26 -30 -26h-86q-30 0 -25 30l72 455q29 187 218 187zM319 312q1 7 1.5 13t0.5 11q0 54 -50 54q-60 0 -72 -78l-20 -124q-1 -6 -1.5 -12t-0.5 -11
q0 -55 50 -55q60 0 72 78z" />
    <glyph glyph-name="q" unicode="q" horiz-adv-x="490" 
d="M267 512q90 0 138.5 -41t48.5 -116q0 -19 -3 -40l-71 -449q-5 -26 -30 -26h-86q-30 0 -25 30l22 142h-2q-32 -24 -81 -24q-77 0 -116.5 39.5t-39.5 111.5q0 11 1 22.5t3 23.5l23 140q30 187 218 187zM309 312q1 7 1.5 13t0.5 11q0 54 -50 54q-60 0 -72 -78l-20 -124
q-1 -7 -1.5 -13t-0.5 -11q0 -54 50 -54q60 0 72 78z" />
    <glyph glyph-name="r" unicode="r" horiz-adv-x="369" 
d="M58 320q15 97 64 144.5t137 47.5q69 0 116 -26q23 -14 8 -38l-36 -60q-14 -21 -39 -8q-20 10 -43 10q-26 0 -43 -17.5t-22 -49.5l-47 -297q-5 -26 -30 -26h-86q-30 0 -25 30z" />
    <glyph glyph-name="s" unicode="s" horiz-adv-x="417" 
d="M180 -12q-59 0 -101 11.5t-75 37.5q-21 17 -4 39l43 57q15 21 39 5q22 -15 47 -22.5t49 -7.5q67 0 67 42q0 16 -15 25t-54 16q-74 13 -105.5 46t-31.5 91q0 85 57 134.5t155 49.5q89 0 145 -36q22 -13 6 -38l-39 -56q-8 -11 -17.5 -12.5t-21.5 4.5q-32 18 -72 18
q-72 0 -72 -41q0 -15 14 -24.5t53 -15.5q76 -11 108 -45t32 -94q0 -86 -55 -135t-152 -49z" />
    <glyph glyph-name="t" unicode="t" horiz-adv-x="363" 
d="M202 168q-1 -5 -1 -14q0 -44 50 -44q16 0 28 4q14 5 22.5 1t10.5 -19l9 -64q3 -27 -20 -34q-17 -5 -36 -7.5t-38 -2.5q-84 0 -127 36t-43 108q0 11 1 21.5t3 22.5l32 202h-28q-30 0 -25 30l10 66q5 26 30 26h32l16 101q5 26 30 26h86q30 0 25 -30l-15 -97h98q30 0 25 -30
l-10 -66q-5 -26 -30 -26h-102z" />
    <glyph glyph-name="u" unicode="u" horiz-adv-x="486" 
d="M424 169q-29 -181 -211 -181q-87 0 -134 40t-47 113q0 18 3 38l47 295q5 26 30 26h86q30 0 25 -30l-46 -292q-1 -6 -1.5 -11.5t-0.5 -10.5q0 -46 46 -46q56 0 66 68l47 296q5 26 30 26h82q30 0 25 -30z" />
    <glyph glyph-name="v" unicode="v" horiz-adv-x="472" 
d="M469 500q16 0 22 -9t-1 -24l-207 -446q-11 -21 -33 -21h-105q-25 0 -30 26l-66 444q-5 30 26 30h87q27 0 30 -27l29 -305h2l126 310q9 22 32 22h88z" />
    <glyph glyph-name="w" unicode="w" horiz-adv-x="713" 
d="M709 500q16 0 22 -9t-1 -24l-186 -445q-9 -22 -32 -22h-97q-27 0 -30 26l-24 256h-2l-105 -260q-9 -22 -32 -22h-97q-27 0 -30 26l-45 445q-3 29 27 29h85q27 0 29 -27l18 -294h2l122 299q9 22 32 22h55q27 0 30 -26l29 -290h2l109 294q9 22 33 22h86z" />
    <glyph glyph-name="x" unicode="x" horiz-adv-x="485" 
d="M464 500q18 0 23 -10t-5 -24l-152 -210l91 -224q6 -14 0 -23t-22 -9h-97q-24 0 -31 23l-42 133h-2l-87 -138q-12 -18 -34 -18h-99q-18 0 -23 10t5 24l166 230l-83 204q-6 14 0 23t22 9h98q24 0 31 -23l35 -111h2l72 115q12 19 34 19h98z" />
    <glyph glyph-name="y" unicode="y" horiz-adv-x="496" 
d="M452 500q30 0 25 -30l-72 -459q-14 -89 -70.5 -136t-150.5 -47q-51 0 -94 13.5t-73 36.5q-20 17 -3 39l40 55q15 21 39 5q21 -15 43 -21.5t45 -6.5q72 0 83 69l2 14h-2q-33 -24 -83 -24q-72 0 -109 38.5t-37 108.5q0 11 1 22.5t3 24.5l43 272q5 26 30 26h86q30 0 25 -30
l-42 -266q-1 -7 -1.5 -13t-0.5 -11q0 -50 47 -50q55 0 67 74l43 270q5 26 30 26h86z" />
    <glyph glyph-name="z" unicode="z" horiz-adv-x="440" 
d="M355 122q30 0 25 -30l-10 -66q-5 -26 -30 -26h-318q-30 0 -25 30l12 79q2 11 5.5 18t10.5 15l224 236h-152q-30 0 -25 30l10 66q5 26 30 26h298q30 0 25 -30l-12 -79q-2 -11 -5.5 -18t-10.5 -15l-224 -236h172z" />
    <glyph glyph-name="braceleft" unicode="{" horiz-adv-x="364" 
d="M362 664q12 0 18 -6.5t4 -19.5l-10 -64q-4 -22 -27 -22q-31 0 -46 -17t-22 -61l-10 -62q-8 -54 -35 -84.5t-78 -41.5v-2q77 -15 77 -90q0 -16 -3 -32l-10 -62q-3 -17 -3 -29q0 -26 11.5 -37.5t34.5 -11.5q24 0 19 -26l-10 -64q-3 -22 -25 -22h-29q-75 0 -111 30t-36 92
q0 18 3 41l11 73q3 19 3 34q0 28 -11 37t-28 14q-19 5 -16 28l10 65q3 19 25 20q28 2 41.5 22.5t20.5 61.5l11 73q7 45 21 76t37.5 50.5t57 28t80.5 8.5h25z" />
    <glyph glyph-name="bar" unicode="|" horiz-adv-x="265" 
d="M33 -160q-26 0 -21 25l129 814q3 21 24 21h71q26 0 21 -25l-129 -814q-3 -21 -24 -21h-71z" />
    <glyph glyph-name="braceright" unicode="}" horiz-adv-x="364" 
d="M324 343q19 -5 16 -28l-10 -65q-3 -19 -25 -20q-28 -2 -41.5 -22.5t-20.5 -61.5l-11 -73q-7 -45 -21 -76t-37.5 -50.5t-57.5 -28t-80 -8.5h-25q-12 0 -18 6.5t-4 19.5l10 64q4 22 27 22q31 0 46 17t22 61l10 62q8 54 35 84.5t78 41.5v2q-77 15 -77 90q0 15 3 32l10 62
q3 16 3 29q0 26 -11.5 37.5t-34.5 11.5q-24 0 -19 26l10 64q3 22 25 22h29q75 0 111 -30t36 -92q0 -19 -3 -41l-11 -73q-3 -20 -3 -34q0 -28 11 -37t28 -14z" />
    <glyph glyph-name="asciitilde" unicode="~" horiz-adv-x="530" 
d="M186 244q-20 0 -37 -12.5t-34 -35.5t-39 -8l-57 36q-24 15 -8 39q41 60 82 86.5t90 26.5q31 0 56 -8.5t58 -30.5q18 -13 29.5 -18t24.5 -5q20 0 36.5 12.5t33.5 35.5t39 8l58 -36q24 -15 8 -39q-42 -61 -82.5 -87t-89.5 -26q-31 0 -56 8.5t-58 30.5q-18 13 -29.5 18
t-24.5 5z" />
    <glyph glyph-name="uni00A0" unicode="&#xa0;" horiz-adv-x="215" 
 />
    <glyph glyph-name="exclamdown" unicode="&#xa1;" horiz-adv-x="268" 
d="M192 676q36 0 57.5 -22t21.5 -57q0 -39 -26 -65t-64 -26q-36 0 -57.5 22t-21.5 57q0 39 26 65t64 26zM115 426q6 17 24 17h43q21 0 21 -21l2 -137q0 -10 -0.5 -17t-2.5 -17l-34 -225q-5 -26 -30 -26h-86q-30 0 -25 30l33 221q3 17 8 33z" />
    <glyph glyph-name="cent" unicode="&#xa2;" horiz-adv-x="530" 
d="M442 90q12 -25 -8 -39q-27 -19 -58.5 -30t-72.5 -13l-10 -68q-1 -10 -12 -10h-20q-12 0 -10 12l10 67q-88 5 -135 48t-47 121q0 11 1 23t3 24l15 94q31 205 241 205h4l9 62q1 10 12 10h20q11 0 10 -12l-10 -63q32 -4 57 -13t42 -21q21 -16 3 -39l-45 -56
q-8 -11 -17.5 -11t-20.5 6q-17 8 -39 9l-40 -260q14 2 25 8t22 14q25 19 39 -7zM231 227q-2 -8 -2 -14v-12q0 -55 53 -64l40 259q-33 -5 -52 -26.5t-27 -64.5z" />
    <glyph glyph-name="sterling" unicode="&#xa3;" horiz-adv-x="530" 
d="M530 566q18 -20 -4 -39l-61 -52q-11 -9 -19.5 -7.5t-19.5 10.5q-17 16 -38.5 22t-45.5 6q-39 0 -62 -22.5t-23 -60.5q0 -17 3.5 -34.5t11.5 -46.5h132q12 0 18 -6.5t4 -19.5l-8 -48q-3 -22 -25 -22h-117q-4 -32 -19 -60.5t-40 -53.5v-2h212q31 0 26 -30l-12 -74
q-5 -26 -30 -26h-348q-30 0 -25 30l12 76q3 18 18 32q32 28 50 53.5t23 54.5h-60q-12 0 -18 6.5t-4 19.5l8 48q3 22 25 22h39q-7 18 -11 30.5t-6.5 22.5t-3 19t-0.5 20q0 34 12 70t39 65.5t70.5 48t107.5 18.5q62 0 110 -18t79 -52z" />
    <glyph glyph-name="currency" unicode="&#xa4;" horiz-adv-x="530" 
d="M456 321q0 -59 -28 -103l40 -43q17 -19 -1 -34l-58 -52q-19 -16 -34 2l-42 49q-17 -6 -34.5 -9.5t-36.5 -3.5q-51 0 -90 22l-65 -60q-19 -16 -34 2l-48 52q-16 19 2 34l72 62q-5 13 -6.5 27t-1.5 28q0 61 27 106l-41 44q-16 19 2 34l58 52q19 16 34 -2l41 -47
q17 6 35 9.5t37 3.5q52 0 91 -24l64 60q18 18 34 -2l48 -52q16 -19 -2 -34l-72 -62q9 -27 9 -59zM200 304q0 -30 19 -49t50 -19q34 0 56.5 22.5t22.5 57.5q0 30 -19 49t-50 19q-34 0 -56.5 -22.5t-22.5 -57.5z" />
    <glyph glyph-name="yen" unicode="&#xa5;" horiz-adv-x="530" 
d="M539 624q18 0 23 -10t-6 -24l-199 -264h112q25 0 20 -24l-7 -42q-3 -20 -23 -20h-123l-8 -54h118q25 0 20 -24l-6 -42q-3 -20 -24 -20h-122l-12 -74q-5 -26 -30 -26h-92q-30 0 -25 30l11 70h-119q-25 0 -20 24l6 42q3 20 24 20h123l8 54h-119q-25 0 -20 24l7 42
q3 20 23 20h122l-118 265q-7 15 -1 24t22 9h104q25 0 32 -22l53 -144h2l101 148q11 18 34 18h109z" />
    <glyph glyph-name="brokenbar" unicode="&#xa6;" horiz-adv-x="265" 
d="M113 350q-26 0 -21 25l49 304q3 21 24 21h71q26 0 21 -25l-49 -304q-3 -21 -24 -21h-71zM33 -160q-26 0 -21 25l48 304q3 21 24 21h71q26 0 21 -25l-48 -304q-3 -21 -24 -21h-71z" />
    <glyph glyph-name="section" unicode="&#xa7;" horiz-adv-x="544" 
d="M520 648q20 -20 -3 -39l-55 -47q-10 -9 -19 -8t-20 9q-37 28 -100 28q-41 0 -66.5 -19t-25.5 -48q0 -11 5 -19t17 -14.5t31.5 -11.5t48.5 -10q98 -16 140.5 -51t42.5 -100q0 -119 -105 -171v-2q20 -17 33.5 -41.5t13.5 -61.5q0 -48 -17 -87.5t-48.5 -67.5t-76.5 -43.5
t-100 -15.5q-74 0 -127.5 20t-88.5 58q-18 20 4 39l56 47q11 9 20 8t19 -10q23 -21 55 -31t70 -10q42 0 67 18t25 48q0 21 -21.5 33t-79.5 22q-50 8 -85 20.5t-57 30.5t-32 43t-10 58q0 57 24.5 101t72.5 71v2q-17 16 -28 39.5t-11 58.5q0 102 64.5 160t177.5 58
q65 0 112 -16.5t77 -47.5zM254 347q-35 -10 -58 -34.5t-23 -54.5q0 -27 23.5 -41.5t86.5 -26.5q40 10 65.5 35t25.5 56q0 27 -25.5 41.5t-94.5 24.5z" />
    <glyph glyph-name="dieresis" unicode="&#xa8;" horiz-adv-x="500" 
d="M215 573q-32 0 -50.5 19t-18.5 49q0 35 21.5 57.5t55.5 22.5q32 0 51 -19.5t19 -50.5q0 -35 -22.5 -56.5t-55.5 -21.5zM399 573q-32 0 -50.5 19t-18.5 49q0 35 22 57.5t55 22.5q32 0 51 -19.5t19 -50.5q0 -34 -22 -56t-56 -22z" />
    <glyph glyph-name="copyright" unicode="&#xa9;" horiz-adv-x="752" 
d="M426 676q68 0 124.5 -22.5t97.5 -62.5t63.5 -95t22.5 -120q0 -80 -30.5 -150.5t-82.5 -123.5t-122.5 -83.5t-149.5 -30.5q-68 0 -124.5 22.5t-97.5 62.5t-63.5 95t-22.5 120q0 80 30.5 150.5t82.5 123.5t122 83.5t150 30.5zM355 63q59 0 112.5 24.5t94 66.5t64 97.5
t23.5 117.5q0 51 -16.5 94t-46.5 73.5t-72 47.5t-94 17q-59 0 -112.5 -25t-94 -67t-64 -97.5t-23.5 -116.5q0 -51 16.5 -94t46.5 -73.5t72 -47.5t94 -17zM339 281q-1 -5 -1.5 -9.5t-0.5 -8.5q0 -39 35 -39q23 0 47 24q15 16 31 3l30 -26q17 -15 2 -31q-46 -53 -117 -53
q-60 0 -92 28.5t-32 80.5q0 6 0.5 12.5t1.5 14.5l19 116q20 130 152 130q74 0 108 -55q12 -18 -8 -30l-38 -24q-16 -11 -30 8q-17 18 -39 18q-43 0 -52 -57z" />
    <glyph glyph-name="ordfeminine" unicode="&#xaa;" horiz-adv-x="360" 
d="M215 636q72 0 112.5 -33t40.5 -96q0 -16 -3 -34l-15 -97q-23 -144 -172 -144q-69 0 -105.5 29.5t-36.5 87.5q0 65 37.5 97t118.5 32h53q1 4 1 7.5v6.5q0 40 -49 40q-14 0 -27.5 -4.5t-25.5 -11.5q-23 -14 -33 8l-22 51q-9 22 12 34q29 15 56 21t58 6zM185 336q37 0 45 51
l2 11h-31q-21 0 -32.5 -9.5t-11.5 -25.5q0 -27 28 -27z" />
    <glyph glyph-name="guillemotleft" unicode="&#xab;" horiz-adv-x="498" 
d="M220 83q6 -13 1 -20.5t-19 -7.5h-75q-21 0 -29 18l-77 159q-8 18 4 33l128 166q11 14 29 14h81q15 0 19.5 -8.5t-4.5 -20.5l-132 -172zM432 83q6 -13 1 -20.5t-19 -7.5h-75q-21 0 -29 18l-77 159q-8 18 4 33l128 166q11 14 29 14h81q15 0 19.5 -8.5t-4.5 -20.5l-132 -172
z" />
    <glyph glyph-name="logicalnot" unicode="&#xac;" horiz-adv-x="530" 
d="M485 112q-5 -26 -30 -26h-76q-30 0 -25 30l23 147h-324q-30 0 -25 30l12 76q5 26 30 26h430q30 0 25 -30z" />
    <glyph glyph-name="uni00AD" unicode="&#xad;" horiz-adv-x="340" 
d="M293 343q30 0 25 -30l-12 -80q-5 -26 -30 -26h-224q-30 0 -25 30l12 80q5 26 30 26h224z" />
    <glyph glyph-name="registered" unicode="&#xae;" horiz-adv-x="752" 
d="M420 516q60 0 91.5 -25t31.5 -75q0 -105 -89 -131l47 -111q11 -26 -17 -26h-61q-19 0 -25 18l-44 134l-21 -132q-3 -20 -23 -20h-51q-25 0 -20 24l52 324q3 20 23 20h106zM397 358q22 0 35 11t13 32q0 32 -36 32h-33l-12 -75h33zM426 676q68 0 124.5 -22.5t97.5 -62.5
t63.5 -95t22.5 -120q0 -80 -30.5 -150.5t-82.5 -123.5t-122.5 -83.5t-149.5 -30.5q-68 0 -124.5 22.5t-97.5 62.5t-63.5 95t-22.5 120q0 80 30.5 150.5t82.5 123.5t122 83.5t150 30.5zM355 63q59 0 112.5 24.5t94 66.5t64 97.5t23.5 117.5q0 51 -16.5 94t-46.5 73.5
t-72 47.5t-94 17q-59 0 -112.5 -25t-94 -67t-64 -97.5t-23.5 -116.5q0 -51 16.5 -94t46.5 -73.5t72 -47.5t94 -17z" />
    <glyph glyph-name="macron" unicode="&#xaf;" horiz-adv-x="500" 
d="M449 602q-4 -22 -26 -22h-239q-25 0 -22 26l10 64q4 22 26 22h239q12 0 18 -6.5t4 -19.5z" />
    <glyph glyph-name="degree" unicode="&#xb0;" horiz-adv-x="368" 
d="M206 312q-33 0 -60.5 11t-47 30.5t-30.5 47t-11 59.5q0 37 13.5 69.5t36.5 56t55 37t68 13.5q33 0 60.5 -11t47 -30.5t30.5 -47t11 -59.5q0 -38 -13 -70t-36.5 -55.5t-55 -37t-68.5 -13.5zM211 407q29 0 49.5 21t20.5 53q0 26 -15 43t-41 17q-29 0 -49.5 -21t-20.5 -53
q0 -26 15 -43t41 -17z" />
    <glyph glyph-name="plusminus" unicode="&#xb1;" horiz-adv-x="530" 
d="M453 132q30 0 25 -30l-12 -76q-5 -26 -30 -26h-420q-30 0 -25 30l12 76q5 26 30 26h146l20 131h-141q-30 0 -25 30l12 76q5 26 30 26h146l19 121q5 26 30 26h76q30 0 25 -30l-18 -117h142q30 0 25 -30l-12 -76q-5 -26 -30 -26h-147l-20 -131h142z" />
    <glyph glyph-name="uni00B2" unicode="&#xb2;" 
d="M304 453q26 0 21 -25l-7 -43q-3 -21 -24 -21h-212q-26 0 -21 25l7 44q2 8 4.5 14.5t9.5 12.5l152 131q17 15 23 26t6 21q0 14 -9 21.5t-24 7.5q-26 0 -52 -29q-17 -19 -33 -1l-30 34q-16 16 0 32q27 27 59 40t66 13q57 0 89.5 -30t32.5 -84q0 -33 -13.5 -60t-52.5 -58
l-88 -69v-2h96z" />
    <glyph glyph-name="uni00B3" unicode="&#xb3;" 
d="M297 555q41 -25 41 -78q0 -58 -38.5 -89.5t-111.5 -31.5q-42 0 -72.5 13t-51.5 36q-14 16 2 32l30 30q15 15 33 0q13 -12 28 -17t31 -5q53 0 53 39q0 18 -13 25t-47 7q-24 0 -19 25l6 39q3 21 25 21q37 0 50 8t13 30q0 28 -35 28q-25 0 -57 -29q-18 -17 -32 3l-26 39
q-12 19 4 32q29 23 60 33.5t63 10.5q57 0 90 -29t33 -80q0 -69 -59 -90v-2z" />
    <glyph glyph-name="acute" unicode="&#xb4;" horiz-adv-x="500" 
d="M368 577q-9 -12 -27 -12h-90q-14 0 -18 8t4 19l88 120q11 15 29 15h102q16 0 20 -9t-6 -20z" />
    <glyph glyph-name="uni00B5" unicode="&#xb5;" horiz-adv-x="496" 
d="M456 500q30 0 25 -30l-47 -298q-14 -92 -61.5 -138t-124.5 -46q-59 0 -89 33h-2l-25 -155q-5 -26 -30 -26h-86q-30 0 -25 30l95 604q5 26 30 26h86q30 0 25 -30l-45 -286q-2 -8 -2 -13v-10q0 -51 46 -51q56 0 68 74l46 290q5 26 30 26h86z" />
    <glyph glyph-name="paragraph" unicode="&#xb6;" horiz-adv-x="582" 
d="M367 -160q-26 0 -21 25l114 719h-70l-114 -723q-3 -21 -24 -21h-65q-26 0 -21 25l63 397q-175 18 -175 177q0 134 68.5 197.5t215.5 63.5h226q26 0 21 -25l-129 -814q-3 -21 -24 -21h-65z" />
    <glyph glyph-name="periodcentered" unicode="&#xb7;" horiz-adv-x="266" 
d="M136 227q-36 0 -57.5 22t-21.5 57q0 39 26 65t64 26q36 0 57.5 -22t21.5 -57q0 -39 -26 -65t-64 -26z" />
    <glyph glyph-name="cedilla" unicode="&#xb8;" horiz-adv-x="500" 
d="M229 -34q30 -5 45.5 -22.5t15.5 -40.5q0 -37 -28 -56t-79 -19q-48 0 -79 15q-19 10 -10 33l9 23q5 11 13.5 13t19.5 -3q9 -4 19.5 -7t20.5 -3q19 0 26 6t7 15q0 7 -6.5 13t-20.5 6q-11 0 -17 6.5t-2 18.5l21 64h67z" />
    <glyph glyph-name="uni00B9" unicode="&#xb9;" 
d="M285 384q-3 -21 -24 -21h-53q-26 0 -21 25l35 228l-36 -25q-20 -12 -32 7l-21 35q-11 19 7 32l111 75q13 9 29 9h39q26 0 21 -25z" />
    <glyph glyph-name="ordmasculine" unicode="&#xba;" horiz-adv-x="375" 
d="M235 636q71 0 109.5 -33t38.5 -91v-15t-2 -15l-16 -106q-23 -144 -170 -144q-71 0 -109.5 33t-38.5 92v14t2 15l17 106q23 144 169 144zM260 481q1 5 1.5 9t0.5 8q0 34 -32 34q-36 0 -45 -51l-15 -94q-1 -5 -1 -8.5v-7.5q0 -35 30 -35q38 0 46 51z" />
    <glyph glyph-name="guillemotright" unicode="&#xbb;" horiz-adv-x="498" 
d="M130 69q-11 -14 -29 -14h-81q-15 0 -19.5 8.5t4.5 20.5l132 172l-74 161q-6 13 -1 20.5t19 7.5h75q21 0 29 -18l77 -159q8 -18 -4 -33zM342 69q-11 -14 -29 -14h-81q-15 0 -19.5 8.5t4.5 20.5l132 172l-74 161q-6 13 -1 20.5t19 7.5h75q21 0 29 -18l77 -159q8 -18 -4 -33
z" />
    <glyph glyph-name="onequarter" unicode="&#xbc;" horiz-adv-x="804" 
d="M635 611q12 13 28 13h68q14 0 18 -8.5t-5 -19.5l-479 -583q-12 -13 -28 -13h-68q-14 0 -18 8.5t5 19.5zM750 163q26 0 21 -25l-7 -43q-3 -21 -24 -21h-22l-9 -53q-3 -21 -24 -21h-53q-26 0 -21 25l8 49h-130q-26 0 -21 25l9 53q3 15 12 27l168 194q12 13 28 13h58
q26 0 21 -25l-32 -198h18zM646 255l-79 -92h66l15 92h-2zM266 259q-3 -21 -24 -21h-53q-26 0 -21 25l35 228l-36 -25q-20 -12 -32 7l-21 35q-11 19 7 32l111 75q13 9 29 9h39q26 0 21 -25z" />
    <glyph glyph-name="onehalf" unicode="&#xbd;" horiz-adv-x="804" 
d="M595 611q12 13 28 13h68q14 0 18 -8.5t-5 -19.5l-479 -583q-12 -13 -28 -13h-68q-14 0 -18 8.5t5 19.5zM721 90q26 0 21 -25l-7 -43q-3 -21 -24 -21h-212q-26 0 -21 25l7 44q2 8 4.5 14.5t9.5 12.5l152 131q17 15 23 26t6 21q0 14 -9 21.5t-24 7.5q-26 0 -52 -29
q-17 -19 -33 -1l-30 34q-16 16 0 32q27 27 59 40t66 13q57 0 89.5 -30t32.5 -84q0 -33 -13.5 -60t-52.5 -58l-88 -69v-2h96zM266 259q-3 -21 -24 -21h-53q-26 0 -21 25l35 228l-36 -25q-20 -12 -32 7l-21 35q-11 19 7 32l111 75q13 9 29 9h39q26 0 21 -25z" />
    <glyph glyph-name="threequarters" unicode="&#xbe;" horiz-adv-x="804" 
d="M630 611q12 13 28 13h68q14 0 18 -8.5t-5 -19.5l-479 -583q-12 -13 -28 -13h-68q-14 0 -18 8.5t5 19.5zM750 163q26 0 21 -25l-7 -43q-3 -21 -24 -21h-22l-9 -53q-3 -21 -24 -21h-53q-26 0 -21 25l8 49h-130q-26 0 -21 25l9 53q3 15 12 27l168 194q12 13 28 13h58
q26 0 21 -25l-32 -198h18zM646 255l-79 -92h66l15 92h-2zM278 430q41 -25 41 -78q0 -58 -38.5 -89.5t-111.5 -31.5q-42 0 -72.5 13t-51.5 36q-14 16 2 32l30 30q15 15 33 0q13 -12 28 -17t31 -5q53 0 53 39q0 18 -13 25t-47 7q-24 0 -19 25l6 39q3 21 25 21q37 0 50 8t13 30
q0 28 -35 28q-25 0 -57 -29q-18 -17 -32 3l-26 39q-12 19 4 32q29 23 60 33.5t63 10.5q57 0 90 -29t33 -80q0 -69 -59 -90v-2z" />
    <glyph glyph-name="questiondown" unicode="&#xbf;" horiz-adv-x="466" 
d="M203 -12q-44 0 -80 12t-61.5 34.5t-39.5 54.5t-14 71q0 68 29 111.5t100 73.5q43 18 60 34.5t21 39.5q3 15 10.5 19.5t20.5 4.5h78q31 0 26 -31q-9 -53 -37.5 -91t-89.5 -71q-41 -22 -56 -40t-15 -41t16.5 -37t45.5 -14q56 0 110 58q21 24 40 2l51 -55q19 -19 -2 -42
q-91 -93 -213 -93zM317 676q36 0 57.5 -22t21.5 -57q0 -39 -26 -65t-64 -26q-36 0 -57.5 22t-21.5 57q0 39 26 65t64 26z" />
    <glyph glyph-name="Agrave" unicode="&#xc0;" horiz-adv-x="602" 
d="M544 30q5 -30 -26 -30h-101q-27 0 -30 26l-8 79h-196l-36 -84q-9 -21 -32 -21h-107q-16 0 -22 9t1 24l282 610q10 21 33 21h123q25 0 30 -26zM337 486l-99 -251h127l-26 251h-2zM342 723q-17 0 -26 16l-63 117q-7 13 -2 21t19 8h93q19 0 28 -19l48 -117q10 -26 -18 -26
h-79z" />
    <glyph glyph-name="Aacute" unicode="&#xc1;" horiz-adv-x="602" 
d="M544 30q5 -30 -26 -30h-101q-27 0 -30 26l-8 79h-196l-36 -84q-9 -21 -32 -21h-107q-16 0 -22 9t1 24l282 610q10 21 33 21h123q25 0 30 -26zM337 486l-99 -251h127l-26 251h-2zM445 735q-9 -12 -27 -12h-90q-14 0 -18 8t4 19l88 120q11 15 29 15h102q16 0 20 -9t-6 -20z
" />
    <glyph glyph-name="Acircumflex" unicode="&#xc2;" horiz-adv-x="602" 
d="M544 30q5 -30 -26 -30h-101q-27 0 -30 26l-8 79h-196l-36 -84q-9 -21 -32 -21h-107q-16 0 -22 9t1 24l282 610q10 21 33 21h123q25 0 30 -26zM337 486l-99 -251h127l-26 251h-2zM347 735q-9 -12 -27 -12h-83q-14 0 -18 8t6 19l102 121q11 14 29 14h87q19 0 28 -17
l61 -119q6 -11 2 -18.5t-17 -7.5h-73q-19 0 -26 16l-26 49z" />
    <glyph glyph-name="Atilde" unicode="&#xc3;" horiz-adv-x="602" 
d="M544 30q5 -30 -26 -30h-101q-27 0 -30 26l-8 79h-196l-36 -84q-9 -21 -32 -21h-107q-16 0 -22 9t1 24l282 610q10 21 33 21h123q25 0 30 -26zM337 486l-99 -251h127l-26 251h-2zM237 726q-25 0 -19 25q15 68 45.5 97t75.5 29q20 0 36.5 -7t33.5 -24q11 -11 17 -14.5
t15 -3.5q17 0 29 29q8 17 25 17h45q26 0 20 -25q-16 -68 -46 -97t-75 -29q-39 0 -70 31q-11 11 -17 14.5t-15 3.5q-8 0 -16 -7t-13 -21q-7 -18 -26 -18h-45z" />
    <glyph glyph-name="Adieresis" unicode="&#xc4;" horiz-adv-x="602" 
d="M544 30q5 -30 -26 -30h-101q-27 0 -30 26l-8 79h-196l-36 -84q-9 -21 -32 -21h-107q-16 0 -22 9t1 24l282 610q10 21 33 21h123q25 0 30 -26zM337 486l-99 -251h127l-26 251h-2zM292 731q-32 0 -50.5 19t-18.5 49q0 35 21.5 57.5t55.5 22.5q32 0 51 -19.5t19 -50.5
q0 -35 -22.5 -56.5t-55.5 -21.5zM476 731q-32 0 -50.5 19t-18.5 49q0 35 22 57.5t55 22.5q32 0 51 -19.5t19 -50.5q0 -34 -22 -56t-56 -22z" />
    <glyph glyph-name="Aring" unicode="&#xc5;" horiz-adv-x="602" 
d="M544 30q5 -30 -26 -30h-101q-27 0 -30 26l-8 79h-196l-36 -84q-9 -21 -32 -21h-107q-16 0 -22 9t1 24l282 610q10 21 33 21h123q25 0 30 -26zM337 486l-99 -251h127l-26 251h-2zM382 711q-38 0 -62 24t-24 61q0 21 8 38.5t21.5 30.5t31.5 20.5t38 7.5q38 0 62 -24t24 -61
q0 -21 -8 -38.5t-21.5 -30.5t-31.5 -20.5t-38 -7.5zM385 770q14 0 24.5 10t10.5 24q0 13 -8 21.5t-21 8.5q-14 0 -24.5 -10t-10.5 -24q0 -13 8 -21.5t21 -8.5z" />
    <glyph glyph-name="AE" unicode="&#xc6;" horiz-adv-x="861" 
d="M857 664q30 0 25 -30l-12 -80q-5 -26 -30 -26h-255l-19 -125h206q30 0 25 -30l-12 -78q-5 -26 -30 -26h-210l-21 -133h249q31 0 26 -30l-13 -80q-5 -26 -30 -26h-379q-31 0 -26 30l12 75h-168l-53 -86q-12 -19 -33 -19h-119q-17 0 -22.5 10t4.5 24l396 612q12 18 34 18
h455zM421 484l-146 -249h108l40 249h-2z" />
    <glyph glyph-name="Ccedilla" unicode="&#xc7;" horiz-adv-x="521" 
d="M548 565q12 -24 -12 -38l-73 -44q-23 -14 -38 11q-16 23 -37 34.5t-50 11.5q-91 0 -109 -116l-29 -184q-3 -18 -3 -34q0 -82 75 -82q56 0 97 54q18 24 40 7l64 -53q22 -17 5 -39q-42 -53 -90.5 -78t-114.5 -27l-8 -22q30 -5 45.5 -22.5t15.5 -40.5q0 -37 -28 -56t-79 -19
q-48 0 -79 15q-19 10 -10 33l9 23q5 11 13.5 13t19.5 -3q9 -4 19.5 -7t20.5 -3q19 0 26 6t7 15q0 7 -6.5 13t-20.5 6q-11 0 -17 6.5t-2 18.5l9 28q-81 13 -125 62t-44 130q0 11 1 23.5t3 25.5l33 208q18 116 85 175.5t186 59.5q69 0 120.5 -28t80.5 -83z" />
    <glyph glyph-name="Egrave" unicode="&#xc8;" horiz-adv-x="540" 
d="M451 403q30 0 25 -30l-12 -78q-5 -26 -30 -26h-210l-21 -133h249q31 0 26 -30l-13 -80q-5 -26 -30 -26h-380q-30 0 -25 30l96 608q5 26 30 26h380q30 0 25 -30l-12 -80q-5 -26 -30 -26h-255l-19 -125h206zM324 723q-17 0 -26 16l-63 117q-7 13 -2 21t19 8h93q19 0 28 -19
l48 -117q10 -26 -18 -26h-79z" />
    <glyph glyph-name="Eacute" unicode="&#xc9;" horiz-adv-x="540" 
d="M451 403q30 0 25 -30l-12 -78q-5 -26 -30 -26h-210l-21 -133h249q31 0 26 -30l-13 -80q-5 -26 -30 -26h-380q-30 0 -25 30l96 608q5 26 30 26h380q30 0 25 -30l-12 -80q-5 -26 -30 -26h-255l-19 -125h206zM427 735q-9 -12 -27 -12h-90q-14 0 -18 8t4 19l88 120
q11 15 29 15h102q16 0 20 -9t-6 -20z" />
    <glyph glyph-name="Ecircumflex" unicode="&#xca;" horiz-adv-x="540" 
d="M451 403q30 0 25 -30l-12 -78q-5 -26 -30 -26h-210l-21 -133h249q31 0 26 -30l-13 -80q-5 -26 -30 -26h-380q-30 0 -25 30l96 608q5 26 30 26h380q30 0 25 -30l-12 -80q-5 -26 -30 -26h-255l-19 -125h206zM329 735q-9 -12 -27 -12h-83q-14 0 -18 8t6 19l102 121
q11 14 29 14h87q19 0 28 -17l61 -119q6 -11 2 -18.5t-17 -7.5h-73q-19 0 -26 16l-26 49z" />
    <glyph glyph-name="Edieresis" unicode="&#xcb;" horiz-adv-x="540" 
d="M451 403q30 0 25 -30l-12 -78q-5 -26 -30 -26h-210l-21 -133h249q31 0 26 -30l-13 -80q-5 -26 -30 -26h-380q-30 0 -25 30l96 608q5 26 30 26h380q30 0 25 -30l-12 -80q-5 -26 -30 -26h-255l-19 -125h206zM274 731q-32 0 -50.5 19t-18.5 49q0 35 21.5 57.5t55.5 22.5
q32 0 51 -19.5t19 -50.5q0 -35 -22.5 -56.5t-55.5 -21.5zM458 731q-32 0 -50.5 19t-18.5 49q0 35 22 57.5t55 22.5q32 0 51 -19.5t19 -50.5q0 -34 -22 -56t-56 -22z" />
    <glyph glyph-name="Igrave" unicode="&#xcc;" horiz-adv-x="288" 
d="M185 26q-5 -26 -30 -26h-100q-30 0 -25 30l96 608q5 26 30 26h100q30 0 25 -30zM184 723q-17 0 -26 16l-63 117q-7 13 -2 21t19 8h93q19 0 28 -19l48 -117q10 -26 -18 -26h-79z" />
    <glyph glyph-name="Iacute" unicode="&#xcd;" horiz-adv-x="288" 
d="M185 26q-5 -26 -30 -26h-100q-30 0 -25 30l96 608q5 26 30 26h100q30 0 25 -30zM287 735q-9 -12 -27 -12h-90q-14 0 -18 8t4 19l88 120q11 15 29 15h102q16 0 20 -9t-6 -20z" />
    <glyph glyph-name="Icircumflex" unicode="&#xce;" horiz-adv-x="288" 
d="M185 26q-5 -26 -30 -26h-100q-30 0 -25 30l96 608q5 26 30 26h100q30 0 25 -30zM189 735q-9 -12 -27 -12h-83q-14 0 -18 8t6 19l102 121q11 14 29 14h87q19 0 28 -17l61 -119q6 -11 2 -18.5t-17 -7.5h-73q-19 0 -26 16l-26 49z" />
    <glyph glyph-name="Idieresis" unicode="&#xcf;" horiz-adv-x="288" 
d="M185 26q-5 -26 -30 -26h-100q-30 0 -25 30l96 608q5 26 30 26h100q30 0 25 -30zM134 731q-32 0 -50.5 19t-18.5 49q0 35 21.5 57.5t55.5 22.5q32 0 51 -19.5t19 -50.5q0 -35 -22.5 -56.5t-55.5 -21.5zM318 731q-32 0 -50.5 19t-18.5 49q0 35 22 57.5t55 22.5
q32 0 51 -19.5t19 -50.5q0 -34 -22 -56t-56 -22z" />
    <glyph glyph-name="Eth" unicode="&#xd0;" horiz-adv-x="608" 
d="M366 664q226 0 226 -184q0 -13 -1 -26t-3 -27l-32 -199q-19 -117 -85.5 -172.5t-193.5 -55.5h-207q-30 0 -25 30l39 246h-31q-26 0 -23 27l11 72q3 23 27 23h35l38 240q5 26 30 26h195zM431 421q2 8 2 15v14q0 78 -89 78h-65l-20 -130h65q28 0 23 -27l-11 -72
q-3 -23 -27 -23h-69l-22 -140h64q54 0 83 26t38 82z" />
    <glyph glyph-name="Ntilde" unicode="&#xd1;" horiz-adv-x="622" 
d="M590 664q30 0 25 -30l-96 -608q-5 -26 -30 -26h-100q-25 0 -31 23l-116 385h-2l-59 -382q-5 -26 -30 -26h-96q-30 0 -25 30l96 608q5 26 30 26h112q25 0 31 -23l109 -361h2l54 358q5 26 30 26h96zM246 726q-25 0 -19 25q15 68 45.5 97t75.5 29q20 0 36.5 -7t33.5 -24
q11 -11 17 -14.5t15 -3.5q17 0 29 29q8 17 25 17h45q26 0 20 -25q-16 -68 -46 -97t-75 -29q-39 0 -70 31q-11 11 -17 14.5t-15 3.5q-8 0 -16 -7t-13 -21q-7 -18 -26 -18h-45z" />
    <glyph glyph-name="Ograve" unicode="&#xd2;" horiz-adv-x="596" 
d="M76 441q18 116 86.5 175.5t186.5 59.5q110 0 170.5 -51t60.5 -144q0 -12 -1 -24.5t-3 -25.5l-33 -208q-18 -116 -86.5 -175.5t-186.5 -59.5q-111 0 -171 51t-60 145q0 26 4 49zM200 240q-3 -20 -3 -35q0 -81 80 -81q95 0 113 116l29 184q3 19 3 36q0 80 -79 80
q-95 0 -114 -116zM338 723q-17 0 -26 16l-63 117q-7 13 -2 21t19 8h93q19 0 28 -19l48 -117q10 -26 -18 -26h-79z" />
    <glyph glyph-name="Oacute" unicode="&#xd3;" horiz-adv-x="596" 
d="M76 441q18 116 86.5 175.5t186.5 59.5q110 0 170.5 -51t60.5 -144q0 -12 -1 -24.5t-3 -25.5l-33 -208q-18 -116 -86.5 -175.5t-186.5 -59.5q-111 0 -171 51t-60 145q0 26 4 49zM200 240q-3 -20 -3 -35q0 -81 80 -81q95 0 113 116l29 184q3 19 3 36q0 80 -79 80
q-95 0 -114 -116zM441 735q-9 -12 -27 -12h-90q-14 0 -18 8t4 19l88 120q11 15 29 15h102q16 0 20 -9t-6 -20z" />
    <glyph glyph-name="Ocircumflex" unicode="&#xd4;" horiz-adv-x="596" 
d="M76 441q18 116 86.5 175.5t186.5 59.5q110 0 170.5 -51t60.5 -144q0 -12 -1 -24.5t-3 -25.5l-33 -208q-18 -116 -86.5 -175.5t-186.5 -59.5q-111 0 -171 51t-60 145q0 26 4 49zM200 240q-3 -20 -3 -35q0 -81 80 -81q95 0 113 116l29 184q3 19 3 36q0 80 -79 80
q-95 0 -114 -116zM343 735q-9 -12 -27 -12h-83q-14 0 -18 8t6 19l102 121q11 14 29 14h87q19 0 28 -17l61 -119q6 -11 2 -18.5t-17 -7.5h-73q-19 0 -26 16l-26 49z" />
    <glyph glyph-name="Otilde" unicode="&#xd5;" horiz-adv-x="596" 
d="M76 441q18 116 86.5 175.5t186.5 59.5q110 0 170.5 -51t60.5 -144q0 -12 -1 -24.5t-3 -25.5l-33 -208q-18 -116 -86.5 -175.5t-186.5 -59.5q-111 0 -171 51t-60 145q0 26 4 49zM200 240q-3 -20 -3 -35q0 -81 80 -81q95 0 113 116l29 184q3 19 3 36q0 80 -79 80
q-95 0 -114 -116zM233 726q-25 0 -19 25q15 68 45.5 97t75.5 29q20 0 36.5 -7t33.5 -24q11 -11 17 -14.5t15 -3.5q17 0 29 29q8 17 25 17h45q26 0 20 -25q-16 -68 -46 -97t-75 -29q-39 0 -70 31q-11 11 -17 14.5t-15 3.5q-8 0 -16 -7t-13 -21q-7 -18 -26 -18h-45z" />
    <glyph glyph-name="Odieresis" unicode="&#xd6;" horiz-adv-x="596" 
d="M76 441q18 116 86.5 175.5t186.5 59.5q110 0 170.5 -51t60.5 -144q0 -12 -1 -24.5t-3 -25.5l-33 -208q-18 -116 -86.5 -175.5t-186.5 -59.5q-111 0 -171 51t-60 145q0 26 4 49zM200 240q-3 -20 -3 -35q0 -81 80 -81q95 0 113 116l29 184q3 19 3 36q0 80 -79 80
q-95 0 -114 -116zM288 731q-32 0 -50.5 19t-18.5 49q0 35 21.5 57.5t55.5 22.5q32 0 51 -19.5t19 -50.5q0 -35 -22.5 -56.5t-55.5 -21.5zM472 731q-32 0 -50.5 19t-18.5 49q0 35 22 57.5t55 22.5q32 0 51 -19.5t19 -50.5q0 -34 -22 -56t-56 -22z" />
    <glyph glyph-name="multiply" unicode="&#xd7;" horiz-adv-x="530" 
d="M481 142q18 -21 -3 -39l-60 -54q-22 -19 -39 3l-115 134l-158 -138q-21 -18 -40 3l-48 53q-18 21 2 40l161 139l-113 133q-18 21 3 39l60 54q22 19 39 -3l115 -134l158 138q21 18 40 -3l47 -53q18 -21 -2 -39l-161 -140z" />
    <glyph glyph-name="Oslash" unicode="&#xd8;" horiz-adv-x="596" 
d="M599 627q18 -15 3 -33l-34 -40q12 -33 12 -73q0 -12 -1 -24.5t-3 -25.5l-33 -208q-18 -116 -86.5 -175.5t-186.5 -59.5q-91 0 -147 35l-21 -25q-15 -17 -33 -2l-49 41q-18 15 -3 33l34 40q-12 33 -12 74q0 26 4 49l33 208q18 116 86.5 175.5t186.5 59.5q89 0 147 -35
l21 25q15 18 33 2zM343 540q-96 0 -114 -116l-19 -122h2l186 222q-19 16 -55 16zM221 140q19 -16 56 -16q95 0 113 116l19 122h-2z" />
    <glyph glyph-name="Ugrave" unicode="&#xd9;" horiz-adv-x="588" 
d="M524 216q-18 -113 -82 -170.5t-176 -57.5q-104 0 -161 49t-57 140q0 11 1 23.5t3 25.5l65 412q5 26 30 26h100q30 0 25 -30l-64 -405q-3 -18 -3 -33q0 -72 70 -72q42 0 66.5 25.5t32.5 79.5l65 409q5 26 30 26h96q30 0 25 -30zM334 723q-17 0 -26 16l-63 117q-7 13 -2 21
t19 8h93q19 0 28 -19l48 -117q10 -26 -18 -26h-79z" />
    <glyph glyph-name="Uacute" unicode="&#xda;" horiz-adv-x="588" 
d="M524 216q-18 -113 -82 -170.5t-176 -57.5q-104 0 -161 49t-57 140q0 11 1 23.5t3 25.5l65 412q5 26 30 26h100q30 0 25 -30l-64 -405q-3 -18 -3 -33q0 -72 70 -72q42 0 66.5 25.5t32.5 79.5l65 409q5 26 30 26h96q30 0 25 -30zM437 735q-9 -12 -27 -12h-90q-14 0 -18 8
t4 19l88 120q11 15 29 15h102q16 0 20 -9t-6 -20z" />
    <glyph glyph-name="Ucircumflex" unicode="&#xdb;" horiz-adv-x="588" 
d="M524 216q-18 -113 -82 -170.5t-176 -57.5q-104 0 -161 49t-57 140q0 11 1 23.5t3 25.5l65 412q5 26 30 26h100q30 0 25 -30l-64 -405q-3 -18 -3 -33q0 -72 70 -72q42 0 66.5 25.5t32.5 79.5l65 409q5 26 30 26h96q30 0 25 -30zM339 735q-9 -12 -27 -12h-83q-14 0 -18 8
t6 19l102 121q11 14 29 14h87q19 0 28 -17l61 -119q6 -11 2 -18.5t-17 -7.5h-73q-19 0 -26 16l-26 49z" />
    <glyph glyph-name="Udieresis" unicode="&#xdc;" horiz-adv-x="588" 
d="M524 216q-18 -113 -82 -170.5t-176 -57.5q-104 0 -161 49t-57 140q0 11 1 23.5t3 25.5l65 412q5 26 30 26h100q30 0 25 -30l-64 -405q-3 -18 -3 -33q0 -72 70 -72q42 0 66.5 25.5t32.5 79.5l65 409q5 26 30 26h96q30 0 25 -30zM284 731q-32 0 -50.5 19t-18.5 49
q0 35 21.5 57.5t55.5 22.5q32 0 51 -19.5t19 -50.5q0 -35 -22.5 -56.5t-55.5 -21.5zM468 731q-32 0 -50.5 19t-18.5 49q0 35 22 57.5t55 22.5q32 0 51 -19.5t19 -50.5q0 -34 -22 -56t-56 -22z" />
    <glyph glyph-name="Yacute" unicode="&#xdd;" horiz-adv-x="558" 
d="M593 664q17 0 22 -10t-5 -24l-251 -361l-39 -243q-5 -26 -30 -26h-100q-30 0 -25 30l39 250l-136 352q-5 14 1 23t22 9h114q25 0 32 -23l66 -203h2l134 208q12 18 34 18h120zM422 735q-9 -12 -27 -12h-90q-14 0 -18 8t4 19l88 120q11 15 29 15h102q16 0 20 -9t-6 -20z
" />
    <glyph glyph-name="Thorn" unicode="&#xde;" horiz-adv-x="558" 
d="M327 562q221 0 221 -190q0 -130 -68 -190t-215 -60h-65l-15 -96q-5 -26 -30 -26h-100q-30 0 -25 30l96 608q5 26 30 26h100q30 0 25 -30l-11 -72h57zM390 357q0 69 -82 69h-60l-26 -168h60q56 0 82 23.5t26 75.5z" />
    <glyph glyph-name="germandbls" unicode="&#xdf;" horiz-adv-x="556" 
d="M94 525q14 89 73.5 138t153.5 49q91 0 141.5 -43t50.5 -119q0 -52 -23.5 -91.5t-77.5 -73.5q-28 -17 -37 -28t-9 -23q0 -11 9.5 -19t37.5 -16q58 -15 83 -47t25 -86q0 -85 -53 -131.5t-147 -46.5q-76 0 -127 20q-26 11 -14 37l27 62q6 13 15 15.5t22 -2.5q28 -12 71 -12
q65 0 65 44q0 17 -11.5 27t-43.5 22q-54 20 -76 48.5t-22 76.5q0 45 20.5 79.5t71.5 66.5q32 20 43 34t11 31q0 26 -15.5 39.5t-44.5 13.5q-32 0 -52 -17t-25 -48l-79 -499q-5 -26 -30 -26h-86q-30 0 -25 30z" />
    <glyph glyph-name="agrave" unicode="&#xe0;" horiz-adv-x="464" 
d="M245 512q91 0 141.5 -42t50.5 -123q0 -19 -3 -38l-21 -134q-30 -187 -223 -187q-87 0 -132.5 38t-45.5 111q0 83 49 125t154 42h76q2 7 2 13.5v12.5q0 32 -17 46t-51 14q-20 0 -41 -7.5t-40 -19.5q-26 -18 -37 10l-26 60q-11 25 14 39q37 22 72.5 31t77.5 9zM200 110
q61 0 73 78l3 21h-52q-33 0 -51 -15.5t-18 -41.5q0 -20 12 -31t33 -11zM250 565q-17 0 -26 16l-63 117q-7 13 -2 21t19 8h93q19 0 28 -19l48 -117q10 -26 -18 -26h-79z" />
    <glyph glyph-name="aacute" unicode="&#xe1;" horiz-adv-x="464" 
d="M245 512q91 0 141.5 -42t50.5 -123q0 -19 -3 -38l-21 -134q-30 -187 -223 -187q-87 0 -132.5 38t-45.5 111q0 83 49 125t154 42h76q2 7 2 13.5v12.5q0 32 -17 46t-51 14q-20 0 -41 -7.5t-40 -19.5q-26 -18 -37 10l-26 60q-11 25 14 39q37 22 72.5 31t77.5 9zM200 110
q61 0 73 78l3 21h-52q-33 0 -51 -15.5t-18 -41.5q0 -20 12 -31t33 -11zM353 577q-9 -12 -27 -12h-90q-14 0 -18 8t4 19l88 120q11 15 29 15h102q16 0 20 -9t-6 -20z" />
    <glyph glyph-name="acircumflex" unicode="&#xe2;" horiz-adv-x="464" 
d="M245 512q91 0 141.5 -42t50.5 -123q0 -19 -3 -38l-21 -134q-30 -187 -223 -187q-87 0 -132.5 38t-45.5 111q0 83 49 125t154 42h76q2 7 2 13.5v12.5q0 32 -17 46t-51 14q-20 0 -41 -7.5t-40 -19.5q-26 -18 -37 10l-26 60q-11 25 14 39q37 22 72.5 31t77.5 9zM200 110
q61 0 73 78l3 21h-52q-33 0 -51 -15.5t-18 -41.5q0 -20 12 -31t33 -11zM255 577q-9 -12 -27 -12h-83q-14 0 -18 8t6 19l102 121q11 14 29 14h87q19 0 28 -17l61 -119q6 -11 2 -18.5t-17 -7.5h-73q-19 0 -26 16l-26 49z" />
    <glyph glyph-name="atilde" unicode="&#xe3;" horiz-adv-x="464" 
d="M245 512q91 0 141.5 -42t50.5 -123q0 -19 -3 -38l-21 -134q-30 -187 -223 -187q-87 0 -132.5 38t-45.5 111q0 83 49 125t154 42h76q2 7 2 13.5v12.5q0 32 -17 46t-51 14q-20 0 -41 -7.5t-40 -19.5q-26 -18 -37 10l-26 60q-11 25 14 39q37 22 72.5 31t77.5 9zM200 110
q61 0 73 78l3 21h-52q-33 0 -51 -15.5t-18 -41.5q0 -20 12 -31t33 -11zM145 568q-25 0 -19 25q15 68 45.5 97t75.5 29q20 0 36.5 -7t33.5 -24q11 -11 17 -14.5t15 -3.5q17 0 29 29q8 17 25 17h45q26 0 20 -25q-16 -68 -46 -97t-75 -29q-39 0 -70 31q-11 11 -17 14.5t-15 3.5
q-8 0 -16 -7t-13 -21q-7 -18 -26 -18h-45z" />
    <glyph glyph-name="adieresis" unicode="&#xe4;" horiz-adv-x="464" 
d="M245 512q91 0 141.5 -42t50.5 -123q0 -19 -3 -38l-21 -134q-30 -187 -223 -187q-87 0 -132.5 38t-45.5 111q0 83 49 125t154 42h76q2 7 2 13.5v12.5q0 32 -17 46t-51 14q-20 0 -41 -7.5t-40 -19.5q-26 -18 -37 10l-26 60q-11 25 14 39q37 22 72.5 31t77.5 9zM200 110
q61 0 73 78l3 21h-52q-33 0 -51 -15.5t-18 -41.5q0 -20 12 -31t33 -11zM200 573q-32 0 -50.5 19t-18.5 49q0 35 21.5 57.5t55.5 22.5q32 0 51 -19.5t19 -50.5q0 -35 -22.5 -56.5t-55.5 -21.5zM384 573q-32 0 -50.5 19t-18.5 49q0 35 22 57.5t55 22.5q32 0 51 -19.5t19 -50.5
q0 -34 -22 -56t-56 -22z" />
    <glyph glyph-name="aring" unicode="&#xe5;" horiz-adv-x="464" 
d="M245 512q91 0 141.5 -42t50.5 -123q0 -19 -3 -38l-21 -134q-30 -187 -223 -187q-87 0 -132.5 38t-45.5 111q0 83 49 125t154 42h76q2 7 2 13.5v12.5q0 32 -17 46t-51 14q-20 0 -41 -7.5t-40 -19.5q-26 -18 -37 10l-26 60q-11 25 14 39q37 22 72.5 31t77.5 9zM200 110
q61 0 73 78l3 21h-52q-33 0 -51 -15.5t-18 -41.5q0 -20 12 -31t33 -11zM290 553q-38 0 -62 24t-24 61q0 21 8 38.5t21.5 30.5t31.5 20.5t38 7.5q38 0 62 -24t24 -61q0 -21 -8 -38.5t-21.5 -30.5t-31.5 -20.5t-38 -7.5zM293 612q14 0 24.5 10t10.5 24q0 13 -8 21.5t-21 8.5
q-14 0 -24.5 -10t-10.5 -24q0 -13 8 -21.5t21 -8.5z" />
    <glyph glyph-name="ae" unicode="&#xe6;" horiz-adv-x="709" 
d="M530 512q76 0 119 -42.5t43 -114.5q0 -19 -3 -40l-13 -80q-5 -26 -30 -26h-229q-3 -20 -3 -37q0 -35 16.5 -48.5t52.5 -13.5q21 0 40 7t39 21q25 18 38 -7l30 -57q13 -24 -8 -39q-34 -24 -70.5 -35.5t-73.5 -11.5q-108 0 -148 67h-2q-49 -67 -159 -67q-72 0 -114.5 40.5
t-42.5 110.5q0 165 203 165h76q2 7 2 13.5v12.5q0 32 -17 46t-51 14q-20 0 -41 -7.5t-40 -19.5q-25 -17 -37 10l-26 60q-11 24 12 38q70 41 142 41q104 0 142 -66h2q49 66 151 66zM553 304q2 11 2.5 19.5t0.5 14.5q0 52 -49 52q-30 0 -49 -19t-24 -58l-1 -9h120zM224 209
q-33 0 -51 -15.5t-18 -41.5q0 -42 45 -42q61 0 73 78l3 21h-52z" />
    <glyph glyph-name="ccedilla" unicode="&#xe7;" horiz-adv-x="395" 
d="M396 477q22 -16 4 -39l-42 -52q-8 -11 -17.5 -11.5t-21.5 5.5q-19 10 -47 10q-34 0 -55.5 -20.5t-29.5 -67.5l-17 -104q-1 -7 -1.5 -13t-0.5 -11q0 -34 16.5 -49t47.5 -15q15 0 27.5 5.5t24.5 15.5q25 19 39 -7l29 -57q12 -25 -8 -39q-28 -20 -59.5 -30t-69.5 -10h-4
l-8 -22q30 -5 45.5 -22.5t15.5 -40.5q0 -37 -28 -56t-79 -19q-48 0 -79 15q-19 10 -10 33l9 23q5 11 13.5 13t19.5 -3q9 -4 19.5 -7t20.5 -3q19 0 26 6t7 15q0 7 -6.5 13t-20.5 6q-11 0 -17 6.5t-2 18.5l10 31q-59 14 -91 54t-32 104q0 11 1 21t3 22l19 119
q16 100 71.5 148.5t149.5 48.5q42 0 74 -9.5t54 -25.5z" />
    <glyph glyph-name="egrave" unicode="&#xe8;" horiz-adv-x="463" 
d="M263 512q88 0 135.5 -41.5t47.5 -116.5q0 -18 -3 -39l-13 -80q-5 -26 -30 -26h-229q-3 -20 -3 -37q0 -35 16.5 -48.5t52.5 -13.5q21 0 40 7t39 21q25 18 38 -7l30 -57q13 -24 -8 -39q-67 -47 -149 -47q-99 0 -151 41t-52 122q0 11 1 22t3 23l20 129q30 187 215 187z
M261 390q-30 0 -49 -19t-24 -58l-1 -9h120q2 11 2.5 19.5t0.5 14.5q0 52 -49 52zM253 565q-17 0 -26 16l-63 117q-7 13 -2 21t19 8h93q19 0 28 -19l48 -117q10 -26 -18 -26h-79z" />
    <glyph glyph-name="eacute" unicode="&#xe9;" horiz-adv-x="463" 
d="M263 512q88 0 135.5 -41.5t47.5 -116.5q0 -18 -3 -39l-13 -80q-5 -26 -30 -26h-229q-3 -20 -3 -37q0 -35 16.5 -48.5t52.5 -13.5q21 0 40 7t39 21q25 18 38 -7l30 -57q13 -24 -8 -39q-67 -47 -149 -47q-99 0 -151 41t-52 122q0 11 1 22t3 23l20 129q30 187 215 187z
M261 390q-30 0 -49 -19t-24 -58l-1 -9h120q2 11 2.5 19.5t0.5 14.5q0 52 -49 52zM356 577q-9 -12 -27 -12h-90q-14 0 -18 8t4 19l88 120q11 15 29 15h102q16 0 20 -9t-6 -20z" />
    <glyph glyph-name="ecircumflex" unicode="&#xea;" horiz-adv-x="463" 
d="M263 512q88 0 135.5 -41.5t47.5 -116.5q0 -18 -3 -39l-13 -80q-5 -26 -30 -26h-229q-3 -20 -3 -37q0 -35 16.5 -48.5t52.5 -13.5q21 0 40 7t39 21q25 18 38 -7l30 -57q13 -24 -8 -39q-67 -47 -149 -47q-99 0 -151 41t-52 122q0 11 1 22t3 23l20 129q30 187 215 187z
M261 390q-30 0 -49 -19t-24 -58l-1 -9h120q2 11 2.5 19.5t0.5 14.5q0 52 -49 52zM258 577q-9 -12 -27 -12h-83q-14 0 -18 8t6 19l102 121q11 14 29 14h87q19 0 28 -17l61 -119q6 -11 2 -18.5t-17 -7.5h-73q-19 0 -26 16l-26 49z" />
    <glyph glyph-name="edieresis" unicode="&#xeb;" horiz-adv-x="463" 
d="M263 512q88 0 135.5 -41.5t47.5 -116.5q0 -18 -3 -39l-13 -80q-5 -26 -30 -26h-229q-3 -20 -3 -37q0 -35 16.5 -48.5t52.5 -13.5q21 0 40 7t39 21q25 18 38 -7l30 -57q13 -24 -8 -39q-67 -47 -149 -47q-99 0 -151 41t-52 122q0 11 1 22t3 23l20 129q30 187 215 187z
M261 390q-30 0 -49 -19t-24 -58l-1 -9h120q2 11 2.5 19.5t0.5 14.5q0 52 -49 52zM203 573q-32 0 -50.5 19t-18.5 49q0 35 21.5 57.5t55.5 22.5q32 0 51 -19.5t19 -50.5q0 -35 -22.5 -56.5t-55.5 -21.5zM387 573q-32 0 -50.5 19t-18.5 49q0 35 22 57.5t55 22.5q32 0 51 -19.5
t19 -50.5q0 -34 -22 -56t-56 -22z" />
    <glyph glyph-name="igrave" unicode="&#xec;" horiz-adv-x="246" 
d="M41 0q-30 0 -25 30l70 444q5 26 30 26h86q30 0 25 -30l-70 -444q-5 -26 -30 -26h-86zM138 565q-17 0 -26 16l-63 117q-7 13 -2 21t19 8h93q19 0 28 -19l48 -117q10 -26 -18 -26h-79z" />
    <glyph glyph-name="iacute" unicode="&#xed;" horiz-adv-x="246" 
d="M41 0q-30 0 -25 30l70 444q5 26 30 26h86q30 0 25 -30l-70 -444q-5 -26 -30 -26h-86zM241 577q-9 -12 -27 -12h-90q-14 0 -18 8t4 19l88 120q11 15 29 15h102q16 0 20 -9t-6 -20z" />
    <glyph glyph-name="icircumflex" unicode="&#xee;" horiz-adv-x="246" 
d="M41 0q-30 0 -25 30l70 444q5 26 30 26h86q30 0 25 -30l-70 -444q-5 -26 -30 -26h-86zM143 577q-9 -12 -27 -12h-83q-14 0 -18 8t6 19l102 121q11 14 29 14h87q19 0 28 -17l61 -119q6 -11 2 -18.5t-17 -7.5h-73q-19 0 -26 16l-26 49z" />
    <glyph glyph-name="idieresis" unicode="&#xef;" horiz-adv-x="246" 
d="M41 0q-30 0 -25 30l70 444q5 26 30 26h86q30 0 25 -30l-70 -444q-5 -26 -30 -26h-86zM88 573q-32 0 -50.5 19t-18.5 49q0 35 21.5 57.5t55.5 22.5q32 0 51 -19.5t19 -50.5q0 -35 -22.5 -56.5t-55.5 -21.5zM272 573q-32 0 -50.5 19t-18.5 49q0 35 22 57.5t55 22.5
q32 0 51 -19.5t19 -50.5q0 -34 -22 -56t-56 -22z" />
    <glyph glyph-name="eth" unicode="&#xf0;" horiz-adv-x="486" 
d="M377 634q82 -75 82 -221q0 -49 -9 -106l-21 -132q-30 -187 -219 -187q-90 0 -138.5 41.5t-48.5 116.5q0 19 3 39l19 120q30 187 192 187q44 0 74 -24h2q-7 26 -18.5 46t-31.5 34l-61 -45q-13 -10 -23 3l-8 10q-10 12 4 23l43 32q-11 5 -24 8t-28 6q-31 5 -21 34l21 70
q7 25 33 21q42 -8 77 -19.5t63 -28.5l45 33q13 10 23 -3l8 -10q10 -12 -4 -23zM305 292q2 8 2 13v11q0 54 -49 54q-61 0 -73 -78l-16 -104q-2 -8 -2 -13.5v-11.5q0 -53 49 -53q61 0 73 78z" />
    <glyph glyph-name="ntilde" unicode="&#xf1;" horiz-adv-x="492" 
d="M311 316q1 7 1.5 13t0.5 12q0 49 -46 49q-56 0 -68 -74l-46 -290q-5 -26 -30 -26h-86q-30 0 -25 30l47 298q29 184 214 184q88 0 135.5 -40t47.5 -114q0 -19 -3 -40l-46 -292q-5 -26 -30 -26h-86q-30 0 -25 30zM156 568q-25 0 -19 25q15 68 45.5 97t75.5 29q20 0 36.5 -7
t33.5 -24q11 -11 17 -14.5t15 -3.5q17 0 29 29q8 17 25 17h45q26 0 20 -25q-16 -68 -46 -97t-75 -29q-39 0 -70 31q-11 11 -17 14.5t-15 3.5q-8 0 -16 -7t-13 -21q-7 -18 -26 -18h-45z" />
    <glyph glyph-name="ograve" unicode="&#xf2;" horiz-adv-x="480" 
d="M267 512q90 0 138.5 -41.5t48.5 -116.5q0 -20 -3 -39l-22 -140q-30 -187 -219 -187q-90 0 -138.5 41.5t-48.5 116.5q0 19 3 39l22 140q30 187 219 187zM308 312q2 7 2 13.5v12.5q0 52 -49 52q-61 0 -73 -78l-19 -124q-1 -7 -1.5 -13t-0.5 -12q0 -53 49 -53q61 0 73 78z
M255 565q-17 0 -26 16l-63 117q-7 13 -2 21t19 8h93q19 0 28 -19l48 -117q10 -26 -18 -26h-79z" />
    <glyph glyph-name="oacute" unicode="&#xf3;" horiz-adv-x="480" 
d="M267 512q90 0 138.5 -41.5t48.5 -116.5q0 -20 -3 -39l-22 -140q-30 -187 -219 -187q-90 0 -138.5 41.5t-48.5 116.5q0 19 3 39l22 140q30 187 219 187zM308 312q2 7 2 13.5v12.5q0 52 -49 52q-61 0 -73 -78l-19 -124q-1 -7 -1.5 -13t-0.5 -12q0 -53 49 -53q61 0 73 78z
M358 577q-9 -12 -27 -12h-90q-14 0 -18 8t4 19l88 120q11 15 29 15h102q16 0 20 -9t-6 -20z" />
    <glyph glyph-name="ocircumflex" unicode="&#xf4;" horiz-adv-x="480" 
d="M267 512q90 0 138.5 -41.5t48.5 -116.5q0 -20 -3 -39l-22 -140q-30 -187 -219 -187q-90 0 -138.5 41.5t-48.5 116.5q0 19 3 39l22 140q30 187 219 187zM308 312q2 7 2 13.5v12.5q0 52 -49 52q-61 0 -73 -78l-19 -124q-1 -7 -1.5 -13t-0.5 -12q0 -53 49 -53q61 0 73 78z
M260 577q-9 -12 -27 -12h-83q-14 0 -18 8t6 19l102 121q11 14 29 14h87q19 0 28 -17l61 -119q6 -11 2 -18.5t-17 -7.5h-73q-19 0 -26 16l-26 49z" />
    <glyph glyph-name="otilde" unicode="&#xf5;" horiz-adv-x="480" 
d="M267 512q90 0 138.5 -41.5t48.5 -116.5q0 -20 -3 -39l-22 -140q-30 -187 -219 -187q-90 0 -138.5 41.5t-48.5 116.5q0 19 3 39l22 140q30 187 219 187zM308 312q2 7 2 13.5v12.5q0 52 -49 52q-61 0 -73 -78l-19 -124q-1 -7 -1.5 -13t-0.5 -12q0 -53 49 -53q61 0 73 78z
M150 568q-25 0 -19 25q15 68 45.5 97t75.5 29q20 0 36.5 -7t33.5 -24q11 -11 17 -14.5t15 -3.5q17 0 29 29q8 17 25 17h45q26 0 20 -25q-16 -68 -46 -97t-75 -29q-39 0 -70 31q-11 11 -17 14.5t-15 3.5q-8 0 -16 -7t-13 -21q-7 -18 -26 -18h-45z" />
    <glyph glyph-name="odieresis" unicode="&#xf6;" horiz-adv-x="480" 
d="M267 512q90 0 138.5 -41.5t48.5 -116.5q0 -20 -3 -39l-22 -140q-30 -187 -219 -187q-90 0 -138.5 41.5t-48.5 116.5q0 19 3 39l22 140q30 187 219 187zM308 312q2 7 2 13.5v12.5q0 52 -49 52q-61 0 -73 -78l-19 -124q-1 -7 -1.5 -13t-0.5 -12q0 -53 49 -53q61 0 73 78z
M205 573q-32 0 -50.5 19t-18.5 49q0 35 21.5 57.5t55.5 22.5q32 0 51 -19.5t19 -50.5q0 -35 -22.5 -56.5t-55.5 -21.5zM389 573q-32 0 -50.5 19t-18.5 49q0 35 22 57.5t55 22.5q32 0 51 -19.5t19 -50.5q0 -34 -22 -56t-56 -22z" />
    <glyph glyph-name="divide" unicode="&#xf7;" horiz-adv-x="530" 
d="M295 396q-36 0 -57 21t-21 56q0 40 25 64.5t63 24.5q35 0 56.5 -21t21.5 -54q0 -41 -25 -66t-63 -25zM45 213q-30 0 -25 30l12 76q5 26 30 26h430q30 0 25 -30l-12 -76q-5 -26 -30 -26h-430zM231 -4q-35 0 -56 21t-21 56q0 39 25 64t63 25q35 0 56 -21t21 -56
q0 -39 -25 -64t-63 -25z" />
    <glyph glyph-name="oslash" unicode="&#xf8;" horiz-adv-x="480" 
d="M467 468q17 -15 2 -32l-23 -26q8 -27 8 -56q0 -20 -3 -39l-22 -140q-30 -187 -219 -187q-69 0 -114 25l-15 -16q-15 -16 -32 -1l-39 36q-17 15 -2 32l23 26q-8 27 -8 56q0 19 3 39l22 140q30 187 219 187q69 0 114 -25l15 16q15 16 32 1zM261 390q-60 0 -73 -78l-8 -52h2
l107 122v2q-11 6 -28 6zM188 118v-2q10 -6 28 -6q61 0 73 78l8 52h-2z" />
    <glyph glyph-name="ugrave" unicode="&#xf9;" horiz-adv-x="486" 
d="M424 169q-29 -181 -211 -181q-87 0 -134 40t-47 113q0 18 3 38l47 295q5 26 30 26h86q30 0 25 -30l-46 -292q-1 -6 -1.5 -11.5t-0.5 -10.5q0 -46 46 -46q56 0 66 68l47 296q5 26 30 26h82q30 0 25 -30zM258 565q-17 0 -26 16l-63 117q-7 13 -2 21t19 8h93q19 0 28 -19
l48 -117q10 -26 -18 -26h-79z" />
    <glyph glyph-name="uacute" unicode="&#xfa;" horiz-adv-x="486" 
d="M424 169q-29 -181 -211 -181q-87 0 -134 40t-47 113q0 18 3 38l47 295q5 26 30 26h86q30 0 25 -30l-46 -292q-1 -6 -1.5 -11.5t-0.5 -10.5q0 -46 46 -46q56 0 66 68l47 296q5 26 30 26h82q30 0 25 -30zM361 577q-9 -12 -27 -12h-90q-14 0 -18 8t4 19l88 120q11 15 29 15
h102q16 0 20 -9t-6 -20z" />
    <glyph glyph-name="ucircumflex" unicode="&#xfb;" horiz-adv-x="486" 
d="M424 169q-29 -181 -211 -181q-87 0 -134 40t-47 113q0 18 3 38l47 295q5 26 30 26h86q30 0 25 -30l-46 -292q-1 -6 -1.5 -11.5t-0.5 -10.5q0 -46 46 -46q56 0 66 68l47 296q5 26 30 26h82q30 0 25 -30zM263 577q-9 -12 -27 -12h-83q-14 0 -18 8t6 19l102 121q11 14 29 14
h87q19 0 28 -17l61 -119q6 -11 2 -18.5t-17 -7.5h-73q-19 0 -26 16l-26 49z" />
    <glyph glyph-name="udieresis" unicode="&#xfc;" horiz-adv-x="486" 
d="M424 169q-29 -181 -211 -181q-87 0 -134 40t-47 113q0 18 3 38l47 295q5 26 30 26h86q30 0 25 -30l-46 -292q-1 -6 -1.5 -11.5t-0.5 -10.5q0 -46 46 -46q56 0 66 68l47 296q5 26 30 26h82q30 0 25 -30zM208 573q-32 0 -50.5 19t-18.5 49q0 35 21.5 57.5t55.5 22.5
q32 0 51 -19.5t19 -50.5q0 -35 -22.5 -56.5t-55.5 -21.5zM392 573q-32 0 -50.5 19t-18.5 49q0 35 22 57.5t55 22.5q32 0 51 -19.5t19 -50.5q0 -34 -22 -56t-56 -22z" />
    <glyph glyph-name="yacute" unicode="&#xfd;" horiz-adv-x="496" 
d="M452 500q30 0 25 -30l-72 -459q-14 -89 -70.5 -136t-150.5 -47q-51 0 -94 13.5t-73 36.5q-20 17 -3 39l40 55q15 21 39 5q21 -15 43 -21.5t45 -6.5q72 0 83 69l2 14h-2q-33 -24 -83 -24q-72 0 -109 38.5t-37 108.5q0 11 1 22.5t3 24.5l43 272q5 26 30 26h86q30 0 25 -30
l-42 -266q-1 -7 -1.5 -13t-0.5 -11q0 -50 47 -50q55 0 67 74l43 270q5 26 30 26h86zM364 577q-9 -12 -27 -12h-90q-14 0 -18 8t4 19l88 120q11 15 29 15h102q16 0 20 -9t-6 -20z" />
    <glyph glyph-name="thorn" unicode="&#xfe;" horiz-adv-x="494" 
d="M313 512q76 0 116 -39t40 -111q0 -24 -4 -47l-22 -140q-15 -93 -65 -140t-132 -47q-57 0 -87 33h-2l-25 -155q-5 -26 -30 -26h-86q-30 0 -25 30l127 804q5 26 30 26h86q30 0 25 -30l-29 -182h2q33 24 81 24zM323 312q1 7 1.5 13t0.5 11q0 54 -50 54q-60 0 -72 -78
l-20 -124q-1 -6 -1.5 -12t-0.5 -11q0 -55 50 -55q60 0 72 78z" />
    <glyph glyph-name="ydieresis" unicode="&#xff;" horiz-adv-x="496" 
d="M452 500q30 0 25 -30l-72 -459q-14 -89 -70.5 -136t-150.5 -47q-51 0 -94 13.5t-73 36.5q-20 17 -3 39l40 55q15 21 39 5q21 -15 43 -21.5t45 -6.5q72 0 83 69l2 14h-2q-33 -24 -83 -24q-72 0 -109 38.5t-37 108.5q0 11 1 22.5t3 24.5l43 272q5 26 30 26h86q30 0 25 -30
l-42 -266q-1 -7 -1.5 -13t-0.5 -11q0 -50 47 -50q55 0 67 74l43 270q5 26 30 26h86zM211 573q-32 0 -50.5 19t-18.5 49q0 35 21.5 57.5t55.5 22.5q32 0 51 -19.5t19 -50.5q0 -35 -22.5 -56.5t-55.5 -21.5zM395 573q-32 0 -50.5 19t-18.5 49q0 35 22 57.5t55 22.5
q32 0 51 -19.5t19 -50.5q0 -34 -22 -56t-56 -22z" />
    <glyph glyph-name="Amacron" unicode="&#x100;" horiz-adv-x="602" 
d="M544 30q5 -30 -26 -30h-101q-27 0 -30 26l-8 79h-196l-36 -84q-9 -21 -32 -21h-107q-16 0 -22 9t1 24l282 610q10 21 33 21h123q25 0 30 -26zM337 486l-99 -251h127l-26 251h-2zM525 760q-4 -22 -26 -22h-239q-25 0 -22 26l10 64q4 22 26 22h239q12 0 18 -6.5t4 -19.5z
" />
    <glyph glyph-name="amacron" unicode="&#x101;" horiz-adv-x="464" 
d="M245 512q91 0 141.5 -42t50.5 -123q0 -19 -3 -38l-21 -134q-30 -187 -223 -187q-87 0 -132.5 38t-45.5 111q0 83 49 125t154 42h76q2 7 2 13.5v12.5q0 32 -17 46t-51 14q-20 0 -41 -7.5t-40 -19.5q-26 -18 -37 10l-26 60q-11 25 14 39q37 22 72.5 31t77.5 9zM200 110
q61 0 73 78l3 21h-52q-33 0 -51 -15.5t-18 -41.5q0 -20 12 -31t33 -11zM433 602q-4 -22 -26 -22h-239q-25 0 -22 26l10 64q4 22 26 22h239q12 0 18 -6.5t4 -19.5z" />
    <glyph glyph-name="Abreve" unicode="&#x102;" horiz-adv-x="602" 
d="M544 30q5 -30 -26 -30h-101q-27 0 -30 26l-8 79h-196l-36 -84q-9 -21 -32 -21h-107q-16 0 -22 9t1 24l282 610q10 21 33 21h123q25 0 30 -26zM337 486l-99 -251h127l-26 251h-2zM534 879q25 0 20 -24q-13 -66 -55.5 -97.5t-107.5 -31.5q-71 0 -109.5 35t-38.5 95
q0 23 23 23h56q11 0 16 -2.5t7 -13.5q2 -13 14 -21t35 -8q19 0 34 7t23 21q5 8 10.5 12.5t15.5 4.5h57z" />
    <glyph glyph-name="abreve" unicode="&#x103;" horiz-adv-x="464" 
d="M245 512q91 0 141.5 -42t50.5 -123q0 -19 -3 -38l-21 -134q-30 -187 -223 -187q-87 0 -132.5 38t-45.5 111q0 83 49 125t154 42h76q2 7 2 13.5v12.5q0 32 -17 46t-51 14q-20 0 -41 -7.5t-40 -19.5q-26 -18 -37 10l-26 60q-11 25 14 39q37 22 72.5 31t77.5 9zM200 110
q61 0 73 78l3 21h-52q-33 0 -51 -15.5t-18 -41.5q0 -20 12 -31t33 -11zM442 721q25 0 20 -24q-13 -66 -55.5 -97.5t-107.5 -31.5q-71 0 -109.5 35t-38.5 95q0 23 23 23h56q11 0 16 -2.5t7 -13.5q2 -13 14 -21t35 -8q19 0 34 7t23 21q5 8 10.5 12.5t15.5 4.5h57z" />
    <glyph glyph-name="Aogonek" unicode="&#x104;" horiz-adv-x="602" 
d="M537 -114q12 -20 -6 -33q-20 -14 -40 -19.5t-44 -5.5q-48 0 -73.5 22t-25.5 56q0 28 13.5 52.5t45.5 42.5q-19 5 -20 25l-8 79h-196l-36 -84q-9 -21 -32 -21h-107q-16 0 -22 9t1 24l282 610q10 21 33 21h123q25 0 30 -26l89 -608q5 -30 -26 -30h-10q-27 -9 -43 -25.5
t-16 -34.5q0 -20 19 -20q8 0 18 6q19 13 31 -7zM238 235h127l-26 251h-2z" />
    <glyph glyph-name="aogonek" unicode="&#x105;" horiz-adv-x="464" 
d="M245 512q91 0 141.5 -42t50.5 -123q0 -19 -3 -38l-21 -134q-21 -127 -119 -170q-26 -11 -40.5 -29t-14.5 -36q0 -9 5 -14.5t13 -5.5t18 6q19 13 31 -8l19 -32q12 -20 -5 -33q-17 -14 -38 -19.5t-45 -5.5q-42 0 -69 21t-27 59q0 20 9 40.5t28 37.5v2q-81 3 -123.5 41
t-42.5 108q0 83 49 125t154 42h76q2 7 2 13.5v12.5q0 32 -17 46t-51 14q-20 0 -41 -7.5t-40 -19.5q-25 -17 -37 10l-26 60q-11 25 14 39q37 22 72.5 31t77.5 9zM224 209q-33 0 -51 -15.5t-18 -41.5q0 -20 12 -31t33 -11q61 0 73 78l3 21h-52z" />
    <glyph glyph-name="Cacute" unicode="&#x106;" horiz-adv-x="521" 
d="M272 124q56 0 97 54q18 24 40 7l64 -53q22 -17 5 -39q-43 -55 -94.5 -80t-121.5 -25q-106 0 -164.5 51t-58.5 145q0 11 1 23.5t3 25.5l33 208q18 116 85 175.5t186 59.5q69 0 120.5 -28t80.5 -83q12 -24 -12 -38l-73 -44q-23 -14 -38 11q-16 23 -37 34.5t-50 11.5
q-91 0 -109 -116l-29 -184q-3 -18 -3 -34q0 -82 75 -82zM426 735q-9 -12 -27 -12h-90q-14 0 -18 8t4 19l88 120q11 15 29 15h102q16 0 20 -9t-6 -20z" />
    <glyph glyph-name="cacute" unicode="&#x107;" horiz-adv-x="395" 
d="M352 67q12 -25 -8 -39q-28 -20 -59.5 -30t-69.5 -10q-90 0 -140.5 42t-50.5 123q0 11 1 21t3 22l19 119q16 100 71.5 148.5t149.5 48.5q42 0 74 -9.5t54 -25.5t4 -39l-42 -52q-8 -11 -17.5 -11.5t-21.5 5.5q-19 10 -47 10q-34 0 -55.5 -20.5t-29.5 -67.5l-17 -104
q-1 -7 -1.5 -13t-0.5 -11q0 -34 16.5 -49t47.5 -15q15 0 27.5 5.5t24.5 15.5q25 19 39 -7zM338 577q-9 -12 -27 -12h-90q-14 0 -18 8t4 19l88 120q11 15 29 15h102q16 0 20 -9t-6 -20z" />
    <glyph glyph-name="Ccircumflex" unicode="&#x108;" horiz-adv-x="521" 
d="M272 124q56 0 97 54q18 24 40 7l64 -53q22 -17 5 -39q-43 -55 -94.5 -80t-121.5 -25q-106 0 -164.5 51t-58.5 145q0 11 1 23.5t3 25.5l33 208q18 116 85 175.5t186 59.5q69 0 120.5 -28t80.5 -83q12 -24 -12 -38l-73 -44q-23 -14 -38 11q-16 23 -37 34.5t-50 11.5
q-91 0 -109 -116l-29 -184q-3 -18 -3 -34q0 -82 75 -82zM328 735q-9 -12 -27 -12h-83q-14 0 -18 8t6 19l102 121q11 14 29 14h87q19 0 28 -17l61 -119q6 -11 2 -18.5t-17 -7.5h-73q-19 0 -26 16l-26 49z" />
    <glyph glyph-name="ccircumflex" unicode="&#x109;" horiz-adv-x="395" 
d="M352 67q12 -25 -8 -39q-28 -20 -59.5 -30t-69.5 -10q-90 0 -140.5 42t-50.5 123q0 11 1 21t3 22l19 119q16 100 71.5 148.5t149.5 48.5q42 0 74 -9.5t54 -25.5t4 -39l-42 -52q-8 -11 -17.5 -11.5t-21.5 5.5q-19 10 -47 10q-34 0 -55.5 -20.5t-29.5 -67.5l-17 -104
q-1 -7 -1.5 -13t-0.5 -11q0 -34 16.5 -49t47.5 -15q15 0 27.5 5.5t24.5 15.5q25 19 39 -7zM240 577q-9 -12 -27 -12h-83q-14 0 -18 8t6 19l102 121q11 14 29 14h87q19 0 28 -17l61 -119q6 -11 2 -18.5t-17 -7.5h-73q-19 0 -26 16l-26 49z" />
    <glyph glyph-name="Cdotaccent" unicode="&#x10a;" horiz-adv-x="521" 
d="M272 124q56 0 97 54q18 24 40 7l64 -53q22 -17 5 -39q-43 -55 -94.5 -80t-121.5 -25q-106 0 -164.5 51t-58.5 145q0 11 1 23.5t3 25.5l33 208q18 116 85 175.5t186 59.5q69 0 120.5 -28t80.5 -83q12 -24 -12 -38l-73 -44q-23 -14 -38 11q-16 23 -37 34.5t-50 11.5
q-91 0 -109 -116l-29 -184q-3 -18 -3 -34q0 -82 75 -82zM364 724q-34 0 -54.5 20.5t-20.5 52.5q0 38 24 62.5t61 24.5q35 0 55 -20.5t20 -53.5q0 -38 -24.5 -62t-60.5 -24z" />
    <glyph glyph-name="cdotaccent" unicode="&#x10b;" horiz-adv-x="395" 
d="M352 67q12 -25 -8 -39q-28 -20 -59.5 -30t-69.5 -10q-90 0 -140.5 42t-50.5 123q0 11 1 21t3 22l19 119q16 100 71.5 148.5t149.5 48.5q42 0 74 -9.5t54 -25.5t4 -39l-42 -52q-8 -11 -17.5 -11.5t-21.5 5.5q-19 10 -47 10q-34 0 -55.5 -20.5t-29.5 -67.5l-17 -104
q-1 -7 -1.5 -13t-0.5 -11q0 -34 16.5 -49t47.5 -15q15 0 27.5 5.5t24.5 15.5q25 19 39 -7zM276 566q-34 0 -54.5 20.5t-20.5 52.5q0 38 24 62.5t61 24.5q35 0 55 -20.5t20 -53.5q0 -38 -24.5 -62t-60.5 -24z" />
    <glyph glyph-name="Ccaron" unicode="&#x10c;" horiz-adv-x="521" 
d="M272 124q56 0 97 54q18 24 40 7l64 -53q22 -17 5 -39q-43 -55 -94.5 -80t-121.5 -25q-106 0 -164.5 51t-58.5 145q0 11 1 23.5t3 25.5l33 208q18 116 85 175.5t186 59.5q69 0 120.5 -28t80.5 -83q12 -24 -12 -38l-73 -44q-23 -14 -38 11q-16 23 -37 34.5t-50 11.5
q-91 0 -109 -116l-29 -184q-3 -18 -3 -34q0 -82 75 -82zM432 737q-11 -14 -29 -14h-87q-20 0 -28 17l-61 119q-6 11 -2 18.5t17 7.5h73q19 0 26 -16l26 -49l45 53q9 12 27 12h83q14 0 17.5 -8t-5.5 -19z" />
    <glyph glyph-name="ccaron" unicode="&#x10d;" horiz-adv-x="395" 
d="M352 67q12 -25 -8 -39q-28 -20 -59.5 -30t-69.5 -10q-90 0 -140.5 42t-50.5 123q0 11 1 21t3 22l19 119q16 100 71.5 148.5t149.5 48.5q42 0 74 -9.5t54 -25.5t4 -39l-42 -52q-8 -11 -17.5 -11.5t-21.5 5.5q-19 10 -47 10q-34 0 -55.5 -20.5t-29.5 -67.5l-17 -104
q-1 -7 -1.5 -13t-0.5 -11q0 -34 16.5 -49t47.5 -15q15 0 27.5 5.5t24.5 15.5q25 19 39 -7zM344 579q-11 -14 -29 -14h-87q-20 0 -28 17l-61 119q-6 11 -2 18.5t17 7.5h73q19 0 26 -16l26 -49l45 53q9 12 27 12h83q14 0 17.5 -8t-5.5 -19z" />
    <glyph glyph-name="Dcaron" unicode="&#x10e;" horiz-adv-x="593" 
d="M351 664q226 0 226 -184q0 -13 -1 -26t-3 -27l-32 -199q-19 -117 -85.5 -172.5t-193.5 -55.5h-207q-30 0 -25 30l96 608q5 26 30 26h195zM416 421q2 8 2 15v14q0 78 -89 78h-65l-61 -392h64q54 0 83 26t38 82zM430 737q-11 -14 -29 -14h-87q-20 0 -28 17l-61 119
q-6 11 -2 18.5t17 7.5h73q19 0 26 -16l26 -49l45 53q9 12 27 12h83q14 0 17.5 -8t-5.5 -19z" />
    <glyph glyph-name="dcaron" unicode="&#x10f;" horiz-adv-x="584" 
d="M482 700q30 0 25 -30l-78 -495q-30 -187 -219 -187q-90 0 -138.5 41.5t-48.5 116.5q0 19 3 39l22 140q15 93 65 140t132 47q58 0 88 -33h2l31 195q5 26 30 26h86zM308 312q2 8 2 13v11q0 54 -49 54q-61 0 -73 -78l-19 -124q-2 -8 -2 -13.5v-11.5q0 -53 49 -53q61 0 73 78
zM625 508q-6 -18 -25 -18h-57q-25 0 -19 24l38 165q4 21 27 21h75q29 0 19 -28z" />
    <glyph glyph-name="Dcroat" unicode="&#x110;" horiz-adv-x="608" 
d="M366 664q226 0 226 -184q0 -13 -1 -26t-3 -27l-32 -199q-19 -117 -85.5 -172.5t-193.5 -55.5h-207q-30 0 -25 30l39 246h-31q-26 0 -23 27l11 72q3 23 27 23h35l38 240q5 26 30 26h195zM431 421q2 8 2 15v14q0 78 -89 78h-65l-20 -130h65q28 0 23 -27l-11 -72
q-3 -23 -27 -23h-69l-22 -140h64q54 0 83 26t38 82z" />
    <glyph glyph-name="dcroat" unicode="&#x111;" horiz-adv-x="494" 
d="M525 643q25 0 22 -26l-9 -54q-3 -22 -25 -22h-26l-58 -366q-30 -187 -219 -187q-90 0 -138.5 41.5t-48.5 116.5q0 19 3 39l22 140q15 93 65 140t132 47q58 0 88 -33h2l10 62h-95q-12 0 -18 6.5t-4 19.5l9 54q3 22 25 22h99l5 31q5 26 30 26h86q30 0 25 -30l-4 -27h22z
M308 312q2 8 2 13v11q0 54 -49 54q-61 0 -73 -78l-19 -124q-2 -8 -2 -13.5v-11.5q0 -53 49 -53q61 0 73 78z" />
    <glyph glyph-name="Emacron" unicode="&#x112;" horiz-adv-x="540" 
d="M451 403q30 0 25 -30l-12 -78q-5 -26 -30 -26h-210l-21 -133h249q31 0 26 -30l-13 -80q-5 -26 -30 -26h-380q-30 0 -25 30l96 608q5 26 30 26h380q30 0 25 -30l-12 -80q-5 -26 -30 -26h-255l-19 -125h206zM507 760q-4 -22 -26 -22h-239q-25 0 -22 26l10 64q4 22 26 22
h239q12 0 18 -6.5t4 -19.5z" />
    <glyph glyph-name="emacron" unicode="&#x113;" horiz-adv-x="463" 
d="M263 512q88 0 135.5 -41.5t47.5 -116.5q0 -18 -3 -39l-13 -80q-5 -26 -30 -26h-229q-3 -20 -3 -37q0 -35 16.5 -48.5t52.5 -13.5q21 0 40 7t39 21q25 18 38 -7l30 -57q13 -24 -8 -39q-67 -47 -149 -47q-99 0 -151 41t-52 122q0 11 1 22t3 23l20 129q30 187 215 187z
M261 390q-30 0 -49 -19t-24 -58l-1 -9h120q2 11 2.5 19.5t0.5 14.5q0 52 -49 52zM436 602q-4 -22 -26 -22h-239q-25 0 -22 26l10 64q4 22 26 22h239q12 0 18 -6.5t4 -19.5z" />
    <glyph glyph-name="Ebreve" unicode="&#x114;" horiz-adv-x="540" 
d="M451 403q30 0 25 -30l-12 -78q-5 -26 -30 -26h-210l-21 -133h249q31 0 26 -30l-13 -80q-5 -26 -30 -26h-380q-30 0 -25 30l96 608q5 26 30 26h380q30 0 25 -30l-12 -80q-5 -26 -30 -26h-255l-19 -125h206zM516 879q25 0 20 -24q-13 -66 -55.5 -97.5t-107.5 -31.5
q-71 0 -109.5 35t-38.5 95q0 23 23 23h56q11 0 16 -2.5t7 -13.5q2 -13 14 -21t35 -8q19 0 34 7t23 21q5 8 10.5 12.5t15.5 4.5h57z" />
    <glyph glyph-name="ebreve" unicode="&#x115;" horiz-adv-x="463" 
d="M263 512q88 0 135.5 -41.5t47.5 -116.5q0 -18 -3 -39l-13 -80q-5 -26 -30 -26h-229q-3 -20 -3 -37q0 -35 16.5 -48.5t52.5 -13.5q21 0 40 7t39 21q25 18 38 -7l30 -57q13 -24 -8 -39q-67 -47 -149 -47q-99 0 -151 41t-52 122q0 11 1 22t3 23l20 129q30 187 215 187z
M261 390q-30 0 -49 -19t-24 -58l-1 -9h120q2 11 2.5 19.5t0.5 14.5q0 52 -49 52zM445 721q25 0 20 -24q-13 -66 -55.5 -97.5t-107.5 -31.5q-71 0 -109.5 35t-38.5 95q0 23 23 23h56q11 0 16 -2.5t7 -13.5q2 -13 14 -21t35 -8q19 0 34 7t23 21q5 8 10.5 12.5t15.5 4.5h57z
" />
    <glyph glyph-name="Edotaccent" unicode="&#x116;" horiz-adv-x="540" 
d="M451 403q30 0 25 -30l-12 -78q-5 -26 -30 -26h-210l-21 -133h249q31 0 26 -30l-13 -80q-5 -26 -30 -26h-380q-30 0 -25 30l96 608q5 26 30 26h380q30 0 25 -30l-12 -80q-5 -26 -30 -26h-255l-19 -125h206zM365 724q-34 0 -54.5 20.5t-20.5 52.5q0 38 24 62.5t61 24.5
q35 0 55 -20.5t20 -53.5q0 -38 -24.5 -62t-60.5 -24z" />
    <glyph glyph-name="edotaccent" unicode="&#x117;" horiz-adv-x="463" 
d="M263 512q88 0 135.5 -41.5t47.5 -116.5q0 -18 -3 -39l-13 -80q-5 -26 -30 -26h-229q-3 -20 -3 -37q0 -35 16.5 -48.5t52.5 -13.5q21 0 40 7t39 21q25 18 38 -7l30 -57q13 -24 -8 -39q-67 -47 -149 -47q-99 0 -151 41t-52 122q0 11 1 22t3 23l20 129q30 187 215 187z
M261 390q-30 0 -49 -19t-24 -58l-1 -9h120q2 11 2.5 19.5t0.5 14.5q0 52 -49 52zM294 566q-34 0 -54.5 20.5t-20.5 52.5q0 38 24 62.5t61 24.5q35 0 55 -20.5t20 -53.5q0 -38 -24.5 -62t-60.5 -24z" />
    <glyph glyph-name="Eogonek" unicode="&#x118;" horiz-adv-x="540" 
d="M536 664q30 0 25 -30l-12 -80q-5 -26 -30 -26h-255l-19 -125h206q30 0 25 -30l-12 -78q-5 -26 -30 -26h-210l-21 -133h249q31 0 26 -30l-13 -80q-5 -26 -30 -26h-12q-32 -9 -51.5 -25.5t-19.5 -36.5q0 -18 19 -18q8 0 18 6q19 13 31 -8l19 -32q12 -20 -5 -33
q-20 -14 -41 -19.5t-45 -5.5q-45 0 -70.5 22t-25.5 55q0 56 58 93v2h-255q-30 0 -25 30l96 608q5 26 30 26h380z" />
    <glyph glyph-name="eogonek" unicode="&#x119;" horiz-adv-x="463" 
d="M263 512q88 0 135.5 -41.5t47.5 -116.5q0 -18 -3 -39l-13 -80q-5 -26 -30 -26h-229q-3 -20 -3 -37q0 -35 16.5 -48.5t52.5 -13.5q21 0 40 7t39 21q25 18 38 -7l30 -57q13 -24 -8 -39q-14 -10 -27.5 -17t-28.5 -14q-24 -11 -38.5 -29t-14.5 -35q0 -9 5 -14.5t13 -5.5t18 6
q19 13 31 -8l19 -32q12 -20 -5 -33q-17 -14 -38 -19.5t-45 -5.5q-42 0 -69 21t-27 59q0 20 9 40.5t28 37.5v2q-89 5 -135.5 45.5t-46.5 117.5q0 11 1 22t3 23l20 129q30 187 215 187zM308 312q2 7 2 13.5v12.5q0 52 -49 52q-30 0 -49 -19t-24 -58l-1 -9h120z" />
    <glyph glyph-name="Ecaron" unicode="&#x11a;" horiz-adv-x="540" 
d="M451 403q30 0 25 -30l-12 -78q-5 -26 -30 -26h-210l-21 -133h249q31 0 26 -30l-13 -80q-5 -26 -30 -26h-380q-30 0 -25 30l96 608q5 26 30 26h380q30 0 25 -30l-12 -80q-5 -26 -30 -26h-255l-19 -125h206zM433 737q-11 -14 -29 -14h-87q-20 0 -28 17l-61 119
q-6 11 -2 18.5t17 7.5h73q19 0 26 -16l26 -49l45 53q9 12 27 12h83q14 0 17.5 -8t-5.5 -19z" />
    <glyph glyph-name="ecaron" unicode="&#x11b;" horiz-adv-x="463" 
d="M263 512q88 0 135.5 -41.5t47.5 -116.5q0 -18 -3 -39l-13 -80q-5 -26 -30 -26h-229q-3 -20 -3 -37q0 -35 16.5 -48.5t52.5 -13.5q21 0 40 7t39 21q25 18 38 -7l30 -57q13 -24 -8 -39q-67 -47 -149 -47q-99 0 -151 41t-52 122q0 11 1 22t3 23l20 129q30 187 215 187z
M261 390q-30 0 -49 -19t-24 -58l-1 -9h120q2 11 2.5 19.5t0.5 14.5q0 52 -49 52zM362 579q-11 -14 -29 -14h-87q-20 0 -28 17l-61 119q-6 11 -2 18.5t17 7.5h73q19 0 26 -16l26 -49l45 53q9 12 27 12h83q14 0 17.5 -8t-5.5 -19z" />
    <glyph glyph-name="Gcircumflex" unicode="&#x11c;" horiz-adv-x="573" 
d="M533 230q-19 -120 -86 -181t-183 -61q-109 0 -167 50.5t-58 144.5q0 12 1 24t3 26l33 208q18 116 87.5 175.5t190.5 59.5q74 0 129 -28.5t84 -82.5q12 -24 -12 -37l-76 -45q-23 -13 -38 10q-17 23 -41 35t-58 12q-94 0 -113 -116l-29 -184q-3 -20 -3 -35q0 -81 78 -81
q47 0 74 30.5t38 95.5h-70q-30 0 -25 30l12 78q5 26 30 26h193q31 0 26 -30zM336 735q-9 -12 -27 -12h-83q-14 0 -18 8t6 19l102 121q11 14 29 14h87q19 0 28 -17l61 -119q6 -11 2 -18.5t-17 -7.5h-73q-19 0 -26 16l-26 49z" />
    <glyph glyph-name="gcircumflex" unicode="&#x11d;" horiz-adv-x="490" 
d="M267 512q90 0 138.5 -41t48.5 -116q0 -19 -3 -40l-48 -304q-14 -89 -70.5 -136t-150.5 -47q-51 0 -94 13.5t-73 36.5q-20 17 -3 39l40 55q15 21 39 5q21 -15 43 -21.5t45 -6.5q72 0 83 69l2 12h-2q-30 -21 -76 -21q-77 0 -118.5 40t-41.5 112q0 11 1 22t3 23l19 119
q29 187 218 187zM309 312q1 7 1.5 13t0.5 11q0 54 -50 54q-60 0 -72 -78l-17 -103q-1 -7 -1.5 -13t-0.5 -11q0 -54 50 -54q60 0 72 78zM260 577q-9 -12 -27 -12h-83q-14 0 -18 8t6 19l102 121q11 14 29 14h87q19 0 28 -17l61 -119q6 -11 2 -18.5t-17 -7.5h-73q-19 0 -26 16
l-26 49z" />
    <glyph glyph-name="Gbreve" unicode="&#x11e;" horiz-adv-x="573" 
d="M533 230q-19 -120 -86 -181t-183 -61q-109 0 -167 50.5t-58 144.5q0 12 1 24t3 26l33 208q18 116 87.5 175.5t190.5 59.5q74 0 129 -28.5t84 -82.5q12 -24 -12 -37l-76 -45q-23 -13 -38 10q-17 23 -41 35t-58 12q-94 0 -113 -116l-29 -184q-3 -20 -3 -35q0 -81 78 -81
q47 0 74 30.5t38 95.5h-70q-30 0 -25 30l12 78q5 26 30 26h193q31 0 26 -30zM523 879q25 0 20 -24q-13 -66 -55.5 -97.5t-107.5 -31.5q-71 0 -109.5 35t-38.5 95q0 23 23 23h56q11 0 16 -2.5t7 -13.5q2 -13 14 -21t35 -8q19 0 34 7t23 21q5 8 10.5 12.5t15.5 4.5h57z" />
    <glyph glyph-name="gbreve" unicode="&#x11f;" horiz-adv-x="490" 
d="M267 512q90 0 138.5 -41t48.5 -116q0 -19 -3 -40l-48 -304q-14 -89 -70.5 -136t-150.5 -47q-51 0 -94 13.5t-73 36.5q-20 17 -3 39l40 55q15 21 39 5q21 -15 43 -21.5t45 -6.5q72 0 83 69l2 12h-2q-30 -21 -76 -21q-77 0 -118.5 40t-41.5 112q0 11 1 22t3 23l19 119
q29 187 218 187zM309 312q1 7 1.5 13t0.5 11q0 54 -50 54q-60 0 -72 -78l-17 -103q-1 -7 -1.5 -13t-0.5 -11q0 -54 50 -54q60 0 72 78zM447 721q25 0 20 -24q-13 -66 -55.5 -97.5t-107.5 -31.5q-71 0 -109.5 35t-38.5 95q0 23 23 23h56q11 0 16 -2.5t7 -13.5q2 -13 14 -21
t35 -8q19 0 34 7t23 21q5 8 10.5 12.5t15.5 4.5h57z" />
    <glyph glyph-name="Gdotaccent" unicode="&#x120;" horiz-adv-x="573" 
d="M533 230q-19 -120 -86 -181t-183 -61q-109 0 -167 50.5t-58 144.5q0 12 1 24t3 26l33 208q18 116 87.5 175.5t190.5 59.5q74 0 129 -28.5t84 -82.5q12 -24 -12 -37l-76 -45q-23 -13 -38 10q-17 23 -41 35t-58 12q-94 0 -113 -116l-29 -184q-3 -20 -3 -35q0 -81 78 -81
q47 0 74 30.5t38 95.5h-70q-30 0 -25 30l12 78q5 26 30 26h193q31 0 26 -30zM372 724q-34 0 -54.5 20.5t-20.5 52.5q0 38 24 62.5t61 24.5q35 0 55 -20.5t20 -53.5q0 -38 -24.5 -62t-60.5 -24z" />
    <glyph glyph-name="gdotaccent" unicode="&#x121;" horiz-adv-x="490" 
d="M267 512q90 0 138.5 -41t48.5 -116q0 -19 -3 -40l-48 -304q-14 -89 -70.5 -136t-150.5 -47q-51 0 -94 13.5t-73 36.5q-20 17 -3 39l40 55q15 21 39 5q21 -15 43 -21.5t45 -6.5q72 0 83 69l2 12h-2q-30 -21 -76 -21q-77 0 -118.5 40t-41.5 112q0 11 1 22t3 23l19 119
q29 187 218 187zM309 312q1 7 1.5 13t0.5 11q0 54 -50 54q-60 0 -72 -78l-17 -103q-1 -7 -1.5 -13t-0.5 -11q0 -54 50 -54q60 0 72 78zM296 566q-34 0 -54.5 20.5t-20.5 52.5q0 38 24 62.5t61 24.5q35 0 55 -20.5t20 -53.5q0 -38 -24.5 -62t-60.5 -24z" />
    <glyph glyph-name="Gcommaaccent" unicode="&#x122;" horiz-adv-x="573" 
d="M533 230q-19 -120 -86 -181t-183 -61q-109 0 -167 50.5t-58 144.5q0 12 1 24t3 26l33 208q18 116 87.5 175.5t190.5 59.5q74 0 129 -28.5t84 -82.5q12 -24 -12 -37l-76 -45q-23 -13 -38 10q-17 23 -41 35t-58 12q-94 0 -113 -116l-29 -184q-3 -20 -3 -35q0 -81 78 -81
q47 0 74 30.5t38 95.5h-70q-30 0 -25 30l12 78q5 26 30 26h193q31 0 26 -30zM238 -40q31 0 50 -19.5t19 -52.5q0 -48 -29.5 -89.5t-75.5 -59.5q-16 -6 -24 9l-15 28q-9 15 8 24t30 27q-40 16 -40 61q0 34 22.5 53t54.5 19z" />
    <glyph glyph-name="gcommaaccent" unicode="&#x123;" horiz-adv-x="490" 
d="M332 690q18 -7 28.5 -22.5t10.5 -36.5q0 -35 -21.5 -54.5t-54.5 -19.5q-31 0 -50 19.5t-19 53.5q0 24 8 47t22.5 42.5t33.5 34.5t41 24q16 6 24 -9l15 -28q8 -14 -8 -24q-18 -11 -30 -27zM267 512q90 0 138.5 -41t48.5 -116q0 -19 -3 -40l-48 -304q-14 -89 -70.5 -136
t-150.5 -47q-51 0 -94 13.5t-73 36.5q-20 17 -3 39l40 55q15 21 39 5q21 -15 43 -21.5t45 -6.5q72 0 83 69l2 12h-2q-30 -21 -76 -21q-77 0 -118.5 40t-41.5 112q0 11 1 22t3 23l19 119q29 187 218 187zM309 312q1 7 1.5 13t0.5 11q0 54 -50 54q-60 0 -72 -78l-17 -103
q-1 -7 -1.5 -13t-0.5 -11q0 -54 50 -54q60 0 72 78z" />
    <glyph glyph-name="Hcircumflex" unicode="&#x124;" horiz-adv-x="622" 
d="M519 26q-5 -26 -30 -26h-100q-30 0 -25 30l37 238h-178l-38 -242q-5 -26 -30 -26h-100q-30 0 -25 30l96 608q5 26 30 26h100q30 0 25 -30l-36 -230h178l37 234q5 26 30 26h100q30 0 25 -30zM356 735q-9 -12 -27 -12h-83q-14 0 -18 8t6 19l102 121q11 14 29 14h87
q19 0 28 -17l61 -119q6 -11 2 -18.5t-17 -7.5h-73q-19 0 -26 16l-26 49z" />
    <glyph glyph-name="hcircumflex" unicode="&#x125;" horiz-adv-x="496" 
d="M315 512q72 0 109 -38t37 -107q0 -26 -4 -49l-46 -292q-5 -26 -30 -26h-86q-30 0 -25 30l45 286q1 7 1.5 13t0.5 12q0 49 -46 49q-56 0 -68 -74l-46 -290q-5 -26 -30 -26h-86q-30 0 -25 30l102 644q5 26 30 26h86q30 0 25 -30l-29 -181h2q34 23 83 23zM173 766
q-9 -12 -27 -12h-83q-14 0 -18 8t6 19l102 121q11 14 29 14h87q19 0 28 -17l61 -119q6 -11 2 -18.5t-17 -7.5h-73q-19 0 -26 16l-26 49z" />
    <glyph glyph-name="Hbar" unicode="&#x126;" horiz-adv-x="636" 
d="M642 582q28 0 23 -27l-10 -64q-3 -23 -27 -23h-32l-70 -442q-5 -26 -30 -26h-100q-30 0 -25 30l37 238h-178l-38 -242q-5 -26 -30 -26h-100q-30 0 -25 30l69 438h-28q-28 0 -23 27l10 64q3 23 27 23h32l9 56q5 26 30 26h100q30 0 25 -30l-8 -52h178l9 56q5 26 30 26h100
q30 0 25 -30l-8 -52h28zM430 404l10 64h-178l-10 -64h178z" />
    <glyph glyph-name="hbar" unicode="&#x127;" horiz-adv-x="500" 
d="M319 512q72 0 109 -38t37 -107q0 -26 -4 -49l-46 -292q-5 -26 -30 -26h-86q-30 0 -25 30l45 286q1 7 1.5 13t0.5 12q0 49 -46 49q-56 0 -68 -74l-46 -290q-5 -26 -30 -26h-86q-30 0 -25 30l81 511h-26q-12 0 -18 6.5t-4 19.5l9 54q3 22 25 22h30l5 31q5 26 30 26h86
q30 0 25 -30l-4 -27h81q25 0 22 -26l-9 -54q-3 -22 -25 -22h-86l-8 -52h2q34 23 83 23z" />
    <glyph glyph-name="Itilde" unicode="&#x128;" horiz-adv-x="288" 
d="M185 26q-5 -26 -30 -26h-100q-30 0 -25 30l96 608q5 26 30 26h100q30 0 25 -30zM79 726q-25 0 -19 25q15 68 45.5 97t75.5 29q20 0 36.5 -7t33.5 -24q11 -11 17 -14.5t15 -3.5q17 0 29 29q8 17 25 17h45q26 0 20 -25q-16 -68 -46 -97t-75 -29q-39 0 -70 31
q-11 11 -17 14.5t-15 3.5q-8 0 -16 -7t-13 -21q-7 -18 -26 -18h-45z" />
    <glyph glyph-name="itilde" unicode="&#x129;" horiz-adv-x="246" 
d="M41 0q-30 0 -25 30l70 444q5 26 30 26h86q30 0 25 -30l-70 -444q-5 -26 -30 -26h-86zM33 568q-25 0 -19 25q15 68 45.5 97t75.5 29q20 0 36.5 -7t33.5 -24q11 -11 17 -14.5t15 -3.5q17 0 29 29q8 17 25 17h45q26 0 20 -25q-16 -68 -46 -97t-75 -29q-39 0 -70 31
q-11 11 -17 14.5t-15 3.5q-8 0 -16 -7t-13 -21q-7 -18 -26 -18h-45z" />
    <glyph glyph-name="Imacron" unicode="&#x12a;" horiz-adv-x="288" 
d="M185 26q-5 -26 -30 -26h-100q-30 0 -25 30l96 608q5 26 30 26h100q30 0 25 -30zM367 760q-4 -22 -26 -22h-239q-25 0 -22 26l10 64q4 22 26 22h239q12 0 18 -6.5t4 -19.5z" />
    <glyph glyph-name="imacron" unicode="&#x12b;" horiz-adv-x="246" 
d="M41 0q-30 0 -25 30l70 444q5 26 30 26h86q30 0 25 -30l-70 -444q-5 -26 -30 -26h-86zM321 602q-4 -22 -26 -22h-239q-25 0 -22 26l10 64q4 22 26 22h239q12 0 18 -6.5t4 -19.5z" />
    <glyph glyph-name="Ibreve" unicode="&#x12c;" horiz-adv-x="288" 
d="M185 26q-5 -26 -30 -26h-100q-30 0 -25 30l96 608q5 26 30 26h100q30 0 25 -30zM376 879q25 0 20 -24q-13 -66 -55.5 -97.5t-107.5 -31.5q-71 0 -109.5 35t-38.5 95q0 23 23 23h56q11 0 16 -2.5t7 -13.5q2 -13 14 -21t35 -8q19 0 34 7t23 21q5 8 10.5 12.5t15.5 4.5h57z
" />
    <glyph glyph-name="ibreve" unicode="&#x12d;" horiz-adv-x="246" 
d="M41 0q-30 0 -25 30l70 444q5 26 30 26h86q30 0 25 -30l-70 -444q-5 -26 -30 -26h-86zM330 721q25 0 20 -24q-13 -66 -55.5 -97.5t-107.5 -31.5q-71 0 -109.5 35t-38.5 95q0 23 23 23h56q11 0 16 -2.5t7 -13.5q2 -13 14 -21t35 -8q19 0 34 7t23 21q5 8 10.5 12.5t15.5 4.5
h57z" />
    <glyph glyph-name="Iogonek" unicode="&#x12e;" horiz-adv-x="288" 
d="M256 664q30 0 25 -30l-96 -608q-5 -26 -30 -26h-13q-28 -9 -44 -25t-16 -35q0 -20 19 -20q8 0 18 6q19 13 31 -7l20 -33q12 -20 -6 -33q-20 -14 -40 -19.5t-44 -5.5q-48 0 -73.5 22t-25.5 56q0 28 13.5 52.5t45.5 42.5v2q-13 7 -10 27l96 608q5 26 30 26h100z" />
    <glyph glyph-name="iogonek" unicode="&#x12f;" horiz-adv-x="246" 
d="M202 500q30 0 25 -30l-70 -444q-5 -26 -30 -26h-5q-26 -9 -43 -25.5t-17 -34.5q0 -20 19 -20q8 0 18 6q19 13 31 -7l20 -33q11 -20 -6 -33q-20 -14 -40 -19.5t-44 -5.5q-48 0 -73.5 22t-25.5 56q0 29 14.5 53.5t47.5 43.5v2q-10 8 -7 25l70 444q5 26 30 26h86zM179 566
q-34 0 -54.5 20.5t-20.5 52.5q0 38 24 62.5t61 24.5q35 0 55 -20.5t20 -53.5q0 -38 -24.5 -62t-60.5 -24z" />
    <glyph glyph-name="Idotaccent" unicode="&#x130;" horiz-adv-x="288" 
d="M185 26q-5 -26 -30 -26h-100q-30 0 -25 30l96 608q5 26 30 26h100q30 0 25 -30zM225 724q-34 0 -54.5 20.5t-20.5 52.5q0 38 24 62.5t61 24.5q35 0 55 -20.5t20 -53.5q0 -38 -24.5 -62t-60.5 -24z" />
    <glyph glyph-name="dotlessi" unicode="&#x131;" horiz-adv-x="246" 
d="M41 0q-30 0 -25 30l70 444q5 26 30 26h86q30 0 25 -30l-70 -444q-5 -26 -30 -26h-86z" />
    <glyph glyph-name="IJ" unicode="&#x132;" horiz-adv-x="807" 
d="M185 26q-5 -26 -30 -26h-100q-30 0 -25 30l96 608q5 26 30 26h100q30 0 25 -30zM743 216q-18 -113 -80 -170.5t-172 -57.5q-74 0 -126.5 26t-82.5 74q-13 22 9 38l71 52q21 15 39 -7q34 -47 90 -47q38 0 64.5 27t34.5 80l64 407q5 26 30 26h100q30 0 25 -30z" />
    <glyph glyph-name="ij" unicode="&#x133;" horiz-adv-x="492" 
d="M179 566q-34 0 -54.5 20.5t-20.5 52.5q0 38 24 62.5t61 24.5q35 0 55 -20.5t20 -53.5q0 -38 -24.5 -62t-60.5 -24zM41 0q-30 0 -25 30l70 444q5 26 30 26h86q30 0 25 -30l-70 -444q-5 -26 -30 -26h-86zM425 566q-34 0 -54.5 20.5t-20.5 52.5q0 38 24 62.5t61 24.5
q35 0 55 -20.5t20 -53.5q0 -38 -24.5 -62t-60.5 -24zM205 -38q26 0 37.5 10.5t16.5 37.5l73 464q5 26 30 26h86q30 0 25 -30l-73 -465q-14 -85 -58.5 -125t-124.5 -40h-27q-30 0 -25 30l10 66q5 26 30 26z" />
    <glyph glyph-name="Jcircumflex" unicode="&#x134;" horiz-adv-x="525" 
d="M461 216q-18 -113 -80 -170.5t-172 -57.5q-74 0 -126.5 26t-82.5 74q-13 22 9 38l71 52q21 15 39 -7q34 -47 90 -47q38 0 64.5 27t34.5 80l64 407q5 26 30 26h100q30 0 25 -30zM435 735q-9 -12 -27 -12h-83q-14 0 -18 8t6 19l102 121q11 14 29 14h87q19 0 28 -17l61 -119
q6 -11 2 -18.5t-17 -7.5h-73q-19 0 -26 16l-26 49z" />
    <glyph glyph-name="jcircumflex" unicode="&#x135;" horiz-adv-x="246" 
d="M-41 -38q26 0 37.5 10.5t16.5 37.5l73 464q5 26 30 26h86q30 0 25 -30l-73 -465q-14 -85 -58.5 -125t-124.5 -40h-27q-30 0 -25 30l10 66q5 26 30 26zM143 577q-9 -12 -27 -12h-83q-14 0 -18 8t6 19l102 121q11 14 29 14h87q19 0 28 -17l61 -119q6 -11 2 -18.5t-17 -7.5
h-73q-19 0 -26 16l-26 49z" />
    <glyph glyph-name="Kcommaaccent" unicode="&#x136;" horiz-adv-x="589" 
d="M593 664q18 0 22.5 -10t-6.5 -24l-239 -295l152 -302q8 -14 2.5 -23.5t-22.5 -9.5h-121q-23 0 -33 21l-119 265h-2l-42 -260q-5 -26 -30 -26h-100q-30 0 -25 30l96 608q5 26 30 26h100q30 0 25 -30l-38 -233h2l190 246q13 17 34 17h124zM248 -40q31 0 50 -19.5t19 -52.5
q0 -48 -29.5 -89.5t-75.5 -59.5q-16 -6 -24 9l-15 28q-9 15 8 24t30 27q-40 16 -40 61q0 34 22.5 53t54.5 19z" />
    <glyph glyph-name="kcommaaccent" unicode="&#x137;" horiz-adv-x="489" 
d="M477 500q18 0 22.5 -10t-6.5 -24l-173 -211l112 -222q8 -14 2.5 -23.5t-22.5 -9.5h-103q-23 0 -32 21l-88 197h-2l-30 -192q-5 -26 -30 -26h-86q-30 0 -25 30l102 644q5 26 30 26h86q30 0 25 -30l-58 -366h2l136 179q13 17 34 17h104zM202 -40q31 0 50 -19.5t19 -52.5
q0 -48 -29.5 -89.5t-75.5 -59.5q-16 -6 -24 9l-15 28q-9 15 8 24t30 27q-40 16 -40 61q0 34 22.5 53t54.5 19z" />
    <glyph glyph-name="kgreenlandic" unicode="&#x138;" horiz-adv-x="489" 
d="M477 500q18 0 22.5 -10t-6.5 -24l-173 -211l112 -222q8 -14 2.5 -23.5t-22.5 -9.5h-103q-23 0 -32 21l-88 197h-2l-30 -192q-5 -26 -30 -26h-86q-30 0 -25 30l70 444q5 26 30 26h86q30 0 25 -30l-26 -166h2l136 179q13 17 34 17h104z" />
    <glyph glyph-name="Lacute" unicode="&#x139;" horiz-adv-x="505" 
d="M437 136q31 0 26 -30l-13 -80q-5 -26 -30 -26h-365q-30 0 -25 30l96 608q5 26 30 26h100q30 0 25 -30l-78 -498h234zM287 735q-9 -12 -27 -12h-90q-14 0 -18 8t4 19l88 120q11 15 29 15h102q16 0 20 -9t-6 -20z" />
    <glyph glyph-name="lacute" unicode="&#x13a;" horiz-adv-x="246" 
d="M41 0q-30 0 -25 30l102 644q5 26 30 26h86q30 0 25 -30l-102 -644q-5 -26 -30 -26h-86zM271 766q-9 -12 -27 -12h-90q-14 0 -18 8t4 19l88 120q11 15 29 15h102q16 0 20 -9t-6 -20z" />
    <glyph glyph-name="Lcommaaccent" unicode="&#x13b;" horiz-adv-x="505" 
d="M437 136q31 0 26 -30l-13 -80q-5 -26 -30 -26h-365q-30 0 -25 30l96 608q5 26 30 26h100q30 0 25 -30l-78 -498h234zM224 -40q31 0 50 -19.5t19 -52.5q0 -48 -29.5 -89.5t-75.5 -59.5q-16 -6 -24 9l-15 28q-9 15 8 24t30 27q-40 16 -40 61q0 34 22.5 53t54.5 19z" />
    <glyph glyph-name="lcommaaccent" unicode="&#x13c;" horiz-adv-x="246" 
d="M41 0q-30 0 -25 30l102 644q5 26 30 26h86q30 0 25 -30l-102 -644q-5 -26 -30 -26h-86zM68 -40q31 0 50 -19.5t19 -52.5q0 -48 -29.5 -89.5t-75.5 -59.5q-16 -6 -24 9l-15 28q-9 15 8 24t30 27q-40 16 -40 61q0 34 22.5 53t54.5 19z" />
    <glyph glyph-name="Lcaron" unicode="&#x13d;" horiz-adv-x="505" 
d="M437 136q31 0 26 -30l-13 -80q-5 -26 -30 -26h-365q-30 0 -25 30l96 608q5 26 30 26h100q30 0 25 -30l-78 -498h234zM428 508q-6 -18 -25 -18h-57q-25 0 -19 24l38 165q4 21 27 21h75q29 0 19 -28z" />
    <glyph glyph-name="lcaron" unicode="&#x13e;" horiz-adv-x="336" 
d="M41 0q-30 0 -25 30l102 644q5 26 30 26h86q30 0 25 -30l-102 -644q-5 -26 -30 -26h-86zM377 508q-6 -18 -25 -18h-57q-25 0 -19 24l38 165q4 21 27 21h75q29 0 19 -28z" />
    <glyph glyph-name="Ldot" unicode="&#x13f;" horiz-adv-x="505" 
d="M437 136q31 0 26 -30l-13 -80q-5 -26 -30 -26h-365q-30 0 -25 30l96 608q5 26 30 26h100q30 0 25 -30l-78 -498h234zM401 247q-34 0 -54.5 20.5t-20.5 52.5q0 38 24 62.5t61 24.5q35 0 55 -20.5t20 -53.5q0 -38 -24.5 -62t-60.5 -24z" />
    <glyph glyph-name="ldot" unicode="&#x140;" horiz-adv-x="356" 
d="M41 0q-30 0 -25 30l102 644q5 26 30 26h86q30 0 25 -30l-102 -644q-5 -26 -30 -26h-86zM306 247q-34 0 -54.5 20.5t-20.5 52.5q0 38 24 62.5t61 24.5q35 0 55 -20.5t20 -53.5q0 -38 -24.5 -62t-60.5 -24z" />
    <glyph glyph-name="Lslash" unicode="&#x141;" horiz-adv-x="520" 
d="M452 136q31 0 26 -30l-13 -80q-5 -26 -30 -26h-365q-30 0 -25 30l19 123l-29 -17q-14 -8 -22 -2.5t-6 21.5l15 95q3 19 19 28l47 27l53 333q5 26 30 26h100q30 0 25 -30l-36 -230l156 90q14 8 22 2.5t6 -21.5l-15 -95q-3 -19 -19 -28l-174 -100l-18 -116h234z" />
    <glyph glyph-name="lslash" unicode="&#x142;" horiz-adv-x="262" 
d="M264 479q14 8 21.5 3t5.5 -20l-13 -84q-3 -19 -18 -27l-48 -30l-47 -295q-5 -26 -30 -26h-86q-30 0 -25 30l31 193l-29 -18q-14 -8 -21.5 -3t-5.5 21l13 83q3 19 18 27l47 29l49 312q5 26 30 26h86q30 0 25 -30l-33 -210z" />
    <glyph glyph-name="Nacute" unicode="&#x143;" horiz-adv-x="622" 
d="M590 664q30 0 25 -30l-96 -608q-5 -26 -30 -26h-100q-25 0 -31 23l-116 385h-2l-59 -382q-5 -26 -30 -26h-96q-30 0 -25 30l96 608q5 26 30 26h112q25 0 31 -23l109 -361h2l54 358q5 26 30 26h96zM454 735q-9 -12 -27 -12h-90q-14 0 -18 8t4 19l88 120q11 15 29 15h102
q16 0 20 -9t-6 -20z" />
    <glyph glyph-name="nacute" unicode="&#x144;" horiz-adv-x="492" 
d="M311 316q1 7 1.5 13t0.5 12q0 49 -46 49q-56 0 -68 -74l-46 -290q-5 -26 -30 -26h-86q-30 0 -25 30l47 298q29 184 214 184q88 0 135.5 -40t47.5 -114q0 -19 -3 -40l-46 -292q-5 -26 -30 -26h-86q-30 0 -25 30zM364 577q-9 -12 -27 -12h-90q-14 0 -18 8t4 19l88 120
q11 15 29 15h102q16 0 20 -9t-6 -20z" />
    <glyph glyph-name="Ncommaaccent" unicode="&#x145;" horiz-adv-x="622" 
d="M590 664q30 0 25 -30l-96 -608q-5 -26 -30 -26h-100q-25 0 -31 23l-116 385h-2l-59 -382q-5 -26 -30 -26h-96q-30 0 -25 30l96 608q5 26 30 26h112q25 0 31 -23l109 -361h2l54 358q5 26 30 26h96zM256 -40q31 0 50 -19.5t19 -52.5q0 -48 -29.5 -89.5t-75.5 -59.5
q-16 -6 -24 9l-15 28q-9 15 8 24t30 27q-40 16 -40 61q0 34 22.5 53t54.5 19z" />
    <glyph glyph-name="ncommaaccent" unicode="&#x146;" horiz-adv-x="492" 
d="M311 316q1 7 1.5 13t0.5 12q0 49 -46 49q-56 0 -68 -74l-46 -290q-5 -26 -30 -26h-86q-30 0 -25 30l47 298q29 184 214 184q88 0 135.5 -40t47.5 -114q0 -19 -3 -40l-46 -292q-5 -26 -30 -26h-86q-30 0 -25 30zM191 -40q31 0 50 -19.5t19 -52.5q0 -48 -29.5 -89.5
t-75.5 -59.5q-16 -6 -24 9l-15 28q-9 15 8 24t30 27q-40 16 -40 61q0 34 22.5 53t54.5 19z" />
    <glyph glyph-name="Ncaron" unicode="&#x147;" horiz-adv-x="622" 
d="M590 664q30 0 25 -30l-96 -608q-5 -26 -30 -26h-100q-25 0 -31 23l-116 385h-2l-59 -382q-5 -26 -30 -26h-96q-30 0 -25 30l96 608q5 26 30 26h112q25 0 31 -23l109 -361h2l54 358q5 26 30 26h96zM460 737q-11 -14 -29 -14h-87q-20 0 -28 17l-61 119q-6 11 -2 18.5
t17 7.5h73q19 0 26 -16l26 -49l45 53q9 12 27 12h83q14 0 17.5 -8t-5.5 -19z" />
    <glyph glyph-name="ncaron" unicode="&#x148;" horiz-adv-x="492" 
d="M311 316q1 7 1.5 13t0.5 12q0 49 -46 49q-56 0 -68 -74l-46 -290q-5 -26 -30 -26h-86q-30 0 -25 30l47 298q29 184 214 184q88 0 135.5 -40t47.5 -114q0 -19 -3 -40l-46 -292q-5 -26 -30 -26h-86q-30 0 -25 30zM370 579q-11 -14 -29 -14h-87q-20 0 -28 17l-61 119
q-6 11 -2 18.5t17 7.5h73q19 0 26 -16l26 -49l45 53q9 12 27 12h83q14 0 17.5 -8t-5.5 -19z" />
    <glyph glyph-name="napostrophe" unicode="&#x149;" horiz-adv-x="492" 
d="M311 316q1 7 1.5 13t0.5 12q0 49 -46 49q-56 0 -68 -74l-46 -290q-5 -26 -30 -26h-86q-30 0 -25 30l47 298q29 184 214 184q88 0 135.5 -40t47.5 -114q0 -19 -3 -40l-46 -292q-5 -26 -30 -26h-86q-30 0 -25 30zM199 761q29 0 47 -19t18 -51q0 -46 -30 -96.5t-82 -89.5
q-13 -11 -24 2l-22 24q-14 12 1 25q37 33 53 77q-17 7 -26.5 21t-9.5 34q0 34 21.5 53.5t53.5 19.5z" />
    <glyph glyph-name="Eng" unicode="&#x14a;" horiz-adv-x="622" 
d="M590 664q30 0 25 -30l-99 -629q-26 -165 -183 -165h-57q-30 0 -25 30l10 66q5 26 30 26h20q27 0 39 12t16 49l-123 389h-2l-60 -386q-5 -26 -30 -26h-96q-30 0 -25 30l96 608q5 26 30 26h112q24 0 31 -23l111 -346h2l52 343q5 26 30 26h96z" />
    <glyph glyph-name="eng" unicode="&#x14b;" horiz-adv-x="492" 
d="M311 316q1 7 1.5 13t0.5 12q0 49 -46 49q-56 0 -68 -74l-46 -290q-5 -26 -30 -26h-86q-30 0 -25 30l47 298q29 184 214 184q88 0 135.5 -40t47.5 -114q0 -19 -3 -40l-49 -313q-14 -85 -58.5 -125t-124.5 -40h-27q-30 0 -25 30l10 66q5 26 30 26q26 0 37.5 10.5t16.5 37.5
z" />
    <glyph glyph-name="Omacron" unicode="&#x14c;" horiz-adv-x="596" 
d="M76 441q18 116 86.5 175.5t186.5 59.5q110 0 170.5 -51t60.5 -144q0 -12 -1 -24.5t-3 -25.5l-33 -208q-18 -116 -86.5 -175.5t-186.5 -59.5q-111 0 -171 51t-60 145q0 26 4 49zM200 240q-3 -20 -3 -35q0 -81 80 -81q95 0 113 116l29 184q3 19 3 36q0 80 -79 80
q-95 0 -114 -116zM521 760q-4 -22 -26 -22h-239q-25 0 -22 26l10 64q4 22 26 22h239q12 0 18 -6.5t4 -19.5z" />
    <glyph glyph-name="omacron" unicode="&#x14d;" horiz-adv-x="480" 
d="M267 512q90 0 138.5 -41.5t48.5 -116.5q0 -20 -3 -39l-22 -140q-30 -187 -219 -187q-90 0 -138.5 41.5t-48.5 116.5q0 19 3 39l22 140q30 187 219 187zM308 312q2 7 2 13.5v12.5q0 52 -49 52q-61 0 -73 -78l-19 -124q-1 -7 -1.5 -13t-0.5 -12q0 -53 49 -53q61 0 73 78z
M438 602q-4 -22 -26 -22h-239q-25 0 -22 26l10 64q4 22 26 22h239q12 0 18 -6.5t4 -19.5z" />
    <glyph glyph-name="Obreve" unicode="&#x14e;" horiz-adv-x="596" 
d="M76 441q18 116 86.5 175.5t186.5 59.5q110 0 170.5 -51t60.5 -144q0 -12 -1 -24.5t-3 -25.5l-33 -208q-18 -116 -86.5 -175.5t-186.5 -59.5q-111 0 -171 51t-60 145q0 26 4 49zM200 240q-3 -20 -3 -35q0 -81 80 -81q95 0 113 116l29 184q3 19 3 36q0 80 -79 80
q-95 0 -114 -116zM530 879q25 0 20 -24q-13 -66 -55.5 -97.5t-107.5 -31.5q-71 0 -109.5 35t-38.5 95q0 23 23 23h56q11 0 16 -2.5t7 -13.5q2 -13 14 -21t35 -8q19 0 34 7t23 21q5 8 10.5 12.5t15.5 4.5h57z" />
    <glyph glyph-name="obreve" unicode="&#x14f;" horiz-adv-x="480" 
d="M267 512q90 0 138.5 -41.5t48.5 -116.5q0 -20 -3 -39l-22 -140q-30 -187 -219 -187q-90 0 -138.5 41.5t-48.5 116.5q0 19 3 39l22 140q30 187 219 187zM308 312q2 7 2 13.5v12.5q0 52 -49 52q-61 0 -73 -78l-19 -124q-1 -7 -1.5 -13t-0.5 -12q0 -53 49 -53q61 0 73 78z
M447 721q25 0 20 -24q-13 -66 -55.5 -97.5t-107.5 -31.5q-71 0 -109.5 35t-38.5 95q0 23 23 23h56q11 0 16 -2.5t7 -13.5q2 -13 14 -21t35 -8q19 0 34 7t23 21q5 8 10.5 12.5t15.5 4.5h57z" />
    <glyph glyph-name="Ohungarumlaut" unicode="&#x150;" horiz-adv-x="596" 
d="M76 441q18 116 86.5 175.5t186.5 59.5q110 0 170.5 -51t60.5 -144q0 -12 -1 -24.5t-3 -25.5l-33 -208q-18 -116 -86.5 -175.5t-186.5 -59.5q-111 0 -171 51t-60 145q0 26 4 49zM200 240q-3 -20 -3 -35q0 -81 80 -81q95 0 113 116l29 184q3 19 3 36q0 80 -79 80
q-95 0 -114 -116zM340 736q-10 -13 -26 -13h-70q-14 0 -18 8t4 19l83 120q10 15 29 15h83q15 0 19.5 -9t-5.5 -20zM513 736q-10 -13 -26 -13h-70q-14 0 -18 8t4 19l83 120q10 15 29 15h83q15 0 19.5 -9t-5.5 -20z" />
    <glyph glyph-name="ohungarumlaut" unicode="&#x151;" horiz-adv-x="480" 
d="M267 512q90 0 138.5 -41.5t48.5 -116.5q0 -20 -3 -39l-22 -140q-30 -187 -219 -187q-90 0 -138.5 41.5t-48.5 116.5q0 19 3 39l22 140q30 187 219 187zM308 312q2 7 2 13.5v12.5q0 52 -49 52q-61 0 -73 -78l-19 -124q-1 -7 -1.5 -13t-0.5 -12q0 -53 49 -53q61 0 73 78z
M257 578q-10 -13 -26 -13h-70q-14 0 -18 8t4 19l83 120q10 15 29 15h83q15 0 19.5 -9t-5.5 -20zM430 578q-10 -13 -26 -13h-70q-14 0 -18 8t4 19l83 120q10 15 29 15h83q15 0 19.5 -9t-5.5 -20z" />
    <glyph glyph-name="OE" unicode="&#x152;" horiz-adv-x="845" 
d="M550 403h206q30 0 25 -30l-12 -78q-5 -26 -30 -26h-210l-21 -133h249q31 0 26 -30l-13 -80q-5 -26 -30 -26h-475q-226 0 -226 184q0 13 1 26t3 27l32 199q19 117 85.5 172.5t193.5 55.5h487q30 0 25 -30l-12 -80q-5 -26 -30 -26h-255zM349 528q-54 0 -83 -26t-38 -82
l-28 -177q-2 -8 -2 -15v-14q0 -78 89 -78h65l61 392h-64z" />
    <glyph glyph-name="oe" unicode="&#x153;" horiz-adv-x="725" 
d="M545 512q76 0 119.5 -43t43.5 -115q0 -18 -3 -39l-13 -80q-5 -26 -30 -26h-229q-3 -21 -3 -39q0 -36 16.5 -48t52.5 -12q21 0 40 7t39 21q25 18 38 -7l30 -57q12 -25 -8 -39q-65 -47 -139 -47q-111 0 -151 68h-2q-25 -35 -61.5 -51.5t-89.5 -16.5q-82 0 -127 41.5
t-45 115.5q0 19 3 40l22 140q15 92 66 139.5t138 47.5q104 0 142 -64h2q49 64 149 64zM308 312q2 7 2 13.5v12.5q0 52 -49 52q-61 0 -73 -78l-19 -124q-1 -7 -1.5 -13t-0.5 -12q0 -53 49 -53q61 0 73 78zM569 304q2 11 2.5 19.5t0.5 14.5q0 52 -49 52q-30 0 -49 -19t-24 -58
l-1 -9h120z" />
    <glyph glyph-name="Racute" unicode="&#x154;" horiz-adv-x="570" 
d="M493 32q6 -14 0 -23t-22 -9h-112q-25 0 -32 23l-70 215h-38l-34 -212q-5 -26 -30 -26h-100q-30 0 -25 30l96 608q5 26 30 26h185q108 0 163.5 -46.5t55.5 -140.5q0 -90 -39 -147t-115 -78zM402 464q0 64 -78 64h-59l-25 -158h59q54 0 78.5 23t24.5 71zM420 735
q-9 -12 -27 -12h-90q-14 0 -18 8t4 19l88 120q11 15 29 15h102q16 0 20 -9t-6 -20z" />
    <glyph glyph-name="racute" unicode="&#x155;" horiz-adv-x="369" 
d="M58 320q15 97 64 144.5t137 47.5q69 0 116 -26q23 -14 8 -38l-36 -60q-14 -21 -39 -8q-20 10 -43 10q-26 0 -43 -17.5t-22 -49.5l-47 -297q-5 -26 -30 -26h-86q-30 0 -25 30zM326 577q-9 -12 -27 -12h-90q-14 0 -18 8t4 19l88 120q11 15 29 15h102q16 0 20 -9t-6 -20z
" />
    <glyph glyph-name="Rcommaaccent" unicode="&#x156;" horiz-adv-x="570" 
d="M493 32q6 -14 0 -23t-22 -9h-112q-25 0 -32 23l-70 215h-38l-34 -212q-5 -26 -30 -26h-100q-30 0 -25 30l96 608q5 26 30 26h185q108 0 163.5 -46.5t55.5 -140.5q0 -90 -39 -147t-115 -78zM402 464q0 64 -78 64h-59l-25 -158h59q54 0 78.5 23t24.5 71zM240 -40
q31 0 50 -19.5t19 -52.5q0 -48 -29.5 -89.5t-75.5 -59.5q-16 -6 -24 9l-15 28q-9 15 8 24t30 27q-40 16 -40 61q0 34 22.5 53t54.5 19z" />
    <glyph glyph-name="rcommaaccent" unicode="&#x157;" horiz-adv-x="369" 
d="M58 320q15 97 64 144.5t137 47.5q69 0 116 -26q23 -14 8 -38l-36 -60q-14 -21 -39 -8q-20 10 -43 10q-26 0 -43 -17.5t-22 -49.5l-47 -297q-5 -26 -30 -26h-86q-30 0 -25 30zM64 -40q31 0 50 -19.5t19 -52.5q0 -48 -29.5 -89.5t-75.5 -59.5q-16 -6 -24 9l-15 28
q-9 15 8 24t30 27q-40 16 -40 61q0 34 22.5 53t54.5 19z" />
    <glyph glyph-name="Rcaron" unicode="&#x158;" horiz-adv-x="570" 
d="M493 32q6 -14 0 -23t-22 -9h-112q-25 0 -32 23l-70 215h-38l-34 -212q-5 -26 -30 -26h-100q-30 0 -25 30l96 608q5 26 30 26h185q108 0 163.5 -46.5t55.5 -140.5q0 -90 -39 -147t-115 -78zM402 464q0 64 -78 64h-59l-25 -158h59q54 0 78.5 23t24.5 71zM426 737
q-11 -14 -29 -14h-87q-20 0 -28 17l-61 119q-6 11 -2 18.5t17 7.5h73q19 0 26 -16l26 -49l45 53q9 12 27 12h83q14 0 17.5 -8t-5.5 -19z" />
    <glyph glyph-name="rcaron" unicode="&#x159;" horiz-adv-x="369" 
d="M58 320q15 97 64 144.5t137 47.5q69 0 116 -26q23 -14 8 -38l-36 -60q-14 -21 -39 -8q-20 10 -43 10q-26 0 -43 -17.5t-22 -49.5l-47 -297q-5 -26 -30 -26h-86q-30 0 -25 30zM332 579q-11 -14 -29 -14h-87q-20 0 -28 17l-61 119q-6 11 -2 18.5t17 7.5h73q19 0 26 -16
l26 -49l45 53q9 12 27 12h83q14 0 17.5 -8t-5.5 -19z" />
    <glyph glyph-name="Sacute" unicode="&#x15a;" horiz-adv-x="524" 
d="M321 676q135 0 201 -72q18 -20 -4 -39l-69 -60q-19 -16 -40 3q-37 32 -96 32q-42 0 -66 -21t-24 -57q0 -23 20 -36.5t75 -22.5q96 -16 137 -58t41 -118q0 -56 -17.5 -100t-50.5 -75t-80.5 -47.5t-106.5 -16.5q-153 0 -229 88q-17 20 4 39l70 60q11 9 20 8t20 -11
q48 -48 124 -48q89 0 89 79q0 23 -20 36t-75 23q-97 17 -137.5 59t-40.5 117q0 55 18 99t51 75t80 47.5t106 16.5zM403 735q-9 -12 -27 -12h-90q-14 0 -18 8t4 19l88 120q11 15 29 15h102q16 0 20 -9t-6 -20z" />
    <glyph glyph-name="sacute" unicode="&#x15b;" horiz-adv-x="417" 
d="M180 -12q-59 0 -101 11.5t-75 37.5q-21 17 -4 39l43 57q15 21 39 5q22 -15 47 -22.5t49 -7.5q67 0 67 42q0 16 -15 25t-54 16q-74 13 -105.5 46t-31.5 91q0 85 57 134.5t155 49.5q89 0 145 -36q22 -13 6 -38l-39 -56q-8 -11 -17.5 -12.5t-21.5 4.5q-32 18 -72 18
q-72 0 -72 -41q0 -15 14 -24.5t53 -15.5q76 -11 108 -45t32 -94q0 -86 -55 -135t-152 -49zM327 577q-9 -12 -27 -12h-90q-14 0 -18 8t4 19l88 120q11 15 29 15h102q16 0 20 -9t-6 -20z" />
    <glyph glyph-name="Scircumflex" unicode="&#x15c;" horiz-adv-x="524" 
d="M321 676q135 0 201 -72q18 -20 -4 -39l-69 -60q-19 -16 -40 3q-37 32 -96 32q-42 0 -66 -21t-24 -57q0 -23 20 -36.5t75 -22.5q96 -16 137 -58t41 -118q0 -56 -17.5 -100t-50.5 -75t-80.5 -47.5t-106.5 -16.5q-153 0 -229 88q-17 20 4 39l70 60q11 9 20 8t20 -11
q48 -48 124 -48q89 0 89 79q0 23 -20 36t-75 23q-97 17 -137.5 59t-40.5 117q0 55 18 99t51 75t80 47.5t106 16.5zM305 735q-9 -12 -27 -12h-83q-14 0 -18 8t6 19l102 121q11 14 29 14h87q19 0 28 -17l61 -119q6 -11 2 -18.5t-17 -7.5h-73q-19 0 -26 16l-26 49z" />
    <glyph glyph-name="scircumflex" unicode="&#x15d;" horiz-adv-x="417" 
d="M180 -12q-59 0 -101 11.5t-75 37.5q-21 17 -4 39l43 57q15 21 39 5q22 -15 47 -22.5t49 -7.5q67 0 67 42q0 16 -15 25t-54 16q-74 13 -105.5 46t-31.5 91q0 85 57 134.5t155 49.5q89 0 145 -36q22 -13 6 -38l-39 -56q-8 -11 -17.5 -12.5t-21.5 4.5q-32 18 -72 18
q-72 0 -72 -41q0 -15 14 -24.5t53 -15.5q76 -11 108 -45t32 -94q0 -86 -55 -135t-152 -49zM229 577q-9 -12 -27 -12h-83q-14 0 -18 8t6 19l102 121q11 14 29 14h87q19 0 28 -17l61 -119q6 -11 2 -18.5t-17 -7.5h-73q-19 0 -26 16l-26 49z" />
    <glyph glyph-name="Scedilla" unicode="&#x15e;" horiz-adv-x="524" 
d="M12 76q-17 20 4 39l70 60q11 9 20 8t20 -11q48 -48 124 -48q89 0 89 79q0 23 -20 36t-75 23q-97 17 -137.5 59t-40.5 117q0 55 18 99t51 75t80 47.5t106 16.5q135 0 201 -72q18 -20 -4 -39l-69 -60q-19 -16 -40 3q-37 32 -96 32q-42 0 -66 -21t-24 -57q0 -23 20 -36.5
t75 -22.5q96 -16 137 -58t41 -118q0 -109 -64.5 -172t-178.5 -67l-8 -22q30 -5 45.5 -22.5t15.5 -40.5q0 -37 -28 -56t-79 -19q-48 0 -79 15q-19 10 -10 33l9 23q5 11 13.5 13t19.5 -3q9 -4 19.5 -7t20.5 -3q19 0 26 6t7 15q0 7 -6.5 13t-20.5 6q-11 0 -17 6.5t-2 18.5l9 27
q-115 13 -176 85z" />
    <glyph glyph-name="scedilla" unicode="&#x15f;" horiz-adv-x="417" 
d="M4 37q-21 17 -4 39l43 57q15 21 39 5q22 -15 47 -22.5t49 -7.5q67 0 67 42q0 16 -15 25t-54 16q-74 13 -105.5 46t-31.5 91q0 85 57 134.5t155 49.5q89 0 145 -36q22 -13 6 -38l-39 -56q-8 -11 -17.5 -12.5t-21.5 4.5q-32 18 -72 18q-72 0 -72 -41q0 -15 14 -24.5
t53 -15.5q76 -11 108 -45t32 -94q0 -84 -51.5 -132t-141.5 -52l-8 -22q30 -5 45.5 -22.5t15.5 -40.5q0 -37 -28 -56t-79 -19q-48 0 -79 15q-19 10 -10 33l9 23q5 11 13.5 13t19.5 -3q9 -4 19.5 -7t20.5 -3q19 0 26 6t7 15q0 7 -6.5 13t-20.5 6q-11 0 -17 6.5t-2 18.5l9 27
q-42 4 -71.5 15.5t-53.5 30.5z" />
    <glyph glyph-name="Scaron" unicode="&#x160;" horiz-adv-x="524" 
d="M321 676q135 0 201 -72q18 -20 -4 -39l-69 -60q-19 -16 -40 3q-37 32 -96 32q-42 0 -66 -21t-24 -57q0 -23 20 -36.5t75 -22.5q96 -16 137 -58t41 -118q0 -56 -17.5 -100t-50.5 -75t-80.5 -47.5t-106.5 -16.5q-153 0 -229 88q-17 20 4 39l70 60q11 9 20 8t20 -11
q48 -48 124 -48q89 0 89 79q0 23 -20 36t-75 23q-97 17 -137.5 59t-40.5 117q0 55 18 99t51 75t80 47.5t106 16.5zM409 737q-11 -14 -29 -14h-87q-20 0 -28 17l-61 119q-6 11 -2 18.5t17 7.5h73q19 0 26 -16l26 -49l45 53q9 12 27 12h83q14 0 17.5 -8t-5.5 -19z" />
    <glyph glyph-name="scaron" unicode="&#x161;" horiz-adv-x="417" 
d="M180 -12q-59 0 -101 11.5t-75 37.5q-21 17 -4 39l43 57q15 21 39 5q22 -15 47 -22.5t49 -7.5q67 0 67 42q0 16 -15 25t-54 16q-74 13 -105.5 46t-31.5 91q0 85 57 134.5t155 49.5q89 0 145 -36q22 -13 6 -38l-39 -56q-8 -11 -17.5 -12.5t-21.5 4.5q-32 18 -72 18
q-72 0 -72 -41q0 -15 14 -24.5t53 -15.5q76 -11 108 -45t32 -94q0 -86 -55 -135t-152 -49zM333 579q-11 -14 -29 -14h-87q-20 0 -28 17l-61 119q-6 11 -2 18.5t17 7.5h73q19 0 26 -16l26 -49l45 53q9 12 27 12h83q14 0 17.5 -8t-5.5 -19z" />
    <glyph glyph-name="Tcommaaccent" unicode="&#x162;" horiz-adv-x="516" 
d="M532 664q30 0 25 -30l-12 -80q-5 -26 -30 -26h-137l-79 -502q-5 -26 -30 -26h-20l-12 -34q30 -5 45.5 -22.5t15.5 -40.5q0 -37 -28 -56t-79 -19q-48 0 -79 15q-19 10 -10 33l9 23q5 11 13.5 13t19.5 -3q9 -4 19.5 -7t20.5 -3q19 0 26 6t7 15q0 7 -6.5 13t-20.5 6
q-11 0 -17 6.5t-2 18.5l12 36h-14q-30 0 -25 30l78 498h-131q-30 0 -25 30l12 80q5 26 30 26h424z" />
    <glyph glyph-name="tcommaaccent" unicode="&#x163;" horiz-adv-x="363" 
d="M352 500q30 0 25 -30l-10 -66q-5 -26 -30 -26h-102l-33 -210q-1 -5 -1 -14q0 -44 50 -44q16 0 28 4q14 5 22.5 1t10.5 -19l9 -64q3 -27 -20 -34q-17 -5 -36 -7.5t-38 -2.5q-10 0 -19 0.5t-17 1.5l-8 -24q30 -5 45.5 -22.5t15.5 -40.5q0 -37 -28 -56t-79 -19q-48 0 -79 15
q-19 10 -10 33l9 23q5 11 13.5 13t19.5 -3q9 -4 19.5 -7t20.5 -3q19 0 26 6t7 15q0 7 -6.5 13t-20.5 6q-11 0 -17 6.5t-2 18.5l14 42q-74 32 -74 126q0 11 1 21.5t3 22.5l32 202h-28q-30 0 -25 30l10 66q5 26 30 26h32l16 101q5 26 30 26h86q30 0 25 -30l-15 -97h98z" />
    <glyph glyph-name="Tcaron" unicode="&#x164;" horiz-adv-x="516" 
d="M299 26q-5 -26 -30 -26h-100q-30 0 -25 30l78 498h-131q-30 0 -25 30l12 80q5 26 30 26h424q30 0 25 -30l-12 -80q-5 -26 -30 -26h-137zM407 737q-11 -14 -29 -14h-87q-20 0 -28 17l-61 119q-6 11 -2 18.5t17 7.5h73q19 0 26 -16l26 -49l45 53q9 12 27 12h83
q14 0 17.5 -8t-5.5 -19z" />
    <glyph glyph-name="tcaron" unicode="&#x165;" horiz-adv-x="363" 
d="M202 168q-1 -5 -1 -14q0 -44 50 -44q16 0 28 4q14 5 22.5 1t10.5 -19l9 -64q3 -27 -20 -34q-17 -5 -36 -7.5t-38 -2.5q-84 0 -127 36t-43 108q0 11 1 21.5t3 22.5l32 202h-28q-30 0 -25 30l10 66q5 26 30 26h32l16 101q5 26 30 26h86q30 0 25 -30l-15 -97h98q30 0 25 -30
l-10 -66q-5 -26 -30 -26h-102zM408 549q-6 -18 -25 -18h-57q-25 0 -19 24l38 165q4 21 27 21h75q29 0 19 -28z" />
    <glyph glyph-name="Tbar" unicode="&#x166;" horiz-adv-x="516" 
d="M532 664q30 0 25 -30l-12 -80q-5 -26 -30 -26h-137l-20 -125h74q28 0 23 -27l-10 -62q-3 -23 -27 -23h-77l-42 -265q-5 -26 -30 -26h-100q-30 0 -25 30l41 261h-74q-28 0 -23 27l10 62q3 23 27 23h77l20 125h-131q-30 0 -25 30l12 80q5 26 30 26h424z" />
    <glyph glyph-name="tbar" unicode="&#x167;" horiz-adv-x="373" 
d="M357 500q30 0 25 -30l-10 -66q-5 -26 -30 -26h-102l-10 -63h82q12 0 18 -6.5t4 -19.5l-9 -54q-3 -22 -25 -22h-86l-7 -45q-1 -5 -1 -14q0 -44 50 -44q16 0 28 4q14 5 22.5 1t10.5 -19l9 -64q3 -27 -20 -34q-17 -5 -36 -7.5t-38 -2.5q-84 0 -127 36t-43 108q0 11 1 21.5
t3 22.5l6 37h-22q-25 0 -22 26l9 54q3 22 25 22h26l10 63h-28q-30 0 -25 30l10 66q5 26 30 26h32l16 101q5 26 30 26h86q30 0 25 -30l-15 -97h98z" />
    <glyph glyph-name="Utilde" unicode="&#x168;" horiz-adv-x="588" 
d="M524 216q-18 -113 -82 -170.5t-176 -57.5q-104 0 -161 49t-57 140q0 11 1 23.5t3 25.5l65 412q5 26 30 26h100q30 0 25 -30l-64 -405q-3 -18 -3 -33q0 -72 70 -72q42 0 66.5 25.5t32.5 79.5l65 409q5 26 30 26h96q30 0 25 -30zM229 726q-25 0 -19 25q15 68 45.5 97
t75.5 29q20 0 36.5 -7t33.5 -24q11 -11 17 -14.5t15 -3.5q17 0 29 29q8 17 25 17h45q26 0 20 -25q-16 -68 -46 -97t-75 -29q-39 0 -70 31q-11 11 -17 14.5t-15 3.5q-8 0 -16 -7t-13 -21q-7 -18 -26 -18h-45z" />
    <glyph glyph-name="utilde" unicode="&#x169;" horiz-adv-x="486" 
d="M424 169q-29 -181 -211 -181q-87 0 -134 40t-47 113q0 18 3 38l47 295q5 26 30 26h86q30 0 25 -30l-46 -292q-1 -6 -1.5 -11.5t-0.5 -10.5q0 -46 46 -46q56 0 66 68l47 296q5 26 30 26h82q30 0 25 -30zM153 568q-25 0 -19 25q15 68 45.5 97t75.5 29q20 0 36.5 -7
t33.5 -24q11 -11 17 -14.5t15 -3.5q17 0 29 29q8 17 25 17h45q26 0 20 -25q-16 -68 -46 -97t-75 -29q-39 0 -70 31q-11 11 -17 14.5t-15 3.5q-8 0 -16 -7t-13 -21q-7 -18 -26 -18h-45z" />
    <glyph glyph-name="Umacron" unicode="&#x16a;" horiz-adv-x="588" 
d="M524 216q-18 -113 -82 -170.5t-176 -57.5q-104 0 -161 49t-57 140q0 11 1 23.5t3 25.5l65 412q5 26 30 26h100q30 0 25 -30l-64 -405q-3 -18 -3 -33q0 -72 70 -72q42 0 66.5 25.5t32.5 79.5l65 409q5 26 30 26h96q30 0 25 -30zM517 760q-4 -22 -26 -22h-239q-25 0 -22 26
l10 64q4 22 26 22h239q12 0 18 -6.5t4 -19.5z" />
    <glyph glyph-name="umacron" unicode="&#x16b;" horiz-adv-x="486" 
d="M424 169q-29 -181 -211 -181q-87 0 -134 40t-47 113q0 18 3 38l47 295q5 26 30 26h86q30 0 25 -30l-46 -292q-1 -6 -1.5 -11.5t-0.5 -10.5q0 -46 46 -46q56 0 66 68l47 296q5 26 30 26h82q30 0 25 -30zM441 602q-4 -22 -26 -22h-239q-25 0 -22 26l10 64q4 22 26 22h239
q12 0 18 -6.5t4 -19.5z" />
    <glyph glyph-name="Ubreve" unicode="&#x16c;" horiz-adv-x="588" 
d="M524 216q-18 -113 -82 -170.5t-176 -57.5q-104 0 -161 49t-57 140q0 11 1 23.5t3 25.5l65 412q5 26 30 26h100q30 0 25 -30l-64 -405q-3 -18 -3 -33q0 -72 70 -72q42 0 66.5 25.5t32.5 79.5l65 409q5 26 30 26h96q30 0 25 -30zM526 879q25 0 20 -24q-13 -66 -55.5 -97.5
t-107.5 -31.5q-71 0 -109.5 35t-38.5 95q0 23 23 23h56q11 0 16 -2.5t7 -13.5q2 -13 14 -21t35 -8q19 0 34 7t23 21q5 8 10.5 12.5t15.5 4.5h57z" />
    <glyph glyph-name="ubreve" unicode="&#x16d;" horiz-adv-x="486" 
d="M424 169q-29 -181 -211 -181q-87 0 -134 40t-47 113q0 18 3 38l47 295q5 26 30 26h86q30 0 25 -30l-46 -292q-1 -6 -1.5 -11.5t-0.5 -10.5q0 -46 46 -46q56 0 66 68l47 296q5 26 30 26h82q30 0 25 -30zM450 721q25 0 20 -24q-13 -66 -55.5 -97.5t-107.5 -31.5
q-71 0 -109.5 35t-38.5 95q0 23 23 23h56q11 0 16 -2.5t7 -13.5q2 -13 14 -21t35 -8q19 0 34 7t23 21q5 8 10.5 12.5t15.5 4.5h57z" />
    <glyph glyph-name="Uring" unicode="&#x16e;" horiz-adv-x="588" 
d="M524 216q-18 -113 -82 -170.5t-176 -57.5q-104 0 -161 49t-57 140q0 11 1 23.5t3 25.5l65 412q5 26 30 26h100q30 0 25 -30l-64 -405q-3 -18 -3 -33q0 -72 70 -72q42 0 66.5 25.5t32.5 79.5l65 409q5 26 30 26h96q30 0 25 -30zM374 711q-38 0 -62 24t-24 61q0 21 8 38.5
t21.5 30.5t31.5 20.5t38 7.5q38 0 62 -24t24 -61q0 -21 -8 -38.5t-21.5 -30.5t-31.5 -20.5t-38 -7.5zM377 770q14 0 24.5 10t10.5 24q0 13 -8 21.5t-21 8.5q-14 0 -24.5 -10t-10.5 -24q0 -13 8 -21.5t21 -8.5z" />
    <glyph glyph-name="uring" unicode="&#x16f;" horiz-adv-x="486" 
d="M424 169q-29 -181 -211 -181q-87 0 -134 40t-47 113q0 18 3 38l47 295q5 26 30 26h86q30 0 25 -30l-46 -292q-1 -6 -1.5 -11.5t-0.5 -10.5q0 -46 46 -46q56 0 66 68l47 296q5 26 30 26h82q30 0 25 -30zM298 553q-38 0 -62 24t-24 61q0 21 8 38.5t21.5 30.5t31.5 20.5
t38 7.5q38 0 62 -24t24 -61q0 -21 -8 -38.5t-21.5 -30.5t-31.5 -20.5t-38 -7.5zM301 612q14 0 24.5 10t10.5 24q0 13 -8 21.5t-21 8.5q-14 0 -24.5 -10t-10.5 -24q0 -13 8 -21.5t21 -8.5z" />
    <glyph glyph-name="Uhungarumlaut" unicode="&#x170;" horiz-adv-x="588" 
d="M524 216q-18 -113 -82 -170.5t-176 -57.5q-104 0 -161 49t-57 140q0 11 1 23.5t3 25.5l65 412q5 26 30 26h100q30 0 25 -30l-64 -405q-3 -18 -3 -33q0 -72 70 -72q42 0 66.5 25.5t32.5 79.5l65 409q5 26 30 26h96q30 0 25 -30zM336 736q-10 -13 -26 -13h-70q-14 0 -18 8
t4 19l83 120q10 15 29 15h83q15 0 19.5 -9t-5.5 -20zM509 736q-10 -13 -26 -13h-70q-14 0 -18 8t4 19l83 120q10 15 29 15h83q15 0 19.5 -9t-5.5 -20z" />
    <glyph glyph-name="uhungarumlaut" unicode="&#x171;" horiz-adv-x="486" 
d="M424 169q-29 -181 -211 -181q-87 0 -134 40t-47 113q0 18 3 38l47 295q5 26 30 26h86q30 0 25 -30l-46 -292q-1 -6 -1.5 -11.5t-0.5 -10.5q0 -46 46 -46q56 0 66 68l47 296q5 26 30 26h82q30 0 25 -30zM260 578q-10 -13 -26 -13h-70q-14 0 -18 8t4 19l83 120q10 15 29 15
h83q15 0 19.5 -9t-5.5 -20zM433 578q-10 -13 -26 -13h-70q-14 0 -18 8t4 19l83 120q10 15 29 15h83q15 0 19.5 -9t-5.5 -20z" />
    <glyph glyph-name="Uogonek" unicode="&#x172;" horiz-adv-x="588" 
d="M565 664q30 0 25 -30l-66 -418q-14 -84 -51.5 -135.5t-101.5 -77.5q-24 -10 -38 -28t-14 -35q0 -9 5 -14.5t13 -5.5t18 6q19 13 31 -8l19 -32q12 -20 -5 -33q-17 -14 -38 -19.5t-45 -5.5q-42 0 -69 21t-27 59q0 20 9 40.5t28 37.5v2q-100 2 -155 51.5t-55 137.5
q0 11 1 23.5t3 25.5l65 412q5 26 30 26h100q30 0 25 -30l-64 -405q-3 -18 -3 -33q0 -72 70 -72q42 0 66.5 25.5t32.5 79.5l65 409q5 26 30 26h96z" />
    <glyph glyph-name="uogonek" unicode="&#x173;" horiz-adv-x="486" 
d="M446 500q30 0 25 -30l-47 -301q-11 -66 -40.5 -106.5t-79.5 -61.5q-23 -10 -36 -27t-13 -34q0 -9 5 -14.5t13 -5.5t18 6q19 13 31 -8l19 -32q12 -20 -5 -33q-17 -14 -38 -19.5t-45 -5.5q-42 0 -69 21t-27 59q0 20 9 40.5t28 37.5v2q-78 5 -120 44.5t-42 108.5q0 18 3 38
l47 295q5 26 30 26h86q30 0 25 -30l-46 -292q-1 -6 -1.5 -11.5t-0.5 -10.5q0 -46 46 -46q56 0 66 68l47 296q5 26 30 26h82z" />
    <glyph glyph-name="Wcircumflex" unicode="&#x174;" horiz-adv-x="860" 
d="M876 664q16 0 22 -9t0 -23l-248 -610q-9 -22 -33 -22h-107q-26 0 -29 27l-30 358h-2l-143 -363q-9 -22 -33 -22h-107q-26 0 -29 27l-55 608q-3 29 26 29h106q26 0 28 -27l18 -395h2l156 400q9 22 33 22h79q27 0 29 -27l30 -394h2l148 399q9 22 32 22h105zM475 735
q-9 -12 -27 -12h-83q-14 0 -18 8t6 19l102 121q11 14 29 14h87q19 0 28 -17l61 -119q6 -11 2 -18.5t-17 -7.5h-73q-19 0 -26 16l-26 49z" />
    <glyph glyph-name="wcircumflex" unicode="&#x175;" horiz-adv-x="713" 
d="M709 500q16 0 22 -9t-1 -24l-186 -445q-9 -22 -32 -22h-97q-27 0 -30 26l-24 256h-2l-105 -260q-9 -22 -32 -22h-97q-27 0 -30 26l-45 445q-3 29 27 29h85q27 0 29 -27l18 -294h2l122 299q9 22 32 22h55q27 0 30 -26l29 -290h2l109 294q9 22 33 22h86zM377 577
q-9 -12 -27 -12h-83q-14 0 -18 8t6 19l102 121q11 14 29 14h87q19 0 28 -17l61 -119q6 -11 2 -18.5t-17 -7.5h-73q-19 0 -26 16l-26 49z" />
    <glyph glyph-name="Ycircumflex" unicode="&#x176;" horiz-adv-x="558" 
d="M593 664q17 0 22 -10t-5 -24l-251 -361l-39 -243q-5 -26 -30 -26h-100q-30 0 -25 30l39 250l-136 352q-5 14 1 23t22 9h114q25 0 32 -23l66 -203h2l134 208q12 18 34 18h120zM324 735q-9 -12 -27 -12h-83q-14 0 -18 8t6 19l102 121q11 14 29 14h87q19 0 28 -17l61 -119
q6 -11 2 -18.5t-17 -7.5h-73q-19 0 -26 16l-26 49z" />
    <glyph glyph-name="ycircumflex" unicode="&#x177;" horiz-adv-x="496" 
d="M452 500q30 0 25 -30l-72 -459q-14 -89 -70.5 -136t-150.5 -47q-51 0 -94 13.5t-73 36.5q-20 17 -3 39l40 55q15 21 39 5q21 -15 43 -21.5t45 -6.5q72 0 83 69l2 14h-2q-33 -24 -83 -24q-72 0 -109 38.5t-37 108.5q0 11 1 22.5t3 24.5l43 272q5 26 30 26h86q30 0 25 -30
l-42 -266q-1 -7 -1.5 -13t-0.5 -11q0 -50 47 -50q55 0 67 74l43 270q5 26 30 26h86zM266 577q-9 -12 -27 -12h-83q-14 0 -18 8t6 19l102 121q11 14 29 14h87q19 0 28 -17l61 -119q6 -11 2 -18.5t-17 -7.5h-73q-19 0 -26 16l-26 49z" />
    <glyph glyph-name="Ydieresis" unicode="&#x178;" horiz-adv-x="558" 
d="M593 664q17 0 22 -10t-5 -24l-251 -361l-39 -243q-5 -26 -30 -26h-100q-30 0 -25 30l39 250l-136 352q-5 14 1 23t22 9h114q25 0 32 -23l66 -203h2l134 208q12 18 34 18h120zM269 731q-32 0 -50.5 19t-18.5 49q0 35 21.5 57.5t55.5 22.5q32 0 51 -19.5t19 -50.5
q0 -35 -22.5 -56.5t-55.5 -21.5zM453 731q-32 0 -50.5 19t-18.5 49q0 35 22 57.5t55 22.5q32 0 51 -19.5t19 -50.5q0 -34 -22 -56t-56 -22z" />
    <glyph glyph-name="Zacute" unicode="&#x179;" horiz-adv-x="535" 
d="M448 136q30 0 25 -30l-12 -80q-5 -26 -30 -26h-405q-30 0 -25 30l14 92q3 19 15 33l315 373h-220q-30 0 -25 30l12 80q5 26 30 26h385q30 0 25 -30l-14 -92q-3 -19 -15 -33l-315 -373h240zM413 735q-9 -12 -27 -12h-90q-14 0 -18 8t4 19l88 120q11 15 29 15h102
q16 0 20 -9t-6 -20z" />
    <glyph glyph-name="zacute" unicode="&#x17a;" horiz-adv-x="440" 
d="M355 122q30 0 25 -30l-10 -66q-5 -26 -30 -26h-318q-30 0 -25 30l12 79q2 11 5.5 18t10.5 15l224 236h-152q-30 0 -25 30l10 66q5 26 30 26h298q30 0 25 -30l-12 -79q-2 -11 -5.5 -18t-10.5 -15l-224 -236h172zM341 577q-9 -12 -27 -12h-90q-14 0 -18 8t4 19l88 120
q11 15 29 15h102q16 0 20 -9t-6 -20z" />
    <glyph glyph-name="Zdotaccent" unicode="&#x17b;" horiz-adv-x="535" 
d="M448 136q30 0 25 -30l-12 -80q-5 -26 -30 -26h-405q-30 0 -25 30l14 92q3 19 15 33l315 373h-220q-30 0 -25 30l12 80q5 26 30 26h385q30 0 25 -30l-14 -92q-3 -19 -15 -33l-315 -373h240zM351 724q-34 0 -54.5 20.5t-20.5 52.5q0 38 24 62.5t61 24.5q35 0 55 -20.5
t20 -53.5q0 -38 -24.5 -62t-60.5 -24z" />
    <glyph glyph-name="zdotaccent" unicode="&#x17c;" horiz-adv-x="440" 
d="M355 122q30 0 25 -30l-10 -66q-5 -26 -30 -26h-318q-30 0 -25 30l12 79q2 11 5.5 18t10.5 15l224 236h-152q-30 0 -25 30l10 66q5 26 30 26h298q30 0 25 -30l-12 -79q-2 -11 -5.5 -18t-10.5 -15l-224 -236h172zM279 566q-34 0 -54.5 20.5t-20.5 52.5q0 38 24 62.5
t61 24.5q35 0 55 -20.5t20 -53.5q0 -38 -24.5 -62t-60.5 -24z" />
    <glyph glyph-name="Zcaron" unicode="&#x17d;" horiz-adv-x="535" 
d="M448 136q30 0 25 -30l-12 -80q-5 -26 -30 -26h-405q-30 0 -25 30l14 92q3 19 15 33l315 373h-220q-30 0 -25 30l12 80q5 26 30 26h385q30 0 25 -30l-14 -92q-3 -19 -15 -33l-315 -373h240zM419 737q-11 -14 -29 -14h-87q-20 0 -28 17l-61 119q-6 11 -2 18.5t17 7.5h73
q19 0 26 -16l26 -49l45 53q9 12 27 12h83q14 0 17.5 -8t-5.5 -19z" />
    <glyph glyph-name="zcaron" unicode="&#x17e;" horiz-adv-x="440" 
d="M355 122q30 0 25 -30l-10 -66q-5 -26 -30 -26h-318q-30 0 -25 30l12 79q2 11 5.5 18t10.5 15l224 236h-152q-30 0 -25 30l10 66q5 26 30 26h298q30 0 25 -30l-12 -79q-2 -11 -5.5 -18t-10.5 -15l-224 -236h172zM347 579q-11 -14 -29 -14h-87q-20 0 -28 17l-61 119
q-6 11 -2 18.5t17 7.5h73q19 0 26 -16l26 -49l45 53q9 12 27 12h83q14 0 17.5 -8t-5.5 -19z" />
    <glyph glyph-name="florin" unicode="&#x192;" horiz-adv-x="530" 
d="M436 514q-29 0 -50 -17t-31 -48l-10 -35h106q31 0 26 -30l-11 -66q-5 -26 -30 -26h-127l-100 -339q-8 -23 -31 -23h-87q-15 0 -22 8.5t-2 23.5l98 330h-60q-31 0 -26 30l11 66q5 26 30 26h82l10 35q29 96 82.5 141.5t135.5 45.5q61 0 106 -17q26 -11 13 -37l-29 -60
q-6 -13 -14 -15.5t-19 0.5q-12 4 -25 5.5t-26 1.5z" />
    <glyph glyph-name="AEacute" unicode="&#x1fc;" horiz-adv-x="861" 
d="M857 664q30 0 25 -30l-12 -80q-5 -26 -30 -26h-255l-19 -125h206q30 0 25 -30l-12 -78q-5 -26 -30 -26h-210l-21 -133h249q31 0 26 -30l-13 -80q-5 -26 -30 -26h-379q-31 0 -26 30l12 75h-168l-53 -86q-12 -19 -33 -19h-119q-17 0 -22.5 10t4.5 24l396 612q12 18 34 18
h455zM421 484l-146 -249h108l40 249h-2zM576 735q-9 -12 -27 -12h-90q-14 0 -18 8t4 19l88 120q11 15 29 15h102q16 0 20 -9t-6 -20z" />
    <glyph glyph-name="aeacute" unicode="&#x1fd;" horiz-adv-x="709" 
d="M530 512q76 0 119 -42.5t43 -114.5q0 -19 -3 -40l-13 -80q-5 -26 -30 -26h-229q-3 -20 -3 -37q0 -35 16.5 -48.5t52.5 -13.5q21 0 40 7t39 21q25 18 38 -7l30 -57q13 -24 -8 -39q-34 -24 -70.5 -35.5t-73.5 -11.5q-108 0 -148 67h-2q-49 -67 -159 -67q-72 0 -114.5 40.5
t-42.5 110.5q0 165 203 165h76q2 7 2 13.5v12.5q0 32 -17 46t-51 14q-20 0 -41 -7.5t-40 -19.5q-25 -17 -37 10l-26 60q-11 24 12 38q70 41 142 41q104 0 142 -66h2q49 66 151 66zM553 304q2 11 2.5 19.5t0.5 14.5q0 52 -49 52q-30 0 -49 -19t-24 -58l-1 -9h120zM224 209
q-33 0 -51 -15.5t-18 -41.5q0 -42 45 -42q61 0 73 78l3 21h-52zM474 577q-9 -12 -27 -12h-90q-14 0 -18 8t4 19l88 120q11 15 29 15h102q16 0 20 -9t-6 -20z" />
    <glyph glyph-name="Oslashacute" unicode="&#x1fe;" horiz-adv-x="596" 
d="M599 627q18 -15 3 -33l-34 -40q12 -33 12 -73q0 -12 -1 -24.5t-3 -25.5l-33 -208q-18 -116 -86.5 -175.5t-186.5 -59.5q-91 0 -147 35l-21 -25q-15 -17 -33 -2l-49 41q-18 15 -3 33l34 40q-12 33 -12 74q0 26 4 49l33 208q18 116 86.5 175.5t186.5 59.5q89 0 147 -35
l21 25q15 18 33 2zM343 540q-96 0 -114 -116l-19 -122h2l186 222q-19 16 -55 16zM221 140q19 -16 56 -16q95 0 113 116l19 122h-2zM441 735q-9 -12 -27 -12h-90q-14 0 -18 8t4 19l88 120q11 15 29 15h102q16 0 20 -9t-6 -20z" />
    <glyph glyph-name="oslashacute" unicode="&#x1ff;" horiz-adv-x="480" 
d="M467 468q17 -15 2 -32l-23 -26q8 -27 8 -56q0 -20 -3 -39l-22 -140q-30 -187 -219 -187q-69 0 -114 25l-15 -16q-15 -16 -32 -1l-39 36q-17 15 -2 32l23 26q-8 27 -8 56q0 19 3 39l22 140q30 187 219 187q69 0 114 -25l15 16q15 16 32 1zM261 390q-60 0 -73 -78l-8 -52h2
l107 122v2q-11 6 -28 6zM188 118v-2q10 -6 28 -6q61 0 73 78l8 52h-2zM358 577q-9 -12 -27 -12h-90q-14 0 -18 8t4 19l88 120q11 15 29 15h102q16 0 20 -9t-6 -20z" />
    <glyph glyph-name="Scommaaccent" unicode="&#x218;" horiz-adv-x="524" 
d="M321 676q135 0 201 -72q18 -20 -4 -39l-69 -60q-19 -16 -40 3q-37 32 -96 32q-42 0 -66 -21t-24 -57q0 -23 20 -36.5t75 -22.5q96 -16 137 -58t41 -118q0 -56 -17.5 -100t-50.5 -75t-80.5 -47.5t-106.5 -16.5q-153 0 -229 88q-17 20 4 39l70 60q11 9 20 8t20 -11
q48 -48 124 -48q89 0 89 79q0 23 -20 36t-75 23q-97 17 -137.5 59t-40.5 117q0 55 18 99t51 75t80 47.5t106 16.5zM211 -40q31 0 50 -19.5t19 -52.5q0 -48 -29.5 -89.5t-75.5 -59.5q-16 -6 -24 9l-15 28q-9 15 8 24t30 27q-40 16 -40 61q0 34 22.5 53t54.5 19z" />
    <glyph glyph-name="scommaaccent" unicode="&#x219;" horiz-adv-x="417" 
d="M180 -12q-59 0 -101 11.5t-75 37.5q-21 17 -4 39l43 57q15 21 39 5q22 -15 47 -22.5t49 -7.5q67 0 67 42q0 16 -15 25t-54 16q-74 13 -105.5 46t-31.5 91q0 85 57 134.5t155 49.5q89 0 145 -36q22 -13 6 -38l-39 -56q-8 -11 -17.5 -12.5t-21.5 4.5q-32 18 -72 18
q-72 0 -72 -41q0 -15 14 -24.5t53 -15.5q76 -11 108 -45t32 -94q0 -86 -55 -135t-152 -49zM152 -40q31 0 50 -19.5t19 -52.5q0 -48 -29.5 -89.5t-75.5 -59.5q-16 -6 -24 9l-15 28q-9 15 8 24t30 27q-40 16 -40 61q0 34 22.5 53t54.5 19z" />
    <glyph glyph-name="uni021A" unicode="&#x21a;" horiz-adv-x="516" 
d="M299 26q-5 -26 -30 -26h-100q-30 0 -25 30l78 498h-131q-30 0 -25 30l12 80q5 26 30 26h424q30 0 25 -30l-12 -80q-5 -26 -30 -26h-137zM203 -40q31 0 50 -19.5t19 -52.5q0 -48 -29.5 -89.5t-75.5 -59.5q-16 -6 -24 9l-15 28q-9 15 8 24t30 27q-40 16 -40 61
q0 34 22.5 53t54.5 19z" />
    <glyph glyph-name="uni021B" unicode="&#x21b;" horiz-adv-x="363" 
d="M202 168q-1 -5 -1 -14q0 -44 50 -44q16 0 28 4q14 5 22.5 1t10.5 -19l9 -64q3 -27 -20 -34q-17 -5 -36 -7.5t-38 -2.5q-84 0 -127 36t-43 108q0 11 1 21.5t3 22.5l32 202h-28q-30 0 -25 30l10 66q5 26 30 26h32l16 101q5 26 30 26h86q30 0 25 -30l-15 -97h98q30 0 25 -30
l-10 -66q-5 -26 -30 -26h-102zM149 -40q31 0 50 -19.5t19 -52.5q0 -48 -29.5 -89.5t-75.5 -59.5q-16 -6 -24 9l-15 28q-9 15 8 24t30 27q-40 16 -40 61q0 34 22.5 53t54.5 19z" />
    <glyph glyph-name="uni0237" unicode="&#x237;" horiz-adv-x="246" 
d="M-41 -38q26 0 37.5 10.5t16.5 37.5l73 464q5 26 30 26h86q30 0 25 -30l-73 -465q-14 -85 -58.5 -125t-124.5 -40h-27q-30 0 -25 30l10 66q5 26 30 26z" />
    <glyph glyph-name="circumflex" unicode="&#x2c6;" horiz-adv-x="500" 
d="M270 577q-9 -12 -27 -12h-83q-14 0 -18 8t6 19l102 121q11 14 29 14h87q19 0 28 -17l61 -119q6 -11 2 -18.5t-17 -7.5h-73q-19 0 -26 16l-26 49z" />
    <glyph glyph-name="caron" unicode="&#x2c7;" horiz-adv-x="500" 
d="M374 579q-11 -14 -29 -14h-87q-20 0 -28 17l-61 119q-6 11 -2 18.5t17 7.5h73q19 0 26 -16l26 -49l45 53q9 12 27 12h83q14 0 17.5 -8t-5.5 -19z" />
    <glyph glyph-name="breve" unicode="&#x2d8;" horiz-adv-x="500" 
d="M457 721q25 0 20 -24q-13 -66 -55.5 -97.5t-107.5 -31.5q-71 0 -109.5 35t-38.5 95q0 23 23 23h56q11 0 16 -2.5t7 -13.5q2 -13 14 -21t35 -8q19 0 34 7t23 21q5 8 10.5 12.5t15.5 4.5h57z" />
    <glyph glyph-name="dotaccent" unicode="&#x2d9;" horiz-adv-x="500" 
d="M306 566q-34 0 -54.5 20.5t-20.5 52.5q0 38 24 62.5t61 24.5q35 0 55 -20.5t20 -53.5q0 -38 -24.5 -62t-60.5 -24z" />
    <glyph glyph-name="ring" unicode="&#x2da;" horiz-adv-x="500" 
d="M305 553q-38 0 -62 24t-24 61q0 21 8 38.5t21.5 30.5t31.5 20.5t38 7.5q38 0 62 -24t24 -61q0 -21 -8 -38.5t-21.5 -30.5t-31.5 -20.5t-38 -7.5zM308 612q14 0 24.5 10t10.5 24q0 13 -8 21.5t-21 8.5q-14 0 -24.5 -10t-10.5 -24q0 -13 8 -21.5t21 -8.5z" />
    <glyph glyph-name="ogonek" unicode="&#x2db;" horiz-adv-x="500" 
d="M297 -114q12 -20 -5 -33q-17 -14 -38 -19.5t-45 -5.5q-42 0 -69 21t-27 59q0 39 33.5 75t101.5 56l26 -29q-29 -13 -46 -31.5t-17 -38.5q0 -9 5 -14.5t13 -5.5t18 6q19 13 31 -8z" />
    <glyph glyph-name="tilde" unicode="&#x2dc;" horiz-adv-x="500" 
d="M160 568q-25 0 -19 25q15 68 45.5 97t75.5 29q20 0 36.5 -7t33.5 -24q11 -11 17 -14.5t15 -3.5q17 0 29 29q8 17 25 17h45q26 0 20 -25q-16 -68 -46 -97t-75 -29q-39 0 -70 31q-11 11 -17 14.5t-15 3.5q-8 0 -16 -7t-13 -21q-7 -18 -26 -18h-45z" />
    <glyph glyph-name="hungarumlaut" unicode="&#x2dd;" horiz-adv-x="500" 
d="M268 578q-10 -13 -26 -13h-70q-14 0 -18 8t4 19l83 120q10 15 29 15h83q15 0 19.5 -9t-5.5 -20zM441 578q-10 -13 -26 -13h-70q-14 0 -18 8t4 19l83 120q10 15 29 15h83q15 0 19.5 -9t-5.5 -20z" />
    <glyph glyph-name="Delta" unicode="&#x394;" horiz-adv-x="602" 
d="M544 30q5 -30 -26 -30h-510q-16 0 -22 9t1 24l281 610q10 21 33 21h125q27 0 30 -26zM338 471l-142 -335h179l-35 335h-2z" />
    <glyph glyph-name="Omega" unicode="&#x3a9;" horiz-adv-x="596" 
d="M350 676q110 0 170 -50.5t60 -144.5q0 -12 -1 -24t-3 -26l-22 -138q-18 -109 -94 -155v-2h39q30 0 25 -30l-12 -80q-5 -26 -30 -26h-160q-30 0 -25 30l14 90q2 11 7 18t14 14q50 36 63 118l24 154q3 19 3 36q0 80 -79 80q-95 0 -114 -116l-24 -154q-2 -11 -3 -21t-1 -19
q0 -49 26 -75q8 -8 12 -16.5t2 -19.5l-15 -93q-5 -26 -30 -26h-160q-30 0 -25 30l12 80q5 26 30 26h55v2q-57 40 -57 124q0 20 3 41l22 138q18 116 87 175.5t187 59.5z" />
    <glyph glyph-name="mu" unicode="&#x3bc;" horiz-adv-x="496" 
d="M456 500q30 0 25 -30l-47 -298q-14 -92 -61.5 -138t-124.5 -46q-59 0 -89 33h-2l-25 -155q-5 -26 -30 -26h-86q-30 0 -25 30l95 604q5 26 30 26h86q30 0 25 -30l-45 -286q-2 -8 -2 -13v-10q0 -51 46 -51q56 0 68 74l46 290q5 26 30 26h86z" />
    <glyph glyph-name="pi" unicode="&#x3c0;" horiz-adv-x="540" 
d="M236 381l-57 -355q-5 -26 -30 -26h-86q-30 0 -25 30l56 351h-29q-30 0 -25 30l10 63q5 26 30 26h452q30 0 25 -30l-10 -63q-5 -26 -30 -26h-33l-57 -355q-5 -26 -30 -26h-86q-30 0 -25 30l56 351h-106z" />
    <glyph glyph-name="uni1E02" unicode="&#x1e02;" horiz-adv-x="569" 
d="M451 333q75 -35 75 -132q0 -54 -14.5 -92t-46.5 -62t-82 -35.5t-120 -11.5h-208q-30 0 -25 30l96 608q5 26 30 26h186q109 0 161.5 -38t52.5 -119q0 -131 -105 -172v-2zM306 403q48 0 69.5 18t21.5 56q0 51 -71 51h-62l-19 -125h61zM280 136q48 0 69 19t21 60
q0 54 -69 54h-77l-21 -133h77zM356 724q-34 0 -54.5 20.5t-20.5 52.5q0 38 24 62.5t61 24.5q35 0 55 -20.5t20 -53.5q0 -38 -24.5 -62t-60.5 -24z" />
    <glyph glyph-name="uni1E03" unicode="&#x1e03;" horiz-adv-x="490" 
d="M309 512q77 0 116.5 -39.5t39.5 -111.5q0 -23 -4 -46l-22 -140q-30 -187 -219 -187q-90 0 -138.5 41.5t-48.5 116.5q0 19 3 39l78 489q5 26 30 26h86q30 0 25 -30l-28 -181h2q32 23 80 23zM318 312q2 7 2 13.5v12.5q0 52 -49 52q-61 0 -73 -78l-19 -124q-1 -7 -1.5 -13
t-0.5 -12q0 -53 49 -53q61 0 73 78zM205 755q-34 0 -54.5 20.5t-20.5 52.5q0 38 24 62.5t61 24.5q35 0 55 -20.5t20 -53.5q0 -38 -24.5 -62t-60.5 -24z" />
    <glyph glyph-name="uni1E0A" unicode="&#x1e0a;" horiz-adv-x="593" 
d="M351 664q226 0 226 -184q0 -13 -1 -26t-3 -27l-32 -199q-19 -117 -85.5 -172.5t-193.5 -55.5h-207q-30 0 -25 30l96 608q5 26 30 26h195zM416 421q2 8 2 15v14q0 78 -89 78h-65l-61 -392h64q54 0 83 26t38 82zM362 724q-34 0 -54.5 20.5t-20.5 52.5q0 38 24 62.5t61 24.5
q35 0 55 -20.5t20 -53.5q0 -38 -24.5 -62t-60.5 -24z" />
    <glyph glyph-name="uni1E0B" unicode="&#x1e0b;" horiz-adv-x="490" 
d="M482 700q30 0 25 -30l-78 -495q-30 -187 -219 -187q-90 0 -138.5 41.5t-48.5 116.5q0 19 3 39l22 140q15 93 65 140t132 47q58 0 88 -33h2l31 195q5 26 30 26h86zM308 312q2 8 2 13v11q0 54 -49 54q-61 0 -73 -78l-19 -124q-2 -8 -2 -13.5v-11.5q0 -53 49 -53q61 0 73 78
zM457 755q-34 0 -54.5 20.5t-20.5 52.5q0 38 24 62.5t61 24.5q35 0 55 -20.5t20 -53.5q0 -38 -24.5 -62t-60.5 -24z" />
    <glyph glyph-name="uni1E1E" unicode="&#x1e1e;" horiz-adv-x="512" 
d="M439 394q30 0 25 -30l-12 -80q-5 -26 -30 -26h-200l-37 -232q-5 -26 -30 -26h-100q-30 0 -25 30l96 608q5 26 30 26h370q30 0 25 -30l-12 -80q-5 -26 -30 -26h-245l-21 -134h196zM353 724q-34 0 -54.5 20.5t-20.5 52.5q0 38 24 62.5t61 24.5q35 0 55 -20.5t20 -53.5
q0 -38 -24.5 -62t-60.5 -24z" />
    <glyph glyph-name="uni1E1F" unicode="&#x1e1f;" horiz-adv-x="349" 
d="M325 590q-26 0 -44 -17.5t-23 -47.5l-4 -25h98q30 0 25 -30l-10 -66q-5 -26 -30 -26h-102l-56 -352q-5 -26 -30 -26h-86q-30 0 -25 30l55 348h-28q-30 0 -25 30l10 66q5 26 30 26h32l4 25q30 187 203 187q61 0 106 -17q26 -11 13 -37l-29 -60q-6 -13 -14 -15.5t-19 0.5
q-12 4 -25 5.5t-26 1.5zM300 755q-34 0 -54.5 20.5t-20.5 52.5q0 38 24 62.5t61 24.5q35 0 55 -20.5t20 -53.5q0 -38 -24.5 -62t-60.5 -24z" />
    <glyph glyph-name="uni1E40" unicode="&#x1e40;" horiz-adv-x="837" 
d="M805 664q30 0 25 -30l-96 -608q-5 -26 -30 -26h-99q-31 0 -26 30l68 428h-2l-199 -437q-11 -21 -33 -21h-69q-25 0 -30 26l-64 422h-2l-67 -422q-5 -26 -30 -26h-96q-30 0 -25 30l96 608q5 26 30 26h165q27 0 30 -26l59 -404h2l184 409q9 21 33 21h176zM497 724
q-34 0 -54.5 20.5t-20.5 52.5q0 38 24 62.5t61 24.5q35 0 55 -20.5t20 -53.5q0 -38 -24.5 -62t-60.5 -24z" />
    <glyph glyph-name="uni1E41" unicode="&#x1e41;" horiz-adv-x="742" 
d="M533 512q83 0 128.5 -40.5t45.5 -112.5q0 -10 -1 -20t-3 -22l-46 -291q-5 -26 -30 -26h-86q-30 0 -25 30l45 287q1 7 1.5 13t0.5 11q0 49 -45 49q-55 0 -67 -73l-46 -291q-5 -26 -30 -26h-86q-30 0 -25 30l45 287q1 7 1.5 13t0.5 11q0 49 -46 49q-54 0 -66 -73l-46 -291
q-5 -26 -30 -26h-86q-30 0 -25 30l47 297q29 185 203 185q89 0 132 -51h2q49 51 137 51zM427 566q-34 0 -54.5 20.5t-20.5 52.5q0 38 24 62.5t61 24.5q35 0 55 -20.5t20 -53.5q0 -38 -24.5 -62t-60.5 -24z" />
    <glyph glyph-name="uni1E56" unicode="&#x1e56;" horiz-adv-x="558" 
d="M343 664q221 0 221 -190q0 -130 -68 -190t-215 -60h-65l-31 -198q-5 -26 -30 -26h-100q-30 0 -25 30l96 608q5 26 30 26h187zM406 461q0 67 -81 67h-60l-27 -168h60q56 0 82 24t26 77zM360 724q-34 0 -54.5 20.5t-20.5 52.5q0 38 24 62.5t61 24.5q35 0 55 -20.5t20 -53.5
q0 -38 -24.5 -62t-60.5 -24z" />
    <glyph glyph-name="uni1E57" unicode="&#x1e57;" horiz-adv-x="490" 
d="M277 512q90 0 138.5 -41t48.5 -116q0 -19 -3 -40l-22 -140q-15 -93 -65 -140t-132 -47q-57 0 -87 33h-2l-25 -155q-5 -26 -30 -26h-86q-30 0 -25 30l72 455q29 187 218 187zM319 312q1 7 1.5 13t0.5 11q0 54 -50 54q-60 0 -72 -78l-20 -124q-1 -6 -1.5 -12t-0.5 -11
q0 -55 50 -55q60 0 72 78zM306 566q-34 0 -54.5 20.5t-20.5 52.5q0 38 24 62.5t61 24.5q35 0 55 -20.5t20 -53.5q0 -38 -24.5 -62t-60.5 -24z" />
    <glyph glyph-name="uni1E60" unicode="&#x1e60;" horiz-adv-x="524" 
d="M321 676q135 0 201 -72q18 -20 -4 -39l-69 -60q-19 -16 -40 3q-37 32 -96 32q-42 0 -66 -21t-24 -57q0 -23 20 -36.5t75 -22.5q96 -16 137 -58t41 -118q0 -56 -17.5 -100t-50.5 -75t-80.5 -47.5t-106.5 -16.5q-153 0 -229 88q-17 20 4 39l70 60q11 9 20 8t20 -11
q48 -48 124 -48q89 0 89 79q0 23 -20 36t-75 23q-97 17 -137.5 59t-40.5 117q0 55 18 99t51 75t80 47.5t106 16.5zM341 724q-34 0 -54.5 20.5t-20.5 52.5q0 38 24 62.5t61 24.5q35 0 55 -20.5t20 -53.5q0 -38 -24.5 -62t-60.5 -24z" />
    <glyph glyph-name="uni1E61" unicode="&#x1e61;" horiz-adv-x="417" 
d="M180 -12q-59 0 -101 11.5t-75 37.5q-21 17 -4 39l43 57q15 21 39 5q22 -15 47 -22.5t49 -7.5q67 0 67 42q0 16 -15 25t-54 16q-74 13 -105.5 46t-31.5 91q0 85 57 134.5t155 49.5q89 0 145 -36q22 -13 6 -38l-39 -56q-8 -11 -17.5 -12.5t-21.5 4.5q-32 18 -72 18
q-72 0 -72 -41q0 -15 14 -24.5t53 -15.5q76 -11 108 -45t32 -94q0 -86 -55 -135t-152 -49zM265 566q-34 0 -54.5 20.5t-20.5 52.5q0 38 24 62.5t61 24.5q35 0 55 -20.5t20 -53.5q0 -38 -24.5 -62t-60.5 -24z" />
    <glyph glyph-name="uni1E6A" unicode="&#x1e6a;" horiz-adv-x="516" 
d="M299 26q-5 -26 -30 -26h-100q-30 0 -25 30l78 498h-131q-30 0 -25 30l12 80q5 26 30 26h424q30 0 25 -30l-12 -80q-5 -26 -30 -26h-137zM339 724q-34 0 -54.5 20.5t-20.5 52.5q0 38 24 62.5t61 24.5q35 0 55 -20.5t20 -53.5q0 -38 -24.5 -62t-60.5 -24z" />
    <glyph glyph-name="uni1E6B" unicode="&#x1e6b;" horiz-adv-x="363" 
d="M202 168q-1 -5 -1 -14q0 -44 50 -44q16 0 28 4q14 5 22.5 1t10.5 -19l9 -64q3 -27 -20 -34q-17 -5 -36 -7.5t-38 -2.5q-84 0 -127 36t-43 108q0 11 1 21.5t3 22.5l32 202h-28q-30 0 -25 30l10 66q5 26 30 26h32l16 101q5 26 30 26h86q30 0 25 -30l-15 -97h98q30 0 25 -30
l-10 -66q-5 -26 -30 -26h-102zM220 687q-34 0 -54.5 20.5t-20.5 52.5q0 38 24 62.5t61 24.5q35 0 55 -20.5t20 -53.5q0 -38 -24.5 -62t-60.5 -24z" />
    <glyph glyph-name="Wgrave" unicode="&#x1e80;" horiz-adv-x="860" 
d="M876 664q16 0 22 -9t0 -23l-248 -610q-9 -22 -33 -22h-107q-26 0 -29 27l-30 358h-2l-143 -363q-9 -22 -33 -22h-107q-26 0 -29 27l-55 608q-3 29 26 29h106q26 0 28 -27l18 -395h2l156 400q9 22 33 22h79q27 0 29 -27l30 -394h2l148 399q9 22 32 22h105zM470 723
q-17 0 -26 16l-63 117q-7 13 -2 21t19 8h93q19 0 28 -19l48 -117q10 -26 -18 -26h-79z" />
    <glyph glyph-name="wgrave" unicode="&#x1e81;" horiz-adv-x="713" 
d="M709 500q16 0 22 -9t-1 -24l-186 -445q-9 -22 -32 -22h-97q-27 0 -30 26l-24 256h-2l-105 -260q-9 -22 -32 -22h-97q-27 0 -30 26l-45 445q-3 29 27 29h85q27 0 29 -27l18 -294h2l122 299q9 22 32 22h55q27 0 30 -26l29 -290h2l109 294q9 22 33 22h86zM372 565
q-17 0 -26 16l-63 117q-7 13 -2 21t19 8h93q19 0 28 -19l48 -117q10 -26 -18 -26h-79z" />
    <glyph glyph-name="Wacute" unicode="&#x1e82;" horiz-adv-x="860" 
d="M876 664q16 0 22 -9t0 -23l-248 -610q-9 -22 -33 -22h-107q-26 0 -29 27l-30 358h-2l-143 -363q-9 -22 -33 -22h-107q-26 0 -29 27l-55 608q-3 29 26 29h106q26 0 28 -27l18 -395h2l156 400q9 22 33 22h79q27 0 29 -27l30 -394h2l148 399q9 22 32 22h105zM573 735
q-9 -12 -27 -12h-90q-14 0 -18 8t4 19l88 120q11 15 29 15h102q16 0 20 -9t-6 -20z" />
    <glyph glyph-name="wacute" unicode="&#x1e83;" horiz-adv-x="713" 
d="M709 500q16 0 22 -9t-1 -24l-186 -445q-9 -22 -32 -22h-97q-27 0 -30 26l-24 256h-2l-105 -260q-9 -22 -32 -22h-97q-27 0 -30 26l-45 445q-3 29 27 29h85q27 0 29 -27l18 -294h2l122 299q9 22 32 22h55q27 0 30 -26l29 -290h2l109 294q9 22 33 22h86zM475 577
q-9 -12 -27 -12h-90q-14 0 -18 8t4 19l88 120q11 15 29 15h102q16 0 20 -9t-6 -20z" />
    <glyph glyph-name="Wdieresis" unicode="&#x1e84;" horiz-adv-x="860" 
d="M876 664q16 0 22 -9t0 -23l-248 -610q-9 -22 -33 -22h-107q-26 0 -29 27l-30 358h-2l-143 -363q-9 -22 -33 -22h-107q-26 0 -29 27l-55 608q-3 29 26 29h106q26 0 28 -27l18 -395h2l156 400q9 22 33 22h79q27 0 29 -27l30 -394h2l148 399q9 22 32 22h105zM420 731
q-32 0 -50.5 19t-18.5 49q0 35 21.5 57.5t55.5 22.5q32 0 51 -19.5t19 -50.5q0 -35 -22.5 -56.5t-55.5 -21.5zM604 731q-32 0 -50.5 19t-18.5 49q0 35 22 57.5t55 22.5q32 0 51 -19.5t19 -50.5q0 -34 -22 -56t-56 -22z" />
    <glyph glyph-name="wdieresis" unicode="&#x1e85;" horiz-adv-x="713" 
d="M709 500q16 0 22 -9t-1 -24l-186 -445q-9 -22 -32 -22h-97q-27 0 -30 26l-24 256h-2l-105 -260q-9 -22 -32 -22h-97q-27 0 -30 26l-45 445q-3 29 27 29h85q27 0 29 -27l18 -294h2l122 299q9 22 32 22h55q27 0 30 -26l29 -290h2l109 294q9 22 33 22h86zM322 573
q-32 0 -50.5 19t-18.5 49q0 35 21.5 57.5t55.5 22.5q32 0 51 -19.5t19 -50.5q0 -35 -22.5 -56.5t-55.5 -21.5zM506 573q-32 0 -50.5 19t-18.5 49q0 35 22 57.5t55 22.5q32 0 51 -19.5t19 -50.5q0 -34 -22 -56t-56 -22z" />
    <glyph glyph-name="Ygrave" unicode="&#x1ef2;" horiz-adv-x="558" 
d="M593 664q17 0 22 -10t-5 -24l-251 -361l-39 -243q-5 -26 -30 -26h-100q-30 0 -25 30l39 250l-136 352q-5 14 1 23t22 9h114q25 0 32 -23l66 -203h2l134 208q12 18 34 18h120zM319 723q-17 0 -26 16l-63 117q-7 13 -2 21t19 8h93q19 0 28 -19l48 -117q10 -26 -18 -26h-79z
" />
    <glyph glyph-name="ygrave" unicode="&#x1ef3;" horiz-adv-x="496" 
d="M452 500q30 0 25 -30l-72 -459q-14 -89 -70.5 -136t-150.5 -47q-51 0 -94 13.5t-73 36.5q-20 17 -3 39l40 55q15 21 39 5q21 -15 43 -21.5t45 -6.5q72 0 83 69l2 14h-2q-33 -24 -83 -24q-72 0 -109 38.5t-37 108.5q0 11 1 22.5t3 24.5l43 272q5 26 30 26h86q30 0 25 -30
l-42 -266q-1 -7 -1.5 -13t-0.5 -11q0 -50 47 -50q55 0 67 74l43 270q5 26 30 26h86zM261 565q-17 0 -26 16l-63 117q-7 13 -2 21t19 8h93q19 0 28 -19l48 -117q10 -26 -18 -26h-79z" />
    <glyph glyph-name="uni2007" unicode="&#x2007;" horiz-adv-x="530" 
 />
    <glyph glyph-name="figuredash" unicode="&#x2012;" horiz-adv-x="530" 
d="M491 369q12 0 18 -6.5t4 -19.5l-11 -66q-3 -22 -25 -22h-422q-12 0 -18 6.5t-4 19.5l11 66q3 22 25 22h422z" />
    <glyph glyph-name="endash" unicode="&#x2013;" horiz-adv-x="500" 
d="M456 332q12 0 18 -6.5t4 -19.5l-11 -66q-3 -22 -25 -22h-392q-12 0 -18 6.5t-4 19.5l11 66q3 22 25 22h392z" />
    <glyph glyph-name="emdash" unicode="&#x2014;" horiz-adv-x="900" 
d="M856 332q12 0 18 -6.5t4 -19.5l-11 -66q-3 -22 -25 -22h-792q-12 0 -18 6.5t-4 19.5l11 66q3 22 25 22h792z" />
    <glyph glyph-name="quoteleft" unicode="&#x2018;" horiz-adv-x="266" 
d="M158 364q-35 0 -56.5 22.5t-21.5 61.5q0 27 9.5 56.5t26.5 58.5t42 56.5t56 51.5q16 13 29 -2l27 -29q16 -16 -2 -30q-23 -20 -38 -42t-25 -51q20 -8 31.5 -25t11.5 -41q0 -41 -26 -64t-64 -23z" />
    <glyph glyph-name="quoteright" unicode="&#x2019;" horiz-adv-x="266" 
d="M191 676q35 0 56.5 -22.5t21.5 -61.5q0 -27 -9.5 -56.5t-26.5 -58.5t-42 -56.5t-56 -51.5q-16 -13 -29 2l-27 29q-16 16 2 30q23 20 38 42t25 51q-20 8 -31.5 25t-11.5 41q0 41 26 64t64 23z" />
    <glyph glyph-name="quotesinglbase" unicode="&#x201a;" horiz-adv-x="266" 
d="M109 158q35 0 56.5 -22.5t21.5 -61.5q0 -27 -9.5 -56.5t-26.5 -58.5t-42 -56.5t-56 -51.5q-16 -13 -29 2l-27 29q-16 16 2 30q23 20 38 42t25 51q-20 8 -31.5 25t-11.5 41q0 41 26 64t64 23z" />
    <glyph glyph-name="quotedblleft" unicode="&#x201c;" horiz-adv-x="471" 
d="M363 364q-35 0 -56.5 22.5t-21.5 61.5q0 27 9.5 56.5t26.5 58.5t42 56.5t56 51.5q16 13 29 -2l27 -29q16 -16 -2 -30q-23 -20 -38 -42t-25 -51q20 -8 31.5 -25t11.5 -41q0 -41 -26 -64t-64 -23zM158 364q-35 0 -56.5 22.5t-21.5 61.5q0 27 9.5 56.5t26.5 58.5t42 56.5
t56 51.5q16 13 29 -2l27 -29q16 -16 -2 -30q-23 -20 -38 -42t-25 -51q20 -8 31.5 -25t11.5 -41q0 -41 -26 -64t-64 -23z" />
    <glyph glyph-name="quotedblright" unicode="&#x201d;" horiz-adv-x="471" 
d="M191 676q35 0 56.5 -22.5t21.5 -61.5q0 -27 -9.5 -56.5t-26.5 -58.5t-42 -56.5t-56 -51.5q-16 -13 -29 2l-27 29q-16 16 2 30q23 20 38 42t25 51q-20 8 -31.5 25t-11.5 41q0 41 26 64t64 23zM396 676q35 0 56.5 -22.5t21.5 -61.5q0 -27 -9.5 -56.5t-26.5 -58.5t-42 -56.5
t-56 -51.5q-16 -13 -29 2l-27 29q-16 16 2 30q23 20 38 42t25 51q-20 8 -31.5 25t-11.5 41q0 41 26 64t64 23z" />
    <glyph glyph-name="quotedblbase" unicode="&#x201e;" horiz-adv-x="471" 
d="M314 158q35 0 56.5 -22.5t21.5 -61.5q0 -27 -9.5 -56.5t-26.5 -58.5t-42 -56.5t-56 -51.5q-16 -13 -29 2l-27 29q-16 16 2 30q23 20 38 42t25 51q-20 8 -31.5 25t-11.5 41q0 41 26 64t64 23zM109 158q35 0 56.5 -22.5t21.5 -61.5q0 -27 -9.5 -56.5t-26.5 -58.5t-42 -56.5
t-56 -51.5q-16 -13 -29 2l-27 29q-16 16 2 30q23 20 38 42t25 51q-20 8 -31.5 25t-11.5 41q0 41 26 64t64 23z" />
    <glyph glyph-name="dagger" unicode="&#x2020;" horiz-adv-x="446" 
d="M252 96q-3 -21 -24 -21h-64q-26 0 -21 25l56 355h-111q-26 0 -21 25l10 58q3 21 24 21h115l19 120q3 21 24 21h64q26 0 21 -25l-18 -116h111q26 0 21 -25l-10 -58q-3 -21 -24 -21h-115z" />
    <glyph glyph-name="daggerdbl" unicode="&#x2021;" horiz-adv-x="446" 
d="M399 320q26 0 21 -25l-10 -58q-3 -21 -24 -21h-115l-19 -120q-3 -21 -24 -21h-64q-26 0 -21 25l18 116h-111q-26 0 -21 25l10 58q3 21 24 21h115l21 135h-111q-26 0 -21 25l10 58q3 21 24 21h115l19 120q3 21 24 21h64q26 0 21 -25l-18 -116h111q26 0 21 -25l-10 -58
q-3 -21 -24 -21h-115l-21 -135h111z" />
    <glyph glyph-name="bullet" unicode="&#x2022;" horiz-adv-x="500" 
d="M248 143q-31 0 -57.5 11t-45.5 30.5t-30 46t-11 57.5q0 33 13 62t35 50t51 33.5t61 12.5q31 0 57 -11t45 -30t29.5 -45t10.5 -56q0 -33 -12.5 -62.5t-34 -51.5t-50 -34.5t-61.5 -12.5z" />
    <glyph glyph-name="ellipsis" unicode="&#x2026;" horiz-adv-x="900" 
d="M707 -12q-36 0 -57.5 22t-21.5 57q0 39 26 65t64 26q36 0 57.5 -22t21.5 -57q0 -39 -26 -65t-64 -26zM415 -12q-36 0 -57.5 22t-21.5 57q0 39 26 65t64 26q36 0 57.5 -22t21.5 -57q0 -39 -26 -65t-64 -26zM123 -12q-36 0 -57.5 22t-21.5 57q0 39 26 65t64 26
q36 0 57.5 -22t21.5 -57q0 -39 -26 -65t-64 -26z" />
    <glyph glyph-name="perthousand" unicode="&#x2030;" horiz-adv-x="947" 
d="M648 201q9 60 45.5 90.5t96.5 30.5q57 0 88 -28.5t31 -76.5v-12.5t-2 -13.5l-13 -82q-10 -60 -46 -90.5t-95 -30.5q-58 0 -89 28t-31 76v13.5t2 13.5zM728 113q-1 -5 -1 -9q0 -31 32 -31q17 0 28 10.5t14 29.5l13 84q1 5 1 6.5v3.5q0 30 -30 30q-17 0 -29 -10.5
t-15 -29.5zM66 515q18 121 138 121q58 0 90.5 -29t32.5 -78q0 -6 -0.5 -12t-1.5 -12l-13 -82q-20 -121 -137 -121q-59 0 -91.5 28.5t-32.5 77.5q0 6 0.5 12t1.5 13zM146 427q-1 -5 -1 -6.5v-3.5q0 -30 31 -30q17 0 28.5 10.5t14.5 29.5l13 84q1 5 1 9q0 31 -31 31
q-37 0 -43 -40zM357 201q18 121 138 121q58 0 90.5 -28.5t32.5 -77.5q0 -6 -0.5 -12t-1.5 -13l-13 -82q-20 -121 -137 -121q-59 0 -91.5 28.5t-32.5 77.5q0 6 0.5 12t1.5 13zM437 113q-1 -5 -1 -9q0 -31 32 -31q17 0 28 10.5t14 29.5l13 84q1 5 1 6.5v3.5q0 30 -30 30
q-17 0 -29 -10.5t-15 -29.5zM519 611q12 13 28 13h67q14 0 18 -8.5t-5 -19.5l-477 -583q-12 -13 -28 -13h-67q-14 0 -18 8.5t5 19.5z" />
    <glyph glyph-name="guilsinglleft" unicode="&#x2039;" horiz-adv-x="286" 
d="M220 83q6 -13 1 -20.5t-19 -7.5h-75q-21 0 -29 18l-77 159q-8 18 4 33l128 166q11 14 29 14h81q15 0 19.5 -8.5t-4.5 -20.5l-132 -172z" />
    <glyph glyph-name="guilsinglright" unicode="&#x203a;" horiz-adv-x="286" 
d="M130 69q-11 -14 -29 -14h-81q-15 0 -19.5 8.5t4.5 20.5l132 172l-74 161q-6 13 -1 20.5t19 7.5h75q21 0 29 -18l77 -159q8 -18 -4 -33z" />
    <glyph glyph-name="fraction" unicode="&#x2044;" horiz-adv-x="144" 
d="M265 611q12 13 28 13h68q14 0 18 -8.5t-5 -19.5l-479 -583q-12 -13 -28 -13h-68q-14 0 -18 8.5t5 19.5z" />
    <glyph glyph-name="uni2070" unicode="&#x2070;" 
d="M87 629q10 63 47 95t99 32q60 0 94 -30t34 -81v-12.5t-2 -13.5l-22 -136q-21 -127 -146 -127q-60 0 -94 30t-34 81v12.5t2 13.5zM163 487q-1 -5 -1 -10q0 -32 32 -32q18 0 30 11t15 31l22 138q1 5 1 10q0 32 -32 32q-18 0 -30 -11t-15 -31z" />
    <glyph glyph-name="uni2074" unicode="&#x2074;" 
d="M333 526q26 0 21 -25l-7 -43q-3 -21 -24 -21h-22l-9 -53q-3 -21 -24 -21h-53q-26 0 -21 25l8 49h-130q-26 0 -21 25l9 53q3 15 12 27l168 194q12 13 28 13h58q26 0 21 -25l-32 -198h18zM229 618l-79 -92h66l15 92h-2z" />
    <glyph glyph-name="uni2075" unicode="&#x2075;" 
d="M339 749q26 0 21 -25l-7 -43q-3 -21 -24 -21h-128l-11 -50h2q11 3 22 5t23 2q50 0 79.5 -31t29.5 -85q0 -68 -43 -106.5t-115 -38.5q-40 0 -71 12t-52 32q-16 15 1 32l30 31q14 15 32 0q14 -10 29 -14t31 -4q27 0 42.5 12.5t15.5 34.5q0 37 -41 37q-15 0 -33 -8
q-8 -4 -15 -6t-15 0l-33 5q-23 3 -18 27l40 182q5 20 26 20h182z" />
    <glyph glyph-name="uni2076" unicode="&#x2076;" 
d="M246 667q-48 0 -56 -51l-2 -13h2q21 20 60 20q44 0 69.5 -31t25.5 -82q0 -74 -39 -114t-108 -40q-61 0 -95 30t-34 82q0 6 0.5 12.5t1.5 13.5l20 127q11 67 48.5 101t99.5 34q32 0 58.5 -7t46.5 -18q19 -12 6 -32l-25 -36q-7 -9 -14 -9.5t-17 4.5q-11 5 -23 7t-25 2z
M245 498q0 36 -30 36q-20 0 -33.5 -14t-13.5 -40q0 -35 32 -35q45 0 45 53z" />
    <glyph glyph-name="uni2077" unicode="&#x2077;" 
d="M375 671q-1 -6 -2.5 -12.5t-6.5 -14.5l-159 -265q-9 -16 -27 -16h-64q-14 0 -18.5 8t3.5 20l166 270h-85l-8 -46q-3 -21 -24 -21h-43q-26 0 -21 25l18 109q3 21 24 21h235q24 0 21 -25z" />
    <glyph glyph-name="uni2078" unicode="&#x2078;" 
d="M301 553q41 -27 41 -76q0 -59 -39 -90t-109 -31q-67 0 -103.5 29t-36.5 81q0 38 18.5 63t53.5 37v2q-34 26 -34 70q0 57 37 87.5t101 30.5q62 0 96 -29t34 -80q0 -68 -59 -92v-2zM221 601q40 0 40 39q0 27 -32 27q-40 0 -40 -39q0 -27 32 -27zM195 445q49 0 49 40
q0 31 -41 31q-49 0 -49 -42q0 -29 41 -29z" />
    <glyph glyph-name="uni2079" unicode="&#x2079;" 
d="M226 756q61 0 95 -30t34 -82q0 -6 -0.5 -12.5t-1.5 -13.5l-20 -127q-11 -67 -48.5 -101t-99.5 -34q-63 0 -105 25q-19 12 -6 32l25 36q7 9 14 9.5t17 -4.5q11 -5 23 -7t25 -2q48 0 56 51l2 13h-2q-21 -20 -60 -20q-44 0 -69.5 31t-25.5 82q0 74 39 114t108 40zM209 578
q20 0 33.5 14t13.5 40q0 35 -32 35q-45 0 -45 -53q0 -36 30 -36z" />
    <glyph glyph-name="uni2080" unicode="&#x2080;" 
d="M4 106q10 63 47 95t99 32q60 0 94 -30t34 -81v-12.5t-2 -13.5l-22 -136q-21 -127 -146 -127q-60 0 -94 30t-34 81v12.5t2 13.5zM80 -36q-1 -5 -1 -10q0 -32 32 -32q18 0 30 11t15 31l22 138q1 5 1 10q0 32 -32 32q-18 0 -30 -11t-15 -31z" />
    <glyph glyph-name="uni2081" unicode="&#x2081;" 
d="M202 -139q-3 -21 -24 -21h-53q-26 0 -21 25l35 228l-36 -25q-20 -12 -32 7l-21 35q-11 19 7 32l111 75q13 9 29 9h39q26 0 21 -25z" />
    <glyph glyph-name="uni2082" unicode="&#x2082;" 
d="M221 -70q26 0 21 -25l-7 -43q-3 -21 -24 -21h-212q-26 0 -21 25l7 44q2 8 4.5 14.5t9.5 12.5l152 131q17 15 23 26t6 21q0 14 -9 21.5t-24 7.5q-26 0 -52 -29q-17 -19 -33 -1l-30 34q-16 16 0 32q27 27 59 40t66 13q57 0 89.5 -30t32.5 -84q0 -33 -13.5 -60t-52.5 -58
l-88 -69v-2h96z" />
    <glyph glyph-name="uni2083" unicode="&#x2083;" 
d="M214 32q41 -25 41 -78q0 -58 -38.5 -89.5t-111.5 -31.5q-42 0 -72.5 13t-51.5 36q-14 16 2 32l30 30q15 15 33 0q13 -12 28 -17t31 -5q53 0 53 39q0 18 -13 25t-47 7q-24 0 -19 25l6 39q3 21 25 21q37 0 50 8t13 30q0 28 -35 28q-25 0 -57 -29q-18 -17 -32 3l-26 39
q-12 19 4 32q29 23 60 33.5t63 10.5q57 0 90 -29t33 -80q0 -69 -59 -90v-2z" />
    <glyph glyph-name="uni2084" unicode="&#x2084;" 
d="M250 3q26 0 21 -25l-7 -43q-3 -21 -24 -21h-22l-9 -53q-3 -21 -24 -21h-53q-26 0 -21 25l8 49h-130q-26 0 -21 25l9 53q3 15 12 27l168 194q12 13 28 13h58q26 0 21 -25l-32 -198h18zM146 95l-79 -92h66l15 92h-2z" />
    <glyph glyph-name="uni2085" unicode="&#x2085;" 
d="M256 226q26 0 21 -25l-7 -43q-3 -21 -24 -21h-128l-11 -50h2q11 3 22 5t23 2q50 0 79.5 -31t29.5 -85q0 -68 -43 -106.5t-115 -38.5q-40 0 -71 12t-52 32q-16 15 1 32l30 31q14 15 32 0q14 -10 29 -14t31 -4q27 0 42.5 12.5t15.5 34.5q0 37 -41 37q-15 0 -33 -8
q-8 -4 -15 -6t-15 0l-33 5q-23 3 -18 27l40 182q5 20 26 20h182z" />
    <glyph glyph-name="uni2086" unicode="&#x2086;" 
d="M163 144q-48 0 -56 -51l-2 -13h2q21 20 60 20q44 0 69.5 -31t25.5 -82q0 -74 -39 -114t-108 -40q-61 0 -95 30t-34 82q0 6 0.5 12.5t1.5 13.5l20 127q11 67 48.5 101t99.5 34q32 0 58.5 -7t46.5 -18q19 -12 6 -32l-25 -36q-7 -9 -14 -9.5t-17 4.5q-11 5 -23 7t-25 2z
M162 -25q0 36 -30 36q-20 0 -33.5 -14t-13.5 -40q0 -35 32 -35q45 0 45 53z" />
    <glyph glyph-name="uni2087" unicode="&#x2087;" 
d="M292 148q-1 -6 -2.5 -12.5t-6.5 -14.5l-159 -265q-9 -16 -27 -16h-64q-14 0 -18.5 8t3.5 20l166 270h-85l-8 -46q-3 -21 -24 -21h-43q-26 0 -21 25l18 109q3 21 24 21h235q24 0 21 -25z" />
    <glyph glyph-name="uni2088" unicode="&#x2088;" 
d="M218 30q41 -27 41 -76q0 -59 -39 -90t-109 -31q-67 0 -103.5 29t-36.5 81q0 38 18.5 63t53.5 37v2q-34 26 -34 70q0 57 37 87.5t101 30.5q62 0 96 -29t34 -80q0 -68 -59 -92v-2zM138 78q40 0 40 39q0 27 -32 27q-40 0 -40 -39q0 -27 32 -27zM112 -78q49 0 49 40
q0 31 -41 31q-49 0 -49 -42q0 -29 41 -29z" />
    <glyph glyph-name="uni2089" unicode="&#x2089;" 
d="M143 233q61 0 95 -30t34 -82q0 -6 -0.5 -12.5t-1.5 -13.5l-20 -127q-11 -67 -48.5 -101t-99.5 -34q-63 0 -105 25q-19 12 -6 32l25 36q7 9 14 9.5t17 -4.5q11 -5 23 -7t25 -2q48 0 56 51l2 13h-2q-21 -20 -60 -20q-44 0 -69.5 31t-25.5 82q0 74 39 114t108 40zM126 55
q20 0 33.5 14t13.5 40q0 35 -32 35q-45 0 -45 -53q0 -36 30 -36z" />
    <glyph glyph-name="Euro" unicode="&#x20ac;" horiz-adv-x="530" 
d="M285 118q51 0 85 37q21 21 40 4l57 -49q22 -19 5 -40q-69 -82 -205 -82q-93 0 -147 46.5t-54 130.5q0 17 3 37h-23q-25 0 -20 24l7 42q3 20 23 20h27l8 49h-24q-25 0 -20 24l7 41q3 20 23 20h27l1 6q16 102 79 155t166 53q66 0 115 -23t76 -65q7 -11 3.5 -21t-14.5 -17
l-70 -41q-11 -7 -20 -4.5t-18 12.5q-14 16 -34 22.5t-46 6.5q-37 0 -60 -21t-30 -63h127q12 0 17 -7t0 -18l-16 -42q-6 -18 -25 -18h-117l-7 -49h99q26 0 18 -25l-16 -44q-6 -17 -26 -17h-89q-1 -5 -1.5 -10t-0.5 -10q0 -32 19 -48t51 -16z" />
    <glyph glyph-name="uni20B9" unicode="&#x20b9;" horiz-adv-x="530" 
d="M551 624q26 0 18 -25l-14 -39q-6 -17 -26 -17h-89v-2q25 -30 30 -79h55q26 0 18 -25l-14 -39q-6 -17 -26 -17h-38q-15 -72 -67 -110t-159 -46v-2l162 -189q11 -14 6.5 -24t-22.5 -10h-124q-21 0 -34 16l-180 223q-12 15 -5 34l16 44q7 20 28 20h98q53 0 81.5 11t42.5 31
v2h-227q-26 0 -18 25l14 39q6 17 26 17h214v2q-9 20 -33.5 31t-72.5 11h-106q-31 0 -20 29l26 69q7 20 28 20h412z" />
    <glyph glyph-name="afii61289" unicode="&#x2113;" horiz-adv-x="480" 
d="M409 66q9 -24 -11 -38q-29 -20 -64.5 -30t-70.5 -10q-78 0 -123 32t-56 91l-8 -4q-26 -12 -37 15l-27 66q-10 25 14 37l69 37l33 205q13 81 66.5 125t134.5 44q74 0 114.5 -38t40.5 -104q0 -43 -14 -81t-44 -74t-78 -72.5t-116 -75.5q-1 -5 -1 -9v-8q0 -56 53 -56
q30 0 62 22q27 19 38 -10zM319 517q-32 0 -44 -57l-25 -116h2q47 35 70.5 73.5t23.5 68.5q0 31 -27 31z" />
    <glyph glyph-name="uni2117" unicode="&#x2117;" horiz-adv-x="752" 
d="M428 516q124 0 124 -103q0 -75 -38.5 -110t-121.5 -35h-29l-16 -100q-3 -20 -23 -20h-51q-25 0 -20 24l52 324q3 20 23 20h100zM454 400q0 33 -38 33h-26l-13 -82h26q51 0 51 49zM426 676q68 0 124.5 -22.5t97.5 -62.5t63.5 -95t22.5 -120q0 -80 -30.5 -150.5
t-82.5 -123.5t-122.5 -83.5t-149.5 -30.5q-68 0 -124.5 22.5t-97.5 62.5t-63.5 95t-22.5 120q0 80 30.5 150.5t82.5 123.5t122 83.5t150 30.5zM355 63q59 0 112.5 24.5t94 66.5t64 97.5t23.5 117.5q0 51 -16.5 94t-46.5 73.5t-72 47.5t-94 17q-59 0 -112.5 -25t-94 -67
t-64 -97.5t-23.5 -116.5q0 -51 16.5 -94t46.5 -73.5t72 -47.5t94 -17z" />
    <glyph glyph-name="trademark" unicode="&#x2122;" horiz-adv-x="785" 
d="M326 664q22 0 19 -23l-6 -41q-3 -19 -23 -19h-68l-40 -252q-3 -19 -22 -19h-54q-22 0 -19 23l39 248h-64q-22 0 -19 23l6 41q3 19 23 19h228zM782 664q22 0 19 -23l-49 -312q-3 -19 -22 -19h-54q-22 0 -19 23l35 217h-1l-106 -224q-7 -16 -24 -16h-27q-19 0 -22 19
l-34 212h-2l-36 -212q-3 -19 -22 -19h-50q-22 0 -19 23l49 312q3 19 22 19h95q19 0 22 -19l29 -189h2l90 192q7 16 24 16h100z" />
    <glyph glyph-name="uni2126" unicode="&#x2126;" horiz-adv-x="590" 
d="M347 676q110 0 170 -50.5t60 -144.5q0 -12 -1 -24t-3 -26l-22 -138q-18 -109 -94 -155v-2h39q30 0 25 -30l-12 -80q-5 -26 -30 -26h-160q-30 0 -25 30l14 90q2 11 7 18t14 14q50 36 63 118l24 154q3 19 3 36q0 80 -79 80q-95 0 -114 -116l-24 -154q-2 -11 -3 -21t-1 -19
q0 -49 26 -75q8 -8 12 -16.5t2 -19.5l-15 -93q-5 -26 -30 -26h-160q-30 0 -25 30l12 80q5 26 30 26h55v2q-57 40 -57 124q0 20 3 41l22 138q18 116 87 175.5t187 59.5z" />
    <glyph glyph-name="estimated" unicode="&#x212e;" horiz-adv-x="820" 
d="M200 112q42 -48 99.5 -75.5t123.5 -27.5q70 0 130 31t103 84h54q-51 -62 -126 -98.5t-163 -36.5q-75 0 -141 27t-115 73.5t-77.5 109.5t-28.5 134q0 72 28.5 134.5t77.5 109t115 73.5t141 27t141 -27t115 -73.5t77.5 -109t28.5 -134.5v-8h-587q-4 0 -4 -4v-189
q0 -6 2.5 -10.5t5.5 -9.5zM646 343q6 0 6 6v189q0 12 -10 22q-43 45 -99.5 71t-119.5 26q-66 0 -123 -27t-100 -74q-3 -5 -5.5 -10.5t-2.5 -11.5v-185q0 -6 4 -6h450z" />
    <glyph glyph-name="onethird" unicode="&#x2153;" horiz-adv-x="804" 
d="M595 611q12 13 28 13h68q14 0 18 -8.5t-5 -19.5l-479 -583q-12 -13 -28 -13h-68q-14 0 -18 8.5t5 19.5zM714 192q41 -25 41 -78q0 -58 -38.5 -89.5t-111.5 -31.5q-42 0 -72.5 13t-51.5 36q-14 16 2 32l30 30q15 15 33 0q13 -12 28 -17t31 -5q53 0 53 39q0 18 -13 25
t-47 7q-24 0 -19 25l6 39q3 21 25 21q37 0 50 8t13 30q0 28 -35 28q-25 0 -57 -29q-18 -17 -32 3l-26 39q-12 19 4 32q29 23 60 33.5t63 10.5q57 0 90 -29t33 -80q0 -69 -59 -90v-2zM266 259q-3 -21 -24 -21h-53q-26 0 -21 25l35 228l-36 -25q-20 -12 -32 7l-21 35
q-11 19 7 32l111 75q13 9 29 9h39q26 0 21 -25z" />
    <glyph glyph-name="twothirds" unicode="&#x2154;" horiz-adv-x="804" 
d="M605 611q12 13 28 13h68q14 0 18 -8.5t-5 -19.5l-479 -583q-12 -13 -28 -13h-68q-14 0 -18 8.5t5 19.5zM714 192q41 -25 41 -78q0 -58 -38.5 -89.5t-111.5 -31.5q-42 0 -72.5 13t-51.5 36q-14 16 2 32l30 30q15 15 33 0q13 -12 28 -17t31 -5q53 0 53 39q0 18 -13 25
t-47 7q-24 0 -19 25l6 39q3 21 25 21q37 0 50 8t13 30q0 28 -35 28q-25 0 -57 -29q-18 -17 -32 3l-26 39q-12 19 4 32q29 23 60 33.5t63 10.5q57 0 90 -29t33 -80q0 -69 -59 -90v-2zM285 328q26 0 21 -25l-7 -43q-3 -21 -24 -21h-212q-26 0 -21 25l7 44q2 8 4.5 14.5
t9.5 12.5l152 131q17 15 23 26t6 21q0 14 -9 21.5t-24 7.5q-26 0 -52 -29q-17 -19 -33 -1l-30 34q-16 16 0 32q27 27 59 40t66 13q57 0 89.5 -30t32.5 -84q0 -33 -13.5 -60t-52.5 -58l-88 -69v-2h96z" />
    <glyph glyph-name="oneeighth" unicode="&#x215b;" horiz-adv-x="804" 
d="M595 611q12 13 28 13h68q14 0 18 -8.5t-5 -19.5l-479 -583q-12 -13 -28 -13h-68q-14 0 -18 8.5t5 19.5zM718 190q41 -27 41 -76q0 -59 -39 -90t-109 -31q-67 0 -103.5 29t-36.5 81q0 38 18.5 63t53.5 37v2q-34 26 -34 70q0 57 37 87.5t101 30.5q62 0 96 -29t34 -80
q0 -68 -59 -92v-2zM638 238q40 0 40 39q0 27 -32 27q-40 0 -40 -39q0 -27 32 -27zM612 82q49 0 49 40q0 31 -41 31q-49 0 -49 -42q0 -29 41 -29zM266 259q-3 -21 -24 -21h-53q-26 0 -21 25l35 228l-36 -25q-20 -12 -32 7l-21 35q-11 19 7 32l111 75q13 9 29 9h39
q26 0 21 -25z" />
    <glyph glyph-name="threeeighths" unicode="&#x215c;" horiz-adv-x="804" 
d="M600 611q12 13 28 13h68q14 0 18 -8.5t-5 -19.5l-479 -583q-12 -13 -28 -13h-68q-14 0 -18 8.5t5 19.5zM718 190q41 -27 41 -76q0 -59 -39 -90t-109 -31q-67 0 -103.5 29t-36.5 81q0 38 18.5 63t53.5 37v2q-34 26 -34 70q0 57 37 87.5t101 30.5q62 0 96 -29t34 -80
q0 -68 -59 -92v-2zM638 238q40 0 40 39q0 27 -32 27q-40 0 -40 -39q0 -27 32 -27zM612 82q49 0 49 40q0 31 -41 31q-49 0 -49 -42q0 -29 41 -29zM278 430q41 -25 41 -78q0 -58 -38.5 -89.5t-111.5 -31.5q-42 0 -72.5 13t-51.5 36q-14 16 2 32l30 30q15 15 33 0
q13 -12 28 -17t31 -5q53 0 53 39q0 18 -13 25t-47 7q-24 0 -19 25l6 39q3 21 25 21q37 0 50 8t13 30q0 28 -35 28q-25 0 -57 -29q-18 -17 -32 3l-26 39q-12 19 4 32q29 23 60 33.5t63 10.5q57 0 90 -29t33 -80q0 -69 -59 -90v-2z" />
    <glyph glyph-name="fiveeighths" unicode="&#x215d;" horiz-adv-x="804" 
d="M600 611q12 13 28 13h68q14 0 18 -8.5t-5 -19.5l-479 -583q-12 -13 -28 -13h-68q-14 0 -18 8.5t5 19.5zM718 190q41 -27 41 -76q0 -59 -39 -90t-109 -31q-67 0 -103.5 29t-36.5 81q0 38 18.5 63t53.5 37v2q-34 26 -34 70q0 57 37 87.5t101 30.5q62 0 96 -29t34 -80
q0 -68 -59 -92v-2zM638 238q40 0 40 39q0 27 -32 27q-40 0 -40 -39q0 -27 32 -27zM612 82q49 0 49 40q0 31 -41 31q-49 0 -49 -42q0 -29 41 -29zM320 624q26 0 21 -25l-7 -43q-3 -21 -24 -21h-128l-11 -50h2q11 3 22 5t23 2q50 0 79.5 -31t29.5 -85q0 -68 -43 -106.5
t-115 -38.5q-40 0 -71 12t-52 32q-16 15 1 32l30 31q14 15 32 0q14 -10 29 -14t31 -4q27 0 42.5 12.5t15.5 34.5q0 37 -41 37q-15 0 -33 -8q-8 -4 -15 -6t-15 0l-33 5q-23 3 -18 27l40 182q5 20 26 20h182z" />
    <glyph glyph-name="seveneighths" unicode="&#x215e;" horiz-adv-x="804" 
d="M565 611q12 13 28 13h68q14 0 18 -8.5t-5 -19.5l-479 -583q-12 -13 -28 -13h-68q-14 0 -18 8.5t5 19.5zM718 190q41 -27 41 -76q0 -59 -39 -90t-109 -31q-67 0 -103.5 29t-36.5 81q0 38 18.5 63t53.5 37v2q-34 26 -34 70q0 57 37 87.5t101 30.5q62 0 96 -29t34 -80
q0 -68 -59 -92v-2zM638 238q40 0 40 39q0 27 -32 27q-40 0 -40 -39q0 -27 32 -27zM612 82q49 0 49 40q0 31 -41 31q-49 0 -49 -42q0 -29 41 -29zM356 546q-1 -6 -2.5 -12.5t-6.5 -14.5l-159 -265q-9 -16 -27 -16h-64q-14 0 -18.5 8t3.5 20l166 270h-85l-8 -46
q-3 -21 -24 -21h-43q-26 0 -21 25l18 109q3 21 24 21h235q24 0 21 -25z" />
    <glyph glyph-name="partialdiff" unicode="&#x2202;" horiz-adv-x="540" 
d="M324 676q99 0 150 -66.5t51 -181.5q0 -36 -6.5 -83t-21 -95.5t-38.5 -95.5t-58 -84t-80 -59.5t-105 -22.5q-90 0 -140 50t-50 138q0 55 17.5 104t48 86t71 58.5t86.5 21.5q43 0 73.5 -15t50.5 -42h2q1 10 1.5 19.5t0.5 17.5q0 59 -20 89.5t-60 30.5q-20 0 -38 -5.5
t-34 -14.5q-26 -14 -38 12l-28 68q-11 26 13 37q36 17 73 25t79 8zM223 118q35 0 67.5 36.5t55.5 100.5q-5 27 -20.5 44t-40.5 17q-23 0 -43.5 -11t-36 -29.5t-24.5 -43.5t-9 -52q0 -62 51 -62z" />
    <glyph glyph-name="uni2206" unicode="&#x2206;" horiz-adv-x="596" 
d="M541 30q5 -30 -26 -30h-510q-16 0 -22 9t1 24l281 610q10 21 33 21h125q27 0 30 -26zM335 471l-142 -335h179l-35 335h-2z" />
    <glyph glyph-name="product" unicode="&#x220f;" horiz-adv-x="606" 
d="M508 -54q-5 -26 -30 -26h-100q-30 0 -25 30l91 578h-198l-92 -582q-5 -26 -30 -26h-100q-30 0 -25 30l109 688q5 26 30 26h454q30 0 25 -30z" />
    <glyph glyph-name="summation" unicode="&#x2211;" horiz-adv-x="501" 
d="M381 305q13 -20 -4 -39l-195 -210h246q31 0 26 -30l-13 -80q-5 -26 -30 -26h-414q-31 0 -26 30l15 92q2 11 5.5 18t10.5 15l204 217l-134 214q-10 17 -7 37l15 95q5 26 30 26h415q30 0 25 -30l-12 -80q-5 -26 -30 -26h-270z" />
    <glyph glyph-name="minus" unicode="&#x2212;" horiz-adv-x="530" 
d="M505 239q-5 -26 -30 -26h-430q-30 0 -25 30l12 76q5 26 30 26h430q30 0 25 -30z" />
    <glyph glyph-name="uni2219" unicode="&#x2219;" horiz-adv-x="266" 
d="M136 227q-36 0 -57.5 22t-21.5 57q0 39 26 65t64 26q36 0 57.5 -22t21.5 -57q0 -39 -26 -65t-64 -26z" />
    <glyph glyph-name="radical" unicode="&#x221a;" horiz-adv-x="536" 
d="M571 664q16 0 22 -9t0 -23l-276 -690q-9 -22 -33 -22h-103q-26 0 -30 25l-41 202l-38 -10q-28 -8 -34 20l-12 50q-6 27 21 34l138 38q29 8 34 -21l24 -161h2l211 545q9 22 33 22h82z" />
    <glyph glyph-name="infinity" unicode="&#x221e;" horiz-adv-x="611" 
d="M453 470q66 0 101.5 -37t35.5 -105q0 -82 -41.5 -128t-116.5 -46q-90 0 -135 73q-54 -73 -123 -73q-65 0 -100.5 36.5t-35.5 103.5q0 84 41 130t116 46q87 0 135 -73q54 73 123 73zM185 252q41 0 79 48q-17 41 -33 56.5t-39 15.5q-24 0 -38.5 -19.5t-14.5 -51.5
q0 -49 46 -49zM488 323q0 49 -45 49q-41 0 -77 -46q18 -42 33.5 -58t36.5 -16q24 0 38 19t14 52z" />
    <glyph glyph-name="integral" unicode="&#x222b;" horiz-adv-x="346" 
d="M125 500q16 101 74 152.5t155 58.5q30 2 27 -29l-7 -67q-2 -13 -8.5 -19t-18.5 -9q-31 -8 -53 -33t-29 -69q-8 -48 -12 -100.5t-7 -107.5q-3 -58 -8 -117.5t-14 -119.5q-15 -101 -73 -152.5t-155 -58.5q-30 -2 -27 29l6 67q2 13 8.5 19t18.5 9q31 8 53.5 33t29.5 69
q8 48 12 100.5t6 107.5q2 58 7.5 117.5t14.5 119.5z" />
    <glyph glyph-name="approxequal" unicode="&#x2248;" horiz-adv-x="530" 
d="M204 359q-20 0 -37 -12.5t-34 -35.5t-39 -8l-57 36q-24 15 -8 39q41 60 82 86.5t90 26.5q31 0 56 -8.5t58 -30.5q18 -13 29.5 -18t24.5 -5q20 0 36.5 12.5t33.5 35.5t39 8l58 -36q24 -15 8 -39q-42 -61 -82.5 -87t-89.5 -26q-31 0 -56 8.5t-58 30.5q-18 13 -29.5 18
t-24.5 5zM167 129q-20 0 -37 -12.5t-34 -35.5t-39 -8l-57 36q-24 15 -8 39q41 60 82 86.5t90 26.5q31 0 56 -8.5t58 -30.5q18 -13 29.5 -18t24.5 -5q20 0 36.5 12.5t33.5 35.5t39 8l58 -36q24 -15 8 -39q-42 -61 -82.5 -87t-89.5 -26q-31 0 -56 8.5t-58 30.5
q-18 13 -29.5 18t-24.5 5z" />
    <glyph glyph-name="notequal" unicode="&#x2260;" horiz-adv-x="530" 
d="M500 460q30 0 25 -30l-12 -76q-5 -26 -30 -26h-111l-68 -98h159q30 0 25 -30l-11 -76q-5 -26 -30 -26h-236l-56 -80q-12 -18 -34 -18h-77q-17 0 -22.5 10t5.5 24l44 64h-34q-30 0 -25 30l11 76q5 26 30 26h111l68 98h-159q-30 0 -25 30l12 76q5 26 30 26h235l56 80
q12 18 34 18h77q17 0 22.5 -10t-5.5 -24l-44 -64h35z" />
    <glyph glyph-name="lessequal" unicode="&#x2264;" horiz-adv-x="530" 
d="M445 132q30 0 25 -30l-12 -76q-5 -26 -30 -26h-405q-30 0 -25 30l12 76q5 26 30 26h405zM67 300q-26 8 -21 34l11 73q4 23 26 30l427 128q16 5 24 -2.5t6 -23.5l-13 -87q-4 -23 -27 -29l-224 -58v-2l201 -57q25 -8 21 -33l-13 -80q-5 -30 -34 -20z" />
    <glyph glyph-name="greaterequal" unicode="&#x2265;" horiz-adv-x="530" 
d="M497 438q26 -8 21 -34l-11 -73q-4 -23 -26 -30l-427 -128q-16 -5 -24 2.5t-6 23.5l13 87q4 23 27 29l224 58v2l-201 57q-25 8 -21 33l13 80q5 30 34 20zM445 132q30 0 25 -30l-12 -76q-5 -26 -30 -26h-405q-30 0 -25 30l12 76q5 26 30 26h405z" />
    <glyph glyph-name="lozenge" unicode="&#x25ca;" horiz-adv-x="514" 
d="M499 352q4 -11 3.5 -19.5t-7.5 -18.5l-209 -306q-12 -18 -34 -18h-70q-23 0 -32 22l-112 300q-7 20 5 38l208 306q12 18 34 18h70q23 0 32 -22zM301 507l-118 -183l52 -168h2l118 184l-52 167h-2z" />
    <glyph glyph-name="uniE069" unicode="&#xe069;" horiz-adv-x="246" 
d="M179 566q-34 0 -54.5 20.5t-20.5 52.5q0 38 24 62.5t61 24.5q35 0 55 -20.5t20 -53.5q0 -38 -24.5 -62t-60.5 -24zM41 0q-30 0 -25 30l70 444q5 26 30 26h86q30 0 25 -30l-70 -444q-5 -26 -30 -26h-86z" />
    <glyph glyph-name="uniEF01" unicode="&#xef01;" horiz-adv-x="500" 
d="M195 -40q31 0 50 -19.5t19 -52.5q0 -48 -29.5 -89.5t-75.5 -59.5q-16 -6 -24 9l-15 28q-9 15 8 24t30 27q-40 16 -40 61q0 34 22.5 53t54.5 19z" />
    <glyph glyph-name="uniEF02" unicode="&#xef02;" horiz-adv-x="500" 
d="M324 508q-6 -18 -25 -18h-57q-25 0 -19 24l38 165q4 21 27 21h75q29 0 19 -28z" />
    <glyph glyph-name="uniF8FF" unicode="&#xf8ff;" horiz-adv-x="1000" 
d="M439 262h-1l-17 -78h-23l28 126h27v-66h1l28 66h31l-28 -126h-24l17 78h-1l-22 -52h-16v52zM123 208q-7 -24 -25 -24h-46l28 126h43q18 0 18 -15v-3.5t-1 -6.5zM269 184l6 26h-17l-7 -26h-24l23 103q5 23 26 23h22q18 0 18 -15v-3.5t-1 -6.5l-22 -101h-24zM546 184l6 26
h-17l-7 -26h-24l23 103q5 23 26 23h22q18 0 18 -15v-3.5t-1 -6.5l-22 -101h-24zM390 233q-4 -17 -13 -20l6 -29h-23l-4 26h-13l-6 -26h-24l28 126h43q18 0 18 -15v-3.5t-1 -6.5zM833 232q-4 -22 -24 -22h-22l-6 -26h-24l28 126h43q18 0 18 -15v-3.5t-1 -6.5zM205 184h-24
l6 26h-18l-6 -26h-24l28 126h24l-18 -81h18l18 81h24zM727 310l-17 -75q-1 -6 4 -6h7q5 0 6 4l17 77h24l-17 -78q-4 -22 -24 -22l-14 -26h-24l14 26q-7 0 -12.5 3.5t-5.5 11.5q0 5 1 10l17 75h24zM897 223h-26l-4 -20h33l-5 -19h-56l28 126h57l-5 -19h-32l-11 -49h25z
M647 184h-24l24 107h-19l4 19h61l-4 -19h-18zM80 203h13q4 0 6 5l17 77q1 6 -3 6h-13zM821 285q1 6 -4 6h-12l-14 -62h13q5 0 6 4zM377 285q1 6 -4 6h-12l-14 -62h13q5 0 6 4zM557 291q-5 0 -6 -5l-13 -57h18l12 56q1 6 -4 6h-7zM280 291q-5 0 -6 -5l-13 -57h18l12 56
q1 6 -4 6h-7zM987 303h-6v25h-1l-7 -20h-4l-7 20h-1v-25h-5v30h10l5 -16h1l5 16h10v-30zM952 328h-9v-25h-6v25h-8v5h23v-5z" />
    <glyph glyph-name="zero.numr" 
d="M68 504q10 63 47 95t99 32q60 0 94 -30t34 -81v-12.5t-2 -13.5l-22 -136q-21 -127 -146 -127q-60 0 -94 30t-34 81v12.5t2 13.5zM144 362q-1 -5 -1 -10q0 -32 32 -32q18 0 30 11t15 31l22 138q1 5 1 10q0 32 -32 32q-18 0 -30 -11t-15 -31z" />
    <glyph glyph-name="one.numr" 
d="M266 259q-3 -21 -24 -21h-53q-26 0 -21 25l35 228l-36 -25q-20 -12 -32 7l-21 35q-11 19 7 32l111 75q13 9 29 9h39q26 0 21 -25z" />
    <glyph glyph-name="two.numr" 
d="M285 328q26 0 21 -25l-7 -43q-3 -21 -24 -21h-212q-26 0 -21 25l7 44q2 8 4.5 14.5t9.5 12.5l152 131q17 15 23 26t6 21q0 14 -9 21.5t-24 7.5q-26 0 -52 -29q-17 -19 -33 -1l-30 34q-16 16 0 32q27 27 59 40t66 13q57 0 89.5 -30t32.5 -84q0 -33 -13.5 -60t-52.5 -58
l-88 -69v-2h96z" />
    <glyph glyph-name="three.numr" 
d="M278 430q41 -25 41 -78q0 -58 -38.5 -89.5t-111.5 -31.5q-42 0 -72.5 13t-51.5 36q-14 16 2 32l30 30q15 15 33 0q13 -12 28 -17t31 -5q53 0 53 39q0 18 -13 25t-47 7q-24 0 -19 25l6 39q3 21 25 21q37 0 50 8t13 30q0 28 -35 28q-25 0 -57 -29q-18 -17 -32 3l-26 39
q-12 19 4 32q29 23 60 33.5t63 10.5q57 0 90 -29t33 -80q0 -69 -59 -90v-2z" />
    <glyph glyph-name="four.numr" 
d="M314 401q26 0 21 -25l-7 -43q-3 -21 -24 -21h-22l-9 -53q-3 -21 -24 -21h-53q-26 0 -21 25l8 49h-130q-26 0 -21 25l9 53q3 15 12 27l168 194q12 13 28 13h58q26 0 21 -25l-32 -198h18zM210 493l-79 -92h66l15 92h-2z" />
    <glyph glyph-name="five.numr" 
d="M320 624q26 0 21 -25l-7 -43q-3 -21 -24 -21h-128l-11 -50h2q11 3 22 5t23 2q50 0 79.5 -31t29.5 -85q0 -68 -43 -106.5t-115 -38.5q-40 0 -71 12t-52 32q-16 15 1 32l30 31q14 15 32 0q14 -10 29 -14t31 -4q27 0 42.5 12.5t15.5 34.5q0 37 -41 37q-15 0 -33 -8
q-8 -4 -15 -6t-15 0l-33 5q-23 3 -18 27l40 182q5 20 26 20h182z" />
    <glyph glyph-name="six.numr" 
d="M227 542q-48 0 -56 -51l-2 -13h2q21 20 60 20q44 0 69.5 -31t25.5 -82q0 -74 -39 -114t-108 -40q-61 0 -95 30t-34 82q0 6 0.5 12.5t1.5 13.5l20 127q11 67 48.5 101t99.5 34q32 0 58.5 -7t46.5 -18q19 -12 6 -32l-25 -36q-7 -9 -14 -9.5t-17 4.5q-11 5 -23 7t-25 2z
M226 373q0 36 -30 36q-20 0 -33.5 -14t-13.5 -40q0 -35 32 -35q45 0 45 53z" />
    <glyph glyph-name="seven.numr" 
d="M356 546q-1 -6 -2.5 -12.5t-6.5 -14.5l-159 -265q-9 -16 -27 -16h-64q-14 0 -18.5 8t3.5 20l166 270h-85l-8 -46q-3 -21 -24 -21h-43q-26 0 -21 25l18 109q3 21 24 21h235q24 0 21 -25z" />
    <glyph glyph-name="eight.numr" 
d="M282 428q41 -27 41 -76q0 -59 -39 -90t-109 -31q-67 0 -103.5 29t-36.5 81q0 38 18.5 63t53.5 37v2q-34 26 -34 70q0 57 37 87.5t101 30.5q62 0 96 -29t34 -80q0 -68 -59 -92v-2zM202 476q40 0 40 39q0 27 -32 27q-40 0 -40 -39q0 -27 32 -27zM176 320q49 0 49 40
q0 31 -41 31q-49 0 -49 -42q0 -29 41 -29z" />
    <glyph glyph-name="nine.numr" 
d="M207 631q61 0 95 -30t34 -82q0 -6 -0.5 -12.5t-1.5 -13.5l-20 -127q-11 -67 -48.5 -101t-99.5 -34q-63 0 -105 25q-19 12 -6 32l25 36q7 9 14 9.5t17 -4.5q11 -5 23 -7t25 -2q48 0 56 51l2 13h-2q-21 -20 -60 -20q-44 0 -69.5 31t-25.5 82q0 74 39 114t108 40zM190 453
q20 0 33.5 14t13.5 40q0 35 -32 35q-45 0 -45 -53q0 -36 30 -36z" />
    <glyph glyph-name="zero.dnom" 
d="M30 266q10 63 47 95t99 32q60 0 94 -30t34 -81v-12.5t-2 -13.5l-22 -136q-21 -127 -146 -127q-60 0 -94 30t-34 81v12.5t2 13.5zM106 124q-1 -5 -1 -10q0 -32 32 -32q18 0 30 11t15 31l22 138q1 5 1 10q0 32 -32 32q-18 0 -30 -11t-15 -31z" />
    <glyph glyph-name="one.dnom" 
d="M228 21q-3 -21 -24 -21h-53q-26 0 -21 25l35 228l-36 -25q-20 -12 -32 7l-21 35q-11 19 7 32l111 75q13 9 29 9h39q26 0 21 -25z" />
    <glyph glyph-name="two.dnom" 
d="M247 90q26 0 21 -25l-7 -43q-3 -21 -24 -21h-212q-26 0 -21 25l7 44q2 8 4.5 14.5t9.5 12.5l152 131q17 15 23 26t6 21q0 14 -9 21.5t-24 7.5q-26 0 -52 -29q-17 -19 -33 -1l-30 34q-16 16 0 32q27 27 59 40t66 13q57 0 89.5 -30t32.5 -84q0 -33 -13.5 -60t-52.5 -58
l-88 -69v-2h96z" />
    <glyph glyph-name="three.dnom" 
d="M240 192q41 -25 41 -78q0 -58 -38.5 -89.5t-111.5 -31.5q-42 0 -72.5 13t-51.5 36q-14 16 2 32l30 30q15 15 33 0q13 -12 28 -17t31 -5q53 0 53 39q0 18 -13 25t-47 7q-24 0 -19 25l6 39q3 21 25 21q37 0 50 8t13 30q0 28 -35 28q-25 0 -57 -29q-18 -17 -32 3l-26 39
q-12 19 4 32q29 23 60 33.5t63 10.5q57 0 90 -29t33 -80q0 -69 -59 -90v-2z" />
    <glyph glyph-name="four.dnom" 
d="M276 163q26 0 21 -25l-7 -43q-3 -21 -24 -21h-22l-9 -53q-3 -21 -24 -21h-53q-26 0 -21 25l8 49h-130q-26 0 -21 25l9 53q3 15 12 27l168 194q12 13 28 13h58q26 0 21 -25l-32 -198h18zM172 255l-79 -92h66l15 92h-2z" />
    <glyph glyph-name="five.dnom" 
d="M282 386q26 0 21 -25l-7 -43q-3 -21 -24 -21h-128l-11 -50h2q11 3 22 5t23 2q50 0 79.5 -31t29.5 -85q0 -68 -43 -106.5t-115 -38.5q-40 0 -71 12t-52 32q-16 15 1 32l30 31q14 15 32 0q14 -10 29 -14t31 -4q27 0 42.5 12.5t15.5 34.5q0 37 -41 37q-15 0 -33 -8
q-8 -4 -15 -6t-15 0l-33 5q-23 3 -18 27l40 182q5 20 26 20h182z" />
    <glyph glyph-name="six.dnom" 
d="M189 304q-48 0 -56 -51l-2 -13h2q21 20 60 20q44 0 69.5 -31t25.5 -82q0 -74 -39 -114t-108 -40q-61 0 -95 30t-34 82q0 6 0.5 12.5t1.5 13.5l20 127q11 67 48.5 101t99.5 34q32 0 58.5 -7t46.5 -18q19 -12 6 -32l-25 -36q-7 -9 -14 -9.5t-17 4.5q-11 5 -23 7t-25 2z
M188 135q0 36 -30 36q-20 0 -33.5 -14t-13.5 -40q0 -35 32 -35q45 0 45 53z" />
    <glyph glyph-name="seven.dnom" 
d="M318 308q-1 -6 -2.5 -12.5t-6.5 -14.5l-159 -265q-9 -16 -27 -16h-64q-14 0 -18.5 8t3.5 20l166 270h-85l-8 -46q-3 -21 -24 -21h-43q-26 0 -21 25l18 109q3 21 24 21h235q24 0 21 -25z" />
    <glyph glyph-name="eight.dnom" 
d="M244 190q41 -27 41 -76q0 -59 -39 -90t-109 -31q-67 0 -103.5 29t-36.5 81q0 38 18.5 63t53.5 37v2q-34 26 -34 70q0 57 37 87.5t101 30.5q62 0 96 -29t34 -80q0 -68 -59 -92v-2zM164 238q40 0 40 39q0 27 -32 27q-40 0 -40 -39q0 -27 32 -27zM138 82q49 0 49 40
q0 31 -41 31q-49 0 -49 -42q0 -29 41 -29z" />
    <glyph glyph-name="nine.dnom" 
d="M169 393q61 0 95 -30t34 -82q0 -6 -0.5 -12.5t-1.5 -13.5l-20 -127q-11 -67 -48.5 -101t-99.5 -34q-63 0 -105 25q-19 12 -6 32l25 36q7 9 14 9.5t17 -4.5q11 -5 23 -7t25 -2q48 0 56 51l2 13h-2q-21 -20 -60 -20q-44 0 -69.5 31t-25.5 82q0 74 39 114t108 40zM152 215
q20 0 33.5 14t13.5 40q0 35 -32 35q-45 0 -45 -53q0 -36 30 -36z" />
    </font>
</defs>
</svg>
