<?xml version="1.0" standalone="no"?>
<!DOCTYPE svg PUBLIC "-//W3C//DTD SVG 1.1//EN" "http://www.w3.org/Graphics/SVG/1.1/DTD/svg11.dtd" >
<svg>
<metadata>
Created by FontForge 20120731 at Mon Jul 10 16:07:12 2017
 By www
Copyright (c) 2014 by Ryoichi Tsunekawa. All rights reserved.
</metadata>
<defs>
<font id="KiroW03-BoldItalic" horiz-adv-x="330" >
  <font-face 
    font-family="KiroW03-BoldItalic"
    font-weight="700"
    font-style="italic"
    font-stretch="normal"
    units-per-em="1000"
    panose-1="2 11 6 6 2 2 3 11 2 4"
    ascent="800"
    descent="-200"
    x-height="497"
    cap-height="664"
    bbox="-210.565 -230.389 1072.07 915"
    underline-thickness="50"
    underline-position="-75"
    slope="-9"
    unicode-range="U+0020-FB04"
  />
<missing-glyph horiz-adv-x="600" 
d="M82 0v664h462v-664h-462zM157 623l156 -248l156 248h-312zM127 585v-506l159 253zM499 79v506l-159 -253zM313 289l-156 -248h312z" />
    <glyph glyph-name="uniFB00" unicode="ff" horiz-adv-x="621" 
d="M702 693q10 -5 12 -13t-3 -18l-26 -45q-10 -18 -29 -9q-21 10 -53 10q-35 0 -57 -22t-29 -64l-6 -35h119q24 0 21 -25l-7 -48q-3 -21 -24 -21h-123l-61 -382q-3 -21 -24 -21h-63q-26 0 -21 25l59 378h-172l-61 -382q-3 -21 -24 -21h-63q-26 0 -21 25l60 378h-40
q-26 0 -21 25l8 48q3 21 24 21h44l4 24q14 89 66 135t140 46q38 0 74 -10.5t62 -27.5q48 48 132 48q29 0 55.5 -4.5t47.5 -14.5zM408 534q2 12 4.5 23.5t6.5 22.5q-16 13 -38.5 20.5t-48.5 7.5q-39 0 -65.5 -23.5t-32.5 -65.5l-4 -22h172z" />
    <glyph glyph-name="uniFB01" unicode="fi" horiz-adv-x="532" 
d="M485 497q26 0 21 -25l-72 -451q-3 -21 -24 -21h-63q-26 0 -21 25l60 378h-171l-61 -382q-3 -21 -24 -21h-63q-26 0 -21 25l59 378h-39q-26 0 -21 25l8 48q3 21 24 21h43l6 37q14 88 64 133t141 45q38 0 69.5 -8.5t58.5 -24.5q20 -11 7 -31l-27 -42q-13 -18 -30 -8t-36 15
t-43 5q-42 0 -65 -22.5t-30 -63.5l-6 -35h256z" />
    <glyph glyph-name="uniFB02" unicode="fl" horiz-adv-x="542" 
d="M527 700q26 0 21 -25l-104 -654q-3 -21 -24 -21h-63q-26 0 -21 25l90 564q-17 14 -41.5 21.5t-52.5 7.5q-39 0 -65 -23.5t-32 -65.5l-5 -32h101q26 0 21 -25l-8 -48q-3 -21 -24 -21h-105l-61 -382q-3 -21 -24 -21h-63q-26 0 -21 25l60 378h-40q-26 0 -21 25l8 48
q3 21 24 21h44l5 34q14 89 65.5 135t139.5 46q30 0 59.5 -6t52.5 -17q6 11 21 11h63z" />
    <glyph glyph-name="uniFB03" unicode="ffi" horiz-adv-x="814" 
d="M767 497q26 0 21 -25l-72 -451q-3 -21 -24 -21h-63q-26 0 -21 25l60 378h-171l-61 -382q-3 -21 -24 -21h-63q-26 0 -21 25l59 378h-172l-61 -382q-3 -21 -24 -21h-63q-26 0 -21 25l60 378h-40q-26 0 -21 25l8 48q3 21 24 21h44l4 24q14 89 66 135t140 46q39 0 75 -10.5
t63 -28.5q52 49 144 49q38 0 69.5 -8.5t58.5 -24.5q20 -11 7 -31l-27 -42q-13 -18 -30 -8t-36 15t-43 5q-42 0 -65 -22.5t-30 -63.5l-6 -35h256zM408 534q2 12 4.5 23.5t6.5 22.5q-16 12 -38.5 20t-48.5 8q-39 0 -65.5 -23.5t-32.5 -65.5l-4 -22h172z" />
    <glyph glyph-name="uniFB04" unicode="ffl" horiz-adv-x="824" 
d="M809 700q26 0 21 -25l-112 -654q-3 -21 -24 -21h-63q-26 0 -21 25l98 564q-17 14 -41.5 21.5t-52.5 7.5q-39 0 -65 -23.5t-32 -65.5l-5 -32h101q26 0 21 -25l-8 -48q-3 -21 -24 -21h-105l-61 -382q-3 -21 -24 -21h-63q-26 0 -21 25l60 378h-173l-61 -382q-3 -21 -24 -21
h-63q-26 0 -21 25l60 378h-40q-26 0 -21 25l8 48q3 21 24 21h44l4 24q14 89 66 135t140 46q39 0 75 -10.5t63 -28.5q25 24 62 36.5t82 12.5q30 0 59.5 -6t52.5 -17q6 11 21 11h63zM408 531q2 13 5 25t6 23q-15 13 -38 21t-49 8q-39 0 -65.5 -23.5t-32.5 -65.5l-4 -22h173z
" />
    <glyph glyph-name="f_b.liga" unicode="fb" horiz-adv-x="805" 
d="M660 311q3 18 3 33q0 71 -72 71q-84 0 -101 -105l-19 -124q-3 -18 -3 -32q0 -72 72 -72q85 0 101 105zM426 589q-17 14 -41.5 21.5t-52.5 7.5q-39 0 -65 -23.5t-32 -65.5l-5 -32h101q26 0 21 -25l-8 -48q-3 -21 -24 -21h-105l-61 -382q-3 -21 -24 -21h-63q-26 0 -21 25
l60 378h-40q-26 0 -21 25l8 48q3 21 24 21h44l5 34q14 89 65.5 135t139.5 46q30 0 59.5 -6t52.5 -17q6 11 21 11h63q26 0 21 -25l-32 -200h2q38 34 101 34q76 0 116 -38.5t40 -110.5q0 -11 -1 -22t-3 -23l-23 -141q-14 -92 -67 -139t-146 -47q-86 0 -132 40t-46 114
q0 19 3 40z" />
    <glyph glyph-name="f_f_b.liga" unicode="ffb" horiz-adv-x="1087" 
d="M725 689q6 11 21 11h63q26 0 21 -25l-32 -200h2q38 34 101 34q76 0 116 -38.5t40 -110.5q0 -11 -1 -22t-3 -23l-23 -141q-14 -92 -67 -139t-146 -47q-86 0 -132 40t-46 114q0 19 3 40l66 407q-17 14 -41.5 21.5t-52.5 7.5q-39 0 -65 -23.5t-32 -65.5l-5 -32h101
q26 0 21 -25l-8 -48q-3 -21 -24 -21h-105l-61 -382q-3 -21 -24 -21h-63q-26 0 -21 25l60 378h-173l-61 -382q-3 -21 -24 -21h-63q-26 0 -21 25l60 378h-40q-26 0 -21 25l8 48q3 21 24 21h44l4 24q14 89 66 135t140 46q39 0 75 -10.5t63 -28.5q25 24 62 36.5t82 12.5
q30 0 59.5 -6t52.5 -17zM408 531q2 13 5 25t6 23q-15 13 -38 21t-49 8q-39 0 -65.5 -23.5t-32.5 -65.5l-4 -22h173zM942 311q3 18 3 33q0 71 -72 71q-84 0 -101 -105l-19 -124q-3 -18 -3 -32q0 -72 72 -72q85 0 101 105z" />
    <glyph glyph-name="f_h.liga" unicode="fh" horiz-adv-x="810" 
d="M426 589q-17 14 -41.5 21.5t-52.5 7.5q-39 0 -65 -23.5t-32 -65.5l-5 -32h101q26 0 21 -25l-8 -48q-3 -21 -24 -21h-105l-61 -382q-3 -21 -24 -21h-63q-26 0 -21 25l60 378h-40q-26 0 -21 25l8 48q3 21 24 21h44l5 34q14 89 65.5 135t139.5 46q30 0 59.5 -6t52.5 -17
q6 11 21 11h63q26 0 21 -25l-32 -200h2q40 34 102 34q72 0 110 -37t38 -106q0 -11 -1 -22.5t-3 -24.5l-47 -298q-3 -21 -24 -21h-63q-26 0 -21 25l46 290q3 16 3 31q0 69 -70 69q-80 0 -97 -101l-47 -293q-3 -21 -24 -21h-63q-26 0 -21 25z" />
    <glyph glyph-name="f_f_h.liga" unicode="ffh" horiz-adv-x="1092" 
d="M725 689q6 11 21 11h63q26 0 21 -25l-32 -200h2q40 34 102 34q72 0 110 -37t38 -106q0 -11 -1 -22.5t-3 -24.5l-47 -298q-3 -21 -24 -21h-63q-26 0 -21 25l46 290q3 16 3 31q0 69 -70 69q-80 0 -97 -101l-47 -293q-3 -21 -24 -21h-63q-26 0 -21 25l90 564
q-17 14 -41.5 21.5t-52.5 7.5q-39 0 -65 -23.5t-32 -65.5l-5 -32h101q26 0 21 -25l-8 -48q-3 -21 -24 -21h-105l-61 -382q-3 -21 -24 -21h-63q-26 0 -21 25l60 378h-173l-61 -382q-3 -21 -24 -21h-63q-26 0 -21 25l60 378h-40q-26 0 -21 25l8 48q3 21 24 21h44l4 24
q14 89 66 135t140 46q39 0 75 -10.5t63 -28.5q25 24 62 36.5t82 12.5q30 0 59.5 -6t52.5 -17zM408 531q2 13 5 25t6 23q-15 13 -38 21t-49 8q-39 0 -65.5 -23.5t-32.5 -65.5l-4 -22h173z" />
    <glyph glyph-name="f_j.liga" unicode="fj" horiz-adv-x="532" 
d="M485 497q26 0 21 -25l-75 -479q-24 -153 -170 -153h-18q-24 0 -21 25l7 48q3 21 24 21q31 0 47.5 15t21.5 49l64 405h-171l-61 -382q-3 -21 -24 -21h-63q-26 0 -21 25l59 378h-39q-26 0 -21 25l8 48q3 21 24 21h43l6 37q14 88 64 133t141 45q38 0 69.5 -8.5t58.5 -24.5
q20 -11 7 -31l-27 -42q-13 -18 -30 -8t-36 15t-43 5q-42 0 -65 -22.5t-30 -63.5l-6 -35h256z" />
    <glyph glyph-name="f_f_j.liga" unicode="ffj" horiz-adv-x="814" 
d="M767 497q26 0 21 -25l-75 -479q-24 -153 -170 -153h-18q-24 0 -21 25l7 48q3 21 24 21q31 0 47.5 15t21.5 49l64 405h-171l-61 -382q-3 -21 -24 -21h-63q-26 0 -21 25l59 378h-172l-61 -382q-3 -21 -24 -21h-63q-26 0 -21 25l60 378h-40q-26 0 -21 25l8 48q3 21 24 21h44
l4 24q14 89 66 135t140 46q39 0 75 -10.5t63 -28.5q52 49 144 49q38 0 69.5 -8.5t58.5 -24.5q20 -11 7 -31l-27 -42q-13 -18 -30 -8t-36 15t-43 5q-42 0 -65 -22.5t-30 -63.5l-6 -35h256zM408 534q2 12 4.5 23.5t6.5 22.5q-16 12 -38.5 20t-48.5 8q-39 0 -65.5 -23.5
t-32.5 -65.5l-4 -22h172z" />
    <glyph glyph-name="f_k.liga" unicode="fk" horiz-adv-x="779" 
d="M426 589q-17 14 -41.5 21.5t-52.5 7.5q-39 0 -65 -23.5t-32 -65.5l-5 -32h101q26 0 21 -25l-8 -48q-3 -21 -24 -21h-105l-61 -382q-3 -21 -24 -21h-63q-26 0 -21 25l60 378h-40q-26 0 -21 25l8 48q3 21 24 21h44l5 34q14 89 65.5 135t139.5 46q30 0 59.5 -6t52.5 -17
q6 11 21 11h63q26 0 21 -25l-62 -387h2l173 196q12 13 28 13h80q16 0 20 -8.5t-7 -19.5l-199 -215l137 -226q8 -12 3.5 -20t-18.5 -8h-78q-18 0 -27 16l-122 218l-34 -213q-3 -21 -24 -21h-63q-26 0 -21 25z" />
    <glyph glyph-name="f_f_k.liga" unicode="ffk" horiz-adv-x="1061" 
d="M725 689q6 11 21 11h63q26 0 21 -25l-62 -387h2l173 196q12 13 28 13h80q16 0 20 -8.5t-7 -19.5l-199 -215l137 -226q8 -12 3.5 -20t-18.5 -8h-78q-18 0 -27 16l-122 218l-34 -213q-3 -21 -24 -21h-63q-26 0 -21 25l90 564q-17 14 -41.5 21.5t-52.5 7.5q-39 0 -65 -23.5
t-32 -65.5l-5 -32h101q26 0 21 -25l-8 -48q-3 -21 -24 -21h-105l-61 -382q-3 -21 -24 -21h-63q-26 0 -21 25l52 378h-165l-61 -382q-3 -21 -24 -21h-63q-26 0 -21 25l60 378h-40q-26 0 -21 25l8 48q3 21 24 21h44l4 24q14 89 66 135t140 46q39 0 75 -10.5t63 -28.5
q25 24 62 36.5t82 12.5q30 0 59.5 -6t52.5 -17zM408 531q2 13 5 25t6 23q-15 13 -38 21t-49 8q-39 0 -65.5 -23.5t-32.5 -65.5l-4 -22h173z" />
    <glyph glyph-name="f_t.liga" unicode="ft" horiz-adv-x="641" 
d="M455 155q-1 -5 -1 -9v-8q0 -56 62 -56q19 0 38 7q24 8 29 -14l10 -43q5 -22 -13 -30q-34 -14 -80 -14q-75 0 -115.5 34t-40.5 100q0 18 3 39l38 242h-170l-61 -382q-3 -21 -24 -21h-63q-26 0 -21 25l59 378h-39q-26 0 -21 25l8 48q3 21 24 21h43l6 37q14 88 63 133
t131 45q67 0 111 -23q20 -11 8 -32l-25 -44q-11 -18 -32 -8q-26 13 -58 13q-37 0 -59.5 -22.5t-29.5 -63.5l-6 -35h171l10 59q3 21 24 21h63q26 0 21 -25l-9 -55h121q26 0 21 -25l-7 -48q-3 -21 -24 -21h-126z" />
    <glyph glyph-name="f_f_t.liga" unicode="fft" horiz-adv-x="923" 
d="M912 497q26 0 21 -25l-7 -48q-3 -21 -24 -21h-126l-39 -248q-1 -5 -1 -9v-8q0 -56 62 -56q19 0 38 7q24 8 29 -14l10 -43q5 -22 -13 -30q-34 -14 -80 -14q-75 0 -115.5 34t-40.5 100q0 18 3 39l38 242h-170l-61 -382q-3 -21 -24 -21h-63q-26 0 -21 25l59 378h-172
l-61 -382q-3 -21 -24 -21h-63q-26 0 -21 25l60 378h-40q-26 0 -21 25l8 48q3 21 24 21h44l4 24q14 89 66 135t140 46q39 0 75 -10.5t62 -27.5q51 48 134 48q67 0 111 -23q20 -11 8 -32l-25 -44q-11 -18 -32 -8q-26 13 -58 13q-37 0 -59.5 -22.5t-29.5 -63.5l-6 -35h171
l10 59q3 21 24 21h63q26 0 21 -25l-9 -55h121zM408 534q2 12 4.5 23.5t6.5 22.5q-16 12 -38.5 20t-48.5 8q-39 0 -65.5 -23.5t-32.5 -65.5l-4 -22h172z" />
    <glyph glyph-name=".notdef" horiz-adv-x="600" 
d="M82 0v664h462v-664h-462zM157 623l156 -248l156 248h-312zM127 585v-506l159 253zM499 79v506l-159 -253zM313 289l-156 -248h312z" />
    <glyph glyph-name=".null" horiz-adv-x="0" 
 />
    <glyph glyph-name="nonmarkingreturn" horiz-adv-x="333" 
 />
    <glyph glyph-name="space" unicode=" " horiz-adv-x="215" 
 />
    <glyph glyph-name="exclam" unicode="!" horiz-adv-x="250" 
d="M153 213q-5 -14 -19 -14h-31q-18 0 -16 17l5 169l40 258q3 21 24 21h63q26 0 21 -25l-39 -254zM89 -12q-29 0 -46.5 18t-17.5 46q0 32 21.5 52.5t51.5 20.5q29 0 46.5 -18t17.5 -46q0 -32 -21.5 -52.5t-51.5 -20.5z" />
    <glyph glyph-name="quotedbl" unicode="&#x22;" horiz-adv-x="403" 
d="M180 434q-5 -18 -22 -18h-39q-21 0 -19 21l20 205q1 22 24 22h61q12 0 17.5 -7t2.5 -18zM360 434q-5 -18 -22 -18h-39q-21 0 -19 21l20 205q1 22 24 22h61q12 0 17.5 -7t2.5 -18z" />
    <glyph glyph-name="numbersign" unicode="#" horiz-adv-x="529" 
d="M453 263q24 0 16 -23l-16 -49q-4 -16 -22 -16h-68l-54 -159q-4 -16 -22 -16h-49q-24 0 -16 23l51 152h-93l-53 -159q-4 -16 -22 -16h-50q-24 0 -16 23l51 152h-60q-24 0 -16 23l16 49q4 16 22 16h67l40 118h-61q-24 0 -16 23l16 49q4 16 22 16h68l47 139q4 16 22 16h49
q24 0 16 -23l-44 -132h93l47 139q4 16 22 16h49q24 0 16 -23l-44 -132h61q24 0 16 -23l-16 -49q-6 -16 -23 -16h-67l-40 -118h61zM210 263h92l40 118h-93z" />
    <glyph glyph-name="dollar" unicode="$" horiz-adv-x="529" 
d="M310 360q91 -11 129.5 -45.5t38.5 -100.5q0 -91 -60.5 -146t-163.5 -60l-10 -66q-2 -12 -14 -12h-24q-14 0 -12 14l11 65q-61 5 -105 25t-73 61q-12 18 5 32l47 40q17 15 32 -3q42 -48 109 -55l25 154q-92 11 -130 46t-38 101q0 91 60.5 146t163.5 60l9 60q1 12 14 12h24
q14 0 12 -14l-10 -60q101 -7 151 -71q13 -17 -5 -32l-47 -41q-17 -14 -32 4q-30 34 -82 40zM191 429q0 -24 16.5 -38t53.5 -22l24 146q-45 -6 -69.5 -28.5t-24.5 -57.5zM364 195q0 24 -16.5 38t-53.5 22l-24 -146q44 5 69 28t25 58z" />
    <glyph glyph-name="percent" unicode="%" horiz-adv-x="641" 
d="M70 515q18 121 135 121q55 0 85.5 -28t30.5 -76q0 -6 -0.5 -12t-1.5 -13l-12 -80q-9 -60 -43 -90.5t-91 -30.5q-56 0 -87 27t-31 76q0 6 0.5 12.5t1.5 13.5zM133 431q-1 -5 -1 -8.5v-6.5q0 -40 42 -40q48 0 57 56l13 79q1 5 1 15q0 40 -42 40q-51 0 -58 -55zM353 197
q18 121 135 121q55 0 85.5 -28t30.5 -76q0 -6 -0.5 -12t-1.5 -13l-12 -80q-9 -60 -43 -90.5t-91 -30.5q-56 0 -87 27t-31 76q0 6 0.5 12.5t1.5 13.5zM416 113q-1 -5 -1 -8.5v-6.5q0 -40 42 -40q48 0 57 56l13 79q1 5 1 15q0 40 -42 40q-51 0 -58 -55zM528 612q8 12 24 12h49
q14 0 17 -7t-5 -17l-481 -588q-8 -12 -24 -12h-49q-13 0 -16.5 7t4.5 17z" />
    <glyph glyph-name="ampersand" unicode="&#x26;" horiz-adv-x="601" 
d="M415 215q16 23 31 50.5t30 59.5q9 21 30 13l53 -21q21 -9 12 -31q-23 -48 -46.5 -87.5t-48.5 -71.5l69 -99q8 -12 4 -20t-18 -8h-84q-18 0 -28 14l-23 33q-78 -59 -181 -59q-91 0 -143.5 46t-52.5 127q0 71 34.5 124.5t109.5 98.5q-29 52 -29 106q0 88 53.5 137t148.5 49
q41 0 76.5 -10.5t61.5 -30.5q17 -14 3 -32l-30 -43q-12 -18 -31 -4q-35 23 -76 23q-42 0 -68 -22t-26 -63q0 -40 33 -86zM233 84q54 0 106 44l-122 174q-45 -26 -64 -59.5t-19 -70.5q0 -39 25.5 -63.5t73.5 -24.5z" />
    <glyph glyph-name="quotesingle" unicode="'" horiz-adv-x="223" 
d="M180 434q-5 -18 -22 -18h-39q-21 0 -19 21l20 205q1 22 24 22h61q12 0 17.5 -7t2.5 -18z" />
    <glyph glyph-name="parenleft" unicode="(" horiz-adv-x="340" 
d="M180 182q0 -66 14.5 -128.5t44.5 -119.5q6 -11 2 -17.5t-15 -6.5h-60q-17 0 -24 14q-35 61 -54 130t-19 144q0 51 10.5 109t33 117.5t59 118.5t87.5 111q10 10 24 10h57q13 0 13.5 -10.5t-10.5 -24.5q-45 -58 -76 -116t-50.5 -115t-28 -111.5t-8.5 -104.5z" />
    <glyph glyph-name="parenright" unicode=")" horiz-adv-x="340" 
d="M185 664q17 0 24 -14q35 -61 54 -130t19 -144q0 -53 -10.5 -111t-33.5 -117.5t-59 -117.5t-87 -110q-10 -10 -24 -10h-57q-13 0 -16.5 7t4.5 18q47 58 80 117.5t53.5 118t29.5 114.5t9 107q0 66 -14.5 128.5t-44.5 119.5q-6 11 -2 17.5t15 6.5h60z" />
    <glyph glyph-name="asterisk" unicode="*" horiz-adv-x="484" 
d="M422 356q15 -17 -3 -30l-44 -31q-17 -13 -28 7l-70 133l-83 -134q-11 -18 -29 -6l-43 31q-18 13 -2 29l110 115l-148 30q-22 5 -14 26l18 51q7 21 27 12l140 -64l-8 153q-2 22 21 22h52q24 0 19 -23l-25 -151l140 63q21 9 27 -13l15 -50q7 -22 -16 -25l-156 -32z" />
    <glyph glyph-name="plus" unicode="+" horiz-adv-x="529" 
d="M284 57q-3 -21 -24 -21h-55q-26 0 -21 25l27 168h-168q-26 0 -21 25l9 55q3 21 24 21h172l27 171q3 21 24 21h55q26 0 21 -25l-26 -167h167q26 0 21 -25l-9 -55q-3 -21 -24 -21h-171z" />
    <glyph glyph-name="comma" unicode="," horiz-adv-x="248" 
d="M97 125q29 0 46 -18t17 -49q0 -23 -8.5 -48t-23.5 -50t-36 -48t-45 -42q-13 -11 -24 2l-19 21q-13 13 2 24q20 17 34 37t22 46q-37 14 -37 56q0 32 21 50.5t51 18.5z" />
    <glyph glyph-name="hyphen" unicode="-" horiz-adv-x="336" 
d="M50 221q-26 0 -21 25l9 59q3 21 24 21h230q26 0 21 -25l-9 -59q-3 -21 -24 -21h-230z" />
    <glyph glyph-name="period" unicode="." horiz-adv-x="248" 
d="M88 -12q-29 0 -46.5 18t-17.5 46q0 32 21.5 52.5t51.5 20.5q29 0 46.5 -18t17.5 -46q0 -32 -21.5 -52.5t-51.5 -20.5z" />
    <glyph glyph-name="slash" unicode="/" horiz-adv-x="363" 
d="M302 649q7 15 23 15h60q12 0 16 -6.5t-1 -17.5l-315 -625q-7 -15 -23 -15h-60q-12 0 -16 6.5t1 17.5z" />
    <glyph glyph-name="zero" unicode="0" horiz-adv-x="529" 
d="M74 425q17 104 76.5 157.5t162.5 53.5q95 0 147.5 -45t52.5 -128q0 -11 -1 -22t-3 -23l-35 -219q-17 -104 -76.5 -157.5t-162.5 -53.5q-95 0 -147.5 45t-52.5 129q0 11 1 22t3 23zM153 205q-3 -17 -3 -31q0 -86 90 -86q103 0 121 118l34 213q1 8 1.5 15t0.5 14
q0 88 -89 88q-104 0 -122 -118z" />
    <glyph glyph-name="one" unicode="1" horiz-adv-x="529" 
d="M359 21q-3 -21 -24 -21h-68q-26 0 -21 25l70 448l-116 -77q-20 -12 -32 7l-27 46q-11 18 8 31l201 135q13 9 30 9h50q26 0 21 -25z" />
    <glyph glyph-name="two" unicode="2" horiz-adv-x="529" 
d="M429 100q26 0 21 -25l-9 -54q-3 -21 -24 -21h-369q-26 0 -21 25l8 55q1 15 15 27l272 232q42 35 58.5 62t16.5 60q0 35 -23.5 55t-62.5 20q-37 0 -68.5 -18t-59.5 -52q-15 -20 -32 -3l-39 39q-16 16 -2 32q87 102 215 102q86 0 136 -45.5t50 -123.5q0 -30 -6.5 -55.5
t-21 -49.5t-37 -47t-53.5 -49l-199 -164v-2h235z" />
    <glyph glyph-name="three" unicode="3" horiz-adv-x="529" 
d="M407 318q73 -37 73 -128q0 -96 -65.5 -149t-182.5 -53q-72 0 -122 22t-82 64q-12 17 4 32l41 39q17 17 33 -3q25 -29 56.5 -41.5t73.5 -12.5q63 0 96.5 27.5t33.5 81.5q0 40 -30 58t-93 18h-27q-26 0 -21 25l8 50q3 21 24 21h25q76 0 109 22t33 72q0 35 -24.5 54
t-67.5 19q-38 0 -70 -15t-62 -44q-18 -18 -32 1l-35 44q-13 18 3 32q46 43 98 62.5t114 19.5q88 0 139 -43t51 -119q0 -114 -101 -154v-2z" />
    <glyph glyph-name="four" unicode="4" horiz-adv-x="529" 
d="M481 233q26 0 21 -25l-9 -54q-3 -21 -24 -21h-53l-18 -112q-3 -21 -24 -21h-68q-26 0 -21 25l17 108h-266q-26 0 -21 25l11 65q1 14 13 27l328 361q12 13 28 13h74q26 0 21 -25l-58 -366h49zM352 455l-199 -222h165l36 222h-2z" />
    <glyph glyph-name="five" unicode="5" horiz-adv-x="529" 
d="M491 624q24 0 21 -25l-9 -54q-5 -21 -25 -21h-246l-32 -143h2q45 24 106 24q39 0 72 -13.5t56 -37.5t36 -58t13 -76q0 -54 -17.5 -97t-50 -73t-79 -46t-104.5 -16q-72 0 -122 21.5t-82 63.5q-12 18 4 33l43 40q17 14 32 -4q24 -29 56 -41.5t73 -12.5q61 0 96.5 34
t35.5 88q0 44 -27 69.5t-72 25.5q-58 0 -105 -33q-13 -10 -30 -7l-41 6q-24 4 -19 27l68 306q6 20 26 20h321z" />
    <glyph glyph-name="six" unicode="6" horiz-adv-x="529" 
d="M190 365q50 44 131 44q75 0 119.5 -48.5t44.5 -131.5q0 -55 -17 -99.5t-48.5 -76t-76.5 -48.5t-100 -17q-93 0 -145.5 48t-52.5 130q0 11 1 22t3 22l33 211q17 104 80.5 159.5t164.5 55.5q56 0 99 -14.5t75 -40.5q17 -15 1 -33l-41 -45q-14 -16 -32 0q-41 33 -100 33
q-57 0 -90.5 -31.5t-42.5 -90.5l-8 -49h2zM283 309q-48 0 -80.5 -29.5t-40.5 -81.5q-1 -6 -1.5 -12t-0.5 -11q0 -41 25 -64t68 -23q54 0 85.5 34t31.5 94q0 45 -23.5 69t-63.5 24z" />
    <glyph glyph-name="seven" unicode="7" horiz-adv-x="529" 
d="M545 534q-3 -14 -11 -27l-313 -492q-11 -15 -28 -15h-81q-14 0 -18.5 8t3.5 20l324 496h-227l-14 -87q-3 -21 -24 -21h-59q-26 0 -21 25l27 162q3 21 24 21h407q24 0 21 -25z" />
    <glyph glyph-name="eight" unicode="8" horiz-adv-x="529" 
d="M409 315q73 -41 73 -128q0 -94 -65 -146.5t-179 -52.5q-104 0 -160.5 44.5t-56.5 125.5q0 63 32 106t90 65v2q-60 40 -60 116q0 44 16 79t45.5 59.5t71.5 37.5t95 13q97 0 148.5 -42t51.5 -118q0 -56 -25.5 -97t-76.5 -62v-2zM287 369q51 0 81 24t30 69q0 35 -23.5 54.5
t-68.5 19.5q-52 0 -81 -25.5t-29 -71.5q0 -33 23.5 -51.5t67.5 -18.5zM243 88q60 0 92.5 27.5t32.5 78.5q0 38 -27.5 58.5t-77.5 20.5q-60 0 -94 -27.5t-34 -77.5q0 -39 28.5 -59.5t79.5 -20.5z" />
    <glyph glyph-name="nine" unicode="9" horiz-adv-x="529" 
d="M307 636q94 0 145 -48t51 -131q0 -21 -3 -43l-34 -211q-17 -104 -80.5 -159.5t-164.5 -55.5q-55 0 -99 14.5t-75 41.5q-17 14 -2 32l36 46q14 17 32 2q23 -19 50 -27.5t57 -8.5q57 0 90 31.5t43 90.5l8 50h-2q-51 -45 -132 -45q-37 0 -67.5 12.5t-52 36t-33 56
t-11.5 73.5q0 56 17 101t48.5 76.5t77 48.5t101.5 17zM387 426q1 6 1.5 12t0.5 11q0 41 -24.5 64t-67.5 23q-57 0 -88 -34t-31 -94q0 -45 23.5 -69t63.5 -24q48 0 81 29.5t41 81.5z" />
    <glyph glyph-name="colon" unicode=":" horiz-adv-x="248" 
d="M88 -12q-29 0 -46.5 18t-17.5 46q0 32 21.5 52.5t51.5 20.5q29 0 46.5 -18t17.5 -46q0 -32 -21.5 -52.5t-51.5 -20.5zM145 346q-29 0 -46.5 18t-17.5 46q0 32 21.5 52.5t51.5 20.5q29 0 46.5 -18t17.5 -46q0 -32 -21.5 -52.5t-51.5 -20.5z" />
    <glyph glyph-name="semicolon" unicode=";" horiz-adv-x="248" 
d="M97 125q29 0 46 -18t17 -49q0 -23 -8.5 -48t-23.5 -50t-36 -48t-45 -42q-13 -11 -24 2l-19 21q-13 13 2 24q20 17 34 37t22 46q-37 14 -37 56q0 32 21 50.5t51 18.5zM145 346q-29 0 -46.5 18t-17.5 46q0 32 21.5 52.5t51.5 20.5q29 0 46.5 -18t17.5 -46
q0 -32 -21.5 -52.5t-51.5 -20.5z" />
    <glyph glyph-name="less" unicode="&#x3c;" horiz-adv-x="529" 
d="M504 509q13 5 20 -0.5t5 -19.5l-9 -62q-3 -18 -20 -25l-324 -127v-2l280 -123q19 -7 16 -28l-10 -59q-2 -12 -9.5 -16t-18.5 1l-382 176q-18 7 -15 28l8 56q1 18 19 25z" />
    <glyph glyph-name="equal" unicode="=" horiz-adv-x="529" 
d="M74 342q-26 0 -21 25l9 55q3 21 24 21h414q26 0 21 -25l-9 -55q-3 -21 -24 -21h-414zM38 115q-26 0 -21 25l8 55q3 21 24 21h415q26 0 21 -25l-9 -55q-3 -21 -24 -21h-414z" />
    <glyph glyph-name="greater" unicode="&#x3e;" horiz-adv-x="529" 
d="M484 334q18 -7 15 -28l-7 -56q-3 -18 -20 -25l-439 -176q-14 -5 -21 0t-5 19l9 63q3 18 20 25l324 127v2l-280 123q-19 7 -16 28l10 59q2 12 9.5 16t18.5 -1z" />
    <glyph glyph-name="question" unicode="?" horiz-adv-x="460" 
d="M288 676q43 0 77.5 -11.5t59 -33t37.5 -52t13 -67.5q0 -34 -7 -61t-22.5 -50t-40.5 -43t-61 -38q-25 -12 -42 -23.5t-27.5 -23t-16.5 -23.5t-8 -27q-4 -24 -25 -24h-58q-25 0 -22 25l2 11q4 26 12 47.5t23 40.5t37 36.5t53 34.5q50 28 69 52t19 58q0 33 -22 52.5
t-60 19.5q-71 0 -132 -70q-15 -19 -32 -2l-39 38q-17 15 0 34q43 49 97 74.5t116 25.5zM168 -12q-29 0 -46.5 18t-17.5 46q0 32 21.5 52.5t51.5 20.5q29 0 46.5 -17.5t17.5 -45.5q0 -32 -21 -53t-52 -21z" />
    <glyph glyph-name="at" unicode="@" horiz-adv-x="734" 
d="M438 338q3 16 3 29q0 31 -16 43t-46 12q-17 0 -33.5 -6.5t-32.5 -17.5q-18 -12 -27 6l-15 28q-9 17 7 28q27 18 55 25.5t58 7.5q65 0 99 -30.5t34 -87.5q0 -15 -3 -33l-16 -103q-1 -6 -1.5 -11.5t-0.5 -10.5q0 -40 36 -40q28 0 45.5 25t27 60t13 71.5t3.5 59.5
q0 44 -10.5 82.5t-34 67.5t-60.5 45.5t-90 16.5q-62 0 -109.5 -19t-82 -50t-57 -71t-36 -82t-19 -83.5t-5.5 -74.5q0 -109 59 -170t172 -61q51 0 93 13.5t75 34.5q19 13 27 -8l13 -33q6 -18 -9 -27q-44 -26 -95.5 -38t-108.5 -12q-74 0 -131.5 20.5t-97 59.5t-60 94.5
t-20.5 125.5q0 43 7.5 93.5t25.5 100.5t47.5 96.5t74 82.5t104 57.5t138.5 21.5q72 0 123.5 -22t84.5 -60t48.5 -89.5t15.5 -110.5q0 -41 -8 -91.5t-28 -94t-54.5 -73t-86.5 -29.5q-67 0 -86 49h-2q-20 -25 -49.5 -37t-64.5 -12q-52 0 -83 27t-31 77q0 61 36.5 94.5
t113.5 33.5h71zM372 276q-34 0 -53.5 -14.5t-19.5 -43.5q0 -41 50 -41q29 0 48 18.5t26 56.5l4 24h-55z" />
    <glyph glyph-name="A" unicode="A" horiz-adv-x="594" 
d="M532 25q5 -25 -21 -25h-75q-21 0 -24 21l-14 99h-238l-47 -103q-9 -17 -27 -17h-79q-14 0 -18.5 7.5t1.5 19.5l300 620q8 17 27 17h88q21 0 24 -21zM340 523l-134 -301h178l-42 301h-2z" />
    <glyph glyph-name="B" unicode="B" horiz-adv-x="567" 
d="M438 335q82 -34 82 -134q0 -105 -61 -153t-197 -48h-204q-26 0 -21 25l98 618q3 21 24 21h184q105 0 156.5 -37t51.5 -116q0 -136 -113 -174v-2zM303 388q67 0 96.5 24.5t29.5 76.5q0 71 -98 71h-90l-28 -172h90zM275 104q66 0 96 26t30 80q0 74 -97 74h-107l-29 -180
h107z" />
    <glyph glyph-name="C" unicode="C" horiz-adv-x="524" 
d="M266 92q77 0 125 68q14 20 32 6l49 -36q19 -13 5 -32q-42 -57 -94.5 -83.5t-124.5 -26.5q-102 0 -158 50t-56 142q0 12 1.5 25.5t3.5 27.5l33 208q36 235 266 235q72 0 122.5 -29.5t76.5 -86.5q9 -19 -11 -30l-56 -30q-19 -10 -30 11q-16 29 -42.5 45t-66.5 16
q-119 0 -143 -148l-29 -185q-4 -23 -4 -42q0 -105 101 -105z" />
    <glyph glyph-name="D" unicode="D" horiz-adv-x="592" 
d="M355 664q107 0 162.5 -45.5t55.5 -134.5q0 -13 -1.5 -27t-3.5 -28l-33 -203q-19 -116 -84 -171t-189 -55h-204q-26 0 -21 25l98 618q3 21 24 21h196zM448 423q3 19 3 37q0 100 -112 100h-98l-73 -456h98q67 0 104.5 33.5t48.5 104.5z" />
    <glyph glyph-name="E" unicode="E" horiz-adv-x="539" 
d="M450 388q26 0 21 -25l-9 -58q-3 -21 -24 -21h-241l-29 -180h282q26 0 21 -25l-10 -58q-3 -21 -24 -21h-379q-26 0 -21 25l98 618q3 21 24 21h379q26 0 21 -25l-9 -58q-3 -21 -24 -21h-285l-28 -172h237z" />
    <glyph glyph-name="F" unicode="F" horiz-adv-x="508" 
d="M439 380q26 0 21 -25l-9 -58q-3 -21 -24 -21h-231l-41 -255q-3 -21 -24 -21h-73q-26 0 -21 25l98 618q3 21 24 21h369q26 0 21 -25l-9 -58q-3 -21 -24 -21h-275l-29 -180h227z" />
    <glyph glyph-name="G" unicode="G" horiz-adv-x="571" 
d="M527 229q-38 -241 -265 -241q-105 0 -161.5 50t-56.5 142q0 12 1.5 25.5t3.5 27.5l33 208q36 235 272 235q75 0 128.5 -29.5t80.5 -86.5q9 -19 -11 -30l-57 -30q-19 -10 -30 10q-19 30 -48 46t-72 16q-123 0 -147 -148l-29 -185q-3 -23 -3 -42q0 -105 104 -105
q63 0 97.5 37.5t47.5 114.5l3 22h-99q-26 0 -21 25l9 58q3 21 24 21h193q26 0 21 -25z" />
    <glyph glyph-name="H" unicode="H" horiz-adv-x="623" 
d="M513 21q-3 -21 -24 -21h-73q-26 0 -21 25l41 259h-239l-42 -263q-3 -21 -24 -21h-73q-26 0 -21 25l98 618q3 21 24 21h73q26 0 21 -25l-40 -251h239l41 255q3 21 24 21h73q26 0 21 -25z" />
    <glyph glyph-name="I" unicode="I" horiz-adv-x="266" 
d="M155 21q-3 -21 -24 -21h-73q-26 0 -21 25l98 618q3 21 24 21h73q26 0 21 -25z" />
    <glyph glyph-name="J" unicode="J" horiz-adv-x="522" 
d="M453 217q-18 -114 -78.5 -171.5t-169.5 -57.5q-72 0 -123.5 27t-80.5 78q-9 19 9 31l52 36q18 13 32 -7q19 -29 46 -45t65 -16q108 0 131 139l66 412q3 21 24 21h73q26 0 21 -25z" />
    <glyph glyph-name="K" unicode="K" horiz-adv-x="573" 
d="M578 664q16 0 20 -8.5t-7 -19.5l-280 -301l192 -307q8 -12 3 -20t-19 -8h-90q-18 0 -27 16l-170 288l-45 -283q-3 -21 -24 -21h-73q-26 0 -21 25l98 618q3 21 24 21h73q26 0 21 -25l-41 -257h2l241 269q12 13 28 13h95z" />
    <glyph glyph-name="L" unicode="L" horiz-adv-x="502" 
d="M446 21q-3 -21 -24 -21h-364q-26 0 -21 25l98 618q3 21 24 21h73q26 0 21 -25l-85 -535h267q26 0 21 -25z" />
    <glyph glyph-name="M" unicode="M" horiz-adv-x="827" 
d="M794 664q26 0 21 -25l-98 -618q-3 -21 -24 -21h-73q-26 0 -21 25l75 474h-2l-241 -482q-9 -17 -27 -17h-60q-21 0 -25 21l-88 479h-2l-76 -479q-3 -21 -24 -21h-71q-26 0 -21 25l98 618q3 21 24 21h132q20 0 25 -21l83 -455h2l229 459q8 17 27 17h137z" />
    <glyph glyph-name="N" unicode="N" horiz-adv-x="622" 
d="M589 664q26 0 21 -25l-98 -618q-3 -21 -24 -21h-80q-20 0 -27 19l-155 452h-2l-71 -450q-3 -21 -24 -21h-71q-26 0 -21 25l98 618q3 21 24 21h90q20 0 27 -19l148 -435h2l68 433q3 21 24 21h71z" />
    <glyph glyph-name="O" unicode="O" horiz-adv-x="592" 
d="M82 441q36 235 268 235q106 0 164 -50t58 -143q0 -12 -1 -25t-3 -27l-33 -208q-38 -235 -268 -235q-107 0 -164.5 50t-57.5 143q0 12 1 25t3 27zM169 239q-3 -23 -3 -42q0 -105 106 -105q63 0 99 36.5t48 111.5l29 185q2 12 3 22.5t1 21.5q0 103 -107 103
q-63 0 -99 -36.5t-48 -111.5z" />
    <glyph glyph-name="P" unicode="P" horiz-adv-x="551" 
d="M345 664q107 0 160.5 -44t53.5 -137q0 -124 -66.5 -182.5t-208.5 -58.5h-94l-35 -221q-3 -21 -24 -21h-73q-26 0 -21 25l98 618q3 21 24 21h186zM438 473q0 45 -26 66t-80 21h-91l-34 -214h90q73 0 107 30.5t34 96.5z" />
    <glyph glyph-name="Q" unicode="Q" horiz-adv-x="592" 
d="M350 676q106 0 164 -50t58 -143q0 -12 -1 -25t-3 -27l-33 -208q-30 -189 -186 -226q-1 -4 -1 -11q0 -24 14 -36.5t39 -12.5q14 0 27 3.5t26 9.5q22 13 30 -11l16 -45q8 -20 -10 -30q-24 -14 -50.5 -20t-53.5 -6q-77 0 -116 39t-35 112q-92 8 -141 57.5t-49 134.5
q0 12 1 25t3 27l33 208q36 235 268 235zM448 425q2 12 3 22.5t1 21.5q0 103 -107 103q-63 0 -99 -36.5t-48 -111.5l-29 -185q-3 -23 -3 -42q0 -105 106 -105q63 0 99 36.5t48 111.5z" />
    <glyph glyph-name="R" unicode="R" horiz-adv-x="569" 
d="M489 27q5 -12 0 -19.5t-18 -7.5h-82q-19 0 -26 18l-88 232h-83l-37 -229q-3 -21 -24 -21h-73q-26 0 -21 25l98 618q3 21 24 21h182q106 0 159.5 -44t53.5 -134q0 -94 -40 -149.5t-125 -75.5zM434 474q0 86 -105 86h-88l-33 -206h87q72 0 105.5 29t33.5 91z" />
    <glyph glyph-name="S" unicode="S" horiz-adv-x="517" 
d="M321 676q134 0 196 -77q13 -18 -4 -32l-52 -44q-16 -14 -32 4q-41 45 -114 45q-57 0 -90 -28.5t-33 -77.5q0 -32 24.5 -50.5t91.5 -30.5q97 -17 137 -57t40 -111q0 -53 -17 -95.5t-49.5 -72t-78.5 -45.5t-103 -16q-152 0 -224 92q-13 17 5 32l51 44q16 15 32 -4
q51 -60 143 -60q55 0 88.5 29.5t33.5 77.5q0 31 -25 49t-90 30q-98 18 -138.5 58t-40.5 112q0 52 17.5 94t50 72t78.5 46t103 16z" />
    <glyph glyph-name="T" unicode="T" horiz-adv-x="503" 
d="M274 21q-3 -21 -24 -21h-73q-26 0 -21 25l85 535h-149q-26 0 -21 25l9 58q3 21 24 21h421q26 0 21 -25l-10 -58q-3 -21 -24 -21h-152z" />
    <glyph glyph-name="U" unicode="U" horiz-adv-x="588" 
d="M519 217q-36 -229 -254 -229q-101 0 -155.5 48t-54.5 137q0 12 1 24.5t3 26.5l66 419q3 21 24 21h73q26 0 21 -25l-64 -409q-3 -23 -3 -41q0 -97 96 -97q57 0 89 34t43 104l66 413q3 21 24 21h71q26 0 21 -25z" />
    <glyph glyph-name="V" unicode="V" horiz-adv-x="575" 
d="M594 664q14 0 18.5 -7.5t-1.5 -19.5l-291 -620q-7 -17 -27 -17h-87q-21 0 -24 21l-95 618q-5 25 21 25h75q21 0 24 -21l66 -473h2l215 477q8 17 27 17h77z" />
    <glyph glyph-name="W" unicode="W" horiz-adv-x="856" 
d="M874 664q13 0 18 -7.5t0 -19.5l-258 -619q-8 -18 -26 -18h-88q-23 0 -24 22l-38 411h-2l-171 -415q-8 -18 -26 -18h-87q-23 0 -24 22l-62 618q-2 24 22 24h79q22 0 24 -22l31 -451h2l189 455q7 18 26 18h61q23 0 24 -22l43 -451h2l181 455q7 18 26 18h78z" />
    <glyph glyph-name="X" unicode="X" horiz-adv-x="579" 
d="M507 27q5 -12 0 -19.5t-18 -7.5h-84q-19 0 -26 18l-88 232l-164 -235q-10 -15 -28 -15h-86q-14 0 -18.5 8t4.5 20l231 315l-124 294q-5 12 0 19.5t18 7.5h85q18 0 26 -18l80 -212l150 215q10 15 28 15h88q14 0 18 -8.5t-4 -19.5l-218 -297z" />
    <glyph glyph-name="Y" unicode="Y" horiz-adv-x="543" 
d="M293 21q-3 -21 -24 -21h-73q-26 0 -21 25l42 264l-144 348q-5 12 0 19.5t18 7.5h85q18 0 26 -18l91 -244l170 247q10 15 28 15h88q15 0 19 -8t-4 -20l-260 -359z" />
    <glyph glyph-name="Z" unicode="Z" horiz-adv-x="528" 
d="M441 104q26 0 21 -25l-9 -58q-3 -21 -24 -21h-406q-26 0 -21 25l11 69q2 9 4.5 14.5t7.5 12.5l363 439h-261q-26 0 -21 25l9 58q3 21 24 21h386q26 0 21 -25l-11 -69q-2 -9 -4.5 -14.5t-7.5 -12.5l-364 -439h282z" />
    <glyph glyph-name="bracketleft" unicode="[" horiz-adv-x="340" 
d="M236 -3q22 0 19 -21l-7 -48q-3 -18 -22 -18h-176q-22 0 -19 21l113 715q3 18 22 18h176q22 0 19 -22l-8 -47q-3 -18 -21 -18h-90l-91 -580h85z" />
    <glyph glyph-name="backslash" unicode="\" horiz-adv-x="363" 
d="M161 664q18 0 21 -18l120 -624q5 -22 -18 -22h-58q-18 0 -21 18l-119 624q-5 22 18 22h57z" />
    <glyph glyph-name="bracketright" unicode="]" horiz-adv-x="340" 
d="M207 -72q-3 -18 -22 -18h-176q-22 0 -19 22l8 47q3 18 21 18h90l91 580h-85q-22 0 -19 21l7 48q3 18 22 18h176q22 0 19 -21z" />
    <glyph glyph-name="asciicircum" unicode="^" horiz-adv-x="529" 
d="M139 272q-10 -14 -28 -14h-70q-14 0 -18 8.5t4 19.5l238 324q10 14 28 14h57q18 0 26 -18l135 -321q5 -12 0 -19.5t-18 -7.5h-62q-19 0 -26 18l-95 232z" />
    <glyph glyph-name="underscore" unicode="_" horiz-adv-x="500" 
d="M-48 -48h500l-10 -64h-500z" />
    <glyph glyph-name="grave" unicode="`" horiz-adv-x="500" 
d="M279 566q-16 0 -24 14l-64 119q-6 11 -2 17.5t16 6.5h69q16 0 24 -15l51 -119q10 -23 -15 -23h-55z" />
    <glyph glyph-name="a" unicode="a" horiz-adv-x="460" 
d="M247 509q87 0 134 -40t47 -117q0 -20 -3 -41l-22 -137q-14 -92 -67.5 -139t-149.5 -47q-83 0 -126.5 37.5t-43.5 106.5q0 81 50 123.5t151 42.5h97q2 14 3 22t1 16q0 42 -21.5 60.5t-64.5 18.5q-24 0 -47.5 -9t-43.5 -23q-20 -15 -32 6l-22 42q-11 19 9 33q37 24 73 34.5
t78 10.5zM194 82q86 0 102 105l5 30h-78q-47 0 -72 -19.5t-25 -57.5q0 -29 18 -43.5t50 -14.5z" />
    <glyph glyph-name="b" unicode="b" horiz-adv-x="489" 
d="M303 509q76 0 116 -38.5t40 -110.5q0 -11 -1 -22t-3 -23l-23 -141q-14 -92 -67 -139t-146 -47q-86 0 -132 40t-46 114q0 19 3 40l80 497q3 21 24 21h63q26 0 21 -25l-32 -200h2q38 34 101 34zM344 311q3 18 3 33q0 71 -72 71q-84 0 -101 -105l-19 -124q-3 -18 -3 -32
q0 -72 72 -72q85 0 101 105z" />
    <glyph glyph-name="c" unicode="c" horiz-adv-x="401" 
d="M351 66q11 -19 -5 -32q-58 -46 -135 -46q-85 0 -133 40.5t-48 117.5q0 11 1 22t3 22l20 126q31 193 214 193q43 0 76 -11t56 -30q8 -7 8 -15.5t-7 -16.5l-33 -39q-13 -16 -32 -2q-26 20 -65 20q-46 0 -73 -26.5t-37 -85.5l-17 -109q-3 -18 -3 -33q0 -42 20.5 -60.5
t61.5 -18.5q20 0 37.5 7.5t34.5 20.5q20 14 32 -5z" />
    <glyph glyph-name="d" unicode="d" horiz-adv-x="489" 
d="M479 700q26 0 21 -25l-79 -501q-14 -92 -67.5 -139t-145.5 -47q-86 0 -132.5 40t-46.5 113q0 10 1 20t3 21l22 141q30 186 198 186q70 0 102 -44h2l35 214q3 21 24 21h63zM333 311q2 8 2 15v14q0 75 -71 75q-87 0 -103 -105l-19 -124q-3 -17 -3 -31q0 -73 73 -73
q85 0 101 105z" />
    <glyph glyph-name="e" unicode="e" horiz-adv-x="460" 
d="M264 509q85 0 130 -40t45 -114q0 -19 -3 -40l-13 -80q-3 -21 -24 -21h-252l-3 -20q-3 -18 -3 -34q0 -42 22 -60t67 -18q49 0 90 35q20 15 33 -4l25 -40q11 -19 -5 -32q-67 -53 -151 -53q-93 0 -142.5 40t-49.5 118q0 21 4 44l21 133q30 186 209 186zM262 415
q-44 0 -68 -25.5t-33 -79.5l-2 -14h170l2 15q3 18 3 33q0 71 -72 71z" />
    <glyph glyph-name="f" unicode="f" horiz-adv-x="339" 
d="M321 618q-35 0 -57 -22t-29 -64l-6 -35h119q26 0 21 -25l-7 -48q-3 -21 -24 -21h-123l-61 -382q-3 -21 -24 -21h-63q-26 0 -21 25l59 378h-39q-26 0 -21 25l8 48q3 21 24 21h43l6 37q29 178 191 178q29 0 55.5 -4.5t47.5 -14.5q10 -5 12 -13t-3 -18l-26 -45
q-10 -18 -29 -9q-21 10 -53 10z" />
    <glyph glyph-name="g" unicode="g" horiz-adv-x="489" 
d="M268 509q86 0 132.5 -40t46.5 -113q0 -10 -1 -20t-3 -21l-49 -308q-14 -86 -68 -132.5t-145 -46.5q-51 0 -92.5 13.5t-70.5 39.5q-17 14 -2 32l31 41q15 18 32 2q22 -18 47 -26t54 -8q92 0 106 93l4 24h-2q-36 -32 -97 -32q-76 0 -117.5 38.5t-41.5 110.5q0 11 1 22t3 23
l19 122q15 92 67.5 139t145.5 47zM333 311q3 16 3 31q0 73 -73 73q-44 0 -68 -25.5t-32 -79.5l-17 -105q-3 -17 -3 -31q0 -73 73 -73q85 0 100 105z" />
    <glyph glyph-name="h" unicode="h" horiz-adv-x="498" 
d="M308 509q72 0 110 -37t38 -106q0 -11 -1 -22.5t-3 -24.5l-47 -298q-3 -21 -24 -21h-63q-26 0 -21 25l46 290q3 16 3 31q0 69 -70 69q-80 0 -97 -101l-47 -293q-3 -21 -24 -21h-63q-26 0 -21 25l104 654q3 21 24 21h63q26 0 21 -25l-32 -200h2q40 34 102 34z" />
    <glyph glyph-name="i" unicode="i" horiz-adv-x="230" 
d="M173 580q-27 0 -43.5 16.5t-16.5 42.5q0 31 19.5 50.5t48.5 19.5q28 0 44.5 -16.5t16.5 -43.5q0 -31 -20 -50t-49 -19zM45 0q-26 0 -21 25l72 451q3 21 24 21h63q26 0 21 -25l-72 -451q-3 -21 -24 -21h-63z" />
    <glyph glyph-name="j" unicode="j" horiz-adv-x="230" 
d="M173 580q-27 0 -43.5 16.5t-16.5 42.5q0 31 19.5 50.5t48.5 19.5q28 0 44.5 -16.5t16.5 -43.5q0 -31 -20 -50t-49 -19zM-49 -66q31 0 47.5 15t21.5 49l76 478q3 21 24 21h63q26 0 21 -25l-75 -479q-24 -153 -170 -153h-18q-24 0 -21 25l7 48q3 21 24 21z" />
    <glyph glyph-name="k" unicode="k" horiz-adv-x="467" 
d="M457 497q16 0 20 -8.5t-7 -19.5l-199 -215l137 -226q8 -12 3.5 -20t-18.5 -8h-78q-18 0 -27 16l-122 218l-34 -213q-3 -21 -24 -21h-63q-26 0 -21 25l104 654q3 21 24 21h63q26 0 21 -25l-62 -387h2l173 196q12 13 28 13h80z" />
    <glyph glyph-name="l" unicode="l" horiz-adv-x="230" 
d="M45 0q-26 0 -21 25l104 654q3 21 24 21h63q26 0 21 -25l-104 -654q-3 -21 -24 -21h-63z" />
    <glyph glyph-name="m" unicode="m" horiz-adv-x="749" 
d="M542 509q79 0 122 -38.5t43 -109.5q0 -10 -1 -21t-3 -22l-47 -297q-3 -21 -24 -21h-63q-26 0 -21 25l46 291q3 16 3 31q0 68 -67 68q-39 0 -61 -24t-30 -75l-47 -295q-3 -21 -24 -21h-63q-26 0 -21 25l46 291q3 16 3 31q0 68 -67 68q-39 0 -61 -24t-30 -75l-47 -295
q-3 -21 -24 -21h-63q-26 0 -21 25l47 301q29 183 197 183q48 0 81.5 -15t53.5 -43h2q49 58 141 58z" />
    <glyph glyph-name="n" unicode="n" horiz-adv-x="493" 
d="M337 313q3 18 3 32q0 70 -69 70q-81 0 -97 -102l-46 -292q-3 -21 -24 -21h-63q-26 0 -21 25l47 301q28 183 209 183q84 0 129.5 -38.5t45.5 -110.5q0 -10 -1 -20t-3 -21l-47 -298q-3 -21 -24 -21h-63q-26 0 -21 25z" />
    <glyph glyph-name="o" unicode="o" horiz-adv-x="477" 
d="M268 509q86 0 132 -40t46 -114q0 -19 -3 -40l-22 -141q-30 -186 -213 -186q-86 0 -132.5 39.5t-46.5 113.5q0 18 4 41l22 141q30 186 213 186zM212 82q86 0 102 105l19 124q3 16 3 31q0 73 -73 73q-85 0 -101 -105l-19 -124q-3 -17 -3 -31q0 -73 72 -73z" />
    <glyph glyph-name="p" unicode="p" horiz-adv-x="489" 
d="M280 509q86 0 132 -40t46 -114q0 -19 -3 -40l-23 -141q-29 -186 -197 -186q-70 0 -102 44h-2l-28 -171q-3 -21 -24 -21h-63q-26 0 -21 25l72 458q14 92 67 139t146 47zM345 311q3 16 3 31q0 73 -73 73q-85 0 -101 -105l-19 -124q-3 -17 -3 -30q0 -74 73 -74q44 0 68 25.5
t32 79.5z" />
    <glyph glyph-name="q" unicode="q" horiz-adv-x="489" 
d="M268 509q86 0 132.5 -40t46.5 -113q0 -10 -1 -20t-3 -21l-72 -454q-3 -21 -24 -21h-63q-26 0 -21 25l25 157h-2q-40 -34 -102 -34q-75 0 -115 38t-40 109q0 24 4 47l22 141q15 92 67.5 139t145.5 47zM333 311q3 16 3 31q0 73 -73 73q-85 0 -101 -105l-20 -124
q-3 -17 -3 -30q0 -74 74 -74q85 0 100 105z" />
    <glyph glyph-name="r" unicode="r" horiz-adv-x="367" 
d="M67 325q15 93 62 138.5t131 45.5q35 0 64 -8t51 -22q18 -12 6 -32l-26 -42q-12 -18 -32 -6q-26 16 -57 16q-75 0 -90 -91l-48 -303q-3 -21 -24 -21h-63q-26 0 -21 25z" />
    <glyph glyph-name="s" unicode="s" horiz-adv-x="415" 
d="M179 -12q-58 0 -100 13t-74 41q-16 14 -1 32l34 41q14 17 32 2q20 -17 48 -26.5t60 -9.5q92 0 92 66q0 22 -18 34.5t-67 21.5q-76 14 -107.5 44t-31.5 87q0 81 55.5 128t150.5 47q43 0 79.5 -10t62.5 -28q18 -13 3 -33l-31 -40q-13 -17 -32 -4q-36 22 -82 22
q-47 0 -71.5 -16.5t-24.5 -48.5q0 -20 17.5 -31.5t63.5 -19.5q78 -14 110.5 -45t32.5 -91q0 -41 -14 -73.5t-40.5 -55t-63.5 -35t-83 -12.5z" />
    <glyph glyph-name="t" unicode="t" horiz-adv-x="359" 
d="M175 155q-1 -5 -1 -9v-8q0 -56 62 -56q19 0 38 7q24 8 29 -14l10 -43q5 -22 -13 -30q-34 -14 -80 -14q-75 0 -115.5 34t-40.5 100q0 18 3 39l38 242h-39q-26 0 -21 25l8 48q3 21 24 21h43l18 109q3 21 24 21h63q26 0 21 -25l-17 -105h119q26 0 21 -25l-7 -48
q-3 -21 -24 -21h-124z" />
    <glyph glyph-name="u" unicode="u" horiz-adv-x="487" 
d="M418 168q-29 -180 -206 -180q-83 0 -127.5 38.5t-44.5 110.5q0 18 3 39l48 300q3 21 24 21h63q26 0 21 -25l-47 -296q-2 -8 -2 -15v-13q0 -35 17 -50.5t52 -15.5q43 0 65 24t30 74l47 296q3 21 24 21h60q26 0 21 -25z" />
    <glyph glyph-name="v" unicode="v" horiz-adv-x="462" 
d="M461 497q14 0 18.5 -7.5t-1.5 -19.5l-219 -453q-7 -17 -27 -17h-79q-21 0 -24 21l-76 451q-5 25 21 25h66q22 0 25 -21l45 -341h2l156 345q8 17 27 17h66z" />
    <glyph glyph-name="w" unicode="w" horiz-adv-x="701" 
d="M699 497q13 0 17.5 -7.5t-0.5 -19.5l-199 -453q-7 -17 -27 -17h-70q-22 0 -25 22l-34 289h-2l-127 -293q-8 -18 -27 -18h-70q-22 0 -25 22l-56 451q-3 24 22 24h64q23 0 24 -22l30 -319h2l140 324q7 17 27 17h49q22 0 25 -22l36 -316h2l133 320q7 18 26 18h65z" />
    <glyph glyph-name="x" unicode="x" horiz-adv-x="473" 
d="M405 27q5 -12 0.5 -19.5t-17.5 -7.5h-72q-19 0 -26 18l-64 163l-117 -167q-10 -14 -28 -14h-73q-14 0 -18 8.5t4 19.5l176 232l-93 210q-5 12 -0.5 19.5t17.5 7.5h73q18 0 26 -18l56 -144l103 147q10 15 28 15h73q14 0 18 -8.5t-4 -19.5l-163 -214z" />
    <glyph glyph-name="y" unicode="y" horiz-adv-x="498" 
d="M451 497q26 0 21 -25l-73 -465q-14 -86 -68.5 -132.5t-144.5 -46.5q-51 0 -93 13.5t-71 39.5q-17 14 -2 32l31 41q15 18 32 2q22 -18 47 -26t54 -8q92 0 107 93l4 26h-2q-38 -35 -102 -35q-72 0 -110 37.5t-38 107.5q0 11 1 22.5t3 23.5l44 279q3 21 24 21h63
q26 0 21 -25l-43 -272q-3 -17 -3 -30q0 -70 71 -70q79 0 96 101l44 275q3 21 24 21h63z" />
    <glyph glyph-name="z" unicode="z" horiz-adv-x="433" 
d="M348 94q26 0 21 -25l-8 -48q-3 -21 -24 -21h-318q-24 0 -21 25l9 59q2 8 4.5 14t8.5 13l262 292h-184q-26 0 -21 25l8 48q3 21 24 21h298q24 0 21 -25l-9 -59q-2 -8 -4.5 -14t-8.5 -13l-262 -292h204z" />
    <glyph glyph-name="braceleft" unicode="{" horiz-adv-x="350" 
d="M352 664q22 0 19 -21l-8 -48q-3 -18 -23 -18q-38 0 -56 -19t-26 -65l-14 -86q-8 -51 -32 -80.5t-68 -40.5v-2q65 -16 65 -86v-14.5t-2 -15.5l-14 -86q-3 -17 -3 -30q0 -30 14 -42.5t43 -12.5q21 0 18 -21l-7 -48q-3 -18 -22 -18h-21q-137 0 -137 113q0 18 3 39l14 95
q3 18 3 33q0 29 -11.5 41t-30.5 12q-20 0 -17 21l7 49q3 18 21 18q28 0 45 19t25 67l15 95q13 82 54.5 117t128.5 35h17z" />
    <glyph glyph-name="bar" unicode="|" horiz-adv-x="265" 
d="M44 -160q-22 0 -19 21l130 821q3 18 22 18h50q22 0 19 -21l-130 -821q-3 -18 -22 -18h-50z" />
    <glyph glyph-name="braceright" unicode="}" horiz-adv-x="350" 
d="M305 331q20 0 17 -21l-7 -49q-3 -18 -21 -18q-28 0 -45 -19t-25 -67l-15 -95q-6 -41 -19.5 -70t-35 -47t-53.5 -26.5t-75 -8.5h-17q-22 0 -19 21l8 48q3 18 23 18q38 0 56 19t26 65l14 86q8 51 32 80.5t68 40.5v2q-65 16 -65 86v14.5t2 15.5l14 86q3 16 3 30
q0 30 -14 42.5t-43 12.5q-21 0 -18 21l7 48q3 18 22 18h21q137 0 137 -113q0 -18 -3 -39l-14 -95q-3 -18 -3 -33q0 -29 11.5 -41t30.5 -12z" />
    <glyph glyph-name="asciitilde" unicode="~" horiz-adv-x="529" 
d="M178 261q-26 0 -45 -15t-39 -42q-14 -19 -33 -6l-40 28q-21 13 -6 32q38 56 77 80.5t86 24.5q31 0 57 -9t58 -31q23 -16 37 -21.5t29 -5.5q26 0 45.5 14.5t39.5 42.5q14 18 32 6l41 -28q20 -13 6 -32q-39 -56 -78 -80.5t-86 -24.5q-30 0 -56 9t-58 31q-23 16 -37 21.5
t-30 5.5z" />
    <glyph glyph-name="uni00A0" unicode="&#xa0;" horiz-adv-x="215" 
 />
    <glyph glyph-name="exclamdown" unicode="&#xa1;" horiz-adv-x="250" 
d="M186 676q29 0 46 -17.5t17 -45.5q0 -32 -21 -53t-52 -21q-29 0 -46.5 18t-17.5 46q0 32 21.5 52.5t52.5 20.5zM122 451q5 14 19 14h31q18 0 16 -17l-5 -169l-41 -258q-3 -21 -24 -21h-63q-26 0 -21 25l39 254z" />
    <glyph glyph-name="cent" unicode="&#xa2;" horiz-adv-x="529" 
d="M437 89q11 -19 -5 -32q-28 -21 -59.5 -33.5t-72.5 -14.5l-10 -67q-2 -12 -14 -12h-24q-14 0 -12 14l10 65q-81 6 -125 47.5t-44 116.5q0 11 1 22.5t3 23.5l16 104q31 200 231 201l9 60q1 12 14 12h24q14 0 12 -14l-10 -61q65 -9 101 -40q8 -7 8 -15.5t-7 -16.5l-33 -40
q-13 -16 -32 -2q-11 8 -23.5 12t-28.5 6l-50 -317q37 6 63 29q19 18 32 -5zM198 222q-3 -18 -3 -32q0 -72 71 -82l50 317q-45 -5 -71 -33t-34 -83z" />
    <glyph glyph-name="sterling" unicode="&#xa3;" horiz-adv-x="529" 
d="M528 561q13 -17 -5 -32l-45 -38q-17 -14 -30 4q-19 22 -46.5 31.5t-60.5 9.5q-52 0 -82.5 -30.5t-30.5 -84.5q0 -15 1.5 -28.5t8.5 -36.5q2 -5 3 -10t3 -12h158q21 0 18 -22l-7 -44q-3 -18 -22 -18h-141q-5 -51 -22 -84.5t-48 -63.5v-2h246q26 0 21 -25l-9 -54
q-3 -21 -24 -21h-351q-26 0 -21 25l9 55q3 16 14 27q21 18 35.5 33.5t24 32t15 35t7.5 42.5h-64q-21 0 -18 22l7 44q3 18 22 18h41l-6 18q-8 24 -11.5 41t-3.5 36q0 48 16 86t45.5 65t71.5 41.5t94 14.5q62 0 110 -19t77 -56z" />
    <glyph glyph-name="currency" unicode="&#xa4;" horiz-adv-x="529" 
d="M455 322q0 -64 -36 -114l46 -50q15 -15 -2 -28l-42 -38q-16 -14 -28 1l-47 55q-41 -19 -85 -19q-57 0 -99 28l-72 -66q-13 -13 -28 2l-35 38q-14 16 1 28l77 68q-12 30 -12 67q0 66 36 116l-47 51q-15 15 2 28l42 38q16 14 28 -1l47 -54q38 20 85 20q29 0 54 -7.5
t46 -21.5l71 65q13 13 28 -2l35 -38q14 -16 -1 -28l-77 -67q13 -30 13 -71zM179 299q0 -38 24 -61.5t63 -23.5q22 0 41 8t33 22.5t22 33.5t8 42q0 38 -24 62t-63 24q-45 0 -74.5 -30.5t-29.5 -76.5z" />
    <glyph glyph-name="yen" unicode="&#xa5;" horiz-adv-x="529" 
d="M465 323q20 0 17 -19l-6 -41q-3 -17 -20 -17h-136l-10 -63h133q19 0 16 -19l-6 -41q-2 -17 -19 -17h-136l-14 -85q-3 -21 -24 -21h-68q-26 0 -21 25l13 81h-134q-19 0 -16 19l6 41q2 17 19 17h137l10 63h-133q-20 0 -17 19l6 41q3 17 20 17h134l-127 274q-6 12 -1.5 19.5
t18.5 7.5h77q18 0 26 -18l79 -191l141 195q10 14 28 14h80q15 0 19 -8.5t-5 -19.5l-211 -273h125z" />
    <glyph glyph-name="brokenbar" unicode="&#xa6;" horiz-adv-x="265" 
d="M124 350q-22 0 -19 22l50 310q3 18 22 18h50q22 0 19 -22l-50 -310q-3 -18 -22 -18h-50zM44 -160q-22 0 -19 21l49 311q3 18 22 18h50q22 0 19 -21l-49 -311q-3 -18 -22 -18h-50z" />
    <glyph glyph-name="section" unicode="&#xa7;" horiz-adv-x="549" 
d="M523 643q13 -18 -4 -32l-40 -35q-16 -14 -34 4q-37 38 -115 38q-53 0 -87.5 -26t-34.5 -66q0 -14 5.5 -24.5t19.5 -18.5t37.5 -14.5t58.5 -11.5q100 -14 141.5 -48.5t41.5 -95.5t-28.5 -105.5t-84.5 -69.5v-2q25 -14 40 -38t15 -63q0 -48 -16.5 -86t-47.5 -65
t-74.5 -41.5t-97.5 -14.5q-148 0 -213 82q-13 18 4 32l41 35q17 14 33 -4q24 -27 59 -39.5t82 -12.5q57 0 89.5 25.5t32.5 66.5q0 27 -25.5 43t-95.5 26q-51 7 -86 19t-56.5 30t-31.5 41.5t-10 54.5q0 58 27 103t79 72v2q-22 14 -34.5 38t-12.5 62q0 48 16.5 86.5t47.5 65.5
t74.5 41.5t97.5 14.5q131 0 187 -69zM258 366q-48 -10 -78 -40t-30 -71q0 -33 28.5 -52t104.5 -31q54 8 87.5 39t33.5 74q0 34 -31.5 52.5t-114.5 28.5z" />
    <glyph glyph-name="dieresis" unicode="&#xa8;" horiz-adv-x="500" 
d="M221 584q-26 0 -41 15.5t-15 39.5q0 29 17 47.5t46 18.5q26 0 41.5 -15.5t15.5 -40.5q0 -28 -18.5 -46.5t-45.5 -18.5zM396 584q-26 0 -41.5 16t-15.5 41q0 28 18.5 46t45.5 18q26 0 41.5 -15.5t15.5 -40.5q0 -28 -18.5 -46.5t-45.5 -18.5z" />
    <glyph glyph-name="copyright" unicode="&#xa9;" horiz-adv-x="760" 
d="M432 676q68 0 124.5 -22.5t97 -62.5t63 -95.5t22.5 -120.5q0 -80 -30.5 -150t-83 -123t-123 -83.5t-149.5 -30.5q-68 0 -124.5 22.5t-97 62.5t-63 95.5t-22.5 120.5q0 79 30.5 149.5t83 123.5t123 83.5t149.5 30.5zM358 51q63 0 119.5 25.5t98.5 69t67 102t25 123.5
q0 53 -17.5 97.5t-49 76.5t-76 50t-98.5 18q-63 0 -119.5 -25.5t-98.5 -69t-67 -102t-25 -123.5q0 -53 17.5 -97.5t49 -76.5t76 -50t98.5 -18zM327 280q-1 -6 -1.5 -11.5t-0.5 -10.5q0 -51 49 -51q36 0 63 32q13 14 25 3l23 -19q14 -12 2 -25q-44 -57 -118 -57
q-58 0 -89.5 28t-31.5 79v13.5t2 14.5l19 116q21 131 149 131q79 0 109 -59q7 -16 -8 -24l-29 -17q-15 -8 -25 7q-18 27 -52 27q-59 0 -70 -74z" />
    <glyph glyph-name="ordfeminine" unicode="&#xaa;" horiz-adv-x="355" 
d="M217 636q68 0 105.5 -31.5t37.5 -91.5q0 -17 -3 -35l-15 -100q-23 -144 -167 -144q-65 0 -100 29t-35 83q0 63 37 96t117 33h69q3 18 3 25q0 55 -63 55q-34 0 -64 -21q-18 -12 -27 6l-18 35q-9 17 8 29q28 17 55.5 24.5t59.5 7.5zM180 315q30 0 46.5 17.5t22.5 55.5l3 18
h-51q-32 0 -49 -13t-17 -39q0 -39 45 -39z" />
    <glyph glyph-name="guillemotleft" unicode="&#xab;" horiz-adv-x="464" 
d="M198 80q5 -11 0.5 -17.5t-15.5 -6.5h-55q-16 0 -23 15l-80 163q-7 15 3 28l131 167q9 12 24 12h60q13 0 16.5 -7t-4.5 -17l-133 -174zM396 80q5 -11 0.5 -17.5t-15.5 -6.5h-55q-16 0 -23 15l-80 163q-7 15 3 28l131 167q9 12 24 12h60q13 0 16.5 -7t-4.5 -17l-133 -174z
" />
    <glyph glyph-name="logicalnot" unicode="&#xac;" horiz-adv-x="529" 
d="M485 113q-3 -21 -24 -21h-55q-26 0 -21 25l27 167h-360q-26 0 -21 25l9 55q3 21 24 21h440q26 0 21 -25z" />
    <glyph glyph-name="uni00AD" unicode="&#xad;" horiz-adv-x="336" 
d="M50 221q-26 0 -21 25l9 59q3 21 24 21h230q26 0 21 -25l-9 -59q-3 -21 -24 -21h-230z" />
    <glyph glyph-name="registered" unicode="&#xae;" horiz-adv-x="760" 
d="M424 516q58 0 89 -24t31 -72q0 -51 -24 -84.5t-69 -45.5l53 -121q8 -21 -14 -21h-48q-15 0 -20 14l-44 121h-36l-19 -119q-3 -16 -20 -16h-38q-20 0 -17 19l53 333q3 16 20 16h103zM467 408q0 42 -52 42h-47l-16 -101h47q32 0 50 16t18 43zM432 676q68 0 124.5 -22.5
t97 -62.5t63 -95.5t22.5 -120.5q0 -80 -30.5 -150t-83 -123t-123 -83.5t-149.5 -30.5q-68 0 -124.5 22.5t-97 62.5t-63 95.5t-22.5 120.5q0 79 30.5 149.5t83 123.5t123 83.5t149.5 30.5zM358 51q63 0 119.5 25.5t98.5 69t67 102t25 123.5q0 53 -17.5 97.5t-49 76.5t-76 50
t-98.5 18q-63 0 -119.5 -25.5t-98.5 -69t-67 -102t-25 -123.5q0 -53 17.5 -97.5t49 -76.5t76 -50t98.5 -18z" />
    <glyph glyph-name="macron" unicode="&#xaf;" horiz-adv-x="500" 
d="M444 608q-3 -18 -22 -18h-233q-22 0 -19 21l8 49q3 18 21 18h234q22 0 19 -21z" />
    <glyph glyph-name="degree" unicode="&#xb0;" horiz-adv-x="362" 
d="M204 325q-65 0 -103.5 39.5t-38.5 101.5q0 36 13 67.5t36 54t53.5 35.5t65.5 13q32 0 58 -10.5t45 -29.5t29 -44.5t10 -56.5q0 -36 -13 -67t-36 -54t-53.5 -36t-65.5 -13zM208 404q33 0 57.5 25t24.5 61q0 30 -17.5 48.5t-46.5 18.5q-34 0 -58.5 -25t-24.5 -62
q0 -29 18 -47.5t47 -18.5z" />
    <glyph glyph-name="plusminus" unicode="&#xb1;" horiz-adv-x="529" 
d="M452 101q26 0 21 -25l-9 -55q-3 -21 -24 -21h-427q-26 0 -21 25l9 55q3 21 24 21h165l27 172h-161q-24 0 -21 25l9 55q4 21 25 21h164l23 144q3 21 24 21h56q26 0 21 -25l-23 -140h162q26 0 21 -25l-9 -55q-3 -21 -24 -21h-166l-27 -172h161z" />
    <glyph glyph-name="uni00B2" unicode="&#xb2;" 
d="M302 434q22 0 19 -21l-5 -31q-3 -18 -21 -18h-213q-21 0 -18 22l5 31q3 14 13 23l159 139q22 20 30.5 34.5t8.5 30.5q0 20 -12 31t-33 11q-18 0 -35 -10t-32 -27q-14 -15 -28 -1l-22 23q-13 13 -1 29q26 29 58.5 42.5t67.5 13.5q54 0 85 -29t31 -80q0 -35 -15.5 -61.5
t-56.5 -59.5l-110 -90v-2h125z" />
    <glyph glyph-name="uni00B3" unicode="&#xb3;" 
d="M293 558q45 -23 45 -80q0 -58 -38.5 -90t-108.5 -32q-43 0 -73 13t-50 37q-12 14 2 28l22 21q8 8 14 7t14 -9q26 -27 71 -27q32 0 50 15.5t18 41.5q0 23 -15.5 33.5t-51.5 10.5h-7q-22 0 -19 21l4 28q3 18 22 18h6q80 0 80 52q0 40 -49 40q-19 0 -36 -9t-32 -23
q-16 -14 -28 2l-20 26q-13 16 2 28q28 24 59 35t64 11q55 0 87 -27.5t32 -75.5q0 -72 -64 -93v-2z" />
    <glyph glyph-name="acute" unicode="&#xb4;" horiz-adv-x="500" 
d="M353 577q-10 -11 -25 -11h-62q-13 0 -17 7t4 17l91 121q9 12 24 12h77q13 0 16.5 -7t-5.5 -18z" />
    <glyph glyph-name="uni00B5" unicode="&#xb5;" horiz-adv-x="498" 
d="M455 497q26 0 21 -25l-47 -301q-29 -183 -189 -183q-71 0 -103 44h-2l-28 -171q-3 -21 -24 -21h-63q-26 0 -21 25l97 611q3 21 24 21h63q26 0 21 -25l-46 -290q-3 -15 -3 -29q0 -71 70 -71q80 0 96 101l47 293q3 21 24 21h63z" />
    <glyph glyph-name="paragraph" unicode="&#xb6;" horiz-adv-x="575" 
d="M443 -142q-3 -18 -22 -18h-46q-22 0 -19 21l119 749h-96l-119 -752q-3 -18 -22 -18h-46q-22 0 -19 21l66 418q-91 6 -136.5 47t-45.5 122q0 127 67 189.5t209 62.5h221q22 0 19 -21z" />
    <glyph glyph-name="periodcentered" unicode="&#xb7;" horiz-adv-x="248" 
d="M128 243q-29 0 -46.5 18t-17.5 46q0 32 21.5 52.5t51.5 20.5q29 0 46.5 -18t17.5 -46q0 -32 -21.5 -52.5t-51.5 -20.5z" />
    <glyph glyph-name="cedilla" unicode="&#xb8;" horiz-adv-x="500" 
d="M222 -40q30 -5 45 -21t15 -39q0 -35 -26 -53.5t-74 -18.5q-42 0 -74 16q-8 4 -9.5 10.5t1.5 14.5l10 24q7 17 26 7q10 -5 20 -8.5t24 -3.5q20 0 28 7t8 17q0 8 -8.5 14t-30.5 6q-21 0 -14 20l24 68h57z" />
    <glyph glyph-name="uni00B9" unicode="&#xb9;" 
d="M278 381q-3 -18 -22 -18h-37q-22 0 -19 21l41 257l-55 -37q-17 -11 -28 6l-16 25q-9 17 6 28l115 78q11 8 25 8h27q22 0 19 -22z" />
    <glyph glyph-name="ordmasculine" unicode="&#xba;" horiz-adv-x="371" 
d="M236 636q68 0 104.5 -31.5t36.5 -88.5q0 -15 -3 -31l-16 -107q-23 -144 -165 -144q-68 0 -105 32t-37 89q0 13 3 30l17 108q23 143 165 143zM196 315q57 0 69 73l15 94q1 6 1.5 11.5t0.5 10.5q0 51 -50 51q-30 0 -46.5 -18t-22.5 -55l-15 -94q-1 -6 -1.5 -12t-0.5 -11
q0 -50 50 -50z" />
    <glyph glyph-name="guillemotright" unicode="&#xbb;" horiz-adv-x="464" 
d="M106 68q-9 -12 -24 -12h-60q-13 0 -16.5 7t4.5 17l135 174l-78 163q-5 11 -0.5 17.5t15.5 6.5h55q15 0 23 -15l80 -162q7 -15 -3 -28zM304 68q-9 -12 -24 -12h-60q-13 0 -16.5 7t4.5 17l135 174l-78 163q-5 11 -0.5 17.5t15.5 6.5h55q15 0 23 -15l80 -162q7 -15 -3 -28z
" />
    <glyph glyph-name="onequarter" unicode="&#xbc;" horiz-adv-x="800" 
d="M647 612q9 12 25 12h48q13 0 16.5 -7t-4.5 -17l-481 -588q-9 -12 -25 -12h-49q-13 0 -16.5 7t4.5 17zM746 150q22 0 19 -21l-5 -31q-3 -18 -21 -18h-26l-10 -62q-3 -18 -21 -18h-38q-22 0 -19 22l10 58h-147q-22 0 -19 22l7 39q2 7 4 12.5t7 10.5l187 211q10 11 25 11h41
q22 0 19 -22l-35 -214h22zM664 269l-103 -119h85l20 119h-2zM259 256q-3 -18 -22 -18h-37q-22 0 -19 21l41 257l-55 -37q-17 -11 -28 6l-16 25q-9 17 6 28l115 78q11 8 25 8h27q22 0 19 -22z" />
    <glyph glyph-name="onehalf" unicode="&#xbd;" horiz-adv-x="800" 
d="M607 612q9 12 25 12h48q13 0 16.5 -7t-4.5 -17l-481 -588q-9 -12 -25 -12h-49q-13 0 -16.5 7t4.5 17zM715 71q22 0 19 -21l-5 -31q-3 -18 -21 -18h-213q-21 0 -18 22l5 31q3 14 13 23l159 139q22 20 30.5 34.5t8.5 30.5q0 20 -12 31t-33 11q-18 0 -35 -10t-32 -27
q-14 -15 -28 -1l-22 23q-13 13 -1 29q26 29 58.5 42.5t67.5 13.5q54 0 85 -29t31 -80q0 -35 -15.5 -61.5t-56.5 -59.5l-110 -90v-2h125zM259 256q-3 -18 -22 -18h-37q-22 0 -19 21l41 257l-55 -37q-17 -11 -28 6l-16 25q-9 17 6 28l115 78q11 8 25 8h27q22 0 19 -22z" />
    <glyph glyph-name="threequarters" unicode="&#xbe;" horiz-adv-x="800" 
d="M646 612q9 12 25 12h48q13 0 16.5 -7t-4.5 -17l-481 -588q-9 -12 -25 -12h-49q-13 0 -16.5 7t4.5 17zM746 150q22 0 19 -21l-5 -31q-3 -18 -21 -18h-26l-10 -62q-3 -18 -21 -18h-38q-22 0 -19 22l10 58h-147q-22 0 -19 22l7 39q2 7 4 12.5t7 10.5l187 211q10 11 25 11h41
q22 0 19 -22l-35 -214h22zM664 269l-103 -119h85l20 119h-2zM274 433q45 -23 45 -80q0 -58 -38.5 -90t-108.5 -32q-43 0 -73 13t-50 37q-12 14 2 28l22 21q8 8 14 7t14 -9q26 -27 71 -27q32 0 50 15.5t18 41.5q0 23 -15.5 33.5t-51.5 10.5h-7q-22 0 -19 21l4 28q3 18 22 18
h6q80 0 80 52q0 40 -49 40q-19 0 -36 -9t-32 -23q-16 -14 -28 2l-20 26q-13 16 2 28q28 24 59 35t64 11q55 0 87 -27.5t32 -75.5q0 -72 -64 -93v-2z" />
    <glyph glyph-name="questiondown" unicode="&#xbf;" horiz-adv-x="460" 
d="M196 -12q-43 0 -77.5 11.5t-59 33t-37.5 51.5t-13 68q0 34 7 61t22.5 50t40.5 43t61 38q25 12 42 23.5t27.5 23t16.5 23.5t8 27q4 24 25 24h58q25 0 22 -25l-2 -11q-4 -26 -12 -47.5t-23 -40.5t-37 -36.5t-53 -34.5q-50 -28 -69 -52t-19 -58q0 -33 22 -52.5t60 -19.5
q71 0 132 70q15 19 32 2l39 -38q17 -15 0 -34q-43 -49 -97 -74.5t-116 -25.5zM316 676q29 0 46.5 -18t17.5 -46q0 -32 -21.5 -52.5t-51.5 -20.5q-29 0 -46.5 17.5t-17.5 45.5q0 32 21 53t52 21z" />
    <glyph glyph-name="Agrave" unicode="&#xc0;" horiz-adv-x="594" 
d="M532 25q5 -25 -21 -25h-75q-21 0 -24 21l-14 99h-238l-47 -103q-9 -17 -27 -17h-79q-14 0 -18.5 7.5t1.5 19.5l300 620q8 17 27 17h88q21 0 24 -21zM340 523l-134 -301h178l-42 301h-2zM351 727q-16 0 -24 14l-64 119q-6 11 -2 17.5t16 6.5h69q16 0 24 -15l51 -119
q10 -23 -15 -23h-55z" />
    <glyph glyph-name="Aacute" unicode="&#xc1;" horiz-adv-x="594" 
d="M532 25q5 -25 -21 -25h-75q-21 0 -24 21l-14 99h-238l-47 -103q-9 -17 -27 -17h-79q-14 0 -18.5 7.5t1.5 19.5l300 620q8 17 27 17h88q21 0 24 -21zM340 523l-134 -301h178l-42 301h-2zM425 738q-10 -11 -25 -11h-62q-13 0 -17 7t4 17l91 121q9 12 24 12h77q13 0 16.5 -7
t-5.5 -18z" />
    <glyph glyph-name="Acircumflex" unicode="&#xc2;" horiz-adv-x="594" 
d="M532 25q5 -25 -21 -25h-75q-21 0 -24 21l-14 99h-238l-47 -103q-9 -17 -27 -17h-79q-14 0 -18.5 7.5t1.5 19.5l300 620q8 17 27 17h88q21 0 24 -21zM340 523l-134 -301h178l-42 301h-2zM330 738q-10 -11 -25 -11h-57q-13 0 -16 7t5 18l101 121q10 11 25 11h65
q16 0 23 -14l62 -119q5 -11 1 -17.5t-16 -6.5h-49q-16 0 -24 14l-35 67z" />
    <glyph glyph-name="Atilde" unicode="&#xc3;" horiz-adv-x="594" 
d="M532 25q5 -25 -21 -25h-75q-21 0 -24 21l-14 99h-238l-47 -103q-9 -17 -27 -17h-79q-14 0 -18.5 7.5t1.5 19.5l300 620q8 17 27 17h88q21 0 24 -21zM340 523l-134 -301h178l-42 301h-2zM240 731q-21 0 -16 22q14 59 42.5 86.5t68.5 27.5q19 0 33.5 -6.5t32.5 -22.5
q8 -8 16.5 -13.5t19.5 -5.5q23 0 36 34q6 16 22 16h32q21 0 16 -21q-14 -60 -42.5 -87.5t-68.5 -27.5q-19 0 -33.5 6.5t-32.5 23.5q-12 11 -19.5 15t-16.5 4q-23 0 -37 -35q-6 -16 -22 -16h-31z" />
    <glyph glyph-name="Adieresis" unicode="&#xc4;" horiz-adv-x="594" 
d="M532 25q5 -25 -21 -25h-75q-21 0 -24 21l-14 99h-238l-47 -103q-9 -17 -27 -17h-79q-14 0 -18.5 7.5t1.5 19.5l300 620q8 17 27 17h88q21 0 24 -21zM340 523l-134 -301h178l-42 301h-2zM293 745q-26 0 -41 15.5t-15 39.5q0 29 17 47.5t46 18.5q26 0 41.5 -15.5
t15.5 -40.5q0 -28 -18.5 -46.5t-45.5 -18.5zM468 745q-26 0 -41.5 16t-15.5 41q0 28 18.5 46t45.5 18q26 0 41.5 -15.5t15.5 -40.5q0 -28 -18.5 -46.5t-45.5 -18.5z" />
    <glyph glyph-name="Aring" unicode="&#xc5;" horiz-adv-x="594" 
d="M532 25q5 -25 -21 -25h-75q-21 0 -24 21l-14 99h-238l-47 -103q-9 -17 -27 -17h-79q-14 0 -18.5 7.5t1.5 19.5l300 620q8 17 27 17h88q21 0 24 -21zM340 523l-134 -301h178l-42 301h-2zM378 718q-35 0 -58 22.5t-23 56.5q0 40 27.5 66.5t66.5 26.5q36 0 58.5 -23
t22.5 -58q0 -19 -7.5 -35.5t-20.5 -29t-30 -19.5t-36 -7zM380 770q15 0 26 11t11 27q0 14 -8 22t-22 8q-15 0 -25.5 -11t-10.5 -27q0 -30 29 -30z" />
    <glyph glyph-name="AE" unicode="&#xc6;" horiz-adv-x="869" 
d="M868 664q26 0 21 -25l-9 -58q-3 -21 -24 -21h-285l-28 -172h237q26 0 21 -25l-9 -58q-3 -21 -24 -21h-241l-29 -180h281q26 0 21 -25l-9 -58q-3 -21 -24 -21h-379q-26 0 -21 25l15 95h-206l-71 -105q-10 -15 -28 -15h-87q-14 0 -18.5 8t3.5 20l431 621q10 15 28 15h434z
M445 525l-201 -303h154l49 303h-2z" />
    <glyph glyph-name="Ccedilla" unicode="&#xc7;" horiz-adv-x="524" 
d="M547 560q9 -19 -11 -30l-56 -30q-19 -10 -30 11q-16 29 -42.5 45t-66.5 16q-119 0 -143 -148l-29 -185q-4 -23 -4 -42q0 -105 101 -105q77 0 125 68q14 20 32 6l49 -36q19 -13 5 -32q-40 -55 -90 -81.5t-119 -28.5l-10 -28q30 -5 45 -21t15 -39q0 -35 -26 -53.5
t-74 -18.5q-42 0 -74 16q-8 4 -9.5 10.5t1.5 14.5l10 24q7 17 26 7q10 -5 20 -8.5t24 -3.5q20 0 28 7t8 17q0 8 -8.5 14t-30.5 6q-21 0 -14 20l14 39q-81 11 -125 59.5t-44 129.5q0 12 1.5 25.5t3.5 27.5l33 208q36 235 266 235q72 0 122.5 -29.5t76.5 -86.5z" />
    <glyph glyph-name="Egrave" unicode="&#xc8;" horiz-adv-x="539" 
d="M450 388q26 0 21 -25l-9 -58q-3 -21 -24 -21h-241l-29 -180h282q26 0 21 -25l-10 -58q-3 -21 -24 -21h-379q-26 0 -21 25l98 618q3 21 24 21h379q26 0 21 -25l-9 -58q-3 -21 -24 -21h-285l-28 -172h237zM339 727q-16 0 -24 14l-64 119q-6 11 -2 17.5t16 6.5h69
q16 0 24 -15l51 -119q10 -23 -15 -23h-55z" />
    <glyph glyph-name="Eacute" unicode="&#xc9;" horiz-adv-x="539" 
d="M450 388q26 0 21 -25l-9 -58q-3 -21 -24 -21h-241l-29 -180h282q26 0 21 -25l-10 -58q-3 -21 -24 -21h-379q-26 0 -21 25l98 618q3 21 24 21h379q26 0 21 -25l-9 -58q-3 -21 -24 -21h-285l-28 -172h237zM413 738q-10 -11 -25 -11h-62q-13 0 -17 7t4 17l91 121q9 12 24 12
h77q13 0 16.5 -7t-5.5 -18z" />
    <glyph glyph-name="Ecircumflex" unicode="&#xca;" horiz-adv-x="539" 
d="M450 388q26 0 21 -25l-9 -58q-3 -21 -24 -21h-241l-29 -180h282q26 0 21 -25l-10 -58q-3 -21 -24 -21h-379q-26 0 -21 25l98 618q3 21 24 21h379q26 0 21 -25l-9 -58q-3 -21 -24 -21h-285l-28 -172h237zM318 738q-10 -11 -25 -11h-57q-13 0 -16 7t5 18l101 121
q10 11 25 11h65q16 0 23 -14l62 -119q5 -11 1 -17.5t-16 -6.5h-49q-16 0 -24 14l-35 67z" />
    <glyph glyph-name="Edieresis" unicode="&#xcb;" horiz-adv-x="539" 
d="M450 388q26 0 21 -25l-9 -58q-3 -21 -24 -21h-241l-29 -180h282q26 0 21 -25l-10 -58q-3 -21 -24 -21h-379q-26 0 -21 25l98 618q3 21 24 21h379q26 0 21 -25l-9 -58q-3 -21 -24 -21h-285l-28 -172h237zM281 745q-26 0 -41 15.5t-15 39.5q0 29 17 47.5t46 18.5
q26 0 41.5 -15.5t15.5 -40.5q0 -28 -18.5 -46.5t-45.5 -18.5zM456 745q-26 0 -41.5 16t-15.5 41q0 28 18.5 46t45.5 18q26 0 41.5 -15.5t15.5 -40.5q0 -28 -18.5 -46.5t-45.5 -18.5z" />
    <glyph glyph-name="Igrave" unicode="&#xcc;" horiz-adv-x="266" 
d="M155 21q-3 -21 -24 -21h-73q-26 0 -21 25l98 618q3 21 24 21h73q26 0 21 -25zM187 727q-16 0 -24 14l-64 119q-6 11 -2 17.5t16 6.5h69q16 0 24 -15l51 -119q10 -23 -15 -23h-55z" />
    <glyph glyph-name="Iacute" unicode="&#xcd;" horiz-adv-x="266" 
d="M155 21q-3 -21 -24 -21h-73q-26 0 -21 25l98 618q3 21 24 21h73q26 0 21 -25zM261 738q-10 -11 -25 -11h-62q-13 0 -17 7t4 17l91 121q9 12 24 12h77q13 0 16.5 -7t-5.5 -18z" />
    <glyph glyph-name="Icircumflex" unicode="&#xce;" horiz-adv-x="266" 
d="M155 21q-3 -21 -24 -21h-73q-26 0 -21 25l98 618q3 21 24 21h73q26 0 21 -25zM166 738q-10 -11 -25 -11h-57q-13 0 -16 7t5 18l101 121q10 11 25 11h65q16 0 23 -14l62 -119q5 -11 1 -17.5t-16 -6.5h-49q-16 0 -24 14l-35 67z" />
    <glyph glyph-name="Idieresis" unicode="&#xcf;" horiz-adv-x="266" 
d="M155 21q-3 -21 -24 -21h-73q-26 0 -21 25l98 618q3 21 24 21h73q26 0 21 -25zM129 745q-26 0 -41 15.5t-15 39.5q0 29 17 47.5t46 18.5q26 0 41.5 -15.5t15.5 -40.5q0 -28 -18.5 -46.5t-45.5 -18.5zM304 745q-26 0 -41.5 16t-15.5 41q0 28 18.5 46t45.5 18
q26 0 41.5 -15.5t15.5 -40.5q0 -28 -18.5 -46.5t-45.5 -18.5z" />
    <glyph glyph-name="Eth" unicode="&#xd0;" horiz-adv-x="605" 
d="M368 664q107 0 162.5 -45.5t55.5 -134.5q0 -13 -1.5 -27t-3.5 -28l-33 -203q-19 -116 -84 -171t-189 -55h-204q-26 0 -21 25l42 263h-40q-24 0 -19 23l9 56q3 19 22 19h43l41 257q3 21 24 21h196zM461 423q3 19 3 37q0 100 -112 100h-98l-28 -174h95q24 0 19 -23l-9 -56
q-3 -19 -22 -19h-99l-29 -184h98q67 0 104.5 33.5t48.5 104.5z" />
    <glyph glyph-name="Ntilde" unicode="&#xd1;" horiz-adv-x="622" 
d="M589 664q26 0 21 -25l-98 -618q-3 -21 -24 -21h-80q-20 0 -27 19l-155 452h-2l-71 -450q-3 -21 -24 -21h-71q-26 0 -21 25l98 618q3 21 24 21h90q20 0 27 -19l148 -435h2l68 433q3 21 24 21h71zM254 731q-21 0 -16 22q14 59 42.5 86.5t68.5 27.5q19 0 33.5 -6.5
t32.5 -22.5q8 -8 16.5 -13.5t19.5 -5.5q23 0 36 34q6 16 22 16h32q21 0 16 -21q-14 -60 -42.5 -87.5t-68.5 -27.5q-19 0 -33.5 6.5t-32.5 23.5q-12 11 -19.5 15t-16.5 4q-23 0 -37 -35q-6 -16 -22 -16h-31z" />
    <glyph glyph-name="Ograve" unicode="&#xd2;" horiz-adv-x="592" 
d="M82 441q36 235 268 235q106 0 164 -50t58 -143q0 -12 -1 -25t-3 -27l-33 -208q-38 -235 -268 -235q-107 0 -164.5 50t-57.5 143q0 12 1 25t3 27zM169 239q-3 -23 -3 -42q0 -105 106 -105q63 0 99 36.5t48 111.5l29 185q2 12 3 22.5t1 21.5q0 103 -107 103
q-63 0 -99 -36.5t-48 -111.5zM350 727q-16 0 -24 14l-64 119q-6 11 -2 17.5t16 6.5h69q16 0 24 -15l51 -119q10 -23 -15 -23h-55z" />
    <glyph glyph-name="Oacute" unicode="&#xd3;" horiz-adv-x="592" 
d="M82 441q36 235 268 235q106 0 164 -50t58 -143q0 -12 -1 -25t-3 -27l-33 -208q-38 -235 -268 -235q-107 0 -164.5 50t-57.5 143q0 12 1 25t3 27zM169 239q-3 -23 -3 -42q0 -105 106 -105q63 0 99 36.5t48 111.5l29 185q2 12 3 22.5t1 21.5q0 103 -107 103
q-63 0 -99 -36.5t-48 -111.5zM424 738q-10 -11 -25 -11h-62q-13 0 -17 7t4 17l91 121q9 12 24 12h77q13 0 16.5 -7t-5.5 -18z" />
    <glyph glyph-name="Ocircumflex" unicode="&#xd4;" horiz-adv-x="592" 
d="M82 441q36 235 268 235q106 0 164 -50t58 -143q0 -12 -1 -25t-3 -27l-33 -208q-38 -235 -268 -235q-107 0 -164.5 50t-57.5 143q0 12 1 25t3 27zM169 239q-3 -23 -3 -42q0 -105 106 -105q63 0 99 36.5t48 111.5l29 185q2 12 3 22.5t1 21.5q0 103 -107 103
q-63 0 -99 -36.5t-48 -111.5zM329 738q-10 -11 -25 -11h-57q-13 0 -16 7t5 18l101 121q10 11 25 11h65q16 0 23 -14l62 -119q5 -11 1 -17.5t-16 -6.5h-49q-16 0 -24 14l-35 67z" />
    <glyph glyph-name="Otilde" unicode="&#xd5;" horiz-adv-x="592" 
d="M82 441q36 235 268 235q106 0 164 -50t58 -143q0 -12 -1 -25t-3 -27l-33 -208q-38 -235 -268 -235q-107 0 -164.5 50t-57.5 143q0 12 1 25t3 27zM169 239q-3 -23 -3 -42q0 -105 106 -105q63 0 99 36.5t48 111.5l29 185q2 12 3 22.5t1 21.5q0 103 -107 103
q-63 0 -99 -36.5t-48 -111.5zM239 731q-21 0 -16 22q14 59 42.5 86.5t68.5 27.5q19 0 33.5 -6.5t32.5 -22.5q8 -8 16.5 -13.5t19.5 -5.5q23 0 36 34q6 16 22 16h32q21 0 16 -21q-14 -60 -42.5 -87.5t-68.5 -27.5q-19 0 -33.5 6.5t-32.5 23.5q-12 11 -19.5 15t-16.5 4
q-23 0 -37 -35q-6 -16 -22 -16h-31z" />
    <glyph glyph-name="Odieresis" unicode="&#xd6;" horiz-adv-x="592" 
d="M82 441q36 235 268 235q106 0 164 -50t58 -143q0 -12 -1 -25t-3 -27l-33 -208q-38 -235 -268 -235q-107 0 -164.5 50t-57.5 143q0 12 1 25t3 27zM169 239q-3 -23 -3 -42q0 -105 106 -105q63 0 99 36.5t48 111.5l29 185q2 12 3 22.5t1 21.5q0 103 -107 103
q-63 0 -99 -36.5t-48 -111.5zM292 745q-26 0 -41 15.5t-15 39.5q0 29 17 47.5t46 18.5q26 0 41.5 -15.5t15.5 -40.5q0 -28 -18.5 -46.5t-45.5 -18.5zM467 745q-26 0 -41.5 16t-15.5 41q0 28 18.5 46t45.5 18q26 0 41.5 -15.5t15.5 -40.5q0 -28 -18.5 -46.5t-45.5 -18.5z" />
    <glyph glyph-name="multiply" unicode="&#xd7;" horiz-adv-x="529" 
d="M472 126q15 -17 -2 -32l-44 -39q-17 -16 -32 2l-129 150l-177 -153q-17 -15 -32 2l-35 39q-16 17 2 32l179 155l-128 150q-15 17 2 32l45 40q17 15 32 -3l128 -150l178 153q17 15 32 -2l35 -39q15 -17 -3 -32l-178 -155z" />
    <glyph glyph-name="Oslash" unicode="&#xd8;" horiz-adv-x="592" 
d="M592 634q16 -13 2 -28l-36 -43q14 -37 14 -80q0 -12 -1 -25t-3 -27l-33 -208q-38 -235 -268 -235q-95 0 -152 40l-24 -29q-12 -16 -28 -3l-39 34q-16 13 -2 28l36 44q-13 37 -13 79q0 12 1 25t3 27l33 208q36 235 268 235q94 0 151 -40l24 29q12 16 28 3zM170 237
l256 309q-28 26 -81 26q-63 0 -99 -36.5t-48 -111.5l-30 -187h2zM191 119q25 -27 81 -27q63 0 99 36.5t48 111.5l30 188h-2z" />
    <glyph glyph-name="Ugrave" unicode="&#xd9;" horiz-adv-x="588" 
d="M519 217q-36 -229 -254 -229q-101 0 -155.5 48t-54.5 137q0 12 1 24.5t3 26.5l66 419q3 21 24 21h73q26 0 21 -25l-64 -409q-3 -23 -3 -41q0 -97 96 -97q57 0 89 34t43 104l66 413q3 21 24 21h71q26 0 21 -25zM348 727q-16 0 -24 14l-64 119q-6 11 -2 17.5t16 6.5h69
q16 0 24 -15l51 -119q10 -23 -15 -23h-55z" />
    <glyph glyph-name="Uacute" unicode="&#xda;" horiz-adv-x="588" 
d="M519 217q-36 -229 -254 -229q-101 0 -155.5 48t-54.5 137q0 12 1 24.5t3 26.5l66 419q3 21 24 21h73q26 0 21 -25l-64 -409q-3 -23 -3 -41q0 -97 96 -97q57 0 89 34t43 104l66 413q3 21 24 21h71q26 0 21 -25zM422 738q-10 -11 -25 -11h-62q-13 0 -17 7t4 17l91 121
q9 12 24 12h77q13 0 16.5 -7t-5.5 -18z" />
    <glyph glyph-name="Ucircumflex" unicode="&#xdb;" horiz-adv-x="588" 
d="M519 217q-36 -229 -254 -229q-101 0 -155.5 48t-54.5 137q0 12 1 24.5t3 26.5l66 419q3 21 24 21h73q26 0 21 -25l-64 -409q-3 -23 -3 -41q0 -97 96 -97q57 0 89 34t43 104l66 413q3 21 24 21h71q26 0 21 -25zM327 738q-10 -11 -25 -11h-57q-13 0 -16 7t5 18l101 121
q10 11 25 11h65q16 0 23 -14l62 -119q5 -11 1 -17.5t-16 -6.5h-49q-16 0 -24 14l-35 67z" />
    <glyph glyph-name="Udieresis" unicode="&#xdc;" horiz-adv-x="588" 
d="M519 217q-36 -229 -254 -229q-101 0 -155.5 48t-54.5 137q0 12 1 24.5t3 26.5l66 419q3 21 24 21h73q26 0 21 -25l-64 -409q-3 -23 -3 -41q0 -97 96 -97q57 0 89 34t43 104l66 413q3 21 24 21h71q26 0 21 -25zM290 745q-26 0 -41 15.5t-15 39.5q0 29 17 47.5t46 18.5
q26 0 41.5 -15.5t15.5 -40.5q0 -28 -18.5 -46.5t-45.5 -18.5zM465 745q-26 0 -41.5 16t-15.5 41q0 28 18.5 46t45.5 18q26 0 41.5 -15.5t15.5 -40.5q0 -28 -18.5 -46.5t-45.5 -18.5z" />
    <glyph glyph-name="Yacute" unicode="&#xdd;" horiz-adv-x="543" 
d="M293 21q-3 -21 -24 -21h-73q-26 0 -21 25l42 264l-144 348q-5 12 0 19.5t18 7.5h85q18 0 26 -18l91 -244l170 247q10 15 28 15h88q15 0 19 -8t-4 -20l-260 -359zM400 738q-10 -11 -25 -11h-62q-13 0 -17 7t4 17l91 121q9 12 24 12h77q13 0 16.5 -7t-5.5 -18z" />
    <glyph glyph-name="Thorn" unicode="&#xde;" horiz-adv-x="551" 
d="M328 553q213 0 213 -179q0 -126 -66 -184.5t-208 -58.5h-94l-18 -110q-3 -21 -24 -21h-73q-26 0 -21 25l98 618q3 21 24 21h73q26 0 21 -25l-14 -86h89zM420 361q0 46 -26.5 67t-80.5 21h-90l-34 -214h91q72 0 106 30.5t34 95.5z" />
    <glyph glyph-name="germandbls" unicode="&#xdf;" horiz-adv-x="554" 
d="M104 531q14 86 72 133.5t150 47.5q86 0 134 -40.5t48 -112.5q0 -52 -22.5 -88.5t-79.5 -70.5q-33 -20 -44.5 -33.5t-11.5 -30.5q0 -14 11.5 -23.5t42.5 -17.5q59 -14 84.5 -46t25.5 -86q0 -84 -50.5 -129.5t-144.5 -45.5q-85 0 -140 32q-18 11 -7 31l23 44q11 21 31 8
q33 -21 89 -21q42 0 65.5 18t23.5 50q0 20 -13.5 32t-48.5 23q-54 17 -76.5 45.5t-22.5 75.5q0 49 21.5 83.5t74.5 67.5q35 22 48.5 39t13.5 38q0 30 -21.5 47t-59.5 17q-45 0 -72.5 -23t-34.5 -66l-81 -508q-3 -21 -24 -21h-63q-26 0 -21 25z" />
    <glyph glyph-name="agrave" unicode="&#xe0;" horiz-adv-x="460" 
d="M247 509q87 0 134 -40t47 -117q0 -20 -3 -41l-22 -137q-14 -92 -67.5 -139t-149.5 -47q-83 0 -126.5 37.5t-43.5 106.5q0 81 50 123.5t151 42.5h97q2 14 3 22t1 16q0 42 -21.5 60.5t-64.5 18.5q-24 0 -47.5 -9t-43.5 -23q-20 -15 -32 6l-22 42q-11 19 9 33q37 24 73 34.5
t78 10.5zM194 82q86 0 102 105l5 30h-78q-47 0 -72 -19.5t-25 -57.5q0 -29 18 -43.5t50 -14.5zM262 566q-16 0 -24 14l-64 119q-6 11 -2 17.5t16 6.5h69q16 0 24 -15l51 -119q10 -23 -15 -23h-55z" />
    <glyph glyph-name="aacute" unicode="&#xe1;" horiz-adv-x="460" 
d="M247 509q87 0 134 -40t47 -117q0 -20 -3 -41l-22 -137q-14 -92 -67.5 -139t-149.5 -47q-83 0 -126.5 37.5t-43.5 106.5q0 81 50 123.5t151 42.5h97q2 14 3 22t1 16q0 42 -21.5 60.5t-64.5 18.5q-24 0 -47.5 -9t-43.5 -23q-20 -15 -32 6l-22 42q-11 19 9 33q37 24 73 34.5
t78 10.5zM194 82q86 0 102 105l5 30h-78q-47 0 -72 -19.5t-25 -57.5q0 -29 18 -43.5t50 -14.5zM336 577q-10 -11 -25 -11h-62q-13 0 -17 7t4 17l91 121q9 12 24 12h77q13 0 16.5 -7t-5.5 -18z" />
    <glyph glyph-name="acircumflex" unicode="&#xe2;" horiz-adv-x="460" 
d="M247 509q87 0 134 -40t47 -117q0 -20 -3 -41l-22 -137q-14 -92 -67.5 -139t-149.5 -47q-83 0 -126.5 37.5t-43.5 106.5q0 81 50 123.5t151 42.5h97q2 14 3 22t1 16q0 42 -21.5 60.5t-64.5 18.5q-24 0 -47.5 -9t-43.5 -23q-20 -15 -32 6l-22 42q-11 19 9 33q37 24 73 34.5
t78 10.5zM194 82q86 0 102 105l5 30h-78q-47 0 -72 -19.5t-25 -57.5q0 -29 18 -43.5t50 -14.5zM241 577q-10 -11 -25 -11h-57q-13 0 -16 7t5 18l101 121q10 11 25 11h65q16 0 23 -14l62 -119q5 -11 1 -17.5t-16 -6.5h-49q-16 0 -24 14l-35 67z" />
    <glyph glyph-name="atilde" unicode="&#xe3;" horiz-adv-x="460" 
d="M247 509q87 0 134 -40t47 -117q0 -20 -3 -41l-22 -137q-14 -92 -67.5 -139t-149.5 -47q-83 0 -126.5 37.5t-43.5 106.5q0 81 50 123.5t151 42.5h97q2 14 3 22t1 16q0 42 -21.5 60.5t-64.5 18.5q-24 0 -47.5 -9t-43.5 -23q-20 -15 -32 6l-22 42q-11 19 9 33q37 24 73 34.5
t78 10.5zM194 82q86 0 102 105l5 30h-78q-47 0 -72 -19.5t-25 -57.5q0 -29 18 -43.5t50 -14.5zM151 570q-21 0 -16 22q14 59 42.5 86.5t68.5 27.5q19 0 33.5 -6.5t32.5 -22.5q8 -8 16.5 -13.5t19.5 -5.5q23 0 36 34q6 16 22 16h32q21 0 16 -21q-14 -60 -42.5 -87.5
t-68.5 -27.5q-19 0 -33.5 6.5t-32.5 23.5q-12 11 -19.5 15t-16.5 4q-23 0 -37 -35q-6 -16 -22 -16h-31z" />
    <glyph glyph-name="adieresis" unicode="&#xe4;" horiz-adv-x="460" 
d="M247 509q87 0 134 -40t47 -117q0 -20 -3 -41l-22 -137q-14 -92 -67.5 -139t-149.5 -47q-83 0 -126.5 37.5t-43.5 106.5q0 81 50 123.5t151 42.5h97q2 14 3 22t1 16q0 42 -21.5 60.5t-64.5 18.5q-24 0 -47.5 -9t-43.5 -23q-20 -15 -32 6l-22 42q-11 19 9 33q37 24 73 34.5
t78 10.5zM194 82q86 0 102 105l5 30h-78q-47 0 -72 -19.5t-25 -57.5q0 -29 18 -43.5t50 -14.5zM204 584q-26 0 -41 15.5t-15 39.5q0 29 17 47.5t46 18.5q26 0 41.5 -15.5t15.5 -40.5q0 -28 -18.5 -46.5t-45.5 -18.5zM379 584q-26 0 -41.5 16t-15.5 41q0 28 18.5 46t45.5 18
q26 0 41.5 -15.5t15.5 -40.5q0 -28 -18.5 -46.5t-45.5 -18.5z" />
    <glyph glyph-name="aring" unicode="&#xe5;" horiz-adv-x="460" 
d="M247 509q87 0 134 -40t47 -117q0 -20 -3 -41l-22 -137q-14 -92 -67.5 -139t-149.5 -47q-83 0 -126.5 37.5t-43.5 106.5q0 81 50 123.5t151 42.5h97q2 14 3 22t1 16q0 42 -21.5 60.5t-64.5 18.5q-24 0 -47.5 -9t-43.5 -23q-20 -15 -32 6l-22 42q-11 19 9 33q37 24 73 34.5
t78 10.5zM194 82q86 0 102 105l5 30h-78q-47 0 -72 -19.5t-25 -57.5q0 -29 18 -43.5t50 -14.5zM289 557q-35 0 -58 22.5t-23 56.5q0 40 27.5 66.5t66.5 26.5q36 0 58.5 -23t22.5 -58q0 -19 -7.5 -35.5t-20.5 -29t-30 -19.5t-36 -7zM291 609q15 0 26 11t11 27q0 14 -8 22
t-22 8q-15 0 -25.5 -11t-10.5 -27q0 -30 29 -30z" />
    <glyph glyph-name="ae" unicode="&#xe6;" horiz-adv-x="722" 
d="M543 509q75 0 116.5 -40.5t41.5 -111.5q0 -20 -3 -42l-12 -78q-3 -21 -24 -21h-253l-3 -22q-3 -18 -3 -33q0 -42 22 -60.5t68 -18.5q25 0 47 9t42 26q20 15 32 -4l26 -40q12 -18 -5 -32q-65 -53 -147 -53q-116 0 -151 77h-2q-25 -38 -65 -57.5t-99 -19.5
q-72 0 -113.5 38.5t-41.5 105.5q0 80 50 122.5t151 42.5h97q2 14 3 23t1 17q0 42 -21 60t-64 18q-25 0 -48.5 -9t-43.5 -23q-10 -7 -18.5 -6t-13.5 12l-22 42q-10 19 7 32q36 24 72.5 35t74.5 11q109 0 143 -75h2q49 75 157 75zM593 311q3 18 3 34q0 70 -70 70
q-84 0 -102 -105l-2 -13h169zM224 216q-47 0 -72.5 -19t-25.5 -57q0 -58 68 -58q86 0 102 105l5 29h-77z" />
    <glyph glyph-name="ccedilla" unicode="&#xe7;" horiz-adv-x="401" 
d="M400 468q8 -7 8 -15.5t-7 -16.5l-33 -39q-13 -16 -32 -2q-26 20 -65 20q-46 0 -73 -26.5t-37 -85.5l-17 -109q-3 -18 -3 -33q0 -42 20.5 -60.5t61.5 -18.5q20 0 37.5 7.5t34.5 20.5q20 14 32 -5l24 -39q11 -19 -5 -32q-58 -46 -135 -46h-2l-10 -28q30 -5 45 -21t15 -39
q0 -35 -26 -53.5t-74 -18.5q-42 0 -74 16q-8 4 -9.5 10.5t1.5 14.5l10 24q7 17 26 7q10 -5 20 -8.5t24 -3.5q20 0 28 7t8 17q0 8 -8.5 14t-30.5 6q-21 0 -14 20l15 41q-60 13 -92.5 51.5t-32.5 101.5q0 11 1 22t3 22l20 126q31 193 214 193q43 0 76 -11t56 -30z" />
    <glyph glyph-name="egrave" unicode="&#xe8;" horiz-adv-x="460" 
d="M264 509q85 0 130 -40t45 -114q0 -19 -3 -40l-13 -80q-3 -21 -24 -21h-252l-3 -20q-3 -18 -3 -34q0 -42 22 -60t67 -18q49 0 90 35q20 15 33 -4l25 -40q11 -19 -5 -32q-67 -53 -151 -53q-93 0 -142.5 40t-49.5 118q0 21 4 44l21 133q30 186 209 186zM262 415
q-44 0 -68 -25.5t-33 -79.5l-2 -14h170l2 15q3 18 3 33q0 71 -72 71zM265 566q-16 0 -24 14l-64 119q-6 11 -2 17.5t16 6.5h69q16 0 24 -15l51 -119q10 -23 -15 -23h-55z" />
    <glyph glyph-name="eacute" unicode="&#xe9;" horiz-adv-x="460" 
d="M264 509q85 0 130 -40t45 -114q0 -19 -3 -40l-13 -80q-3 -21 -24 -21h-252l-3 -20q-3 -18 -3 -34q0 -42 22 -60t67 -18q49 0 90 35q20 15 33 -4l25 -40q11 -19 -5 -32q-67 -53 -151 -53q-93 0 -142.5 40t-49.5 118q0 21 4 44l21 133q30 186 209 186zM262 415
q-44 0 -68 -25.5t-33 -79.5l-2 -14h170l2 15q3 18 3 33q0 71 -72 71zM339 577q-10 -11 -25 -11h-62q-13 0 -17 7t4 17l91 121q9 12 24 12h77q13 0 16.5 -7t-5.5 -18z" />
    <glyph glyph-name="ecircumflex" unicode="&#xea;" horiz-adv-x="460" 
d="M264 509q85 0 130 -40t45 -114q0 -19 -3 -40l-13 -80q-3 -21 -24 -21h-252l-3 -20q-3 -18 -3 -34q0 -42 22 -60t67 -18q49 0 90 35q20 15 33 -4l25 -40q11 -19 -5 -32q-67 -53 -151 -53q-93 0 -142.5 40t-49.5 118q0 21 4 44l21 133q30 186 209 186zM262 415
q-44 0 -68 -25.5t-33 -79.5l-2 -14h170l2 15q3 18 3 33q0 71 -72 71zM244 577q-10 -11 -25 -11h-57q-13 0 -16 7t5 18l101 121q10 11 25 11h65q16 0 23 -14l62 -119q5 -11 1 -17.5t-16 -6.5h-49q-16 0 -24 14l-35 67z" />
    <glyph glyph-name="edieresis" unicode="&#xeb;" horiz-adv-x="460" 
d="M264 509q85 0 130 -40t45 -114q0 -19 -3 -40l-13 -80q-3 -21 -24 -21h-252l-3 -20q-3 -18 -3 -34q0 -42 22 -60t67 -18q49 0 90 35q20 15 33 -4l25 -40q11 -19 -5 -32q-67 -53 -151 -53q-93 0 -142.5 40t-49.5 118q0 21 4 44l21 133q30 186 209 186zM262 415
q-44 0 -68 -25.5t-33 -79.5l-2 -14h170l2 15q3 18 3 33q0 71 -72 71zM207 584q-26 0 -41 15.5t-15 39.5q0 29 17 47.5t46 18.5q26 0 41.5 -15.5t15.5 -40.5q0 -28 -18.5 -46.5t-45.5 -18.5zM382 584q-26 0 -41.5 16t-15.5 41q0 28 18.5 46t45.5 18q26 0 41.5 -15.5
t15.5 -40.5q0 -28 -18.5 -46.5t-45.5 -18.5z" />
    <glyph glyph-name="igrave" unicode="&#xec;" horiz-adv-x="230" 
d="M45 0q-26 0 -21 25l72 451q3 21 24 21h63q26 0 21 -25l-72 -451q-3 -21 -24 -21h-63zM144 566q-16 0 -24 14l-64 119q-6 11 -2 17.5t16 6.5h69q16 0 24 -15l51 -119q10 -23 -15 -23h-55z" />
    <glyph glyph-name="iacute" unicode="&#xed;" horiz-adv-x="230" 
d="M45 0q-26 0 -21 25l72 451q3 21 24 21h63q26 0 21 -25l-72 -451q-3 -21 -24 -21h-63zM218 577q-10 -11 -25 -11h-62q-13 0 -17 7t4 17l91 121q9 12 24 12h77q13 0 16.5 -7t-5.5 -18z" />
    <glyph glyph-name="icircumflex" unicode="&#xee;" horiz-adv-x="230" 
d="M45 0q-26 0 -21 25l72 451q3 21 24 21h63q26 0 21 -25l-72 -451q-3 -21 -24 -21h-63zM123 577q-10 -11 -25 -11h-57q-13 0 -16 7t5 18l101 121q10 11 25 11h65q16 0 23 -14l62 -119q5 -11 1 -17.5t-16 -6.5h-49q-16 0 -24 14l-35 67z" />
    <glyph glyph-name="idieresis" unicode="&#xef;" horiz-adv-x="230" 
d="M45 0q-26 0 -21 25l72 451q3 21 24 21h63q26 0 21 -25l-72 -451q-3 -21 -24 -21h-63zM86 584q-26 0 -41 15.5t-15 39.5q0 29 17 47.5t46 18.5q26 0 41.5 -15.5t15.5 -40.5q0 -28 -18.5 -46.5t-45.5 -18.5zM261 584q-26 0 -41.5 16t-15.5 41q0 28 18.5 46t45.5 18
q26 0 41.5 -15.5t15.5 -40.5q0 -28 -18.5 -46.5t-45.5 -18.5z" />
    <glyph glyph-name="eth" unicode="&#xf0;" horiz-adv-x="484" 
d="M381 632q71 -71 71 -207q0 -51 -9 -111l-22 -140q-15 -92 -68 -139t-145 -47q-86 0 -132.5 40t-46.5 113q0 10 1 20t3 21l20 127q15 92 62.5 139t131.5 47q60 0 93 -38h2q-7 73 -49 110l-62 -45q-14 -11 -25 3l-13 17q-11 14 4 26l42 30q-14 6 -30.5 10t-35.5 7
q-25 3 -18 28l15 51q6 19 27 16q82 -12 136 -42l50 36q14 11 25 -3l13 -18q10 -14 -4 -25zM330 296q3 16 3 31q0 74 -72 74q-85 0 -101 -105l-17 -110q-3 -17 -3 -31q0 -73 72 -73q85 0 101 105z" />
    <glyph glyph-name="ntilde" unicode="&#xf1;" horiz-adv-x="493" 
d="M337 313q3 18 3 32q0 70 -69 70q-81 0 -97 -102l-46 -292q-3 -21 -24 -21h-63q-26 0 -21 25l47 301q28 183 209 183q84 0 129.5 -38.5t45.5 -110.5q0 -10 -1 -20t-3 -21l-47 -298q-3 -21 -24 -21h-63q-26 0 -21 25zM164 570q-21 0 -16 22q14 59 42.5 86.5t68.5 27.5
q19 0 33.5 -6.5t32.5 -22.5q8 -8 16.5 -13.5t19.5 -5.5q23 0 36 34q6 16 22 16h32q21 0 16 -21q-14 -60 -42.5 -87.5t-68.5 -27.5q-19 0 -33.5 6.5t-32.5 23.5q-12 11 -19.5 15t-16.5 4q-23 0 -37 -35q-6 -16 -22 -16h-31z" />
    <glyph glyph-name="ograve" unicode="&#xf2;" horiz-adv-x="477" 
d="M268 509q86 0 132 -40t46 -114q0 -19 -3 -40l-22 -141q-30 -186 -213 -186q-86 0 -132.5 39.5t-46.5 113.5q0 18 4 41l22 141q30 186 213 186zM212 82q86 0 102 105l19 124q3 16 3 31q0 73 -73 73q-85 0 -101 -105l-19 -124q-3 -17 -3 -31q0 -73 72 -73zM267 566
q-16 0 -24 14l-64 119q-6 11 -2 17.5t16 6.5h69q16 0 24 -15l51 -119q10 -23 -15 -23h-55z" />
    <glyph glyph-name="oacute" unicode="&#xf3;" horiz-adv-x="477" 
d="M268 509q86 0 132 -40t46 -114q0 -19 -3 -40l-22 -141q-30 -186 -213 -186q-86 0 -132.5 39.5t-46.5 113.5q0 18 4 41l22 141q30 186 213 186zM212 82q86 0 102 105l19 124q3 16 3 31q0 73 -73 73q-85 0 -101 -105l-19 -124q-3 -17 -3 -31q0 -73 72 -73zM341 577
q-10 -11 -25 -11h-62q-13 0 -17 7t4 17l91 121q9 12 24 12h77q13 0 16.5 -7t-5.5 -18z" />
    <glyph glyph-name="ocircumflex" unicode="&#xf4;" horiz-adv-x="477" 
d="M268 509q86 0 132 -40t46 -114q0 -19 -3 -40l-22 -141q-30 -186 -213 -186q-86 0 -132.5 39.5t-46.5 113.5q0 18 4 41l22 141q30 186 213 186zM212 82q86 0 102 105l19 124q3 16 3 31q0 73 -73 73q-85 0 -101 -105l-19 -124q-3 -17 -3 -31q0 -73 72 -73zM246 577
q-10 -11 -25 -11h-57q-13 0 -16 7t5 18l101 121q10 11 25 11h65q16 0 23 -14l62 -119q5 -11 1 -17.5t-16 -6.5h-49q-16 0 -24 14l-35 67z" />
    <glyph glyph-name="otilde" unicode="&#xf5;" horiz-adv-x="477" 
d="M268 509q86 0 132 -40t46 -114q0 -19 -3 -40l-22 -141q-30 -186 -213 -186q-86 0 -132.5 39.5t-46.5 113.5q0 18 4 41l22 141q30 186 213 186zM212 82q86 0 102 105l19 124q3 16 3 31q0 73 -73 73q-85 0 -101 -105l-19 -124q-3 -17 -3 -31q0 -73 72 -73zM156 570
q-21 0 -16 22q14 59 42.5 86.5t68.5 27.5q19 0 33.5 -6.5t32.5 -22.5q8 -8 16.5 -13.5t19.5 -5.5q23 0 36 34q6 16 22 16h32q21 0 16 -21q-14 -60 -42.5 -87.5t-68.5 -27.5q-19 0 -33.5 6.5t-32.5 23.5q-12 11 -19.5 15t-16.5 4q-23 0 -37 -35q-6 -16 -22 -16h-31z" />
    <glyph glyph-name="odieresis" unicode="&#xf6;" horiz-adv-x="477" 
d="M268 509q86 0 132 -40t46 -114q0 -19 -3 -40l-22 -141q-30 -186 -213 -186q-86 0 -132.5 39.5t-46.5 113.5q0 18 4 41l22 141q30 186 213 186zM212 82q86 0 102 105l19 124q3 16 3 31q0 73 -73 73q-85 0 -101 -105l-19 -124q-3 -17 -3 -31q0 -73 72 -73zM209 584
q-26 0 -41 15.5t-15 39.5q0 29 17 47.5t46 18.5q26 0 41.5 -15.5t15.5 -40.5q0 -28 -18.5 -46.5t-45.5 -18.5zM384 584q-26 0 -41.5 16t-15.5 41q0 28 18.5 46t45.5 18q26 0 41.5 -15.5t15.5 -40.5q0 -28 -18.5 -46.5t-45.5 -18.5z" />
    <glyph glyph-name="divide" unicode="&#xf7;" horiz-adv-x="529" 
d="M296 412q-29 0 -46 17t-17 45q0 32 21 51.5t51 19.5q28 0 45 -17t17 -43q0 -33 -19.5 -53t-51.5 -20zM43 229q-26 0 -21 25l9 55q3 21 24 21h440q26 0 21 -25l-9 -55q-3 -21 -24 -21h-440zM232 13q-29 0 -45.5 17t-16.5 45q0 32 21 51.5t51 19.5q29 0 45.5 -17t16.5 -45
q0 -32 -20.5 -51.5t-51.5 -19.5z" />
    <glyph glyph-name="oslash" unicode="&#xf8;" horiz-adv-x="477" 
d="M459 471q14 -14 2 -28l-25 -28q10 -26 10 -60q0 -19 -3 -40l-22 -141q-30 -186 -213 -186q-72 0 -117 28l-16 -18q-12 -15 -28 -1l-31 29q-14 14 -2 28l24 28q-9 27 -9 59q0 18 4 41l22 141q30 186 213 186q71 0 116 -28l16 18q12 15 28 1zM263 415q-44 0 -68 -25.5
t-33 -79.5l-16 -102h2l166 192q-18 15 -51 15zM161 97q18 -15 51 -15q86 0 102 105l16 103h-2z" />
    <glyph glyph-name="ugrave" unicode="&#xf9;" horiz-adv-x="487" 
d="M418 168q-29 -180 -206 -180q-83 0 -127.5 38.5t-44.5 110.5q0 18 3 39l48 300q3 21 24 21h63q26 0 21 -25l-47 -296q-2 -8 -2 -15v-13q0 -35 17 -50.5t52 -15.5q43 0 65 24t30 74l47 296q3 21 24 21h60q26 0 21 -25zM272 566q-16 0 -24 14l-64 119q-6 11 -2 17.5t16 6.5
h69q16 0 24 -15l51 -119q10 -23 -15 -23h-55z" />
    <glyph glyph-name="uacute" unicode="&#xfa;" horiz-adv-x="487" 
d="M418 168q-29 -180 -206 -180q-83 0 -127.5 38.5t-44.5 110.5q0 18 3 39l48 300q3 21 24 21h63q26 0 21 -25l-47 -296q-2 -8 -2 -15v-13q0 -35 17 -50.5t52 -15.5q43 0 65 24t30 74l47 296q3 21 24 21h60q26 0 21 -25zM346 577q-10 -11 -25 -11h-62q-13 0 -17 7t4 17
l91 121q9 12 24 12h77q13 0 16.5 -7t-5.5 -18z" />
    <glyph glyph-name="ucircumflex" unicode="&#xfb;" horiz-adv-x="487" 
d="M418 168q-29 -180 -206 -180q-83 0 -127.5 38.5t-44.5 110.5q0 18 3 39l48 300q3 21 24 21h63q26 0 21 -25l-47 -296q-2 -8 -2 -15v-13q0 -35 17 -50.5t52 -15.5q43 0 65 24t30 74l47 296q3 21 24 21h60q26 0 21 -25zM251 577q-10 -11 -25 -11h-57q-13 0 -16 7t5 18
l101 121q10 11 25 11h65q16 0 23 -14l62 -119q5 -11 1 -17.5t-16 -6.5h-49q-16 0 -24 14l-35 67z" />
    <glyph glyph-name="udieresis" unicode="&#xfc;" horiz-adv-x="487" 
d="M418 168q-29 -180 -206 -180q-83 0 -127.5 38.5t-44.5 110.5q0 18 3 39l48 300q3 21 24 21h63q26 0 21 -25l-47 -296q-2 -8 -2 -15v-13q0 -35 17 -50.5t52 -15.5q43 0 65 24t30 74l47 296q3 21 24 21h60q26 0 21 -25zM214 584q-26 0 -41 15.5t-15 39.5q0 29 17 47.5
t46 18.5q26 0 41.5 -15.5t15.5 -40.5q0 -28 -18.5 -46.5t-45.5 -18.5zM389 584q-26 0 -41.5 16t-15.5 41q0 28 18.5 46t45.5 18q26 0 41.5 -15.5t15.5 -40.5q0 -28 -18.5 -46.5t-45.5 -18.5z" />
    <glyph glyph-name="yacute" unicode="&#xfd;" horiz-adv-x="498" 
d="M451 497q26 0 21 -25l-73 -465q-14 -86 -68.5 -132.5t-144.5 -46.5q-51 0 -93 13.5t-71 39.5q-17 14 -2 32l31 41q15 18 32 2q22 -18 47 -26t54 -8q92 0 107 93l4 26h-2q-38 -35 -102 -35q-72 0 -110 37.5t-38 107.5q0 11 1 22.5t3 23.5l44 279q3 21 24 21h63
q26 0 21 -25l-43 -272q-3 -17 -3 -30q0 -70 71 -70q79 0 96 101l44 275q3 21 24 21h63zM349 577q-10 -11 -25 -11h-62q-13 0 -17 7t4 17l91 121q9 12 24 12h77q13 0 16.5 -7t-5.5 -18z" />
    <glyph glyph-name="thorn" unicode="&#xfe;" horiz-adv-x="493" 
d="M307 509q76 0 116 -38t40 -109q0 -24 -4 -47l-22 -141q-30 -186 -197 -186q-73 0 -104 45h-2l-28 -172q-3 -21 -24 -21h-63q-26 0 -21 25l131 814q3 21 24 21h63q26 0 21 -25l-32 -200h2q38 34 100 34zM350 311q3 16 3 30q0 74 -74 74q-83 0 -100 -105l-20 -124
q-3 -17 -3 -30q0 -74 73 -74q85 0 101 105z" />
    <glyph glyph-name="ydieresis" unicode="&#xff;" horiz-adv-x="498" 
d="M451 497q26 0 21 -25l-73 -465q-14 -86 -68.5 -132.5t-144.5 -46.5q-51 0 -93 13.5t-71 39.5q-17 14 -2 32l31 41q15 18 32 2q22 -18 47 -26t54 -8q92 0 107 93l4 26h-2q-38 -35 -102 -35q-72 0 -110 37.5t-38 107.5q0 11 1 22.5t3 23.5l44 279q3 21 24 21h63
q26 0 21 -25l-43 -272q-3 -17 -3 -30q0 -70 71 -70q79 0 96 101l44 275q3 21 24 21h63zM217 584q-26 0 -41 15.5t-15 39.5q0 29 17 47.5t46 18.5q26 0 41.5 -15.5t15.5 -40.5q0 -28 -18.5 -46.5t-45.5 -18.5zM392 584q-26 0 -41.5 16t-15.5 41q0 28 18.5 46t45.5 18
q26 0 41.5 -15.5t15.5 -40.5q0 -28 -18.5 -46.5t-45.5 -18.5z" />
    <glyph glyph-name="Amacron" unicode="&#x100;" horiz-adv-x="594" 
d="M532 25q5 -25 -21 -25h-75q-21 0 -24 21l-14 99h-238l-47 -103q-9 -17 -27 -17h-79q-14 0 -18.5 7.5t1.5 19.5l300 620q8 17 27 17h88q21 0 24 -21zM340 523l-134 -301h178l-42 301h-2zM515 769q-3 -18 -22 -18h-233q-22 0 -19 21l8 49q3 18 21 18h234q22 0 19 -21z" />
    <glyph glyph-name="amacron" unicode="&#x101;" horiz-adv-x="460" 
d="M247 509q87 0 134 -40t47 -117q0 -20 -3 -41l-22 -137q-14 -92 -67.5 -139t-149.5 -47q-83 0 -126.5 37.5t-43.5 106.5q0 81 50 123.5t151 42.5h97q2 14 3 22t1 16q0 42 -21.5 60.5t-64.5 18.5q-24 0 -47.5 -9t-43.5 -23q-20 -15 -32 6l-22 42q-11 19 9 33q37 24 73 34.5
t78 10.5zM194 82q86 0 102 105l5 30h-78q-47 0 -72 -19.5t-25 -57.5q0 -29 18 -43.5t50 -14.5zM426 608q-3 -18 -22 -18h-233q-22 0 -19 21l8 49q3 18 21 18h234q22 0 19 -21z" />
    <glyph glyph-name="Abreve" unicode="&#x102;" horiz-adv-x="594" 
d="M532 25q5 -25 -21 -25h-75q-21 0 -24 21l-14 99h-238l-47 -103q-9 -17 -27 -17h-79q-14 0 -18.5 7.5t1.5 19.5l300 620q8 17 27 17h88q21 0 24 -21zM340 523l-134 -301h178l-42 301h-2zM519 871q22 0 17 -21q-14 -58 -53.5 -87t-97.5 -29q-63 0 -97.5 31.5t-36.5 86.5
q0 19 19 19h41q9 0 13.5 -4.5t6.5 -13.5q9 -34 56 -34q23 0 41 9.5t28 27.5q7 15 22 15h41z" />
    <glyph glyph-name="abreve" unicode="&#x103;" horiz-adv-x="460" 
d="M247 509q87 0 134 -40t47 -117q0 -20 -3 -41l-22 -137q-14 -92 -67.5 -139t-149.5 -47q-83 0 -126.5 37.5t-43.5 106.5q0 81 50 123.5t151 42.5h97q2 14 3 22t1 16q0 42 -21.5 60.5t-64.5 18.5q-24 0 -47.5 -9t-43.5 -23q-20 -15 -32 6l-22 42q-11 19 9 33q37 24 73 34.5
t78 10.5zM194 82q86 0 102 105l5 30h-78q-47 0 -72 -19.5t-25 -57.5q0 -29 18 -43.5t50 -14.5zM430 710q22 0 17 -21q-14 -58 -53.5 -87t-97.5 -29q-63 0 -97.5 31.5t-36.5 86.5q0 19 19 19h41q9 0 13.5 -4.5t6.5 -13.5q9 -34 56 -34q23 0 41 9.5t28 27.5q7 15 22 15h41z
" />
    <glyph glyph-name="Aogonek" unicode="&#x104;" horiz-adv-x="594" 
d="M525 -118q10 -16 -4 -28q-35 -26 -81 -26q-42 0 -65.5 21t-23.5 53q0 64 67 102v3q-4 4 -6 14l-14 99h-238l-47 -103q-9 -17 -27 -17h-79q-14 0 -18.5 7.5t1.5 19.5l300 620q8 17 27 17h88q21 0 24 -21l103 -618q5 -25 -21 -25h-6q-35 -12 -55 -31.5t-20 -42.5
q0 -11 7 -18.5t19 -7.5q13 0 27 9q17 13 28 -4zM340 523l-134 -301h178l-42 301h-2z" />
    <glyph glyph-name="aogonek" unicode="&#x105;" horiz-adv-x="460" 
d="M247 509q87 0 134 -40t47 -117q0 -20 -3 -41l-22 -137q-19 -127 -117 -170q-33 -14 -49.5 -34.5t-16.5 -43.5q0 -11 7 -18.5t18 -7.5q13 0 27 9q17 13 28 -4l14 -23q10 -16 -4 -28q-29 -26 -78 -26q-42 0 -65.5 21.5t-23.5 56.5q0 20 9 41t29 39v2q-81 2 -123 39t-42 105
q0 81 50 123.5t151 42.5h97q2 14 3 22t1 16q0 42 -21.5 60.5t-64.5 18.5q-24 0 -47.5 -9t-43.5 -23q-21 -16 -32 6l-22 42q-11 19 9 33q37 24 73 34.5t78 10.5zM223 217q-47 0 -72 -19.5t-25 -57.5q0 -29 18 -43.5t50 -14.5q86 0 102 105l5 30h-78z" />
    <glyph glyph-name="Cacute" unicode="&#x106;" horiz-adv-x="524" 
d="M266 92q77 0 125 68q14 20 32 6l49 -36q19 -13 5 -32q-42 -57 -94.5 -83.5t-124.5 -26.5q-102 0 -158 50t-56 142q0 12 1.5 25.5t3.5 27.5l33 208q36 235 266 235q72 0 122.5 -29.5t76.5 -86.5q9 -19 -11 -30l-56 -30q-19 -10 -30 11q-16 29 -42.5 45t-66.5 16
q-119 0 -143 -148l-29 -185q-4 -23 -4 -42q0 -105 101 -105zM411 738q-10 -11 -25 -11h-62q-13 0 -17 7t4 17l91 121q9 12 24 12h77q13 0 16.5 -7t-5.5 -18z" />
    <glyph glyph-name="cacute" unicode="&#x107;" horiz-adv-x="401" 
d="M351 66q11 -19 -5 -32q-58 -46 -135 -46q-85 0 -133 40.5t-48 117.5q0 11 1 22t3 22l20 126q31 193 214 193q43 0 76 -11t56 -30q8 -7 8 -15.5t-7 -16.5l-33 -39q-13 -16 -32 -2q-26 20 -65 20q-46 0 -73 -26.5t-37 -85.5l-17 -109q-3 -18 -3 -33q0 -42 20.5 -60.5
t61.5 -18.5q20 0 37.5 7.5t34.5 20.5q20 14 32 -5zM324 577q-10 -11 -25 -11h-62q-13 0 -17 7t4 17l91 121q9 12 24 12h77q13 0 16.5 -7t-5.5 -18z" />
    <glyph glyph-name="Ccircumflex" unicode="&#x108;" horiz-adv-x="524" 
d="M266 92q77 0 125 68q14 20 32 6l49 -36q19 -13 5 -32q-42 -57 -94.5 -83.5t-124.5 -26.5q-102 0 -158 50t-56 142q0 12 1.5 25.5t3.5 27.5l33 208q36 235 266 235q72 0 122.5 -29.5t76.5 -86.5q9 -19 -11 -30l-56 -30q-19 -10 -30 11q-16 29 -42.5 45t-66.5 16
q-119 0 -143 -148l-29 -185q-4 -23 -4 -42q0 -105 101 -105zM316 738q-10 -11 -25 -11h-57q-13 0 -16 7t5 18l101 121q10 11 25 11h65q16 0 23 -14l62 -119q5 -11 1 -17.5t-16 -6.5h-49q-16 0 -24 14l-35 67z" />
    <glyph glyph-name="ccircumflex" unicode="&#x109;" horiz-adv-x="401" 
d="M351 66q11 -19 -5 -32q-58 -46 -135 -46q-85 0 -133 40.5t-48 117.5q0 11 1 22t3 22l20 126q31 193 214 193q43 0 76 -11t56 -30q8 -7 8 -15.5t-7 -16.5l-33 -39q-13 -16 -32 -2q-26 20 -65 20q-46 0 -73 -26.5t-37 -85.5l-17 -109q-3 -18 -3 -33q0 -42 20.5 -60.5
t61.5 -18.5q20 0 37.5 7.5t34.5 20.5q20 14 32 -5zM229 577q-10 -11 -25 -11h-57q-13 0 -16 7t5 18l101 121q10 11 25 11h65q16 0 23 -14l62 -119q5 -11 1 -17.5t-16 -6.5h-49q-16 0 -24 14l-35 67z" />
    <glyph glyph-name="Cdotaccent" unicode="&#x10a;" horiz-adv-x="524" 
d="M266 92q77 0 125 68q14 20 32 6l49 -36q19 -13 5 -32q-42 -57 -94.5 -83.5t-124.5 -26.5q-102 0 -158 50t-56 142q0 12 1.5 25.5t3.5 27.5l33 208q36 235 266 235q72 0 122.5 -29.5t76.5 -86.5q9 -19 -11 -30l-56 -30q-19 -10 -30 11q-16 29 -42.5 45t-66.5 16
q-119 0 -143 -148l-29 -185q-4 -23 -4 -42q0 -105 101 -105zM366 741q-27 0 -43.5 16.5t-16.5 42.5q0 31 19.5 50.5t48.5 19.5q28 0 44.5 -16.5t16.5 -43.5q0 -31 -20 -50t-49 -19z" />
    <glyph glyph-name="cdotaccent" unicode="&#x10b;" horiz-adv-x="401" 
d="M351 66q11 -19 -5 -32q-58 -46 -135 -46q-85 0 -133 40.5t-48 117.5q0 11 1 22t3 22l20 126q31 193 214 193q43 0 76 -11t56 -30q8 -7 8 -15.5t-7 -16.5l-33 -39q-13 -16 -32 -2q-26 20 -65 20q-46 0 -73 -26.5t-37 -85.5l-17 -109q-3 -18 -3 -33q0 -42 20.5 -60.5
t61.5 -18.5q20 0 37.5 7.5t34.5 20.5q20 14 32 -5zM279 580q-27 0 -43.5 16.5t-16.5 42.5q0 31 19.5 50.5t48.5 19.5q28 0 44.5 -16.5t16.5 -43.5q0 -31 -20 -50t-49 -19z" />
    <glyph glyph-name="Ccaron" unicode="&#x10c;" horiz-adv-x="524" 
d="M266 92q77 0 125 68q14 20 32 6l49 -36q19 -13 5 -32q-42 -57 -94.5 -83.5t-124.5 -26.5q-102 0 -158 50t-56 142q0 12 1.5 25.5t3.5 27.5l33 208q36 235 266 235q72 0 122.5 -29.5t76.5 -86.5q9 -19 -11 -30l-56 -30q-19 -10 -30 11q-16 29 -42.5 45t-66.5 16
q-119 0 -143 -148l-29 -185q-4 -23 -4 -42q0 -105 101 -105zM417 738q-10 -11 -25 -11h-64q-16 0 -23 14l-63 119q-5 11 -1 17.5t16 6.5h50q16 0 24 -14l35 -67l59 70q10 11 25 11h58q13 0 16 -7t-5 -18z" />
    <glyph glyph-name="ccaron" unicode="&#x10d;" horiz-adv-x="401" 
d="M351 66q11 -19 -5 -32q-58 -46 -135 -46q-85 0 -133 40.5t-48 117.5q0 11 1 22t3 22l20 126q31 193 214 193q43 0 76 -11t56 -30q8 -7 8 -15.5t-7 -16.5l-33 -39q-13 -16 -32 -2q-26 20 -65 20q-46 0 -73 -26.5t-37 -85.5l-17 -109q-3 -18 -3 -33q0 -42 20.5 -60.5
t61.5 -18.5q20 0 37.5 7.5t34.5 20.5q20 14 32 -5zM330 577q-10 -11 -25 -11h-64q-16 0 -23 14l-63 119q-5 11 -1 17.5t16 6.5h50q16 0 24 -14l35 -67l59 70q10 11 25 11h58q13 0 16 -7t-5 -18z" />
    <glyph glyph-name="Dcaron" unicode="&#x10e;" horiz-adv-x="592" 
d="M355 664q107 0 162.5 -45.5t55.5 -134.5q0 -13 -1.5 -27t-3.5 -28l-33 -203q-19 -116 -84 -171t-189 -55h-204q-26 0 -21 25l98 618q3 21 24 21h196zM448 423q3 19 3 37q0 100 -112 100h-98l-73 -456h98q67 0 104.5 33.5t48.5 104.5zM415 738q-10 -11 -25 -11h-64
q-16 0 -23 14l-63 119q-5 11 -1 17.5t16 6.5h50q16 0 24 -14l35 -67l59 70q10 11 25 11h58q13 0 16 -7t-5 -18z" />
    <glyph glyph-name="dcaron" unicode="&#x10f;" horiz-adv-x="489" 
d="M479 700q26 0 21 -25l-79 -501q-14 -92 -67.5 -139t-145.5 -47q-86 0 -132.5 40t-46.5 113q0 10 1 20t3 21l22 141q30 186 198 186q70 0 102 -44h2l35 214q3 21 24 21h63zM333 311q2 8 2 15v14q0 75 -71 75q-87 0 -103 -105l-19 -124q-3 -17 -3 -31q0 -73 73 -73
q85 0 101 105zM596 514q-6 -16 -23 -16h-38q-23 0 -18 22l41 163q5 17 22 17h56q24 0 16 -23z" />
    <glyph glyph-name="Dcroat" unicode="&#x110;" horiz-adv-x="605" 
d="M368 664q107 0 162.5 -45.5t55.5 -134.5q0 -13 -1.5 -27t-3.5 -28l-33 -203q-19 -116 -84 -171t-189 -55h-204q-26 0 -21 25l42 263h-40q-24 0 -19 23l9 56q3 19 22 19h43l41 257q3 21 24 21h196zM461 423q3 19 3 37q0 100 -112 100h-98l-28 -174h95q24 0 19 -23l-9 -56
q-3 -19 -22 -19h-99l-29 -184h98q67 0 104.5 33.5t48.5 104.5z" />
    <glyph glyph-name="dcroat" unicode="&#x111;" horiz-adv-x="492" 
d="M527 632q21 0 18 -22l-7 -44q-3 -18 -21 -18h-37l-59 -374q-15 -92 -68 -139t-145 -47q-86 0 -132.5 40t-46.5 113q0 10 1 20t3 21l22 141q30 186 198 186q70 0 102 -44h2l14 83h-111q-22 0 -19 21l7 45q3 18 22 18h114l8 47q3 21 24 21h63q26 0 21 -25l-7 -43h34z
M333 311q2 8 2 15v14q0 75 -71 75q-87 0 -103 -105l-19 -124q-3 -17 -3 -31q0 -73 73 -73q85 0 101 105z" />
    <glyph glyph-name="Emacron" unicode="&#x112;" horiz-adv-x="539" 
d="M450 388q26 0 21 -25l-9 -58q-3 -21 -24 -21h-241l-29 -180h282q26 0 21 -25l-10 -58q-3 -21 -24 -21h-379q-26 0 -21 25l98 618q3 21 24 21h379q26 0 21 -25l-9 -58q-3 -21 -24 -21h-285l-28 -172h237zM503 769q-3 -18 -22 -18h-233q-22 0 -19 21l8 49q3 18 21 18h234
q22 0 19 -21z" />
    <glyph glyph-name="emacron" unicode="&#x113;" horiz-adv-x="460" 
d="M264 509q85 0 130 -40t45 -114q0 -19 -3 -40l-13 -80q-3 -21 -24 -21h-252l-3 -20q-3 -18 -3 -34q0 -42 22 -60t67 -18q49 0 90 35q20 15 33 -4l25 -40q11 -19 -5 -32q-67 -53 -151 -53q-93 0 -142.5 40t-49.5 118q0 21 4 44l21 133q30 186 209 186zM262 415
q-44 0 -68 -25.5t-33 -79.5l-2 -14h170l2 15q3 18 3 33q0 71 -72 71zM429 608q-3 -18 -22 -18h-233q-22 0 -19 21l8 49q3 18 21 18h234q22 0 19 -21z" />
    <glyph glyph-name="Ebreve" unicode="&#x114;" horiz-adv-x="539" 
d="M450 388q26 0 21 -25l-9 -58q-3 -21 -24 -21h-241l-29 -180h282q26 0 21 -25l-10 -58q-3 -21 -24 -21h-379q-26 0 -21 25l98 618q3 21 24 21h379q26 0 21 -25l-9 -58q-3 -21 -24 -21h-285l-28 -172h237zM507 871q22 0 17 -21q-14 -58 -53.5 -87t-97.5 -29
q-63 0 -97.5 31.5t-36.5 86.5q0 19 19 19h41q9 0 13.5 -4.5t6.5 -13.5q9 -34 56 -34q23 0 41 9.5t28 27.5q7 15 22 15h41z" />
    <glyph glyph-name="ebreve" unicode="&#x115;" horiz-adv-x="460" 
d="M264 509q85 0 130 -40t45 -114q0 -19 -3 -40l-13 -80q-3 -21 -24 -21h-252l-3 -20q-3 -18 -3 -34q0 -42 22 -60t67 -18q49 0 90 35q20 15 33 -4l25 -40q11 -19 -5 -32q-67 -53 -151 -53q-93 0 -142.5 40t-49.5 118q0 21 4 44l21 133q30 186 209 186zM262 415
q-44 0 -68 -25.5t-33 -79.5l-2 -14h170l2 15q3 18 3 33q0 71 -72 71zM433 710q22 0 17 -21q-14 -58 -53.5 -87t-97.5 -29q-63 0 -97.5 31.5t-36.5 86.5q0 19 19 19h41q9 0 13.5 -4.5t6.5 -13.5q9 -34 56 -34q23 0 41 9.5t28 27.5q7 15 22 15h41z" />
    <glyph glyph-name="Edotaccent" unicode="&#x116;" horiz-adv-x="539" 
d="M450 388q26 0 21 -25l-9 -58q-3 -21 -24 -21h-241l-29 -180h282q26 0 21 -25l-10 -58q-3 -21 -24 -21h-379q-26 0 -21 25l98 618q3 21 24 21h379q26 0 21 -25l-9 -58q-3 -21 -24 -21h-285l-28 -172h237zM368 741q-27 0 -43.5 16.5t-16.5 42.5q0 31 19.5 50.5t48.5 19.5
q28 0 44.5 -16.5t16.5 -43.5q0 -31 -20 -50t-49 -19z" />
    <glyph glyph-name="edotaccent" unicode="&#x117;" horiz-adv-x="460" 
d="M264 509q85 0 130 -40t45 -114q0 -19 -3 -40l-13 -80q-3 -21 -24 -21h-252l-3 -20q-3 -18 -3 -34q0 -42 22 -60t67 -18q49 0 90 35q20 15 33 -4l25 -40q11 -19 -5 -32q-67 -53 -151 -53q-93 0 -142.5 40t-49.5 118q0 21 4 44l21 133q30 186 209 186zM262 415
q-44 0 -68 -25.5t-33 -79.5l-2 -14h170l2 15q3 18 3 33q0 71 -72 71zM294 580q-27 0 -43.5 16.5t-16.5 42.5q0 31 19.5 50.5t48.5 19.5q28 0 44.5 -16.5t16.5 -43.5q0 -31 -20 -50t-49 -19z" />
    <glyph glyph-name="Eogonek" unicode="&#x118;" horiz-adv-x="539" 
d="M538 664q26 0 21 -25l-9 -58q-3 -21 -24 -21h-285l-28 -172h237q26 0 21 -25l-9 -58q-3 -21 -24 -21h-241l-29 -180h282q26 0 21 -25l-10 -58q-3 -21 -24 -21h-12q-42 -13 -63 -33.5t-21 -41.5q0 -25 26 -25q13 0 27 9q17 13 28 -4l14 -23q10 -16 -4 -28q-35 -26 -82 -26
q-40 0 -63.5 20t-23.5 52q0 28 12.5 53t44.5 45v2h-262q-26 0 -21 25l98 618q3 21 24 21h379z" />
    <glyph glyph-name="eogonek" unicode="&#x119;" horiz-adv-x="460" 
d="M264 509q85 0 130 -40t45 -114q0 -19 -3 -40l-13 -80q-3 -21 -24 -21h-252l-3 -20q-3 -18 -3 -34q0 -42 22 -60t67 -18q26 0 47.5 9t42.5 26q21 16 33 -4l25 -40q11 -19 -5 -32q-14 -11 -28.5 -19t-30.5 -16q-67 -31 -67 -80q0 -11 7 -18.5t18 -7.5q13 0 27 9
q17 13 28 -4l14 -23q10 -16 -4 -28q-29 -26 -78 -26q-42 0 -65.5 21.5t-23.5 56.5q0 20 9 41t29 39v2q-87 4 -132.5 43.5t-45.5 114.5q0 21 4 44l21 133q30 186 209 186zM331 311q3 18 3 33q0 71 -72 71q-44 0 -68 -25.5t-33 -79.5l-2 -14h170z" />
    <glyph glyph-name="Ecaron" unicode="&#x11a;" horiz-adv-x="539" 
d="M450 388q26 0 21 -25l-9 -58q-3 -21 -24 -21h-241l-29 -180h282q26 0 21 -25l-10 -58q-3 -21 -24 -21h-379q-26 0 -21 25l98 618q3 21 24 21h379q26 0 21 -25l-9 -58q-3 -21 -24 -21h-285l-28 -172h237zM419 738q-10 -11 -25 -11h-64q-16 0 -23 14l-63 119q-5 11 -1 17.5
t16 6.5h50q16 0 24 -14l35 -67l59 70q10 11 25 11h58q13 0 16 -7t-5 -18z" />
    <glyph glyph-name="ecaron" unicode="&#x11b;" horiz-adv-x="460" 
d="M264 509q85 0 130 -40t45 -114q0 -19 -3 -40l-13 -80q-3 -21 -24 -21h-252l-3 -20q-3 -18 -3 -34q0 -42 22 -60t67 -18q49 0 90 35q20 15 33 -4l25 -40q11 -19 -5 -32q-67 -53 -151 -53q-93 0 -142.5 40t-49.5 118q0 21 4 44l21 133q30 186 209 186zM262 415
q-44 0 -68 -25.5t-33 -79.5l-2 -14h170l2 15q3 18 3 33q0 71 -72 71zM345 577q-10 -11 -25 -11h-64q-16 0 -23 14l-63 119q-5 11 -1 17.5t16 6.5h50q16 0 24 -14l35 -67l59 70q10 11 25 11h58q13 0 16 -7t-5 -18z" />
    <glyph glyph-name="Gcircumflex" unicode="&#x11c;" horiz-adv-x="571" 
d="M527 229q-38 -241 -265 -241q-105 0 -161.5 50t-56.5 142q0 12 1.5 25.5t3.5 27.5l33 208q36 235 272 235q75 0 128.5 -29.5t80.5 -86.5q9 -19 -11 -30l-57 -30q-19 -10 -30 10q-19 30 -48 46t-72 16q-123 0 -147 -148l-29 -185q-3 -23 -3 -42q0 -105 104 -105
q63 0 97.5 37.5t47.5 114.5l3 22h-99q-26 0 -21 25l9 58q3 21 24 21h193q26 0 21 -25zM322 738q-10 -11 -25 -11h-57q-13 0 -16 7t5 18l101 121q10 11 25 11h65q16 0 23 -14l62 -119q5 -11 1 -17.5t-16 -6.5h-49q-16 0 -24 14l-35 67z" />
    <glyph glyph-name="gcircumflex" unicode="&#x11d;" horiz-adv-x="489" 
d="M268 509q86 0 132.5 -40t46.5 -113q0 -10 -1 -20t-3 -21l-49 -308q-14 -86 -68 -132.5t-145 -46.5q-51 0 -92.5 13.5t-70.5 39.5q-17 14 -2 32l31 41q15 18 32 2q22 -18 47 -26t54 -8q92 0 106 93l4 24h-2q-36 -32 -97 -32q-76 0 -117.5 38.5t-41.5 110.5q0 11 1 22t3 23
l19 122q15 92 67.5 139t145.5 47zM333 311q3 16 3 31q0 73 -73 73q-44 0 -68 -25.5t-32 -79.5l-17 -105q-3 -17 -3 -31q0 -73 73 -73q85 0 100 105zM246 577q-10 -11 -25 -11h-57q-13 0 -16 7t5 18l101 121q10 11 25 11h65q16 0 23 -14l62 -119q5 -11 1 -17.5t-16 -6.5h-49
q-16 0 -24 14l-35 67z" />
    <glyph glyph-name="Gbreve" unicode="&#x11e;" horiz-adv-x="571" 
d="M527 229q-38 -241 -265 -241q-105 0 -161.5 50t-56.5 142q0 12 1.5 25.5t3.5 27.5l33 208q36 235 272 235q75 0 128.5 -29.5t80.5 -86.5q9 -19 -11 -30l-57 -30q-19 -10 -30 10q-19 30 -48 46t-72 16q-123 0 -147 -148l-29 -185q-3 -23 -3 -42q0 -105 104 -105
q63 0 97.5 37.5t47.5 114.5l3 22h-99q-26 0 -21 25l9 58q3 21 24 21h193q26 0 21 -25zM511 871q22 0 17 -21q-14 -58 -53.5 -87t-97.5 -29q-63 0 -97.5 31.5t-36.5 86.5q0 19 19 19h41q9 0 13.5 -4.5t6.5 -13.5q9 -34 56 -34q23 0 41 9.5t28 27.5q7 15 22 15h41z" />
    <glyph glyph-name="gbreve" unicode="&#x11f;" horiz-adv-x="489" 
d="M268 509q86 0 132.5 -40t46.5 -113q0 -10 -1 -20t-3 -21l-49 -308q-14 -86 -68 -132.5t-145 -46.5q-51 0 -92.5 13.5t-70.5 39.5q-17 14 -2 32l31 41q15 18 32 2q22 -18 47 -26t54 -8q92 0 106 93l4 24h-2q-36 -32 -97 -32q-76 0 -117.5 38.5t-41.5 110.5q0 11 1 22t3 23
l19 122q15 92 67.5 139t145.5 47zM333 311q3 16 3 31q0 73 -73 73q-44 0 -68 -25.5t-32 -79.5l-17 -105q-3 -17 -3 -31q0 -73 73 -73q85 0 100 105zM435 710q22 0 17 -21q-14 -58 -53.5 -87t-97.5 -29q-63 0 -97.5 31.5t-36.5 86.5q0 19 19 19h41q9 0 13.5 -4.5t6.5 -13.5
q9 -34 56 -34q23 0 41 9.5t28 27.5q7 15 22 15h41z" />
    <glyph glyph-name="Gdotaccent" unicode="&#x120;" horiz-adv-x="571" 
d="M527 229q-38 -241 -265 -241q-105 0 -161.5 50t-56.5 142q0 12 1.5 25.5t3.5 27.5l33 208q36 235 272 235q75 0 128.5 -29.5t80.5 -86.5q9 -19 -11 -30l-57 -30q-19 -10 -30 10q-19 30 -48 46t-72 16q-123 0 -147 -148l-29 -185q-3 -23 -3 -42q0 -105 104 -105
q63 0 97.5 37.5t47.5 114.5l3 22h-99q-26 0 -21 25l9 58q3 21 24 21h193q26 0 21 -25zM372 741q-27 0 -43.5 16.5t-16.5 42.5q0 31 19.5 50.5t48.5 19.5q28 0 44.5 -16.5t16.5 -43.5q0 -31 -20 -50t-49 -19z" />
    <glyph glyph-name="gdotaccent" unicode="&#x121;" horiz-adv-x="489" 
d="M268 509q86 0 132.5 -40t46.5 -113q0 -10 -1 -20t-3 -21l-49 -308q-14 -86 -68 -132.5t-145 -46.5q-51 0 -92.5 13.5t-70.5 39.5q-17 14 -2 32l31 41q15 18 32 2q22 -18 47 -26t54 -8q92 0 106 93l4 24h-2q-36 -32 -97 -32q-76 0 -117.5 38.5t-41.5 110.5q0 11 1 22t3 23
l19 122q15 92 67.5 139t145.5 47zM333 311q3 16 3 31q0 73 -73 73q-44 0 -68 -25.5t-32 -79.5l-17 -105q-3 -17 -3 -31q0 -73 73 -73q85 0 100 105zM296 580q-27 0 -43.5 16.5t-16.5 42.5q0 31 19.5 50.5t48.5 19.5q28 0 44.5 -16.5t16.5 -43.5q0 -31 -20 -50t-49 -19z" />
    <glyph glyph-name="Gcommaaccent" unicode="&#x122;" horiz-adv-x="571" 
d="M527 229q-38 -241 -265 -241q-105 0 -161.5 50t-56.5 142q0 12 1.5 25.5t3.5 27.5l33 208q36 235 272 235q75 0 128.5 -29.5t80.5 -86.5q9 -19 -11 -30l-57 -30q-19 -10 -30 10q-19 30 -48 46t-72 16q-123 0 -147 -148l-29 -185q-3 -23 -3 -42q0 -105 104 -105
q63 0 97.5 37.5t47.5 114.5l3 22h-99q-26 0 -21 25l9 58q3 21 24 21h193q26 0 21 -25zM239 -44q24 0 40 -16t16 -44q0 -19 -6.5 -38.5t-18.5 -36t-28 -30t-35 -20.5q-13 -5 -19 8l-10 20q-6 12 6 19q17 9 28 27q-37 11 -37 50q0 29 18.5 45t45.5 16z" />
    <glyph glyph-name="gcommaaccent" unicode="&#x123;" horiz-adv-x="489" 
d="M323 683q16 -5 25.5 -17.5t9.5 -31.5q0 -29 -17 -45.5t-46 -16.5q-24 0 -40 15.5t-16 42.5q0 41 25 75.5t63 50.5q12 5 20 -7l11 -19q4 -7 1.5 -11.5t-9.5 -9.5q-18 -10 -27 -26zM268 509q86 0 132.5 -40t46.5 -113q0 -10 -1 -20t-3 -21l-49 -308q-14 -86 -68 -132.5
t-145 -46.5q-51 0 -92.5 13.5t-70.5 39.5q-17 14 -2 32l31 41q15 18 32 2q22 -18 47 -26t54 -8q92 0 106 93l4 24h-2q-36 -32 -97 -32q-76 0 -117.5 38.5t-41.5 110.5q0 11 1 22t3 23l19 122q15 92 67.5 139t145.5 47zM333 311q3 16 3 31q0 73 -73 73q-44 0 -68 -25.5
t-32 -79.5l-17 -105q-3 -17 -3 -31q0 -73 73 -73q85 0 100 105z" />
    <glyph glyph-name="Hcircumflex" unicode="&#x124;" horiz-adv-x="623" 
d="M513 21q-3 -21 -24 -21h-73q-26 0 -21 25l41 259h-239l-42 -263q-3 -21 -24 -21h-73q-26 0 -21 25l98 618q3 21 24 21h73q26 0 21 -25l-40 -251h239l41 255q3 21 24 21h73q26 0 21 -25zM344 738q-10 -11 -25 -11h-57q-13 0 -16 7t5 18l101 121q10 11 25 11h65
q16 0 23 -14l62 -119q5 -11 1 -17.5t-16 -6.5h-49q-16 0 -24 14l-35 67z" />
    <glyph glyph-name="hcircumflex" unicode="&#x125;" horiz-adv-x="498" 
d="M308 509q72 0 110 -37t38 -106q0 -11 -1 -22.5t-3 -24.5l-47 -298q-3 -21 -24 -21h-63q-26 0 -21 25l46 290q3 16 3 31q0 69 -70 69q-80 0 -97 -101l-47 -293q-3 -21 -24 -21h-63q-26 0 -21 25l104 654q3 21 24 21h63q26 0 21 -25l-32 -200h2q40 34 102 34zM153 769
q-10 -11 -25 -11h-57q-13 0 -16 7t5 18l101 121q10 11 25 11h65q16 0 23 -14l62 -119q5 -11 1 -17.5t-16 -6.5h-49q-16 0 -24 14l-35 67z" />
    <glyph glyph-name="Hbar" unicode="&#x126;" horiz-adv-x="635" 
d="M640 559q22 0 19 -23l-7 -47q-3 -19 -22 -19h-40l-71 -449q-3 -21 -24 -21h-73q-26 0 -21 25l41 259h-239l-42 -263q-3 -21 -24 -21h-73q-26 0 -21 25l71 445h-37q-22 0 -19 23l7 47q3 19 23 19h40l13 84q3 21 24 21h73q26 0 21 -25l-13 -80h239l14 84q3 21 24 21h73
q26 0 21 -25l-13 -80h36zM458 388l13 82h-239l-13 -82h239z" />
    <glyph glyph-name="hbar" unicode="&#x127;" horiz-adv-x="501" 
d="M311 509q72 0 110 -37t38 -106q0 -11 -1 -22.5t-3 -24.5l-47 -298q-3 -21 -24 -21h-63q-26 0 -21 25l46 290q3 16 3 31q0 69 -70 69q-80 0 -97 -101l-47 -293q-3 -21 -24 -21h-63q-26 0 -21 25l83 523h-37q-21 0 -18 22l7 44q3 18 22 18h40l7 47q3 21 24 21h63
q26 0 21 -25l-7 -43h100q21 0 18 -22l-7 -44q-3 -18 -21 -18h-103l-12 -73h2q40 34 102 34z" />
    <glyph glyph-name="Itilde" unicode="&#x128;" horiz-adv-x="266" 
d="M155 21q-3 -21 -24 -21h-73q-26 0 -21 25l98 618q3 21 24 21h73q26 0 21 -25zM76 731q-21 0 -16 22q14 59 42.5 86.5t68.5 27.5q19 0 33.5 -6.5t32.5 -22.5q8 -8 16.5 -13.5t19.5 -5.5q23 0 36 34q6 16 22 16h32q21 0 16 -21q-14 -60 -42.5 -87.5t-68.5 -27.5
q-19 0 -33.5 6.5t-32.5 23.5q-12 11 -19.5 15t-16.5 4q-23 0 -37 -35q-6 -16 -22 -16h-31z" />
    <glyph glyph-name="itilde" unicode="&#x129;" horiz-adv-x="230" 
d="M45 0q-26 0 -21 25l72 451q3 21 24 21h63q26 0 21 -25l-72 -451q-3 -21 -24 -21h-63zM33 570q-21 0 -16 22q14 59 42.5 86.5t68.5 27.5q19 0 33.5 -6.5t32.5 -22.5q8 -8 16.5 -13.5t19.5 -5.5q23 0 36 34q6 16 22 16h32q21 0 16 -21q-14 -60 -42.5 -87.5t-68.5 -27.5
q-19 0 -33.5 6.5t-32.5 23.5q-12 11 -19.5 15t-16.5 4q-23 0 -37 -35q-6 -16 -22 -16h-31z" />
    <glyph glyph-name="Imacron" unicode="&#x12a;" horiz-adv-x="266" 
d="M155 21q-3 -21 -24 -21h-73q-26 0 -21 25l98 618q3 21 24 21h73q26 0 21 -25zM351 769q-3 -18 -22 -18h-233q-22 0 -19 21l8 49q3 18 21 18h234q22 0 19 -21z" />
    <glyph glyph-name="imacron" unicode="&#x12b;" horiz-adv-x="230" 
d="M45 0q-26 0 -21 25l72 451q3 21 24 21h63q26 0 21 -25l-72 -451q-3 -21 -24 -21h-63zM308 608q-3 -18 -22 -18h-233q-22 0 -19 21l8 49q3 18 21 18h234q22 0 19 -21z" />
    <glyph glyph-name="Ibreve" unicode="&#x12c;" horiz-adv-x="266" 
d="M155 21q-3 -21 -24 -21h-73q-26 0 -21 25l98 618q3 21 24 21h73q26 0 21 -25zM355 871q22 0 17 -21q-14 -58 -53.5 -87t-97.5 -29q-63 0 -97.5 31.5t-36.5 86.5q0 19 19 19h41q9 0 13.5 -4.5t6.5 -13.5q9 -34 56 -34q23 0 41 9.5t28 27.5q7 15 22 15h41z" />
    <glyph glyph-name="ibreve" unicode="&#x12d;" horiz-adv-x="230" 
d="M45 0q-26 0 -21 25l72 451q3 21 24 21h63q26 0 21 -25l-72 -451q-3 -21 -24 -21h-63zM312 710q22 0 17 -21q-14 -58 -53.5 -87t-97.5 -29q-63 0 -97.5 31.5t-36.5 86.5q0 19 19 19h41q9 0 13.5 -4.5t6.5 -13.5q9 -34 56 -34q23 0 41 9.5t28 27.5q7 15 22 15h41z" />
    <glyph glyph-name="Iogonek" unicode="&#x12e;" horiz-adv-x="266" 
d="M232 664q26 0 21 -25l-98 -618q-3 -21 -24 -21h-6q-35 -13 -52.5 -32t-17.5 -42q0 -11 7 -18.5t19 -7.5q13 0 27 10q17 12 28 -5l14 -23q10 -16 -4 -28q-35 -26 -81 -26q-42 0 -65.5 21t-23.5 53q0 30 14 56.5t50 46.5v2q-5 6 -3 18l98 618q3 21 24 21h73z" />
    <glyph glyph-name="iogonek" unicode="&#x12f;" horiz-adv-x="230" 
d="M183 497q26 0 21 -25l-72 -451q-3 -21 -23 -21q-32 -13 -50.5 -32.5t-18.5 -41.5q0 -11 7 -18.5t19 -7.5q13 0 27 9q18 12 28 -4l14 -23q10 -16 -4 -28q-35 -26 -81 -26q-42 0 -65.5 21t-23.5 53q0 64 66 103v2q-5 6 -3 18l72 451q3 21 24 21h63zM173 580
q-27 0 -43.5 16.5t-16.5 42.5q0 31 19.5 50.5t48.5 19.5q28 0 44.5 -16.5t16.5 -43.5q0 -31 -20 -50t-49 -19z" />
    <glyph glyph-name="Idotaccent" unicode="&#x130;" horiz-adv-x="266" 
d="M155 21q-3 -21 -24 -21h-73q-26 0 -21 25l98 618q3 21 24 21h73q26 0 21 -25zM216 741q-27 0 -43.5 16.5t-16.5 42.5q0 31 19.5 50.5t48.5 19.5q28 0 44.5 -16.5t16.5 -43.5q0 -31 -20 -50t-49 -19z" />
    <glyph glyph-name="dotlessi" unicode="&#x131;" horiz-adv-x="230" 
d="M45 0q-26 0 -21 25l72 451q3 21 24 21h63q26 0 21 -25l-72 -451q-3 -21 -24 -21h-63z" />
    <glyph glyph-name="IJ" unicode="&#x132;" horiz-adv-x="782" 
d="M155 21q-3 -21 -24 -21h-73q-26 0 -21 25l98 618q3 21 24 21h73q26 0 21 -25zM713 217q-18 -114 -78.5 -171.5t-169.5 -57.5q-72 0 -123.5 27t-80.5 78q-9 19 9 31l52 36q18 13 32 -7q19 -29 46 -45t65 -16q108 0 131 139l66 412q3 21 24 21h73q26 0 21 -25z" />
    <glyph glyph-name="ij" unicode="&#x133;" horiz-adv-x="460" 
d="M173 580q-27 0 -43.5 16.5t-16.5 42.5q0 31 19.5 50.5t48.5 19.5q28 0 44.5 -16.5t16.5 -43.5q0 -31 -20 -50t-49 -19zM45 0q-26 0 -21 25l72 451q3 21 24 21h63q26 0 21 -25l-72 -451q-3 -21 -24 -21h-63zM403 580q-27 0 -43.5 16.5t-16.5 42.5q0 31 19.5 50.5
t48.5 19.5q28 0 44.5 -16.5t16.5 -43.5q0 -31 -20 -50t-49 -19zM181 -66q31 0 47.5 15t21.5 49l76 478q3 21 24 21h63q26 0 21 -25l-75 -479q-24 -153 -170 -153h-18q-24 0 -21 25l7 48q3 21 24 21z" />
    <glyph glyph-name="Jcircumflex" unicode="&#x134;" horiz-adv-x="522" 
d="M453 217q-18 -114 -78.5 -171.5t-169.5 -57.5q-72 0 -123.5 27t-80.5 78q-9 19 9 31l52 36q18 13 32 -7q19 -29 46 -45t65 -16q108 0 131 139l66 412q3 21 24 21h73q26 0 21 -25zM432 738q-10 -11 -25 -11h-57q-13 0 -16 7t5 18l101 121q10 11 25 11h65q16 0 23 -14
l62 -119q5 -11 1 -17.5t-16 -6.5h-49q-16 0 -24 14l-35 67z" />
    <glyph glyph-name="jcircumflex" unicode="&#x135;" horiz-adv-x="230" 
d="M-49 -66q31 0 47.5 15t21.5 49l76 478q3 21 24 21h63q26 0 21 -25l-75 -479q-24 -153 -170 -153h-18q-24 0 -21 25l7 48q3 21 24 21zM123 577q-10 -11 -25 -11h-57q-13 0 -16 7t5 18l101 121q10 11 25 11h65q16 0 23 -14l62 -119q5 -11 1 -17.5t-16 -6.5h-49
q-16 0 -24 14l-35 67z" />
    <glyph glyph-name="Kcommaaccent" unicode="&#x136;" horiz-adv-x="573" 
d="M578 664q16 0 20 -8.5t-7 -19.5l-280 -301l192 -307q8 -12 3 -20t-19 -8h-90q-18 0 -27 16l-170 288l-45 -283q-3 -21 -24 -21h-73q-26 0 -21 25l98 618q3 21 24 21h73q26 0 21 -25l-41 -257h2l241 269q12 13 28 13h95zM245 -44q24 0 40 -16t16 -44q0 -19 -6.5 -38.5
t-18.5 -36t-28 -30t-35 -20.5q-13 -5 -19 8l-10 20q-6 12 6 19q17 9 28 27q-37 11 -37 50q0 29 18.5 45t45.5 16z" />
    <glyph glyph-name="kcommaaccent" unicode="&#x137;" horiz-adv-x="467" 
d="M457 497q16 0 20 -8.5t-7 -19.5l-199 -215l137 -226q8 -12 3.5 -20t-18.5 -8h-78q-18 0 -27 16l-122 218l-34 -213q-3 -21 -24 -21h-63q-26 0 -21 25l104 654q3 21 24 21h63q26 0 21 -25l-62 -387h2l173 196q12 13 28 13h80zM197 -44q24 0 40 -16t16 -44
q0 -19 -6.5 -38.5t-18.5 -36t-28 -30t-35 -20.5q-13 -5 -19 8l-10 20q-6 12 6 19q17 9 28 27q-37 11 -37 50q0 29 18.5 45t45.5 16z" />
    <glyph glyph-name="kgreenlandic" unicode="&#x138;" horiz-adv-x="467" 
d="M457 497q16 0 20 -8.5t-7 -19.5l-199 -215l137 -226q8 -12 3.5 -20t-18.5 -8h-78q-18 0 -27 16l-122 218l-34 -213q-3 -21 -24 -21h-63q-26 0 -21 25l72 451q3 21 24 21h63q26 0 21 -25l-30 -184h2l173 196q12 13 28 13h80z" />
    <glyph glyph-name="Lacute" unicode="&#x139;" horiz-adv-x="502" 
d="M446 21q-3 -21 -24 -21h-364q-26 0 -21 25l98 618q3 21 24 21h73q26 0 21 -25l-85 -535h267q26 0 21 -25zM261 738q-10 -11 -25 -11h-62q-13 0 -17 7t4 17l91 121q9 12 24 12h77q13 0 16.5 -7t-5.5 -18z" />
    <glyph glyph-name="lacute" unicode="&#x13a;" horiz-adv-x="230" 
d="M45 0q-26 0 -21 25l104 654q3 21 24 21h63q26 0 21 -25l-104 -654q-3 -21 -24 -21h-63zM248 769q-10 -11 -25 -11h-62q-13 0 -17 7t4 17l91 121q9 12 24 12h77q13 0 16.5 -7t-5.5 -18z" />
    <glyph glyph-name="Lcommaaccent" unicode="&#x13b;" horiz-adv-x="502" 
d="M446 21q-3 -21 -24 -21h-364q-26 0 -21 25l98 618q3 21 24 21h73q26 0 21 -25l-85 -535h267q26 0 21 -25zM226 -44q24 0 40 -16t16 -44q0 -19 -6.5 -38.5t-18.5 -36t-28 -30t-35 -20.5q-13 -5 -19 8l-10 20q-6 12 6 19q17 9 28 27q-37 11 -37 50q0 29 18.5 45t45.5 16z
" />
    <glyph glyph-name="lcommaaccent" unicode="&#x13c;" horiz-adv-x="230" 
d="M45 0q-26 0 -21 25l104 654q3 21 24 21h63q26 0 21 -25l-104 -654q-3 -21 -24 -21h-63zM62 -44q24 0 40 -16t16 -44q0 -19 -6.5 -38.5t-18.5 -36t-28 -30t-35 -20.5q-13 -5 -19 8l-10 20q-6 12 6 19q17 9 28 27q-37 11 -37 50q0 29 18.5 45t45.5 16z" />
    <glyph glyph-name="Lcaron" unicode="&#x13d;" horiz-adv-x="502" 
d="M446 21q-3 -21 -24 -21h-364q-26 0 -21 25l98 618q3 21 24 21h73q26 0 21 -25l-85 -535h267q26 0 21 -25zM386 514q-6 -16 -23 -16h-38q-23 0 -18 22l41 163q5 17 22 17h56q24 0 16 -23z" />
    <glyph glyph-name="lcaron" unicode="&#x13e;" horiz-adv-x="230" 
d="M45 0q-26 0 -21 25l104 654q3 21 24 21h63q26 0 21 -25l-104 -654q-3 -21 -24 -21h-63zM332 514q-6 -16 -23 -16h-38q-23 0 -18 22l41 163q5 17 22 17h56q24 0 16 -23z" />
    <glyph glyph-name="Ldot" unicode="&#x13f;" horiz-adv-x="502" 
d="M446 21q-3 -21 -24 -21h-364q-26 0 -21 25l98 618q3 21 24 21h73q26 0 21 -25l-85 -535h267q26 0 21 -25zM391 267q-27 0 -43.5 16.5t-16.5 42.5q0 31 19.5 50.5t48.5 19.5q28 0 44.5 -16.5t16.5 -43.5q0 -31 -20 -50t-49 -19z" />
    <glyph glyph-name="ldot" unicode="&#x140;" horiz-adv-x="309" 
d="M45 0q-26 0 -21 25l104 654q3 21 24 21h63q26 0 21 -25l-104 -654q-3 -21 -24 -21h-63zM278 267q-27 0 -43.5 16.5t-16.5 42.5q0 31 19.5 50.5t48.5 19.5q28 0 44.5 -16.5t16.5 -43.5q0 -31 -20 -50t-49 -19z" />
    <glyph glyph-name="Lslash" unicode="&#x141;" horiz-adv-x="515" 
d="M448 104q26 0 21 -25l-10 -58q-3 -21 -24 -21h-364q-26 0 -21 25l23 144l-40 -24q-12 -7 -19 -2.5t-5 18.5l12 73q1 15 16 24l55 33l56 352q3 21 24 21h73q26 0 21 -25l-43 -271l187 111q12 7 19 2.5t5 -18.5l-12 -73q-3 -14 -16 -23l-202 -120l-23 -143h267z" />
    <glyph glyph-name="lslash" unicode="&#x142;" horiz-adv-x="247" 
d="M254 479q11 8 18 4t5 -18l-11 -64q-3 -16 -14 -23l-60 -38l-51 -319q-3 -21 -24 -21h-63q-26 0 -21 25l38 238l-45 -29q-11 -8 -18 -4t-5 18l11 64q3 16 14 23l60 38l49 306q3 21 24 21h63q26 0 21 -25l-36 -224z" />
    <glyph glyph-name="Nacute" unicode="&#x143;" horiz-adv-x="622" 
d="M589 664q26 0 21 -25l-98 -618q-3 -21 -24 -21h-80q-20 0 -27 19l-155 452h-2l-71 -450q-3 -21 -24 -21h-71q-26 0 -21 25l98 618q3 21 24 21h90q20 0 27 -19l148 -435h2l68 433q3 21 24 21h71zM439 738q-10 -11 -25 -11h-62q-13 0 -17 7t4 17l91 121q9 12 24 12h77
q13 0 16.5 -7t-5.5 -18z" />
    <glyph glyph-name="nacute" unicode="&#x144;" horiz-adv-x="493" 
d="M337 313q3 18 3 32q0 70 -69 70q-81 0 -97 -102l-46 -292q-3 -21 -24 -21h-63q-26 0 -21 25l47 301q28 183 209 183q84 0 129.5 -38.5t45.5 -110.5q0 -10 -1 -20t-3 -21l-47 -298q-3 -21 -24 -21h-63q-26 0 -21 25zM349 577q-10 -11 -25 -11h-62q-13 0 -17 7t4 17l91 121
q9 12 24 12h77q13 0 16.5 -7t-5.5 -18z" />
    <glyph glyph-name="Ncommaaccent" unicode="&#x145;" horiz-adv-x="622" 
d="M589 664q26 0 21 -25l-98 -618q-3 -21 -24 -21h-80q-20 0 -27 19l-155 452h-2l-71 -450q-3 -21 -24 -21h-71q-26 0 -21 25l98 618q3 21 24 21h90q20 0 27 -19l148 -435h2l68 433q3 21 24 21h71zM258 -44q24 0 40 -16t16 -44q0 -19 -6.5 -38.5t-18.5 -36t-28 -30
t-35 -20.5q-13 -5 -19 8l-10 20q-6 12 6 19q17 9 28 27q-37 11 -37 50q0 29 18.5 45t45.5 16z" />
    <glyph glyph-name="ncommaaccent" unicode="&#x146;" horiz-adv-x="493" 
d="M337 313q3 18 3 32q0 70 -69 70q-81 0 -97 -102l-46 -292q-3 -21 -24 -21h-63q-26 0 -21 25l47 301q28 183 209 183q84 0 129.5 -38.5t45.5 -110.5q0 -10 -1 -20t-3 -21l-47 -298q-3 -21 -24 -21h-63q-26 0 -21 25zM193 -44q24 0 40 -16t16 -44q0 -19 -6.5 -38.5
t-18.5 -36t-28 -30t-35 -20.5q-13 -5 -19 8l-10 20q-6 12 6 19q17 9 28 27q-37 11 -37 50q0 29 18.5 45t45.5 16z" />
    <glyph glyph-name="Ncaron" unicode="&#x147;" horiz-adv-x="622" 
d="M589 664q26 0 21 -25l-98 -618q-3 -21 -24 -21h-80q-20 0 -27 19l-155 452h-2l-71 -450q-3 -21 -24 -21h-71q-26 0 -21 25l98 618q3 21 24 21h90q20 0 27 -19l148 -435h2l68 433q3 21 24 21h71zM445 738q-10 -11 -25 -11h-64q-16 0 -23 14l-63 119q-5 11 -1 17.5t16 6.5
h50q16 0 24 -14l35 -67l59 70q10 11 25 11h58q13 0 16 -7t-5 -18z" />
    <glyph glyph-name="ncaron" unicode="&#x148;" horiz-adv-x="493" 
d="M337 313q3 18 3 32q0 70 -69 70q-81 0 -97 -102l-46 -292q-3 -21 -24 -21h-63q-26 0 -21 25l47 301q28 183 209 183q84 0 129.5 -38.5t45.5 -110.5q0 -10 -1 -20t-3 -21l-47 -298q-3 -21 -24 -21h-63q-26 0 -21 25zM355 577q-10 -11 -25 -11h-64q-16 0 -23 14l-63 119
q-5 11 -1 17.5t16 6.5h50q16 0 24 -14l35 -67l59 70q10 11 25 11h58q13 0 16 -7t-5 -18z" />
    <glyph glyph-name="napostrophe" unicode="&#x149;" horiz-adv-x="493" 
d="M337 313q3 18 3 32q0 70 -69 70q-81 0 -97 -102l-46 -292q-3 -21 -24 -21h-63q-26 0 -21 25l47 301q28 183 209 183q84 0 129.5 -38.5t45.5 -110.5q0 -10 -1 -20t-3 -21l-47 -298q-3 -21 -24 -21h-63q-26 0 -21 25zM189 739q26 0 41 -16t15 -43q0 -20 -7.5 -42t-21 -44
t-32 -42.5t-39.5 -36.5q-12 -10 -21 1l-16 19q-12 11 1 21q17 15 30 32.5t19 40.5q-32 13 -32 49q0 29 18.5 45t44.5 16z" />
    <glyph glyph-name="Eng" unicode="&#x14a;" horiz-adv-x="622" 
d="M589 664q26 0 21 -25l-102 -646q-24 -153 -169 -153h-41q-26 0 -21 25l9 55q3 21 24 21h14q32 0 47 14t20 43l2 10l-167 462h-2l-71 -449q-3 -21 -24 -21h-71q-26 0 -21 25l98 618q3 21 24 21h89q21 0 27 -18l152 -423h2l65 420q3 21 24 21h71z" />
    <glyph glyph-name="eng" unicode="&#x14b;" horiz-adv-x="493" 
d="M337 313q3 18 3 32q0 70 -69 70q-81 0 -97 -102l-46 -292q-3 -21 -24 -21h-63q-26 0 -21 25l47 301q28 183 209 183q84 0 129.5 -38.5t45.5 -110.5q0 -10 -1 -20t-3 -21l-51 -326q-24 -153 -170 -153h-18q-12 0 -18 6.5t-4 18.5l8 48q3 21 24 21q31 0 48 15t22 49z" />
    <glyph glyph-name="Omacron" unicode="&#x14c;" horiz-adv-x="592" 
d="M82 441q36 235 268 235q106 0 164 -50t58 -143q0 -12 -1 -25t-3 -27l-33 -208q-38 -235 -268 -235q-107 0 -164.5 50t-57.5 143q0 12 1 25t3 27zM169 239q-3 -23 -3 -42q0 -105 106 -105q63 0 99 36.5t48 111.5l29 185q2 12 3 22.5t1 21.5q0 103 -107 103
q-63 0 -99 -36.5t-48 -111.5zM514 769q-3 -18 -22 -18h-233q-22 0 -19 21l8 49q3 18 21 18h234q22 0 19 -21z" />
    <glyph glyph-name="omacron" unicode="&#x14d;" horiz-adv-x="477" 
d="M268 509q86 0 132 -40t46 -114q0 -19 -3 -40l-22 -141q-30 -186 -213 -186q-86 0 -132.5 39.5t-46.5 113.5q0 18 4 41l22 141q30 186 213 186zM212 82q86 0 102 105l19 124q3 16 3 31q0 73 -73 73q-85 0 -101 -105l-19 -124q-3 -17 -3 -31q0 -73 72 -73zM431 608
q-3 -18 -22 -18h-233q-22 0 -19 21l8 49q3 18 21 18h234q22 0 19 -21z" />
    <glyph glyph-name="Obreve" unicode="&#x14e;" horiz-adv-x="592" 
d="M82 441q36 235 268 235q106 0 164 -50t58 -143q0 -12 -1 -25t-3 -27l-33 -208q-38 -235 -268 -235q-107 0 -164.5 50t-57.5 143q0 12 1 25t3 27zM169 239q-3 -23 -3 -42q0 -105 106 -105q63 0 99 36.5t48 111.5l29 185q2 12 3 22.5t1 21.5q0 103 -107 103
q-63 0 -99 -36.5t-48 -111.5zM518 871q22 0 17 -21q-14 -58 -53.5 -87t-97.5 -29q-63 0 -97.5 31.5t-36.5 86.5q0 19 19 19h41q9 0 13.5 -4.5t6.5 -13.5q9 -34 56 -34q23 0 41 9.5t28 27.5q7 15 22 15h41z" />
    <glyph glyph-name="obreve" unicode="&#x14f;" horiz-adv-x="477" 
d="M268 509q86 0 132 -40t46 -114q0 -19 -3 -40l-22 -141q-30 -186 -213 -186q-86 0 -132.5 39.5t-46.5 113.5q0 18 4 41l22 141q30 186 213 186zM212 82q86 0 102 105l19 124q3 16 3 31q0 73 -73 73q-85 0 -101 -105l-19 -124q-3 -17 -3 -31q0 -73 72 -73zM435 710
q22 0 17 -21q-14 -58 -53.5 -87t-97.5 -29q-63 0 -97.5 31.5t-36.5 86.5q0 19 19 19h41q9 0 13.5 -4.5t6.5 -13.5q9 -34 56 -34q23 0 41 9.5t28 27.5q7 15 22 15h41z" />
    <glyph glyph-name="Ohungarumlaut" unicode="&#x150;" horiz-adv-x="592" 
d="M82 441q36 235 268 235q106 0 164 -50t58 -143q0 -12 -1 -25t-3 -27l-33 -208q-38 -235 -268 -235q-107 0 -164.5 50t-57.5 143q0 12 1 25t3 27zM169 239q-3 -23 -3 -42q0 -105 106 -105q63 0 99 36.5t48 111.5l29 185q2 12 3 22.5t1 21.5q0 103 -107 103
q-63 0 -99 -36.5t-48 -111.5zM334 739q-5 -6 -10.5 -9t-13.5 -3h-48q-13 0 -16.5 7t3.5 17l86 121q9 12 24 12h62q13 0 16.5 -7t-4.5 -17zM495 739q-5 -6 -10.5 -9t-13.5 -3h-48q-13 0 -16.5 7t3.5 17l86 121q9 12 24 12h62q13 0 16.5 -7t-4.5 -17z" />
    <glyph glyph-name="ohungarumlaut" unicode="&#x151;" horiz-adv-x="477" 
d="M268 509q86 0 132 -40t46 -114q0 -19 -3 -40l-22 -141q-30 -186 -213 -186q-86 0 -132.5 39.5t-46.5 113.5q0 18 4 41l22 141q30 186 213 186zM212 82q86 0 102 105l19 124q3 16 3 31q0 73 -73 73q-85 0 -101 -105l-19 -124q-3 -17 -3 -31q0 -73 72 -73zM251 578
q-5 -6 -10.5 -9t-13.5 -3h-48q-13 0 -16.5 7t3.5 17l86 121q9 12 24 12h62q13 0 16.5 -7t-4.5 -17zM412 578q-5 -6 -10.5 -9t-13.5 -3h-48q-13 0 -16.5 7t3.5 17l86 121q9 12 24 12h62q13 0 16.5 -7t-4.5 -17z" />
    <glyph glyph-name="OE" unicode="&#x152;" horiz-adv-x="865" 
d="M777 388q26 0 21 -25l-10 -58q-3 -21 -24 -21h-240l-29 -180h281q26 0 21 -25l-10 -58q-3 -21 -24 -21h-501q-217 0 -217 180q0 13 1 26.5t3 27.5l32 203q19 116 84.5 171.5t189.5 55.5h509q26 0 21 -25l-9 -58q-3 -21 -24 -21h-284l-28 -172h237zM351 560
q-67 0 -104.5 -33.5t-48.5 -104.5l-29 -181q-3 -20 -3 -37q0 -100 112 -100h98l73 456h-98z" />
    <glyph glyph-name="oe" unicode="&#x153;" horiz-adv-x="739" 
d="M559 509q75 0 117 -40.5t42 -112.5q0 -20 -3 -41l-13 -80q-3 -21 -24 -21h-252l-3 -20q-3 -18 -3 -34q0 -43 22.5 -60.5t67.5 -17.5q26 0 48 9t42 26q20 15 32 -4l26 -40q11 -19 -5 -32q-65 -53 -144 -53q-117 0 -154 77h-2q-47 -77 -156 -77q-80 0 -124 39.5t-44 111.5
q0 20 4 43l22 141q15 92 65 139t137 47q110 0 145 -73h2q48 73 155 73zM333 311q3 16 3 31q0 73 -73 73q-85 0 -101 -105l-19 -124q-3 -17 -3 -31q0 -73 72 -73q86 0 102 105zM611 311q3 16 3 31q0 73 -72 73q-84 0 -100 -105l-2 -14h169z" />
    <glyph glyph-name="Racute" unicode="&#x154;" horiz-adv-x="569" 
d="M489 27q5 -12 0 -19.5t-18 -7.5h-82q-19 0 -26 18l-88 232h-83l-37 -229q-3 -21 -24 -21h-73q-26 0 -21 25l98 618q3 21 24 21h182q106 0 159.5 -44t53.5 -134q0 -94 -40 -149.5t-125 -75.5zM434 474q0 86 -105 86h-88l-33 -206h87q72 0 105.5 29t33.5 91zM405 738
q-10 -11 -25 -11h-62q-13 0 -17 7t4 17l91 121q9 12 24 12h77q13 0 16.5 -7t-5.5 -18z" />
    <glyph glyph-name="racute" unicode="&#x155;" horiz-adv-x="367" 
d="M67 325q15 93 62 138.5t131 45.5q35 0 64 -8t51 -22q18 -12 6 -32l-26 -42q-12 -18 -32 -6q-26 16 -57 16q-75 0 -90 -91l-48 -303q-3 -21 -24 -21h-63q-26 0 -21 25zM310 577q-10 -11 -25 -11h-62q-13 0 -17 7t4 17l91 121q9 12 24 12h77q13 0 16.5 -7t-5.5 -18z" />
    <glyph glyph-name="Rcommaaccent" unicode="&#x156;" horiz-adv-x="569" 
d="M489 27q5 -12 0 -19.5t-18 -7.5h-82q-19 0 -26 18l-88 232h-83l-37 -229q-3 -21 -24 -21h-73q-26 0 -21 25l98 618q3 21 24 21h182q106 0 159.5 -44t53.5 -134q0 -94 -40 -149.5t-125 -75.5zM434 474q0 86 -105 86h-88l-33 -206h87q72 0 105.5 29t33.5 91zM243 -44
q24 0 40 -16t16 -44q0 -19 -6.5 -38.5t-18.5 -36t-28 -30t-35 -20.5q-13 -5 -19 8l-10 20q-6 12 6 19q17 9 28 27q-37 11 -37 50q0 29 18.5 45t45.5 16z" />
    <glyph glyph-name="rcommaaccent" unicode="&#x157;" horiz-adv-x="367" 
d="M67 325q15 93 62 138.5t131 45.5q35 0 64 -8t51 -22q18 -12 6 -32l-26 -42q-12 -18 -32 -6q-26 16 -57 16q-75 0 -90 -91l-48 -303q-3 -21 -24 -21h-63q-26 0 -21 25zM57 -44q24 0 40 -16t16 -44q0 -19 -6.5 -38.5t-18.5 -36t-28 -30t-35 -20.5q-13 -5 -19 8l-10 20
q-6 12 6 19q17 9 28 27q-37 11 -37 50q0 29 18.5 45t45.5 16z" />
    <glyph glyph-name="Rcaron" unicode="&#x158;" horiz-adv-x="569" 
d="M489 27q5 -12 0 -19.5t-18 -7.5h-82q-19 0 -26 18l-88 232h-83l-37 -229q-3 -21 -24 -21h-73q-26 0 -21 25l98 618q3 21 24 21h182q106 0 159.5 -44t53.5 -134q0 -94 -40 -149.5t-125 -75.5zM434 474q0 86 -105 86h-88l-33 -206h87q72 0 105.5 29t33.5 91zM411 738
q-10 -11 -25 -11h-64q-16 0 -23 14l-63 119q-5 11 -1 17.5t16 6.5h50q16 0 24 -14l35 -67l59 70q10 11 25 11h58q13 0 16 -7t-5 -18z" />
    <glyph glyph-name="rcaron" unicode="&#x159;" horiz-adv-x="367" 
d="M67 325q15 93 62 138.5t131 45.5q35 0 64 -8t51 -22q18 -12 6 -32l-26 -42q-12 -18 -32 -6q-26 16 -57 16q-75 0 -90 -91l-48 -303q-3 -21 -24 -21h-63q-26 0 -21 25zM316 577q-10 -11 -25 -11h-64q-16 0 -23 14l-63 119q-5 11 -1 17.5t16 6.5h50q16 0 24 -14l35 -67
l59 70q10 11 25 11h58q13 0 16 -7t-5 -18z" />
    <glyph glyph-name="Sacute" unicode="&#x15a;" horiz-adv-x="517" 
d="M321 676q134 0 196 -77q13 -18 -4 -32l-52 -44q-16 -14 -32 4q-41 45 -114 45q-57 0 -90 -28.5t-33 -77.5q0 -32 24.5 -50.5t91.5 -30.5q97 -17 137 -57t40 -111q0 -53 -17 -95.5t-49.5 -72t-78.5 -45.5t-103 -16q-152 0 -224 92q-13 17 5 32l51 44q16 15 32 -4
q51 -60 143 -60q55 0 88.5 29.5t33.5 77.5q0 31 -25 49t-90 30q-98 18 -138.5 58t-40.5 112q0 52 17.5 94t50 72t78.5 46t103 16zM386 738q-10 -11 -25 -11h-62q-13 0 -17 7t4 17l91 121q9 12 24 12h77q13 0 16.5 -7t-5.5 -18z" />
    <glyph glyph-name="sacute" unicode="&#x15b;" horiz-adv-x="415" 
d="M179 -12q-58 0 -100 13t-74 41q-16 14 -1 32l34 41q14 17 32 2q20 -17 48 -26.5t60 -9.5q92 0 92 66q0 22 -18 34.5t-67 21.5q-76 14 -107.5 44t-31.5 87q0 81 55.5 128t150.5 47q43 0 79.5 -10t62.5 -28q18 -13 3 -33l-31 -40q-13 -17 -32 -4q-36 22 -82 22
q-47 0 -71.5 -16.5t-24.5 -48.5q0 -20 17.5 -31.5t63.5 -19.5q78 -14 110.5 -45t32.5 -91q0 -41 -14 -73.5t-40.5 -55t-63.5 -35t-83 -12.5zM310 577q-10 -11 -25 -11h-62q-13 0 -17 7t4 17l91 121q9 12 24 12h77q13 0 16.5 -7t-5.5 -18z" />
    <glyph glyph-name="Scircumflex" unicode="&#x15c;" horiz-adv-x="517" 
d="M321 676q134 0 196 -77q13 -18 -4 -32l-52 -44q-16 -14 -32 4q-41 45 -114 45q-57 0 -90 -28.5t-33 -77.5q0 -32 24.5 -50.5t91.5 -30.5q97 -17 137 -57t40 -111q0 -53 -17 -95.5t-49.5 -72t-78.5 -45.5t-103 -16q-152 0 -224 92q-13 17 5 32l51 44q16 15 32 -4
q51 -60 143 -60q55 0 88.5 29.5t33.5 77.5q0 31 -25 49t-90 30q-98 18 -138.5 58t-40.5 112q0 52 17.5 94t50 72t78.5 46t103 16zM291 738q-10 -11 -25 -11h-57q-13 0 -16 7t5 18l101 121q10 11 25 11h65q16 0 23 -14l62 -119q5 -11 1 -17.5t-16 -6.5h-49q-16 0 -24 14
l-35 67z" />
    <glyph glyph-name="scircumflex" unicode="&#x15d;" horiz-adv-x="415" 
d="M179 -12q-58 0 -100 13t-74 41q-16 14 -1 32l34 41q14 17 32 2q20 -17 48 -26.5t60 -9.5q92 0 92 66q0 22 -18 34.5t-67 21.5q-76 14 -107.5 44t-31.5 87q0 81 55.5 128t150.5 47q43 0 79.5 -10t62.5 -28q18 -13 3 -33l-31 -40q-13 -17 -32 -4q-36 22 -82 22
q-47 0 -71.5 -16.5t-24.5 -48.5q0 -20 17.5 -31.5t63.5 -19.5q78 -14 110.5 -45t32.5 -91q0 -41 -14 -73.5t-40.5 -55t-63.5 -35t-83 -12.5zM215 577q-10 -11 -25 -11h-57q-13 0 -16 7t5 18l101 121q10 11 25 11h65q16 0 23 -14l62 -119q5 -11 1 -17.5t-16 -6.5h-49
q-16 0 -24 14l-35 67z" />
    <glyph glyph-name="Scedilla" unicode="&#x15e;" horiz-adv-x="517" 
d="M13 80q-13 17 5 32l51 44q16 15 32 -4q51 -60 143 -60q55 0 88.5 29.5t33.5 77.5q0 31 -25 49t-90 30q-98 18 -138.5 58t-40.5 112q0 52 17.5 94t50 72t78.5 46t103 16q134 0 196 -77q13 -18 -4 -32l-52 -44q-16 -14 -32 4q-41 45 -114 45q-57 0 -90 -28.5t-33 -77.5
q0 -32 24.5 -50.5t91.5 -30.5q97 -17 137 -57t40 -111q0 -105 -64 -165.5t-175 -63.5l-10 -28q30 -5 45 -21t15 -39q0 -35 -26 -53.5t-74 -18.5q-42 0 -74 16q-8 4 -9.5 10.5t1.5 14.5l10 24q7 17 26 7q10 -5 20 -8.5t24 -3.5q20 0 28 7t8 17q0 8 -8.5 14t-30.5 6
q-21 0 -14 20l14 38q-118 13 -178 90z" />
    <glyph glyph-name="scedilla" unicode="&#x15f;" horiz-adv-x="415" 
d="M5 42q-16 14 -1 32l34 41q14 17 32 2q20 -17 48 -26.5t60 -9.5q92 0 92 66q0 22 -18 34.5t-67 21.5q-76 14 -107.5 44t-31.5 87q0 81 55.5 128t150.5 47q43 0 79.5 -10t62.5 -28q18 -13 3 -33l-31 -40q-13 -17 -32 -4q-36 22 -82 22q-47 0 -71.5 -16.5t-24.5 -48.5
q0 -20 17.5 -31.5t63.5 -19.5q78 -14 110.5 -45t32.5 -91q0 -79 -51 -126t-139 -50l-10 -28q30 -5 45 -21t15 -39q0 -35 -26 -53.5t-74 -18.5q-42 0 -74 16q-8 4 -9.5 10.5t1.5 14.5l10 24q7 17 26 7q10 -5 20 -8.5t24 -3.5q20 0 28 7t8 17q0 8 -8.5 14t-30.5 6
q-21 0 -14 20l13 38q-43 5 -74 18t-55 34z" />
    <glyph glyph-name="Scaron" unicode="&#x160;" horiz-adv-x="517" 
d="M321 676q134 0 196 -77q13 -18 -4 -32l-52 -44q-16 -14 -32 4q-41 45 -114 45q-57 0 -90 -28.5t-33 -77.5q0 -32 24.5 -50.5t91.5 -30.5q97 -17 137 -57t40 -111q0 -53 -17 -95.5t-49.5 -72t-78.5 -45.5t-103 -16q-152 0 -224 92q-13 17 5 32l51 44q16 15 32 -4
q51 -60 143 -60q55 0 88.5 29.5t33.5 77.5q0 31 -25 49t-90 30q-98 18 -138.5 58t-40.5 112q0 52 17.5 94t50 72t78.5 46t103 16zM392 738q-10 -11 -25 -11h-64q-16 0 -23 14l-63 119q-5 11 -1 17.5t16 6.5h50q16 0 24 -14l35 -67l59 70q10 11 25 11h58q13 0 16 -7t-5 -18z
" />
    <glyph glyph-name="scaron" unicode="&#x161;" horiz-adv-x="415" 
d="M179 -12q-58 0 -100 13t-74 41q-16 14 -1 32l34 41q14 17 32 2q20 -17 48 -26.5t60 -9.5q92 0 92 66q0 22 -18 34.5t-67 21.5q-76 14 -107.5 44t-31.5 87q0 81 55.5 128t150.5 47q43 0 79.5 -10t62.5 -28q18 -13 3 -33l-31 -40q-13 -17 -32 -4q-36 22 -82 22
q-47 0 -71.5 -16.5t-24.5 -48.5q0 -20 17.5 -31.5t63.5 -19.5q78 -14 110.5 -45t32.5 -91q0 -41 -14 -73.5t-40.5 -55t-63.5 -35t-83 -12.5zM316 577q-10 -11 -25 -11h-64q-16 0 -23 14l-63 119q-5 11 -1 17.5t16 6.5h50q16 0 24 -14l35 -67l59 70q10 11 25 11h58
q13 0 16 -7t-5 -18z" />
    <glyph glyph-name="Tcommaaccent" unicode="&#x162;" horiz-adv-x="503" 
d="M525 664q26 0 21 -25l-10 -58q-3 -21 -24 -21h-152l-86 -539q-3 -21 -24 -21h-12l-15 -40q30 -5 45 -21t15 -39q0 -35 -26 -53.5t-74 -18.5q-42 0 -74 16q-8 4 -9.5 10.5t1.5 14.5l10 24q7 17 26 7q10 -5 20 -8.5t24 -3.5q20 0 28 7t8 17q0 8 -8.5 14t-30.5 6
q-21 0 -14 20l17 48h-4q-26 0 -21 25l85 535h-149q-26 0 -21 25l9 58q3 21 24 21h421z" />
    <glyph glyph-name="tcommaaccent" unicode="&#x163;" horiz-adv-x="359" 
d="M348 497q26 0 21 -25l-7 -48q-3 -21 -24 -21h-124l-39 -248q-1 -5 -1 -9v-8q0 -56 62 -56q19 0 38 7q24 8 29 -14l10 -43q5 -22 -13 -30q-34 -14 -80 -14q-9 0 -17.5 0.5t-16.5 1.5l-11 -30q30 -5 45 -21t15 -39q0 -35 -26 -53.5t-74 -18.5q-42 0 -74 16q-8 4 -9.5 10.5
t1.5 14.5l10 24q7 17 26 7q10 -5 20 -8.5t24 -3.5q20 0 28 7t8 17q0 8 -8.5 14t-30.5 6q-21 0 -14 20l18 52q-70 31 -70 118q0 18 3 39l38 242h-39q-26 0 -21 25l8 48q3 21 24 21h43l18 109q3 21 24 21h63q26 0 21 -25l-17 -105h119z" />
    <glyph glyph-name="Tcaron" unicode="&#x164;" horiz-adv-x="503" 
d="M274 21q-3 -21 -24 -21h-73q-26 0 -21 25l85 535h-149q-26 0 -21 25l9 58q3 21 24 21h421q26 0 21 -25l-10 -58q-3 -21 -24 -21h-152zM385 738q-10 -11 -25 -11h-64q-16 0 -23 14l-63 119q-5 11 -1 17.5t16 6.5h50q16 0 24 -14l35 -67l59 70q10 11 25 11h58q13 0 16 -7
t-5 -18z" />
    <glyph glyph-name="tcaron" unicode="&#x165;" horiz-adv-x="359" 
d="M175 155q-1 -5 -1 -9v-8q0 -56 62 -56q19 0 38 7q24 8 29 -14l10 -43q5 -22 -13 -30q-34 -14 -80 -14q-75 0 -115.5 34t-40.5 100q0 18 3 39l38 242h-39q-26 0 -21 25l8 48q3 21 24 21h43l18 109q3 21 24 21h63q26 0 21 -25l-17 -105h119q26 0 21 -25l-7 -48
q-3 -21 -24 -21h-124zM386 552q-6 -16 -23 -16h-38q-23 0 -18 22l41 163q5 17 22 17h56q24 0 16 -23z" />
    <glyph glyph-name="Tbar" unicode="&#x166;" horiz-adv-x="503" 
d="M525 664q26 0 21 -25l-10 -58q-3 -21 -24 -21h-152l-26 -163h88q24 0 19 -23l-7 -46q-3 -19 -22 -19h-92l-46 -288q-3 -21 -24 -21h-73q-26 0 -21 25l45 284h-89q-24 0 -19 23l7 46q3 19 22 19h93l26 163h-149q-26 0 -21 25l9 58q3 21 24 21h421z" />
    <glyph glyph-name="tbar" unicode="&#x167;" horiz-adv-x="370" 
d="M354 497q26 0 21 -25l-7 -48q-3 -21 -24 -21h-124l-14 -92h101q22 0 19 -21l-7 -45q-3 -18 -22 -18h-105l-11 -72q-1 -5 -1 -9v-8q0 -56 62 -56q19 0 38 7q24 8 29 -14l10 -43q5 -22 -13 -30q-34 -14 -80 -14q-75 0 -115.5 34t-40.5 100q0 18 3 39l10 66h-33
q-21 0 -18 22l7 44q3 18 22 18h36l14 92h-39q-26 0 -21 25l8 48q3 21 24 21h43l18 109q3 21 24 21h63q26 0 21 -25l-17 -105h119z" />
    <glyph glyph-name="Utilde" unicode="&#x168;" horiz-adv-x="588" 
d="M519 217q-36 -229 -254 -229q-101 0 -155.5 48t-54.5 137q0 12 1 24.5t3 26.5l66 419q3 21 24 21h73q26 0 21 -25l-64 -409q-3 -23 -3 -41q0 -97 96 -97q57 0 89 34t43 104l66 413q3 21 24 21h71q26 0 21 -25zM237 731q-21 0 -16 22q14 59 42.5 86.5t68.5 27.5
q19 0 33.5 -6.5t32.5 -22.5q8 -8 16.5 -13.5t19.5 -5.5q23 0 36 34q6 16 22 16h32q21 0 16 -21q-14 -60 -42.5 -87.5t-68.5 -27.5q-19 0 -33.5 6.5t-32.5 23.5q-12 11 -19.5 15t-16.5 4q-23 0 -37 -35q-6 -16 -22 -16h-31z" />
    <glyph glyph-name="utilde" unicode="&#x169;" horiz-adv-x="487" 
d="M418 168q-29 -180 -206 -180q-83 0 -127.5 38.5t-44.5 110.5q0 18 3 39l48 300q3 21 24 21h63q26 0 21 -25l-47 -296q-2 -8 -2 -15v-13q0 -35 17 -50.5t52 -15.5q43 0 65 24t30 74l47 296q3 21 24 21h60q26 0 21 -25zM161 570q-21 0 -16 22q14 59 42.5 86.5t68.5 27.5
q19 0 33.5 -6.5t32.5 -22.5q8 -8 16.5 -13.5t19.5 -5.5q23 0 36 34q6 16 22 16h32q21 0 16 -21q-14 -60 -42.5 -87.5t-68.5 -27.5q-19 0 -33.5 6.5t-32.5 23.5q-12 11 -19.5 15t-16.5 4q-23 0 -37 -35q-6 -16 -22 -16h-31z" />
    <glyph glyph-name="Umacron" unicode="&#x16a;" horiz-adv-x="588" 
d="M519 217q-36 -229 -254 -229q-101 0 -155.5 48t-54.5 137q0 12 1 24.5t3 26.5l66 419q3 21 24 21h73q26 0 21 -25l-64 -409q-3 -23 -3 -41q0 -97 96 -97q57 0 89 34t43 104l66 413q3 21 24 21h71q26 0 21 -25zM512 769q-3 -18 -22 -18h-233q-22 0 -19 21l8 49q3 18 21 18
h234q22 0 19 -21z" />
    <glyph glyph-name="umacron" unicode="&#x16b;" horiz-adv-x="487" 
d="M418 168q-29 -180 -206 -180q-83 0 -127.5 38.5t-44.5 110.5q0 18 3 39l48 300q3 21 24 21h63q26 0 21 -25l-47 -296q-2 -8 -2 -15v-13q0 -35 17 -50.5t52 -15.5q43 0 65 24t30 74l47 296q3 21 24 21h60q26 0 21 -25zM436 608q-3 -18 -22 -18h-233q-22 0 -19 21l8 49
q3 18 21 18h234q22 0 19 -21z" />
    <glyph glyph-name="Ubreve" unicode="&#x16c;" horiz-adv-x="588" 
d="M519 217q-36 -229 -254 -229q-101 0 -155.5 48t-54.5 137q0 12 1 24.5t3 26.5l66 419q3 21 24 21h73q26 0 21 -25l-64 -409q-3 -23 -3 -41q0 -97 96 -97q57 0 89 34t43 104l66 413q3 21 24 21h71q26 0 21 -25zM516 871q22 0 17 -21q-14 -58 -53.5 -87t-97.5 -29
q-63 0 -97.5 31.5t-36.5 86.5q0 19 19 19h41q9 0 13.5 -4.5t6.5 -13.5q9 -34 56 -34q23 0 41 9.5t28 27.5q7 15 22 15h41z" />
    <glyph glyph-name="ubreve" unicode="&#x16d;" horiz-adv-x="487" 
d="M418 168q-29 -180 -206 -180q-83 0 -127.5 38.5t-44.5 110.5q0 18 3 39l48 300q3 21 24 21h63q26 0 21 -25l-47 -296q-2 -8 -2 -15v-13q0 -35 17 -50.5t52 -15.5q43 0 65 24t30 74l47 296q3 21 24 21h60q26 0 21 -25zM440 710q22 0 17 -21q-14 -58 -53.5 -87t-97.5 -29
q-63 0 -97.5 31.5t-36.5 86.5q0 19 19 19h41q9 0 13.5 -4.5t6.5 -13.5q9 -34 56 -34q23 0 41 9.5t28 27.5q7 15 22 15h41z" />
    <glyph glyph-name="Uring" unicode="&#x16e;" horiz-adv-x="588" 
d="M519 217q-36 -229 -254 -229q-101 0 -155.5 48t-54.5 137q0 12 1 24.5t3 26.5l66 419q3 21 24 21h73q26 0 21 -25l-64 -409q-3 -23 -3 -41q0 -97 96 -97q57 0 89 34t43 104l66 413q3 21 24 21h71q26 0 21 -25zM375 718q-35 0 -58 22.5t-23 56.5q0 40 27.5 66.5t66.5 26.5
q36 0 58.5 -23t22.5 -58q0 -19 -7.5 -35.5t-20.5 -29t-30 -19.5t-36 -7zM377 770q15 0 26 11t11 27q0 14 -8 22t-22 8q-15 0 -25.5 -11t-10.5 -27q0 -30 29 -30z" />
    <glyph glyph-name="uring" unicode="&#x16f;" horiz-adv-x="487" 
d="M418 168q-29 -180 -206 -180q-83 0 -127.5 38.5t-44.5 110.5q0 18 3 39l48 300q3 21 24 21h63q26 0 21 -25l-47 -296q-2 -8 -2 -15v-13q0 -35 17 -50.5t52 -15.5q43 0 65 24t30 74l47 296q3 21 24 21h60q26 0 21 -25zM299 557q-35 0 -58 22.5t-23 56.5q0 40 27.5 66.5
t66.5 26.5q36 0 58.5 -23t22.5 -58q0 -19 -7.5 -35.5t-20.5 -29t-30 -19.5t-36 -7zM301 609q15 0 26 11t11 27q0 14 -8 22t-22 8q-15 0 -25.5 -11t-10.5 -27q0 -30 29 -30z" />
    <glyph glyph-name="Uhungarumlaut" unicode="&#x170;" horiz-adv-x="588" 
d="M519 217q-36 -229 -254 -229q-101 0 -155.5 48t-54.5 137q0 12 1 24.5t3 26.5l66 419q3 21 24 21h73q26 0 21 -25l-64 -409q-3 -23 -3 -41q0 -97 96 -97q57 0 89 34t43 104l66 413q3 21 24 21h71q26 0 21 -25zM332 739q-5 -6 -10.5 -9t-13.5 -3h-48q-13 0 -16.5 7t3.5 17
l86 121q9 12 24 12h62q13 0 16.5 -7t-4.5 -17zM493 739q-5 -6 -10.5 -9t-13.5 -3h-48q-13 0 -16.5 7t3.5 17l86 121q9 12 24 12h62q13 0 16.5 -7t-4.5 -17z" />
    <glyph glyph-name="uhungarumlaut" unicode="&#x171;" horiz-adv-x="487" 
d="M418 168q-29 -180 -206 -180q-83 0 -127.5 38.5t-44.5 110.5q0 18 3 39l48 300q3 21 24 21h63q26 0 21 -25l-47 -296q-2 -8 -2 -15v-13q0 -35 17 -50.5t52 -15.5q43 0 65 24t30 74l47 296q3 21 24 21h60q26 0 21 -25zM256 578q-5 -6 -10.5 -9t-13.5 -3h-48q-13 0 -16.5 7
t3.5 17l86 121q9 12 24 12h62q13 0 16.5 -7t-4.5 -17zM417 578q-5 -6 -10.5 -9t-13.5 -3h-48q-13 0 -16.5 7t3.5 17l86 121q9 12 24 12h62q13 0 16.5 -7t-4.5 -17z" />
    <glyph glyph-name="Uogonek" unicode="&#x172;" horiz-adv-x="588" 
d="M565 664q26 0 21 -25l-67 -422q-14 -85 -51 -136.5t-100 -77.5q-32 -14 -48 -34t-16 -43q0 -11 7 -18.5t18 -7.5q13 0 27 9q17 13 28 -4l14 -23q10 -16 -4 -28q-29 -26 -78 -26q-42 0 -65.5 21.5t-23.5 56.5q0 20 9 41t29 39v2q-101 0 -155.5 48t-54.5 137q0 12 1 24.5
t3 26.5l66 419q3 21 24 21h73q26 0 21 -25l-64 -409q-3 -23 -3 -41q0 -97 96 -97q57 0 89 34t43 104l66 413q3 21 24 21h71z" />
    <glyph glyph-name="uogonek" unicode="&#x173;" horiz-adv-x="487" 
d="M445 497q26 0 21 -25l-48 -304q-11 -65 -39.5 -105.5t-77.5 -61.5q-31 -14 -46 -33.5t-15 -41.5q0 -11 7 -18.5t18 -7.5q13 0 27 9q17 13 28 -4l14 -23q10 -16 -4 -28q-29 -26 -78 -26q-42 0 -65.5 21.5t-23.5 56.5q0 20 9 41t29 39v2q-78 3 -119.5 41.5t-41.5 107.5
q0 18 3 39l48 300q3 21 24 21h63q26 0 21 -25l-47 -296q-2 -8 -2 -15v-13q0 -35 17 -50.5t52 -15.5q43 0 65 24t30 74l47 296q3 21 24 21h60z" />
    <glyph glyph-name="Wcircumflex" unicode="&#x174;" horiz-adv-x="856" 
d="M874 664q13 0 18 -7.5t0 -19.5l-258 -619q-8 -18 -26 -18h-88q-23 0 -24 22l-38 411h-2l-171 -415q-8 -18 -26 -18h-87q-23 0 -24 22l-62 618q-2 24 22 24h79q22 0 24 -22l31 -451h2l189 455q7 18 26 18h61q23 0 24 -22l43 -451h2l181 455q7 18 26 18h78zM461 738
q-10 -11 -25 -11h-57q-13 0 -16 7t5 18l101 121q10 11 25 11h65q16 0 23 -14l62 -119q5 -11 1 -17.5t-16 -6.5h-49q-16 0 -24 14l-35 67z" />
    <glyph glyph-name="wcircumflex" unicode="&#x175;" horiz-adv-x="701" 
d="M699 497q13 0 17.5 -7.5t-0.5 -19.5l-199 -453q-7 -17 -27 -17h-70q-22 0 -25 22l-34 289h-2l-127 -293q-8 -18 -27 -18h-70q-22 0 -25 22l-56 451q-3 24 22 24h64q23 0 24 -22l30 -319h2l140 324q7 17 27 17h49q22 0 25 -22l36 -316h2l133 320q7 18 26 18h65zM358 577
q-10 -11 -25 -11h-57q-13 0 -16 7t5 18l101 121q10 11 25 11h65q16 0 23 -14l62 -119q5 -11 1 -17.5t-16 -6.5h-49q-16 0 -24 14l-35 67z" />
    <glyph glyph-name="Ycircumflex" unicode="&#x176;" horiz-adv-x="543" 
d="M293 21q-3 -21 -24 -21h-73q-26 0 -21 25l42 264l-144 348q-5 12 0 19.5t18 7.5h85q18 0 26 -18l91 -244l170 247q10 15 28 15h88q15 0 19 -8t-4 -20l-260 -359zM305 738q-10 -11 -25 -11h-57q-13 0 -16 7t5 18l101 121q10 11 25 11h65q16 0 23 -14l62 -119
q5 -11 1 -17.5t-16 -6.5h-49q-16 0 -24 14l-35 67z" />
    <glyph glyph-name="ycircumflex" unicode="&#x177;" horiz-adv-x="498" 
d="M451 497q26 0 21 -25l-73 -465q-14 -86 -68.5 -132.5t-144.5 -46.5q-51 0 -93 13.5t-71 39.5q-17 14 -2 32l31 41q15 18 32 2q22 -18 47 -26t54 -8q92 0 107 93l4 26h-2q-38 -35 -102 -35q-72 0 -110 37.5t-38 107.5q0 11 1 22.5t3 23.5l44 279q3 21 24 21h63
q26 0 21 -25l-43 -272q-3 -17 -3 -30q0 -70 71 -70q79 0 96 101l44 275q3 21 24 21h63zM254 577q-10 -11 -25 -11h-57q-13 0 -16 7t5 18l101 121q10 11 25 11h65q16 0 23 -14l62 -119q5 -11 1 -17.5t-16 -6.5h-49q-16 0 -24 14l-35 67z" />
    <glyph glyph-name="Ydieresis" unicode="&#x178;" horiz-adv-x="543" 
d="M293 21q-3 -21 -24 -21h-73q-26 0 -21 25l42 264l-144 348q-5 12 0 19.5t18 7.5h85q18 0 26 -18l91 -244l170 247q10 15 28 15h88q15 0 19 -8t-4 -20l-260 -359zM268 745q-26 0 -41 15.5t-15 39.5q0 29 17 47.5t46 18.5q26 0 41.5 -15.5t15.5 -40.5q0 -28 -18.5 -46.5
t-45.5 -18.5zM443 745q-26 0 -41.5 16t-15.5 41q0 28 18.5 46t45.5 18q26 0 41.5 -15.5t15.5 -40.5q0 -28 -18.5 -46.5t-45.5 -18.5z" />
    <glyph glyph-name="Zacute" unicode="&#x179;" horiz-adv-x="528" 
d="M441 104q26 0 21 -25l-9 -58q-3 -21 -24 -21h-406q-26 0 -21 25l11 69q2 9 4.5 14.5t7.5 12.5l363 439h-261q-26 0 -21 25l9 58q3 21 24 21h386q26 0 21 -25l-11 -69q-2 -9 -4.5 -14.5t-7.5 -12.5l-364 -439h282zM395 738q-10 -11 -25 -11h-62q-13 0 -17 7t4 17l91 121
q9 12 24 12h77q13 0 16.5 -7t-5.5 -18z" />
    <glyph glyph-name="zacute" unicode="&#x17a;" horiz-adv-x="433" 
d="M348 94q26 0 21 -25l-8 -48q-3 -21 -24 -21h-318q-24 0 -21 25l9 59q2 8 4.5 14t8.5 13l262 292h-184q-26 0 -21 25l8 48q3 21 24 21h298q24 0 21 -25l-9 -59q-2 -8 -4.5 -14t-8.5 -13l-262 -292h204zM322 577q-10 -11 -25 -11h-62q-13 0 -17 7t4 17l91 121q9 12 24 12
h77q13 0 16.5 -7t-5.5 -18z" />
    <glyph glyph-name="Zdotaccent" unicode="&#x17b;" horiz-adv-x="528" 
d="M441 104q26 0 21 -25l-9 -58q-3 -21 -24 -21h-406q-26 0 -21 25l11 69q2 9 4.5 14.5t7.5 12.5l363 439h-261q-26 0 -21 25l9 58q3 21 24 21h386q26 0 21 -25l-11 -69q-2 -9 -4.5 -14.5t-7.5 -12.5l-364 -439h282zM350 741q-27 0 -43.5 16.5t-16.5 42.5q0 31 19.5 50.5
t48.5 19.5q28 0 44.5 -16.5t16.5 -43.5q0 -31 -20 -50t-49 -19z" />
    <glyph glyph-name="zdotaccent" unicode="&#x17c;" horiz-adv-x="433" 
d="M348 94q26 0 21 -25l-8 -48q-3 -21 -24 -21h-318q-24 0 -21 25l9 59q2 8 4.5 14t8.5 13l262 292h-184q-26 0 -21 25l8 48q3 21 24 21h298q24 0 21 -25l-9 -59q-2 -8 -4.5 -14t-8.5 -13l-262 -292h204zM277 580q-27 0 -43.5 16.5t-16.5 42.5q0 31 19.5 50.5t48.5 19.5
q28 0 44.5 -16.5t16.5 -43.5q0 -31 -20 -50t-49 -19z" />
    <glyph glyph-name="Zcaron" unicode="&#x17d;" horiz-adv-x="528" 
d="M441 104q26 0 21 -25l-9 -58q-3 -21 -24 -21h-406q-26 0 -21 25l11 69q2 9 4.5 14.5t7.5 12.5l363 439h-261q-26 0 -21 25l9 58q3 21 24 21h386q26 0 21 -25l-11 -69q-2 -9 -4.5 -14.5t-7.5 -12.5l-364 -439h282zM401 738q-10 -11 -25 -11h-64q-16 0 -23 14l-63 119
q-5 11 -1 17.5t16 6.5h50q16 0 24 -14l35 -67l59 70q10 11 25 11h58q13 0 16 -7t-5 -18z" />
    <glyph glyph-name="zcaron" unicode="&#x17e;" horiz-adv-x="433" 
d="M348 94q26 0 21 -25l-8 -48q-3 -21 -24 -21h-318q-24 0 -21 25l9 59q2 8 4.5 14t8.5 13l262 292h-184q-26 0 -21 25l8 48q3 21 24 21h298q24 0 21 -25l-9 -59q-2 -8 -4.5 -14t-8.5 -13l-262 -292h204zM328 577q-10 -11 -25 -11h-64q-16 0 -23 14l-63 119q-5 11 -1 17.5
t16 6.5h50q16 0 24 -14l35 -67l59 70q10 11 25 11h58q13 0 16 -7t-5 -18z" />
    <glyph glyph-name="florin" unicode="&#x192;" horiz-adv-x="529" 
d="M438 542q-75 0 -101 -86l-13 -45h130q26 0 21 -25l-8 -48q-3 -21 -24 -21h-147l-109 -368q-6 -19 -26 -19h-62q-27 0 -19 26l107 361h-79q-26 0 -21 25l8 48q3 21 24 21h96l14 47q28 91 77.5 134.5t127.5 43.5q29 0 55.5 -4.5t47.5 -14.5q20 -9 10 -31l-22 -44
q-10 -19 -30 -10q-24 10 -57 10z" />
    <glyph glyph-name="AEacute" unicode="&#x1fc;" horiz-adv-x="869" 
d="M868 664q26 0 21 -25l-9 -58q-3 -21 -24 -21h-285l-28 -172h237q26 0 21 -25l-9 -58q-3 -21 -24 -21h-241l-29 -180h281q26 0 21 -25l-9 -58q-3 -21 -24 -21h-379q-26 0 -21 25l15 95h-206l-71 -105q-10 -15 -28 -15h-87q-14 0 -18.5 8t3.5 20l431 621q10 15 28 15h434z
M445 525l-201 -303h154l49 303h-2zM566 738q-10 -11 -25 -11h-62q-13 0 -17 7t4 17l91 121q9 12 24 12h77q13 0 16.5 -7t-5.5 -18z" />
    <glyph glyph-name="aeacute" unicode="&#x1fd;" horiz-adv-x="722" 
d="M543 509q75 0 116.5 -40.5t41.5 -111.5q0 -20 -3 -42l-12 -78q-3 -21 -24 -21h-253l-3 -22q-3 -18 -3 -33q0 -42 22 -60.5t68 -18.5q25 0 47 9t42 26q20 15 32 -4l26 -40q12 -18 -5 -32q-65 -53 -147 -53q-116 0 -151 77h-2q-25 -38 -65 -57.5t-99 -19.5
q-72 0 -113.5 38.5t-41.5 105.5q0 80 50 122.5t151 42.5h97q2 14 3 23t1 17q0 42 -21 60t-64 18q-25 0 -48.5 -9t-43.5 -23q-10 -7 -18.5 -6t-13.5 12l-22 42q-10 19 7 32q36 24 72.5 35t74.5 11q109 0 143 -75h2q49 75 157 75zM593 311q3 18 3 34q0 70 -70 70
q-84 0 -102 -105l-2 -13h169zM224 216q-47 0 -72.5 -19t-25.5 -57q0 -58 68 -58q86 0 102 105l5 29h-77zM464 577q-10 -11 -25 -11h-62q-13 0 -17 7t4 17l91 121q9 12 24 12h77q13 0 16.5 -7t-5.5 -18z" />
    <glyph glyph-name="Oslashacute" unicode="&#x1fe;" horiz-adv-x="592" 
d="M592 634q16 -13 2 -28l-36 -43q14 -37 14 -80q0 -12 -1 -25t-3 -27l-33 -208q-38 -235 -268 -235q-95 0 -152 40l-24 -29q-12 -16 -28 -3l-39 34q-16 13 -2 28l36 44q-13 37 -13 79q0 12 1 25t3 27l33 208q36 235 268 235q94 0 151 -40l24 29q12 16 28 3zM170 237
l256 309q-28 26 -81 26q-63 0 -99 -36.5t-48 -111.5l-30 -187h2zM191 119q25 -27 81 -27q63 0 99 36.5t48 111.5l30 188h-2zM424 738q-10 -11 -25 -11h-62q-13 0 -17 7t4 17l91 121q9 12 24 12h77q13 0 16.5 -7t-5.5 -18z" />
    <glyph glyph-name="oslashacute" unicode="&#x1ff;" horiz-adv-x="477" 
d="M459 471q14 -14 2 -28l-25 -28q10 -26 10 -60q0 -19 -3 -40l-22 -141q-30 -186 -213 -186q-72 0 -117 28l-16 -18q-12 -15 -28 -1l-31 29q-14 14 -2 28l24 28q-9 27 -9 59q0 18 4 41l22 141q30 186 213 186q71 0 116 -28l16 18q12 15 28 1zM263 415q-44 0 -68 -25.5
t-33 -79.5l-16 -102h2l166 192q-18 15 -51 15zM161 97q18 -15 51 -15q86 0 102 105l16 103h-2zM341 577q-10 -11 -25 -11h-62q-13 0 -17 7t4 17l91 121q9 12 24 12h77q13 0 16.5 -7t-5.5 -18z" />
    <glyph glyph-name="Scommaaccent" unicode="&#x218;" horiz-adv-x="517" 
d="M321 676q134 0 196 -77q13 -18 -4 -32l-52 -44q-16 -14 -32 4q-41 45 -114 45q-57 0 -90 -28.5t-33 -77.5q0 -32 24.5 -50.5t91.5 -30.5q97 -17 137 -57t40 -111q0 -53 -17 -95.5t-49.5 -72t-78.5 -45.5t-103 -16q-152 0 -224 92q-13 17 5 32l51 44q16 15 32 -4
q51 -60 143 -60q55 0 88.5 29.5t33.5 77.5q0 31 -25 49t-90 30q-98 18 -138.5 58t-40.5 112q0 52 17.5 94t50 72t78.5 46t103 16zM211 -44q24 0 40 -16t16 -44q0 -19 -6.5 -38.5t-18.5 -36t-28 -30t-35 -20.5q-13 -5 -19 8l-10 20q-6 12 6 19q17 9 28 27q-37 11 -37 50
q0 29 18.5 45t45.5 16z" />
    <glyph glyph-name="scommaaccent" unicode="&#x219;" horiz-adv-x="415" 
d="M179 -12q-58 0 -100 13t-74 41q-16 14 -1 32l34 41q14 17 32 2q20 -17 48 -26.5t60 -9.5q92 0 92 66q0 22 -18 34.5t-67 21.5q-76 14 -107.5 44t-31.5 87q0 81 55.5 128t150.5 47q43 0 79.5 -10t62.5 -28q18 -13 3 -33l-31 -40q-13 -17 -32 -4q-36 22 -82 22
q-47 0 -71.5 -16.5t-24.5 -48.5q0 -20 17.5 -31.5t63.5 -19.5q78 -14 110.5 -45t32.5 -91q0 -41 -14 -73.5t-40.5 -55t-63.5 -35t-83 -12.5zM155 -44q24 0 40 -16t16 -44q0 -19 -6.5 -38.5t-18.5 -36t-28 -30t-35 -20.5q-13 -5 -19 8l-10 20q-6 12 6 19q17 9 28 27
q-37 11 -37 50q0 29 18.5 45t45.5 16z" />
    <glyph glyph-name="uni021A" unicode="&#x21a;" horiz-adv-x="503" 
d="M274 21q-3 -21 -24 -21h-73q-26 0 -21 25l85 535h-149q-26 0 -21 25l9 58q3 21 24 21h421q26 0 21 -25l-10 -58q-3 -21 -24 -21h-152zM198 -44q24 0 40 -16t16 -44q0 -19 -6.5 -38.5t-18.5 -36t-28 -30t-35 -20.5q-13 -5 -19 8l-10 20q-6 12 6 19q17 9 28 27
q-37 11 -37 50q0 29 18.5 45t45.5 16z" />
    <glyph glyph-name="uni021B" unicode="&#x21b;" horiz-adv-x="359" 
d="M175 155q-1 -5 -1 -9v-8q0 -56 62 -56q19 0 38 7q24 8 29 -14l10 -43q5 -22 -13 -30q-34 -14 -80 -14q-75 0 -115.5 34t-40.5 100q0 18 3 39l38 242h-39q-26 0 -21 25l8 48q3 21 24 21h43l18 109q3 21 24 21h63q26 0 21 -25l-17 -105h119q26 0 21 -25l-7 -48
q-3 -21 -24 -21h-124zM150 -44q24 0 40 -16t16 -44q0 -19 -6.5 -38.5t-18.5 -36t-28 -30t-35 -20.5q-13 -5 -19 8l-10 20q-6 12 6 19q17 9 28 27q-37 11 -37 50q0 29 18.5 45t45.5 16z" />
    <glyph glyph-name="uni0237" unicode="&#x237;" horiz-adv-x="230" 
d="M-49 -66q31 0 47.5 15t21.5 49l76 478q3 21 24 21h63q26 0 21 -25l-75 -479q-24 -153 -170 -153h-18q-24 0 -21 25l7 48q3 21 24 21z" />
    <glyph glyph-name="circumflex" unicode="&#x2c6;" horiz-adv-x="500" 
d="M258 577q-10 -11 -25 -11h-57q-13 0 -16 7t5 18l101 121q10 11 25 11h65q16 0 23 -14l62 -119q5 -11 1 -17.5t-16 -6.5h-49q-16 0 -24 14l-35 67z" />
    <glyph glyph-name="caron" unicode="&#x2c7;" horiz-adv-x="500" 
d="M359 577q-10 -11 -25 -11h-64q-16 0 -23 14l-63 119q-5 11 -1 17.5t16 6.5h50q16 0 24 -14l35 -67l59 70q10 11 25 11h58q13 0 16 -7t-5 -18z" />
    <glyph glyph-name="breve" unicode="&#x2d8;" horiz-adv-x="500" 
d="M447 710q22 0 17 -21q-14 -58 -53.5 -87t-97.5 -29q-63 0 -97.5 31.5t-36.5 86.5q0 19 19 19h41q9 0 13.5 -4.5t6.5 -13.5q9 -34 56 -34q23 0 41 9.5t28 27.5q7 15 22 15h41z" />
    <glyph glyph-name="dotaccent" unicode="&#x2d9;" horiz-adv-x="500" 
d="M308 580q-27 0 -43.5 16.5t-16.5 42.5q0 31 19.5 50.5t48.5 19.5q28 0 44.5 -16.5t16.5 -43.5q0 -31 -20 -50t-49 -19z" />
    <glyph glyph-name="ring" unicode="&#x2da;" horiz-adv-x="500" 
d="M306 557q-35 0 -58 22.5t-23 56.5q0 40 27.5 66.5t66.5 26.5q36 0 58.5 -23t22.5 -58q0 -19 -7.5 -35.5t-20.5 -29t-30 -19.5t-36 -7zM308 609q15 0 26 11t11 27q0 14 -8 22t-22 8q-15 0 -25.5 -11t-10.5 -27q0 -30 29 -30z" />
    <glyph glyph-name="ogonek" unicode="&#x2db;" horiz-adv-x="500" 
d="M291 -118q10 -16 -4 -28q-29 -26 -78 -26q-42 0 -65.5 21.5t-23.5 56.5q0 36 29.5 71.5t93.5 58.5l27 -27q-73 -34 -73 -83q0 -11 7 -18.5t18 -7.5q13 0 27 9q17 13 28 -4z" />
    <glyph glyph-name="tilde" unicode="&#x2dc;" horiz-adv-x="500" 
d="M168 570q-21 0 -16 22q14 59 42.5 86.5t68.5 27.5q19 0 33.5 -6.5t32.5 -22.5q8 -8 16.5 -13.5t19.5 -5.5q23 0 36 34q6 16 22 16h32q21 0 16 -21q-14 -60 -42.5 -87.5t-68.5 -27.5q-19 0 -33.5 6.5t-32.5 23.5q-12 11 -19.5 15t-16.5 4q-23 0 -37 -35q-6 -16 -22 -16
h-31z" />
    <glyph glyph-name="hungarumlaut" unicode="&#x2dd;" horiz-adv-x="500" 
d="M263 578q-5 -6 -10.5 -9t-13.5 -3h-48q-13 0 -16.5 7t3.5 17l86 121q9 12 24 12h62q13 0 16.5 -7t-4.5 -17zM424 578q-5 -6 -10.5 -9t-13.5 -3h-48q-13 0 -16.5 7t3.5 17l86 121q9 12 24 12h62q13 0 16.5 -7t-4.5 -17z" />
    <glyph glyph-name="Delta" unicode="&#x394;" horiz-adv-x="594" 
d="M532 25q5 -25 -21 -25h-504q-14 0 -18.5 7.5t1.5 19.5l299 620q8 17 27 17h90q21 0 24 -21zM341 517l-189 -413h248l-57 413h-2z" />
    <glyph glyph-name="Omega" unicode="&#x3a9;" horiz-adv-x="592" 
d="M351 676q106 0 163.5 -49.5t57.5 -142.5q0 -12 -1 -25t-3 -27l-24 -150q-21 -127 -114 -176v-2h61q26 0 21 -25l-10 -58q-3 -21 -24 -21h-157q-26 0 -21 25l10 66q3 18 19 25q75 40 93 152l25 157q2 12 3 22.5t1 21.5q0 103 -106 103q-63 0 -98 -36.5t-48 -111.5
l-24 -157q-2 -13 -3 -24.5t-1 -22.5q0 -69 44 -101q17 -12 14 -29l-11 -69q-3 -21 -24 -21h-157q-26 0 -21 25l9 58q3 21 24 21h75v2q-34 20 -52 55t-18 83q0 11 1 22t3 23l24 151q18 117 85 176.5t184 59.5z" />
    <glyph glyph-name="mu" unicode="&#x3bc;" horiz-adv-x="498" 
d="M455 497q26 0 21 -25l-47 -301q-29 -183 -189 -183q-71 0 -103 44h-2l-28 -171q-3 -21 -24 -21h-63q-26 0 -21 25l97 611q3 21 24 21h63q26 0 21 -25l-46 -290q-3 -15 -3 -29q0 -71 70 -71q80 0 96 101l47 293q3 21 24 21h63z" />
    <glyph glyph-name="pi" unicode="&#x3c0;" horiz-adv-x="514" 
d="M394 21q-3 -21 -24 -21h-63q-26 0 -21 25l60 378h-131l-61 -382q-3 -21 -24 -21h-63q-26 0 -21 25l60 378h-40q-26 0 -21 25l8 48q3 21 24 21h433q26 0 21 -25l-8 -48q-3 -21 -24 -21h-44z" />
    <glyph glyph-name="uni1E02" unicode="&#x1e02;" horiz-adv-x="567" 
d="M438 335q82 -34 82 -134q0 -105 -61 -153t-197 -48h-204q-26 0 -21 25l98 618q3 21 24 21h184q105 0 156.5 -37t51.5 -116q0 -136 -113 -174v-2zM303 388q67 0 96.5 24.5t29.5 76.5q0 71 -98 71h-90l-28 -172h90zM275 104q66 0 96 26t30 80q0 74 -97 74h-107l-29 -180
h107zM358 741q-27 0 -43.5 16.5t-16.5 42.5q0 31 19.5 50.5t48.5 19.5q28 0 44.5 -16.5t16.5 -43.5q0 -31 -20 -50t-49 -19z" />
    <glyph glyph-name="uni1E03" unicode="&#x1e03;" horiz-adv-x="489" 
d="M303 509q76 0 116 -38.5t40 -110.5q0 -11 -1 -22t-3 -23l-23 -141q-14 -92 -67 -139t-146 -47q-86 0 -132 40t-46 114q0 19 3 40l80 497q3 21 24 21h63q26 0 21 -25l-32 -200h2q38 34 101 34zM344 311q3 18 3 33q0 71 -72 71q-84 0 -101 -105l-19 -124q-3 -18 -3 -32
q0 -72 72 -72q85 0 101 105zM198 772q-27 0 -43.5 16.5t-16.5 42.5q0 31 19.5 50.5t48.5 19.5q28 0 44.5 -16.5t16.5 -43.5q0 -31 -20 -50t-49 -19z" />
    <glyph glyph-name="uni1E0A" unicode="&#x1e0a;" horiz-adv-x="592" 
d="M355 664q107 0 162.5 -45.5t55.5 -134.5q0 -13 -1.5 -27t-3.5 -28l-33 -203q-19 -116 -84 -171t-189 -55h-204q-26 0 -21 25l98 618q3 21 24 21h196zM448 423q3 19 3 37q0 100 -112 100h-98l-73 -456h98q67 0 104.5 33.5t48.5 104.5zM364 741q-27 0 -43.5 16.5
t-16.5 42.5q0 31 19.5 50.5t48.5 19.5q28 0 44.5 -16.5t16.5 -43.5q0 -31 -20 -50t-49 -19z" />
    <glyph glyph-name="uni1E0B" unicode="&#x1e0b;" horiz-adv-x="489" 
d="M479 700q26 0 21 -25l-79 -501q-14 -92 -67.5 -139t-145.5 -47q-86 0 -132.5 40t-46.5 113q0 10 1 20t3 21l22 141q30 186 198 186q70 0 102 -44h2l35 214q3 21 24 21h63zM333 311q2 8 2 15v14q0 75 -71 75q-87 0 -103 -105l-19 -124q-3 -17 -3 -31q0 -73 73 -73
q85 0 101 105zM466 772q-27 0 -43.5 16.5t-16.5 42.5q0 31 19.5 50.5t48.5 19.5q28 0 44.5 -16.5t16.5 -43.5q0 -31 -20 -50t-49 -19z" />
    <glyph glyph-name="uni1E1E" unicode="&#x1e1e;" horiz-adv-x="508" 
d="M439 380q26 0 21 -25l-9 -58q-3 -21 -24 -21h-231l-41 -255q-3 -21 -24 -21h-73q-26 0 -21 25l98 618q3 21 24 21h369q26 0 21 -25l-9 -58q-3 -21 -24 -21h-275l-29 -180h227zM355 741q-27 0 -43.5 16.5t-16.5 42.5q0 31 19.5 50.5t48.5 19.5q28 0 44.5 -16.5t16.5 -43.5
q0 -31 -20 -50t-49 -19z" />
    <glyph glyph-name="uni1E1F" unicode="&#x1e1f;" horiz-adv-x="339" 
d="M321 618q-35 0 -57 -22t-29 -64l-6 -35h119q26 0 21 -25l-7 -48q-3 -21 -24 -21h-123l-61 -382q-3 -21 -24 -21h-63q-26 0 -21 25l59 378h-39q-26 0 -21 25l8 48q3 21 24 21h43l6 37q29 178 191 178q29 0 55.5 -4.5t47.5 -14.5q10 -5 12 -13t-3 -18l-26 -45
q-10 -18 -29 -9q-21 10 -53 10zM298 772q-27 0 -43.5 16.5t-16.5 42.5q0 31 19.5 50.5t48.5 19.5q28 0 44.5 -16.5t16.5 -43.5q0 -31 -20 -50t-49 -19z" />
    <glyph glyph-name="uni1E40" unicode="&#x1e40;" horiz-adv-x="827" 
d="M794 664q26 0 21 -25l-98 -618q-3 -21 -24 -21h-73q-26 0 -21 25l75 474h-2l-241 -482q-9 -17 -27 -17h-60q-21 0 -25 21l-88 479h-2l-76 -479q-3 -21 -24 -21h-71q-26 0 -21 25l98 618q3 21 24 21h132q20 0 25 -21l83 -455h2l229 459q8 17 27 17h137zM494 741
q-27 0 -43.5 16.5t-16.5 42.5q0 31 19.5 50.5t48.5 19.5q28 0 44.5 -16.5t16.5 -43.5q0 -31 -20 -50t-49 -19z" />
    <glyph glyph-name="uni1E41" unicode="&#x1e41;" horiz-adv-x="749" 
d="M542 509q79 0 122 -38.5t43 -109.5q0 -10 -1 -21t-3 -22l-47 -297q-3 -21 -24 -21h-63q-26 0 -21 25l46 291q3 16 3 31q0 68 -67 68q-39 0 -61 -24t-30 -75l-47 -295q-3 -21 -24 -21h-63q-26 0 -21 25l46 291q3 16 3 31q0 68 -67 68q-39 0 -61 -24t-30 -75l-47 -295
q-3 -21 -24 -21h-63q-26 0 -21 25l47 301q29 183 197 183q48 0 81.5 -15t53.5 -43h2q49 58 141 58zM432 580q-27 0 -43.5 16.5t-16.5 42.5q0 31 19.5 50.5t48.5 19.5q28 0 44.5 -16.5t16.5 -43.5q0 -31 -20 -50t-49 -19z" />
    <glyph glyph-name="uni1E56" unicode="&#x1e56;" horiz-adv-x="551" 
d="M345 664q107 0 160.5 -44t53.5 -137q0 -124 -66.5 -182.5t-208.5 -58.5h-94l-35 -221q-3 -21 -24 -21h-73q-26 0 -21 25l98 618q3 21 24 21h186zM438 473q0 45 -26 66t-80 21h-91l-34 -214h90q73 0 107 30.5t34 96.5zM362 741q-27 0 -43.5 16.5t-16.5 42.5
q0 31 19.5 50.5t48.5 19.5q28 0 44.5 -16.5t16.5 -43.5q0 -31 -20 -50t-49 -19z" />
    <glyph glyph-name="uni1E57" unicode="&#x1e57;" horiz-adv-x="489" 
d="M280 509q86 0 132 -40t46 -114q0 -19 -3 -40l-23 -141q-29 -186 -197 -186q-70 0 -102 44h-2l-28 -171q-3 -21 -24 -21h-63q-26 0 -21 25l72 458q14 92 67 139t146 47zM345 311q3 16 3 31q0 73 -73 73q-85 0 -101 -105l-19 -124q-3 -17 -3 -30q0 -74 73 -74q44 0 68 25.5
t32 79.5zM308 580q-27 0 -43.5 16.5t-16.5 42.5q0 31 19.5 50.5t48.5 19.5q28 0 44.5 -16.5t16.5 -43.5q0 -31 -20 -50t-49 -19z" />
    <glyph glyph-name="uni1E60" unicode="&#x1e60;" horiz-adv-x="517" 
d="M321 676q134 0 196 -77q13 -18 -4 -32l-52 -44q-16 -14 -32 4q-41 45 -114 45q-57 0 -90 -28.5t-33 -77.5q0 -32 24.5 -50.5t91.5 -30.5q97 -17 137 -57t40 -111q0 -53 -17 -95.5t-49.5 -72t-78.5 -45.5t-103 -16q-152 0 -224 92q-13 17 5 32l51 44q16 15 32 -4
q51 -60 143 -60q55 0 88.5 29.5t33.5 77.5q0 31 -25 49t-90 30q-98 18 -138.5 58t-40.5 112q0 52 17.5 94t50 72t78.5 46t103 16zM341 741q-27 0 -43.5 16.5t-16.5 42.5q0 31 19.5 50.5t48.5 19.5q28 0 44.5 -16.5t16.5 -43.5q0 -31 -20 -50t-49 -19z" />
    <glyph glyph-name="uni1E61" unicode="&#x1e61;" horiz-adv-x="415" 
d="M179 -12q-58 0 -100 13t-74 41q-16 14 -1 32l34 41q14 17 32 2q20 -17 48 -26.5t60 -9.5q92 0 92 66q0 22 -18 34.5t-67 21.5q-76 14 -107.5 44t-31.5 87q0 81 55.5 128t150.5 47q43 0 79.5 -10t62.5 -28q18 -13 3 -33l-31 -40q-13 -17 -32 -4q-36 22 -82 22
q-47 0 -71.5 -16.5t-24.5 -48.5q0 -20 17.5 -31.5t63.5 -19.5q78 -14 110.5 -45t32.5 -91q0 -41 -14 -73.5t-40.5 -55t-63.5 -35t-83 -12.5zM265 580q-27 0 -43.5 16.5t-16.5 42.5q0 31 19.5 50.5t48.5 19.5q28 0 44.5 -16.5t16.5 -43.5q0 -31 -20 -50t-49 -19z" />
    <glyph glyph-name="uni1E6A" unicode="&#x1e6a;" horiz-adv-x="503" 
d="M274 21q-3 -21 -24 -21h-73q-26 0 -21 25l85 535h-149q-26 0 -21 25l9 58q3 21 24 21h421q26 0 21 -25l-10 -58q-3 -21 -24 -21h-152zM334 741q-27 0 -43.5 16.5t-16.5 42.5q0 31 19.5 50.5t48.5 19.5q28 0 44.5 -16.5t16.5 -43.5q0 -31 -20 -50t-49 -19z" />
    <glyph glyph-name="uni1E6B" unicode="&#x1e6b;" horiz-adv-x="359" 
d="M175 155q-1 -5 -1 -9v-8q0 -56 62 -56q19 0 38 7q24 8 29 -14l10 -43q5 -22 -13 -30q-34 -14 -80 -14q-75 0 -115.5 34t-40.5 100q0 18 3 39l38 242h-39q-26 0 -21 25l8 48q3 21 24 21h43l18 109q3 21 24 21h63q26 0 21 -25l-17 -105h119q26 0 21 -25l-7 -48
q-3 -21 -24 -21h-124zM214 704q-27 0 -43.5 16.5t-16.5 42.5q0 31 19.5 50.5t48.5 19.5q28 0 44.5 -16.5t16.5 -43.5q0 -31 -20 -50t-49 -19z" />
    <glyph glyph-name="Wgrave" unicode="&#x1e80;" horiz-adv-x="856" 
d="M874 664q13 0 18 -7.5t0 -19.5l-258 -619q-8 -18 -26 -18h-88q-23 0 -24 22l-38 411h-2l-171 -415q-8 -18 -26 -18h-87q-23 0 -24 22l-62 618q-2 24 22 24h79q22 0 24 -22l31 -451h2l189 455q7 18 26 18h61q23 0 24 -22l43 -451h2l181 455q7 18 26 18h78zM482 727
q-16 0 -24 14l-64 119q-6 11 -2 17.5t16 6.5h69q16 0 24 -15l51 -119q10 -23 -15 -23h-55z" />
    <glyph glyph-name="wgrave" unicode="&#x1e81;" horiz-adv-x="701" 
d="M699 497q13 0 17.5 -7.5t-0.5 -19.5l-199 -453q-7 -17 -27 -17h-70q-22 0 -25 22l-34 289h-2l-127 -293q-8 -18 -27 -18h-70q-22 0 -25 22l-56 451q-3 24 22 24h64q23 0 24 -22l30 -319h2l140 324q7 17 27 17h49q22 0 25 -22l36 -316h2l133 320q7 18 26 18h65zM379 566
q-16 0 -24 14l-64 119q-6 11 -2 17.5t16 6.5h69q16 0 24 -15l51 -119q10 -23 -15 -23h-55z" />
    <glyph glyph-name="Wacute" unicode="&#x1e82;" horiz-adv-x="856" 
d="M874 664q13 0 18 -7.5t0 -19.5l-258 -619q-8 -18 -26 -18h-88q-23 0 -24 22l-38 411h-2l-171 -415q-8 -18 -26 -18h-87q-23 0 -24 22l-62 618q-2 24 22 24h79q22 0 24 -22l31 -451h2l189 455q7 18 26 18h61q23 0 24 -22l43 -451h2l181 455q7 18 26 18h78zM556 738
q-10 -11 -25 -11h-62q-13 0 -17 7t4 17l91 121q9 12 24 12h77q13 0 16.5 -7t-5.5 -18z" />
    <glyph glyph-name="wacute" unicode="&#x1e83;" horiz-adv-x="701" 
d="M699 497q13 0 17.5 -7.5t-0.5 -19.5l-199 -453q-7 -17 -27 -17h-70q-22 0 -25 22l-34 289h-2l-127 -293q-8 -18 -27 -18h-70q-22 0 -25 22l-56 451q-3 24 22 24h64q23 0 24 -22l30 -319h2l140 324q7 17 27 17h49q22 0 25 -22l36 -316h2l133 320q7 18 26 18h65zM453 577
q-10 -11 -25 -11h-62q-13 0 -17 7t4 17l91 121q9 12 24 12h77q13 0 16.5 -7t-5.5 -18z" />
    <glyph glyph-name="Wdieresis" unicode="&#x1e84;" horiz-adv-x="856" 
d="M874 664q13 0 18 -7.5t0 -19.5l-258 -619q-8 -18 -26 -18h-88q-23 0 -24 22l-38 411h-2l-171 -415q-8 -18 -26 -18h-87q-23 0 -24 22l-62 618q-2 24 22 24h79q22 0 24 -22l31 -451h2l189 455q7 18 26 18h61q23 0 24 -22l43 -451h2l181 455q7 18 26 18h78zM424 745
q-26 0 -41 15.5t-15 39.5q0 29 17 47.5t46 18.5q26 0 41.5 -15.5t15.5 -40.5q0 -28 -18.5 -46.5t-45.5 -18.5zM599 745q-26 0 -41.5 16t-15.5 41q0 28 18.5 46t45.5 18q26 0 41.5 -15.5t15.5 -40.5q0 -28 -18.5 -46.5t-45.5 -18.5z" />
    <glyph glyph-name="wdieresis" unicode="&#x1e85;" horiz-adv-x="701" 
d="M699 497q13 0 17.5 -7.5t-0.5 -19.5l-199 -453q-7 -17 -27 -17h-70q-22 0 -25 22l-34 289h-2l-127 -293q-8 -18 -27 -18h-70q-22 0 -25 22l-56 451q-3 24 22 24h64q23 0 24 -22l30 -319h2l140 324q7 17 27 17h49q22 0 25 -22l36 -316h2l133 320q7 18 26 18h65zM321 584
q-26 0 -41 15.5t-15 39.5q0 29 17 47.5t46 18.5q26 0 41.5 -15.5t15.5 -40.5q0 -28 -18.5 -46.5t-45.5 -18.5zM496 584q-26 0 -41.5 16t-15.5 41q0 28 18.5 46t45.5 18q26 0 41.5 -15.5t15.5 -40.5q0 -28 -18.5 -46.5t-45.5 -18.5z" />
    <glyph glyph-name="Ygrave" unicode="&#x1ef2;" horiz-adv-x="543" 
d="M293 21q-3 -21 -24 -21h-73q-26 0 -21 25l42 264l-144 348q-5 12 0 19.5t18 7.5h85q18 0 26 -18l91 -244l170 247q10 15 28 15h88q15 0 19 -8t-4 -20l-260 -359zM326 727q-16 0 -24 14l-64 119q-6 11 -2 17.5t16 6.5h69q16 0 24 -15l51 -119q10 -23 -15 -23h-55z" />
    <glyph glyph-name="ygrave" unicode="&#x1ef3;" horiz-adv-x="498" 
d="M451 497q26 0 21 -25l-73 -465q-14 -86 -68.5 -132.5t-144.5 -46.5q-51 0 -93 13.5t-71 39.5q-17 14 -2 32l31 41q15 18 32 2q22 -18 47 -26t54 -8q92 0 107 93l4 26h-2q-38 -35 -102 -35q-72 0 -110 37.5t-38 107.5q0 11 1 22.5t3 23.5l44 279q3 21 24 21h63
q26 0 21 -25l-43 -272q-3 -17 -3 -30q0 -70 71 -70q79 0 96 101l44 275q3 21 24 21h63zM275 566q-16 0 -24 14l-64 119q-6 11 -2 17.5t16 6.5h69q16 0 24 -15l51 -119q10 -23 -15 -23h-55z" />
    <glyph glyph-name="uni2007" unicode="&#x2007;" horiz-adv-x="529" 
 />
    <glyph glyph-name="figuredash" unicode="&#x2012;" horiz-adv-x="529" 
d="M54 268q-22 0 -19 21l8 49q3 18 21 18h430q22 0 19 -21l-8 -49q-3 -18 -21 -18h-430z" />
    <glyph glyph-name="endash" unicode="&#x2013;" horiz-adv-x="500" 
d="M48 230q-22 0 -19 21l8 49q3 18 21 18h400q22 0 19 -21l-8 -49q-3 -18 -21 -18h-400z" />
    <glyph glyph-name="emdash" unicode="&#x2014;" horiz-adv-x="900" 
d="M48 230q-22 0 -19 21l8 49q3 18 21 18h800q22 0 19 -21l-8 -49q-3 -18 -21 -18h-800z" />
    <glyph glyph-name="quoteleft" unicode="&#x2018;" horiz-adv-x="248" 
d="M156 417q-29 0 -46 18t-17 49q0 22 8.5 47.5t23.5 50.5t36 48t45 42q13 10 24 -2l19 -21q13 -13 -2 -24q-20 -17 -34 -37t-22 -46q37 -14 37 -56q0 -32 -21 -50.5t-51 -18.5z" />
    <glyph glyph-name="quoteright" unicode="&#x2019;" horiz-adv-x="248" 
d="M184 676q29 0 46 -18t17 -49q0 -23 -8.5 -48t-23.5 -50t-36 -48t-45 -42q-13 -11 -24 2l-19 21q-13 13 2 24q20 17 34 37t22 46q-37 14 -37 56q0 32 21 50.5t51 18.5z" />
    <glyph glyph-name="quotesinglbase" unicode="&#x201a;" horiz-adv-x="248" 
d="M97 125q29 0 46 -18t17 -49q0 -23 -8.5 -48t-23.5 -50t-36 -48t-45 -42q-13 -11 -24 2l-19 21q-13 13 2 24q20 17 34 37t22 46q-37 14 -37 56q0 32 21 50.5t51 18.5z" />
    <glyph glyph-name="quotedblleft" unicode="&#x201c;" horiz-adv-x="438" 
d="M346 417q-29 0 -46 18t-17 49q0 22 8.5 47.5t23.5 50.5t36 48t45 42q13 10 24 -2l19 -21q13 -13 -2 -24q-20 -17 -34 -37t-22 -46q37 -14 37 -56q0 -32 -21 -50.5t-51 -18.5zM156 417q-29 0 -46 18t-17 49q0 22 8.5 47.5t23.5 50.5t36 48t45 42q13 10 24 -2l19 -21
q13 -13 -2 -24q-20 -17 -34 -37t-22 -46q37 -14 37 -56q0 -32 -21 -50.5t-51 -18.5z" />
    <glyph glyph-name="quotedblright" unicode="&#x201d;" horiz-adv-x="438" 
d="M184 676q29 0 46 -18t17 -49q0 -23 -8.5 -48t-23.5 -50t-36 -48t-45 -42q-13 -11 -24 2l-19 21q-13 13 2 24q20 17 34 37t22 46q-37 14 -37 56q0 32 21 50.5t51 18.5zM374 676q29 0 46 -18t17 -49q0 -23 -8.5 -48t-23.5 -50t-36 -48t-45 -42q-13 -11 -24 2l-19 21
q-13 13 2 24q20 17 34 37t22 46q-37 14 -37 56q0 32 21 50.5t51 18.5z" />
    <glyph glyph-name="quotedblbase" unicode="&#x201e;" horiz-adv-x="438" 
d="M287 125q29 0 46 -18t17 -49q0 -23 -8.5 -48t-23.5 -50t-36 -48t-45 -42q-13 -11 -24 2l-19 21q-13 13 2 24q20 17 34 37t22 46q-37 14 -37 56q0 32 21 50.5t51 18.5zM97 125q29 0 46 -18t17 -49q0 -23 -8.5 -48t-23.5 -50t-36 -48t-45 -42q-13 -11 -24 2l-19 21
q-13 13 2 24q20 17 34 37t22 46q-37 14 -37 56q0 32 21 50.5t51 18.5z" />
    <glyph glyph-name="dagger" unicode="&#x2020;" horiz-adv-x="442" 
d="M239 97q-3 -18 -22 -18h-45q-22 0 -19 21l59 370h-120q-22 0 -19 22l7 41q3 18 21 18h124l21 131q3 18 22 18h45q22 0 19 -22l-21 -127h120q22 0 19 -22l-7 -41q-3 -18 -21 -18h-124z" />
    <glyph glyph-name="daggerdbl" unicode="&#x2021;" horiz-adv-x="442" 
d="M394 309q23 0 18 -22l-7 -41q-3 -18 -21 -18h-123l-21 -131q-3 -18 -22 -18h-45q-22 0 -19 22l21 127h-121q-23 0 -18 22l7 41q3 18 21 18h123l26 161h-120q-22 0 -19 22l7 41q3 18 21 18h123l21 131q3 18 22 18h45q22 0 19 -22l-21 -127h121q23 0 18 -22l-7 -41
q-3 -18 -21 -18h-123l-26 -161h121z" />
    <glyph glyph-name="bullet" unicode="&#x2022;" horiz-adv-x="500" 
d="M248 155q-28 0 -51.5 10t-41 27.5t-27.5 41t-10 51.5q0 30 11.5 57t32 47t47 31.5t56.5 11.5q28 0 51.5 -10t41 -27t27 -41t9.5 -51q0 -31 -11.5 -58t-31 -47t-46.5 -31.5t-57 -11.5z" />
    <glyph glyph-name="ellipsis" unicode="&#x2026;" horiz-adv-x="900" 
d="M701 -12q-29 0 -46.5 18t-17.5 46q0 32 21.5 52.5t51.5 20.5q29 0 46.5 -18t17.5 -46q0 -32 -21.5 -52.5t-51.5 -20.5zM414 -12q-29 0 -46.5 18t-17.5 46q0 32 21.5 52.5t51.5 20.5q29 0 46.5 -18t17.5 -46q0 -32 -21.5 -52.5t-51.5 -20.5zM127 -12q-29 0 -46.5 18
t-17.5 46q0 32 21.5 52.5t51.5 20.5q29 0 46.5 -18t17.5 -46q0 -32 -21.5 -52.5t-51.5 -20.5z" />
    <glyph glyph-name="perthousand" unicode="&#x2030;" horiz-adv-x="930" 
d="M642 197q18 121 135 121q55 0 85.5 -28t30.5 -76q0 -6 -0.5 -12t-1.5 -13l-12 -80q-9 -60 -43 -90.5t-91 -30.5q-56 0 -87 27t-31 76q0 6 0.5 12.5t1.5 13.5zM705 113q-1 -5 -1 -8.5v-6.5q0 -40 42 -40q48 0 57 56l13 79q1 5 1 15q0 40 -42 40q-51 0 -58 -55zM70 515
q18 121 135 121q55 0 85.5 -28t30.5 -76q0 -6 -0.5 -12t-1.5 -13l-12 -80q-9 -60 -43 -90.5t-91 -30.5q-56 0 -87 27t-31 76q0 6 0.5 12.5t1.5 13.5zM133 431q-1 -5 -1 -8.5v-6.5q0 -40 42 -40q48 0 57 56l13 79q1 5 1 15q0 40 -42 40q-51 0 -58 -55zM353 197
q18 121 135 121q55 0 85.5 -28t30.5 -76q0 -6 -0.5 -12t-1.5 -13l-12 -80q-9 -60 -43 -90.5t-91 -30.5q-56 0 -87 27t-31 76q0 6 0.5 12.5t1.5 13.5zM416 113q-1 -5 -1 -8.5v-6.5q0 -40 42 -40q48 0 57 56l13 79q1 5 1 15q0 40 -42 40q-51 0 -58 -55zM528 612q8 12 24 12h49
q14 0 17 -7t-5 -17l-481 -588q-8 -12 -24 -12h-49q-13 0 -16.5 7t4.5 17z" />
    <glyph glyph-name="guilsinglleft" unicode="&#x2039;" horiz-adv-x="267" 
d="M198 80q5 -11 0.5 -17.5t-15.5 -6.5h-55q-16 0 -23 15l-80 163q-7 15 3 28l131 167q9 12 24 12h60q13 0 16.5 -7t-4.5 -17l-133 -174z" />
    <glyph glyph-name="guilsinglright" unicode="&#x203a;" horiz-adv-x="267" 
d="M106 68q-9 -12 -24 -12h-60q-13 0 -16.5 7t4.5 17l135 174l-78 163q-5 11 -0.5 17.5t15.5 6.5h55q15 0 23 -15l80 -162q7 -15 -3 -28z" />
    <glyph glyph-name="fraction" unicode="&#x2044;" horiz-adv-x="140" 
d="M277 612q9 12 25 12h48q13 0 16.5 -7t-4.5 -17l-481 -588q-9 -12 -25 -12h-49q-13 0 -16.5 7t4.5 17z" />
    <glyph glyph-name="uni2070" unicode="&#x2070;" 
d="M91 628q20 128 144 128q59 0 91.5 -29t32.5 -80q0 -7 -0.5 -13.5t-1.5 -13.5l-22 -135q-21 -129 -145 -129q-58 0 -90.5 29t-32.5 80q0 7 0.5 13.5t1.5 13.5zM147 489q-1 -5 -1.5 -9t-0.5 -8q0 -46 48 -46q54 0 65 63l21 134q1 5 1 8.5v7.5q0 47 -47 47q-56 0 -65 -63z
" />
    <glyph glyph-name="uni2074" unicode="&#x2074;" 
d="M333 513q22 0 19 -21l-5 -31q-3 -18 -21 -18h-26l-10 -62q-3 -18 -21 -18h-38q-22 0 -19 22l10 58h-147q-22 0 -19 22l7 39q2 7 4 12.5t7 10.5l187 211q10 11 25 11h41q22 0 19 -22l-35 -214h22zM251 632l-103 -119h85l20 119h-2z" />
    <glyph glyph-name="uni2075" unicode="&#x2075;" 
d="M340 749q22 0 19 -21l-5 -31q-3 -18 -21 -18h-140l-17 -77h2q26 13 56 13q50 0 79.5 -30.5t29.5 -84.5q0 -68 -42 -106t-114 -38q-40 0 -70 12t-50 34q-12 14 2 28l22 22q13 13 28 -1q26 -25 69 -25q36 0 56 18t20 49q0 24 -14 38t-40 14q-27 0 -51 -16q-7 -4 -12.5 -6
t-13.5 0l-23 4q-20 3 -15 23l40 181q4 18 22 18h183z" />
    <glyph glyph-name="uni2076" unicode="&#x2076;" 
d="M172 597q27 21 69 21q46 0 73.5 -30.5t27.5 -81.5q0 -71 -39 -110.5t-106 -39.5q-58 0 -91 30.5t-33 81.5q0 6 0.5 12t1.5 12l21 131q11 66 48 99.5t98 33.5q32 0 58.5 -7.5t45.5 -21.5q16 -12 3 -28l-22 -28q-11 -16 -28 -2q-22 17 -52 17q-62 0 -73 -68l-4 -21h2z
M264 497q0 25 -12.5 38t-34.5 13q-28 0 -46.5 -20t-18.5 -55q0 -22 12 -34.5t35 -12.5q29 0 47 19.5t18 51.5z" />
    <glyph glyph-name="uni2077" unicode="&#x2077;" 
d="M190 376q-7 -13 -24 -13h-45q-13 0 -17 6.5t3 17.5l185 292h-119l-8 -49q-3 -18 -21 -18h-32q-22 0 -19 22l16 97q3 18 21 18h236q23 0 18 -22l-6 -38q-1 -8 -3 -13t-6 -11z" />
    <glyph glyph-name="uni2078" unicode="&#x2078;" 
d="M221 594q28 0 44 14t16 40q0 38 -49 38q-26 0 -42 -14t-16 -40q0 -38 47 -38zM295 556q45 -26 45 -79q0 -59 -39 -90t-108 -31q-65 0 -100 28t-35 79q0 78 76 103v2q-38 24 -38 72q0 53 37 84.5t100 31.5q60 0 92.5 -27.5t32.5 -75.5q0 -34 -15.5 -58.5t-47.5 -36.5v-2z
M194 426q32 0 49.5 15.5t17.5 42.5q0 43 -56 43q-32 0 -50 -15.5t-18 -42.5q0 -43 57 -43z" />
    <glyph glyph-name="uni2079" unicode="&#x2079;" 
d="M228 756q59 0 92 -30.5t33 -81.5q0 -6 -0.5 -12t-1.5 -12l-21 -131q-11 -66 -48 -99.5t-98 -33.5q-65 0 -104 30q-16 10 -3 27l20 27q11 15 27 3q25 -17 55 -17q62 0 73 68l4 21h-2q-26 -22 -69 -22q-47 0 -74 31t-27 82q0 70 39 110t105 40zM208 563q29 0 47.5 20.5
t18.5 54.5q0 23 -12.5 35.5t-35.5 12.5q-29 0 -46.5 -19.5t-17.5 -51.5q0 -25 12.5 -38.5t33.5 -13.5z" />
    <glyph glyph-name="uni2080" unicode="&#x2080;" 
d="M8 105q20 128 144 128q59 0 91.5 -29t32.5 -80q0 -7 -0.5 -13.5t-1.5 -13.5l-22 -135q-21 -129 -145 -129q-58 0 -90.5 29t-32.5 80q0 7 0.5 13.5t1.5 13.5zM64 -34q-1 -5 -1.5 -9t-0.5 -8q0 -46 48 -46q54 0 65 63l21 134q1 5 1 8.5v7.5q0 47 -47 47q-56 0 -65 -63z" />
    <glyph glyph-name="uni2081" unicode="&#x2081;" 
d="M195 -142q-3 -18 -22 -18h-37q-22 0 -19 21l41 257l-55 -37q-17 -11 -28 6l-16 25q-9 17 6 28l115 78q11 8 25 8h27q22 0 19 -22z" />
    <glyph glyph-name="uni2082" unicode="&#x2082;" 
d="M219 -89q22 0 19 -21l-5 -31q-3 -18 -21 -18h-213q-21 0 -18 22l5 31q3 14 13 23l159 139q22 20 30.5 34.5t8.5 30.5q0 20 -12 31t-33 11q-18 0 -35 -10t-32 -27q-14 -15 -28 -1l-22 23q-13 13 -1 29q26 29 58.5 42.5t67.5 13.5q54 0 85 -29t31 -80q0 -35 -15.5 -61.5
t-56.5 -59.5l-110 -90v-2h125z" />
    <glyph glyph-name="uni2083" unicode="&#x2083;" 
d="M210 35q45 -23 45 -80q0 -58 -38.5 -90t-108.5 -32q-43 0 -73 13t-50 37q-12 14 2 28l22 21q13 13 28 -2q26 -27 71 -27q32 0 50 15.5t18 41.5q0 23 -15.5 33.5t-51.5 10.5h-7q-22 0 -19 21l4 28q3 18 22 18h6q80 0 80 52q0 40 -49 40q-19 0 -36 -9t-32 -23
q-16 -14 -28 2l-20 26q-13 16 2 28q28 24 59 35t64 11q55 0 87 -27.5t32 -75.5q0 -72 -64 -93v-2z" />
    <glyph glyph-name="uni2084" unicode="&#x2084;" 
d="M250 -10q22 0 19 -21l-5 -31q-3 -18 -21 -18h-26l-10 -62q-3 -18 -21 -18h-38q-22 0 -19 22l10 58h-147q-22 0 -19 22l7 39q2 7 4 12.5t7 10.5l187 211q10 11 25 11h41q22 0 19 -22l-35 -214h22zM168 109l-103 -119h85l20 119h-2z" />
    <glyph glyph-name="uni2085" unicode="&#x2085;" 
d="M257 226q22 0 19 -21l-5 -31q-3 -18 -21 -18h-140l-17 -77h2q26 13 56 13q50 0 79.5 -30.5t29.5 -84.5q0 -68 -42 -106t-114 -38q-40 0 -70 12t-50 34q-12 14 2 28l22 22q13 13 28 -1q26 -25 69 -25q36 0 56 18t20 49q0 24 -14 38t-40 14q-27 0 -51 -16q-7 -4 -12.5 -6
t-13.5 0l-23 4q-20 3 -15 23l40 181q4 18 22 18h183z" />
    <glyph glyph-name="uni2086" unicode="&#x2086;" 
d="M89 74q27 21 69 21q46 0 73.5 -30.5t27.5 -81.5q0 -71 -39 -110.5t-106 -39.5q-58 0 -91 30.5t-33 81.5q0 6 0.5 12t1.5 12l21 131q11 66 48 99.5t98 33.5q32 0 58.5 -7.5t45.5 -21.5q16 -12 3 -28l-22 -28q-11 -16 -28 -2q-22 17 -52 17q-62 0 -73 -68l-4 -21h2z
M181 -26q0 25 -12.5 38t-34.5 13q-28 0 -46.5 -20t-18.5 -55q0 -22 12 -34.5t35 -12.5q29 0 47 19.5t18 51.5z" />
    <glyph glyph-name="uni2087" unicode="&#x2087;" 
d="M107 -147q-7 -13 -24 -13h-45q-13 0 -17 6.5t3 17.5l185 292h-119l-8 -49q-3 -18 -21 -18h-32q-22 0 -19 22l16 97q3 18 21 18h236q23 0 18 -22l-6 -38q-1 -8 -3 -13t-6 -11z" />
    <glyph glyph-name="uni2088" unicode="&#x2088;" 
d="M138 71q28 0 44 14t16 40q0 38 -49 38q-26 0 -42 -14t-16 -40q0 -38 47 -38zM212 33q45 -26 45 -79q0 -59 -39 -90t-108 -31q-65 0 -100 28t-35 79q0 78 76 103v2q-38 24 -38 72q0 53 37 84.5t100 31.5q60 0 92.5 -27.5t32.5 -75.5q0 -34 -15.5 -58.5t-47.5 -36.5v-2z
M111 -97q32 0 49.5 15.5t17.5 42.5q0 43 -56 43q-32 0 -50 -15.5t-18 -42.5q0 -43 57 -43z" />
    <glyph glyph-name="uni2089" unicode="&#x2089;" 
d="M145 233q59 0 92 -30.5t33 -81.5q0 -6 -0.5 -12t-1.5 -12l-21 -131q-11 -66 -48 -99.5t-98 -33.5q-65 0 -104 30q-16 10 -3 27l20 27q11 15 27 3q25 -17 55 -17q62 0 73 68l4 21h-2q-26 -22 -69 -22q-47 0 -74 31t-27 82q0 70 39 110t105 40zM125 40q29 0 47.5 20.5
t18.5 54.5q0 23 -12.5 35.5t-35.5 12.5q-29 0 -46.5 -19.5t-17.5 -51.5q0 -25 12.5 -38.5t33.5 -13.5z" />
    <glyph glyph-name="Euro" unicode="&#x20ac;" horiz-adv-x="529" 
d="M278 88q35 0 62.5 14t48.5 40q16 19 32 4l43 -36q17 -14 4 -32q-68 -90 -204 -90q-93 0 -143.5 46t-50.5 127q0 11 1 22.5t3 23.5h-29q-20 0 -17 19l7 41q3 16 20 16h31l10 62h-30q-21 0 -16 20l7 39q3 16 20 16h31q33 216 241 216q66 0 114 -24.5t74 -69.5
q10 -19 -10 -31l-51 -29q-17 -11 -31 8q-17 24 -43 35t-59 11q-100 0 -121 -116h166q22 0 14 -21l-16 -40q-6 -14 -21 -14h-155l-10 -62h137q22 0 14 -21l-16 -41q-5 -14 -20 -14h-127q-2 -8 -2 -15.5v-14.5q0 -45 23.5 -67t68.5 -22z" />
    <glyph glyph-name="uni20B9" unicode="&#x20b9;" horiz-adv-x="529" 
d="M549 624q23 0 15 -22l-13 -38q-5 -15 -21 -15h-90v-2q14 -16 21.5 -35.5t9.5 -44.5h52q23 0 15 -22l-13 -38q-5 -15 -21 -15h-38q-16 -77 -76 -115t-183 -41v-2l189 -206q11 -11 7 -19.5t-19 -8.5h-92q-16 0 -28 13l-208 234q-11 12 -5 29l12 36q6 17 24 17h106
q69 0 105 15.5t50 47.5h-260q-22 0 -16 22l13 38q4 15 21 15h250q-7 31 -37.5 46.5t-93.5 15.5h-114q-12 0 -16.5 6.5t-0.5 17.5l20 54q6 17 24 17h411z" />
    <glyph glyph-name="afii61289" unicode="&#x2113;" horiz-adv-x="456" 
d="M378 58q11 -20 -7 -32q-28 -19 -60.5 -28.5t-64.5 -9.5q-75 0 -116 35.5t-45 99.5l-18 -9q-21 -11 -30 11l-20 49q-8 20 11 30t36.5 19.5t34.5 19.5l38 236q12 75 59.5 116t120.5 41q64 0 100 -34t36 -94q0 -35 -10.5 -71.5t-38 -75.5t-76 -81.5t-123.5 -88.5l-2 -12
q-3 -15 -3 -28q0 -63 62 -63q31 0 61 22q21 16 32 -6zM309 540q-48 0 -59 -68l-24 -145h2q63 48 90.5 89t27.5 83q0 41 -37 41z" />
    <glyph glyph-name="uni2117" unicode="&#x2117;" horiz-adv-x="760" 
d="M433 516q121 0 121 -98q0 -140 -156 -140h-44l-18 -114q-3 -16 -20 -16h-39q-20 0 -17 19l53 333q3 16 20 16h100zM476 408q0 42 -52 42h-43l-17 -106h42q70 0 70 64zM432 676q68 0 124.5 -22.5t97 -62.5t63 -95.5t22.5 -120.5q0 -80 -30.5 -150t-83 -123t-123 -83.5
t-149.5 -30.5q-68 0 -124.5 22.5t-97 62.5t-63 95.5t-22.5 120.5q0 79 30.5 149.5t83 123.5t123 83.5t149.5 30.5zM358 51q63 0 119.5 25.5t98.5 69t67 102t25 123.5q0 53 -17.5 97.5t-49 76.5t-76 50t-98.5 18q-63 0 -119.5 -25.5t-98.5 -69t-67 -102t-25 -123.5
q0 -53 17.5 -97.5t49 -76.5t76 -50t98.5 -18z" />
    <glyph glyph-name="trademark" unicode="&#x2122;" horiz-adv-x="776" 
d="M323 664q20 0 17 -19l-5 -31q-3 -16 -20 -16h-76l-43 -272q-3 -16 -20 -16h-40q-20 0 -17 19l43 269h-73q-20 0 -17 19l5 30q2 17 19 17h227zM772 664q20 0 17 -19l-50 -319q-3 -16 -20 -16h-39q-20 0 -17 19l39 242h-2l-126 -248q-7 -13 -22 -13h-24q-16 0 -19 16
l-49 238h-2l-38 -238q-3 -16 -20 -16h-36q-20 0 -17 19l50 319q3 16 20 16h74q16 0 19 -16l44 -224h2l115 227q7 13 22 13h79z" />
    <glyph glyph-name="uni2126" unicode="&#x2126;" horiz-adv-x="586" 
d="M348 676q106 0 163.5 -49.5t57.5 -142.5q0 -12 -1 -25t-3 -27l-24 -150q-21 -127 -114 -176v-2h61q26 0 21 -25l-10 -58q-3 -21 -24 -21h-157q-26 0 -21 25l10 66q3 18 19 25q75 40 93 152l25 157q2 12 3 22.5t1 21.5q0 103 -106 103q-63 0 -98 -36.5t-48 -111.5
l-24 -157q-2 -13 -3 -24.5t-1 -22.5q0 -69 44 -101q17 -12 14 -29l-11 -69q-3 -21 -24 -21h-157q-26 0 -21 25l9 58q3 21 24 21h75v2q-34 20 -52 55t-18 83q0 11 1 22t3 23l24 151q18 117 85 176.5t184 59.5z" />
    <glyph glyph-name="estimated" unicode="&#x212e;" horiz-adv-x="820" 
d="M201 112q42 -48 99.5 -75.5t123.5 -27.5q70 0 130 31t103 84h54q-51 -62 -126 -98.5t-163 -36.5q-75 0 -141 27t-115 73.5t-77.5 109.5t-28.5 134q0 72 28.5 134.5t77.5 109t115 73.5t141 27t141 -27t115 -73.5t77.5 -109t28.5 -134.5v-8h-587q-4 0 -4 -4v-189
q0 -6 2.5 -10.5t5.5 -9.5zM647 343q6 0 6 6v189q0 12 -10 22q-43 45 -99.5 71t-119.5 26q-66 0 -123 -27t-100 -74q-3 -5 -5.5 -10.5t-2.5 -11.5v-185q0 -6 4 -6h450z" />
    <glyph glyph-name="onethird" unicode="&#x2153;" horiz-adv-x="800" 
d="M607 612q9 12 25 12h48q13 0 16.5 -7t-4.5 -17l-481 -588q-9 -12 -25 -12h-49q-13 0 -16.5 7t4.5 17zM706 195q45 -23 45 -80q0 -58 -38.5 -90t-108.5 -32q-43 0 -73 13t-50 37q-12 14 2 28l22 21q8 8 14 7t14 -9q26 -27 71 -27q32 0 50 15.5t18 41.5q0 23 -15.5 33.5
t-51.5 10.5h-7q-22 0 -19 21l4 28q3 18 22 18h6q80 0 80 52q0 40 -49 40q-19 0 -36 -9t-32 -23q-16 -14 -28 2l-20 26q-13 16 2 28q28 24 59 35t64 11q55 0 87 -27.5t32 -75.5q0 -72 -64 -93v-2zM259 256q-3 -18 -22 -18h-37q-22 0 -19 21l41 257l-55 -37q-17 -11 -28 6
l-16 25q-9 17 6 28l115 78q11 8 25 8h27q22 0 19 -22z" />
    <glyph glyph-name="twothirds" unicode="&#x2154;" horiz-adv-x="800" 
d="M623 612q9 12 25 12h48q13 0 16.5 -7t-4.5 -17l-481 -588q-9 -12 -25 -12h-49q-13 0 -16.5 7t4.5 17zM706 195q45 -23 45 -80q0 -58 -38.5 -90t-108.5 -32q-43 0 -73 13t-50 37q-12 14 2 28l22 21q8 8 14 7t14 -9q26 -27 71 -27q32 0 50 15.5t18 41.5q0 23 -15.5 33.5
t-51.5 10.5h-7q-22 0 -19 21l4 28q3 18 22 18h6q80 0 80 52q0 40 -49 40q-19 0 -36 -9t-32 -23q-16 -14 -28 2l-20 26q-13 16 2 28q28 24 59 35t64 11q55 0 87 -27.5t32 -75.5q0 -72 -64 -93v-2zM283 309q22 0 19 -21l-5 -31q-3 -18 -21 -18h-213q-21 0 -18 22l5 31
q3 14 13 23l159 139q22 20 30.5 34.5t8.5 30.5q0 20 -12 31t-33 11q-18 0 -35 -10t-32 -27q-14 -15 -28 -1l-22 23q-13 13 -1 29q26 29 58.5 42.5t67.5 13.5q54 0 85 -29t31 -80q0 -35 -15.5 -61.5t-56.5 -59.5l-110 -90v-2h125z" />
    <glyph glyph-name="oneeighth" unicode="&#x215b;" horiz-adv-x="800" 
d="M607 612q9 12 25 12h48q13 0 16.5 -7t-4.5 -17l-481 -588q-9 -12 -25 -12h-49q-13 0 -16.5 7t4.5 17zM634 231q28 0 44 14t16 40q0 38 -49 38q-26 0 -42 -14t-16 -40q0 -38 47 -38zM708 193q45 -26 45 -79q0 -59 -39 -90t-108 -31q-65 0 -100 28t-35 79q0 78 76 103v2
q-38 24 -38 72q0 53 37 84.5t100 31.5q60 0 92.5 -27.5t32.5 -75.5q0 -34 -15.5 -58.5t-47.5 -36.5v-2zM607 63q32 0 49.5 15.5t17.5 42.5q0 43 -56 43q-32 0 -50 -15.5t-18 -42.5q0 -43 57 -43zM259 256q-3 -18 -22 -18h-37q-22 0 -19 21l41 257l-55 -37q-17 -11 -28 6
l-16 25q-9 17 6 28l115 78q11 8 25 8h27q22 0 19 -22z" />
    <glyph glyph-name="threeeighths" unicode="&#x215c;" horiz-adv-x="800" 
d="M612 612q9 12 25 12h48q13 0 16.5 -7t-4.5 -17l-481 -588q-9 -12 -25 -12h-49q-13 0 -16.5 7t4.5 17zM634 231q28 0 44 14t16 40q0 38 -49 38q-26 0 -42 -14t-16 -40q0 -38 47 -38zM708 193q45 -26 45 -79q0 -59 -39 -90t-108 -31q-65 0 -100 28t-35 79q0 78 76 103v2
q-38 24 -38 72q0 53 37 84.5t100 31.5q60 0 92.5 -27.5t32.5 -75.5q0 -34 -15.5 -58.5t-47.5 -36.5v-2zM607 63q32 0 49.5 15.5t17.5 42.5q0 43 -56 43q-32 0 -50 -15.5t-18 -42.5q0 -43 57 -43zM274 433q45 -23 45 -80q0 -58 -38.5 -90t-108.5 -32q-43 0 -73 13t-50 37
q-12 14 2 28l22 21q8 8 14 7t14 -9q26 -27 71 -27q32 0 50 15.5t18 41.5q0 23 -15.5 33.5t-51.5 10.5h-7q-22 0 -19 21l4 28q3 18 22 18h6q80 0 80 52q0 40 -49 40q-19 0 -36 -9t-32 -23q-16 -14 -28 2l-20 26q-13 16 2 28q28 24 59 35t64 11q55 0 87 -27.5t32 -75.5
q0 -72 -64 -93v-2z" />
    <glyph glyph-name="fiveeighths" unicode="&#x215d;" horiz-adv-x="800" 
d="M612 612q9 12 25 12h48q13 0 16.5 -7t-4.5 -17l-481 -588q-9 -12 -25 -12h-49q-13 0 -16.5 7t4.5 17zM634 231q28 0 44 14t16 40q0 38 -49 38q-26 0 -42 -14t-16 -40q0 -38 47 -38zM708 193q45 -26 45 -79q0 -59 -39 -90t-108 -31q-65 0 -100 28t-35 79q0 78 76 103v2
q-38 24 -38 72q0 53 37 84.5t100 31.5q60 0 92.5 -27.5t32.5 -75.5q0 -34 -15.5 -58.5t-47.5 -36.5v-2zM607 63q32 0 49.5 15.5t17.5 42.5q0 43 -56 43q-32 0 -50 -15.5t-18 -42.5q0 -43 57 -43zM321 624q22 0 19 -21l-5 -31q-3 -18 -21 -18h-140l-17 -77h2q26 13 56 13
q50 0 79.5 -30.5t29.5 -84.5q0 -68 -42 -106t-114 -38q-40 0 -70 12t-50 34q-12 14 2 28l22 22q13 13 28 -1q26 -25 69 -25q36 0 56 18t20 49q0 24 -14 38t-40 14q-27 0 -51 -16q-7 -4 -12.5 -6t-13.5 0l-23 4q-20 3 -15 23l40 181q4 18 22 18h183z" />
    <glyph glyph-name="seveneighths" unicode="&#x215e;" horiz-adv-x="800" 
d="M574 612q9 12 25 12h48q13 0 16.5 -7t-4.5 -17l-481 -588q-9 -12 -25 -12h-49q-13 0 -16.5 7t4.5 17zM634 231q28 0 44 14t16 40q0 38 -49 38q-26 0 -42 -14t-16 -40q0 -38 47 -38zM708 193q45 -26 45 -79q0 -59 -39 -90t-108 -31q-65 0 -100 28t-35 79q0 78 76 103v2
q-38 24 -38 72q0 53 37 84.5t100 31.5q60 0 92.5 -27.5t32.5 -75.5q0 -34 -15.5 -58.5t-47.5 -36.5v-2zM607 63q32 0 49.5 15.5t17.5 42.5q0 43 -56 43q-32 0 -50 -15.5t-18 -42.5q0 -43 57 -43zM171 251q-7 -13 -24 -13h-45q-13 0 -17 6.5t3 17.5l185 292h-119l-8 -49
q-3 -18 -21 -18h-32q-22 0 -19 22l16 97q3 18 21 18h236q23 0 18 -22l-6 -38q-1 -8 -3 -13t-6 -11z" />
    <glyph glyph-name="partialdiff" unicode="&#x2202;" horiz-adv-x="539" 
d="M330 676q96 0 143.5 -61.5t47.5 -172.5q0 -38 -6.5 -87t-21 -99.5t-38.5 -98.5t-58 -85.5t-80 -60.5t-105 -23q-85 0 -133.5 48.5t-48.5 131.5q0 57 18.5 106t50.5 86t75.5 58t93.5 21q46 0 79 -16t53 -45h2q2 17 3 33.5t1 30.5q0 70 -24 102t-73 32q-25 0 -48.5 -8
t-43.5 -20q-21 -13 -31 9l-22 48q-10 20 8 30q70 41 158 41zM218 88q49 0 90 44.5t67 124.5q-4 38 -26.5 60t-59.5 22q-30 0 -56.5 -13t-46 -36t-30.5 -53.5t-11 -64.5q0 -40 19 -62t54 -22z" />
    <glyph glyph-name="uni2206" unicode="&#x2206;" horiz-adv-x="588" 
d="M529 25q5 -25 -21 -25h-504q-14 0 -18.5 7.5t1.5 19.5l299 620q8 17 27 17h90q21 0 24 -21zM338 517l-189 -413h248l-57 413h-2z" />
    <glyph glyph-name="product" unicode="&#x220f;" horiz-adv-x="606" 
d="M501 -59q-3 -21 -24 -21h-74q-26 0 -21 25l98 615h-256l-99 -619q-3 -21 -24 -21h-74q-26 0 -21 25l111 698q3 21 24 21h450q26 0 21 -25z" />
    <glyph glyph-name="summation" unicode="&#x2211;" horiz-adv-x="493" 
d="M358 302q11 -17 -3 -32l-222 -246h288q26 0 21 -25l-10 -58q-3 -21 -24 -21h-416q-24 0 -21 25l11 69q3 14 13 26l230 252l-149 249q-8 13 -6 30l12 72q3 21 24 21h416q26 0 21 -25l-9 -58q-3 -21 -24 -21h-309z" />
    <glyph glyph-name="minus" unicode="&#x2212;" horiz-adv-x="529" 
d="M43 229q-26 0 -21 25l9 55q3 21 24 21h440q26 0 21 -25l-9 -55q-3 -21 -24 -21h-440z" />
    <glyph glyph-name="uni2219" unicode="&#x2219;" horiz-adv-x="248" 
d="M128 243q-29 0 -46.5 18t-17.5 46q0 32 21.5 52.5t51.5 20.5q29 0 46.5 -18t17.5 -46q0 -32 -21.5 -52.5t-51.5 -20.5z" />
    <glyph glyph-name="radical" unicode="&#x221a;" horiz-adv-x="525" 
d="M562 664q13 0 18 -7.5t0 -19.5l-285 -699q-8 -18 -26 -18h-79q-20 0 -25 20l-47 233l-54 -15q-23 -6 -28 17l-8 37q-5 22 17 28l129 35q22 6 27 -18l35 -205h2l237 594q7 18 26 18h61z" />
    <glyph glyph-name="infinity" unicode="&#x221e;" horiz-adv-x="620" 
d="M466 464q62 0 96.5 -35.5t34.5 -99.5q0 -79 -41 -124t-113 -45q-89 0 -136 84q-33 -44 -65 -64t-70 -20q-61 0 -95.5 35.5t-34.5 99.5q0 79 40.5 124t112.5 45q87 0 137 -84q32 44 64 64t70 20zM181 239q26 0 48.5 15t48.5 49q-20 45 -39.5 63.5t-47.5 18.5
q-31 0 -49 -23.5t-18 -62.5q0 -29 14.5 -44.5t42.5 -15.5zM515 323q0 62 -58 62q-26 0 -48.5 -15t-47.5 -48q23 -47 41.5 -65t44.5 -18q31 0 49.5 23t18.5 61z" />
    <glyph glyph-name="integral" unicode="&#x222b;" horiz-adv-x="335" 
d="M138 511q16 95 69.5 144.5t141.5 55.5q25 2 23 -24l-5 -48q-1 -11 -6.5 -16t-16.5 -7q-37 -6 -63.5 -36t-34.5 -83q-8 -52 -12.5 -107t-8.5 -113q-4 -61 -9 -123t-15 -125q-15 -95 -68.5 -144.5t-140.5 -55.5q-25 -2 -23 23l4 49q1 11 6.5 16t16.5 7q36 7 63.5 36.5
t35.5 82.5q8 52 12 107t8 112q4 62 8.5 124t14.5 125z" />
    <glyph glyph-name="approxequal" unicode="&#x2248;" horiz-adv-x="529" 
d="M196 375q-26 0 -45 -15t-39 -42q-14 -19 -33 -6l-40 28q-21 13 -6 32q38 56 77 80.5t86 24.5q31 0 57 -9t58 -31q23 -16 37 -21.5t29 -5.5q26 0 45.5 14.5t39.5 42.5q14 18 32 6l41 -28q20 -13 6 -32q-39 -56 -78 -80.5t-86 -24.5q-30 0 -56 9t-58 31q-23 16 -37 21.5
t-30 5.5zM160 147q-26 0 -45 -15t-39 -42q-14 -19 -33 -6l-40 28q-21 13 -6 32q38 56 77 80.5t86 24.5q31 0 57 -9t58 -31q23 -16 37 -21.5t29 -5.5q26 0 45.5 14.5t39.5 42.5q14 18 32 6l41 -28q20 -13 6 -32q-39 -56 -78 -80.5t-86 -24.5q-30 0 -56 9t-58 31
q-23 16 -37 21.5t-30 5.5z" />
    <glyph glyph-name="notequal" unicode="&#x2260;" horiz-adv-x="529" 
d="M464 216q26 0 21 -25l-9 -55q-3 -21 -24 -21h-248l-68 -95q-10 -14 -28 -14h-57q-14 0 -18 8t4 20l58 81h-57q-26 0 -21 25l8 55q3 21 24 21h119l90 126h-184q-26 0 -21 25l9 55q3 21 24 21h245l68 95q10 14 28 14h56q14 0 18 -8t-4 -20l-58 -81h61q26 0 21 -25l-9 -55
q-3 -21 -24 -21h-121l-91 -126h188z" />
    <glyph glyph-name="lessequal" unicode="&#x2264;" horiz-adv-x="529" 
d="M512 555q13 5 20 -1t5 -19l-9 -63q-3 -19 -21 -25l-300 -96v-2l265 -92q20 -8 17 -28l-10 -59q-3 -26 -28 -16l-386 147q-19 7 -16 28l8 55q3 18 21 24zM443 101q26 0 21 -25l-9 -55q-3 -21 -24 -21h-410q-26 0 -21 25l9 55q3 21 24 21h410z" />
    <glyph glyph-name="greaterequal" unicode="&#x2265;" horiz-adv-x="529" 
d="M496 409q19 -7 16 -28l-8 -55q-3 -18 -21 -24l-434 -147q-13 -5 -20 1t-5 19l9 63q3 19 21 25l299 96v2l-264 93q-20 8 -17 28l10 58q3 26 28 16zM443 101q26 0 21 -25l-9 -55q-3 -21 -24 -21h-410q-26 0 -21 25l9 55q3 21 24 21h410z" />
    <glyph glyph-name="lozenge" unicode="&#x25ca;" horiz-adv-x="515" 
d="M495 349q6 -16 -4 -32l-220 -313q-10 -14 -28 -14h-52q-19 0 -26 18l-120 307q-6 16 4 32l219 313q10 14 28 14h53q18 0 26 -18zM308 549l-152 -224l74 -210h2l152 224l-74 210h-2z" />
    <glyph glyph-name="uniE069" unicode="&#xe069;" horiz-adv-x="230" 
d="M173 580q-27 0 -43.5 16.5t-16.5 42.5q0 31 19.5 50.5t48.5 19.5q28 0 44.5 -16.5t16.5 -43.5q0 -31 -20 -50t-49 -19zM45 0q-26 0 -21 25l72 451q3 21 24 21h63q26 0 21 -25l-72 -451q-3 -21 -24 -21h-63z" />
    <glyph glyph-name="uniEF01" unicode="&#xef01;" horiz-adv-x="500" 
d="M197 -44q24 0 40 -16t16 -44q0 -19 -6.5 -38.5t-18.5 -36t-28 -30t-35 -20.5q-13 -5 -19 8l-10 20q-6 12 6 19q17 9 28 27q-37 11 -37 50q0 29 18.5 45t45.5 16z" />
    <glyph glyph-name="uniEF02" unicode="&#xef02;" horiz-adv-x="500" 
d="M316 514q-6 -16 -23 -16h-38q-23 0 -18 22l41 163q5 17 22 17h56q24 0 16 -23z" />
    <glyph glyph-name="uniF8FF" unicode="&#xf8ff;" horiz-adv-x="1000" 
d="M439 262h-1l-17 -78h-23l28 126h27v-66h1l28 66h31l-28 -126h-24l17 78h-1l-22 -52h-16v52zM123 208q-7 -24 -25 -24h-46l28 126h43q18 0 18 -15v-3.5t-1 -6.5zM269 184l6 26h-17l-7 -26h-24l23 103q5 23 26 23h22q18 0 18 -15v-3.5t-1 -6.5l-22 -101h-24zM546 184l6 26
h-17l-7 -26h-24l23 103q5 23 26 23h22q18 0 18 -15v-3.5t-1 -6.5l-22 -101h-24zM390 233q-4 -17 -13 -20l6 -29h-23l-4 26h-13l-6 -26h-24l28 126h43q18 0 18 -15v-3.5t-1 -6.5zM833 232q-4 -22 -24 -22h-22l-6 -26h-24l28 126h43q18 0 18 -15v-3.5t-1 -6.5zM205 184h-24
l6 26h-18l-6 -26h-24l28 126h24l-18 -81h18l18 81h24zM727 310l-17 -75q-1 -6 4 -6h7q5 0 6 4l17 77h24l-17 -78q-4 -22 -24 -22l-14 -26h-24l14 26q-7 0 -12.5 3.5t-5.5 11.5q0 5 1 10l17 75h24zM897 223h-26l-4 -20h33l-5 -19h-56l28 126h57l-5 -19h-32l-11 -49h25z
M647 184h-24l24 107h-19l4 19h61l-4 -19h-18zM80 203h13q4 0 6 5l17 77q1 6 -3 6h-13zM821 285q1 6 -4 6h-12l-14 -62h13q5 0 6 4zM377 285q1 6 -4 6h-12l-14 -62h13q5 0 6 4zM557 291q-5 0 -6 -5l-13 -57h18l12 56q1 6 -4 6h-7zM280 291q-5 0 -6 -5l-13 -57h18l12 56
q1 6 -4 6h-7zM987 303h-6v25h-1l-7 -20h-4l-7 20h-1v-25h-5v30h10l5 -16h1l5 16h10v-30zM952 328h-9v-25h-6v25h-8v5h23v-5z" />
    <glyph glyph-name="zero.numr" 
d="M72 503q20 128 144 128q59 0 91.5 -29t32.5 -80q0 -7 -0.5 -13.5t-1.5 -13.5l-22 -135q-21 -129 -145 -129q-58 0 -90.5 29t-32.5 80q0 7 0.5 13.5t1.5 13.5zM128 364q-1 -5 -1.5 -9t-0.5 -8q0 -46 48 -46q54 0 65 63l21 134q1 5 1 8.5v7.5q0 47 -47 47q-56 0 -65 -63z
" />
    <glyph glyph-name="one.numr" 
d="M259 256q-3 -18 -22 -18h-37q-22 0 -19 21l41 257l-55 -37q-17 -11 -28 6l-16 25q-9 17 6 28l115 78q11 8 25 8h27q22 0 19 -22z" />
    <glyph glyph-name="two.numr" 
d="M283 309q22 0 19 -21l-5 -31q-3 -18 -21 -18h-213q-21 0 -18 22l5 31q3 14 13 23l159 139q22 20 30.5 34.5t8.5 30.5q0 20 -12 31t-33 11q-18 0 -35 -10t-32 -27q-14 -15 -28 -1l-22 23q-13 13 -1 29q26 29 58.5 42.5t67.5 13.5q54 0 85 -29t31 -80q0 -35 -15.5 -61.5
t-56.5 -59.5l-110 -90v-2h125z" />
    <glyph glyph-name="three.numr" 
d="M274 433q45 -23 45 -80q0 -58 -38.5 -90t-108.5 -32q-43 0 -73 13t-50 37q-12 14 2 28l22 21q8 8 14 7t14 -9q26 -27 71 -27q32 0 50 15.5t18 41.5q0 23 -15.5 33.5t-51.5 10.5h-7q-22 0 -19 21l4 28q3 18 22 18h6q80 0 80 52q0 40 -49 40q-19 0 -36 -9t-32 -23
q-16 -14 -28 2l-20 26q-13 16 2 28q28 24 59 35t64 11q55 0 87 -27.5t32 -75.5q0 -72 -64 -93v-2z" />
    <glyph glyph-name="four.numr" 
d="M314 388q22 0 19 -21l-5 -31q-3 -18 -21 -18h-26l-10 -62q-3 -18 -21 -18h-38q-22 0 -19 22l10 58h-147q-22 0 -19 22l7 39q2 7 4 12.5t7 10.5l187 211q10 11 25 11h41q22 0 19 -22l-35 -214h22zM232 507l-103 -119h85l20 119h-2z" />
    <glyph glyph-name="five.numr" 
d="M321 624q22 0 19 -21l-5 -31q-3 -18 -21 -18h-140l-17 -77h2q26 13 56 13q50 0 79.5 -30.5t29.5 -84.5q0 -68 -42 -106t-114 -38q-40 0 -70 12t-50 34q-12 14 2 28l22 22q13 13 28 -1q26 -25 69 -25q36 0 56 18t20 49q0 24 -14 38t-40 14q-27 0 -51 -16q-7 -4 -12.5 -6
t-13.5 0l-23 4q-20 3 -15 23l40 181q4 18 22 18h183z" />
    <glyph glyph-name="six.numr" 
d="M153 472q27 21 69 21q46 0 73.5 -30.5t27.5 -81.5q0 -71 -39 -110.5t-106 -39.5q-58 0 -91 30.5t-33 81.5q0 6 0.5 12t1.5 12l21 131q11 66 48 99.5t98 33.5q32 0 58.5 -7.5t45.5 -21.5q16 -12 3 -28l-22 -28q-11 -16 -28 -2q-22 17 -52 17q-62 0 -73 -68l-4 -21h2z
M245 372q0 25 -12.5 38t-34.5 13q-28 0 -46.5 -20t-18.5 -55q0 -22 12 -34.5t35 -12.5q29 0 47 19.5t18 51.5z" />
    <glyph glyph-name="seven.numr" 
d="M171 251q-7 -13 -24 -13h-45q-13 0 -17 6.5t3 17.5l185 292h-119l-8 -49q-3 -18 -21 -18h-32q-22 0 -19 22l16 97q3 18 21 18h236q23 0 18 -22l-6 -38q-1 -8 -3 -13t-6 -11z" />
    <glyph glyph-name="eight.numr" 
d="M202 469q28 0 44 14t16 40q0 38 -49 38q-26 0 -42 -14t-16 -40q0 -38 47 -38zM276 431q45 -26 45 -79q0 -59 -39 -90t-108 -31q-65 0 -100 28t-35 79q0 78 76 103v2q-38 24 -38 72q0 53 37 84.5t100 31.5q60 0 92.5 -27.5t32.5 -75.5q0 -34 -15.5 -58.5t-47.5 -36.5v-2z
M175 301q32 0 49.5 15.5t17.5 42.5q0 43 -56 43q-32 0 -50 -15.5t-18 -42.5q0 -43 57 -43z" />
    <glyph glyph-name="nine.numr" 
d="M209 631q59 0 92 -30.5t33 -81.5q0 -6 -0.5 -12t-1.5 -12l-21 -131q-11 -66 -48 -99.5t-98 -33.5q-65 0 -104 30q-16 10 -3 27l20 27q11 15 27 3q25 -17 55 -17q62 0 73 68l4 21h-2q-26 -22 -69 -22q-47 0 -74 31t-27 82q0 70 39 110t105 40zM189 438q29 0 47.5 20.5
t18.5 54.5q0 23 -12.5 35.5t-35.5 12.5q-29 0 -46.5 -19.5t-17.5 -51.5q0 -25 12.5 -38.5t33.5 -13.5z" />
    <glyph glyph-name="zero.dnom" 
d="M34 265q20 128 144 128q59 0 91.5 -29t32.5 -80q0 -7 -0.5 -13.5t-1.5 -13.5l-22 -135q-21 -129 -145 -129q-58 0 -90.5 29t-32.5 80q0 7 0.5 13.5t1.5 13.5zM90 126q-1 -5 -1.5 -9t-0.5 -8q0 -46 48 -46q54 0 65 63l21 134q1 5 1 8.5v7.5q0 47 -47 47q-56 0 -65 -63z
" />
    <glyph glyph-name="one.dnom" 
d="M221 18q-3 -18 -22 -18h-37q-22 0 -19 21l41 257l-55 -37q-17 -11 -28 6l-16 25q-9 17 6 28l115 78q11 8 25 8h27q22 0 19 -22z" />
    <glyph glyph-name="two.dnom" 
d="M245 71q22 0 19 -21l-5 -31q-3 -18 -21 -18h-213q-21 0 -18 22l5 31q3 14 13 23l159 139q22 20 30.5 34.5t8.5 30.5q0 20 -12 31t-33 11q-18 0 -35 -10t-32 -27q-14 -15 -28 -1l-22 23q-13 13 -1 29q26 29 58.5 42.5t67.5 13.5q54 0 85 -29t31 -80q0 -35 -15.5 -61.5
t-56.5 -59.5l-110 -90v-2h125z" />
    <glyph glyph-name="three.dnom" 
d="M236 195q45 -23 45 -80q0 -58 -38.5 -90t-108.5 -32q-43 0 -73 13t-50 37q-12 14 2 28l22 21q8 8 14 7t14 -9q26 -27 71 -27q32 0 50 15.5t18 41.5q0 23 -15.5 33.5t-51.5 10.5h-7q-22 0 -19 21l4 28q3 18 22 18h6q80 0 80 52q0 40 -49 40q-19 0 -36 -9t-32 -23
q-16 -14 -28 2l-20 26q-13 16 2 28q28 24 59 35t64 11q55 0 87 -27.5t32 -75.5q0 -72 -64 -93v-2z" />
    <glyph glyph-name="four.dnom" 
d="M276 150q22 0 19 -21l-5 -31q-3 -18 -21 -18h-26l-10 -62q-3 -18 -21 -18h-38q-22 0 -19 22l10 58h-147q-22 0 -19 22l7 39q2 7 4 12.5t7 10.5l187 211q10 11 25 11h41q22 0 19 -22l-35 -214h22zM194 269l-103 -119h85l20 119h-2z" />
    <glyph glyph-name="five.dnom" 
d="M283 386q22 0 19 -21l-5 -31q-3 -18 -21 -18h-140l-17 -77h2q26 13 56 13q50 0 79.5 -30.5t29.5 -84.5q0 -68 -42 -106t-114 -38q-40 0 -70 12t-50 34q-12 14 2 28l22 22q13 13 28 -1q26 -25 69 -25q36 0 56 18t20 49q0 24 -14 38t-40 14q-27 0 -51 -16q-7 -4 -12.5 -6
t-13.5 0l-23 4q-20 3 -15 23l40 181q4 18 22 18h183z" />
    <glyph glyph-name="six.dnom" 
d="M115 234q27 21 69 21q46 0 73.5 -30.5t27.5 -81.5q0 -71 -39 -110.5t-106 -39.5q-58 0 -91 30.5t-33 81.5q0 6 0.5 12t1.5 12l21 131q11 66 48 99.5t98 33.5q32 0 58.5 -7.5t45.5 -21.5q16 -12 3 -28l-22 -28q-11 -16 -28 -2q-22 17 -52 17q-62 0 -73 -68l-4 -21h2z
M207 134q0 25 -12.5 38t-34.5 13q-28 0 -46.5 -20t-18.5 -55q0 -22 12 -34.5t35 -12.5q29 0 47 19.5t18 51.5z" />
    <glyph glyph-name="seven.dnom" 
d="M133 13q-7 -13 -24 -13h-45q-13 0 -17 6.5t3 17.5l185 292h-119l-8 -49q-3 -18 -21 -18h-32q-22 0 -19 22l16 97q3 18 21 18h236q23 0 18 -22l-6 -38q-1 -8 -3 -13t-6 -11z" />
    <glyph glyph-name="eight.dnom" 
d="M164 231q28 0 44 14t16 40q0 38 -49 38q-26 0 -42 -14t-16 -40q0 -38 47 -38zM238 193q45 -26 45 -79q0 -59 -39 -90t-108 -31q-65 0 -100 28t-35 79q0 78 76 103v2q-38 24 -38 72q0 53 37 84.5t100 31.5q60 0 92.5 -27.5t32.5 -75.5q0 -34 -15.5 -58.5t-47.5 -36.5v-2z
M137 63q32 0 49.5 15.5t17.5 42.5q0 43 -56 43q-32 0 -50 -15.5t-18 -42.5q0 -43 57 -43z" />
    <glyph glyph-name="nine.dnom" 
d="M171 393q59 0 92 -30.5t33 -81.5q0 -6 -0.5 -12t-1.5 -12l-21 -131q-11 -66 -48 -99.5t-98 -33.5q-65 0 -104 30q-16 10 -3 27l20 27q11 15 27 3q25 -17 55 -17q62 0 73 68l4 21h-2q-26 -22 -69 -22q-47 0 -74 31t-27 82q0 70 39 110t105 40zM151 200q29 0 47.5 20.5
t18.5 54.5q0 23 -12.5 35.5t-35.5 12.5q-29 0 -46.5 -19.5t-17.5 -51.5q0 -25 12.5 -38.5t33.5 -13.5z" />
    </font>
</defs>
</svg>
