<?xml version="1.0" standalone="no"?>
<!DOCTYPE svg PUBLIC "-//W3C//DTD SVG 1.1//EN" "http://www.w3.org/Graphics/SVG/1.1/DTD/svg11.dtd" >
<svg>
<metadata>
Created by FontForge 20120731 at Mon Jul 10 16:05:21 2017
 By www
Copyright (c) 2014 by Ryoichi Tsunekawa. All rights reserved.
</metadata>
<defs>
<font id="KiroW03-Light" horiz-adv-x="330" >
  <font-face 
    font-family="KiroW03-Light"
    font-weight="350"
    font-stretch="normal"
    units-per-em="1000"
    panose-1="2 15 4 6 2 2 3 4 2 4"
    ascent="800"
    descent="-200"
    x-height="493"
    cap-height="664"
    bbox="-159.125 -182.231 1033 911"
    underline-thickness="50"
    underline-position="-75"
    unicode-range="U+0020-FB04"
  />
<missing-glyph horiz-adv-x="600" 
d="M69 0v664h462v-664h-462zM144 623l156 -248l156 248h-312zM114 585v-506l159 253zM486 79v506l-159 -253zM300 289l-156 -248h312z" />
    <glyph glyph-name="uniFB00" unicode="ff" horiz-adv-x="604" 
d="M627 689q12 -6 6 -20l-10 -21q-7 -15 -20 -7q-15 8 -32 13t-38 5q-96 0 -96 -116v-50h151q15 0 15 -15v-23q0 -15 -15 -15h-151v-425q0 -15 -15 -15h-31q-15 0 -15 15v425h-221v-425q0 -15 -15 -15h-31q-15 0 -15 15v425h-60q-15 0 -15 15v23q0 15 15 15h60v36
q0 81 44.5 127t125.5 46q44 0 79.5 -13t60.5 -34q40 57 125 57q56 0 98 -23zM376 546q0 29 6 55q-19 20 -48 34t-67 14q-53 0 -82.5 -32.5t-29.5 -90.5v-33h221v53z" />
    <glyph glyph-name="uniFB01" unicode="fi" horiz-adv-x="507" 
d="M420 493q15 0 15 -15v-463q0 -15 -15 -15h-31q-15 0 -15 15v425h-219v-425q0 -15 -15 -15h-31q-15 0 -15 15v425h-60q-15 0 -15 15v23q0 15 15 15h60v53q0 79 42.5 122.5t123.5 43.5q77 0 126 -37q11 -10 3 -21l-14 -20q-9 -12 -22 -2q-18 13 -39 20t-51 7q-54 0 -81 -30
t-27 -86v-50h265z" />
    <glyph glyph-name="uniFB02" unicode="fl" horiz-adv-x="517" 
d="M430 700q15 0 15 -15v-670q0 -15 -15 -15h-31q-15 0 -15 15v597q-17 19 -48 33t-69 14q-53 0 -82.5 -32.5t-29.5 -90.5v-43h138q15 0 15 -15v-23q0 -15 -15 -15h-138v-425q0 -15 -15 -15h-31q-15 0 -15 15v425h-60q-15 0 -15 15v23q0 15 15 15h60v46q0 81 44.5 127
t125.5 46q35 0 66 -8.5t54 -22.5v4q0 15 15 15h31z" />
    <glyph glyph-name="uniFB03" unicode="ffi" horiz-adv-x="788" 
d="M702 493q15 0 15 -15v-463q0 -15 -15 -15h-31q-15 0 -15 15v425h-219v-425q0 -15 -15 -15h-31q-15 0 -15 15v425h-221v-425q0 -15 -15 -15h-31q-15 0 -15 15v425h-60q-15 0 -15 15v23q0 15 15 15h60v36q0 81 44.5 127t125.5 46q45 0 81 -13.5t61 -34.5q21 28 55 43t81 15
q77 0 126 -37q11 -10 3 -21l-14 -20q-9 -12 -22 -2q-18 13 -39 20t-51 7q-54 0 -81 -30t-27 -86v-50h265zM376 546q0 30 6 54q-19 21 -48 35t-67 14q-53 0 -82.5 -32.5t-29.5 -90.5v-33h221v53z" />
    <glyph glyph-name="uniFB04" unicode="ffl" horiz-adv-x="798" 
d="M712 700q15 0 15 -15v-670q0 -15 -15 -15h-31q-15 0 -15 15v597q-17 19 -48 33t-69 14q-53 0 -82.5 -32.5t-29.5 -90.5v-43h138q15 0 15 -15v-23q0 -15 -15 -15h-138v-425q0 -15 -15 -15h-31q-15 0 -15 15v425h-221v-425q0 -15 -15 -15h-31q-15 0 -15 15v425h-60
q-15 0 -15 15v23q0 15 15 15h60v36q0 81 44.5 127t125.5 46q45 0 82 -14t62 -36q45 60 138 60q35 0 66 -8.5t54 -22.5v4q0 15 15 15h31zM376 539q0 33 7 60q-20 22 -49 36t-67 14q-53 0 -82.5 -32.5t-29.5 -90.5v-33h221v46z" />
    <glyph glyph-name="f_b.liga" unicode="fb" horiz-adv-x="804" 
d="M384 612q-17 19 -48 33t-69 14q-53 0 -82.5 -32.5t-29.5 -90.5v-43h138q15 0 15 -15v-23q0 -15 -15 -15h-138v-425q0 -15 -15 -15h-31q-15 0 -15 15v425h-60q-15 0 -15 15v23q0 15 15 15h60v46q0 81 44.5 127t125.5 46q35 0 66 -8.5t54 -22.5v4q0 15 15 15h31
q15 0 15 -15v-243h1q39 63 130 63q86 0 130.5 -47.5t44.5 -139.5v-142q0 -92 -46.5 -140t-136.5 -48q-91 0 -137.5 48t-46.5 140v436zM690 309q0 74 -29.5 108.5t-92.5 34.5q-123 0 -123 -143v-124q0 -75 30 -109.5t93 -34.5t92.5 34.5t29.5 109.5v124z" />
    <glyph glyph-name="f_f_b.liga" unicode="ffb" horiz-adv-x="1086" 
d="M666 685q0 15 15 15h31q15 0 15 -15v-243h1q39 63 130 63q86 0 130.5 -47.5t44.5 -139.5v-142q0 -92 -46.5 -140t-136.5 -48q-91 0 -137.5 48t-46.5 140v436q-17 19 -48 33t-69 14q-53 0 -82.5 -32.5t-29.5 -90.5v-43h138q15 0 15 -15v-23q0 -15 -15 -15h-138v-425
q0 -15 -15 -15h-31q-15 0 -15 15v425h-221v-425q0 -15 -15 -15h-31q-15 0 -15 15v425h-60q-15 0 -15 15v23q0 15 15 15h60v36q0 81 44.5 127t125.5 46q45 0 82 -14t62 -36q45 60 138 60q35 0 66 -8.5t54 -22.5v4zM376 539q0 33 7 60q-20 22 -49 36t-67 14q-53 0 -82.5 -32.5
t-29.5 -90.5v-33h221v46zM972 309q0 74 -29.5 108.5t-92.5 34.5q-123 0 -123 -143v-124q0 -75 30 -109.5t93 -34.5t92.5 34.5t29.5 109.5v124z" />
    <glyph glyph-name="f_h.liga" unicode="fh" horiz-adv-x="811" 
d="M430 700q15 0 15 -15v-241h1q37 61 128 61q84 0 127 -46t43 -137v-307q0 -15 -15 -15h-31q-15 0 -15 15v298q0 72 -29 105.5t-90 33.5q-119 0 -119 -139v-298q0 -15 -15 -15h-31q-15 0 -15 15v597q-17 19 -48 33t-69 14q-53 0 -82.5 -32.5t-29.5 -90.5v-43h138
q15 0 15 -15v-23q0 -15 -15 -15h-138v-425q0 -15 -15 -15h-31q-15 0 -15 15v425h-60q-15 0 -15 15v23q0 15 15 15h60v46q0 81 44.5 127t125.5 46q35 0 66 -8.5t54 -22.5v4q0 15 15 15h31z" />
    <glyph glyph-name="f_f_h.liga" unicode="ffh" horiz-adv-x="1093" 
d="M376 539q0 33 7 60q-20 22 -49 36t-67 14q-53 0 -82.5 -32.5t-29.5 -90.5v-33h221v46zM666 612q-17 19 -48 33t-69 14q-53 0 -82.5 -32.5t-29.5 -90.5v-43h138q15 0 15 -15v-23q0 -15 -15 -15h-138v-425q0 -15 -15 -15h-31q-15 0 -15 15v425h-221v-425q0 -15 -15 -15h-31
q-15 0 -15 15v425h-60q-15 0 -15 15v23q0 15 15 15h60v36q0 81 44.5 127t125.5 46q45 0 82 -14t62 -36q45 60 138 60q35 0 66 -8.5t54 -22.5v4q0 15 15 15h31q15 0 15 -15v-241h1q37 61 128 61q84 0 127 -46t43 -137v-307q0 -15 -15 -15h-31q-15 0 -15 15v298
q0 72 -29 105.5t-90 33.5q-119 0 -119 -139v-298q0 -15 -15 -15h-31q-15 0 -15 15v597z" />
    <glyph glyph-name="f_j.liga" unicode="fj" horiz-adv-x="507" 
d="M420 493q15 0 15 -15v-500q0 -68 -32.5 -103t-97.5 -35h-9q-15 0 -15 15v23q0 15 15 15q78 0 78 85v462h-219v-425q0 -15 -15 -15h-31q-15 0 -15 15v425h-60q-15 0 -15 15v23q0 15 15 15h60v53q0 79 42.5 122.5t123.5 43.5q77 0 126 -37q11 -9 2 -21l-14 -20
q-9 -11 -21 -2q-18 13 -39 20t-51 7q-54 0 -81 -30t-27 -86v-50h265z" />
    <glyph glyph-name="f_f_j.liga" unicode="ffj" horiz-adv-x="788" 
d="M376 546q0 30 6 54q-19 21 -48 35t-67 14q-53 0 -82.5 -32.5t-29.5 -90.5v-33h221v53zM717 -22q0 -68 -32.5 -103t-97.5 -35h-9q-15 0 -15 15v23q0 15 15 15q78 0 78 85v462h-219v-425q0 -15 -15 -15h-31q-15 0 -15 15v425h-221v-425q0 -15 -15 -15h-31q-15 0 -15 15v425
h-60q-15 0 -15 15v23q0 15 15 15h60v36q0 81 44.5 127t125.5 46q45 0 81 -13.5t61 -34.5q21 28 55 43t81 15q77 0 126 -37q11 -9 2 -21l-14 -20q-9 -11 -21 -2q-18 13 -39 20t-51 7q-54 0 -81 -30t-27 -86v-50h265q15 0 15 -15v-500z" />
    <glyph glyph-name="f_k.liga" unicode="fk" horiz-adv-x="747" 
d="M430 700q15 0 15 -15v-416l200 216q7 8 18 8h42q10 0 12.5 -5.5t-4.5 -12.5l-210 -223l221 -234q7 -7 4.5 -12.5t-12.5 -5.5h-44q-11 0 -18 8l-209 226v-219q0 -15 -15 -15h-31q-15 0 -15 15v597q-17 19 -48 33t-69 14q-53 0 -82.5 -32.5t-29.5 -90.5v-43h138
q15 0 15 -15v-23q0 -15 -15 -15h-138v-425q0 -15 -15 -15h-31q-15 0 -15 15v425h-60q-15 0 -15 15v23q0 15 15 15h60v46q0 81 44.5 127t125.5 46q35 0 66 -8.5t54 -22.5v4q0 15 15 15h31z" />
    <glyph glyph-name="f_f_k.liga" unicode="ffk" horiz-adv-x="1029" 
d="M666 685q0 15 15 15h31q15 0 15 -15v-416l200 216q7 8 18 8h42q10 0 12.5 -5.5t-4.5 -12.5l-210 -223l221 -234q7 -7 4.5 -12.5t-12.5 -5.5h-44q-11 0 -18 8l-209 226v-219q0 -15 -15 -15h-31q-15 0 -15 15v597q-17 19 -48 33t-69 14q-53 0 -82.5 -32.5t-29.5 -90.5v-43
h138q15 0 15 -15v-23q0 -15 -15 -15h-138v-425q0 -15 -15 -15h-31q-15 0 -15 15v425h-221v-425q0 -15 -15 -15h-31q-15 0 -15 15v425h-60q-15 0 -15 15v23q0 15 15 15h60v36q0 81 44.5 127t125.5 46q45 0 82 -14t62 -36q45 60 138 60q35 0 66 -8.5t54 -22.5v4zM376 539
q0 33 7 60q-20 22 -49 36t-67 14q-53 0 -82.5 -32.5t-29.5 -90.5v-33h221v46z" />
    <glyph glyph-name="f_t.liga" unicode="ft" horiz-adv-x="633" 
d="M615 30q5 -13 -6 -20q-18 -11 -41 -16.5t-49 -5.5q-71 0 -107.5 38t-36.5 111v303h-220v-425q0 -15 -15 -15h-31q-15 0 -15 15v425h-60q-15 0 -15 15v23q0 15 15 15h60v53q0 79 42 122.5t120 43.5q38 0 66 -8.5t51 -23.5q12 -9 5 -21l-13 -21q-8 -13 -21 -3
q-15 10 -35 17t-49 7q-52 0 -78.5 -30t-26.5 -86v-50h220v89q0 15 15 15h31q15 0 15 -15v-89h151q15 0 15 -15v-23q0 -15 -15 -15h-151v-300q0 -99 89 -99q31 0 60 17q15 8 21 -6z" />
    <glyph glyph-name="f_f_t.liga" unicode="fft" horiz-adv-x="915" 
d="M897 30q5 -13 -6 -20q-18 -11 -41 -16.5t-49 -5.5q-71 0 -107.5 38t-36.5 111v303h-220v-425q0 -15 -15 -15h-31q-15 0 -15 15v425h-221v-425q0 -15 -15 -15h-31q-15 0 -15 15v425h-60q-15 0 -15 15v23q0 15 15 15h60v36q0 81 44.5 127t125.5 46q45 0 81 -13.5t61 -34.5
q41 58 132 58q38 0 66 -8.5t51 -23.5q12 -9 5 -21l-13 -21q-8 -13 -21 -3q-15 10 -35 17t-49 7q-52 0 -78.5 -30t-26.5 -86v-50h220v89q0 15 15 15h31q15 0 15 -15v-89h151q15 0 15 -15v-23q0 -15 -15 -15h-151v-300q0 -99 89 -99q31 0 60 17q15 8 21 -6zM376 546q0 30 6 54
q-19 21 -48 35t-67 14q-53 0 -82.5 -32.5t-29.5 -90.5v-33h221v53z" />
    <glyph glyph-name=".notdef" horiz-adv-x="600" 
d="M69 0v664h462v-664h-462zM144 623l156 -248l156 248h-312zM114 585v-506l159 253zM486 79v506l-159 -253zM300 289l-156 -248h312z" />
    <glyph glyph-name=".null" horiz-adv-x="0" 
 />
    <glyph glyph-name="nonmarkingreturn" horiz-adv-x="333" 
 />
    <glyph glyph-name="space" unicode=" " horiz-adv-x="215" 
 />
    <glyph glyph-name="exclam" unicode="!" horiz-adv-x="222" 
d="M130 177q-1 -10 -11 -10h-15q-10 0 -11 10l-12 192v280q0 15 15 15h31q15 0 15 -15v-280zM111 -12q-19 0 -31.5 12.5t-12.5 31.5q0 20 12.5 32.5t31.5 12.5q20 0 32.5 -12.5t12.5 -32.5q0 -19 -12.5 -31.5t-32.5 -12.5z" />
    <glyph glyph-name="quotedbl" unicode="&#x22;" horiz-adv-x="354" 
d="M121 461q-2 -12 -13 -12h-17q-12 0 -13 12l-9 188q-2 15 14 15h32q15 0 14 -15zM276 461q-2 -12 -13 -12h-17q-12 0 -13 12l-9 188q-2 15 14 15h32q15 0 14 -15z" />
    <glyph glyph-name="numbersign" unicode="#" horiz-adv-x="529" 
d="M458 244q15 0 12 -15l-4 -22q-1 -13 -15 -13h-90l-32 -181q-1 -13 -15 -13h-23q-15 0 -12 15l31 179h-135l-32 -181q-1 -13 -15 -13h-24q-15 0 -12 15l31 179h-89q-15 0 -12 15l4 22q1 13 15 13h91l27 156h-89q-15 0 -12 15l4 22q1 13 15 13h91l28 161q1 13 15 13h24
q15 0 12 -15l-27 -159h135l28 161q1 13 15 13h24q15 0 12 -15l-28 -159h88q15 0 12 -15l-4 -22q-1 -13 -15 -13h-89l-28 -156h88zM184 244h135l27 156h-135z" />
    <glyph glyph-name="dollar" unicode="$" horiz-adv-x="529" 
d="M477 178q0 -35 -13 -65t-36.5 -52t-57 -35.5t-73.5 -16.5v-66q0 -13 -13 -13h-29q-13 0 -13 13v66q-63 5 -108 27.5t-77 65.5q-9 12 2 21l21 19q11 10 21 -3q51 -66 141 -75v221q-49 6 -83.5 18t-56 31.5t-31 47t-9.5 64.5q0 35 13 65t36.5 52t56.5 35.5t74 16.5v60
q0 13 13 13h29q13 0 13 -13v-61q103 -9 156 -79q9 -12 -2 -21l-21 -18q-11 -10 -21 3q-41 51 -112 60v-222q98 -11 139 -49t41 -110zM125 447q0 -45 27 -69t90 -34v216q-54 -6 -85.5 -36t-31.5 -77zM297 64q54 6 85.5 36.5t31.5 76.5q0 44 -27 67.5t-90 33.5v-214z" />
    <glyph glyph-name="percent" unicode="%" horiz-adv-x="626" 
d="M33 513q0 60 30 91.5t88 31.5q57 0 87.5 -31.5t30.5 -91.5v-77q0 -60 -30.5 -91.5t-87.5 -31.5q-58 0 -88 31.5t-30 91.5v77zM484 616q6 8 16 8h28q8 0 10.5 -4.5t-1.5 -11.5l-396 -600q-6 -8 -16 -8h-27q-8 0 -11 4.5t2 11.5zM81 439q0 -43 16.5 -62t53.5 -19t53.5 19
t16.5 62v72q0 42 -16.5 61t-53.5 19t-53.5 -19t-16.5 -61v-72zM358 188q0 60 30 91.5t88 31.5q57 0 87.5 -31.5t30.5 -91.5v-77q0 -60 -30.5 -91.5t-87.5 -31.5q-58 0 -88 31.5t-30 91.5v77zM406 114q0 -43 16.5 -62t53.5 -19t53.5 19t16.5 62v72q0 42 -16.5 61t-53.5 19
t-53.5 -19t-16.5 -61v-72z" />
    <glyph glyph-name="ampersand" unicode="&#x26;" horiz-adv-x="583" 
d="M437 71q-73 -83 -190 -83q-100 0 -155.5 52t-55.5 138q0 62 28.5 110.5t85.5 90.5q-52 68 -52 132q0 78 46 121.5t127 43.5q39 0 76 -10.5t64 -32.5q12 -9 3 -22l-16 -22q-10 -13 -22 -2q-42 34 -100 34q-55 0 -85 -28.5t-30 -81.5q0 -34 16 -64.5t50 -67.5l203 -217
q33 58 58 149q4 15 18 12l28 -7q16 -3 11 -19q-16 -55 -34 -99.5t-40 -79.5l94 -100q7 -7 4.5 -12.5t-12.5 -5.5h-42q-11 0 -19 8zM251 43q85 0 145 71l-209 222q-88 -64 -88 -156q0 -60 40 -98.5t112 -38.5z" />
    <glyph glyph-name="quotesingle" unicode="'" horiz-adv-x="199" 
d="M121 461q-2 -12 -13 -12h-17q-12 0 -13 12l-9 188q-2 15 14 15h32q15 0 14 -15z" />
    <glyph glyph-name="parenleft" unicode="(" horiz-adv-x="320" 
d="M251 664q20 0 8 -17q-58 -82 -85.5 -174.5t-27.5 -185.5t27.5 -185.5t85.5 -174.5q12 -17 -8 -17h-27q-11 0 -18 8q-63 81 -92.5 176.5t-29.5 192.5t29.5 192.5t92.5 176.5q7 8 18 8h27z" />
    <glyph glyph-name="parenright" unicode=")" horiz-adv-x="320" 
d="M69 -90q-20 0 -8 17q58 82 85.5 174.5t27.5 185.5t-27.5 185.5t-85.5 174.5q-12 17 8 17h27q11 0 18 -8q63 -81 92.5 -176.5t29.5 -192.5t-29.5 -192.5t-92.5 -176.5q-7 -8 -18 -8h-27z" />
    <glyph glyph-name="asterisk" unicode="*" horiz-adv-x="475" 
d="M376 341q9 -12 -3 -21l-20 -15q-13 -9 -21 4l-94 150l-95 -150q-8 -13 -21 -4l-21 15q-12 9 -3 21l113 136l-170 45q-14 4 -10 19l7 23q5 15 19 9l164 -63l-11 175q-2 15 14 15h27q16 0 14 -15l-11 -175l164 63q14 6 19 -9l7 -23q4 -15 -10 -19l-170 -45z" />
    <glyph glyph-name="plus" unicode="+" horiz-adv-x="529" 
d="M292 51q0 -15 -15 -15h-26q-15 0 -15 15v200h-200q-15 0 -15 15v26q0 15 15 15h200v200q0 15 15 15h26q15 0 15 -15v-200h200q15 0 15 -15v-26q0 -15 -15 -15h-200v-200z" />
    <glyph glyph-name="comma" unicode="," horiz-adv-x="220" 
d="M110 77q20 0 32.5 -13.5t12.5 -37.5q0 -37 -17.5 -70.5t-45.5 -56.5q-9 -7 -15 1l-9 10q-6 7 1 14q29 26 35 70q-17 2 -27.5 13t-10.5 28q0 20 12.5 31t31.5 11z" />
    <glyph glyph-name="hyphen" unicode="-" 
d="M45 242q-15 0 -15 15v29q0 15 15 15h240q15 0 15 -15v-29q0 -15 -15 -15h-240z" />
    <glyph glyph-name="period" unicode="." horiz-adv-x="220" 
d="M110 -12q-19 0 -31.5 12.5t-12.5 31.5q0 20 12.5 32.5t31.5 12.5q20 0 32.5 -12.5t12.5 -32.5q0 -19 -12.5 -31.5t-32.5 -12.5z" />
    <glyph glyph-name="slash" unicode="/" horiz-adv-x="351" 
d="M267 653q5 11 16 11h28q17 0 11 -16l-238 -637q-5 -11 -16 -11h-28q-17 0 -11 16z" />
    <glyph glyph-name="zero" unicode="0" horiz-adv-x="529" 
d="M55 421q0 106 53 160.5t156 54.5t156.5 -54.5t53.5 -160.5v-217q0 -106 -53.5 -161t-156.5 -55t-156 55t-53 161v217zM118 211q0 -86 36 -127t110 -41q75 0 111 41t36 127v203q0 85 -36 126t-111 41q-146 0 -146 -167v-203z" />
    <glyph glyph-name="one" unicode="1" horiz-adv-x="529" 
d="M372 15q0 -15 -15 -15h-33q-15 0 -15 15v529l-151 -112q-12 -9 -21 3l-15 21q-8 12 4 21l190 141q9 6 18 6h23q15 0 15 -15v-594z" />
    <glyph glyph-name="two" unicode="2" horiz-adv-x="529" 
d="M471 15q0 -15 -15 -15h-372q-15 0 -15 15v27q0 11 8 19l249 247q23 23 38.5 42t25 36.5t13.5 35.5t4 39q0 57 -37 88.5t-102 31.5q-50 0 -87.5 -22.5t-61.5 -64.5q-9 -14 -21 -5l-22 14q-12 8 -5 21q31 54 82.5 83t116.5 29q93 0 146.5 -47t53.5 -128q0 -27 -5.5 -51
t-17.5 -46.5t-31 -45.5t-45 -48l-219 -215h304q15 0 15 -15v-25z" />
    <glyph glyph-name="three" unicode="3" horiz-adv-x="529" 
d="M371 328q57 -17 87.5 -57t30.5 -101q0 -86 -57 -134t-159 -48q-141 0 -210 90q-9 10 2 21l20 18q12 10 21 -2q57 -72 164 -72q75 0 115.5 34t40.5 97q0 62 -42.5 93t-125.5 31h-50q-15 0 -15 15v25q0 15 15 15h45q156 0 156 111q0 56 -37.5 86.5t-106.5 30.5
q-99 0 -154 -72q-9 -12 -21 -2l-20 18q-9 10 -1 21q72 90 199 90q97 0 150.5 -44.5t53.5 -124.5q0 -52 -26.5 -87t-74.5 -51v-1z" />
    <glyph glyph-name="four" unicode="4" horiz-adv-x="529" 
d="M428 15q0 -15 -15 -15h-33q-15 0 -15 15v132h-310q-15 0 -15 15v34q0 5 1 9t5 9l311 401q7 9 18 9h38q15 0 15 -15v-407h62q15 0 15 -15v-25q0 -15 -15 -15h-62v-132zM364 533l-255 -331h256v331h-1z" />
    <glyph glyph-name="five" unicode="5" horiz-adv-x="529" 
d="M281 398q46 0 83.5 -14.5t64.5 -41.5t41.5 -64.5t14.5 -83.5q0 -47 -15 -85t-43 -65t-67.5 -41.5t-88.5 -14.5q-141 0 -212 90q-8 11 2 21l20 19q12 10 21 -2q29 -37 69.5 -55t96.5 -18q72 0 113 40.5t41 110.5q0 69 -41 109t-112 40q-87 0 -141 -52q-9 -7 -20 -6l-18 2
q-16 2 -14 17l20 306q2 14 16 14h324q15 0 15 -15v-25q0 -15 -15 -15h-285l-14 -217h1q57 46 143 46z" />
    <glyph glyph-name="six" unicode="6" horiz-adv-x="529" 
d="M284 399q46 0 83 -14.5t63 -41t40 -64.5t14 -84q0 -47 -15 -85t-42.5 -65t-66 -42t-86.5 -15t-87 14.5t-66 41.5t-42 65t-15 85v232q0 99 56 154.5t154 55.5q115 0 179 -69q10 -11 0 -21l-20 -21q-11 -11 -22 0q-51 56 -132 56q-75 0 -113.5 -41.5t-38.5 -120.5v-91h1
q23 33 63 52t93 19zM274 43q68 0 107.5 40.5t39.5 110.5q0 69 -39.5 109.5t-107.5 40.5q-67 0 -107 -40.5t-40 -109.5q0 -70 39.5 -110.5t107.5 -40.5z" />
    <glyph glyph-name="seven" unicode="7" horiz-adv-x="529" 
d="M498 575q0 -10 -4 -19l-279 -545q-6 -11 -18 -11h-37q-19 0 -11 18l284 551h-318v-96q0 -15 -15 -15h-30q-15 0 -15 15v136q0 15 15 15h413q15 0 15 -15v-34z" />
    <glyph glyph-name="eight" unicode="8" horiz-adv-x="529" 
d="M371 327q56 -19 86 -59t30 -98q0 -87 -58.5 -134.5t-164.5 -47.5t-164 47.5t-58 134.5q0 58 30 98t85 58v1q-48 19 -73.5 54t-25.5 86q0 80 54.5 124.5t151.5 44.5q98 0 152 -44.5t54 -124.5q0 -51 -25.5 -86.5t-73.5 -52.5v-1zM121 464q0 -53 37.5 -82t105.5 -29
q67 0 105 29t38 82q0 56 -37 86.5t-106 30.5t-106 -30.5t-37 -86.5zM264 43q77 0 118.5 34t41.5 97q0 59 -42 91.5t-118 32.5q-75 0 -117 -32.5t-42 -91.5q0 -63 42 -97t117 -34z" />
    <glyph glyph-name="nine" unicode="9" horiz-adv-x="529" 
d="M255 636q48 0 86.5 -14.5t66 -41.5t42 -65t14.5 -85v-232q0 -99 -55.5 -154.5t-154.5 -55.5q-56 0 -101 17.5t-77 51.5q-9 10 0 21l20 21q11 11 22 0q50 -56 131 -56q74 0 113 41.5t39 120.5v91h-1q-23 -33 -62.5 -52t-92.5 -19q-46 0 -83 14.5t-63 41t-40 64t-14 84.5
t15 85t42.5 65t66 42t86.5 15zM255 280q66 0 106 40.5t40 109.5q0 70 -39.5 110.5t-106.5 40.5q-68 0 -107.5 -40.5t-39.5 -110.5q0 -69 39.5 -109.5t107.5 -40.5z" />
    <glyph glyph-name="colon" unicode=":" horiz-adv-x="220" 
d="M110 -12q-19 0 -31.5 12.5t-12.5 31.5q0 20 12.5 32.5t31.5 12.5q20 0 32.5 -12.5t12.5 -32.5q0 -19 -12.5 -31.5t-32.5 -12.5zM110 378q-19 0 -31.5 12.5t-12.5 31.5q0 20 12.5 32.5t31.5 12.5q20 0 32.5 -12.5t12.5 -32.5q0 -19 -12.5 -31.5t-32.5 -12.5z" />
    <glyph glyph-name="semicolon" unicode=";" horiz-adv-x="220" 
d="M110 77q20 0 32.5 -13.5t12.5 -37.5q0 -37 -17.5 -70.5t-45.5 -56.5q-9 -7 -15 1l-9 10q-6 7 1 14q29 26 35 70q-17 2 -27.5 13t-10.5 28q0 20 12.5 31t31.5 11zM110 378q-19 0 -31.5 12.5t-12.5 31.5q0 20 12.5 32.5t31.5 12.5q20 0 32.5 -12.5t12.5 -32.5
q0 -19 -12.5 -31.5t-32.5 -12.5z" />
    <glyph glyph-name="less" unicode="&#x3c;" horiz-adv-x="529" 
d="M476 109q11 -4 11 -17v-30q0 -19 -18 -11l-418 197q-11 4 -11 17v28q0 13 11 17l418 197q18 8 18 -12v-29q0 -13 -11 -17l-365 -170z" />
    <glyph glyph-name="equal" unicode="=" horiz-adv-x="529" 
d="M53 363q-15 0 -15 15v26q0 15 15 15h422q15 0 15 -15v-26q0 -15 -15 -15h-422zM53 139q-15 0 -15 15v26q0 15 15 15h422q15 0 15 -15v-26q0 -15 -15 -15h-422z" />
    <glyph glyph-name="greater" unicode="&#x3e;" horiz-adv-x="529" 
d="M52 449q-11 4 -11 17v30q0 19 18 11l418 -197q11 -4 11 -17v-28q0 -13 -11 -17l-418 -197q-18 -8 -18 12v29q0 13 11 17l365 170z" />
    <glyph glyph-name="question" unicode="?" horiz-adv-x="450" 
d="M227 676q93 0 146 -47.5t53 -128.5q0 -57 -24.5 -97t-85.5 -75q-51 -30 -70 -58t-19 -67v-21q0 -15 -15 -15h-27q-15 0 -15 15v25q0 51 22.5 86.5t78.5 70.5q53 33 72.5 63.5t19.5 72.5q0 57 -36.5 89t-100.5 32q-98 0 -150 -88q-9 -14 -21 -5l-23 15q-12 8 -5 21
q32 54 83.5 83t116.5 29zM199 -12q-19 0 -31.5 12.5t-12.5 31.5q0 20 12.5 32.5t31.5 12.5q20 0 32.5 -12.5t12.5 -32.5q0 -19 -12.5 -31.5t-32.5 -12.5z" />
    <glyph glyph-name="at" unicode="@" horiz-adv-x="728" 
d="M388 633q-140 0 -216.5 -92t-76.5 -260q0 -150 75.5 -232t212.5 -82q53 0 96.5 13t77.5 36q11 8 17 -5l8 -16q5 -11 -5 -18q-38 -26 -88.5 -39.5t-107.5 -13.5q-79 0 -141 24t-105 70t-66 112t-23 150q0 93 23.5 166.5t68 124.5t108 78t144.5 27q72 0 126.5 -25t91 -70
t55.5 -107t19 -135q0 -115 -32 -175t-97 -60q-35 0 -57 16.5t-30 45.5h-1q-17 -30 -47 -45.5t-68 -15.5q-60 0 -93.5 30t-33.5 84q0 53 35 83t100 30h89v9q0 59 -23 85t-71 26q-47 0 -82 -32q-10 -10 -18 0l-11 13q-8 10 1 19q23 23 52.5 33t61.5 10q69 0 104 -37t35 -109
v-125q0 -34 14 -55.5t43 -21.5q38 0 59 45.5t21 148.5q0 64 -15.5 117.5t-46.5 92.5t-76.5 60.5t-106.5 21.5zM356 148q38 0 64.5 24.5t26.5 80.5v36h-84q-43 0 -67 -17.5t-24 -52.5q0 -71 84 -71z" />
    <glyph glyph-name="A" unicode="A" horiz-adv-x="581" 
d="M95 12q-5 -12 -17 -12h-36q-19 0 -12 17l222 635q4 12 17 12h43q12 0 17 -12l222 -635q7 -17 -12 -17h-38q-13 0 -17 12l-47 139h-295zM418 208l-128 376h-1l-127 -376h256z" />
    <glyph glyph-name="B" unicode="B" horiz-adv-x="563" 
d="M397 339q64 -15 94 -54.5t30 -108.5q0 -91 -53.5 -133.5t-168.5 -42.5h-200q-15 0 -15 15v634q0 15 15 15h182q115 0 168.5 -41t53.5 -130q0 -121 -106 -153v-1zM281 366q82 0 119.5 28.5t37.5 91.5t-37.5 92t-119.5 29h-132v-241h132zM298 57q82 0 120 30t38 96t-38 96
t-120 30h-149v-252h149z" />
    <glyph glyph-name="C" unicode="C" horiz-adv-x="531" 
d="M287 45q57 0 96 23.5t62 68.5q6 13 20 7l25 -14q13 -7 7 -20q-60 -122 -210 -122q-112 0 -170 61t-58 179v208q0 118 58 179t170 61q150 0 210 -122q6 -13 -7 -20l-25 -14q-14 -6 -20 7q-23 45 -62 68.5t-96 23.5q-163 0 -163 -194v-186q0 -194 163 -194z" />
    <glyph glyph-name="D" unicode="D" horiz-adv-x="590" 
d="M298 664q233 0 233 -227v-210q0 -227 -233 -227h-199q-15 0 -15 15v634q0 15 15 15h199zM466 426q0 93 -41.5 137t-129.5 44h-146v-550h146q88 0 129.5 44t41.5 137v188z" />
    <glyph glyph-name="E" unicode="E" horiz-adv-x="538" 
d="M433 364q15 0 15 -15v-27q0 -15 -15 -15h-284v-250h328q15 0 15 -15v-27q0 -15 -15 -15h-378q-15 0 -15 15v634q0 15 15 15h378q15 0 15 -15v-27q0 -15 -15 -15h-328v-243h284z" />
    <glyph glyph-name="F" unicode="F" horiz-adv-x="502" 
d="M423 360q15 0 15 -15v-27q0 -15 -15 -15h-274v-288q0 -15 -15 -15h-35q-15 0 -15 15v634q0 15 15 15h368q15 0 15 -15v-27q0 -15 -15 -15h-318v-247h274z" />
    <glyph glyph-name="G" unicode="G" horiz-adv-x="569" 
d="M520 230q0 -119 -58 -180.5t-172 -61.5q-113 0 -172 61t-59 179v208q0 118 59 179t174 61q153 0 215 -122q6 -13 -7 -20l-25 -14q-14 -6 -21 7q-23 45 -63 68.5t-99 23.5q-168 0 -168 -194v-186q0 -194 167 -194t167 196v48h-145q-15 0 -15 15v27q0 15 15 15h192
q15 0 15 -15v-101z" />
    <glyph glyph-name="H" unicode="H" horiz-adv-x="623" 
d="M539 15q0 -15 -15 -15h-35q-15 0 -15 15v293h-325v-293q0 -15 -15 -15h-35q-15 0 -15 15v634q0 15 15 15h35q15 0 15 -15v-284h325v284q0 15 15 15h35q15 0 15 -15v-634z" />
    <glyph glyph-name="I" unicode="I" horiz-adv-x="233" 
d="M149 15q0 -15 -15 -15h-35q-15 0 -15 15v634q0 15 15 15h35q15 0 15 -15v-634z" />
    <glyph glyph-name="J" unicode="J" horiz-adv-x="518" 
d="M446 220q0 -115 -55 -173.5t-161 -58.5q-139 0 -204 110q-7 12 4 20l24 18q13 10 21 -5q51 -86 152 -86q154 0 154 185v419q0 15 15 15h35q15 0 15 -15v-429z" />
    <glyph glyph-name="K" unicode="K" horiz-adv-x="550" 
d="M149 15q0 -15 -15 -15h-35q-15 0 -15 15v634q0 15 15 15h35q15 0 15 -15v-295l280 302q7 8 18 8h47q10 0 12.5 -5.5t-4.5 -12.5l-291 -308l302 -320q6 -7 4 -12.5t-12 -5.5h-50q-12 0 -19 9l-287 307v-301z" />
    <glyph glyph-name="L" unicode="L" horiz-adv-x="496" 
d="M477 15q0 -15 -15 -15h-363q-15 0 -15 15v634q0 15 15 15h35q15 0 15 -15v-592h313q15 0 15 -15v-27z" />
    <glyph glyph-name="M" unicode="M" horiz-adv-x="814" 
d="M730 15q0 -15 -15 -15h-35q-15 0 -15 15v558h-1l-223 -561q-5 -12 -18 -12h-33q-14 0 -18 12l-224 564h-1v-561q0 -15 -15 -15h-33q-15 0 -15 15v634q0 15 15 15h68q13 0 18 -12l222 -558l221 558q4 12 18 12h69q15 0 15 -15v-634z" />
    <glyph glyph-name="N" unicode="N" horiz-adv-x="623" 
d="M539 15q0 -15 -15 -15h-37q-12 0 -18 10l-321 548h-1v-543q0 -15 -15 -15h-33q-15 0 -15 15v634q0 15 15 15h44q12 0 18 -10l314 -538h1v533q0 15 15 15h33q15 0 15 -15v-634z" />
    <glyph glyph-name="O" unicode="O" horiz-adv-x="585" 
d="M59 436q0 118 59 179t174 61t174.5 -61t59.5 -179v-208q0 -118 -59.5 -179t-174.5 -61t-174 61t-59 179v208zM124 239q0 -194 168 -194q169 0 169 194v186q0 194 -169 194q-168 0 -168 -194v-186z" />
    <glyph glyph-name="P" unicode="P" horiz-adv-x="541" 
d="M284 664q119 0 175 -47.5t56 -150.5t-56 -150.5t-175 -47.5h-135v-253q0 -15 -15 -15h-35q-15 0 -15 15v634q0 15 15 15h185zM283 325q87 0 126.5 33.5t39.5 107.5q0 73 -39.5 107t-126.5 34h-134v-282h134z" />
    <glyph glyph-name="Q" unicode="Q" horiz-adv-x="585" 
d="M550 -104q6 -13 -5 -21q-21 -15 -47.5 -23.5t-55.5 -8.5q-69 0 -108.5 36.5t-44.5 108.5q-113 1 -171.5 61.5t-58.5 178.5v208q0 118 59 179t174 61t174.5 -61t59.5 -179v-208q0 -101 -43 -160t-128 -75q4 -93 86 -93q41 0 75 25q14 9 21 -4zM124 239q0 -194 168 -194
q169 0 169 194v186q0 194 -169 194q-168 0 -168 -194v-186z" />
    <glyph glyph-name="R" unicode="R" horiz-adv-x="567" 
d="M149 272v-257q0 -15 -15 -15h-35q-15 0 -15 15v634q0 15 15 15h179q119 0 175.5 -47.5t56.5 -147.5q0 -163 -155 -191l164 -260q5 -8 2 -13t-12 -5h-44q-12 0 -18 10l-159 262h-139zM278 329q87 0 126.5 33.5t39.5 105.5t-39.5 105.5t-126.5 33.5h-129v-278h129z" />
    <glyph glyph-name="S" unicode="S" horiz-adv-x="507" 
d="M256 676q133 0 200 -85q8 -11 -3 -21l-24 -19q-11 -10 -21 3q-50 65 -149 65q-68 0 -107.5 -35t-39.5 -95q0 -27 8 -47.5t27.5 -36t51 -26.5t78.5 -18q56 -9 94.5 -24t62.5 -37.5t34.5 -53t10.5 -70.5q0 -42 -15 -77t-42.5 -59.5t-66 -38t-85.5 -13.5q-153 0 -230 100
q-8 10 3 21l21 19q12 11 22 -2q31 -41 76.5 -61t104.5 -20q68 0 107.5 35t39.5 95q0 27 -8 47t-27 35t-50.5 25.5t-77.5 18.5q-57 10 -96 25t-63 37.5t-34.5 53t-10.5 71.5q0 42 15 77t42.5 59.5t66 38t85.5 13.5z" />
    <glyph glyph-name="T" unicode="T" horiz-adv-x="484" 
d="M275 15q0 -15 -15 -15h-35q-15 0 -15 15v592h-176q-15 0 -15 15v27q0 15 15 15h416q15 0 15 -15v-27q0 -15 -15 -15h-175v-592z" />
    <glyph glyph-name="U" unicode="U" horiz-adv-x="588" 
d="M516 220q0 -115 -56.5 -173.5t-165.5 -58.5t-165.5 58.5t-56.5 173.5v429q0 15 15 15h35q15 0 15 -15v-420q0 -94 38.5 -139t119.5 -45t119.5 45t38.5 139v420q0 15 15 15h33q15 0 15 -15v-429z" />
    <glyph glyph-name="V" unicode="V" horiz-adv-x="563" 
d="M262 0q-15 0 -19 14l-213 633q-5 17 12 17h38q12 0 17 -12l185 -559h1l186 559q4 12 17 12h35q17 0 12 -17l-213 -633q-4 -14 -19 -14h-39z" />
    <glyph glyph-name="W" unicode="W" horiz-adv-x="850" 
d="M646 15q-3 -15 -18 -15h-44q-15 0 -18 15l-140 518h-1l-141 -518q-3 -15 -18 -15h-45q-15 0 -18 15l-172 632q-5 17 12 17h40q13 0 16 -13l145 -548h1l148 547q3 14 18 14h30q15 0 18 -14l148 -547h1l145 548q3 13 16 13h38q17 0 12 -17z" />
    <glyph glyph-name="X" unicode="X" horiz-adv-x="557" 
d="M110 10q-6 -10 -18 -10h-40q-9 0 -12 5t2 13l195 321l-186 307q-5 8 -2 13t12 5h43q12 0 18 -10l158 -266l157 266q6 10 18 10h40q9 0 12 -5t-2 -13l-186 -306l196 -322q5 -8 2 -13t-12 -5h-43q-12 0 -18 10l-167 282z" />
    <glyph glyph-name="Y" unicode="Y" horiz-adv-x="519" 
d="M292 15q0 -15 -15 -15h-35q-15 0 -15 15v278l-214 353q-5 8 -2 13t12 5h43q12 0 18 -10l177 -299l177 299q6 10 18 10h40q9 0 12 -5t-2 -13l-214 -353v-278z" />
    <glyph glyph-name="Z" unicode="Z" horiz-adv-x="518" 
d="M478 15q0 -15 -15 -15h-408q-15 0 -15 15v35q0 9 6 18l352 539h-328q-15 0 -15 15v27q0 15 15 15h388q15 0 15 -15v-35q0 -9 -6 -18l-354 -539h350q15 0 15 -15v-27z" />
    <glyph glyph-name="bracketleft" unicode="[" horiz-adv-x="320" 
d="M263 -40q14 0 14 -14v-22q0 -14 -14 -14h-156q-14 0 -14 14v726q0 14 14 14h156q14 0 14 -14v-22q0 -14 -14 -14h-109v-654h109z" />
    <glyph glyph-name="backslash" unicode="\" horiz-adv-x="351" 
d="M68 664q11 0 16 -11l238 -637q6 -16 -11 -16h-28q-11 0 -16 11l-238 637q-6 16 11 16h28z" />
    <glyph glyph-name="bracketright" unicode="]" horiz-adv-x="320" 
d="M57 614q-14 0 -14 14v22q0 14 14 14h156q14 0 14 -14v-726q0 -14 -14 -14h-156q-14 0 -14 14v22q0 14 14 14h109v654h-109z" />
    <glyph glyph-name="asciicircum" unicode="^" horiz-adv-x="529" 
d="M87 268q-6 -10 -18 -10h-32q-9 0 -12 5t2 13l206 337q6 11 19 11h25q13 0 19 -11l205 -337q5 -8 2 -13t-12 -5h-31q-12 0 -18 10l-178 294z" />
    <glyph glyph-name="underscore" unicode="_" horiz-adv-x="500" 
d="M0 -61h500v-38h-500v38z" />
    <glyph glyph-name="grave" unicode="`" horiz-adv-x="500" 
d="M242 567q-11 0 -16 8l-87 123q-5 7 -2.5 12t11.5 5h35q11 0 17 -9l80 -123q5 -7 2 -11.5t-11 -4.5h-29z" />
    <glyph glyph-name="a" unicode="a" horiz-adv-x="454" 
d="M217 505q91 0 137 -48t46 -142v-139q0 -92 -46.5 -140t-138.5 -48q-84 0 -129 39t-45 111q0 69 45.5 108.5t130.5 39.5h122v19q0 77 -31 112t-96 35q-32 0 -60.5 -13t-49.5 -34q-11 -11 -20 1l-17 22q-9 11 1 21q62 56 151 56zM215 41q64 0 94 34.5t30 109.5v50h-115
q-58 0 -90 -24.5t-32 -72.5t29.5 -72.5t83.5 -24.5z" />
    <glyph glyph-name="b" unicode="b" horiz-adv-x="487" 
d="M259 505q86 0 130.5 -47.5t44.5 -139.5v-142q0 -92 -46.5 -140t-136.5 -48q-91 0 -137.5 48t-46.5 140v509q0 15 15 15h31q15 0 15 -15v-243h1q39 63 130 63zM373 309q0 74 -29.5 108.5t-92.5 34.5q-123 0 -123 -143v-124q0 -75 30 -109.5t93 -34.5t92.5 34.5t29.5 109.5
v124z" />
    <glyph glyph-name="c" unicode="c" horiz-adv-x="409" 
d="M380 67q9 -11 -1 -22q-56 -57 -141 -57q-90 0 -137.5 48.5t-47.5 142.5v136q0 94 47 142t135 48t136 -48q11 -9 1 -21l-15 -18q-10 -13 -22 -1q-19 18 -41.5 26.5t-54.5 8.5q-64 0 -94.5 -35t-30.5 -112v-117q0 -77 31.5 -112t97.5 -35q58 0 100 43q11 13 22 0z" />
    <glyph glyph-name="d" unicode="d" horiz-adv-x="487" 
d="M420 176q0 -92 -46.5 -140t-136.5 -48q-91 0 -137.5 48t-46.5 140v142q0 92 44.5 139.5t130.5 47.5q91 0 130 -61h1v241q0 15 15 15h31q15 0 15 -15v-509zM359 309q0 143 -122 143q-64 0 -93.5 -34.5t-29.5 -108.5v-124q0 -75 29.5 -109.5t93.5 -34.5q63 0 92.5 34.5
t29.5 109.5v124z" />
    <glyph glyph-name="e" unicode="e" horiz-adv-x="454" 
d="M233 505q89 0 134.5 -47.5t45.5 -139.5v-76q0 -15 -15 -15h-284v-39q0 -78 32.5 -112.5t103.5 -34.5q33 0 59 12.5t51 38.5q11 13 21 0l17 -19q9 -11 0 -22q-60 -63 -151 -63q-96 0 -145 47.5t-49 143.5v139q0 92 46 139.5t134 47.5zM355 309q0 74 -29 108.5t-92 34.5
q-62 0 -91 -34.5t-29 -108.5v-31h241v31z" />
    <glyph glyph-name="f" unicode="f" horiz-adv-x="323" 
d="M251 659q-96 0 -96 -116v-50h151q15 0 15 -15v-23q0 -15 -15 -15h-151v-425q0 -15 -15 -15h-31q-15 0 -15 15v425h-60q-15 0 -15 15v23q0 15 15 15h60v53q0 81 39 123.5t114 42.5q56 0 98 -23q12 -6 6 -20l-10 -21q-7 -15 -20 -7q-15 8 -32 13t-38 5z" />
    <glyph glyph-name="g" unicode="g" horiz-adv-x="487" 
d="M237 505q90 0 136.5 -47.5t46.5 -139.5v-317q0 -81 -48.5 -127t-133.5 -46q-99 0 -162 57q-10 10 -2 21l15 20q10 13 21 2q51 -47 125 -47q60 0 92 33t32 95v54h-1q-39 -61 -130 -61q-86 0 -130.5 47.5t-44.5 139.5v129q0 92 46.5 139.5t137.5 47.5zM237 55
q122 0 122 144v110q0 74 -29.5 108.5t-92.5 34.5q-64 0 -93.5 -34.5t-29.5 -108.5v-110q0 -74 29.5 -109t93.5 -35z" />
    <glyph glyph-name="h" unicode="h" horiz-adv-x="500" 
d="M263 505q84 0 127 -46t43 -137v-307q0 -15 -15 -15h-31q-15 0 -15 15v298q0 72 -29 105.5t-90 33.5q-119 0 -119 -139v-298q0 -15 -15 -15h-31q-15 0 -15 15v670q0 15 15 15h31q15 0 15 -15v-241h1q37 61 128 61z" />
    <glyph glyph-name="i" unicode="i" horiz-adv-x="207" 
d="M103 593q-18 0 -30 12t-12 30t12 30t30 12t30 -12t12 -30t-12 -30t-30 -12zM88 0q-15 0 -15 15v463q0 15 15 15h31q15 0 15 -15v-463q0 -15 -15 -15h-31z" />
    <glyph glyph-name="j" unicode="j" horiz-adv-x="207" 
d="M103 593q-18 0 -30 12t-12 30t12 30t30 12t30 -12t12 -30t-12 -30t-30 -12zM-5 -107q78 0 78 85v500q0 15 15 15h31q15 0 15 -15v-500q0 -68 -32.5 -103t-97.5 -35h-9q-15 0 -15 15v23q0 15 15 15z" />
    <glyph glyph-name="k" unicode="k" horiz-adv-x="436" 
d="M134 15q0 -15 -15 -15h-31q-15 0 -15 15v670q0 15 15 15h31q15 0 15 -15v-416l200 216q7 8 18 8h42q10 0 12.5 -5.5t-4.5 -12.5l-210 -223l221 -234q7 -7 4.5 -12.5t-12.5 -5.5h-44q-11 0 -18 8l-209 226v-219z" />
    <glyph glyph-name="l" unicode="l" horiz-adv-x="207" 
d="M134 15q0 -15 -15 -15h-31q-15 0 -15 15v670q0 15 15 15h31q15 0 15 -15v-670z" />
    <glyph glyph-name="m" unicode="m" horiz-adv-x="758" 
d="M522 505q84 0 126.5 -46t42.5 -136v-308q0 -15 -15 -15h-31q-15 0 -15 15v299q0 72 -27 105t-84 33t-83 -33t-26 -105v-299q0 -15 -15 -15h-31q-15 0 -15 15v299q0 72 -27 105t-85 33q-57 0 -83 -33t-26 -105v-299q0 -15 -15 -15h-31q-15 0 -15 15v308q0 90 42.5 136
t124.5 46q106 0 145 -75h1q36 75 142 75z" />
    <glyph glyph-name="n" unicode="n" horiz-adv-x="494" 
d="M366 313q0 72 -29 105.5t-90 33.5t-90 -33.5t-29 -105.5v-298q0 -15 -15 -15h-31q-15 0 -15 15v307q0 91 46 137t134 46q89 0 134.5 -46t45.5 -137v-307q0 -15 -15 -15h-31q-15 0 -15 15v298z" />
    <glyph glyph-name="o" unicode="o" horiz-adv-x="473" 
d="M237 505q90 0 136.5 -47.5t46.5 -139.5v-143q0 -92 -46.5 -139.5t-136.5 -47.5q-91 0 -137.5 47.5t-46.5 139.5v143q0 92 46.5 139.5t137.5 47.5zM359 309q0 74 -29.5 108.5t-92.5 34.5q-64 0 -93.5 -34.5t-29.5 -108.5v-124q0 -75 29.5 -109.5t93.5 -34.5
q63 0 92.5 34.5t29.5 109.5v124z" />
    <glyph glyph-name="p" unicode="p" horiz-adv-x="487" 
d="M251 505q90 0 136.5 -47.5t46.5 -139.5v-143q0 -92 -44.5 -139.5t-130.5 -47.5q-91 0 -130 63h-1v-196q0 -15 -15 -15h-31q-15 0 -15 15v463q0 92 46.5 139.5t137.5 47.5zM373 309q0 74 -29.5 108.5t-92.5 34.5t-93 -34.5t-30 -108.5v-124q0 -144 123 -144q63 0 92.5 35
t29.5 109v124z" />
    <glyph glyph-name="q" unicode="q" horiz-adv-x="487" 
d="M237 505q90 0 136.5 -47.5t46.5 -139.5v-463q0 -15 -15 -15h-31q-15 0 -15 15v194h-1q-39 -61 -130 -61q-86 0 -130.5 47.5t-44.5 139.5v143q0 92 46.5 139.5t137.5 47.5zM237 41q122 0 122 144v124q0 74 -29.5 108.5t-92.5 34.5q-64 0 -93.5 -34.5t-29.5 -108.5v-124
q0 -74 29.5 -109t93.5 -35z" />
    <glyph glyph-name="r" unicode="r" horiz-adv-x="363" 
d="M67 330q0 175 161 175q64 0 110 -32q12 -9 5 -21l-13 -20q-9 -13 -21 -4q-35 24 -76 24q-55 0 -80 -30t-25 -96v-311q0 -15 -15 -15h-31q-15 0 -15 15v315z" />
    <glyph glyph-name="s" unicode="s" horiz-adv-x="412" 
d="M383 133q0 -67 -44.5 -106t-121.5 -39q-59 0 -102 14.5t-76 46.5q-10 10 -1 21l16 20q10 12 22 0q49 -49 135 -49q54 0 82.5 23.5t28.5 68.5q0 39 -26.5 59t-96.5 31q-43 6 -73 17t-48.5 27.5t-26.5 39.5t-8 54q0 66 47 105t126 39q43 0 80 -11.5t63 -33.5q11 -10 3 -21
l-14 -19q-9 -12 -21 -3q-22 17 -49.5 26t-56.5 9q-57 0 -87 -23.5t-30 -68.5q0 -18 5.5 -31t19 -23t36 -17t56.5 -11q90 -12 126 -46t36 -99z" />
    <glyph glyph-name="t" unicode="t" horiz-adv-x="352" 
d="M334 30q5 -13 -6 -20q-18 -11 -41 -16.5t-49 -5.5q-71 0 -107.5 38t-36.5 111v303h-60q-15 0 -15 15v23q0 15 15 15h60v119q0 15 15 15h31q15 0 15 -15v-119h151q15 0 15 -15v-23q0 -15 -15 -15h-151v-300q0 -99 89 -99q33 0 59 16q16 10 22 -5z" />
    <glyph glyph-name="u" unicode="u" horiz-adv-x="488" 
d="M421 168q0 -88 -44.5 -134t-132.5 -46q-87 0 -132 46t-45 134v310q0 15 15 15h31q15 0 15 -15v-301q0 -71 28.5 -103.5t88.5 -32.5t88.5 32.5t28.5 103.5v301q0 15 15 15h29q15 0 15 -15v-310z" />
    <glyph glyph-name="v" unicode="v" horiz-adv-x="447" 
d="M260 14q-6 -14 -19 -14h-35q-13 0 -19 14l-165 462q-7 17 12 17h36q12 0 17 -12l137 -403h1l138 403q4 12 17 12h33q19 0 12 -17z" />
    <glyph glyph-name="w" unicode="w" horiz-adv-x="683" 
d="M519 15q-4 -15 -18 -15h-34q-14 0 -18 15l-107 362h-1l-108 -362q-4 -15 -18 -15h-34q-14 0 -18 15l-140 461q-5 17 13 17h35q13 0 17 -13l110 -384h1l113 382q4 15 18 15h25q14 0 18 -15l112 -378h1l111 380q4 13 17 13h33q18 0 13 -17z" />
    <glyph glyph-name="x" unicode="x" horiz-adv-x="455" 
d="M98 10q-6 -10 -18 -10h-34q-10 0 -12.5 5t2.5 13l154 237l-143 220q-5 8 -2.5 13t12.5 5h38q12 0 18 -10l117 -188l117 188q6 10 18 10h33q10 0 12.5 -5t-2.5 -13l-142 -221l153 -236q5 -8 2.5 -13t-12.5 -5h-37q-12 0 -18 10l-128 205z" />
    <glyph glyph-name="y" unicode="y" horiz-adv-x="500" 
d="M427 1q0 -81 -48.5 -127t-133.5 -46q-98 0 -161 57q-10 10 -2 21l15 20q10 13 21 2q51 -47 124 -47q60 0 92 33t32 95v54h-1q-37 -61 -128 -61q-84 0 -127 46.5t-43 136.5v293q0 15 15 15h31q15 0 15 -15v-283q0 -72 29 -106t90 -34q119 0 119 140v283q0 15 15 15h31
q15 0 15 -15v-477z" />
    <glyph glyph-name="z" unicode="z" horiz-adv-x="422" 
d="M385 15q0 -15 -15 -15h-318q-15 0 -15 15v31q0 9 6 18l264 376h-240q-15 0 -15 15v23q0 15 15 15h298q15 0 15 -15v-31q0 -9 -6 -18l-265 -376h261q15 0 15 -15v-23z" />
    <glyph glyph-name="braceleft" unicode="{" 
d="M43 298q0 14 14 14q29 0 47 19.5t18 61.5v136q0 71 34 103t109 32h8q14 0 14 -14v-22q0 -14 -14 -14q-49 0 -69.5 -21t-20.5 -73v-121q0 -48 -16.5 -75t-52.5 -36v-1q69 -18 69 -112v-121q0 -52 20.5 -73t69.5 -21q14 0 14 -14v-22q0 -14 -14 -14h-8q-75 0 -109 32
t-34 103v136q0 42 -18 61.5t-47 19.5q-14 0 -14 14v22z" />
    <glyph glyph-name="bar" unicode="|" horiz-adv-x="264" 
d="M120 -160q-14 0 -14 14v832q0 14 14 14h24q14 0 14 -14v-832q0 -14 -14 -14h-24z" />
    <glyph glyph-name="braceright" unicode="}" 
d="M287 276q0 -14 -14 -14q-29 0 -47 -19.5t-18 -61.5v-136q0 -71 -34 -103t-109 -32h-8q-14 0 -14 14v22q0 14 14 14q49 0 69.5 21t20.5 73v121q0 48 16.5 75t52.5 36v1q-69 18 -69 112v121q0 52 -20.5 73t-69.5 21q-14 0 -14 14v22q0 14 14 14h8q75 0 109 -32t34 -103
v-136q0 -42 18 -61.5t47 -19.5q14 0 14 -14v-22z" />
    <glyph glyph-name="asciitilde" unicode="~" horiz-adv-x="529" 
d="M161 288q-29 0 -51 -15.5t-44 -50.5q-8 -12 -21 -5l-20 12q-12 8 -5 21q29 49 62.5 71.5t76.5 22.5q30 0 57.5 -9.5t62.5 -32.5q30 -20 49 -27t39 -7q30 0 52 15.5t43 50.5q8 13 21 5l20 -12q15 -8 5 -21q-29 -49 -62 -71.5t-76 -22.5q-14 0 -27 2t-27 6.5t-30 12.5
t-36 20q-31 19 -50 27t-39 8z" />
    <glyph glyph-name="uni00A0" unicode="&#xa0;" horiz-adv-x="215" 
 />
    <glyph glyph-name="exclamdown" unicode="&#xa1;" horiz-adv-x="222" 
d="M92 487q1 10 11 10h15q10 0 11 -10l12 -192v-280q0 -15 -15 -15h-31q-15 0 -15 15v280zM111 676q19 0 31.5 -12.5t12.5 -31.5q0 -20 -12.5 -32.5t-31.5 -12.5q-20 0 -32.5 12.5t-12.5 32.5q0 19 12.5 31.5t32.5 12.5z" />
    <glyph glyph-name="cent" unicode="&#xa2;" horiz-adv-x="529" 
d="M454 90q11 -11 0 -22q-25 -25 -55.5 -39.5t-69.5 -18.5v-67q0 -13 -13 -13h-29q-13 0 -13 13v66q-181 11 -181 199v118q0 187 181 198v59q0 13 13 13h29q13 0 13 -13v-61q38 -4 66.5 -16t49.5 -32q11 -11 0 -22l-15 -17q-10 -12 -22 0q-14 14 -33.5 23t-45.5 11v-406
q28 3 49 14t39 29q10 12 21 1zM154 216q0 -74 28.5 -111t91.5 -43v408q-63 -5 -91.5 -42.5t-28.5 -112.5v-99z" />
    <glyph glyph-name="sterling" unicode="&#xa3;" horiz-adv-x="529" 
d="M211 221q0 -51 -15.5 -90.5t-48.5 -74.5v-1h305q15 0 15 -15v-25q0 -15 -15 -15h-355q-15 0 -15 15v27q0 11 8 19q35 37 49.5 71.5t14.5 81.5q0 25 -5 48h-68q-15 0 -15 15v24q0 15 15 15h51l-11 23q-20 40 -27 67.5t-7 56.5q0 39 14 71t40 54.5t63 35t83 12.5
q125 0 188 -81q9 -12 -2 -21l-21 -18q-12 -10 -21 2q-47 63 -141 63q-66 0 -103 -33.5t-37 -91.5q0 -25 7 -49t21 -53q5 -9 9 -18.5t7 -19.5h193q15 0 15 -15v-24q0 -15 -15 -15h-179q3 -20 3 -41z" />
    <glyph glyph-name="currency" unicode="&#xa4;" horiz-adv-x="529" 
d="M442 309q0 -61 -34 -106l70 -70q10 -10 0 -20l-17 -17q-10 -10 -20 0l-70 70q-22 -16 -49 -24.5t-58 -8.5t-58 8.5t-49 24.5l-70 -70q-10 -10 -20 0l-17 17q-10 10 0 20l70 70q-16 22 -24.5 48.5t-8.5 57.5t8.5 58t24.5 49l-70 70q-10 10 0 20l17 17q10 10 20 0l70 -70
q22 17 49 26t58 9t58 -9t50 -25l69 69q10 10 20 0l17 -17q10 -10 0 -20l-70 -70q34 -45 34 -107zM265 181q27 0 50.5 9.5t41 26.5t27 40.5t9.5 51.5t-9.5 52t-27 41t-41 27t-50.5 10q-28 0 -51.5 -10t-40.5 -27t-26.5 -41t-9.5 -52q0 -56 36 -92t92 -36z" />
    <glyph glyph-name="yen" unicode="&#xa5;" horiz-adv-x="529" 
d="M450 318q13 0 13 -13v-24q0 -13 -13 -13h-154v-86h153q13 0 13 -13v-24q0 -13 -13 -13h-153v-117q0 -15 -15 -15h-33q-15 0 -15 15v117h-157q-13 0 -13 13v24q0 13 13 13h157v86h-156q-13 0 -13 13v24q0 13 13 13h150l-186 288q-5 8 -2.5 13t12.5 5h39q12 0 18 -10
l158 -254l158 254q6 10 18 10h37q10 0 12.5 -5t-2.5 -13l-187 -288h148z" />
    <glyph glyph-name="brokenbar" unicode="&#xa6;" horiz-adv-x="264" 
d="M120 350q-14 0 -14 14v322q0 14 14 14h24q14 0 14 -14v-322q0 -14 -14 -14h-24zM120 -160q-14 0 -14 14v322q0 14 14 14h24q14 0 14 -14v-322q0 -14 -14 -14h-24z" />
    <glyph glyph-name="section" unicode="&#xa7;" horiz-adv-x="556" 
d="M397 128q38 -14 63.5 -43.5t25.5 -87.5q0 -38 -14.5 -69.5t-40.5 -53.5t-64 -34t-84 -12q-149 0 -218 88q-9 10 2 21l19 17q12 9 21 -3q57 -71 175 -71q67 0 106.5 30.5t39.5 84.5q0 23 -8 40t-27 29t-50 20t-77 13q-59 6 -99 18.5t-65 32.5t-36 48t-11 66q0 51 26 89.5
t74 58.5v1q-37 14 -61 44.5t-24 87.5q0 78 54.5 123.5t148.5 45.5q128 0 191 -76q9 -10 -2 -21l-18 -16q-12 -9 -21 2q-24 30 -61 44t-88 14q-66 0 -105.5 -30.5t-39.5 -83.5q0 -24 8 -41.5t27 -30t50.5 -20.5t78.5 -13q57 -6 97 -18t64.5 -31.5t35.5 -47.5t11 -65
q0 -53 -27.5 -91t-76.5 -58v-1zM114 269q0 -29 10 -49t33 -34t61.5 -23.5t95.5 -15.5q60 8 94.5 41t34.5 83q0 28 -11 48.5t-35.5 35t-64.5 23t-97 13.5q-56 -9 -88.5 -41.5t-32.5 -80.5z" />
    <glyph glyph-name="dieresis" unicode="&#xa8;" horiz-adv-x="500" 
d="M170 595q-18 0 -29 11.5t-11 28.5t11 28.5t29 11.5q17 0 28.5 -11.5t11.5 -28.5t-11.5 -28.5t-28.5 -11.5zM330 595q-17 0 -28.5 11.5t-11.5 28.5t11.5 28.5t28.5 11.5q18 0 29 -11.5t11 -28.5t-11 -28.5t-29 -11.5z" />
    <glyph glyph-name="copyright" unicode="&#xa9;" horiz-adv-x="771" 
d="M386 676q73 0 136 -26t109.5 -72.5t72.5 -109.5t26 -136q0 -74 -26 -136.5t-72.5 -109t-109.5 -72.5t-136 -26q-74 0 -136.5 26t-109 72.5t-72.5 109t-26 136.5q0 73 26 136t72.5 109.5t109 72.5t136.5 26zM386 29q63 0 117.5 23t94.5 64t63 96t23 120q0 64 -23 119.5
t-63 96.5t-94.5 64t-117.5 23t-117.5 -23t-94.5 -64t-63 -96.5t-23 -119.5q0 -65 23 -120t63 -96t94.5 -64t117.5 -23zM386 482q-83 0 -83 -98v-104q0 -98 83 -98q28 0 46.5 11t31.5 32q6 11 17 5l15 -9q10 -6 5 -16q-36 -64 -115 -64q-64 0 -96.5 34t-32.5 99v116
q0 65 32.5 99t96.5 34q79 0 115 -65q5 -10 -5 -16l-15 -9q-11 -6 -17 5q-25 44 -78 44z" />
    <glyph glyph-name="ordfeminine" unicode="&#xaa;" horiz-adv-x="348" 
d="M164 636q71 0 107.5 -37t36.5 -111v-106q0 -71 -36 -107.5t-108 -36.5q-66 0 -101 30t-35 86q0 54 35 84.5t101 30.5h90v12q0 57 -23 82.5t-71 25.5q-46 0 -80 -32q-10 -10 -20 1l-12 16q-8 11 2 20q46 42 114 42zM164 285q48 0 69 25t21 79v34h-83q-42 0 -65.5 -17
t-23.5 -51q0 -35 21.5 -52.5t60.5 -17.5z" />
    <glyph glyph-name="guillemotleft" unicode="&#xab;" horiz-adv-x="415" 
d="M194 75q10 -17 -9 -17h-28q-11 0 -17 9l-108 170q-6 10 0 20l108 169q6 9 17 9h28q19 0 9 -17l-109 -171zM370 75q10 -17 -9 -17h-28q-11 0 -17 9l-108 170q-6 10 0 20l108 169q6 9 17 9h28q19 0 9 -17l-109 -171z" />
    <glyph glyph-name="logicalnot" unicode="&#xac;" horiz-adv-x="529" 
d="M507 115q0 -15 -15 -15h-26q-15 0 -15 15v200h-415q-15 0 -15 15v26q0 15 15 15h456q15 0 15 -15v-241z" />
    <glyph glyph-name="uni00AD" unicode="&#xad;" 
d="M45 242q-15 0 -15 15v29q0 15 15 15h240q15 0 15 -15v-29q0 -15 -15 -15h-240z" />
    <glyph glyph-name="registered" unicode="&#xae;" horiz-adv-x="771" 
d="M386 676q73 0 136 -26t109.5 -72.5t72.5 -109.5t26 -136q0 -74 -26 -136.5t-72.5 -109t-109.5 -72.5t-136 -26q-74 0 -136.5 26t-109 72.5t-72.5 109t-26 136.5q0 73 26 136t72.5 109.5t109 72.5t136.5 26zM386 29q63 0 117.5 23t94.5 64t63 96t23 120q0 64 -23 119.5
t-63 96.5t-94.5 64t-117.5 23t-117.5 -23t-94.5 -64t-63 -96.5t-23 -119.5q0 -65 23 -120t63 -96t94.5 -64t117.5 -23zM519 406q0 -89 -84 -107l86 -137q9 -14 -8 -14h-28q-9 0 -14 8l-83 139h-66v-135q0 -12 -12 -12h-22q-12 0 -12 12v344q0 12 12 12h100q131 0 131 -110z
M388 336q84 0 84 69q0 70 -84 70h-66v-139h66z" />
    <glyph glyph-name="macron" unicode="&#xaf;" horiz-adv-x="500" 
d="M378 619q0 -14 -14 -14h-227q-14 0 -14 14v22q0 14 14 14h227q14 0 14 -14v-22z" />
    <glyph glyph-name="degree" unicode="&#xb0;" horiz-adv-x="353" 
d="M176 345q-31 0 -57.5 11t-46 30.5t-30.5 46t-11 58.5q0 31 11 57.5t30.5 46t46 30.5t57.5 11t58 -11t46.5 -30.5t30.5 -46t11 -57.5q0 -32 -11 -58.5t-30.5 -46t-46.5 -30.5t-58 -11zM176 396q41 0 67 26.5t26 68.5t-26 68t-67 26q-40 0 -66 -26t-26 -68t26 -68.5
t66 -26.5z" />
    <glyph glyph-name="plusminus" unicode="&#xb1;" horiz-adv-x="529" 
d="M499 302q0 -15 -15 -15h-192v-177q0 -15 -15 -15h-26q-15 0 -15 15v177h-191q-15 0 -15 15v26q0 15 15 15h191v177q0 15 15 15h26q15 0 15 -15v-177h192q15 0 15 -15v-26zM484 56q15 0 15 -15v-26q0 -15 -15 -15h-439q-15 0 -15 15v26q0 15 15 15h439z" />
    <glyph glyph-name="uni00B2" unicode="&#xb2;" 
d="M277 406q13 0 13 -13v-17q0 -13 -13 -13h-218q-13 0 -13 13v18q0 9 7 16l147 149q24 25 34 44t10 42q0 33 -20 50.5t-57 17.5q-27 0 -47.5 -12t-34.5 -34q-7 -12 -18 -4l-15 10q-10 8 -4 18q42 65 121 65q57 0 89.5 -29t32.5 -82q0 -32 -12.5 -57.5t-44.5 -57.5
l-124 -124h167z" />
    <glyph glyph-name="uni00B3" unicode="&#xb3;" 
d="M233 565q33 -11 51.5 -35t18.5 -61q0 -54 -34.5 -83.5t-97.5 -29.5q-82 0 -126 52q-7 10 1 19l12 12q10 10 19 -1q34 -39 92 -39q42 0 64.5 18.5t22.5 53.5q0 71 -97 71h-23q-13 0 -13 13v17q0 13 13 13h20q90 0 90 63q0 32 -21 48.5t-59 16.5q-27 0 -48 -10.5t-36 -28.5
q-10 -12 -19 -1l-13 12q-9 9 -1 19q46 52 119 52q59 0 92 -28t33 -78q0 -32 -15.5 -53t-44.5 -31v-1z" />
    <glyph glyph-name="acute" unicode="&#xb4;" horiz-adv-x="500" 
d="M274 575q-5 -8 -16 -8h-29q-8 0 -11 4.5t2 11.5l80 123q6 9 17 9h35q9 0 11.5 -5t-2.5 -12z" />
    <glyph glyph-name="uni00B5" unicode="&#xb5;" horiz-adv-x="500" 
d="M433 171q0 -90 -43 -136.5t-127 -46.5q-91 0 -128 61h-1v-194q0 -15 -15 -15h-31q-15 0 -15 15v623q0 15 15 15h31q15 0 15 -15v-297q0 -140 119 -140q61 0 90 34t29 106v297q0 15 15 15h31q15 0 15 -15v-307z" />
    <glyph glyph-name="paragraph" unicode="&#xb6;" horiz-adv-x="565" 
d="M447 -160q-13 0 -13 13v796h-136v-796q0 -13 -13 -13h-25q-13 0 -13 13v451q-115 2 -169 49.5t-54 148.5q0 103 56 150.5t175 47.5h217q13 0 13 -13v-834q0 -13 -13 -13h-25z" />
    <glyph glyph-name="periodcentered" unicode="&#xb7;" horiz-adv-x="220" 
d="M110 268q-19 0 -31.5 12.5t-12.5 31.5q0 20 12.5 32.5t31.5 12.5q20 0 32.5 -12.5t12.5 -32.5q0 -19 -12.5 -31.5t-32.5 -12.5z" />
    <glyph glyph-name="cedilla" unicode="&#xb8;" horiz-adv-x="500" 
d="M259 -50q35 -2 53.5 -16.5t18.5 -40.5q0 -31 -22.5 -48t-64.5 -17q-43 0 -75 19q-8 6 -4 16l8 16q6 10 16 4q11 -6 24 -10t27 -4q23 0 34 8t11 19q0 16 -14.5 21.5t-43.5 5.5q-13 0 -10 13l15 71h39z" />
    <glyph glyph-name="uni00B9" unicode="&#xb9;" 
d="M245 376q0 -13 -13 -13h-21q-13 0 -13 13v311l-81 -62q-12 -8 -18 3l-10 15q-8 10 3 18l109 83q7 5 16 5h15q13 0 13 -13v-360z" />
    <glyph glyph-name="ordmasculine" unicode="&#xba;" horiz-adv-x="366" 
d="M183 636q70 0 106.5 -37t36.5 -108v-109q0 -71 -36.5 -107.5t-106.5 -36.5t-106.5 36.5t-36.5 107.5v109q0 71 36.5 108t106.5 37zM272 484q0 54 -21.5 79.5t-67.5 25.5t-67.5 -25.5t-21.5 -79.5v-95q0 -104 89 -104t89 104v95z" />
    <glyph glyph-name="guillemotright" unicode="&#xbb;" horiz-adv-x="415" 
d="M220 418q-10 17 9 17h28q11 0 17 -9l108 -170q6 -10 0 -20l-108 -169q-6 -9 -17 -9h-28q-19 0 -9 17l109 171zM44 418q-10 17 9 17h28q11 0 17 -9l108 -170q6 -10 0 -20l-108 -169q-6 -9 -17 -9h-28q-19 0 -9 17l109 171z" />
    <glyph glyph-name="onequarter" unicode="&#xbc;" horiz-adv-x="793" 
d="M609 616q6 8 16 8h25q8 0 10.5 -4.5t-1.5 -11.5l-395 -600q-6 -8 -16 -8h-25q-8 0 -11 4.5t2 11.5zM729 13q0 -13 -13 -13h-21q-13 0 -13 13v75h-177q-13 0 -13 13v24q0 8 5 16l178 237q7 8 16 8h25q13 0 13 -13v-242h33q13 0 13 -13v-17q0 -13 -13 -13h-33v-75zM543 131
h139v186h-1zM245 251q0 -13 -13 -13h-21q-13 0 -13 13v311l-81 -62q-12 -8 -18 3l-10 15q-8 10 3 18l109 83q7 5 16 5h15q13 0 13 -13v-360z" />
    <glyph glyph-name="onehalf" unicode="&#xbd;" horiz-adv-x="793" 
d="M569 616q6 8 16 8h25q8 0 10.5 -4.5t-1.5 -11.5l-395 -600q-6 -8 -16 -8h-25q-8 0 -11 4.5t2 11.5zM740 43q13 0 13 -13v-17q0 -13 -13 -13h-218q-13 0 -13 13v18q0 9 7 16l147 149q24 25 34 44t10 42q0 33 -20 50.5t-57 17.5q-27 0 -47.5 -12t-34.5 -34q-7 -12 -18 -4
l-15 10q-10 8 -4 18q42 65 121 65q57 0 89.5 -29t32.5 -82q0 -32 -12.5 -57.5t-44.5 -57.5l-124 -124h167zM245 251q0 -13 -13 -13h-21q-13 0 -13 13v311l-81 -62q-12 -8 -18 3l-10 15q-8 10 3 18l109 83q7 5 16 5h15q13 0 13 -13v-360z" />
    <glyph glyph-name="threequarters" unicode="&#xbe;" horiz-adv-x="793" 
d="M614 616q6 8 16 8h25q8 0 10.5 -4.5t-1.5 -11.5l-395 -600q-6 -8 -16 -8h-25q-8 0 -11 4.5t2 11.5zM729 13q0 -13 -13 -13h-21q-13 0 -13 13v75h-177q-13 0 -13 13v24q0 8 5 16l178 237q7 8 16 8h25q13 0 13 -13v-242h33q13 0 13 -13v-17q0 -13 -13 -13h-33v-75zM543 131
h139v186h-1zM233 440q33 -11 51.5 -35t18.5 -61q0 -54 -34.5 -83.5t-97.5 -29.5q-82 0 -126 52q-7 10 1 19l12 12q10 10 19 -1q34 -39 92 -39q42 0 64.5 18.5t22.5 53.5q0 71 -97 71h-23q-13 0 -13 13v17q0 13 13 13h20q90 0 90 63q0 32 -21 48.5t-59 16.5q-27 0 -48 -10.5
t-36 -28.5q-10 -12 -19 -1l-13 12q-9 9 -1 19q46 52 119 52q59 0 92 -28t33 -78q0 -32 -15.5 -53t-44.5 -31v-1z" />
    <glyph glyph-name="questiondown" unicode="&#xbf;" horiz-adv-x="450" 
d="M223 -12q-93 0 -146 47.5t-53 128.5q0 57 24.5 97t85.5 75q51 30 70 58t19 67v21q0 15 15 15h27q15 0 15 -15v-25q0 -51 -22.5 -87t-78.5 -70q-53 -33 -72.5 -63.5t-19.5 -72.5q0 -57 36.5 -89t100.5 -32q98 0 150 88q9 14 21 5l23 -15q12 -8 5 -21q-32 -54 -83.5 -83
t-116.5 -29zM251 676q19 0 31.5 -12.5t12.5 -31.5q0 -20 -12.5 -32.5t-31.5 -12.5q-20 0 -32.5 12.5t-12.5 32.5q0 19 12.5 31.5t32.5 12.5z" />
    <glyph glyph-name="Agrave" unicode="&#xc0;" horiz-adv-x="581" 
d="M95 12q-5 -12 -17 -12h-36q-19 0 -12 17l222 635q4 12 17 12h43q12 0 17 -12l222 -635q7 -17 -12 -17h-38q-13 0 -17 12l-47 139h-295zM418 208l-128 376h-1l-127 -376h256zM283 732q-11 0 -16 8l-87 123q-5 7 -2.5 12t11.5 5h35q11 0 17 -9l80 -123q5 -7 2 -11.5
t-11 -4.5h-29z" />
    <glyph glyph-name="Aacute" unicode="&#xc1;" horiz-adv-x="581" 
d="M95 12q-5 -12 -17 -12h-36q-19 0 -12 17l222 635q4 12 17 12h43q12 0 17 -12l222 -635q7 -17 -12 -17h-38q-13 0 -17 12l-47 139h-295zM418 208l-128 376h-1l-127 -376h256zM315 740q-5 -8 -16 -8h-29q-8 0 -11 4.5t2 11.5l80 123q6 9 17 9h35q9 0 11.5 -5t-2.5 -12z" />
    <glyph glyph-name="Acircumflex" unicode="&#xc2;" horiz-adv-x="581" 
d="M95 12q-5 -12 -17 -12h-36q-19 0 -12 17l222 635q4 12 17 12h43q12 0 17 -12l222 -635q7 -17 -12 -17h-38q-13 0 -17 12l-47 139h-295zM418 208l-128 376h-1l-127 -376h256zM223 740q-5 -8 -16 -8h-27q-8 0 -10.5 4.5t2.5 11.5l86 123q6 9 17 9h31q11 0 17 -9l85 -123
q5 -7 2.5 -11.5t-10.5 -4.5h-27q-11 0 -16 8l-67 95z" />
    <glyph glyph-name="Atilde" unicode="&#xc3;" horiz-adv-x="581" 
d="M95 12q-5 -12 -17 -12h-36q-19 0 -12 17l222 635q4 12 17 12h43q12 0 17 -12l222 -635q7 -17 -12 -17h-38q-13 0 -17 12l-47 139h-295zM418 208l-128 376h-1l-127 -376h256zM165 746q-15 0 -13 14q7 44 28.5 67.5t56.5 23.5q17 0 32.5 -7.5t35.5 -25.5q14 -13 23 -18
t19 -5q30 0 39 43q3 12 14 12h17q15 0 13 -14q-7 -44 -28.5 -67.5t-56.5 -23.5q-17 0 -32.5 7.5t-35.5 25.5q-14 13 -23 18t-19 5q-30 0 -39 -43q-3 -12 -14 -12h-17z" />
    <glyph glyph-name="Adieresis" unicode="&#xc4;" horiz-adv-x="581" 
d="M95 12q-5 -12 -17 -12h-36q-19 0 -12 17l222 635q4 12 17 12h43q12 0 17 -12l222 -635q7 -17 -12 -17h-38q-13 0 -17 12l-47 139h-295zM418 208l-128 376h-1l-127 -376h256zM211 760q-18 0 -29 11.5t-11 28.5t11 28.5t29 11.5q17 0 28.5 -11.5t11.5 -28.5t-11.5 -28.5
t-28.5 -11.5zM371 760q-17 0 -28.5 11.5t-11.5 28.5t11.5 28.5t28.5 11.5q18 0 29 -11.5t11 -28.5t-11 -28.5t-29 -11.5z" />
    <glyph glyph-name="Aring" unicode="&#xc5;" horiz-adv-x="581" 
d="M95 12q-5 -12 -17 -12h-36q-19 0 -12 17l222 635q4 12 17 12h43q12 0 17 -12l222 -635q7 -17 -12 -17h-38q-13 0 -17 12l-47 139h-295zM418 208l-128 376h-1l-127 -376h256zM291 727q-34 0 -56.5 22.5t-22.5 56.5t22.5 56.5t56.5 22.5t56.5 -22.5t22.5 -56.5t-22.5 -56.5
t-56.5 -22.5zM291 770q15 0 25 10.5t10 25.5t-10 25.5t-25 10.5t-25 -10.5t-10 -25.5t10 -25.5t25 -10.5z" />
    <glyph glyph-name="AE" unicode="&#xc6;" horiz-adv-x="880" 
d="M776 364q15 0 15 -15v-27q0 -15 -15 -15h-285v-250h329q15 0 15 -15v-27q0 -15 -15 -15h-379q-15 0 -15 15v129h-264l-79 -134q-6 -10 -18 -10h-40q-9 0 -12 5t2 13l381 636q6 10 18 10h406q15 0 15 -15v-27q0 -15 -15 -15h-329v-243h285zM195 201h231v392h-1z" />
    <glyph glyph-name="Ccedilla" unicode="&#xc7;" horiz-adv-x="531" 
d="M490 130q13 -7 7 -20q-57 -115 -193 -122l-8 -38q35 -2 53.5 -16.5t18.5 -40.5q0 -31 -22.5 -48t-64.5 -17q-43 0 -75 19q-8 6 -4 16l8 16q6 10 16 4q11 -6 24 -10t27 -4q23 0 34 8t11 19q0 16 -14.5 21.5t-43.5 5.5q-13 0 -10 13l11 53q-102 6 -154 66.5t-52 172.5v208
q0 118 58 179t170 61q150 0 210 -122q6 -13 -7 -20l-25 -14q-14 -6 -20 7q-23 45 -62 68.5t-96 23.5q-163 0 -163 -194v-186q0 -194 163 -194q57 0 96 23.5t62 68.5q6 13 20 7z" />
    <glyph glyph-name="Egrave" unicode="&#xc8;" horiz-adv-x="538" 
d="M433 364q15 0 15 -15v-27q0 -15 -15 -15h-284v-250h328q15 0 15 -15v-27q0 -15 -15 -15h-378q-15 0 -15 15v634q0 15 15 15h378q15 0 15 -15v-27q0 -15 -15 -15h-328v-243h284zM280 732q-11 0 -16 8l-87 123q-5 7 -2.5 12t11.5 5h35q11 0 17 -9l80 -123q5 -7 2 -11.5
t-11 -4.5h-29z" />
    <glyph glyph-name="Eacute" unicode="&#xc9;" horiz-adv-x="538" 
d="M433 364q15 0 15 -15v-27q0 -15 -15 -15h-284v-250h328q15 0 15 -15v-27q0 -15 -15 -15h-378q-15 0 -15 15v634q0 15 15 15h378q15 0 15 -15v-27q0 -15 -15 -15h-328v-243h284zM312 740q-5 -8 -16 -8h-29q-8 0 -11 4.5t2 11.5l80 123q6 9 17 9h35q9 0 11.5 -5t-2.5 -12z
" />
    <glyph glyph-name="Ecircumflex" unicode="&#xca;" horiz-adv-x="538" 
d="M433 364q15 0 15 -15v-27q0 -15 -15 -15h-284v-250h328q15 0 15 -15v-27q0 -15 -15 -15h-378q-15 0 -15 15v634q0 15 15 15h378q15 0 15 -15v-27q0 -15 -15 -15h-328v-243h284zM220 740q-5 -8 -16 -8h-27q-8 0 -10.5 4.5t2.5 11.5l86 123q6 9 17 9h31q11 0 17 -9l85 -123
q5 -7 2.5 -11.5t-10.5 -4.5h-27q-11 0 -16 8l-67 95z" />
    <glyph glyph-name="Edieresis" unicode="&#xcb;" horiz-adv-x="538" 
d="M433 364q15 0 15 -15v-27q0 -15 -15 -15h-284v-250h328q15 0 15 -15v-27q0 -15 -15 -15h-378q-15 0 -15 15v634q0 15 15 15h378q15 0 15 -15v-27q0 -15 -15 -15h-328v-243h284zM208 760q-18 0 -29 11.5t-11 28.5t11 28.5t29 11.5q17 0 28.5 -11.5t11.5 -28.5t-11.5 -28.5
t-28.5 -11.5zM368 760q-17 0 -28.5 11.5t-11.5 28.5t11.5 28.5t28.5 11.5q18 0 29 -11.5t11 -28.5t-11 -28.5t-29 -11.5z" />
    <glyph glyph-name="Igrave" unicode="&#xcc;" horiz-adv-x="233" 
d="M149 15q0 -15 -15 -15h-35q-15 0 -15 15v634q0 15 15 15h35q15 0 15 -15v-634zM108 732q-11 0 -16 8l-87 123q-5 7 -2.5 12t11.5 5h35q11 0 17 -9l80 -123q5 -7 2 -11.5t-11 -4.5h-29z" />
    <glyph glyph-name="Iacute" unicode="&#xcd;" horiz-adv-x="233" 
d="M149 15q0 -15 -15 -15h-35q-15 0 -15 15v634q0 15 15 15h35q15 0 15 -15v-634zM140 740q-5 -8 -16 -8h-29q-8 0 -11 4.5t2 11.5l80 123q6 9 17 9h35q9 0 11.5 -5t-2.5 -12z" />
    <glyph glyph-name="Icircumflex" unicode="&#xce;" horiz-adv-x="233" 
d="M149 15q0 -15 -15 -15h-35q-15 0 -15 15v634q0 15 15 15h35q15 0 15 -15v-634zM48 740q-5 -8 -16 -8h-27q-8 0 -10.5 4.5t2.5 11.5l86 123q6 9 17 9h31q11 0 17 -9l85 -123q5 -7 2.5 -11.5t-10.5 -4.5h-27q-11 0 -16 8l-67 95z" />
    <glyph glyph-name="Idieresis" unicode="&#xcf;" horiz-adv-x="233" 
d="M149 15q0 -15 -15 -15h-35q-15 0 -15 15v634q0 15 15 15h35q15 0 15 -15v-634zM36 760q-18 0 -29 11.5t-11 28.5t11 28.5t29 11.5q17 0 28.5 -11.5t11.5 -28.5t-11.5 -28.5t-28.5 -11.5zM196 760q-17 0 -28.5 11.5t-11.5 28.5t11.5 28.5t28.5 11.5q18 0 29 -11.5
t11 -28.5t-11 -28.5t-29 -11.5z" />
    <glyph glyph-name="Eth" unicode="&#xd0;" horiz-adv-x="600" 
d="M308 664q233 0 233 -227v-210q0 -227 -233 -227h-199q-15 0 -15 15v293h-55q-15 0 -15 15v27q0 15 15 15h55v284q0 15 15 15h199zM476 426q0 93 -41.5 137t-129.5 44h-146v-242h139q15 0 15 -15v-27q0 -15 -15 -15h-139v-251h146q88 0 129.5 44t41.5 137v188z" />
    <glyph glyph-name="Ntilde" unicode="&#xd1;" horiz-adv-x="623" 
d="M539 15q0 -15 -15 -15h-37q-12 0 -18 10l-321 548h-1v-543q0 -15 -15 -15h-33q-15 0 -15 15v634q0 15 15 15h44q12 0 18 -10l314 -538h1v533q0 15 15 15h33q15 0 15 -15v-634zM186 746q-15 0 -13 14q7 44 28.5 67.5t56.5 23.5q17 0 32.5 -7.5t35.5 -25.5q14 -13 23 -18
t19 -5q30 0 39 43q3 12 14 12h17q15 0 13 -14q-7 -44 -28.5 -67.5t-56.5 -23.5q-17 0 -32.5 7.5t-35.5 25.5q-14 13 -23 18t-19 5q-30 0 -39 -43q-3 -12 -14 -12h-17z" />
    <glyph glyph-name="Ograve" unicode="&#xd2;" horiz-adv-x="585" 
d="M59 436q0 118 59 179t174 61t174.5 -61t59.5 -179v-208q0 -118 -59.5 -179t-174.5 -61t-174 61t-59 179v208zM124 239q0 -194 168 -194q169 0 169 194v186q0 194 -169 194q-168 0 -168 -194v-186zM284 732q-11 0 -16 8l-87 123q-5 7 -2.5 12t11.5 5h35q11 0 17 -9
l80 -123q5 -7 2 -11.5t-11 -4.5h-29z" />
    <glyph glyph-name="Oacute" unicode="&#xd3;" horiz-adv-x="585" 
d="M59 436q0 118 59 179t174 61t174.5 -61t59.5 -179v-208q0 -118 -59.5 -179t-174.5 -61t-174 61t-59 179v208zM124 239q0 -194 168 -194q169 0 169 194v186q0 194 -169 194q-168 0 -168 -194v-186zM316 740q-5 -8 -16 -8h-29q-8 0 -11 4.5t2 11.5l80 123q6 9 17 9h35
q9 0 11.5 -5t-2.5 -12z" />
    <glyph glyph-name="Ocircumflex" unicode="&#xd4;" horiz-adv-x="585" 
d="M59 436q0 118 59 179t174 61t174.5 -61t59.5 -179v-208q0 -118 -59.5 -179t-174.5 -61t-174 61t-59 179v208zM124 239q0 -194 168 -194q169 0 169 194v186q0 194 -169 194q-168 0 -168 -194v-186zM224 740q-5 -8 -16 -8h-27q-8 0 -10.5 4.5t2.5 11.5l86 123q6 9 17 9h31
q11 0 17 -9l85 -123q5 -7 2.5 -11.5t-10.5 -4.5h-27q-11 0 -16 8l-67 95z" />
    <glyph glyph-name="Otilde" unicode="&#xd5;" horiz-adv-x="585" 
d="M59 436q0 118 59 179t174 61t174.5 -61t59.5 -179v-208q0 -118 -59.5 -179t-174.5 -61t-174 61t-59 179v208zM124 239q0 -194 168 -194q169 0 169 194v186q0 194 -169 194q-168 0 -168 -194v-186zM166 746q-15 0 -13 14q7 44 28.5 67.5t56.5 23.5q17 0 32.5 -7.5
t35.5 -25.5q14 -13 23 -18t19 -5q30 0 39 43q3 12 14 12h17q15 0 13 -14q-7 -44 -28.5 -67.5t-56.5 -23.5q-17 0 -32.5 7.5t-35.5 25.5q-14 13 -23 18t-19 5q-30 0 -39 -43q-3 -12 -14 -12h-17z" />
    <glyph glyph-name="Odieresis" unicode="&#xd6;" horiz-adv-x="585" 
d="M59 436q0 118 59 179t174 61t174.5 -61t59.5 -179v-208q0 -118 -59.5 -179t-174.5 -61t-174 61t-59 179v208zM124 239q0 -194 168 -194q169 0 169 194v186q0 194 -169 194q-168 0 -168 -194v-186zM212 760q-18 0 -29 11.5t-11 28.5t11 28.5t29 11.5q17 0 28.5 -11.5
t11.5 -28.5t-11.5 -28.5t-28.5 -11.5zM372 760q-17 0 -28.5 11.5t-11.5 28.5t11.5 28.5t28.5 11.5q18 0 29 -11.5t11 -28.5t-11 -28.5t-29 -11.5z" />
    <glyph glyph-name="multiply" unicode="&#xd7;" horiz-adv-x="529" 
d="M483 102q11 -11 0 -22l-18 -18q-11 -11 -22 0l-177 177l-177 -177q-11 -11 -22 0l-18 18q-10 11 1 22l177 177l-177 177q-11 11 -1 22l18 18q11 11 22 0l177 -177l177 177q11 11 22 0l18 -18q11 -11 0 -22l-177 -177z" />
    <glyph glyph-name="Oslash" unicode="&#xd8;" horiz-adv-x="585" 
d="M490 585q36 -57 36 -149v-208q0 -118 -59.5 -179t-174.5 -61q-101 0 -159 48l-24 -37q-7 -12 -20 -4l-22 15q-10 7 -4 20l32 49q-36 57 -36 149v208q0 118 59 179t174 61q101 0 160 -48l24 37q7 12 20 4l22 -15q11 -8 3 -20zM124 239q0 -55 13 -94h1l279 429
q-42 45 -125 45q-168 0 -168 -194v-186zM461 425q0 56 -13 95h-1l-279 -430q42 -45 124 -45q169 0 169 194v186z" />
    <glyph glyph-name="Ugrave" unicode="&#xd9;" horiz-adv-x="588" 
d="M516 220q0 -115 -56.5 -173.5t-165.5 -58.5t-165.5 58.5t-56.5 173.5v429q0 15 15 15h35q15 0 15 -15v-420q0 -94 38.5 -139t119.5 -45t119.5 45t38.5 139v420q0 15 15 15h33q15 0 15 -15v-429zM286 732q-11 0 -16 8l-87 123q-5 7 -2.5 12t11.5 5h35q11 0 17 -9l80 -123
q5 -7 2 -11.5t-11 -4.5h-29z" />
    <glyph glyph-name="Uacute" unicode="&#xda;" horiz-adv-x="588" 
d="M516 220q0 -115 -56.5 -173.5t-165.5 -58.5t-165.5 58.5t-56.5 173.5v429q0 15 15 15h35q15 0 15 -15v-420q0 -94 38.5 -139t119.5 -45t119.5 45t38.5 139v420q0 15 15 15h33q15 0 15 -15v-429zM318 740q-5 -8 -16 -8h-29q-8 0 -11 4.5t2 11.5l80 123q6 9 17 9h35
q9 0 11.5 -5t-2.5 -12z" />
    <glyph glyph-name="Ucircumflex" unicode="&#xdb;" horiz-adv-x="588" 
d="M516 220q0 -115 -56.5 -173.5t-165.5 -58.5t-165.5 58.5t-56.5 173.5v429q0 15 15 15h35q15 0 15 -15v-420q0 -94 38.5 -139t119.5 -45t119.5 45t38.5 139v420q0 15 15 15h33q15 0 15 -15v-429zM226 740q-5 -8 -16 -8h-27q-8 0 -10.5 4.5t2.5 11.5l86 123q6 9 17 9h31
q11 0 17 -9l85 -123q5 -7 2.5 -11.5t-10.5 -4.5h-27q-11 0 -16 8l-67 95z" />
    <glyph glyph-name="Udieresis" unicode="&#xdc;" horiz-adv-x="588" 
d="M516 220q0 -115 -56.5 -173.5t-165.5 -58.5t-165.5 58.5t-56.5 173.5v429q0 15 15 15h35q15 0 15 -15v-420q0 -94 38.5 -139t119.5 -45t119.5 45t38.5 139v420q0 15 15 15h33q15 0 15 -15v-429zM214 760q-18 0 -29 11.5t-11 28.5t11 28.5t29 11.5q17 0 28.5 -11.5
t11.5 -28.5t-11.5 -28.5t-28.5 -11.5zM374 760q-17 0 -28.5 11.5t-11.5 28.5t11.5 28.5t28.5 11.5q18 0 29 -11.5t11 -28.5t-11 -28.5t-29 -11.5z" />
    <glyph glyph-name="Yacute" unicode="&#xdd;" horiz-adv-x="519" 
d="M292 15q0 -15 -15 -15h-35q-15 0 -15 15v278l-214 353q-5 8 -2 13t12 5h43q12 0 18 -10l177 -299l177 299q6 10 18 10h40q9 0 12 -5t-2 -13l-214 -353v-278zM283 740q-5 -8 -16 -8h-29q-8 0 -11 4.5t2 11.5l80 123q6 9 17 9h35q9 0 11.5 -5t-2.5 -12z" />
    <glyph glyph-name="Thorn" unicode="&#xde;" horiz-adv-x="541" 
d="M284 540q119 0 175 -47.5t56 -150.5t-56 -150.5t-175 -47.5h-135v-129q0 -15 -15 -15h-35q-15 0 -15 15v634q0 15 15 15h35q15 0 15 -15v-109h135zM283 201q87 0 126.5 34t39.5 107t-39.5 107t-126.5 34h-134v-282h134z" />
    <glyph glyph-name="germandbls" unicode="&#xdf;" horiz-adv-x="550" 
d="M73 539q0 81 50 127t140 46q89 0 138.5 -40.5t49.5 -112.5q0 -42 -18 -71.5t-64 -57.5q-18 -11 -30 -20.5t-19 -19t-9.5 -19t-2.5 -21.5q0 -28 18 -43.5t66 -27.5q71 -17 99.5 -51.5t28.5 -94.5q0 -67 -44.5 -106t-122.5 -39q-102 0 -160 50q-11 10 -3 21l14 20
q9 13 22 2q46 -40 122 -40q53 0 82 24t29 68q0 37 -21.5 59t-77.5 37q-63 17 -88 45t-25 77q0 36 16.5 62.5t60.5 53.5q40 25 53.5 44.5t13.5 45.5q0 49 -33 75.5t-94 26.5q-63 0 -96.5 -31.5t-33.5 -91.5v-521q0 -15 -15 -15h-31q-15 0 -15 15v524z" />
    <glyph glyph-name="agrave" unicode="&#xe0;" horiz-adv-x="454" 
d="M217 505q91 0 137 -48t46 -142v-139q0 -92 -46.5 -140t-138.5 -48q-84 0 -129 39t-45 111q0 69 45.5 108.5t130.5 39.5h122v19q0 77 -31 112t-96 35q-32 0 -60.5 -13t-49.5 -34q-11 -11 -20 1l-17 22q-9 11 1 21q62 56 151 56zM215 41q64 0 94 34.5t30 109.5v50h-115
q-58 0 -90 -24.5t-32 -72.5t29.5 -72.5t83.5 -24.5zM223 567q-11 0 -16 8l-87 123q-5 7 -2.5 12t11.5 5h35q11 0 17 -9l80 -123q5 -7 2 -11.5t-11 -4.5h-29z" />
    <glyph glyph-name="aacute" unicode="&#xe1;" horiz-adv-x="454" 
d="M217 505q91 0 137 -48t46 -142v-139q0 -92 -46.5 -140t-138.5 -48q-84 0 -129 39t-45 111q0 69 45.5 108.5t130.5 39.5h122v19q0 77 -31 112t-96 35q-32 0 -60.5 -13t-49.5 -34q-11 -11 -20 1l-17 22q-9 11 1 21q62 56 151 56zM215 41q64 0 94 34.5t30 109.5v50h-115
q-58 0 -90 -24.5t-32 -72.5t29.5 -72.5t83.5 -24.5zM255 575q-5 -8 -16 -8h-29q-8 0 -11 4.5t2 11.5l80 123q6 9 17 9h35q9 0 11.5 -5t-2.5 -12z" />
    <glyph glyph-name="acircumflex" unicode="&#xe2;" horiz-adv-x="454" 
d="M217 505q91 0 137 -48t46 -142v-139q0 -92 -46.5 -140t-138.5 -48q-84 0 -129 39t-45 111q0 69 45.5 108.5t130.5 39.5h122v19q0 77 -31 112t-96 35q-32 0 -60.5 -13t-49.5 -34q-11 -11 -20 1l-17 22q-9 11 1 21q62 56 151 56zM215 41q64 0 94 34.5t30 109.5v50h-115
q-58 0 -90 -24.5t-32 -72.5t29.5 -72.5t83.5 -24.5zM163 575q-5 -8 -16 -8h-27q-8 0 -10.5 4.5t2.5 11.5l86 123q6 9 17 9h31q11 0 17 -9l85 -123q5 -7 2.5 -11.5t-10.5 -4.5h-27q-11 0 -16 8l-67 95z" />
    <glyph glyph-name="atilde" unicode="&#xe3;" horiz-adv-x="454" 
d="M217 505q91 0 137 -48t46 -142v-139q0 -92 -46.5 -140t-138.5 -48q-84 0 -129 39t-45 111q0 69 45.5 108.5t130.5 39.5h122v19q0 77 -31 112t-96 35q-32 0 -60.5 -13t-49.5 -34q-11 -11 -20 1l-17 22q-9 11 1 21q62 56 151 56zM215 41q64 0 94 34.5t30 109.5v50h-115
q-58 0 -90 -24.5t-32 -72.5t29.5 -72.5t83.5 -24.5zM105 581q-15 0 -13 14q7 44 28.5 67.5t56.5 23.5q17 0 32.5 -7.5t35.5 -25.5q14 -13 23 -18t19 -5q30 0 39 43q3 12 14 12h17q15 0 13 -14q-7 -44 -28.5 -67.5t-56.5 -23.5q-17 0 -32.5 7.5t-35.5 25.5q-14 13 -23 18
t-19 5q-30 0 -39 -43q-3 -12 -14 -12h-17z" />
    <glyph glyph-name="adieresis" unicode="&#xe4;" horiz-adv-x="454" 
d="M217 505q91 0 137 -48t46 -142v-139q0 -92 -46.5 -140t-138.5 -48q-84 0 -129 39t-45 111q0 69 45.5 108.5t130.5 39.5h122v19q0 77 -31 112t-96 35q-32 0 -60.5 -13t-49.5 -34q-11 -11 -20 1l-17 22q-9 11 1 21q62 56 151 56zM215 41q64 0 94 34.5t30 109.5v50h-115
q-58 0 -90 -24.5t-32 -72.5t29.5 -72.5t83.5 -24.5zM151 595q-18 0 -29 11.5t-11 28.5t11 28.5t29 11.5q17 0 28.5 -11.5t11.5 -28.5t-11.5 -28.5t-28.5 -11.5zM311 595q-17 0 -28.5 11.5t-11.5 28.5t11.5 28.5t28.5 11.5q18 0 29 -11.5t11 -28.5t-11 -28.5t-29 -11.5z" />
    <glyph glyph-name="aring" unicode="&#xe5;" horiz-adv-x="454" 
d="M217 505q91 0 137 -48t46 -142v-139q0 -92 -46.5 -140t-138.5 -48q-84 0 -129 39t-45 111q0 69 45.5 108.5t130.5 39.5h122v19q0 77 -31 112t-96 35q-32 0 -60.5 -13t-49.5 -34q-11 -11 -20 1l-17 22q-9 11 1 21q62 56 151 56zM215 41q64 0 94 34.5t30 109.5v50h-115
q-58 0 -90 -24.5t-32 -72.5t29.5 -72.5t83.5 -24.5zM231 562q-34 0 -56.5 22.5t-22.5 56.5t22.5 56.5t56.5 22.5t56.5 -22.5t22.5 -56.5t-22.5 -56.5t-56.5 -22.5zM231 605q15 0 25 10.5t10 25.5t-10 25.5t-25 10.5t-25 -10.5t-10 -25.5t10 -25.5t25 -10.5z" />
    <glyph glyph-name="ae" unicode="&#xe6;" horiz-adv-x="741" 
d="M526 505q85 0 129.5 -48t44.5 -139v-71q0 -15 -15 -15h-285v-44q0 -78 33 -112.5t104 -34.5q32 0 58 12.5t51 38.5q10 11 21 0l17 -19q9 -11 0 -22q-60 -63 -147 -63q-127 0 -166 94h-1q-35 -94 -161 -94q-79 0 -123.5 39.5t-44.5 109.5t45.5 108t130.5 38h122v22
q0 77 -31 112t-96 35q-32 0 -60.5 -13t-49.5 -34q-11 -11 -20 1l-17 22q-9 11 1 21q64 56 148 56q118 0 156 -92h1q33 92 155 92zM642 309q0 74 -29 108.5t-92 34.5t-92 -34.5t-29 -108.5v-26h242v26zM215 41q64 0 94 34.5t30 109.5v47h-115q-58 0 -90 -23.5t-32 -71.5
t29.5 -72t83.5 -24z" />
    <glyph glyph-name="ccedilla" unicode="&#xe7;" horiz-adv-x="409" 
d="M380 67q9 -11 -1 -22q-51 -52 -130 -57l-8 -38q35 -2 53.5 -16.5t18.5 -40.5q0 -31 -22.5 -48t-64.5 -17q-43 0 -75 19q-8 6 -4 16l8 16q6 10 16 4q11 -6 24 -10t27 -4q23 0 34 8t11 19q0 16 -14.5 21.5t-43.5 5.5q-13 0 -10 13l11 53q-76 8 -116.5 55.5t-40.5 134.5v136
q0 94 47 142t135 48t136 -48q11 -9 1 -21l-15 -18q-10 -13 -22 -1q-19 18 -41.5 26.5t-54.5 8.5q-64 0 -94.5 -35t-30.5 -112v-117q0 -77 31.5 -112t97.5 -35q58 0 100 43q11 13 22 0z" />
    <glyph glyph-name="egrave" unicode="&#xe8;" horiz-adv-x="454" 
d="M233 505q89 0 134.5 -47.5t45.5 -139.5v-76q0 -15 -15 -15h-284v-39q0 -78 32.5 -112.5t103.5 -34.5q33 0 59 12.5t51 38.5q11 13 21 0l17 -19q9 -11 0 -22q-60 -63 -151 -63q-96 0 -145 47.5t-49 143.5v139q0 92 46 139.5t134 47.5zM355 309q0 74 -29 108.5t-92 34.5
q-62 0 -91 -34.5t-29 -108.5v-31h241v31zM227 567q-11 0 -16 8l-87 123q-5 7 -2.5 12t11.5 5h35q11 0 17 -9l80 -123q5 -7 2 -11.5t-11 -4.5h-29z" />
    <glyph glyph-name="eacute" unicode="&#xe9;" horiz-adv-x="454" 
d="M233 505q89 0 134.5 -47.5t45.5 -139.5v-76q0 -15 -15 -15h-284v-39q0 -78 32.5 -112.5t103.5 -34.5q33 0 59 12.5t51 38.5q11 13 21 0l17 -19q9 -11 0 -22q-60 -63 -151 -63q-96 0 -145 47.5t-49 143.5v139q0 92 46 139.5t134 47.5zM355 309q0 74 -29 108.5t-92 34.5
q-62 0 -91 -34.5t-29 -108.5v-31h241v31zM259 575q-5 -8 -16 -8h-29q-8 0 -11 4.5t2 11.5l80 123q6 9 17 9h35q9 0 11.5 -5t-2.5 -12z" />
    <glyph glyph-name="ecircumflex" unicode="&#xea;" horiz-adv-x="454" 
d="M233 505q89 0 134.5 -47.5t45.5 -139.5v-76q0 -15 -15 -15h-284v-39q0 -78 32.5 -112.5t103.5 -34.5q33 0 59 12.5t51 38.5q11 13 21 0l17 -19q9 -11 0 -22q-60 -63 -151 -63q-96 0 -145 47.5t-49 143.5v139q0 92 46 139.5t134 47.5zM355 309q0 74 -29 108.5t-92 34.5
q-62 0 -91 -34.5t-29 -108.5v-31h241v31zM167 575q-5 -8 -16 -8h-27q-8 0 -10.5 4.5t2.5 11.5l86 123q6 9 17 9h31q11 0 17 -9l85 -123q5 -7 2.5 -11.5t-10.5 -4.5h-27q-11 0 -16 8l-67 95z" />
    <glyph glyph-name="edieresis" unicode="&#xeb;" horiz-adv-x="454" 
d="M233 505q89 0 134.5 -47.5t45.5 -139.5v-76q0 -15 -15 -15h-284v-39q0 -78 32.5 -112.5t103.5 -34.5q33 0 59 12.5t51 38.5q11 13 21 0l17 -19q9 -11 0 -22q-60 -63 -151 -63q-96 0 -145 47.5t-49 143.5v139q0 92 46 139.5t134 47.5zM355 309q0 74 -29 108.5t-92 34.5
q-62 0 -91 -34.5t-29 -108.5v-31h241v31zM155 595q-18 0 -29 11.5t-11 28.5t11 28.5t29 11.5q17 0 28.5 -11.5t11.5 -28.5t-11.5 -28.5t-28.5 -11.5zM315 595q-17 0 -28.5 11.5t-11.5 28.5t11.5 28.5t28.5 11.5q18 0 29 -11.5t11 -28.5t-11 -28.5t-29 -11.5z" />
    <glyph glyph-name="igrave" unicode="&#xec;" horiz-adv-x="207" 
d="M134 15q0 -15 -15 -15h-31q-15 0 -15 15v463q0 15 15 15h31q15 0 15 -15v-463zM95 567q-11 0 -16 8l-87 123q-5 7 -2.5 12t11.5 5h35q11 0 17 -9l80 -123q5 -7 2 -11.5t-11 -4.5h-29z" />
    <glyph glyph-name="iacute" unicode="&#xed;" horiz-adv-x="207" 
d="M134 15q0 -15 -15 -15h-31q-15 0 -15 15v463q0 15 15 15h31q15 0 15 -15v-463zM127 575q-5 -8 -16 -8h-29q-8 0 -11 4.5t2 11.5l80 123q6 9 17 9h35q9 0 11.5 -5t-2.5 -12z" />
    <glyph glyph-name="icircumflex" unicode="&#xee;" horiz-adv-x="207" 
d="M134 15q0 -15 -15 -15h-31q-15 0 -15 15v463q0 15 15 15h31q15 0 15 -15v-463zM35 575q-5 -8 -16 -8h-27q-8 0 -10.5 4.5t2.5 11.5l86 123q6 9 17 9h31q11 0 17 -9l85 -123q5 -7 2.5 -11.5t-10.5 -4.5h-27q-11 0 -16 8l-67 95z" />
    <glyph glyph-name="idieresis" unicode="&#xef;" horiz-adv-x="207" 
d="M134 15q0 -15 -15 -15h-31q-15 0 -15 15v463q0 15 15 15h31q15 0 15 -15v-463zM23 595q-18 0 -29 11.5t-11 28.5t11 28.5t29 11.5q17 0 28.5 -11.5t11.5 -28.5t-11.5 -28.5t-28.5 -11.5zM183 595q-17 0 -28.5 11.5t-11.5 28.5t11.5 28.5t28.5 11.5q18 0 29 -11.5
t11 -28.5t-11 -28.5t-29 -11.5z" />
    <glyph glyph-name="eth" unicode="&#xf0;" horiz-adv-x="482" 
d="M317 639q54 -46 78.5 -123t24.5 -191v-149q0 -92 -46.5 -140t-136.5 -48q-91 0 -137.5 48t-46.5 140v136q0 92 44.5 139.5t130.5 47.5q41 0 71 -13.5t50 -39.5h1q-18 105 -78 156l-58 -49q-11 -9 -20 2l-14 17q-8 10 2 20l45 38q-44 20 -111 28q-14 1 -13 16l3 24
q2 16 17 14q45 -5 82.5 -15.5t68.5 -27.5l48 40q11 9 20 -2l14 -17q7 -11 -2 -20zM359 302q0 144 -122 144q-64 0 -93.5 -34.5t-29.5 -109.5v-117q0 -75 29.5 -109.5t93.5 -34.5q63 0 92.5 34.5t29.5 109.5v117z" />
    <glyph glyph-name="ntilde" unicode="&#xf1;" horiz-adv-x="494" 
d="M366 313q0 72 -29 105.5t-90 33.5t-90 -33.5t-29 -105.5v-298q0 -15 -15 -15h-31q-15 0 -15 15v307q0 91 46 137t134 46q89 0 134.5 -46t45.5 -137v-307q0 -15 -15 -15h-31q-15 0 -15 15v298zM121 581q-15 0 -13 14q7 44 28.5 67.5t56.5 23.5q17 0 32.5 -7.5t35.5 -25.5
q14 -13 23 -18t19 -5q30 0 39 43q3 12 14 12h17q15 0 13 -14q-7 -44 -28.5 -67.5t-56.5 -23.5q-17 0 -32.5 7.5t-35.5 25.5q-14 13 -23 18t-19 5q-30 0 -39 -43q-3 -12 -14 -12h-17z" />
    <glyph glyph-name="ograve" unicode="&#xf2;" horiz-adv-x="473" 
d="M237 505q90 0 136.5 -47.5t46.5 -139.5v-143q0 -92 -46.5 -139.5t-136.5 -47.5q-91 0 -137.5 47.5t-46.5 139.5v143q0 92 46.5 139.5t137.5 47.5zM359 309q0 74 -29.5 108.5t-92.5 34.5q-64 0 -93.5 -34.5t-29.5 -108.5v-124q0 -75 29.5 -109.5t93.5 -34.5
q63 0 92.5 34.5t29.5 109.5v124zM229 567q-11 0 -16 8l-87 123q-5 7 -2.5 12t11.5 5h35q11 0 17 -9l80 -123q5 -7 2 -11.5t-11 -4.5h-29z" />
    <glyph glyph-name="oacute" unicode="&#xf3;" horiz-adv-x="473" 
d="M237 505q90 0 136.5 -47.5t46.5 -139.5v-143q0 -92 -46.5 -139.5t-136.5 -47.5q-91 0 -137.5 47.5t-46.5 139.5v143q0 92 46.5 139.5t137.5 47.5zM359 309q0 74 -29.5 108.5t-92.5 34.5q-64 0 -93.5 -34.5t-29.5 -108.5v-124q0 -75 29.5 -109.5t93.5 -34.5
q63 0 92.5 34.5t29.5 109.5v124zM261 575q-5 -8 -16 -8h-29q-8 0 -11 4.5t2 11.5l80 123q6 9 17 9h35q9 0 11.5 -5t-2.5 -12z" />
    <glyph glyph-name="ocircumflex" unicode="&#xf4;" horiz-adv-x="473" 
d="M237 505q90 0 136.5 -47.5t46.5 -139.5v-143q0 -92 -46.5 -139.5t-136.5 -47.5q-91 0 -137.5 47.5t-46.5 139.5v143q0 92 46.5 139.5t137.5 47.5zM359 309q0 74 -29.5 108.5t-92.5 34.5q-64 0 -93.5 -34.5t-29.5 -108.5v-124q0 -75 29.5 -109.5t93.5 -34.5
q63 0 92.5 34.5t29.5 109.5v124zM169 575q-5 -8 -16 -8h-27q-8 0 -10.5 4.5t2.5 11.5l86 123q6 9 17 9h31q11 0 17 -9l85 -123q5 -7 2.5 -11.5t-10.5 -4.5h-27q-11 0 -16 8l-67 95z" />
    <glyph glyph-name="otilde" unicode="&#xf5;" horiz-adv-x="473" 
d="M237 505q90 0 136.5 -47.5t46.5 -139.5v-143q0 -92 -46.5 -139.5t-136.5 -47.5q-91 0 -137.5 47.5t-46.5 139.5v143q0 92 46.5 139.5t137.5 47.5zM359 309q0 74 -29.5 108.5t-92.5 34.5q-64 0 -93.5 -34.5t-29.5 -108.5v-124q0 -75 29.5 -109.5t93.5 -34.5
q63 0 92.5 34.5t29.5 109.5v124zM111 581q-15 0 -13 14q7 44 28.5 67.5t56.5 23.5q17 0 32.5 -7.5t35.5 -25.5q14 -13 23 -18t19 -5q30 0 39 43q3 12 14 12h17q15 0 13 -14q-7 -44 -28.5 -67.5t-56.5 -23.5q-17 0 -32.5 7.5t-35.5 25.5q-14 13 -23 18t-19 5q-30 0 -39 -43
q-3 -12 -14 -12h-17z" />
    <glyph glyph-name="odieresis" unicode="&#xf6;" horiz-adv-x="473" 
d="M237 505q90 0 136.5 -47.5t46.5 -139.5v-143q0 -92 -46.5 -139.5t-136.5 -47.5q-91 0 -137.5 47.5t-46.5 139.5v143q0 92 46.5 139.5t137.5 47.5zM359 309q0 74 -29.5 108.5t-92.5 34.5q-64 0 -93.5 -34.5t-29.5 -108.5v-124q0 -75 29.5 -109.5t93.5 -34.5
q63 0 92.5 34.5t29.5 109.5v124zM157 595q-18 0 -29 11.5t-11 28.5t11 28.5t29 11.5q17 0 28.5 -11.5t11.5 -28.5t-11.5 -28.5t-28.5 -11.5zM317 595q-17 0 -28.5 11.5t-11.5 28.5t11.5 28.5t28.5 11.5q18 0 29 -11.5t11 -28.5t-11 -28.5t-29 -11.5z" />
    <glyph glyph-name="divide" unicode="&#xf7;" horiz-adv-x="529" 
d="M264 435q-19 0 -31 12t-12 31q0 18 12 30.5t31 12.5t31 -12.5t12 -30.5q0 -19 -12 -31t-31 -12zM36 251q-15 0 -15 15v26q0 15 15 15h456q15 0 15 -15v-26q0 -15 -15 -15h-456zM264 37q-19 0 -31 12.5t-12 30.5q0 19 12 31t31 12t31 -12t12 -31q0 -18 -12 -30.5
t-31 -12.5z" />
    <glyph glyph-name="oslash" unicode="&#xf8;" horiz-adv-x="473" 
d="M393 432q27 -44 27 -114v-143q0 -92 -46.5 -139.5t-136.5 -47.5q-76 0 -122 35l-16 -24q-7 -12 -20 -4l-18 14q-11 8 -3 19l22 33q-27 43 -27 114v143q0 92 46.5 139.5t137.5 47.5q75 0 121 -34l16 23q7 12 20 4l18 -14q11 -8 3 -19zM114 185q0 -38 7 -63h1l203 300
q-30 30 -88 30q-64 0 -93.5 -34.5t-29.5 -108.5v-124zM359 309q0 37 -7 62h-1l-203 -300q30 -30 89 -30q63 0 92.5 34.5t29.5 109.5v124z" />
    <glyph glyph-name="ugrave" unicode="&#xf9;" horiz-adv-x="488" 
d="M421 168q0 -88 -44.5 -134t-132.5 -46q-87 0 -132 46t-45 134v310q0 15 15 15h31q15 0 15 -15v-301q0 -71 28.5 -103.5t88.5 -32.5t88.5 32.5t28.5 103.5v301q0 15 15 15h29q15 0 15 -15v-310zM236 567q-11 0 -16 8l-87 123q-5 7 -2.5 12t11.5 5h35q11 0 17 -9l80 -123
q5 -7 2 -11.5t-11 -4.5h-29z" />
    <glyph glyph-name="uacute" unicode="&#xfa;" horiz-adv-x="488" 
d="M421 168q0 -88 -44.5 -134t-132.5 -46q-87 0 -132 46t-45 134v310q0 15 15 15h31q15 0 15 -15v-301q0 -71 28.5 -103.5t88.5 -32.5t88.5 32.5t28.5 103.5v301q0 15 15 15h29q15 0 15 -15v-310zM268 575q-5 -8 -16 -8h-29q-8 0 -11 4.5t2 11.5l80 123q6 9 17 9h35
q9 0 11.5 -5t-2.5 -12z" />
    <glyph glyph-name="ucircumflex" unicode="&#xfb;" horiz-adv-x="488" 
d="M421 168q0 -88 -44.5 -134t-132.5 -46q-87 0 -132 46t-45 134v310q0 15 15 15h31q15 0 15 -15v-301q0 -71 28.5 -103.5t88.5 -32.5t88.5 32.5t28.5 103.5v301q0 15 15 15h29q15 0 15 -15v-310zM176 575q-5 -8 -16 -8h-27q-8 0 -10.5 4.5t2.5 11.5l86 123q6 9 17 9h31
q11 0 17 -9l85 -123q5 -7 2.5 -11.5t-10.5 -4.5h-27q-11 0 -16 8l-67 95z" />
    <glyph glyph-name="udieresis" unicode="&#xfc;" horiz-adv-x="488" 
d="M421 168q0 -88 -44.5 -134t-132.5 -46q-87 0 -132 46t-45 134v310q0 15 15 15h31q15 0 15 -15v-301q0 -71 28.5 -103.5t88.5 -32.5t88.5 32.5t28.5 103.5v301q0 15 15 15h29q15 0 15 -15v-310zM164 595q-18 0 -29 11.5t-11 28.5t11 28.5t29 11.5q17 0 28.5 -11.5
t11.5 -28.5t-11.5 -28.5t-28.5 -11.5zM324 595q-17 0 -28.5 11.5t-11.5 28.5t11.5 28.5t28.5 11.5q18 0 29 -11.5t11 -28.5t-11 -28.5t-29 -11.5z" />
    <glyph glyph-name="yacute" unicode="&#xfd;" horiz-adv-x="500" 
d="M427 1q0 -81 -48.5 -127t-133.5 -46q-98 0 -161 57q-10 10 -2 21l15 20q10 13 21 2q51 -47 124 -47q60 0 92 33t32 95v54h-1q-37 -61 -128 -61q-84 0 -127 46.5t-43 136.5v293q0 15 15 15h31q15 0 15 -15v-283q0 -72 29 -106t90 -34q119 0 119 140v283q0 15 15 15h31
q15 0 15 -15v-477zM271 575q-5 -8 -16 -8h-29q-8 0 -11 4.5t2 11.5l80 123q6 9 17 9h35q9 0 11.5 -5t-2.5 -12z" />
    <glyph glyph-name="thorn" unicode="&#xfe;" horiz-adv-x="493" 
d="M264 505q175 0 175 -187v-143q0 -92 -44 -139.5t-131 -47.5q-90 0 -129 63h-1v-196q0 -15 -15 -15h-31q-15 0 -15 15v830q0 15 15 15h31q15 0 15 -15v-243h1q39 63 129 63zM378 309q0 74 -29.5 108.5t-92.5 34.5q-122 0 -122 -143v-124q0 -144 122 -144q63 0 92.5 35
t29.5 109v124z" />
    <glyph glyph-name="ydieresis" unicode="&#xff;" horiz-adv-x="500" 
d="M427 1q0 -81 -48.5 -127t-133.5 -46q-98 0 -161 57q-10 10 -2 21l15 20q10 13 21 2q51 -47 124 -47q60 0 92 33t32 95v54h-1q-37 -61 -128 -61q-84 0 -127 46.5t-43 136.5v293q0 15 15 15h31q15 0 15 -15v-283q0 -72 29 -106t90 -34q119 0 119 140v283q0 15 15 15h31
q15 0 15 -15v-477zM167 595q-18 0 -29 11.5t-11 28.5t11 28.5t29 11.5q17 0 28.5 -11.5t11.5 -28.5t-11.5 -28.5t-28.5 -11.5zM327 595q-17 0 -28.5 11.5t-11.5 28.5t11.5 28.5t28.5 11.5q18 0 29 -11.5t11 -28.5t-11 -28.5t-29 -11.5z" />
    <glyph glyph-name="Amacron" unicode="&#x100;" horiz-adv-x="581" 
d="M95 12q-5 -12 -17 -12h-36q-19 0 -12 17l222 635q4 12 17 12h43q12 0 17 -12l222 -635q7 -17 -12 -17h-38q-13 0 -17 12l-47 139h-295zM418 208l-128 376h-1l-127 -376h256zM418 784q0 -14 -14 -14h-227q-14 0 -14 14v22q0 14 14 14h227q14 0 14 -14v-22z" />
    <glyph glyph-name="amacron" unicode="&#x101;" horiz-adv-x="454" 
d="M217 505q91 0 137 -48t46 -142v-139q0 -92 -46.5 -140t-138.5 -48q-84 0 -129 39t-45 111q0 69 45.5 108.5t130.5 39.5h122v19q0 77 -31 112t-96 35q-32 0 -60.5 -13t-49.5 -34q-11 -11 -20 1l-17 22q-9 11 1 21q62 56 151 56zM215 41q64 0 94 34.5t30 109.5v50h-115
q-58 0 -90 -24.5t-32 -72.5t29.5 -72.5t83.5 -24.5zM358 619q0 -14 -14 -14h-227q-14 0 -14 14v22q0 14 14 14h227q14 0 14 -14v-22z" />
    <glyph glyph-name="Abreve" unicode="&#x102;" horiz-adv-x="581" 
d="M95 12q-5 -12 -17 -12h-36q-19 0 -12 17l222 635q4 12 17 12h43q12 0 17 -12l222 -635q7 -17 -12 -17h-38q-13 0 -17 12l-47 139h-295zM418 208l-128 376h-1l-127 -376h256zM402 859q14 0 12 -14q-8 -47 -40 -72.5t-83 -25.5t-83 25.5t-40 72.5q-2 14 12 14h19
q11 0 14 -12q7 -25 27.5 -38.5t50.5 -13.5t50.5 13.5t27.5 38.5q3 12 14 12h19z" />
    <glyph glyph-name="abreve" unicode="&#x103;" horiz-adv-x="454" 
d="M217 505q91 0 137 -48t46 -142v-139q0 -92 -46.5 -140t-138.5 -48q-84 0 -129 39t-45 111q0 69 45.5 108.5t130.5 39.5h122v19q0 77 -31 112t-96 35q-32 0 -60.5 -13t-49.5 -34q-11 -11 -20 1l-17 22q-9 11 1 21q62 56 151 56zM215 41q64 0 94 34.5t30 109.5v50h-115
q-58 0 -90 -24.5t-32 -72.5t29.5 -72.5t83.5 -24.5zM342 694q14 0 12 -14q-8 -47 -40 -72.5t-83 -25.5t-83 25.5t-40 72.5q-2 14 12 14h19q11 0 14 -12q7 -25 27.5 -38.5t50.5 -13.5t50.5 13.5t27.5 38.5q3 12 14 12h19z" />
    <glyph glyph-name="Aogonek" unicode="&#x104;" horiz-adv-x="581" 
d="M569 -126q7 -9 -1 -17q-15 -14 -33.5 -21.5t-41.5 -7.5q-38 0 -60 20t-22 54q0 31 17.5 59.5t55.5 51.5l-47 138h-295l-47 -139q-5 -12 -17 -12h-36q-19 0 -12 17l222 635q4 12 17 12h43q12 0 17 -12l222 -635q7 -17 -12 -17h-9q-74 -35 -74 -88q0 -17 12 -29t30 -12
q24 0 42 18q9 9 17 -1zM162 208h256l-128 376h-1z" />
    <glyph glyph-name="aogonek" unicode="&#x105;" horiz-adv-x="454" 
d="M400 176q0 -120 -81 -166q-40 -22 -56.5 -47t-16.5 -51q0 -17 11 -29t33 -12t39 17q9 9 18 -1l10 -12q7 -11 -1 -19q-14 -13 -30 -20.5t-40 -7.5q-41 0 -63.5 21t-22.5 56q0 22 8 42.5t26 40.5v1q-5 -1 -9.5 -1h-9.5q-84 0 -129 39t-45 111q0 69 45.5 108.5t130.5 39.5
h122v19q0 77 -31 112t-96 35q-32 0 -60.5 -13t-49.5 -34q-11 -11 -20 1l-17 22q-9 11 1 21q62 56 151 56q91 0 137 -48t46 -142v-139zM224 235q-58 0 -90 -24.5t-32 -72.5t29.5 -72.5t83.5 -24.5q64 0 94 34.5t30 109.5v50h-115z" />
    <glyph glyph-name="Cacute" unicode="&#x106;" horiz-adv-x="531" 
d="M287 45q57 0 96 23.5t62 68.5q6 13 20 7l25 -14q13 -7 7 -20q-60 -122 -210 -122q-112 0 -170 61t-58 179v208q0 118 58 179t170 61q150 0 210 -122q6 -13 -7 -20l-25 -14q-14 -6 -20 7q-23 45 -62 68.5t-96 23.5q-163 0 -163 -194v-186q0 -194 163 -194zM307 740
q-5 -8 -16 -8h-29q-8 0 -11 4.5t2 11.5l80 123q6 9 17 9h35q9 0 11.5 -5t-2.5 -12z" />
    <glyph glyph-name="cacute" unicode="&#x107;" horiz-adv-x="409" 
d="M380 67q9 -11 -1 -22q-56 -57 -141 -57q-90 0 -137.5 48.5t-47.5 142.5v136q0 94 47 142t135 48t136 -48q11 -9 1 -21l-15 -18q-10 -13 -22 -1q-19 18 -41.5 26.5t-54.5 8.5q-64 0 -94.5 -35t-30.5 -112v-117q0 -77 31.5 -112t97.5 -35q58 0 100 43q11 13 22 0zM248 575
q-5 -8 -16 -8h-29q-8 0 -11 4.5t2 11.5l80 123q6 9 17 9h35q9 0 11.5 -5t-2.5 -12z" />
    <glyph glyph-name="Ccircumflex" unicode="&#x108;" horiz-adv-x="531" 
d="M287 45q57 0 96 23.5t62 68.5q6 13 20 7l25 -14q13 -7 7 -20q-60 -122 -210 -122q-112 0 -170 61t-58 179v208q0 118 58 179t170 61q150 0 210 -122q6 -13 -7 -20l-25 -14q-14 -6 -20 7q-23 45 -62 68.5t-96 23.5q-163 0 -163 -194v-186q0 -194 163 -194zM215 740
q-5 -8 -16 -8h-27q-8 0 -10.5 4.5t2.5 11.5l86 123q6 9 17 9h31q11 0 17 -9l85 -123q5 -7 2.5 -11.5t-10.5 -4.5h-27q-11 0 -16 8l-67 95z" />
    <glyph glyph-name="ccircumflex" unicode="&#x109;" horiz-adv-x="409" 
d="M380 67q9 -11 -1 -22q-56 -57 -141 -57q-90 0 -137.5 48.5t-47.5 142.5v136q0 94 47 142t135 48t136 -48q11 -9 1 -21l-15 -18q-10 -13 -22 -1q-19 18 -41.5 26.5t-54.5 8.5q-64 0 -94.5 -35t-30.5 -112v-117q0 -77 31.5 -112t97.5 -35q58 0 100 43q11 13 22 0zM156 575
q-5 -8 -16 -8h-27q-8 0 -10.5 4.5t2.5 11.5l86 123q6 9 17 9h31q11 0 17 -9l85 -123q5 -7 2.5 -11.5t-10.5 -4.5h-27q-11 0 -16 8l-67 95z" />
    <glyph glyph-name="Cdotaccent" unicode="&#x10a;" horiz-adv-x="531" 
d="M287 45q57 0 96 23.5t62 68.5q6 13 20 7l25 -14q13 -7 7 -20q-60 -122 -210 -122q-112 0 -170 61t-58 179v208q0 118 58 179t170 61q150 0 210 -122q6 -13 -7 -20l-25 -14q-14 -6 -20 7q-23 45 -62 68.5t-96 23.5q-163 0 -163 -194v-186q0 -194 163 -194zM283 758
q-18 0 -30 12t-12 30t12 30t30 12t30 -12t12 -30t-12 -30t-30 -12z" />
    <glyph glyph-name="cdotaccent" unicode="&#x10b;" horiz-adv-x="409" 
d="M380 67q9 -11 -1 -22q-56 -57 -141 -57q-90 0 -137.5 48.5t-47.5 142.5v136q0 94 47 142t135 48t136 -48q11 -9 1 -21l-15 -18q-10 -13 -22 -1q-19 18 -41.5 26.5t-54.5 8.5q-64 0 -94.5 -35t-30.5 -112v-117q0 -77 31.5 -112t97.5 -35q58 0 100 43q11 13 22 0zM224 593
q-18 0 -30 12t-12 30t12 30t30 12t30 -12t12 -30t-12 -30t-30 -12z" />
    <glyph glyph-name="Ccaron" unicode="&#x10c;" horiz-adv-x="531" 
d="M287 45q57 0 96 23.5t62 68.5q6 13 20 7l25 -14q13 -7 7 -20q-60 -122 -210 -122q-112 0 -170 61t-58 179v208q0 118 58 179t170 61q150 0 210 -122q6 -13 -7 -20l-25 -14q-14 -6 -20 7q-23 45 -62 68.5t-96 23.5q-163 0 -163 -194v-186q0 -194 163 -194zM315 741
q-6 -9 -17 -9h-31q-11 0 -17 9l-86 123q-5 7 -2.5 11.5t10.5 4.5h27q11 0 16 -8l67 -95l67 95q5 8 16 8h27q8 0 10.5 -4.5t-2.5 -11.5z" />
    <glyph glyph-name="ccaron" unicode="&#x10d;" horiz-adv-x="409" 
d="M380 67q9 -11 -1 -22q-56 -57 -141 -57q-90 0 -137.5 48.5t-47.5 142.5v136q0 94 47 142t135 48t136 -48q11 -9 1 -21l-15 -18q-10 -13 -22 -1q-19 18 -41.5 26.5t-54.5 8.5q-64 0 -94.5 -35t-30.5 -112v-117q0 -77 31.5 -112t97.5 -35q58 0 100 43q11 13 22 0zM256 576
q-6 -9 -17 -9h-31q-11 0 -17 9l-86 123q-5 7 -2.5 11.5t10.5 4.5h27q11 0 16 -8l67 -95l67 95q5 8 16 8h27q8 0 10.5 -4.5t-2.5 -11.5z" />
    <glyph glyph-name="Dcaron" unicode="&#x10e;" horiz-adv-x="590" 
d="M298 664q233 0 233 -227v-210q0 -227 -233 -227h-199q-15 0 -15 15v634q0 15 15 15h199zM466 426q0 93 -41.5 137t-129.5 44h-146v-550h146q88 0 129.5 44t41.5 137v188zM313 741q-6 -9 -17 -9h-31q-11 0 -17 9l-86 123q-5 7 -2.5 11.5t10.5 4.5h27q11 0 16 -8l67 -95
l67 95q5 8 16 8h27q8 0 10.5 -4.5t-2.5 -11.5z" />
    <glyph glyph-name="dcaron" unicode="&#x10f;" horiz-adv-x="487" 
d="M420 176q0 -92 -46.5 -140t-136.5 -48q-91 0 -137.5 48t-46.5 140v142q0 92 44.5 139.5t130.5 47.5q91 0 130 -61h1v241q0 15 15 15h31q15 0 15 -15v-509zM359 309q0 143 -122 143q-64 0 -93.5 -34.5t-29.5 -108.5v-124q0 -75 29.5 -109.5t93.5 -34.5q63 0 92.5 34.5
t29.5 109.5v124zM516 523q-2 -12 -14 -12h-19q-14 0 -12 14l18 162q1 13 15 13h27q15 0 12 -15z" />
    <glyph glyph-name="Dcroat" unicode="&#x110;" horiz-adv-x="600" 
d="M308 664q233 0 233 -227v-210q0 -227 -233 -227h-199q-15 0 -15 15v293h-55q-15 0 -15 15v27q0 15 15 15h55v284q0 15 15 15h199zM476 426q0 93 -41.5 137t-129.5 44h-146v-242h139q15 0 15 -15v-27q0 -15 -15 -15h-139v-251h146q88 0 129.5 44t41.5 137v188z" />
    <glyph glyph-name="dcroat" unicode="&#x111;" horiz-adv-x="490" 
d="M471 613q14 0 14 -14v-23q0 -14 -14 -14h-51v-386q0 -92 -46.5 -140t-136.5 -48q-91 0 -137.5 48t-46.5 140v142q0 92 44.5 139.5t130.5 47.5q91 0 130 -61h1v118h-138q-14 0 -14 14v23q0 14 14 14h138v72q0 15 15 15h31q15 0 15 -15v-72h51zM359 309q0 143 -122 143
q-64 0 -93.5 -34.5t-29.5 -108.5v-124q0 -75 29.5 -109.5t93.5 -34.5q63 0 92.5 34.5t29.5 109.5v124z" />
    <glyph glyph-name="Emacron" unicode="&#x112;" horiz-adv-x="538" 
d="M433 364q15 0 15 -15v-27q0 -15 -15 -15h-284v-250h328q15 0 15 -15v-27q0 -15 -15 -15h-378q-15 0 -15 15v634q0 15 15 15h378q15 0 15 -15v-27q0 -15 -15 -15h-328v-243h284zM415 784q0 -14 -14 -14h-227q-14 0 -14 14v22q0 14 14 14h227q14 0 14 -14v-22z" />
    <glyph glyph-name="emacron" unicode="&#x113;" horiz-adv-x="454" 
d="M233 505q89 0 134.5 -47.5t45.5 -139.5v-76q0 -15 -15 -15h-284v-39q0 -78 32.5 -112.5t103.5 -34.5q33 0 59 12.5t51 38.5q11 13 21 0l17 -19q9 -11 0 -22q-60 -63 -151 -63q-96 0 -145 47.5t-49 143.5v139q0 92 46 139.5t134 47.5zM355 309q0 74 -29 108.5t-92 34.5
q-62 0 -91 -34.5t-29 -108.5v-31h241v31zM362 619q0 -14 -14 -14h-227q-14 0 -14 14v22q0 14 14 14h227q14 0 14 -14v-22z" />
    <glyph glyph-name="Ebreve" unicode="&#x114;" horiz-adv-x="538" 
d="M433 364q15 0 15 -15v-27q0 -15 -15 -15h-284v-250h328q15 0 15 -15v-27q0 -15 -15 -15h-378q-15 0 -15 15v634q0 15 15 15h378q15 0 15 -15v-27q0 -15 -15 -15h-328v-243h284zM399 859q14 0 12 -14q-8 -47 -40 -72.5t-83 -25.5t-83 25.5t-40 72.5q-2 14 12 14h19
q11 0 14 -12q7 -25 27.5 -38.5t50.5 -13.5t50.5 13.5t27.5 38.5q3 12 14 12h19z" />
    <glyph glyph-name="ebreve" unicode="&#x115;" horiz-adv-x="454" 
d="M233 505q89 0 134.5 -47.5t45.5 -139.5v-76q0 -15 -15 -15h-284v-39q0 -78 32.5 -112.5t103.5 -34.5q33 0 59 12.5t51 38.5q11 13 21 0l17 -19q9 -11 0 -22q-60 -63 -151 -63q-96 0 -145 47.5t-49 143.5v139q0 92 46 139.5t134 47.5zM355 309q0 74 -29 108.5t-92 34.5
q-62 0 -91 -34.5t-29 -108.5v-31h241v31zM346 694q14 0 12 -14q-8 -47 -40 -72.5t-83 -25.5t-83 25.5t-40 72.5q-2 14 12 14h19q11 0 14 -12q7 -25 27.5 -38.5t50.5 -13.5t50.5 13.5t27.5 38.5q3 12 14 12h19z" />
    <glyph glyph-name="Edotaccent" unicode="&#x116;" horiz-adv-x="538" 
d="M433 364q15 0 15 -15v-27q0 -15 -15 -15h-284v-250h328q15 0 15 -15v-27q0 -15 -15 -15h-378q-15 0 -15 15v634q0 15 15 15h378q15 0 15 -15v-27q0 -15 -15 -15h-328v-243h284zM288 758q-18 0 -30 12t-12 30t12 30t30 12t30 -12t12 -30t-12 -30t-30 -12z" />
    <glyph glyph-name="edotaccent" unicode="&#x117;" horiz-adv-x="454" 
d="M233 505q89 0 134.5 -47.5t45.5 -139.5v-76q0 -15 -15 -15h-284v-39q0 -78 32.5 -112.5t103.5 -34.5q33 0 59 12.5t51 38.5q11 13 21 0l17 -19q9 -11 0 -22q-60 -63 -151 -63q-96 0 -145 47.5t-49 143.5v139q0 92 46 139.5t134 47.5zM355 309q0 74 -29 108.5t-92 34.5
q-62 0 -91 -34.5t-29 -108.5v-31h241v31zM235 593q-18 0 -30 12t-12 30t12 30t30 12t30 -12t12 -30t-12 -30t-30 -12z" />
    <glyph glyph-name="Eogonek" unicode="&#x118;" horiz-adv-x="538" 
d="M491 -126q7 -9 -1 -17q-14 -14 -32.5 -21.5t-42.5 -7.5q-38 0 -60 19t-22 53q0 28 12.5 53t44.5 46v1h-291q-15 0 -15 15v634q0 15 15 15h378q15 0 15 -15v-27q0 -15 -15 -15h-328v-243h284q15 0 15 -15v-27q0 -15 -15 -15h-284v-250h328q15 0 15 -15v-27q0 -15 -15 -15
h-10q-47 -17 -68 -40.5t-21 -48.5q0 -17 12 -28.5t30 -11.5q25 0 42 17q9 9 17 0z" />
    <glyph glyph-name="eogonek" unicode="&#x119;" horiz-adv-x="454" 
d="M233 505q89 0 134.5 -47.5t45.5 -139.5v-76q0 -15 -15 -15h-284v-39q0 -78 32.5 -112.5t103.5 -34.5q33 0 59 12.5t51 38.5q11 13 21 0l17 -19q9 -11 0 -22q-13 -14 -27 -24t-30 -19q-38 -21 -54 -46t-16 -50q0 -17 11 -29t33 -12t39 17q9 9 18 -1l10 -12q7 -11 -1 -19
q-14 -13 -30 -20.5t-40 -7.5q-41 0 -63.5 21t-22.5 56q0 45 34 82v1h-12q-96 0 -145 47.5t-49 143.5v139q0 92 46 139.5t134 47.5zM355 309q0 74 -29 108.5t-92 34.5q-62 0 -91 -34.5t-29 -108.5v-31h241v31z" />
    <glyph glyph-name="Ecaron" unicode="&#x11a;" horiz-adv-x="538" 
d="M433 364q15 0 15 -15v-27q0 -15 -15 -15h-284v-250h328q15 0 15 -15v-27q0 -15 -15 -15h-378q-15 0 -15 15v634q0 15 15 15h378q15 0 15 -15v-27q0 -15 -15 -15h-328v-243h284zM320 741q-6 -9 -17 -9h-31q-11 0 -17 9l-86 123q-5 7 -2.5 11.5t10.5 4.5h27q11 0 16 -8
l67 -95l67 95q5 8 16 8h27q8 0 10.5 -4.5t-2.5 -11.5z" />
    <glyph glyph-name="ecaron" unicode="&#x11b;" horiz-adv-x="454" 
d="M233 505q89 0 134.5 -47.5t45.5 -139.5v-76q0 -15 -15 -15h-284v-39q0 -78 32.5 -112.5t103.5 -34.5q33 0 59 12.5t51 38.5q11 13 21 0l17 -19q9 -11 0 -22q-60 -63 -151 -63q-96 0 -145 47.5t-49 143.5v139q0 92 46 139.5t134 47.5zM355 309q0 74 -29 108.5t-92 34.5
q-62 0 -91 -34.5t-29 -108.5v-31h241v31zM267 576q-6 -9 -17 -9h-31q-11 0 -17 9l-86 123q-5 7 -2.5 11.5t10.5 4.5h27q11 0 16 -8l67 -95l67 95q5 8 16 8h27q8 0 10.5 -4.5t-2.5 -11.5z" />
    <glyph glyph-name="Gcircumflex" unicode="&#x11c;" horiz-adv-x="569" 
d="M520 230q0 -119 -58 -180.5t-172 -61.5q-113 0 -172 61t-59 179v208q0 118 59 179t174 61q153 0 215 -122q6 -13 -7 -20l-25 -14q-14 -6 -21 7q-23 45 -63 68.5t-99 23.5q-168 0 -168 -194v-186q0 -194 167 -194t167 196v48h-145q-15 0 -15 15v27q0 15 15 15h192
q15 0 15 -15v-101zM219 740q-5 -8 -16 -8h-27q-8 0 -10.5 4.5t2.5 11.5l86 123q6 9 17 9h31q11 0 17 -9l85 -123q5 -7 2.5 -11.5t-10.5 -4.5h-27q-11 0 -16 8l-67 95z" />
    <glyph glyph-name="gcircumflex" unicode="&#x11d;" horiz-adv-x="487" 
d="M237 505q90 0 136.5 -47.5t46.5 -139.5v-317q0 -81 -48.5 -127t-133.5 -46q-99 0 -162 57q-10 10 -2 21l15 20q10 13 21 2q51 -47 125 -47q60 0 92 33t32 95v54h-1q-39 -61 -130 -61q-86 0 -130.5 47.5t-44.5 139.5v129q0 92 46.5 139.5t137.5 47.5zM237 55
q122 0 122 144v110q0 74 -29.5 108.5t-92.5 34.5q-64 0 -93.5 -34.5t-29.5 -108.5v-110q0 -74 29.5 -109t93.5 -35zM169 575q-5 -8 -16 -8h-27q-8 0 -10.5 4.5t2.5 11.5l86 123q6 9 17 9h31q11 0 17 -9l85 -123q5 -7 2.5 -11.5t-10.5 -4.5h-27q-11 0 -16 8l-67 95z" />
    <glyph glyph-name="Gbreve" unicode="&#x11e;" horiz-adv-x="569" 
d="M520 230q0 -119 -58 -180.5t-172 -61.5q-113 0 -172 61t-59 179v208q0 118 59 179t174 61q153 0 215 -122q6 -13 -7 -20l-25 -14q-14 -6 -21 7q-23 45 -63 68.5t-99 23.5q-168 0 -168 -194v-186q0 -194 167 -194t167 196v48h-145q-15 0 -15 15v27q0 15 15 15h192
q15 0 15 -15v-101zM398 859q14 0 12 -14q-8 -47 -40 -72.5t-83 -25.5t-83 25.5t-40 72.5q-2 14 12 14h19q11 0 14 -12q7 -25 27.5 -38.5t50.5 -13.5t50.5 13.5t27.5 38.5q3 12 14 12h19z" />
    <glyph glyph-name="gbreve" unicode="&#x11f;" horiz-adv-x="487" 
d="M237 505q90 0 136.5 -47.5t46.5 -139.5v-317q0 -81 -48.5 -127t-133.5 -46q-99 0 -162 57q-10 10 -2 21l15 20q10 13 21 2q51 -47 125 -47q60 0 92 33t32 95v54h-1q-39 -61 -130 -61q-86 0 -130.5 47.5t-44.5 139.5v129q0 92 46.5 139.5t137.5 47.5zM237 55
q122 0 122 144v110q0 74 -29.5 108.5t-92.5 34.5q-64 0 -93.5 -34.5t-29.5 -108.5v-110q0 -74 29.5 -109t93.5 -35zM348 694q14 0 12 -14q-8 -47 -40 -72.5t-83 -25.5t-83 25.5t-40 72.5q-2 14 12 14h19q11 0 14 -12q7 -25 27.5 -38.5t50.5 -13.5t50.5 13.5t27.5 38.5
q3 12 14 12h19z" />
    <glyph glyph-name="Gdotaccent" unicode="&#x120;" horiz-adv-x="569" 
d="M520 230q0 -119 -58 -180.5t-172 -61.5q-113 0 -172 61t-59 179v208q0 118 59 179t174 61q153 0 215 -122q6 -13 -7 -20l-25 -14q-14 -6 -21 7q-23 45 -63 68.5t-99 23.5q-168 0 -168 -194v-186q0 -194 167 -194t167 196v48h-145q-15 0 -15 15v27q0 15 15 15h192
q15 0 15 -15v-101zM287 758q-18 0 -30 12t-12 30t12 30t30 12t30 -12t12 -30t-12 -30t-30 -12z" />
    <glyph glyph-name="gdotaccent" unicode="&#x121;" horiz-adv-x="487" 
d="M237 505q90 0 136.5 -47.5t46.5 -139.5v-317q0 -81 -48.5 -127t-133.5 -46q-99 0 -162 57q-10 10 -2 21l15 20q10 13 21 2q51 -47 125 -47q60 0 92 33t32 95v54h-1q-39 -61 -130 -61q-86 0 -130.5 47.5t-44.5 139.5v129q0 92 46.5 139.5t137.5 47.5zM237 55
q122 0 122 144v110q0 74 -29.5 108.5t-92.5 34.5q-64 0 -93.5 -34.5t-29.5 -108.5v-110q0 -74 29.5 -109t93.5 -35zM237 593q-18 0 -30 12t-12 30t12 30t30 12t30 -12t12 -30t-12 -30t-30 -12z" />
    <glyph glyph-name="Gcommaaccent" unicode="&#x122;" horiz-adv-x="569" 
d="M520 230q0 -119 -58 -180.5t-172 -61.5q-113 0 -172 61t-59 179v208q0 118 59 179t174 61q153 0 215 -122q6 -13 -7 -20l-25 -14q-14 -6 -21 7q-23 45 -63 68.5t-99 23.5q-168 0 -168 -194v-186q0 -194 167 -194t167 196v48h-145q-15 0 -15 15v27q0 15 15 15h192
q15 0 15 -15v-101zM290 -50q17 0 29 -12.5t12 -33.5q0 -29 -13.5 -51.5t-38.5 -33.5q-8 -4 -13 5l-4 8q-5 10 4 14q16 9 20 27q-17 2 -27 12t-10 27t11.5 27.5t29.5 10.5z" />
    <glyph glyph-name="gcommaaccent" unicode="&#x123;" horiz-adv-x="487" 
d="M240 663q16 -1 26.5 -11t10.5 -27q0 -18 -11.5 -28t-28.5 -10q-18 0 -29.5 12t-11.5 34q0 29 14 51.5t38 32.5q8 3 12 -4l5 -9q5 -8 -5 -14q-16 -9 -20 -27zM237 505q90 0 136.5 -47.5t46.5 -139.5v-317q0 -81 -48.5 -127t-133.5 -46q-99 0 -162 57q-10 10 -2 21l15 20
q10 13 21 2q51 -47 125 -47q60 0 92 33t32 95v54h-1q-39 -61 -130 -61q-86 0 -130.5 47.5t-44.5 139.5v129q0 92 46.5 139.5t137.5 47.5zM237 55q122 0 122 144v110q0 74 -29.5 108.5t-92.5 34.5q-64 0 -93.5 -34.5t-29.5 -108.5v-110q0 -74 29.5 -109t93.5 -35z" />
    <glyph glyph-name="Hcircumflex" unicode="&#x124;" horiz-adv-x="623" 
d="M539 15q0 -15 -15 -15h-35q-15 0 -15 15v293h-325v-293q0 -15 -15 -15h-35q-15 0 -15 15v634q0 15 15 15h35q15 0 15 -15v-284h325v284q0 15 15 15h35q15 0 15 -15v-634zM244 740q-5 -8 -16 -8h-27q-8 0 -10.5 4.5t2.5 11.5l86 123q6 9 17 9h31q11 0 17 -9l85 -123
q5 -7 2.5 -11.5t-10.5 -4.5h-27q-11 0 -16 8l-67 95z" />
    <glyph glyph-name="hcircumflex" unicode="&#x125;" horiz-adv-x="500" 
d="M263 505q84 0 127 -46t43 -137v-307q0 -15 -15 -15h-31q-15 0 -15 15v298q0 72 -29 105.5t-90 33.5q-119 0 -119 -139v-298q0 -15 -15 -15h-31q-15 0 -15 15v670q0 15 15 15h31q15 0 15 -15v-241h1q37 61 128 61zM35 771q-5 -8 -16 -8h-27q-8 0 -10.5 4.5t2.5 11.5
l86 123q6 9 17 9h31q11 0 17 -9l85 -123q5 -7 2.5 -11.5t-10.5 -4.5h-27q-11 0 -16 8l-67 95z" />
    <glyph glyph-name="Hbar" unicode="&#x126;" horiz-adv-x="633" 
d="M597 524q14 0 14 -14v-23q0 -14 -14 -14h-53v-458q0 -15 -15 -15h-35q-15 0 -15 15v293h-325v-293q0 -15 -15 -15h-35q-15 0 -15 15v458h-53q-14 0 -14 14v23q0 14 14 14h53v125q0 15 15 15h35q15 0 15 -15v-125h325v125q0 15 15 15h35q15 0 15 -15v-125h53zM479 365v108
h-325v-108h325z" />
    <glyph glyph-name="hbar" unicode="&#x127;" horiz-adv-x="503" 
d="M266 505q84 0 127 -46t43 -137v-307q0 -15 -15 -15h-31q-15 0 -15 15v298q0 72 -29 105.5t-90 33.5q-119 0 -119 -139v-298q0 -15 -15 -15h-31q-15 0 -15 15v547h-58q-14 0 -14 14v23q0 14 14 14h58v72q0 15 15 15h31q15 0 15 -15v-72h124q14 0 14 -14v-23q0 -14 -14 -14
h-124v-118h1q37 61 128 61z" />
    <glyph glyph-name="Itilde" unicode="&#x128;" horiz-adv-x="233" 
d="M149 15q0 -15 -15 -15h-35q-15 0 -15 15v634q0 15 15 15h35q15 0 15 -15v-634zM-10 746q-15 0 -13 14q7 44 28.5 67.5t56.5 23.5q17 0 32.5 -7.5t35.5 -25.5q14 -13 23 -18t19 -5q30 0 39 43q3 12 14 12h17q15 0 13 -14q-7 -44 -28.5 -67.5t-56.5 -23.5q-17 0 -32.5 7.5
t-35.5 25.5q-14 13 -23 18t-19 5q-30 0 -39 -43q-3 -12 -14 -12h-17z" />
    <glyph glyph-name="itilde" unicode="&#x129;" horiz-adv-x="207" 
d="M134 15q0 -15 -15 -15h-31q-15 0 -15 15v463q0 15 15 15h31q15 0 15 -15v-463zM-23 581q-15 0 -13 14q7 44 28.5 67.5t56.5 23.5q17 0 32.5 -7.5t35.5 -25.5q14 -13 23 -18t19 -5q30 0 39 43q3 12 14 12h17q15 0 13 -14q-7 -44 -28.5 -67.5t-56.5 -23.5q-17 0 -32.5 7.5
t-35.5 25.5q-14 13 -23 18t-19 5q-30 0 -39 -43q-3 -12 -14 -12h-17z" />
    <glyph glyph-name="Imacron" unicode="&#x12a;" horiz-adv-x="233" 
d="M149 15q0 -15 -15 -15h-35q-15 0 -15 15v634q0 15 15 15h35q15 0 15 -15v-634zM243 784q0 -14 -14 -14h-227q-14 0 -14 14v22q0 14 14 14h227q14 0 14 -14v-22z" />
    <glyph glyph-name="imacron" unicode="&#x12b;" horiz-adv-x="207" 
d="M134 15q0 -15 -15 -15h-31q-15 0 -15 15v463q0 15 15 15h31q15 0 15 -15v-463zM230 619q0 -14 -14 -14h-227q-14 0 -14 14v22q0 14 14 14h227q14 0 14 -14v-22z" />
    <glyph glyph-name="Ibreve" unicode="&#x12c;" horiz-adv-x="233" 
d="M149 15q0 -15 -15 -15h-35q-15 0 -15 15v634q0 15 15 15h35q15 0 15 -15v-634zM227 859q14 0 12 -14q-8 -47 -40 -72.5t-83 -25.5t-83 25.5t-40 72.5q-2 14 12 14h19q11 0 14 -12q7 -25 27.5 -38.5t50.5 -13.5t50.5 13.5t27.5 38.5q3 12 14 12h19z" />
    <glyph glyph-name="ibreve" unicode="&#x12d;" horiz-adv-x="207" 
d="M134 15q0 -15 -15 -15h-31q-15 0 -15 15v463q0 15 15 15h31q15 0 15 -15v-463zM214 694q14 0 12 -14q-8 -47 -40 -72.5t-83 -25.5t-83 25.5t-40 72.5q-2 14 12 14h19q11 0 14 -12q7 -25 27.5 -38.5t50.5 -13.5t50.5 13.5t27.5 38.5q3 12 14 12h19z" />
    <glyph glyph-name="Iogonek" unicode="&#x12e;" horiz-adv-x="233" 
d="M181 -126q7 -9 -1 -17q-14 -14 -32.5 -21.5t-42.5 -7.5q-38 0 -60 20t-22 54q0 29 14.5 56t46.5 50v641q0 15 15 15h35q15 0 15 -15v-634q0 -15 -14 -15q-67 -36 -67 -87q0 -17 12 -29.5t30 -12.5q25 0 42 17q9 9 17 0z" />
    <glyph glyph-name="iogonek" unicode="&#x12f;" horiz-adv-x="206" 
d="M174 -126q7 -9 -1 -17q-14 -14 -33 -21.5t-42 -7.5q-38 0 -60 20t-22 54q0 29 13.5 56t44.5 50q-1 2 -1 7v463q0 15 15 15h31q15 0 15 -15v-463q0 -10 -10 -16q-63 -35 -63 -86q0 -17 12 -29.5t30 -12.5q23 0 42 17q9 9 17 0zM103 593q-18 0 -30 12t-12 30t12 30t30 12
t30 -12t12 -30t-12 -30t-30 -12z" />
    <glyph glyph-name="Idotaccent" unicode="&#x130;" horiz-adv-x="233" 
d="M149 15q0 -15 -15 -15h-35q-15 0 -15 15v634q0 15 15 15h35q15 0 15 -15v-634zM116 758q-18 0 -30 12t-12 30t12 30t30 12t30 -12t12 -30t-12 -30t-30 -12z" />
    <glyph glyph-name="dotlessi" unicode="&#x131;" horiz-adv-x="207" 
d="M134 15q0 -15 -15 -15h-31q-15 0 -15 15v463q0 15 15 15h31q15 0 15 -15v-463z" />
    <glyph glyph-name="IJ" unicode="&#x132;" horiz-adv-x="745" 
d="M149 15q0 -15 -15 -15h-35q-15 0 -15 15v634q0 15 15 15h35q15 0 15 -15v-634zM673 220q0 -115 -55 -173.5t-161 -58.5q-139 0 -204 110q-7 12 4 20l24 18q13 10 21 -5q51 -86 152 -86q154 0 154 185v419q0 15 15 15h35q15 0 15 -15v-429z" />
    <glyph glyph-name="ij" unicode="&#x133;" horiz-adv-x="414" 
d="M103 593q-18 0 -30 12t-12 30t12 30t30 12t30 -12t12 -30t-12 -30t-30 -12zM88 0q-15 0 -15 15v463q0 15 15 15h31q15 0 15 -15v-463q0 -15 -15 -15h-31zM310 593q-18 0 -30 12t-12 30t12 30t30 12t30 -12t12 -30t-12 -30t-30 -12zM202 -107q78 0 78 85v500q0 15 15 15
h31q15 0 15 -15v-500q0 -68 -32.5 -103t-97.5 -35h-9q-15 0 -15 15v23q0 15 15 15z" />
    <glyph glyph-name="Jcircumflex" unicode="&#x134;" horiz-adv-x="518" 
d="M446 220q0 -115 -55 -173.5t-161 -58.5q-139 0 -204 110q-7 12 4 20l24 18q13 10 21 -5q51 -86 152 -86q154 0 154 185v419q0 15 15 15h35q15 0 15 -15v-429zM345 740q-5 -8 -16 -8h-27q-8 0 -10.5 4.5t2.5 11.5l86 123q6 9 17 9h31q11 0 17 -9l85 -123q5 -7 2.5 -11.5
t-10.5 -4.5h-27q-11 0 -16 8l-67 95z" />
    <glyph glyph-name="jcircumflex" unicode="&#x135;" horiz-adv-x="207" 
d="M-5 -107q78 0 78 85v500q0 15 15 15h31q15 0 15 -15v-500q0 -68 -32.5 -103t-97.5 -35h-9q-15 0 -15 15v23q0 15 15 15zM35 575q-5 -8 -16 -8h-27q-8 0 -10.5 4.5t2.5 11.5l86 123q6 9 17 9h31q11 0 17 -9l85 -123q5 -7 2.5 -11.5t-10.5 -4.5h-27q-11 0 -16 8l-67 95z
" />
    <glyph glyph-name="Kcommaaccent" unicode="&#x136;" horiz-adv-x="550" 
d="M149 15q0 -15 -15 -15h-35q-15 0 -15 15v634q0 15 15 15h35q15 0 15 -15v-295l280 302q7 8 18 8h47q10 0 12.5 -5.5t-4.5 -12.5l-291 -308l302 -320q6 -7 4 -12.5t-12 -5.5h-50q-12 0 -19 9l-287 307v-301zM291 -50q17 0 29 -12.5t12 -33.5q0 -29 -13.5 -51.5
t-38.5 -33.5q-8 -4 -13 5l-4 8q-5 10 4 14q16 9 20 27q-17 2 -27 12t-10 27t11.5 27.5t29.5 10.5z" />
    <glyph glyph-name="kcommaaccent" unicode="&#x137;" horiz-adv-x="436" 
d="M134 15q0 -15 -15 -15h-31q-15 0 -15 15v670q0 15 15 15h31q15 0 15 -15v-416l200 216q7 8 18 8h42q10 0 12.5 -5.5t-4.5 -12.5l-210 -223l221 -234q7 -7 4.5 -12.5t-12.5 -5.5h-44q-11 0 -18 8l-209 226v-219zM240 -50q17 0 29 -12.5t12 -33.5q0 -29 -13.5 -51.5
t-38.5 -33.5q-8 -4 -13 5l-4 8q-5 10 4 14q16 9 20 27q-17 2 -27 12t-10 27t11.5 27.5t29.5 10.5z" />
    <glyph glyph-name="kgreenlandic" unicode="&#x138;" horiz-adv-x="436" 
d="M134 15q0 -15 -15 -15h-31q-15 0 -15 15v463q0 15 15 15h31q15 0 15 -15v-209l200 216q7 8 18 8h42q10 0 12.5 -5.5t-4.5 -12.5l-210 -223l221 -234q7 -7 4.5 -12.5t-12.5 -5.5h-44q-11 0 -18 8l-209 226v-219z" />
    <glyph glyph-name="Lacute" unicode="&#x139;" horiz-adv-x="496" 
d="M477 15q0 -15 -15 -15h-363q-15 0 -15 15v634q0 15 15 15h35q15 0 15 -15v-592h313q15 0 15 -15v-27zM140 740q-5 -8 -16 -8h-29q-8 0 -11 4.5t2 11.5l80 123q6 9 17 9h35q9 0 11.5 -5t-2.5 -12z" />
    <glyph glyph-name="lacute" unicode="&#x13a;" horiz-adv-x="207" 
d="M134 15q0 -15 -15 -15h-31q-15 0 -15 15v670q0 15 15 15h31q15 0 15 -15v-670zM127 771q-5 -8 -16 -8h-29q-8 0 -11 4.5t2 11.5l80 123q6 9 17 9h35q9 0 11.5 -5t-2.5 -12z" />
    <glyph glyph-name="Lcommaaccent" unicode="&#x13b;" horiz-adv-x="496" 
d="M477 15q0 -15 -15 -15h-363q-15 0 -15 15v634q0 15 15 15h35q15 0 15 -15v-592h313q15 0 15 -15v-27zM278 -50q17 0 29 -12.5t12 -33.5q0 -29 -13.5 -51.5t-38.5 -33.5q-8 -4 -13 5l-4 8q-5 10 4 14q16 9 20 27q-17 2 -27 12t-10 27t11.5 27.5t29.5 10.5z" />
    <glyph glyph-name="lcommaaccent" unicode="&#x13c;" horiz-adv-x="207" 
d="M134 15q0 -15 -15 -15h-31q-15 0 -15 15v670q0 15 15 15h31q15 0 15 -15v-670zM103 -50q17 0 29 -12.5t12 -33.5q0 -29 -13.5 -51.5t-38.5 -33.5q-8 -4 -13 5l-4 8q-5 10 4 14q16 9 20 27q-17 2 -27 12t-10 27t11.5 27.5t29.5 10.5z" />
    <glyph glyph-name="Lcaron" unicode="&#x13d;" horiz-adv-x="496" 
d="M477 15q0 -15 -15 -15h-363q-15 0 -15 15v634q0 15 15 15h35q15 0 15 -15v-592h313q15 0 15 -15v-27zM280 523q-2 -12 -14 -12h-19q-14 0 -12 14l18 162q1 13 15 13h27q15 0 12 -15z" />
    <glyph glyph-name="lcaron" unicode="&#x13e;" horiz-adv-x="207" 
d="M134 15q0 -15 -15 -15h-31q-15 0 -15 15v670q0 15 15 15h31q15 0 15 -15v-670zM229 523q-2 -12 -14 -12h-19q-14 0 -12 14l18 162q1 13 15 13h27q15 0 12 -15z" />
    <glyph glyph-name="Ldot" unicode="&#x13f;" horiz-adv-x="497" 
d="M477 15q0 -15 -15 -15h-363q-15 0 -15 15v634q0 15 15 15h35q15 0 15 -15v-592h313q15 0 15 -15v-27zM365 290q-18 0 -30 12t-12 30t12 30t30 12t30 -12t12 -30t-12 -30t-30 -12z" />
    <glyph glyph-name="ldot" unicode="&#x140;" horiz-adv-x="240" 
d="M134 15q0 -15 -15 -15h-31q-15 0 -15 15v670q0 15 15 15h31q15 0 15 -15v-670zM223 290q-18 0 -30 12t-12 30t12 30t30 12t30 -12t12 -30t-12 -30t-30 -12z" />
    <glyph glyph-name="Lslash" unicode="&#x141;" horiz-adv-x="507" 
d="M472 57q15 0 15 -15v-27q0 -15 -15 -15h-363q-15 0 -15 15v185l-52 -36q-8 -5 -13 -2t-5 12v33q0 12 10 19l60 41v382q0 15 15 15h35q15 0 15 -15v-337l208 143q8 5 13.5 2.5t5.5 -11.5v-34q0 -12 -10 -19l-217 -149v-187h313z" />
    <glyph glyph-name="lslash" unicode="&#x142;" horiz-adv-x="225" 
d="M203 480q7 5 12 2.5t5 -10.5v-30q0 -11 -9 -18l-68 -51v-358q0 -15 -15 -15h-31q-15 0 -15 15v313l-60 -45q-7 -5 -12 -2.5t-5 10.5v30q0 10 9 18l68 51v295q0 15 15 15h31q15 0 15 -15v-250z" />
    <glyph glyph-name="Nacute" unicode="&#x143;" horiz-adv-x="623" 
d="M539 15q0 -15 -15 -15h-37q-12 0 -18 10l-321 548h-1v-543q0 -15 -15 -15h-33q-15 0 -15 15v634q0 15 15 15h44q12 0 18 -10l314 -538h1v533q0 15 15 15h33q15 0 15 -15v-634zM336 740q-5 -8 -16 -8h-29q-8 0 -11 4.5t2 11.5l80 123q6 9 17 9h35q9 0 11.5 -5t-2.5 -12z
" />
    <glyph glyph-name="nacute" unicode="&#x144;" horiz-adv-x="494" 
d="M366 313q0 72 -29 105.5t-90 33.5t-90 -33.5t-29 -105.5v-298q0 -15 -15 -15h-31q-15 0 -15 15v307q0 91 46 137t134 46q89 0 134.5 -46t45.5 -137v-307q0 -15 -15 -15h-31q-15 0 -15 15v298zM271 575q-5 -8 -16 -8h-29q-8 0 -11 4.5t2 11.5l80 123q6 9 17 9h35
q9 0 11.5 -5t-2.5 -12z" />
    <glyph glyph-name="Ncommaaccent" unicode="&#x145;" horiz-adv-x="623" 
d="M539 15q0 -15 -15 -15h-37q-12 0 -18 10l-321 548h-1v-543q0 -15 -15 -15h-33q-15 0 -15 15v634q0 15 15 15h44q12 0 18 -10l314 -538h1v533q0 15 15 15h33q15 0 15 -15v-634zM312 -50q17 0 29 -12.5t12 -33.5q0 -29 -13.5 -51.5t-38.5 -33.5q-8 -4 -13 5l-4 8
q-5 10 4 14q16 9 20 27q-17 2 -27 12t-10 27t11.5 27.5t29.5 10.5z" />
    <glyph glyph-name="ncommaaccent" unicode="&#x146;" horiz-adv-x="494" 
d="M366 313q0 72 -29 105.5t-90 33.5t-90 -33.5t-29 -105.5v-298q0 -15 -15 -15h-31q-15 0 -15 15v307q0 91 46 137t134 46q89 0 134.5 -46t45.5 -137v-307q0 -15 -15 -15h-31q-15 0 -15 15v298zM247 -50q17 0 29 -12.5t12 -33.5q0 -29 -13.5 -51.5t-38.5 -33.5q-8 -4 -13 5
l-4 8q-5 10 4 14q16 9 20 27q-17 2 -27 12t-10 27t11.5 27.5t29.5 10.5z" />
    <glyph glyph-name="Ncaron" unicode="&#x147;" horiz-adv-x="623" 
d="M539 15q0 -15 -15 -15h-37q-12 0 -18 10l-321 548h-1v-543q0 -15 -15 -15h-33q-15 0 -15 15v634q0 15 15 15h44q12 0 18 -10l314 -538h1v533q0 15 15 15h33q15 0 15 -15v-634zM344 741q-6 -9 -17 -9h-31q-11 0 -17 9l-86 123q-5 7 -2.5 11.5t10.5 4.5h27q11 0 16 -8
l67 -95l67 95q5 8 16 8h27q8 0 10.5 -4.5t-2.5 -11.5z" />
    <glyph glyph-name="ncaron" unicode="&#x148;" horiz-adv-x="494" 
d="M366 313q0 72 -29 105.5t-90 33.5t-90 -33.5t-29 -105.5v-298q0 -15 -15 -15h-31q-15 0 -15 15v307q0 91 46 137t134 46q89 0 134.5 -46t45.5 -137v-307q0 -15 -15 -15h-31q-15 0 -15 15v298zM279 576q-6 -9 -17 -9h-31q-11 0 -17 9l-86 123q-5 7 -2.5 11.5t10.5 4.5h27
q11 0 16 -8l67 -95l67 95q5 8 16 8h27q8 0 10.5 -4.5t-2.5 -11.5z" />
    <glyph glyph-name="napostrophe" unicode="&#x149;" horiz-adv-x="494" 
d="M366 313q0 72 -29 105.5t-90 33.5t-90 -33.5t-29 -105.5v-298q0 -15 -15 -15h-31q-15 0 -15 15v307q0 91 46 137t134 46q89 0 134.5 -46t45.5 -137v-307q0 -15 -15 -15h-31q-15 0 -15 15v298zM101 703q19 0 31 -12.5t12 -35.5q0 -35 -17 -66.5t-43 -54.5q-7 -6 -14 1
l-9 10q-5 6 1 13q28 25 34 66q-16 2 -26 12t-10 27q0 19 12 29.5t29 10.5z" />
    <glyph glyph-name="Eng" unicode="&#x14a;" horiz-adv-x="623" 
d="M524 664q15 0 15 -15v-671q0 -68 -32.5 -103t-97.5 -35h-27q-15 0 -15 15v27q0 15 15 15h16q78 0 78 81v21l-328 559h-1v-543q0 -15 -15 -15h-33q-15 0 -15 15v634q0 15 15 15h44q12 0 18 -10l314 -538h1v533q0 15 15 15h33z" />
    <glyph glyph-name="eng" unicode="&#x14b;" horiz-adv-x="494" 
d="M366 313q0 72 -29 105.5t-90 33.5t-90 -33.5t-29 -105.5v-313h-61v322q0 91 46 137t134 46q89 0 134.5 -46t45.5 -137v-344q0 -68 -32.5 -103t-97.5 -35h-9q-15 0 -15 15v23q0 15 15 15q78 0 78 85v335z" />
    <glyph glyph-name="Omacron" unicode="&#x14c;" horiz-adv-x="585" 
d="M59 436q0 118 59 179t174 61t174.5 -61t59.5 -179v-208q0 -118 -59.5 -179t-174.5 -61t-174 61t-59 179v208zM124 239q0 -194 168 -194q169 0 169 194v186q0 194 -169 194q-168 0 -168 -194v-186zM419 784q0 -14 -14 -14h-227q-14 0 -14 14v22q0 14 14 14h227
q14 0 14 -14v-22z" />
    <glyph glyph-name="omacron" unicode="&#x14d;" horiz-adv-x="473" 
d="M237 505q90 0 136.5 -47.5t46.5 -139.5v-143q0 -92 -46.5 -139.5t-136.5 -47.5q-91 0 -137.5 47.5t-46.5 139.5v143q0 92 46.5 139.5t137.5 47.5zM359 309q0 74 -29.5 108.5t-92.5 34.5q-64 0 -93.5 -34.5t-29.5 -108.5v-124q0 -75 29.5 -109.5t93.5 -34.5
q63 0 92.5 34.5t29.5 109.5v124zM364 619q0 -14 -14 -14h-227q-14 0 -14 14v22q0 14 14 14h227q14 0 14 -14v-22z" />
    <glyph glyph-name="Obreve" unicode="&#x14e;" horiz-adv-x="585" 
d="M59 436q0 118 59 179t174 61t174.5 -61t59.5 -179v-208q0 -118 -59.5 -179t-174.5 -61t-174 61t-59 179v208zM124 239q0 -194 168 -194q169 0 169 194v186q0 194 -169 194q-168 0 -168 -194v-186zM403 859q14 0 12 -14q-8 -47 -40 -72.5t-83 -25.5t-83 25.5t-40 72.5
q-2 14 12 14h19q11 0 14 -12q7 -25 27.5 -38.5t50.5 -13.5t50.5 13.5t27.5 38.5q3 12 14 12h19z" />
    <glyph glyph-name="obreve" unicode="&#x14f;" horiz-adv-x="473" 
d="M237 505q90 0 136.5 -47.5t46.5 -139.5v-143q0 -92 -46.5 -139.5t-136.5 -47.5q-91 0 -137.5 47.5t-46.5 139.5v143q0 92 46.5 139.5t137.5 47.5zM359 309q0 74 -29.5 108.5t-92.5 34.5q-64 0 -93.5 -34.5t-29.5 -108.5v-124q0 -75 29.5 -109.5t93.5 -34.5
q63 0 92.5 34.5t29.5 109.5v124zM348 694q14 0 12 -14q-8 -47 -40 -72.5t-83 -25.5t-83 25.5t-40 72.5q-2 14 12 14h19q11 0 14 -12q7 -25 27.5 -38.5t50.5 -13.5t50.5 13.5t27.5 38.5q3 12 14 12h19z" />
    <glyph glyph-name="Ohungarumlaut" unicode="&#x150;" horiz-adv-x="585" 
d="M59 436q0 118 59 179t174 61t174.5 -61t59.5 -179v-208q0 -118 -59.5 -179t-174.5 -61t-174 61t-59 179v208zM124 239q0 -194 168 -194q169 0 169 194v186q0 194 -169 194q-168 0 -168 -194v-186zM243 740q-6 -8 -16 -8h-23q-8 0 -10.5 4.5t1.5 11.5l72 122q6 10 17 10
h30q19 0 9 -17zM386 740q-6 -8 -16 -8h-24q-8 0 -10.5 4.5t1.5 11.5l72 122q6 10 17 10h30q19 0 9 -17z" />
    <glyph glyph-name="ohungarumlaut" unicode="&#x151;" horiz-adv-x="473" 
d="M237 505q90 0 136.5 -47.5t46.5 -139.5v-143q0 -92 -46.5 -139.5t-136.5 -47.5q-91 0 -137.5 47.5t-46.5 139.5v143q0 92 46.5 139.5t137.5 47.5zM359 309q0 74 -29.5 108.5t-92.5 34.5q-64 0 -93.5 -34.5t-29.5 -108.5v-124q0 -75 29.5 -109.5t93.5 -34.5
q63 0 92.5 34.5t29.5 109.5v124zM188 575q-6 -8 -16 -8h-23q-8 0 -10.5 4.5t1.5 11.5l72 122q6 10 17 10h30q19 0 9 -17zM331 575q-6 -8 -16 -8h-24q-8 0 -10.5 4.5t1.5 11.5l72 122q6 10 17 10h30q19 0 9 -17z" />
    <glyph glyph-name="OE" unicode="&#x152;" horiz-adv-x="895" 
d="M791 364q15 0 15 -15v-27q0 -15 -15 -15h-285v-250h329q15 0 15 -15v-27q0 -15 -15 -15h-543q-233 0 -233 227v210q0 227 233 227h543q15 0 15 -15v-27q0 -15 -15 -15h-329v-243h285zM295 607q-88 0 -129.5 -44t-41.5 -137v-188q0 -93 41.5 -137t129.5 -44h146v550h-146z
" />
    <glyph glyph-name="oe" unicode="&#x153;" horiz-adv-x="760" 
d="M546 505q85 0 129 -48t44 -139v-76q0 -15 -15 -15h-284v-39q0 -78 32.5 -112.5t103.5 -34.5q33 0 59 12.5t51 38.5q11 13 21 0l17 -19q9 -11 0 -22q-62 -63 -147 -63q-127 0 -166 94h-1q-35 -94 -158 -94q-88 0 -133.5 47.5t-45.5 139.5v143q0 92 45.5 139.5t133.5 47.5
q62 0 100.5 -23t57.5 -69h1q33 92 155 92zM359 309q0 74 -29.5 108.5t-92.5 34.5q-64 0 -93.5 -34.5t-29.5 -108.5v-124q0 -75 29.5 -109.5t93.5 -34.5q63 0 92.5 34.5t29.5 109.5v124zM661 309q0 74 -29 108.5t-91 34.5q-63 0 -92 -34.5t-29 -108.5v-31h241v31z" />
    <glyph glyph-name="Racute" unicode="&#x154;" horiz-adv-x="567" 
d="M149 272v-257q0 -15 -15 -15h-35q-15 0 -15 15v634q0 15 15 15h179q119 0 175.5 -47.5t56.5 -147.5q0 -163 -155 -191l164 -260q5 -8 2 -13t-12 -5h-44q-12 0 -18 10l-159 262h-139zM278 329q87 0 126.5 33.5t39.5 105.5t-39.5 105.5t-126.5 33.5h-129v-278h129zM301 740
q-5 -8 -16 -8h-29q-8 0 -11 4.5t2 11.5l80 123q6 9 17 9h35q9 0 11.5 -5t-2.5 -12z" />
    <glyph glyph-name="racute" unicode="&#x155;" horiz-adv-x="363" 
d="M67 330q0 175 161 175q64 0 110 -32q12 -9 5 -21l-13 -20q-9 -13 -21 -4q-35 24 -76 24q-55 0 -80 -30t-25 -96v-311q0 -15 -15 -15h-31q-15 0 -15 15v315zM231 575q-5 -8 -16 -8h-29q-8 0 -11 4.5t2 11.5l80 123q6 9 17 9h35q9 0 11.5 -5t-2.5 -12z" />
    <glyph glyph-name="Rcommaaccent" unicode="&#x156;" horiz-adv-x="567" 
d="M149 272v-257q0 -15 -15 -15h-35q-15 0 -15 15v634q0 15 15 15h179q119 0 175.5 -47.5t56.5 -147.5q0 -163 -155 -191l164 -260q5 -8 2 -13t-12 -5h-44q-12 0 -18 10l-159 262h-139zM278 329q87 0 126.5 33.5t39.5 105.5t-39.5 105.5t-126.5 33.5h-129v-278h129zM296 -50
q17 0 29 -12.5t12 -33.5q0 -29 -13.5 -51.5t-38.5 -33.5q-8 -4 -13 5l-4 8q-5 10 4 14q16 9 20 27q-17 2 -27 12t-10 27t11.5 27.5t29.5 10.5z" />
    <glyph glyph-name="rcommaaccent" unicode="&#x157;" horiz-adv-x="363" 
d="M67 330q0 175 161 175q64 0 110 -32q12 -9 5 -21l-13 -20q-9 -13 -21 -4q-35 24 -76 24q-55 0 -80 -30t-25 -96v-311q0 -15 -15 -15h-31q-15 0 -15 15v315zM98 -50q17 0 29 -12.5t12 -33.5q0 -29 -13.5 -51.5t-38.5 -33.5q-8 -4 -13 5l-4 8q-5 10 4 14q16 9 20 27
q-17 2 -27 12t-10 27t11.5 27.5t29.5 10.5z" />
    <glyph glyph-name="Rcaron" unicode="&#x158;" horiz-adv-x="567" 
d="M149 272v-257q0 -15 -15 -15h-35q-15 0 -15 15v634q0 15 15 15h179q119 0 175.5 -47.5t56.5 -147.5q0 -163 -155 -191l164 -260q5 -8 2 -13t-12 -5h-44q-12 0 -18 10l-159 262h-139zM278 329q87 0 126.5 33.5t39.5 105.5t-39.5 105.5t-126.5 33.5h-129v-278h129zM309 741
q-6 -9 -17 -9h-31q-11 0 -17 9l-86 123q-5 7 -2.5 11.5t10.5 4.5h27q11 0 16 -8l67 -95l67 95q5 8 16 8h27q8 0 10.5 -4.5t-2.5 -11.5z" />
    <glyph glyph-name="rcaron" unicode="&#x159;" horiz-adv-x="363" 
d="M67 330q0 175 161 175q64 0 110 -32q12 -9 5 -21l-13 -20q-9 -13 -21 -4q-35 24 -76 24q-55 0 -80 -30t-25 -96v-311q0 -15 -15 -15h-31q-15 0 -15 15v315zM239 576q-6 -9 -17 -9h-31q-11 0 -17 9l-86 123q-5 7 -2.5 11.5t10.5 4.5h27q11 0 16 -8l67 -95l67 95q5 8 16 8
h27q8 0 10.5 -4.5t-2.5 -11.5z" />
    <glyph glyph-name="Sacute" unicode="&#x15a;" horiz-adv-x="507" 
d="M256 676q133 0 200 -85q8 -11 -3 -21l-24 -19q-11 -10 -21 3q-50 65 -149 65q-68 0 -107.5 -35t-39.5 -95q0 -27 8 -47.5t27.5 -36t51 -26.5t78.5 -18q56 -9 94.5 -24t62.5 -37.5t34.5 -53t10.5 -70.5q0 -42 -15 -77t-42.5 -59.5t-66 -38t-85.5 -13.5q-153 0 -230 100
q-8 10 3 21l21 19q12 11 22 -2q31 -41 76.5 -61t104.5 -20q68 0 107.5 35t39.5 95q0 27 -8 47t-27 35t-50.5 25.5t-77.5 18.5q-57 10 -96 25t-63 37.5t-34.5 53t-10.5 71.5q0 42 15 77t42.5 59.5t66 38t85.5 13.5zM280 740q-5 -8 -16 -8h-29q-8 0 -11 4.5t2 11.5l80 123
q6 9 17 9h35q9 0 11.5 -5t-2.5 -12z" />
    <glyph glyph-name="sacute" unicode="&#x15b;" horiz-adv-x="412" 
d="M383 133q0 -67 -44.5 -106t-121.5 -39q-59 0 -102 14.5t-76 46.5q-10 10 -1 21l16 20q10 12 22 0q49 -49 135 -49q54 0 82.5 23.5t28.5 68.5q0 39 -26.5 59t-96.5 31q-43 6 -73 17t-48.5 27.5t-26.5 39.5t-8 54q0 66 47 105t126 39q43 0 80 -11.5t63 -33.5q11 -10 3 -21
l-14 -19q-9 -12 -21 -3q-22 17 -49.5 26t-56.5 9q-57 0 -87 -23.5t-30 -68.5q0 -18 5.5 -31t19 -23t36 -17t56.5 -11q90 -12 126 -46t36 -99zM231 575q-5 -8 -16 -8h-29q-8 0 -11 4.5t2 11.5l80 123q6 9 17 9h35q9 0 11.5 -5t-2.5 -12z" />
    <glyph glyph-name="Scircumflex" unicode="&#x15c;" horiz-adv-x="507" 
d="M256 676q133 0 200 -85q8 -11 -3 -21l-24 -19q-11 -10 -21 3q-50 65 -149 65q-68 0 -107.5 -35t-39.5 -95q0 -27 8 -47.5t27.5 -36t51 -26.5t78.5 -18q56 -9 94.5 -24t62.5 -37.5t34.5 -53t10.5 -70.5q0 -42 -15 -77t-42.5 -59.5t-66 -38t-85.5 -13.5q-153 0 -230 100
q-8 10 3 21l21 19q12 11 22 -2q31 -41 76.5 -61t104.5 -20q68 0 107.5 35t39.5 95q0 27 -8 47t-27 35t-50.5 25.5t-77.5 18.5q-57 10 -96 25t-63 37.5t-34.5 53t-10.5 71.5q0 42 15 77t42.5 59.5t66 38t85.5 13.5zM188 740q-5 -8 -16 -8h-27q-8 0 -10.5 4.5t2.5 11.5l86 123
q6 9 17 9h31q11 0 17 -9l85 -123q5 -7 2.5 -11.5t-10.5 -4.5h-27q-11 0 -16 8l-67 95z" />
    <glyph glyph-name="scircumflex" unicode="&#x15d;" horiz-adv-x="412" 
d="M383 133q0 -67 -44.5 -106t-121.5 -39q-59 0 -102 14.5t-76 46.5q-10 10 -1 21l16 20q10 12 22 0q49 -49 135 -49q54 0 82.5 23.5t28.5 68.5q0 39 -26.5 59t-96.5 31q-43 6 -73 17t-48.5 27.5t-26.5 39.5t-8 54q0 66 47 105t126 39q43 0 80 -11.5t63 -33.5q11 -10 3 -21
l-14 -19q-9 -12 -21 -3q-22 17 -49.5 26t-56.5 9q-57 0 -87 -23.5t-30 -68.5q0 -18 5.5 -31t19 -23t36 -17t56.5 -11q90 -12 126 -46t36 -99zM139 575q-5 -8 -16 -8h-27q-8 0 -10.5 4.5t2.5 11.5l86 123q6 9 17 9h31q11 0 17 -9l85 -123q5 -7 2.5 -11.5t-10.5 -4.5h-27
q-11 0 -16 8l-67 95z" />
    <glyph glyph-name="Scedilla" unicode="&#x15e;" horiz-adv-x="507" 
d="M40 88q-8 10 3 21l21 19q12 11 22 -2q31 -41 76.5 -61t104.5 -20q68 0 107.5 35t39.5 95q0 27 -8 47t-27 35t-50.5 25.5t-77.5 18.5q-57 10 -96 25t-63 37.5t-34.5 53t-10.5 71.5q0 42 15 77t42.5 59.5t66 38t85.5 13.5q133 0 200 -85q8 -11 -3 -21l-24 -19
q-11 -10 -21 3q-50 65 -149 65q-68 0 -107.5 -35t-39.5 -95q0 -27 8 -47.5t27.5 -36t51 -26.5t78.5 -18q56 -9 94.5 -24t62.5 -37.5t34.5 -53t10.5 -70.5q0 -41 -14 -75t-40.5 -58.5t-63.5 -39t-82 -15.5l-8 -38q35 -2 53.5 -16.5t18.5 -40.5q0 -31 -22.5 -48t-64.5 -17
q-43 0 -75 19q-8 6 -4 16l8 16q6 10 16 4q11 -6 24 -10t27 -4q23 0 34 8t11 19q0 16 -14.5 21.5t-43.5 5.5q-13 0 -10 13l11 53q-130 9 -200 99z" />
    <glyph glyph-name="scedilla" unicode="&#x15f;" horiz-adv-x="412" 
d="M39 49q-10 10 -1 21l16 20q10 12 22 0q49 -49 135 -49q54 0 82.5 23.5t28.5 68.5q0 39 -26.5 59t-96.5 31q-43 6 -73 17t-48.5 27.5t-26.5 39.5t-8 54q0 66 47 105t126 39q43 0 80 -11.5t63 -33.5q11 -10 3 -21l-14 -19q-9 -12 -21 -3q-22 17 -49.5 26t-56.5 9
q-57 0 -87 -23.5t-30 -68.5q0 -18 5.5 -31t19 -23t36 -17t56.5 -11q90 -12 126 -46t36 -99q0 -66 -41.5 -104t-113.5 -41l-8 -38q35 -2 53.5 -16.5t18.5 -40.5q0 -31 -22.5 -48t-64.5 -17q-43 0 -75 19q-8 6 -4 16l8 16q6 10 16 4q11 -6 24 -10t27 -4q23 0 34 8t11 19
q0 16 -14.5 21.5t-43.5 5.5q-13 0 -10 13l11 53q-49 3 -85 18t-65 42z" />
    <glyph glyph-name="Scaron" unicode="&#x160;" horiz-adv-x="507" 
d="M256 676q133 0 200 -85q8 -11 -3 -21l-24 -19q-11 -10 -21 3q-50 65 -149 65q-68 0 -107.5 -35t-39.5 -95q0 -27 8 -47.5t27.5 -36t51 -26.5t78.5 -18q56 -9 94.5 -24t62.5 -37.5t34.5 -53t10.5 -70.5q0 -42 -15 -77t-42.5 -59.5t-66 -38t-85.5 -13.5q-153 0 -230 100
q-8 10 3 21l21 19q12 11 22 -2q31 -41 76.5 -61t104.5 -20q68 0 107.5 35t39.5 95q0 27 -8 47t-27 35t-50.5 25.5t-77.5 18.5q-57 10 -96 25t-63 37.5t-34.5 53t-10.5 71.5q0 42 15 77t42.5 59.5t66 38t85.5 13.5zM288 741q-6 -9 -17 -9h-31q-11 0 -17 9l-86 123
q-5 7 -2.5 11.5t10.5 4.5h27q11 0 16 -8l67 -95l67 95q5 8 16 8h27q8 0 10.5 -4.5t-2.5 -11.5z" />
    <glyph glyph-name="scaron" unicode="&#x161;" horiz-adv-x="412" 
d="M383 133q0 -67 -44.5 -106t-121.5 -39q-59 0 -102 14.5t-76 46.5q-10 10 -1 21l16 20q10 12 22 0q49 -49 135 -49q54 0 82.5 23.5t28.5 68.5q0 39 -26.5 59t-96.5 31q-43 6 -73 17t-48.5 27.5t-26.5 39.5t-8 54q0 66 47 105t126 39q43 0 80 -11.5t63 -33.5q11 -10 3 -21
l-14 -19q-9 -12 -21 -3q-22 17 -49.5 26t-56.5 9q-57 0 -87 -23.5t-30 -68.5q0 -18 5.5 -31t19 -23t36 -17t56.5 -11q90 -12 126 -46t36 -99zM239 576q-6 -9 -17 -9h-31q-11 0 -17 9l-86 123q-5 7 -2.5 11.5t10.5 4.5h27q11 0 16 -8l67 -95l67 95q5 8 16 8h27q8 0 10.5 -4.5
t-2.5 -11.5z" />
    <glyph glyph-name="Tcommaaccent" unicode="&#x162;" horiz-adv-x="484" 
d="M450 664q15 0 15 -15v-27q0 -15 -15 -15h-175v-592q0 -14 -13 -15l-11 -50q35 -2 53.5 -16.5t18.5 -40.5q0 -31 -22.5 -48t-64.5 -17q-43 0 -75 19q-8 6 -4 16l8 16q6 10 16 4q11 -6 24 -10t27 -4q23 0 34 8t11 19q0 16 -14.5 21.5t-43.5 5.5q-13 0 -10 13l14 64
q-13 1 -13 15v592h-176q-15 0 -15 15v27q0 15 15 15h416z" />
    <glyph glyph-name="tcommaaccent" unicode="&#x163;" horiz-adv-x="352" 
d="M334 30q5 -13 -6 -20q-18 -11 -41 -16.5t-49 -5.5h-10t-10 1l-8 -39q35 -2 53.5 -16.5t18.5 -40.5q0 -31 -22.5 -48t-64.5 -17q-43 0 -75 19q-8 6 -4 16l8 16q6 10 16 4q11 -6 24 -10t27 -4q23 0 34 8t11 19q0 16 -14.5 21.5t-43.5 5.5q-13 0 -10 13l13 60
q-87 27 -87 141v303h-60q-15 0 -15 15v23q0 15 15 15h60v119q0 15 15 15h31q15 0 15 -15v-119h151q15 0 15 -15v-23q0 -15 -15 -15h-151v-300q0 -99 89 -99q33 0 59 16q16 10 22 -5z" />
    <glyph glyph-name="Tcaron" unicode="&#x164;" horiz-adv-x="484" 
d="M275 15q0 -15 -15 -15h-35q-15 0 -15 15v592h-176q-15 0 -15 15v27q0 15 15 15h416q15 0 15 -15v-27q0 -15 -15 -15h-175v-592zM274 741q-6 -9 -17 -9h-31q-11 0 -17 9l-86 123q-5 7 -2.5 11.5t10.5 4.5h27q11 0 16 -8l67 -95l67 95q5 8 16 8h27q8 0 10.5 -4.5
t-2.5 -11.5z" />
    <glyph glyph-name="tcaron" unicode="&#x165;" horiz-adv-x="352" 
d="M334 30q5 -13 -6 -20q-18 -11 -41 -16.5t-49 -5.5q-71 0 -107.5 38t-36.5 111v303h-60q-15 0 -15 15v23q0 15 15 15h60v119q0 15 15 15h31q15 0 15 -15v-119h151q15 0 15 -15v-23q0 -15 -15 -15h-151v-300q0 -99 89 -99q33 0 59 16q16 10 22 -5zM304 557q-2 -12 -14 -12
h-19q-14 0 -12 14l18 162q1 13 15 13h27q15 0 12 -15z" />
    <glyph glyph-name="Tbar" unicode="&#x166;" horiz-adv-x="484" 
d="M450 664q15 0 15 -15v-27q0 -15 -15 -15h-175v-218h112q14 0 14 -14v-23q0 -14 -14 -14h-112v-323q0 -15 -15 -15h-35q-15 0 -15 15v323h-114q-14 0 -14 14v23q0 14 14 14h114v218h-176q-15 0 -15 15v27q0 15 15 15h416z" />
    <glyph glyph-name="tbar" unicode="&#x167;" horiz-adv-x="364" 
d="M340 30q5 -13 -6 -20q-18 -11 -41 -16.5t-49 -5.5q-71 0 -107.5 38t-36.5 111v115h-51q-14 0 -14 14v23q0 14 14 14h51v137h-60q-15 0 -15 15v23q0 15 15 15h60v119q0 15 15 15h31q15 0 15 -15v-119h151q15 0 15 -15v-23q0 -15 -15 -15h-151v-137h133q14 0 14 -14v-23
q0 -14 -14 -14h-133v-112q0 -99 89 -99q33 0 59 16q16 10 22 -5z" />
    <glyph glyph-name="Utilde" unicode="&#x168;" horiz-adv-x="588" 
d="M516 220q0 -115 -56.5 -173.5t-165.5 -58.5t-165.5 58.5t-56.5 173.5v429q0 15 15 15h35q15 0 15 -15v-420q0 -94 38.5 -139t119.5 -45t119.5 45t38.5 139v420q0 15 15 15h33q15 0 15 -15v-429zM168 746q-15 0 -13 14q7 44 28.5 67.5t56.5 23.5q17 0 32.5 -7.5
t35.5 -25.5q14 -13 23 -18t19 -5q30 0 39 43q3 12 14 12h17q15 0 13 -14q-7 -44 -28.5 -67.5t-56.5 -23.5q-17 0 -32.5 7.5t-35.5 25.5q-14 13 -23 18t-19 5q-30 0 -39 -43q-3 -12 -14 -12h-17z" />
    <glyph glyph-name="utilde" unicode="&#x169;" horiz-adv-x="488" 
d="M421 168q0 -88 -44.5 -134t-132.5 -46q-87 0 -132 46t-45 134v310q0 15 15 15h31q15 0 15 -15v-301q0 -71 28.5 -103.5t88.5 -32.5t88.5 32.5t28.5 103.5v301q0 15 15 15h29q15 0 15 -15v-310zM118 581q-15 0 -13 14q7 44 28.5 67.5t56.5 23.5q17 0 32.5 -7.5t35.5 -25.5
q14 -13 23 -18t19 -5q30 0 39 43q3 12 14 12h17q15 0 13 -14q-7 -44 -28.5 -67.5t-56.5 -23.5q-17 0 -32.5 7.5t-35.5 25.5q-14 13 -23 18t-19 5q-30 0 -39 -43q-3 -12 -14 -12h-17z" />
    <glyph glyph-name="Umacron" unicode="&#x16a;" horiz-adv-x="588" 
d="M516 220q0 -115 -56.5 -173.5t-165.5 -58.5t-165.5 58.5t-56.5 173.5v429q0 15 15 15h35q15 0 15 -15v-420q0 -94 38.5 -139t119.5 -45t119.5 45t38.5 139v420q0 15 15 15h33q15 0 15 -15v-429zM421 784q0 -14 -14 -14h-227q-14 0 -14 14v22q0 14 14 14h227q14 0 14 -14
v-22z" />
    <glyph glyph-name="umacron" unicode="&#x16b;" horiz-adv-x="488" 
d="M421 168q0 -88 -44.5 -134t-132.5 -46q-87 0 -132 46t-45 134v310q0 15 15 15h31q15 0 15 -15v-301q0 -71 28.5 -103.5t88.5 -32.5t88.5 32.5t28.5 103.5v301q0 15 15 15h29q15 0 15 -15v-310zM371 619q0 -14 -14 -14h-227q-14 0 -14 14v22q0 14 14 14h227q14 0 14 -14
v-22z" />
    <glyph glyph-name="Ubreve" unicode="&#x16c;" horiz-adv-x="588" 
d="M516 220q0 -115 -56.5 -173.5t-165.5 -58.5t-165.5 58.5t-56.5 173.5v429q0 15 15 15h35q15 0 15 -15v-420q0 -94 38.5 -139t119.5 -45t119.5 45t38.5 139v420q0 15 15 15h33q15 0 15 -15v-429zM405 859q14 0 12 -14q-8 -47 -40 -72.5t-83 -25.5t-83 25.5t-40 72.5
q-2 14 12 14h19q11 0 14 -12q7 -25 27.5 -38.5t50.5 -13.5t50.5 13.5t27.5 38.5q3 12 14 12h19z" />
    <glyph glyph-name="ubreve" unicode="&#x16d;" horiz-adv-x="488" 
d="M421 168q0 -88 -44.5 -134t-132.5 -46q-87 0 -132 46t-45 134v310q0 15 15 15h31q15 0 15 -15v-301q0 -71 28.5 -103.5t88.5 -32.5t88.5 32.5t28.5 103.5v301q0 15 15 15h29q15 0 15 -15v-310zM355 694q14 0 12 -14q-8 -47 -40 -72.5t-83 -25.5t-83 25.5t-40 72.5
q-2 14 12 14h19q11 0 14 -12q7 -25 27.5 -38.5t50.5 -13.5t50.5 13.5t27.5 38.5q3 12 14 12h19z" />
    <glyph glyph-name="Uring" unicode="&#x16e;" horiz-adv-x="588" 
d="M516 220q0 -115 -56.5 -173.5t-165.5 -58.5t-165.5 58.5t-56.5 173.5v429q0 15 15 15h35q15 0 15 -15v-420q0 -94 38.5 -139t119.5 -45t119.5 45t38.5 139v420q0 15 15 15h33q15 0 15 -15v-429zM294 727q-34 0 -56.5 22.5t-22.5 56.5t22.5 56.5t56.5 22.5t56.5 -22.5
t22.5 -56.5t-22.5 -56.5t-56.5 -22.5zM294 770q15 0 25 10.5t10 25.5t-10 25.5t-25 10.5t-25 -10.5t-10 -25.5t10 -25.5t25 -10.5z" />
    <glyph glyph-name="uring" unicode="&#x16f;" horiz-adv-x="488" 
d="M421 168q0 -88 -44.5 -134t-132.5 -46q-87 0 -132 46t-45 134v310q0 15 15 15h31q15 0 15 -15v-301q0 -71 28.5 -103.5t88.5 -32.5t88.5 32.5t28.5 103.5v301q0 15 15 15h29q15 0 15 -15v-310zM244 562q-34 0 -56.5 22.5t-22.5 56.5t22.5 56.5t56.5 22.5t56.5 -22.5
t22.5 -56.5t-22.5 -56.5t-56.5 -22.5zM244 605q15 0 25 10.5t10 25.5t-10 25.5t-25 10.5t-25 -10.5t-10 -25.5t10 -25.5t25 -10.5z" />
    <glyph glyph-name="Uhungarumlaut" unicode="&#x170;" horiz-adv-x="588" 
d="M516 220q0 -115 -56.5 -173.5t-165.5 -58.5t-165.5 58.5t-56.5 173.5v429q0 15 15 15h35q15 0 15 -15v-420q0 -94 38.5 -139t119.5 -45t119.5 45t38.5 139v420q0 15 15 15h33q15 0 15 -15v-429zM245 740q-6 -8 -16 -8h-23q-8 0 -10.5 4.5t1.5 11.5l72 122q6 10 17 10h30
q19 0 9 -17zM388 740q-6 -8 -16 -8h-24q-8 0 -10.5 4.5t1.5 11.5l72 122q6 10 17 10h30q19 0 9 -17z" />
    <glyph glyph-name="uhungarumlaut" unicode="&#x171;" horiz-adv-x="488" 
d="M421 168q0 -88 -44.5 -134t-132.5 -46q-87 0 -132 46t-45 134v310q0 15 15 15h31q15 0 15 -15v-301q0 -71 28.5 -103.5t88.5 -32.5t88.5 32.5t28.5 103.5v301q0 15 15 15h29q15 0 15 -15v-310zM195 575q-6 -8 -16 -8h-23q-8 0 -10.5 4.5t1.5 11.5l72 122q6 10 17 10h30
q19 0 9 -17zM338 575q-6 -8 -16 -8h-24q-8 0 -10.5 4.5t1.5 11.5l72 122q6 10 17 10h30q19 0 9 -17z" />
    <glyph glyph-name="Uogonek" unicode="&#x172;" horiz-adv-x="588" 
d="M501 664q15 0 15 -15v-429q0 -80 -27 -131.5t-80 -78.5q-40 -20 -57 -46t-17 -52q0 -17 11 -29t33 -12t39 17q9 9 18 -1l10 -12q7 -11 -1 -19q-14 -13 -30 -20.5t-40 -7.5q-41 0 -63.5 21t-22.5 56q0 22 8 43t27 40v1q-8 -1 -15 -1h-15q-109 0 -165.5 58.5t-56.5 173.5
v429q0 15 15 15h35q15 0 15 -15v-420q0 -94 38.5 -139t119.5 -45t119.5 45t38.5 139v420q0 15 15 15h33z" />
    <glyph glyph-name="uogonek" unicode="&#x173;" horiz-adv-x="488" 
d="M421 168q0 -114 -77 -158q-39 -22 -55.5 -47t-16.5 -51q0 -17 11 -29t33 -12t39 17q9 9 18 -1l10 -12q7 -11 -1 -19q-14 -13 -30 -20.5t-40 -7.5q-41 0 -63.5 21t-22.5 56q0 45 34 82v1h-16q-87 0 -132 46t-45 134v310q0 15 15 15h31q15 0 15 -15v-301q0 -71 28.5 -103.5
t88.5 -32.5t88.5 32.5t28.5 103.5v301q0 15 15 15h29q15 0 15 -15v-310z" />
    <glyph glyph-name="Wcircumflex" unicode="&#x174;" horiz-adv-x="850" 
d="M646 15q-3 -15 -18 -15h-44q-15 0 -18 15l-140 518h-1l-141 -518q-3 -15 -18 -15h-45q-15 0 -18 15l-172 632q-5 17 12 17h40q13 0 16 -13l145 -548h1l148 547q3 14 18 14h30q15 0 18 -14l148 -547h1l145 548q3 13 16 13h38q17 0 12 -17zM357 740q-5 -8 -16 -8h-27
q-8 0 -10.5 4.5t2.5 11.5l86 123q6 9 17 9h31q11 0 17 -9l85 -123q5 -7 2.5 -11.5t-10.5 -4.5h-27q-11 0 -16 8l-67 95z" />
    <glyph glyph-name="wcircumflex" unicode="&#x175;" horiz-adv-x="683" 
d="M519 15q-4 -15 -18 -15h-34q-14 0 -18 15l-107 362h-1l-108 -362q-4 -15 -18 -15h-34q-14 0 -18 15l-140 461q-5 17 13 17h35q13 0 17 -13l110 -384h1l113 382q4 15 18 15h25q14 0 18 -15l112 -378h1l111 380q4 13 17 13h33q18 0 13 -17zM274 575q-5 -8 -16 -8h-27
q-8 0 -10.5 4.5t2.5 11.5l86 123q6 9 17 9h31q11 0 17 -9l85 -123q5 -7 2.5 -11.5t-10.5 -4.5h-27q-11 0 -16 8l-67 95z" />
    <glyph glyph-name="Ycircumflex" unicode="&#x176;" horiz-adv-x="519" 
d="M292 15q0 -15 -15 -15h-35q-15 0 -15 15v278l-214 353q-5 8 -2 13t12 5h43q12 0 18 -10l177 -299l177 299q6 10 18 10h40q9 0 12 -5t-2 -13l-214 -353v-278zM191 740q-5 -8 -16 -8h-27q-8 0 -10.5 4.5t2.5 11.5l86 123q6 9 17 9h31q11 0 17 -9l85 -123q5 -7 2.5 -11.5
t-10.5 -4.5h-27q-11 0 -16 8l-67 95z" />
    <glyph glyph-name="ycircumflex" unicode="&#x177;" horiz-adv-x="500" 
d="M427 1q0 -81 -48.5 -127t-133.5 -46q-98 0 -161 57q-10 10 -2 21l15 20q10 13 21 2q51 -47 124 -47q60 0 92 33t32 95v54h-1q-37 -61 -128 -61q-84 0 -127 46.5t-43 136.5v293q0 15 15 15h31q15 0 15 -15v-283q0 -72 29 -106t90 -34q119 0 119 140v283q0 15 15 15h31
q15 0 15 -15v-477zM179 575q-5 -8 -16 -8h-27q-8 0 -10.5 4.5t2.5 11.5l86 123q6 9 17 9h31q11 0 17 -9l85 -123q5 -7 2.5 -11.5t-10.5 -4.5h-27q-11 0 -16 8l-67 95z" />
    <glyph glyph-name="Ydieresis" unicode="&#x178;" horiz-adv-x="519" 
d="M292 15q0 -15 -15 -15h-35q-15 0 -15 15v278l-214 353q-5 8 -2 13t12 5h43q12 0 18 -10l177 -299l177 299q6 10 18 10h40q9 0 12 -5t-2 -13l-214 -353v-278zM179 760q-18 0 -29 11.5t-11 28.5t11 28.5t29 11.5q17 0 28.5 -11.5t11.5 -28.5t-11.5 -28.5t-28.5 -11.5z
M339 760q-17 0 -28.5 11.5t-11.5 28.5t11.5 28.5t28.5 11.5q18 0 29 -11.5t11 -28.5t-11 -28.5t-29 -11.5z" />
    <glyph glyph-name="Zacute" unicode="&#x179;" horiz-adv-x="518" 
d="M478 15q0 -15 -15 -15h-408q-15 0 -15 15v35q0 9 6 18l352 539h-328q-15 0 -15 15v27q0 15 15 15h388q15 0 15 -15v-35q0 -9 -6 -18l-354 -539h350q15 0 15 -15v-27zM286 740q-5 -8 -16 -8h-29q-8 0 -11 4.5t2 11.5l80 123q6 9 17 9h35q9 0 11.5 -5t-2.5 -12z" />
    <glyph glyph-name="zacute" unicode="&#x17a;" horiz-adv-x="422" 
d="M385 15q0 -15 -15 -15h-318q-15 0 -15 15v31q0 9 6 18l264 376h-240q-15 0 -15 15v23q0 15 15 15h298q15 0 15 -15v-31q0 -9 -6 -18l-265 -376h261q15 0 15 -15v-23zM238 575q-5 -8 -16 -8h-29q-8 0 -11 4.5t2 11.5l80 123q6 9 17 9h35q9 0 11.5 -5t-2.5 -12z" />
    <glyph glyph-name="Zdotaccent" unicode="&#x17b;" horiz-adv-x="518" 
d="M478 15q0 -15 -15 -15h-408q-15 0 -15 15v35q0 9 6 18l352 539h-328q-15 0 -15 15v27q0 15 15 15h388q15 0 15 -15v-35q0 -9 -6 -18l-354 -539h350q15 0 15 -15v-27zM262 758q-18 0 -30 12t-12 30t12 30t30 12t30 -12t12 -30t-12 -30t-30 -12z" />
    <glyph glyph-name="zdotaccent" unicode="&#x17c;" horiz-adv-x="422" 
d="M385 15q0 -15 -15 -15h-318q-15 0 -15 15v31q0 9 6 18l264 376h-240q-15 0 -15 15v23q0 15 15 15h298q15 0 15 -15v-31q0 -9 -6 -18l-265 -376h261q15 0 15 -15v-23zM214 593q-18 0 -30 12t-12 30t12 30t30 12t30 -12t12 -30t-12 -30t-30 -12z" />
    <glyph glyph-name="Zcaron" unicode="&#x17d;" horiz-adv-x="518" 
d="M478 15q0 -15 -15 -15h-408q-15 0 -15 15v35q0 9 6 18l352 539h-328q-15 0 -15 15v27q0 15 15 15h388q15 0 15 -15v-35q0 -9 -6 -18l-354 -539h350q15 0 15 -15v-27zM294 741q-6 -9 -17 -9h-31q-11 0 -17 9l-86 123q-5 7 -2.5 11.5t10.5 4.5h27q11 0 16 -8l67 -95l67 95
q5 8 16 8h27q8 0 10.5 -4.5t-2.5 -11.5z" />
    <glyph glyph-name="zcaron" unicode="&#x17e;" horiz-adv-x="422" 
d="M385 15q0 -15 -15 -15h-318q-15 0 -15 15v31q0 9 6 18l264 376h-240q-15 0 -15 15v23q0 15 15 15h298q15 0 15 -15v-31q0 -9 -6 -18l-265 -376h261q15 0 15 -15v-23zM246 576q-6 -9 -17 -9h-31q-11 0 -17 9l-86 123q-5 7 -2.5 11.5t10.5 4.5h27q11 0 16 -8l67 -95l67 95
q5 8 16 8h27q8 0 10.5 -4.5t-2.5 -11.5z" />
    <glyph glyph-name="florin" unicode="&#x192;" horiz-adv-x="529" 
d="M388 583q-93 0 -109 -116l-8 -60h163q15 0 15 -15v-23q0 -15 -15 -15h-171l-57 -410q-2 -14 -16 -14h-31q-16 0 -14 16l58 408h-109q-15 0 -15 15v23q0 15 15 15h117l9 63q24 166 164 166q57 0 99 -23q13 -6 5 -20l-10 -20q-6 -14 -18 -7q-16 8 -33 12.5t-39 4.5z" />
    <glyph glyph-name="AEacute" unicode="&#x1fc;" horiz-adv-x="880" 
d="M776 364q15 0 15 -15v-27q0 -15 -15 -15h-285v-250h329q15 0 15 -15v-27q0 -15 -15 -15h-379q-15 0 -15 15v129h-264l-79 -134q-6 -10 -18 -10h-40q-9 0 -12 5t2 13l381 636q6 10 18 10h406q15 0 15 -15v-27q0 -15 -15 -15h-329v-243h285zM195 201h231v392h-1zM471 740
q-5 -8 -16 -8h-29q-8 0 -11 4.5t2 11.5l80 123q6 9 17 9h35q9 0 11.5 -5t-2.5 -12z" />
    <glyph glyph-name="aeacute" unicode="&#x1fd;" horiz-adv-x="741" 
d="M526 505q85 0 129.5 -48t44.5 -139v-71q0 -15 -15 -15h-285v-44q0 -78 33 -112.5t104 -34.5q32 0 58 12.5t51 38.5q10 11 21 0l17 -19q9 -11 0 -22q-60 -63 -147 -63q-127 0 -166 94h-1q-35 -94 -161 -94q-79 0 -123.5 39.5t-44.5 109.5t45.5 108t130.5 38h122v22
q0 77 -31 112t-96 35q-32 0 -60.5 -13t-49.5 -34q-11 -11 -20 1l-17 22q-9 11 1 21q64 56 148 56q118 0 156 -92h1q33 92 155 92zM642 309q0 74 -29 108.5t-92 34.5t-92 -34.5t-29 -108.5v-26h242v26zM215 41q64 0 94 34.5t30 109.5v47h-115q-58 0 -90 -23.5t-32 -71.5
t29.5 -72t83.5 -24zM394 575q-5 -8 -16 -8h-29q-8 0 -11 4.5t2 11.5l80 123q6 9 17 9h35q9 0 11.5 -5t-2.5 -12z" />
    <glyph glyph-name="Oslashacute" unicode="&#x1fe;" horiz-adv-x="585" 
d="M490 585q36 -57 36 -149v-208q0 -118 -59.5 -179t-174.5 -61q-101 0 -159 48l-24 -37q-7 -12 -20 -4l-22 15q-10 7 -4 20l32 49q-36 57 -36 149v208q0 118 59 179t174 61q101 0 160 -48l24 37q7 12 20 4l22 -15q11 -8 3 -20zM124 239q0 -55 13 -94h1l279 429
q-42 45 -125 45q-168 0 -168 -194v-186zM461 425q0 56 -13 95h-1l-279 -430q42 -45 124 -45q169 0 169 194v186zM316 740q-5 -8 -16 -8h-29q-8 0 -11 4.5t2 11.5l80 123q6 9 17 9h35q9 0 11.5 -5t-2.5 -12z" />
    <glyph glyph-name="oslashacute" unicode="&#x1ff;" horiz-adv-x="473" 
d="M393 432q27 -44 27 -114v-143q0 -92 -46.5 -139.5t-136.5 -47.5q-76 0 -122 35l-16 -24q-7 -12 -20 -4l-18 14q-11 8 -3 19l22 33q-27 43 -27 114v143q0 92 46.5 139.5t137.5 47.5q75 0 121 -34l16 23q7 12 20 4l18 -14q11 -8 3 -19zM114 185q0 -38 7 -63h1l203 300
q-30 30 -88 30q-64 0 -93.5 -34.5t-29.5 -108.5v-124zM359 309q0 37 -7 62h-1l-203 -300q30 -30 89 -30q63 0 92.5 34.5t29.5 109.5v124zM261 575q-5 -8 -16 -8h-29q-8 0 -11 4.5t2 11.5l80 123q6 9 17 9h35q9 0 11.5 -5t-2.5 -12z" />
    <glyph glyph-name="Scommaaccent" unicode="&#x218;" horiz-adv-x="507" 
d="M256 676q133 0 200 -85q8 -11 -3 -21l-24 -19q-11 -10 -21 3q-50 65 -149 65q-68 0 -107.5 -35t-39.5 -95q0 -27 8 -47.5t27.5 -36t51 -26.5t78.5 -18q56 -9 94.5 -24t62.5 -37.5t34.5 -53t10.5 -70.5q0 -42 -15 -77t-42.5 -59.5t-66 -38t-85.5 -13.5q-153 0 -230 100
q-8 10 3 21l21 19q12 11 22 -2q31 -41 76.5 -61t104.5 -20q68 0 107.5 35t39.5 95q0 27 -8 47t-27 35t-50.5 25.5t-77.5 18.5q-57 10 -96 25t-63 37.5t-34.5 53t-10.5 71.5q0 42 15 77t42.5 59.5t66 38t85.5 13.5zM262 -50q17 0 29 -12.5t12 -33.5q0 -29 -13.5 -51.5
t-38.5 -33.5q-8 -4 -13 5l-4 8q-5 10 4 14q16 9 20 27q-17 2 -27 12t-10 27t11.5 27.5t29.5 10.5z" />
    <glyph glyph-name="scommaaccent" unicode="&#x219;" horiz-adv-x="412" 
d="M383 133q0 -67 -44.5 -106t-121.5 -39q-59 0 -102 14.5t-76 46.5q-10 10 -1 21l16 20q10 12 22 0q49 -49 135 -49q54 0 82.5 23.5t28.5 68.5q0 39 -26.5 59t-96.5 31q-43 6 -73 17t-48.5 27.5t-26.5 39.5t-8 54q0 66 47 105t126 39q43 0 80 -11.5t63 -33.5q11 -10 3 -21
l-14 -19q-9 -12 -21 -3q-22 17 -49.5 26t-56.5 9q-57 0 -87 -23.5t-30 -68.5q0 -18 5.5 -31t19 -23t36 -17t56.5 -11q90 -12 126 -46t36 -99zM211 -50q17 0 29 -12.5t12 -33.5q0 -29 -13.5 -51.5t-38.5 -33.5q-8 -4 -13 5l-4 8q-5 10 4 14q16 9 20 27q-17 2 -27 12t-10 27
t11.5 27.5t29.5 10.5z" />
    <glyph glyph-name="uni021A" unicode="&#x21a;" horiz-adv-x="484" 
d="M275 15q0 -15 -15 -15h-35q-15 0 -15 15v592h-176q-15 0 -15 15v27q0 15 15 15h416q15 0 15 -15v-27q0 -15 -15 -15h-175v-592zM242 -50q17 0 29 -12.5t12 -33.5q0 -29 -13.5 -51.5t-38.5 -33.5q-8 -4 -13 5l-4 8q-5 10 4 14q16 9 20 27q-17 2 -27 12t-10 27t11.5 27.5
t29.5 10.5z" />
    <glyph glyph-name="uni021B" unicode="&#x21b;" horiz-adv-x="352" 
d="M334 30q5 -13 -6 -20q-18 -11 -41 -16.5t-49 -5.5q-71 0 -107.5 38t-36.5 111v303h-60q-15 0 -15 15v23q0 15 15 15h60v119q0 15 15 15h31q15 0 15 -15v-119h151q15 0 15 -15v-23q0 -15 -15 -15h-151v-300q0 -99 89 -99q33 0 59 16q16 10 22 -5zM201 -50q17 0 29 -12.5
t12 -33.5q0 -29 -13.5 -51.5t-38.5 -33.5q-8 -4 -13 5l-4 8q-5 10 4 14q16 9 20 27q-17 2 -27 12t-10 27t11.5 27.5t29.5 10.5z" />
    <glyph glyph-name="uni0237" unicode="&#x237;" horiz-adv-x="207" 
d="M-5 -107q78 0 78 85v500q0 15 15 15h31q15 0 15 -15v-500q0 -68 -32.5 -103t-97.5 -35h-9q-15 0 -15 15v23q0 15 15 15z" />
    <glyph glyph-name="circumflex" unicode="&#x2c6;" horiz-adv-x="500" 
d="M183 575q-5 -8 -16 -8h-27q-8 0 -10.5 4.5t2.5 11.5l86 123q6 9 17 9h31q11 0 17 -9l85 -123q5 -7 2.5 -11.5t-10.5 -4.5h-27q-11 0 -16 8l-67 95z" />
    <glyph glyph-name="caron" unicode="&#x2c7;" horiz-adv-x="500" 
d="M283 576q-6 -9 -17 -9h-31q-11 0 -17 9l-86 123q-5 7 -2.5 11.5t10.5 4.5h27q11 0 16 -8l67 -95l67 95q5 8 16 8h27q8 0 10.5 -4.5t-2.5 -11.5z" />
    <glyph glyph-name="breve" unicode="&#x2d8;" horiz-adv-x="500" 
d="M361 694q14 0 12 -14q-8 -47 -40 -72.5t-83 -25.5t-83 25.5t-40 72.5q-2 14 12 14h19q11 0 14 -12q7 -25 27.5 -38.5t50.5 -13.5t50.5 13.5t27.5 38.5q3 12 14 12h19z" />
    <glyph glyph-name="dotaccent" unicode="&#x2d9;" horiz-adv-x="500" 
d="M250 593q-18 0 -30 12t-12 30t12 30t30 12t30 -12t12 -30t-12 -30t-30 -12z" />
    <glyph glyph-name="ring" unicode="&#x2da;" horiz-adv-x="500" 
d="M250 562q-34 0 -56.5 22.5t-22.5 56.5t22.5 56.5t56.5 22.5t56.5 -22.5t22.5 -56.5t-22.5 -56.5t-56.5 -22.5zM250 605q15 0 25 10.5t10 25.5t-10 25.5t-25 10.5t-25 -10.5t-10 -25.5t10 -25.5t25 -10.5z" />
    <glyph glyph-name="ogonek" unicode="&#x2db;" horiz-adv-x="500" 
d="M341 -125q8 -10 -1 -19q-14 -13 -30 -20.5t-40 -7.5q-41 0 -63.5 21t-22.5 56q0 34 20.5 66t71.5 60l26 -21q-39 -23 -55.5 -47.5t-16.5 -50.5q0 -17 11 -29t33 -12t39 17q9 9 18 -1z" />
    <glyph glyph-name="tilde" unicode="&#x2dc;" horiz-adv-x="500" 
d="M124 581q-15 0 -13 14q7 44 28.5 67.5t56.5 23.5q17 0 32.5 -7.5t35.5 -25.5q14 -13 23 -18t19 -5q30 0 39 43q3 12 14 12h17q15 0 13 -14q-7 -44 -28.5 -67.5t-56.5 -23.5q-17 0 -32.5 7.5t-35.5 25.5q-14 13 -23 18t-19 5q-30 0 -39 -43q-3 -12 -14 -12h-17z" />
    <glyph glyph-name="hungarumlaut" unicode="&#x2dd;" horiz-adv-x="500" 
d="M201 575q-6 -8 -16 -8h-23q-8 0 -10.5 4.5t1.5 11.5l72 122q6 10 17 10h30q19 0 9 -17zM344 575q-6 -8 -16 -8h-24q-8 0 -10.5 4.5t1.5 11.5l72 122q6 10 17 10h30q19 0 9 -17z" />
    <glyph glyph-name="Delta" unicode="&#x394;" horiz-adv-x="581" 
d="M42 0q-19 0 -12 17l222 634q5 13 18 13h41q13 0 18 -13l222 -634q7 -17 -12 -17h-497zM110 57h359l-179 527h-1z" />
    <glyph glyph-name="Omega" unicode="&#x3a9;" horiz-adv-x="585" 
d="M526 267q0 -76 -28 -128.5t-82 -78.5v-1h95q15 0 15 -15v-29q0 -15 -15 -15h-155q-15 0 -15 15v34q0 12 12 18q108 45 108 197v161q0 194 -169 194q-168 0 -168 -194v-161q0 -152 108 -197q12 -6 12 -18v-34q0 -15 -15 -15h-155q-15 0 -15 15v29q0 15 15 15h95v1
q-54 26 -82 78.5t-28 128.5v169q0 118 59 179t174 61t174.5 -61t59.5 -179v-169z" />
    <glyph glyph-name="mu" unicode="&#x3bc;" horiz-adv-x="500" 
d="M433 171q0 -90 -43 -136.5t-127 -46.5q-91 0 -128 61h-1v-194q0 -15 -15 -15h-31q-15 0 -15 15v623q0 15 15 15h31q15 0 15 -15v-297q0 -140 119 -140q61 0 90 34t29 106v297q0 15 15 15h31q15 0 15 -15v-307z" />
    <glyph glyph-name="pi" unicode="&#x3c0;" horiz-adv-x="520" 
d="M155 440v-425q0 -15 -15 -15h-31q-15 0 -15 15v425h-60q-15 0 -15 15v23q0 15 15 15h452q15 0 15 -15v-23q0 -15 -15 -15h-60v-425q0 -15 -15 -15h-31q-15 0 -15 15v425h-210z" />
    <glyph glyph-name="uni1E02" unicode="&#x1e02;" horiz-adv-x="563" 
d="M397 339q64 -15 94 -54.5t30 -108.5q0 -91 -53.5 -133.5t-168.5 -42.5h-200q-15 0 -15 15v634q0 15 15 15h182q115 0 168.5 -41t53.5 -130q0 -121 -106 -153v-1zM281 366q82 0 119.5 28.5t37.5 91.5t-37.5 92t-119.5 29h-132v-241h132zM298 57q82 0 120 30t38 96t-38 96
t-120 30h-149v-252h149zM275 758q-18 0 -30 12t-12 30t12 30t30 12t30 -12t12 -30t-12 -30t-30 -12z" />
    <glyph glyph-name="uni1E03" unicode="&#x1e03;" horiz-adv-x="487" 
d="M259 505q86 0 130.5 -47.5t44.5 -139.5v-142q0 -92 -46.5 -140t-136.5 -48q-91 0 -137.5 48t-46.5 140v509q0 15 15 15h31q15 0 15 -15v-243h1q39 63 130 63zM373 309q0 74 -29.5 108.5t-92.5 34.5q-123 0 -123 -143v-124q0 -75 30 -109.5t93 -34.5t92.5 34.5t29.5 109.5
v124zM98 789q-18 0 -30 12t-12 30t12 30t30 12t30 -12t12 -30t-12 -30t-30 -12z" />
    <glyph glyph-name="uni1E0A" unicode="&#x1e0a;" horiz-adv-x="590" 
d="M298 664q233 0 233 -227v-210q0 -227 -233 -227h-199q-15 0 -15 15v634q0 15 15 15h199zM466 426q0 93 -41.5 137t-129.5 44h-146v-550h146q88 0 129.5 44t41.5 137v188zM281 758q-18 0 -30 12t-12 30t12 30t30 12t30 -12t12 -30t-12 -30t-30 -12z" />
    <glyph glyph-name="uni1E0B" unicode="&#x1e0b;" horiz-adv-x="487" 
d="M420 176q0 -92 -46.5 -140t-136.5 -48q-91 0 -137.5 48t-46.5 140v142q0 92 44.5 139.5t130.5 47.5q91 0 130 -61h1v241q0 15 15 15h31q15 0 15 -15v-509zM359 309q0 143 -122 143q-64 0 -93.5 -34.5t-29.5 -108.5v-124q0 -75 29.5 -109.5t93.5 -34.5q63 0 92.5 34.5
t29.5 109.5v124zM390 789q-18 0 -30 12t-12 30t12 30t30 12t30 -12t12 -30t-12 -30t-30 -12z" />
    <glyph glyph-name="uni1E1E" unicode="&#x1e1e;" horiz-adv-x="502" 
d="M423 360q15 0 15 -15v-27q0 -15 -15 -15h-274v-288q0 -15 -15 -15h-35q-15 0 -15 15v634q0 15 15 15h368q15 0 15 -15v-27q0 -15 -15 -15h-318v-247h274zM271 758q-18 0 -30 12t-12 30t12 30t30 12t30 -12t12 -30t-12 -30t-30 -12z" />
    <glyph glyph-name="uni1E1F" unicode="&#x1e1f;" horiz-adv-x="323" 
d="M251 659q-96 0 -96 -116v-50h151q15 0 15 -15v-23q0 -15 -15 -15h-151v-425q0 -15 -15 -15h-31q-15 0 -15 15v425h-60q-15 0 -15 15v23q0 15 15 15h60v53q0 81 39 123.5t114 42.5q56 0 98 -23q12 -6 6 -20l-10 -21q-7 -15 -20 -7q-15 8 -32 13t-38 5zM204 789
q-18 0 -30 12t-12 30t12 30t30 12t30 -12t12 -30t-12 -30t-30 -12z" />
    <glyph glyph-name="uni1E40" unicode="&#x1e40;" horiz-adv-x="814" 
d="M730 15q0 -15 -15 -15h-35q-15 0 -15 15v558h-1l-223 -561q-5 -12 -18 -12h-33q-14 0 -18 12l-224 564h-1v-561q0 -15 -15 -15h-33q-15 0 -15 15v634q0 15 15 15h68q13 0 18 -12l222 -558l221 558q4 12 18 12h69q15 0 15 -15v-634zM407 758q-18 0 -30 12t-12 30t12 30
t30 12t30 -12t12 -30t-12 -30t-30 -12z" />
    <glyph glyph-name="uni1E41" unicode="&#x1e41;" horiz-adv-x="758" 
d="M522 505q84 0 126.5 -46t42.5 -136v-308q0 -15 -15 -15h-31q-15 0 -15 15v299q0 72 -27 105t-84 33t-83 -33t-26 -105v-299q0 -15 -15 -15h-31q-15 0 -15 15v299q0 72 -27 105t-85 33q-57 0 -83 -33t-26 -105v-299q0 -15 -15 -15h-31q-15 0 -15 15v308q0 90 42.5 136
t124.5 46q106 0 145 -75h1q36 75 142 75zM379 593q-18 0 -30 12t-12 30t12 30t30 12t30 -12t12 -30t-12 -30t-30 -12z" />
    <glyph glyph-name="uni1E56" unicode="&#x1e56;" horiz-adv-x="541" 
d="M284 664q119 0 175 -47.5t56 -150.5t-56 -150.5t-175 -47.5h-135v-253q0 -15 -15 -15h-35q-15 0 -15 15v634q0 15 15 15h185zM283 325q87 0 126.5 33.5t39.5 107.5q0 73 -39.5 107t-126.5 34h-134v-282h134zM279 758q-18 0 -30 12t-12 30t12 30t30 12t30 -12t12 -30
t-12 -30t-30 -12z" />
    <glyph glyph-name="uni1E57" unicode="&#x1e57;" horiz-adv-x="487" 
d="M251 505q90 0 136.5 -47.5t46.5 -139.5v-143q0 -92 -44.5 -139.5t-130.5 -47.5q-91 0 -130 63h-1v-196q0 -15 -15 -15h-31q-15 0 -15 15v463q0 92 46.5 139.5t137.5 47.5zM373 309q0 74 -29.5 108.5t-92.5 34.5t-93 -34.5t-30 -108.5v-124q0 -144 123 -144q63 0 92.5 35
t29.5 109v124zM251 593q-18 0 -30 12t-12 30t12 30t30 12t30 -12t12 -30t-12 -30t-30 -12z" />
    <glyph glyph-name="uni1E60" unicode="&#x1e60;" horiz-adv-x="507" 
d="M256 676q133 0 200 -85q8 -11 -3 -21l-24 -19q-11 -10 -21 3q-50 65 -149 65q-68 0 -107.5 -35t-39.5 -95q0 -27 8 -47.5t27.5 -36t51 -26.5t78.5 -18q56 -9 94.5 -24t62.5 -37.5t34.5 -53t10.5 -70.5q0 -42 -15 -77t-42.5 -59.5t-66 -38t-85.5 -13.5q-153 0 -230 100
q-8 10 3 21l21 19q12 11 22 -2q31 -41 76.5 -61t104.5 -20q68 0 107.5 35t39.5 95q0 27 -8 47t-27 35t-50.5 25.5t-77.5 18.5q-57 10 -96 25t-63 37.5t-34.5 53t-10.5 71.5q0 42 15 77t42.5 59.5t66 38t85.5 13.5zM256 758q-18 0 -30 12t-12 30t12 30t30 12t30 -12t12 -30
t-12 -30t-30 -12z" />
    <glyph glyph-name="uni1E61" unicode="&#x1e61;" horiz-adv-x="412" 
d="M383 133q0 -67 -44.5 -106t-121.5 -39q-59 0 -102 14.5t-76 46.5q-10 10 -1 21l16 20q10 12 22 0q49 -49 135 -49q54 0 82.5 23.5t28.5 68.5q0 39 -26.5 59t-96.5 31q-43 6 -73 17t-48.5 27.5t-26.5 39.5t-8 54q0 66 47 105t126 39q43 0 80 -11.5t63 -33.5q11 -10 3 -21
l-14 -19q-9 -12 -21 -3q-22 17 -49.5 26t-56.5 9q-57 0 -87 -23.5t-30 -68.5q0 -18 5.5 -31t19 -23t36 -17t56.5 -11q90 -12 126 -46t36 -99zM207 593q-18 0 -30 12t-12 30t12 30t30 12t30 -12t12 -30t-12 -30t-30 -12z" />
    <glyph glyph-name="uni1E6A" unicode="&#x1e6a;" horiz-adv-x="484" 
d="M275 15q0 -15 -15 -15h-35q-15 0 -15 15v592h-176q-15 0 -15 15v27q0 15 15 15h416q15 0 15 -15v-27q0 -15 -15 -15h-175v-592zM242 758q-18 0 -30 12t-12 30t12 30t30 12t30 -12t12 -30t-12 -30t-30 -12z" />
    <glyph glyph-name="uni1E6B" unicode="&#x1e6b;" horiz-adv-x="352" 
d="M334 30q5 -13 -6 -20q-18 -11 -41 -16.5t-49 -5.5q-71 0 -107.5 38t-36.5 111v303h-60q-15 0 -15 15v23q0 15 15 15h60v119q0 15 15 15h31q15 0 15 -15v-119h151q15 0 15 -15v-23q0 -15 -15 -15h-151v-300q0 -99 89 -99q33 0 59 16q16 10 22 -5zM124 721q-18 0 -30 12
t-12 30t12 30t30 12t30 -12t12 -30t-12 -30t-30 -12z" />
    <glyph glyph-name="Wgrave" unicode="&#x1e80;" horiz-adv-x="850" 
d="M646 15q-3 -15 -18 -15h-44q-15 0 -18 15l-140 518h-1l-141 -518q-3 -15 -18 -15h-45q-15 0 -18 15l-172 632q-5 17 12 17h40q13 0 16 -13l145 -548h1l148 547q3 14 18 14h30q15 0 18 -14l148 -547h1l145 548q3 13 16 13h38q17 0 12 -17zM417 732q-11 0 -16 8l-87 123
q-5 7 -2.5 12t11.5 5h35q11 0 17 -9l80 -123q5 -7 2 -11.5t-11 -4.5h-29z" />
    <glyph glyph-name="wgrave" unicode="&#x1e81;" horiz-adv-x="683" 
d="M519 15q-4 -15 -18 -15h-34q-14 0 -18 15l-107 362h-1l-108 -362q-4 -15 -18 -15h-34q-14 0 -18 15l-140 461q-5 17 13 17h35q13 0 17 -13l110 -384h1l113 382q4 15 18 15h25q14 0 18 -15l112 -378h1l111 380q4 13 17 13h33q18 0 13 -17zM334 567q-11 0 -16 8l-87 123
q-5 7 -2.5 12t11.5 5h35q11 0 17 -9l80 -123q5 -7 2 -11.5t-11 -4.5h-29z" />
    <glyph glyph-name="Wacute" unicode="&#x1e82;" horiz-adv-x="850" 
d="M646 15q-3 -15 -18 -15h-44q-15 0 -18 15l-140 518h-1l-141 -518q-3 -15 -18 -15h-45q-15 0 -18 15l-172 632q-5 17 12 17h40q13 0 16 -13l145 -548h1l148 547q3 14 18 14h30q15 0 18 -14l148 -547h1l145 548q3 13 16 13h38q17 0 12 -17zM449 740q-5 -8 -16 -8h-29
q-8 0 -11 4.5t2 11.5l80 123q6 9 17 9h35q9 0 11.5 -5t-2.5 -12z" />
    <glyph glyph-name="wacute" unicode="&#x1e83;" horiz-adv-x="683" 
d="M519 15q-4 -15 -18 -15h-34q-14 0 -18 15l-107 362h-1l-108 -362q-4 -15 -18 -15h-34q-14 0 -18 15l-140 461q-5 17 13 17h35q13 0 17 -13l110 -384h1l113 382q4 15 18 15h25q14 0 18 -15l112 -378h1l111 380q4 13 17 13h33q18 0 13 -17zM366 575q-5 -8 -16 -8h-29
q-8 0 -11 4.5t2 11.5l80 123q6 9 17 9h35q9 0 11.5 -5t-2.5 -12z" />
    <glyph glyph-name="Wdieresis" unicode="&#x1e84;" horiz-adv-x="850" 
d="M646 15q-3 -15 -18 -15h-44q-15 0 -18 15l-140 518h-1l-141 -518q-3 -15 -18 -15h-45q-15 0 -18 15l-172 632q-5 17 12 17h40q13 0 16 -13l145 -548h1l148 547q3 14 18 14h30q15 0 18 -14l148 -547h1l145 548q3 13 16 13h38q17 0 12 -17zM345 760q-18 0 -29 11.5
t-11 28.5t11 28.5t29 11.5q17 0 28.5 -11.5t11.5 -28.5t-11.5 -28.5t-28.5 -11.5zM505 760q-17 0 -28.5 11.5t-11.5 28.5t11.5 28.5t28.5 11.5q18 0 29 -11.5t11 -28.5t-11 -28.5t-29 -11.5z" />
    <glyph glyph-name="wdieresis" unicode="&#x1e85;" horiz-adv-x="683" 
d="M519 15q-4 -15 -18 -15h-34q-14 0 -18 15l-107 362h-1l-108 -362q-4 -15 -18 -15h-34q-14 0 -18 15l-140 461q-5 17 13 17h35q13 0 17 -13l110 -384h1l113 382q4 15 18 15h25q14 0 18 -15l112 -378h1l111 380q4 13 17 13h33q18 0 13 -17zM262 595q-18 0 -29 11.5
t-11 28.5t11 28.5t29 11.5q17 0 28.5 -11.5t11.5 -28.5t-11.5 -28.5t-28.5 -11.5zM422 595q-17 0 -28.5 11.5t-11.5 28.5t11.5 28.5t28.5 11.5q18 0 29 -11.5t11 -28.5t-11 -28.5t-29 -11.5z" />
    <glyph glyph-name="Ygrave" unicode="&#x1ef2;" horiz-adv-x="519" 
d="M292 15q0 -15 -15 -15h-35q-15 0 -15 15v278l-214 353q-5 8 -2 13t12 5h43q12 0 18 -10l177 -299l177 299q6 10 18 10h40q9 0 12 -5t-2 -13l-214 -353v-278zM251 732q-11 0 -16 8l-87 123q-5 7 -2.5 12t11.5 5h35q11 0 17 -9l80 -123q5 -7 2 -11.5t-11 -4.5h-29z" />
    <glyph glyph-name="ygrave" unicode="&#x1ef3;" horiz-adv-x="500" 
d="M427 1q0 -81 -48.5 -127t-133.5 -46q-98 0 -161 57q-10 10 -2 21l15 20q10 13 21 2q51 -47 124 -47q60 0 92 33t32 95v54h-1q-37 -61 -128 -61q-84 0 -127 46.5t-43 136.5v293q0 15 15 15h31q15 0 15 -15v-283q0 -72 29 -106t90 -34q119 0 119 140v283q0 15 15 15h31
q15 0 15 -15v-477zM239 567q-11 0 -16 8l-87 123q-5 7 -2.5 12t11.5 5h35q11 0 17 -9l80 -123q5 -7 2 -11.5t-11 -4.5h-29z" />
    <glyph glyph-name="uni2007" unicode="&#x2007;" horiz-adv-x="529" 
 />
    <glyph glyph-name="figuredash" unicode="&#x2012;" horiz-adv-x="529" 
d="M44 288q-14 0 -14 14v21q0 14 14 14h441q14 0 14 -14v-21q0 -14 -14 -14h-441z" />
    <glyph glyph-name="endash" unicode="&#x2013;" horiz-adv-x="500" 
d="M44 247q-14 0 -14 14v21q0 14 14 14h412q14 0 14 -14v-21q0 -14 -14 -14h-412z" />
    <glyph glyph-name="emdash" unicode="&#x2014;" horiz-adv-x="900" 
d="M44 247q-14 0 -14 14v21q0 14 14 14h812q14 0 14 -14v-21q0 -14 -14 -14h-812z" />
    <glyph glyph-name="quoteleft" unicode="&#x2018;" horiz-adv-x="220" 
d="M110 495q-20 0 -32.5 13.5t-12.5 37.5q0 37 17.5 70.5t45.5 56.5q8 7 15 -1l9 -10q6 -7 -1 -14q-29 -26 -35 -70q17 -2 27.5 -13t10.5 -28q0 -20 -12.5 -31t-31.5 -11z" />
    <glyph glyph-name="quoteright" unicode="&#x2019;" horiz-adv-x="220" 
d="M110 676q20 0 32.5 -13.5t12.5 -37.5q0 -37 -17.5 -70.5t-45.5 -56.5q-9 -7 -15 1l-9 10q-6 7 1 14q29 26 35 70q-17 2 -27.5 13t-10.5 28q0 20 12.5 31t31.5 11z" />
    <glyph glyph-name="quotesinglbase" unicode="&#x201a;" horiz-adv-x="220" 
d="M110 77q20 0 32.5 -13.5t12.5 -37.5q0 -37 -17.5 -70.5t-45.5 -56.5q-9 -7 -15 1l-9 10q-6 7 1 14q29 26 35 70q-17 2 -27.5 13t-10.5 28q0 20 12.5 31t31.5 11z" />
    <glyph glyph-name="quotedblleft" unicode="&#x201c;" horiz-adv-x="386" 
d="M110 495q-20 0 -32.5 13.5t-12.5 37.5q0 37 17.5 70.5t45.5 56.5q8 7 15 -1l9 -10q6 -7 -1 -14q-29 -26 -35 -70q17 -2 27.5 -13t10.5 -28q0 -20 -12.5 -31t-31.5 -11zM275 495q-20 0 -32.5 13.5t-12.5 37.5q0 37 17.5 70.5t45.5 56.5q8 7 15 -1l9 -10q6 -7 -1 -14
q-29 -26 -35 -70q17 -2 27.5 -13t10.5 -28q0 -20 -12.5 -31t-31.5 -11z" />
    <glyph glyph-name="quotedblright" unicode="&#x201d;" horiz-adv-x="386" 
d="M110 676q20 0 32.5 -13.5t12.5 -37.5q0 -37 -17.5 -70.5t-45.5 -56.5q-9 -7 -15 1l-9 10q-6 7 1 14q29 26 35 70q-17 2 -27.5 13t-10.5 28q0 20 12.5 31t31.5 11zM275 676q20 0 32.5 -13.5t12.5 -37.5q0 -37 -17.5 -70.5t-45.5 -56.5q-9 -7 -15 1l-9 10q-6 7 1 14
q29 26 35 70q-17 2 -27.5 13t-10.5 28q0 20 12.5 31t31.5 11z" />
    <glyph glyph-name="quotedblbase" unicode="&#x201e;" horiz-adv-x="386" 
d="M275 77q20 0 32.5 -13.5t12.5 -37.5q0 -37 -17.5 -70.5t-45.5 -56.5q-9 -7 -15 1l-9 10q-6 7 1 14q29 26 35 70q-17 2 -27.5 13t-10.5 28q0 20 12.5 31t31.5 11zM110 77q20 0 32.5 -13.5t12.5 -37.5q0 -37 -17.5 -70.5t-45.5 -56.5q-9 -7 -15 1l-9 10q-6 7 1 14
q29 26 35 70q-17 2 -27.5 13t-10.5 28q0 20 12.5 31t31.5 11z" />
    <glyph glyph-name="dagger" unicode="&#x2020;" horiz-adv-x="435" 
d="M243 99q0 -14 -14 -14h-23q-14 0 -14 14v393h-136q-14 0 -14 14v19q0 14 14 14h136v147q0 14 14 14h23q14 0 14 -14v-147h136q14 0 14 -14v-19q0 -14 -14 -14h-136v-393z" />
    <glyph glyph-name="daggerdbl" unicode="&#x2021;" horiz-adv-x="435" 
d="M379 294q14 0 14 -14v-20q0 -14 -14 -14h-136v-147q0 -14 -14 -14h-23q-14 0 -14 14v147h-136q-14 0 -14 14v20q0 14 14 14h136v198h-136q-14 0 -14 14v19q0 14 14 14h136v147q0 14 14 14h23q14 0 14 -14v-147h136q14 0 14 -14v-19q0 -14 -14 -14h-136v-198h136z" />
    <glyph glyph-name="bullet" unicode="&#x2022;" horiz-adv-x="500" 
d="M250 173q-25 0 -46.5 9t-37.5 25t-25.5 38t-9.5 47t9.5 46.5t25.5 37.5t37.5 25t46.5 9t46.5 -9t37.5 -25t25.5 -37.5t9.5 -46.5t-9.5 -47t-25.5 -38t-37.5 -25t-46.5 -9z" />
    <glyph glyph-name="ellipsis" unicode="&#x2026;" horiz-adv-x="900" 
d="M730 -12q-19 0 -31.5 12.5t-12.5 31.5q0 20 12.5 32.5t31.5 12.5q20 0 32.5 -12.5t12.5 -32.5q0 -19 -12.5 -31.5t-32.5 -12.5zM450 -12q-19 0 -31.5 12.5t-12.5 31.5q0 20 12.5 32.5t31.5 12.5q20 0 32.5 -12.5t12.5 -32.5q0 -19 -12.5 -31.5t-32.5 -12.5zM170 -12
q-19 0 -31.5 12.5t-12.5 31.5q0 20 12.5 32.5t31.5 12.5q20 0 32.5 -12.5t12.5 -32.5q0 -19 -12.5 -31.5t-32.5 -12.5z" />
    <glyph glyph-name="perthousand" unicode="&#x2030;" horiz-adv-x="910" 
d="M642 188q0 60 30 91.5t88 31.5q57 0 87.5 -31.5t30.5 -91.5v-77q0 -60 -30.5 -91.5t-87.5 -31.5q-58 0 -88 31.5t-30 91.5v77zM690 114q0 -43 16.5 -62t53.5 -19t53.5 19t16.5 62v72q0 42 -16.5 61t-53.5 19t-53.5 -19t-16.5 -61v-72zM33 513q0 60 30 91.5t88 31.5
q57 0 87.5 -31.5t30.5 -91.5v-77q0 -60 -30.5 -91.5t-87.5 -31.5q-58 0 -88 31.5t-30 91.5v77zM484 616q6 8 16 8h28q8 0 10.5 -4.5t-1.5 -11.5l-396 -600q-6 -8 -16 -8h-27q-8 0 -11 4.5t2 11.5zM81 439q0 -43 16.5 -62t53.5 -19t53.5 19t16.5 62v72q0 42 -16.5 61
t-53.5 19t-53.5 -19t-16.5 -61v-72zM358 188q0 60 30 91.5t88 31.5q57 0 87.5 -31.5t30.5 -91.5v-77q0 -60 -30.5 -91.5t-87.5 -31.5q-58 0 -88 31.5t-30 91.5v77zM406 114q0 -43 16.5 -62t53.5 -19t53.5 19t16.5 62v72q0 42 -16.5 61t-53.5 19t-53.5 -19t-16.5 -61v-72z
" />
    <glyph glyph-name="guilsinglleft" unicode="&#x2039;" horiz-adv-x="238" 
d="M194 75q10 -17 -9 -17h-28q-11 0 -17 9l-108 170q-6 10 0 20l108 169q6 9 17 9h28q19 0 9 -17l-109 -171z" />
    <glyph glyph-name="guilsinglright" unicode="&#x203a;" horiz-adv-x="238" 
d="M44 418q-10 17 9 17h28q11 0 17 -9l108 -170q6 -10 0 -20l-108 -169q-6 -9 -17 -9h-28q-19 0 -9 17l109 171z" />
    <glyph glyph-name="fraction" unicode="&#x2044;" horiz-adv-x="133" 
d="M239 616q6 8 16 8h25q8 0 10.5 -4.5t-1.5 -11.5l-395 -600q-6 -8 -16 -8h-25q-8 0 -11 4.5t2 11.5z" />
    <glyph glyph-name="uni2070" unicode="&#x2070;" 
d="M37 623q0 65 32.5 99t95.5 34t95.5 -34t32.5 -99v-134q0 -65 -32.5 -99t-95.5 -34t-95.5 34t-32.5 99v134zM84 493q0 -94 81 -94t81 94v127q0 93 -81 93t-81 -93v-127z" />
    <glyph glyph-name="uni2074" unicode="&#x2074;" 
d="M266 376q0 -13 -13 -13h-21q-13 0 -13 13v75h-177q-13 0 -13 13v24q0 8 5 16l178 237q7 8 16 8h25q13 0 13 -13v-242h33q13 0 13 -13v-17q0 -13 -13 -13h-33v-75zM80 494h139v186h-1z" />
    <glyph glyph-name="uni2075" unicode="&#x2075;" 
d="M178 611q56 0 89.5 -35t33.5 -92q0 -60 -36 -94t-99 -34q-78 0 -124 51q-8 9 1 18l12 13q9 10 18 0q36 -39 91 -39q43 0 66.5 22.5t23.5 62.5q0 38 -23 61t-63 23q-47 0 -76 -27q-7 -7 -17 -6l-12 2q-13 2 -11 14l11 185q1 13 14 13h189q13 0 13 -13v-17q0 -13 -13 -13
h-163l-8 -121h1q34 26 82 26z" />
    <glyph glyph-name="uni2076" unicode="&#x2076;" 
d="M180 612q56 0 88 -34.5t32 -92.5q0 -59 -35 -94t-93 -35q-59 0 -93.5 34.5t-34.5 93.5v141q0 62 34 96.5t94 34.5q65 0 105 -38q7 -9 0 -18l-13 -15q-9 -10 -19 -1q-14 14 -30.5 21.5t-38.5 7.5q-85 0 -85 -92v-47h1q30 38 88 38zM172 399q38 0 59.5 23t21.5 62
q0 40 -21.5 62.5t-59.5 22.5q-37 0 -59 -23t-22 -62t21.5 -62t59.5 -23z" />
    <glyph glyph-name="uni2077" unicode="&#x2077;" 
d="M308 711q0 -8 -4 -16l-158 -322q-6 -10 -16 -10h-24q-17 0 -9 15l163 328h-174v-55q0 -13 -13 -13h-20q-13 0 -13 13v85q0 13 13 13h242q13 0 13 -13v-25z" />
    <glyph glyph-name="uni2078" unicode="&#x2078;" 
d="M233 565q32 -12 50 -36.5t18 -59.5q0 -54 -36 -83.5t-100 -29.5t-100 29.5t-36 83.5q0 35 18 59t50 36v1q-28 11 -43 33t-15 52q0 50 33 78t93 28t93 -28t33 -78q0 -30 -15 -51.5t-43 -32.5v-1zM165 713q-79 0 -79 -65q0 -31 20.5 -47t58.5 -16t58.5 16t20.5 47
q0 65 -79 65zM165 399q43 0 66 18.5t23 53.5t-23 53t-66 18q-42 0 -65.5 -18t-23.5 -53t23 -53.5t66 -18.5z" />
    <glyph glyph-name="uni2079" unicode="&#x2079;" 
d="M158 756q59 0 93.5 -34.5t34.5 -93.5v-141q0 -62 -34 -96.5t-94 -34.5q-65 0 -105 38q-9 9 -1 18l13 16q9 10 17 2q14 -14 32.5 -22.5t39.5 -8.5q85 0 85 92v47h-1q-14 -18 -36.5 -28t-51.5 -10q-56 0 -88 34.5t-32 92.5q0 59 35 94t93 35zM158 543q37 0 59 23t22 62
t-21.5 62t-59.5 23t-59.5 -23t-21.5 -62q0 -40 21.5 -62.5t59.5 -22.5z" />
    <glyph glyph-name="uni2080" unicode="&#x2080;" 
d="M37 100q0 65 32.5 99t95.5 34t95.5 -34t32.5 -99v-134q0 -65 -32.5 -99t-95.5 -34t-95.5 34t-32.5 99v134zM84 -30q0 -94 81 -94t81 94v127q0 93 -81 93t-81 -93v-127z" />
    <glyph glyph-name="uni2081" unicode="&#x2081;" 
d="M245 -147q0 -13 -13 -13h-21q-13 0 -13 13v311l-81 -62q-12 -8 -18 3l-10 15q-8 10 3 18l109 83q7 5 16 5h15q13 0 13 -13v-360z" />
    <glyph glyph-name="uni2082" unicode="&#x2082;" 
d="M277 -117q13 0 13 -13v-17q0 -13 -13 -13h-218q-13 0 -13 13v18q0 9 7 16l147 149q24 25 34 44t10 42q0 33 -20 50.5t-57 17.5q-27 0 -47.5 -12t-34.5 -34q-7 -12 -18 -4l-15 10q-10 8 -4 18q42 65 121 65q57 0 89.5 -29t32.5 -82q0 -32 -12.5 -57.5t-44.5 -57.5
l-124 -124h167z" />
    <glyph glyph-name="uni2083" unicode="&#x2083;" 
d="M233 42q33 -11 51.5 -35t18.5 -61q0 -54 -34.5 -83.5t-97.5 -29.5q-82 0 -126 52q-7 10 1 19l12 12q10 10 19 -1q34 -39 92 -39q42 0 64.5 18.5t22.5 53.5q0 71 -97 71h-23q-13 0 -13 13v17q0 13 13 13h20q90 0 90 63q0 32 -21 48.5t-59 16.5q-27 0 -48 -10.5t-36 -28.5
q-10 -12 -19 -1l-13 12q-9 9 -1 19q46 52 119 52q59 0 92 -28t33 -78q0 -32 -15.5 -53t-44.5 -31v-1z" />
    <glyph glyph-name="uni2084" unicode="&#x2084;" 
d="M266 -147q0 -13 -13 -13h-21q-13 0 -13 13v75h-177q-13 0 -13 13v24q0 8 5 16l178 237q7 8 16 8h25q13 0 13 -13v-242h33q13 0 13 -13v-17q0 -13 -13 -13h-33v-75zM80 -29h139v186h-1z" />
    <glyph glyph-name="uni2085" unicode="&#x2085;" 
d="M178 88q56 0 89.5 -35t33.5 -92q0 -60 -36 -94t-99 -34q-78 0 -124 51q-8 9 1 18l12 13q9 10 18 0q36 -39 91 -39q43 0 66.5 22.5t23.5 62.5q0 38 -23 61t-63 23q-47 0 -76 -27q-7 -7 -17 -6l-12 2q-13 2 -11 14l11 185q1 13 14 13h189q13 0 13 -13v-17q0 -13 -13 -13
h-163l-8 -121h1q34 26 82 26z" />
    <glyph glyph-name="uni2086" unicode="&#x2086;" 
d="M180 89q56 0 88 -34.5t32 -92.5q0 -59 -35 -94t-93 -35q-59 0 -93.5 34.5t-34.5 93.5v141q0 62 34 96.5t94 34.5q65 0 105 -38q7 -9 0 -18l-13 -15q-9 -10 -19 -1q-14 14 -30.5 21.5t-38.5 7.5q-85 0 -85 -92v-47h1q30 38 88 38zM172 -124q38 0 59.5 23t21.5 62
q0 40 -21.5 62.5t-59.5 22.5q-37 0 -59 -23t-22 -62t21.5 -62t59.5 -23z" />
    <glyph glyph-name="uni2087" unicode="&#x2087;" 
d="M308 188q0 -8 -4 -16l-158 -322q-6 -10 -16 -10h-24q-17 0 -9 15l163 328h-174v-55q0 -13 -13 -13h-20q-13 0 -13 13v85q0 13 13 13h242q13 0 13 -13v-25z" />
    <glyph glyph-name="uni2088" unicode="&#x2088;" 
d="M233 42q32 -12 50 -36.5t18 -59.5q0 -54 -36 -83.5t-100 -29.5t-100 29.5t-36 83.5q0 35 18 59t50 36v1q-28 11 -43 33t-15 52q0 50 33 78t93 28t93 -28t33 -78q0 -30 -15 -51.5t-43 -32.5v-1zM165 190q-79 0 -79 -65q0 -31 20.5 -47t58.5 -16t58.5 16t20.5 47
q0 65 -79 65zM165 -124q43 0 66 18.5t23 53.5t-23 53t-66 18q-42 0 -65.5 -18t-23.5 -53t23 -53.5t66 -18.5z" />
    <glyph glyph-name="uni2089" unicode="&#x2089;" 
d="M158 233q59 0 93.5 -34.5t34.5 -93.5v-141q0 -62 -34 -96.5t-94 -34.5q-65 0 -105 38q-9 9 -1 18l13 16q9 10 17 2q14 -14 32.5 -22.5t39.5 -8.5q85 0 85 92v47h-1q-14 -18 -36.5 -28t-51.5 -10q-56 0 -88 34.5t-32 92.5q0 59 35 94t93 35zM158 20q37 0 59 23t22 62
t-21.5 62t-59.5 23t-59.5 -23t-21.5 -62q0 -40 21.5 -62.5t59.5 -22.5z" />
    <glyph glyph-name="Euro" unicode="&#x20ac;" horiz-adv-x="529" 
d="M294 43q98 0 141 76q8 14 20 6l24 -14q14 -8 6 -20q-28 -51 -77 -77t-115 -26q-100 0 -153.5 55.5t-53.5 159.5v16h-38q-13 0 -13 13v24q0 13 13 13h38v93h-38q-13 0 -13 13v24q0 13 13 13h38v9q0 104 53.5 159.5t153.5 55.5q66 0 115 -26t77 -77q7 -13 -6 -20l-23 -13
q-13 -6 -20 5q-22 37 -58 56.5t-84 19.5q-145 0 -145 -167v-2h221q15 0 12 -14l-5 -25q-2 -11 -15 -11h-213v-93h191q15 0 12 -14l-5 -25q-2 -11 -15 -11h-183v-9q0 -167 145 -167z" />
    <glyph glyph-name="uni20B9" unicode="&#x20b9;" horiz-adv-x="529" 
d="M385 571q48 -36 56 -106h48q15 0 12 -15l-4 -24q-1 -13 -15 -13h-41q-7 -81 -65 -119.5t-179 -38.5h-43v-1l275 -236q8 -7 6 -12.5t-13 -5.5h-48q-11 0 -19 7l-289 253q-8 8 -7 20l3 16q3 13 17 13h118q89 0 131 25t49 79h-307q-16 0 -13 15l5 24q1 13 15 13h301
q-8 57 -50 80.5t-131 23.5h-126q-17 0 -14 16l5 25q2 14 16 14h410q16 0 13 -15l-5 -24q-1 -13 -15 -13h-96v-1z" />
    <glyph glyph-name="afii61289" unicode="&#x2113;" horiz-adv-x="419" 
d="M366 47q8 -11 -2 -21q-44 -38 -106 -38q-71 0 -109.5 41.5t-38.5 119.5q-10 -6 -19.5 -12.5t-20.5 -12.5q-14 -8 -20 6l-12 22q-8 13 6 21q18 11 34.5 21.5t31.5 21.5v278q0 68 34 105t96 37q58 0 90 -35.5t32 -100.5q0 -78 -47 -155t-142 -151v-40q0 -111 87 -111
q21 0 37.5 6.5t33.5 20.5q12 10 21 -2zM174 266q65 57 97 116t32 118q0 81 -62 81q-68 0 -68 -91v-224h1z" />
    <glyph glyph-name="uni2117" unicode="&#x2117;" horiz-adv-x="771" 
d="M386 676q73 0 136 -26t109.5 -72.5t72.5 -109.5t26 -136q0 -74 -26 -136.5t-72.5 -109t-109.5 -72.5t-136 -26q-74 0 -136.5 26t-109 72.5t-72.5 109t-26 136.5q0 73 26 136t72.5 109.5t109 72.5t136.5 26zM386 29q63 0 117.5 23t94.5 64t63 96t23 120q0 64 -23 119.5
t-63 96.5t-94.5 64t-117.5 23t-117.5 -23t-94.5 -64t-63 -96.5t-23 -119.5q0 -65 23 -120t63 -96t94.5 -64t117.5 -23zM399 516q67 0 98.5 -27t31.5 -84q0 -59 -31.5 -86t-98.5 -27h-67v-132q0 -12 -12 -12h-22q-12 0 -12 12v344q0 12 12 12h101zM398 333q44 0 64 17t20 54
t-20 54t-64 17h-66v-142h66z" />
    <glyph glyph-name="trademark" unicode="&#x2122;" horiz-adv-x="763" 
d="M165 323q0 -13 -13 -13h-21q-13 0 -13 13v300h-90q-13 0 -13 13v15q0 13 13 13h227q13 0 13 -13v-15q0 -13 -13 -13h-90v-300zM673 310q-13 0 -13 13v284h-1l-118 -287q-4 -10 -15 -10h-14q-11 0 -15 10l-118 285h-1v-282q0 -13 -13 -13h-18q-13 0 -13 13v328q0 13 13 13
h43q11 0 15 -10l115 -278l115 278q4 10 15 10h44q13 0 13 -13v-328q0 -13 -13 -13h-21z" />
    <glyph glyph-name="uni2126" unicode="&#x2126;" horiz-adv-x="579" 
d="M523 267q0 -76 -28 -128.5t-82 -78.5v-1h95q15 0 15 -15v-29q0 -15 -15 -15h-155q-15 0 -15 15v34q0 12 12 18q108 45 108 197v161q0 194 -169 194q-168 0 -168 -194v-161q0 -152 108 -197q12 -6 12 -18v-34q0 -15 -15 -15h-155q-15 0 -15 15v29q0 15 15 15h95v1
q-54 26 -82 78.5t-28 128.5v169q0 118 59 179t174 61t174.5 -61t59.5 -179v-169z" />
    <glyph glyph-name="estimated" unicode="&#x212e;" horiz-adv-x="820" 
d="M189 111q42 -48 99.5 -75.5t123.5 -27.5q70 0 130 31t103 84h54q-51 -62 -126 -98.5t-163 -36.5q-75 0 -141 27t-115 73.5t-77.5 109.5t-28.5 134q0 72 28.5 134.5t77.5 109t115 73.5t141 27t141 -27t115 -73.5t77.5 -109t28.5 -134.5v-8h-587q-4 0 -4 -4v-189
q0 -6 2.5 -10.5t5.5 -9.5zM635 342q6 0 6 6v189q0 12 -10 22q-43 45 -99.5 71t-119.5 26q-66 0 -123 -27t-100 -74q-3 -5 -5.5 -10.5t-2.5 -11.5v-185q0 -6 4 -6h450z" />
    <glyph glyph-name="onethird" unicode="&#x2153;" horiz-adv-x="793" 
d="M569 616q6 8 16 8h25q8 0 10.5 -4.5t-1.5 -11.5l-395 -600q-6 -8 -16 -8h-25q-8 0 -11 4.5t2 11.5zM696 202q33 -11 51.5 -35t18.5 -61q0 -54 -34.5 -83.5t-97.5 -29.5q-82 0 -126 52q-7 10 1 19l12 12q10 10 19 -1q34 -39 92 -39q42 0 64.5 18.5t22.5 53.5q0 71 -97 71
h-23q-13 0 -13 13v17q0 13 13 13h20q90 0 90 63q0 32 -21 48.5t-59 16.5q-27 0 -48 -10.5t-36 -28.5q-10 -12 -19 -1l-13 12q-9 9 -1 19q46 52 119 52q59 0 92 -28t33 -78q0 -32 -15.5 -53t-44.5 -31v-1zM245 251q0 -13 -13 -13h-21q-13 0 -13 13v311l-81 -62q-12 -8 -18 3
l-10 15q-8 10 3 18l109 83q7 5 16 5h15q13 0 13 -13v-360z" />
    <glyph glyph-name="twothirds" unicode="&#x2154;" horiz-adv-x="793" 
d="M593 616q6 8 16 8h25q8 0 10.5 -4.5t-1.5 -11.5l-395 -600q-6 -8 -16 -8h-25q-8 0 -11 4.5t2 11.5zM696 202q33 -11 51.5 -35t18.5 -61q0 -54 -34.5 -83.5t-97.5 -29.5q-82 0 -126 52q-7 10 1 19l12 12q10 10 19 -1q34 -39 92 -39q42 0 64.5 18.5t22.5 53.5q0 71 -97 71
h-23q-13 0 -13 13v17q0 13 13 13h20q90 0 90 63q0 32 -21 48.5t-59 16.5q-27 0 -48 -10.5t-36 -28.5q-10 -12 -19 -1l-13 12q-9 9 -1 19q46 52 119 52q59 0 92 -28t33 -78q0 -32 -15.5 -53t-44.5 -31v-1zM277 281q13 0 13 -13v-17q0 -13 -13 -13h-218q-13 0 -13 13v18
q0 9 7 16l147 149q24 25 34 44t10 42q0 33 -20 50.5t-57 17.5q-27 0 -47.5 -12t-34.5 -34q-7 -12 -18 -4l-15 10q-10 8 -4 18q42 65 121 65q57 0 89.5 -29t32.5 -82q0 -32 -12.5 -57.5t-44.5 -57.5l-124 -124h167z" />
    <glyph glyph-name="oneeighth" unicode="&#x215b;" horiz-adv-x="793" 
d="M569 616q6 8 16 8h25q8 0 10.5 -4.5t-1.5 -11.5l-395 -600q-6 -8 -16 -8h-25q-8 0 -11 4.5t2 11.5zM696 202q32 -12 50 -36.5t18 -59.5q0 -54 -36 -83.5t-100 -29.5t-100 29.5t-36 83.5q0 35 18 59t50 36v1q-28 11 -43 33t-15 52q0 50 33 78t93 28t93 -28t33 -78
q0 -30 -15 -51.5t-43 -32.5v-1zM628 350q-79 0 -79 -65q0 -31 20.5 -47t58.5 -16t58.5 16t20.5 47q0 65 -79 65zM628 36q43 0 66 18.5t23 53.5t-23 53t-66 18q-42 0 -65.5 -18t-23.5 -53t23 -53.5t66 -18.5zM245 251q0 -13 -13 -13h-21q-13 0 -13 13v311l-81 -62
q-12 -8 -18 3l-10 15q-8 10 3 18l109 83q7 5 16 5h15q13 0 13 -13v-360z" />
    <glyph glyph-name="threeeighths" unicode="&#x215c;" horiz-adv-x="793" 
d="M574 616q6 8 16 8h25q8 0 10.5 -4.5t-1.5 -11.5l-395 -600q-6 -8 -16 -8h-25q-8 0 -11 4.5t2 11.5zM696 202q32 -12 50 -36.5t18 -59.5q0 -54 -36 -83.5t-100 -29.5t-100 29.5t-36 83.5q0 35 18 59t50 36v1q-28 11 -43 33t-15 52q0 50 33 78t93 28t93 -28t33 -78
q0 -30 -15 -51.5t-43 -32.5v-1zM628 350q-79 0 -79 -65q0 -31 20.5 -47t58.5 -16t58.5 16t20.5 47q0 65 -79 65zM628 36q43 0 66 18.5t23 53.5t-23 53t-66 18q-42 0 -65.5 -18t-23.5 -53t23 -53.5t66 -18.5zM233 440q33 -11 51.5 -35t18.5 -61q0 -54 -34.5 -83.5
t-97.5 -29.5q-82 0 -126 52q-7 10 1 19l12 12q10 10 19 -1q34 -39 92 -39q42 0 64.5 18.5t22.5 53.5q0 71 -97 71h-23q-13 0 -13 13v17q0 13 13 13h20q90 0 90 63q0 32 -21 48.5t-59 16.5q-27 0 -48 -10.5t-36 -28.5q-10 -12 -19 -1l-13 12q-9 9 -1 19q46 52 119 52
q59 0 92 -28t33 -78q0 -32 -15.5 -53t-44.5 -31v-1z" />
    <glyph glyph-name="fiveeighths" unicode="&#x215d;" horiz-adv-x="793" 
d="M574 616q6 8 16 8h25q8 0 10.5 -4.5t-1.5 -11.5l-395 -600q-6 -8 -16 -8h-25q-8 0 -11 4.5t2 11.5zM696 202q32 -12 50 -36.5t18 -59.5q0 -54 -36 -83.5t-100 -29.5t-100 29.5t-36 83.5q0 35 18 59t50 36v1q-28 11 -43 33t-15 52q0 50 33 78t93 28t93 -28t33 -78
q0 -30 -15 -51.5t-43 -32.5v-1zM628 350q-79 0 -79 -65q0 -31 20.5 -47t58.5 -16t58.5 16t20.5 47q0 65 -79 65zM628 36q43 0 66 18.5t23 53.5t-23 53t-66 18q-42 0 -65.5 -18t-23.5 -53t23 -53.5t66 -18.5zM178 486q56 0 89.5 -35t33.5 -92q0 -60 -36 -94t-99 -34
q-78 0 -124 51q-8 9 1 18l12 13q9 10 18 0q36 -39 91 -39q43 0 66.5 22.5t23.5 62.5q0 38 -23 61t-63 23q-47 0 -76 -27q-7 -7 -17 -6l-12 2q-13 2 -11 14l11 185q1 13 14 13h189q13 0 13 -13v-17q0 -13 -13 -13h-163l-8 -121h1q34 26 82 26z" />
    <glyph glyph-name="seveneighths" unicode="&#x215e;" horiz-adv-x="793" 
d="M532 616q6 8 16 8h25q8 0 10.5 -4.5t-1.5 -11.5l-395 -600q-6 -8 -16 -8h-25q-8 0 -11 4.5t2 11.5zM696 202q32 -12 50 -36.5t18 -59.5q0 -54 -36 -83.5t-100 -29.5t-100 29.5t-36 83.5q0 35 18 59t50 36v1q-28 11 -43 33t-15 52q0 50 33 78t93 28t93 -28t33 -78
q0 -30 -15 -51.5t-43 -32.5v-1zM628 350q-79 0 -79 -65q0 -31 20.5 -47t58.5 -16t58.5 16t20.5 47q0 65 -79 65zM628 36q43 0 66 18.5t23 53.5t-23 53t-66 18q-42 0 -65.5 -18t-23.5 -53t23 -53.5t66 -18.5zM308 586q0 -8 -4 -16l-158 -322q-6 -10 -16 -10h-24q-17 0 -9 15
l163 328h-174v-55q0 -13 -13 -13h-20q-13 0 -13 13v85q0 13 13 13h242q13 0 13 -13v-25z" />
    <glyph glyph-name="partialdiff" unicode="&#x2202;" horiz-adv-x="539" 
d="M279 676q102 0 156 -70t54 -203q0 -98 -17.5 -175t-50.5 -130.5t-81 -81.5t-108 -28q-42 0 -76 14t-58 39t-37.5 60.5t-13.5 79.5q0 55 16.5 100.5t47 78.5t72.5 51t93 18t89.5 -19t58.5 -52h1q1 13 1 25v25q0 104 -39 158.5t-116 54.5q-68 0 -118 -45q-12 -10 -21 2
l-16 21q-8 13 2 21q32 26 73 41t88 15zM234 43q68 0 113 53.5t65 152.5q-1 57 -36 91t-94 34q-37 0 -68.5 -14t-54.5 -39t-36 -59.5t-13 -76.5q0 -66 33.5 -104t90.5 -38z" />
    <glyph glyph-name="uni2206" unicode="&#x2206;" horiz-adv-x="575" 
d="M39 0q-19 0 -12 17l222 634q5 13 18 13h41q13 0 18 -13l222 -634q7 -17 -12 -17h-497zM107 57h359l-179 527h-1z" />
    <glyph glyph-name="product" unicode="&#x220f;" horiz-adv-x="606" 
d="M541 -65q0 -15 -15 -15h-35q-15 0 -15 15v672h-346v-672q0 -15 -15 -15h-35q-15 0 -15 15v714q0 15 15 15h446q15 0 15 -15v-714z" />
    <glyph glyph-name="summation" unicode="&#x2211;" horiz-adv-x="481" 
d="M316 302q7 -10 0 -20l-219 -305h358q15 0 15 -15v-27q0 -15 -15 -15h-419q-15 0 -15 15v35q0 9 6 18l218 304l-218 304q-6 9 -6 18v35q0 15 15 15h419q15 0 15 -15v-27q0 -15 -15 -15h-358z" />
    <glyph glyph-name="minus" unicode="&#x2212;" horiz-adv-x="529" 
d="M36 251q-15 0 -15 15v26q0 15 15 15h456q15 0 15 -15v-26q0 -15 -15 -15h-456z" />
    <glyph glyph-name="uni2219" unicode="&#x2219;" horiz-adv-x="220" 
d="M110 268q-19 0 -31.5 12.5t-12.5 31.5q0 20 12.5 32.5t31.5 12.5q20 0 32.5 -12.5t12.5 -32.5q0 -19 -12.5 -31.5t-32.5 -12.5z" />
    <glyph glyph-name="radical" unicode="&#x221a;" horiz-adv-x="508" 
d="M312 -67q-3 -13 -16 -13h-42q-13 0 -17 12l-104 277l-79 -22q-14 -4 -19 11l-5 20q-4 13 10 18l116 32q14 5 19 -10l95 -272h1l170 665q3 13 16 13h28q16 0 13 -17z" />
    <glyph glyph-name="infinity" unicode="&#x221e;" horiz-adv-x="634" 
d="M464 455q61 0 96.5 -38.5t35.5 -104.5t-36 -104.5t-99 -38.5q-45 0 -80 23t-68 76q-32 -52 -66 -75.5t-76 -23.5q-61 0 -97 38.5t-36 104.5t36.5 104.5t98.5 38.5q44 0 79 -23t69 -75q34 52 67.5 75t75.5 23zM177 220q31 0 57 20t55 66q-32 54 -59.5 76t-60.5 22
q-38 0 -58 -23.5t-20 -68.5q0 -44 22 -68t64 -24zM465 220q38 0 58 23.5t20 68.5t-22 68.5t-63 23.5q-32 0 -58 -19.5t-55 -66.5q34 -56 61 -77t59 -21z" />
    <glyph glyph-name="integral" unicode="&#x222b;" horiz-adv-x="318" 
d="M114 522q0 90 42 137.5t116 52.5q15 0 15 -15v-23q0 -15 -15 -16q-45 -5 -71.5 -38.5t-26.5 -99.5q0 -60 5 -120t10 -123q6 -65 10.5 -129.5t4.5 -129.5q0 -90 -42 -137.5t-116 -52.5q-15 0 -15 15v23q0 14 15 16q45 5 71.5 38.5t26.5 99.5q0 60 -5 120t-10 123
q-6 65 -10.5 129.5t-4.5 129.5z" />
    <glyph glyph-name="approxequal" unicode="&#x2248;" horiz-adv-x="529" 
d="M160 399q-29 0 -51 -15.5t-44 -50.5q-8 -12 -21 -5l-20 12q-12 8 -5 21q29 49 62.5 71.5t76.5 22.5q30 0 57.5 -9.5t62.5 -32.5q30 -20 49 -27t39 -7q30 0 52 15.5t43 50.5q8 13 21 5l20 -12q13 -7 5 -21q-30 -48 -62.5 -71t-75.5 -23q-14 0 -27 2t-27 6.5t-30 12.5
t-36 20q-31 19 -50 27t-39 8zM160 177q-29 0 -51 -15.5t-44 -50.5q-8 -12 -21 -5l-20 12q-12 8 -5 21q29 49 62.5 71.5t76.5 22.5q30 0 57.5 -9.5t62.5 -32.5q30 -20 49 -27t39 -7q30 0 52 15.5t43 50.5q8 13 21 5l20 -12q13 -7 5 -21q-30 -48 -62.5 -71t-75.5 -23
q-14 0 -27 2t-27 6.5t-30 12.5t-36 20q-31 19 -50 27t-39 8z" />
    <glyph glyph-name="notequal" unicode="&#x2260;" horiz-adv-x="529" 
d="M475 195q15 0 15 -15v-26q0 -15 -15 -15h-267l-68 -115q-6 -10 -18 -10h-25q-9 0 -12 5t2 13l63 107h-97q-15 0 -15 15v26q0 15 15 15h130l98 168h-228q-15 0 -15 15v26q0 15 15 15h261l68 115q6 10 18 10h25q9 0 12 -5t-2 -13l-63 -107h103q15 0 15 -15v-26
q0 -15 -15 -15h-136l-98 -168h234z" />
    <glyph glyph-name="lessequal" unicode="&#x2264;" horiz-adv-x="529" 
d="M475 183q12 -5 12 -18v-28q0 -19 -17 -12l-419 179q-11 5 -11 17v27q0 12 11 17l419 179q17 7 17 -12v-28q0 -14 -12 -18l-361 -151zM472 56q15 0 15 -15v-26q0 -15 -15 -15h-417q-15 0 -15 15v26q0 15 15 15h417z" />
    <glyph glyph-name="greaterequal" unicode="&#x2265;" horiz-adv-x="529" 
d="M487 321q0 -12 -11 -17l-419 -179q-17 -7 -17 12v28q0 13 12 18l362 152l-362 151q-12 4 -12 18v28q0 19 17 12l419 -179q11 -5 11 -17v-27zM472 56q15 0 15 -15v-26q0 -15 -15 -15h-417q-15 0 -15 15v26q0 15 15 15h417z" />
    <glyph glyph-name="lozenge" unicode="&#x25ca;" horiz-adv-x="515" 
d="M289 1q-6 -11 -18 -11h-26q-12 0 -18 11l-183 321q-6 10 0 20l183 321q6 11 18 11h26q12 0 18 -11l183 -321q6 -10 0 -20zM102 332l156 -277h1l154 277l-155 276h-1z" />
    <glyph glyph-name="uniE069" unicode="&#xe069;" horiz-adv-x="207" 
d="M103 593q-18 0 -30 12t-12 30t12 30t30 12t30 -12t12 -30t-12 -30t-30 -12zM88 0q-15 0 -15 15v463q0 15 15 15h31q15 0 15 -15v-463q0 -15 -15 -15h-31z" />
    <glyph glyph-name="uniEF01" unicode="&#xef01;" horiz-adv-x="500" 
d="M250 -50q17 0 29 -12.5t12 -33.5q0 -29 -13.5 -51.5t-38.5 -33.5q-8 -4 -13 5l-4 8q-5 10 4 14q16 9 20 27q-17 2 -27 12t-10 27t11.5 27.5t29.5 10.5z" />
    <glyph glyph-name="uniEF02" unicode="&#xef02;" horiz-adv-x="500" 
d="M259 523q-2 -12 -14 -12h-19q-14 0 -12 14l18 162q1 13 15 13h27q15 0 12 -15z" />
    <glyph glyph-name="uniF8FF" unicode="&#xf8ff;" horiz-adv-x="1000" 
d="M439 262h-1l-17 -78h-23l28 126h27v-66h1l28 66h31l-28 -126h-24l17 78h-1l-22 -52h-16v52zM123 208q-7 -24 -25 -24h-46l28 126h43q18 0 18 -15v-3.5t-1 -6.5zM269 184l6 26h-17l-7 -26h-24l23 103q5 23 26 23h22q18 0 18 -15v-3.5t-1 -6.5l-22 -101h-24zM546 184l6 26
h-17l-7 -26h-24l23 103q5 23 26 23h22q18 0 18 -15v-3.5t-1 -6.5l-22 -101h-24zM390 233q-4 -17 -13 -20l6 -29h-23l-4 26h-13l-6 -26h-24l28 126h43q18 0 18 -15v-3.5t-1 -6.5zM833 232q-4 -22 -24 -22h-22l-6 -26h-24l28 126h43q18 0 18 -15v-3.5t-1 -6.5zM205 184h-24
l6 26h-18l-6 -26h-24l28 126h24l-18 -81h18l18 81h24zM727 310l-17 -75q-1 -6 4 -6h7q5 0 6 4l17 77h24l-17 -78q-4 -22 -24 -22l-14 -26h-24l14 26q-7 0 -12.5 3.5t-5.5 11.5q0 5 1 10l17 75h24zM897 223h-26l-4 -20h33l-5 -19h-56l28 126h57l-5 -19h-32l-11 -49h25z
M647 184h-24l24 107h-19l4 19h61l-4 -19h-18zM80 203h13q4 0 6 5l17 77q1 6 -3 6h-13zM821 285q1 6 -4 6h-12l-14 -62h13q5 0 6 4zM377 285q1 6 -4 6h-12l-14 -62h13q5 0 6 4zM557 291q-5 0 -6 -5l-13 -57h18l12 56q1 6 -4 6h-7zM280 291q-5 0 -6 -5l-13 -57h18l12 56
q1 6 -4 6h-7zM987 303h-6v25h-1l-7 -20h-4l-7 20h-1v-25h-5v30h10l5 -16h1l5 16h10v-30zM952 328h-9v-25h-6v25h-8v5h23v-5z" />
    <glyph glyph-name="zero.numr" 
d="M37 498q0 65 32.5 99t95.5 34t95.5 -34t32.5 -99v-134q0 -65 -32.5 -99t-95.5 -34t-95.5 34t-32.5 99v134zM84 368q0 -94 81 -94t81 94v127q0 93 -81 93t-81 -93v-127z" />
    <glyph glyph-name="one.numr" 
d="M245 251q0 -13 -13 -13h-21q-13 0 -13 13v311l-81 -62q-12 -8 -18 3l-10 15q-8 10 3 18l109 83q7 5 16 5h15q13 0 13 -13v-360z" />
    <glyph glyph-name="two.numr" 
d="M277 281q13 0 13 -13v-17q0 -13 -13 -13h-218q-13 0 -13 13v18q0 9 7 16l147 149q24 25 34 44t10 42q0 33 -20 50.5t-57 17.5q-27 0 -47.5 -12t-34.5 -34q-7 -12 -18 -4l-15 10q-10 8 -4 18q42 65 121 65q57 0 89.5 -29t32.5 -82q0 -32 -12.5 -57.5t-44.5 -57.5
l-124 -124h167z" />
    <glyph glyph-name="three.numr" 
d="M233 440q33 -11 51.5 -35t18.5 -61q0 -54 -34.5 -83.5t-97.5 -29.5q-82 0 -126 52q-7 10 1 19l12 12q10 10 19 -1q34 -39 92 -39q42 0 64.5 18.5t22.5 53.5q0 71 -97 71h-23q-13 0 -13 13v17q0 13 13 13h20q90 0 90 63q0 32 -21 48.5t-59 16.5q-27 0 -48 -10.5t-36 -28.5
q-10 -12 -19 -1l-13 12q-9 9 -1 19q46 52 119 52q59 0 92 -28t33 -78q0 -32 -15.5 -53t-44.5 -31v-1z" />
    <glyph glyph-name="four.numr" 
d="M266 251q0 -13 -13 -13h-21q-13 0 -13 13v75h-177q-13 0 -13 13v24q0 8 5 16l178 237q7 8 16 8h25q13 0 13 -13v-242h33q13 0 13 -13v-17q0 -13 -13 -13h-33v-75zM80 369h139v186h-1z" />
    <glyph glyph-name="five.numr" 
d="M178 486q56 0 89.5 -35t33.5 -92q0 -60 -36 -94t-99 -34q-78 0 -124 51q-8 9 1 18l12 13q9 10 18 0q36 -39 91 -39q43 0 66.5 22.5t23.5 62.5q0 38 -23 61t-63 23q-47 0 -76 -27q-7 -7 -17 -6l-12 2q-13 2 -11 14l11 185q1 13 14 13h189q13 0 13 -13v-17q0 -13 -13 -13
h-163l-8 -121h1q34 26 82 26z" />
    <glyph glyph-name="six.numr" 
d="M180 487q56 0 88 -34.5t32 -92.5q0 -59 -35 -94t-93 -35q-59 0 -93.5 34.5t-34.5 93.5v141q0 62 34 96.5t94 34.5q65 0 105 -38q7 -9 0 -18l-13 -15q-9 -10 -19 -1q-14 14 -30.5 21.5t-38.5 7.5q-85 0 -85 -92v-47h1q30 38 88 38zM172 274q38 0 59.5 23t21.5 62
q0 40 -21.5 62.5t-59.5 22.5q-37 0 -59 -23t-22 -62t21.5 -62t59.5 -23z" />
    <glyph glyph-name="seven.numr" 
d="M308 586q0 -8 -4 -16l-158 -322q-6 -10 -16 -10h-24q-17 0 -9 15l163 328h-174v-55q0 -13 -13 -13h-20q-13 0 -13 13v85q0 13 13 13h242q13 0 13 -13v-25z" />
    <glyph glyph-name="eight.numr" 
d="M233 440q32 -12 50 -36.5t18 -59.5q0 -54 -36 -83.5t-100 -29.5t-100 29.5t-36 83.5q0 35 18 59t50 36v1q-28 11 -43 33t-15 52q0 50 33 78t93 28t93 -28t33 -78q0 -30 -15 -51.5t-43 -32.5v-1zM165 588q-79 0 -79 -65q0 -31 20.5 -47t58.5 -16t58.5 16t20.5 47
q0 65 -79 65zM165 274q43 0 66 18.5t23 53.5t-23 53t-66 18q-42 0 -65.5 -18t-23.5 -53t23 -53.5t66 -18.5z" />
    <glyph glyph-name="nine.numr" 
d="M158 631q59 0 93.5 -34.5t34.5 -93.5v-141q0 -62 -34 -96.5t-94 -34.5q-65 0 -105 38q-9 9 -1 18l13 16q9 10 17 2q14 -14 32.5 -22.5t39.5 -8.5q85 0 85 92v47h-1q-14 -18 -36.5 -28t-51.5 -10q-56 0 -88 34.5t-32 92.5q0 59 35 94t93 35zM158 418q37 0 59 23t22 62
t-21.5 62t-59.5 23t-59.5 -23t-21.5 -62q0 -40 21.5 -62.5t59.5 -22.5z" />
    <glyph glyph-name="zero.dnom" 
d="M37 260q0 65 32.5 99t95.5 34t95.5 -34t32.5 -99v-134q0 -65 -32.5 -99t-95.5 -34t-95.5 34t-32.5 99v134zM84 130q0 -94 81 -94t81 94v127q0 93 -81 93t-81 -93v-127z" />
    <glyph glyph-name="one.dnom" 
d="M245 13q0 -13 -13 -13h-21q-13 0 -13 13v311l-81 -62q-12 -8 -18 3l-10 15q-8 10 3 18l109 83q7 5 16 5h15q13 0 13 -13v-360z" />
    <glyph glyph-name="two.dnom" 
d="M277 43q13 0 13 -13v-17q0 -13 -13 -13h-218q-13 0 -13 13v18q0 9 7 16l147 149q24 25 34 44t10 42q0 33 -20 50.5t-57 17.5q-27 0 -47.5 -12t-34.5 -34q-7 -12 -18 -4l-15 10q-10 8 -4 18q42 65 121 65q57 0 89.5 -29t32.5 -82q0 -32 -12.5 -57.5t-44.5 -57.5l-124 -124
h167z" />
    <glyph glyph-name="three.dnom" 
d="M233 202q33 -11 51.5 -35t18.5 -61q0 -54 -34.5 -83.5t-97.5 -29.5q-82 0 -126 52q-7 10 1 19l12 12q10 10 19 -1q34 -39 92 -39q42 0 64.5 18.5t22.5 53.5q0 71 -97 71h-23q-13 0 -13 13v17q0 13 13 13h20q90 0 90 63q0 32 -21 48.5t-59 16.5q-27 0 -48 -10.5t-36 -28.5
q-10 -12 -19 -1l-13 12q-9 9 -1 19q46 52 119 52q59 0 92 -28t33 -78q0 -32 -15.5 -53t-44.5 -31v-1z" />
    <glyph glyph-name="four.dnom" 
d="M266 13q0 -13 -13 -13h-21q-13 0 -13 13v75h-177q-13 0 -13 13v24q0 8 5 16l178 237q7 8 16 8h25q13 0 13 -13v-242h33q13 0 13 -13v-17q0 -13 -13 -13h-33v-75zM80 131h139v186h-1z" />
    <glyph glyph-name="five.dnom" 
d="M178 248q56 0 89.5 -35t33.5 -92q0 -60 -36 -94t-99 -34q-78 0 -124 51q-8 9 1 18l12 13q9 10 18 0q36 -39 91 -39q43 0 66.5 22.5t23.5 62.5q0 38 -23 61t-63 23q-47 0 -76 -27q-7 -7 -17 -6l-12 2q-13 2 -11 14l11 185q1 13 14 13h189q13 0 13 -13v-17q0 -13 -13 -13
h-163l-8 -121h1q34 26 82 26z" />
    <glyph glyph-name="six.dnom" 
d="M180 249q56 0 88 -34.5t32 -92.5q0 -59 -35 -94t-93 -35q-59 0 -93.5 34.5t-34.5 93.5v141q0 62 34 96.5t94 34.5q65 0 105 -38q7 -9 0 -18l-13 -15q-9 -10 -19 -1q-14 14 -30.5 21.5t-38.5 7.5q-85 0 -85 -92v-47h1q30 38 88 38zM172 36q38 0 59.5 23t21.5 62
q0 40 -21.5 62.5t-59.5 22.5q-37 0 -59 -23t-22 -62t21.5 -62t59.5 -23z" />
    <glyph glyph-name="seven.dnom" 
d="M308 348q0 -8 -4 -16l-158 -322q-6 -10 -16 -10h-24q-17 0 -9 15l163 328h-174v-55q0 -13 -13 -13h-20q-13 0 -13 13v85q0 13 13 13h242q13 0 13 -13v-25z" />
    <glyph glyph-name="eight.dnom" 
d="M233 202q32 -12 50 -36.5t18 -59.5q0 -54 -36 -83.5t-100 -29.5t-100 29.5t-36 83.5q0 35 18 59t50 36v1q-28 11 -43 33t-15 52q0 50 33 78t93 28t93 -28t33 -78q0 -30 -15 -51.5t-43 -32.5v-1zM165 350q-79 0 -79 -65q0 -31 20.5 -47t58.5 -16t58.5 16t20.5 47
q0 65 -79 65zM165 36q43 0 66 18.5t23 53.5t-23 53t-66 18q-42 0 -65.5 -18t-23.5 -53t23 -53.5t66 -18.5z" />
    <glyph glyph-name="nine.dnom" 
d="M158 393q59 0 93.5 -34.5t34.5 -93.5v-141q0 -62 -34 -96.5t-94 -34.5q-65 0 -105 38q-9 9 -1 18l13 16q9 10 17 2q14 -14 32.5 -22.5t39.5 -8.5q85 0 85 92v47h-1q-14 -18 -36.5 -28t-51.5 -10q-56 0 -88 34.5t-32 92.5q0 59 35 94t93 35zM158 180q37 0 59 23t22 62
t-21.5 62t-59.5 23t-59.5 -23t-21.5 -62q0 -40 21.5 -62.5t59.5 -22.5z" />
    </font>
</defs>
</svg>
