<?xml version="1.0" standalone="no"?>
<!DOCTYPE svg PUBLIC "-//W3C//DTD SVG 1.1//EN" "http://www.w3.org/Graphics/SVG/1.1/DTD/svg11.dtd" >
<svg>
<metadata>
Created by FontForge 20120731 at Mon Jul 10 16:05:40 2017
 By www
Copyright (c) 2014 by Ryoichi Tsunekawa. All rights reserved.
</metadata>
<defs>
<font id="KiroW03-Italic" horiz-adv-x="330" >
  <font-face 
    font-family="KiroW03-Italic"
    font-weight="400"
    font-style="italic"
    font-stretch="normal"
    units-per-em="1000"
    panose-1="2 15 6 6 2 2 3 11 2 4"
    ascent="800"
    descent="-200"
    x-height="495"
    cap-height="664"
    bbox="-204.235 -203.562 1053.04 912"
    underline-thickness="50"
    underline-position="-75"
    slope="-9"
    unicode-range="U+0020-FB04"
  />
<missing-glyph horiz-adv-x="600" 
d="M83 664h462v-664h-462v664zM314 375l156 248h-312zM128 79l159 253l-159 253v-506zM500 585l-159 -253l159 -253v506zM158 41h312l-156 248z" />
    <glyph glyph-name="uniFB00" unicode="ff" horiz-adv-x="612" 
d="M697 691q8 -4 9.5 -10.5t-2.5 -14.5l-16 -32q-9 -16 -24 -8q-27 14 -65 14q-42 0 -67 -27t-33 -77l-7 -41h135q21 0 18 -20l-5 -35q-3 -17 -21 -17h-138l-64 -406q-3 -17 -21 -17h-44q-21 0 -18 20l64 403h-199l-64 -406q-3 -17 -21 -17h-44q-21 0 -18 20l64 403h-49
q-21 0 -18 20l5 35q3 17 21 17h53l5 32q13 85 63 130t135 45q41 0 77 -11.5t59 -30.5q47 52 130 52q59 0 100 -21zM417 542q4 27 12 51q-17 16 -42 26.5t-57 10.5q-47 0 -77 -29t-38 -80l-4 -26h199z" />
    <glyph glyph-name="uniFB01" unicode="fi" horiz-adv-x="518" 
d="M470 495q21 0 18 -20l-73 -458q-3 -17 -21 -17h-44q-21 0 -18 20l64 403h-197l-64 -406q-3 -17 -21 -17h-44q-21 0 -18 20l64 403h-49q-21 0 -18 20l5 35q3 17 21 17h53l7 47q14 83 61.5 126.5t131.5 43.5q42 0 73 -9t54 -26q13 -10 4 -26l-21 -30q-10 -15 -26 -4
q-17 11 -37.5 17t-47.5 6q-48 0 -75 -27.5t-35 -76.5l-7 -41h260z" />
    <glyph glyph-name="uniFB02" unicode="fl" horiz-adv-x="528" 
d="M513 700q21 0 18 -20l-105 -663q-3 -17 -21 -17h-44q-21 0 -18 20l92 578q-17 18 -43.5 30t-61.5 12q-47 0 -76.5 -29t-37.5 -80l-6 -36h120q21 0 18 -20l-5 -35q-3 -17 -21 -17h-123l-64 -406q-3 -17 -21 -17h-44q-21 0 -18 20l64 403h-49q-21 0 -18 20l5 35q3 17 21 17
h52l7 42q14 85 63 130t134 45q35 0 64.5 -7.5t52.5 -20.5q3 16 21 16h44z" />
    <glyph glyph-name="uniFB03" unicode="ffi" horiz-adv-x="800" 
d="M752 495q21 0 18 -20l-73 -458q-3 -17 -21 -17h-44q-21 0 -18 20l64 403h-197l-64 -406q-3 -17 -21 -17h-44q-21 0 -18 20l64 403h-199l-64 -406q-3 -17 -21 -17h-44q-21 0 -18 20l64 403h-49q-21 0 -18 20l5 35q3 17 21 17h53l5 32q13 85 63 130t135 45q42 0 78 -12
t60 -32q48 54 141 54q42 0 73 -9t54 -26q13 -10 4 -26l-21 -30q-10 -15 -26 -4q-17 11 -37.5 17t-47.5 6q-48 0 -75 -27.5t-35 -76.5l-7 -41h260zM417 542q2 14 5 26.5t8 23.5q-17 17 -42.5 27.5t-57.5 10.5q-47 0 -77 -29t-38 -80l-4 -26h199z" />
    <glyph glyph-name="uniFB04" unicode="ffl" horiz-adv-x="810" 
d="M795 700q21 0 18 -20l-105 -663q-3 -17 -21 -17h-44q-21 0 -18 20l92 578q-17 18 -43.5 30t-61.5 12q-47 0 -76.5 -29t-37.5 -80l-6 -36h120q21 0 18 -20l-5 -35q-3 -17 -21 -17h-123l-64 -406q-3 -17 -21 -17h-44q-21 0 -18 20l64 403h-199l-64 -406q-3 -17 -21 -17h-44
q-21 0 -18 20l64 403h-49q-21 0 -18 20l5 35q3 17 21 17h53l5 32q13 85 63 130t135 45q42 0 78.5 -12t59.5 -32q51 54 144 54q35 0 64.5 -7.5t52.5 -20.5q3 16 21 16h44zM416 537q2 15 5.5 28.5t8.5 26.5q-17 17 -42.5 27.5t-57.5 10.5q-47 0 -77 -29t-38 -80l-4 -26h198z
" />
    <glyph glyph-name="f_b.liga" unicode="fb" horiz-adv-x="805" 
d="M496 461h2q43 46 117 46q76 0 115.5 -37.5t39.5 -108.5q0 -22 -4 -45l-22 -142q-30 -186 -209 -186q-82 0 -126 39t-44 111q0 19 3 42l67 418q-17 18 -43.5 30t-61.5 12q-47 0 -76.5 -29t-37.5 -80l-6 -36h120q21 0 18 -20l-5 -35q-3 -17 -21 -17h-123l-64 -406
q-3 -17 -21 -17h-44q-21 0 -18 20l64 403h-49q-21 0 -18 20l5 35q3 17 21 17h52l7 42q14 85 63 130t134 45q35 0 64.5 -7.5t52.5 -20.5q3 16 21 16h44q21 0 18 -20zM682 310q3 21 3 38q0 87 -90 87q-105 0 -124 -126l-19 -124q-3 -21 -3 -38q0 -45 22.5 -66t67.5 -21
q54 0 83.5 30.5t39.5 95.5z" />
    <glyph glyph-name="f_f_b.liga" unicode="ffb" horiz-adv-x="1087" 
d="M730 684q3 16 21 16h44q21 0 18 -20l-35 -219h2q43 46 117 46q76 0 115.5 -37.5t39.5 -108.5q0 -22 -4 -45l-22 -142q-30 -186 -209 -186q-82 0 -126 39t-44 111q0 19 3 42l67 418q-17 18 -43.5 30t-61.5 12q-47 0 -76.5 -29t-37.5 -80l-6 -36h120q21 0 18 -20l-5 -35
q-3 -17 -21 -17h-123l-64 -406q-3 -17 -21 -17h-44q-21 0 -18 20l64 403h-199l-64 -406q-3 -17 -21 -17h-44q-21 0 -18 20l64 403h-49q-21 0 -18 20l5 35q3 17 21 17h53l5 32q13 85 63 130t135 45q42 0 78.5 -12t59.5 -32q51 54 144 54q35 0 64.5 -7.5t52.5 -20.5zM416 537
q2 15 5.5 28.5t8.5 26.5q-17 17 -42.5 27.5t-57.5 10.5q-47 0 -77 -29t-38 -80l-4 -26h198zM964 310q3 21 3 38q0 87 -90 87q-105 0 -124 -126l-19 -124q-3 -21 -3 -38q0 -45 22.5 -66t67.5 -21q54 0 83.5 30.5t39.5 95.5z" />
    <glyph glyph-name="f_h.liga" unicode="fh" horiz-adv-x="811" 
d="M496 462h2q42 45 116 45q73 0 111.5 -37t38.5 -106q0 -11 -1 -22t-3 -23l-48 -302q-3 -17 -21 -17h-44q-21 0 -18 20l47 294q3 21 3 37q0 84 -87 84q-51 0 -80 -30.5t-39 -91.5l-47 -296q-3 -17 -21 -17h-44q-21 0 -18 20l92 578q-17 18 -43.5 30t-61.5 12
q-47 0 -76.5 -29t-37.5 -80l-6 -36h120q21 0 18 -20l-5 -35q-3 -17 -21 -17h-123l-64 -406q-3 -17 -21 -17h-44q-21 0 -18 20l64 403h-49q-21 0 -18 20l5 35q3 17 21 17h52l7 42q14 85 63 130t134 45q35 0 64.5 -7.5t52.5 -20.5q3 16 21 16h44q21 0 18 -20z" />
    <glyph glyph-name="f_f_h.liga" unicode="ffh" horiz-adv-x="1093" 
d="M730 684q3 16 21 16h44q21 0 18 -20l-35 -218h2q42 45 116 45q73 0 111.5 -37t38.5 -106q0 -11 -1 -22t-3 -23l-48 -302q-3 -17 -21 -17h-44q-21 0 -18 20l47 294q3 21 3 37q0 84 -87 84q-51 0 -80 -30.5t-39 -91.5l-47 -296q-3 -17 -21 -17h-44q-21 0 -18 20l92 578
q-17 18 -43.5 30t-61.5 12q-47 0 -76.5 -29t-37.5 -80l-6 -36h120q21 0 18 -20l-5 -35q-3 -17 -21 -17h-123l-64 -406q-3 -17 -21 -17h-44q-21 0 -18 20l64 403h-199l-64 -406q-3 -17 -21 -17h-44q-21 0 -18 20l64 403h-49q-21 0 -18 20l5 35q3 17 21 17h53l5 32
q13 85 63 130t135 45q42 0 78.5 -12t59.5 -32q51 54 144 54q35 0 64.5 -7.5t52.5 -20.5zM416 537q2 15 5.5 28.5t8.5 26.5q-17 17 -42.5 27.5t-57.5 10.5q-47 0 -77 -29t-38 -80l-4 -26h198z" />
    <glyph glyph-name="f_j.liga" unicode="fj" horiz-adv-x="518" 
d="M470 495q21 0 18 -20l-78 -491q-24 -144 -159 -144h-13q-21 0 -18 20l5 35q3 17 21 17q69 0 81 75l69 436h-197l-64 -406q-3 -17 -21 -17h-44q-21 0 -18 20l64 403h-49q-21 0 -18 20l5 35q3 17 21 17h53l7 47q14 83 61.5 126.5t131.5 43.5q42 0 73 -9t54 -26
q13 -10 4 -26l-21 -30q-10 -15 -26 -4q-17 11 -37.5 17t-47.5 6q-48 0 -75 -27.5t-35 -76.5l-7 -41h260z" />
    <glyph glyph-name="f_f_j.liga" unicode="ffj" horiz-adv-x="800" 
d="M752 495q21 0 18 -20l-78 -491q-24 -144 -159 -144h-13q-21 0 -18 20l5 35q3 17 21 17q69 0 81 75l69 436h-197l-64 -406q-3 -17 -21 -17h-44q-21 0 -18 20l64 403h-199l-64 -406q-3 -17 -21 -17h-44q-21 0 -18 20l64 403h-49q-21 0 -18 20l5 35q3 17 21 17h53l5 32
q13 85 63 130t135 45q42 0 78 -12t60 -32q48 54 141 54q42 0 73 -9t54 -26q13 -10 4 -26l-21 -30q-10 -15 -26 -4q-17 11 -37.5 17t-47.5 6q-48 0 -75 -27.5t-35 -76.5l-7 -41h260zM417 542q2 14 5 26.5t8 23.5q-17 17 -42.5 27.5t-57.5 10.5q-47 0 -77 -29t-38 -80l-4 -26
h199z" />
    <glyph glyph-name="f_k.liga" unicode="fk" horiz-adv-x="762" 
d="M435 598q-17 18 -43.5 30t-61.5 12q-47 0 -76.5 -29t-37.5 -80l-6 -36h120q21 0 18 -20l-5 -35q-3 -17 -21 -17h-123l-64 -406q-3 -17 -21 -17h-44q-21 0 -18 20l64 403h-49q-21 0 -18 20l5 35q3 17 21 17h52l7 42q14 85 63 130t134 45q35 0 64.5 -7.5t52.5 -20.5
q3 16 21 16h44q21 0 18 -20l-63 -396h2l202 201q10 10 24 10h59q13 0 15.5 -7t-6.5 -16l-225 -220l163 -229q7 -10 3.5 -16.5t-15.5 -6.5h-54q-14 0 -23 12l-153 221l-34 -216q-3 -17 -21 -17h-44q-21 0 -18 20l92 578v0z" />
    <glyph glyph-name="f_f_k.liga" unicode="ffk" horiz-adv-x="1044" 
d="M730 684q3 16 21 16h44q21 0 18 -20l-63 -396h2l202 201q10 10 24 10h59q13 0 15.5 -7t-6.5 -16l-225 -220l163 -229q7 -10 3.5 -16.5t-15.5 -6.5h-54q-14 0 -23 12l-153 221l-34 -216q-3 -17 -21 -17h-44q-21 0 -18 20l92 578q-17 18 -43.5 30t-61.5 12q-47 0 -76.5 -29
t-37.5 -80l-6 -36h120q21 0 18 -20l-5 -35q-3 -17 -21 -17h-123l-64 -406q-3 -17 -21 -17h-44q-21 0 -18 20l64 403h-199l-64 -406q-3 -17 -21 -17h-44q-21 0 -18 20l64 403h-49q-21 0 -18 20l5 35q3 17 21 17h53l5 32q13 85 63 130t135 45q42 0 78.5 -12t59.5 -32
q51 54 144 54q35 0 64.5 -7.5t52.5 -20.5zM416 537q2 15 5.5 28.5t8.5 26.5q-17 17 -42.5 27.5t-57.5 10.5q-47 0 -77 -29t-38 -80l-4 -26h198z" />
    <glyph glyph-name="f_t.liga" unicode="ft" horiz-adv-x="637" 
d="M438 149q-1 -6 -1.5 -12t-0.5 -11q0 -66 67 -66q13 0 25 3.5t23 8.5q19 10 25 -9l11 -32q5 -17 -10 -25q-36 -18 -83 -18q-69 0 -105.5 32t-36.5 93q0 16 3 36l43 274h-199l-64 -406q-3 -17 -21 -17h-44q-21 0 -18 20l64 403h-49q-21 0 -18 20l5 35q3 17 21 17h53l7 47
q14 83 60.5 126.5t125.5 43.5q35 0 64 -7.5t50 -20.5q15 -11 5 -27l-19 -30q-10 -15 -27 -4q-27 17 -71 17q-45 0 -71.5 -27.5t-34.5 -76.5l-7 -41h199l11 75q3 17 21 17h44q21 0 18 -20l-11 -72h135q21 0 18 -20l-6 -35q-3 -17 -20 -17h-138z" />
    <glyph glyph-name="f_f_t.liga" unicode="fft" horiz-adv-x="919" 
d="M909 495q21 0 18 -20l-6 -35q-3 -17 -20 -17h-138l-43 -274q-1 -6 -1.5 -12t-0.5 -11q0 -66 67 -66q13 0 25 3.5t23 8.5q19 10 25 -9l11 -32q5 -17 -10 -25q-36 -18 -83 -18q-69 0 -105.5 32t-36.5 93q0 16 3 36l43 274h-199l-64 -406q-3 -17 -21 -17h-44q-21 0 -18 20
l64 403h-199l-64 -406q-3 -17 -21 -17h-44q-21 0 -18 20l64 403h-49q-21 0 -18 20l5 35q3 17 21 17h53l5 32q13 85 63 130t135 45q41 0 77.5 -12t59.5 -31q48 53 135 53q35 0 64 -7.5t50 -20.5q15 -11 5 -27l-19 -30q-10 -15 -27 -4q-27 17 -71 17q-45 0 -71.5 -27.5
t-34.5 -76.5l-7 -41h199l11 75q3 17 21 17h44q21 0 18 -20l-11 -72h135zM417 542q2 14 5 26.5t8 23.5q-17 17 -42.5 27.5t-57.5 10.5q-47 0 -77 -29t-38 -80l-4 -26h199z" />
    <glyph glyph-name=".notdef" horiz-adv-x="600" 
d="M83 664h462v-664h-462v664zM314 375l156 248h-312zM128 79l159 253l-159 253v-506zM500 585l-159 -253l159 -253v506zM158 41h312l-156 248z" />
    <glyph glyph-name=".null" horiz-adv-x="0" 
 />
    <glyph glyph-name="nonmarkingreturn" horiz-adv-x="333" 
 />
    <glyph glyph-name="space" unicode=" " horiz-adv-x="215" 
 />
    <glyph glyph-name="exclam" unicode="!" horiz-adv-x="235" 
d="M203 664q21 0 18 -20l-42 -268l-45 -182q-3 -12 -15 -12h-21q-16 0 -14 14l13 180l42 271q3 17 21 17h43zM80 -12q-23 0 -37 14t-14 37q0 26 17.5 43t42.5 17q23 0 37 -14.5t14 -36.5q0 -26 -17.5 -43t-42.5 -17z" />
    <glyph glyph-name="quotedbl" unicode="&#x22;" horiz-adv-x="377" 
d="M166 448q-3 -14 -17 -14h-27q-17 0 -15 17l20 195q1 18 20 18h44q20 0 17 -21zM333 448q-3 -14 -17 -14h-27q-17 0 -15 17l20 195q1 18 20 18h44q20 0 17 -21z" />
    <glyph glyph-name="numbersign" unicode="#" horiz-adv-x="529" 
d="M455 252q19 0 14 -19l-11 -33q-4 -14 -20 -14h-80l-57 -172q-6 -14 -20 -14h-35q-19 0 -14 19l56 167h-115l-57 -172q-6 -14 -20 -14h-35q-19 0 -14 19l56 167h-74q-19 0 -14 19l11 33q4 14 20 14h79l47 140h-75q-19 0 -14 19l11 33q4 14 20 14h80l51 152q6 14 20 14h34
q9 0 13 -5.5t1 -13.5l-49 -147h115l51 152q6 14 20 14h34q9 0 13 -5.5t1 -13.5l-49 -147h74q19 0 14 -19l-11 -33q-4 -14 -20 -14h-79l-47 -140h75zM195 252h115l47 140h-115z" />
    <glyph glyph-name="dollar" unicode="$" horiz-adv-x="529" 
d="M313 346q86 -11 122.5 -44t36.5 -95q0 -87 -57.5 -140t-155.5 -58l-10 -65q-2 -14 -16 -14h-26q-16 0 -13 16l10 63q-60 5 -102 27t-71 64q-9 15 5 26l35 26q15 12 26 -5q20 -28 48.5 -43t70.5 -19l30 191q-87 10 -123.5 44t-36.5 97q0 43 15 78.5t43 61.5t67.5 41
t88.5 18l9 58q2 14 16 14h26q16 0 13 -16l-9 -58q99 -11 144 -76q11 -15 -5 -26l-34 -26q-15 -12 -27 5q-30 40 -90 47zM171 432q0 -32 20.5 -50t66.5 -27l29 184q-54 -6 -85 -34.5t-31 -72.5zM387 193q0 31 -20 48.5t-67 26.5l-28 -183q54 7 84.5 36t30.5 72z" />
    <glyph glyph-name="percent" unicode="%" horiz-adv-x="633" 
d="M73 516q18 120 133 120q52 0 81 -25.5t29 -73.5v-12.5t-2 -14.5l-12 -79q-18 -121 -132 -121q-53 0 -82 26t-29 74v12.5t2 14.5zM123 434q-1 -6 -1.5 -11t-0.5 -10q0 -46 51 -46q30 0 46 17t22 53l12 76q1 5 1.5 9.5t0.5 9.5q0 47 -50 47q-32 0 -47.5 -17t-21.5 -53z
M350 194q18 120 133 120q52 0 81 -25.5t29 -73.5v-12.5t-2 -14.5l-12 -79q-18 -121 -132 -121q-53 0 -82 26t-29 74v12.5t2 14.5zM400 112q-1 -6 -1.5 -11t-0.5 -10q0 -46 51 -46q30 0 46 17t22 53l12 76q1 5 1.5 9.5t0.5 9.5q0 47 -50 47q-32 0 -47.5 -17t-21.5 -53z
M535 615q7 9 18 9h43q10 0 12.5 -5t-3.5 -13l-487 -597q-8 -9 -18 -9h-43q-10 0 -12.5 5t3.5 13z" />
    <glyph glyph-name="ampersand" unicode="&#x26;" horiz-adv-x="591" 
d="M551 316q18 -6 10 -25q-47 -104 -98 -170l73 -98q7 -10 3.5 -16.5t-15.5 -6.5h-61q-15 0 -23 12l-35 47q-83 -71 -193 -71q-88 0 -139 46.5t-51 124.5q0 72 35.5 126t110.5 98q-32 55 -32 110q0 85 54 134t146 49q40 0 75 -11.5t61 -32.5q14 -11 2 -26l-23 -31
q-12 -15 -27 -3q-37 29 -86 29q-55 0 -86.5 -28.5t-31.5 -79.5q0 -25 10.5 -48.5t31.5 -52.5l153 -206q20 27 39 60.5t36 73.5q8 18 24 11zM225 64q71 0 134 57l-149 200q-53 -32 -77.5 -69t-24.5 -86q0 -45 30.5 -73.5t86.5 -28.5z" />
    <glyph glyph-name="quotesingle" unicode="'" horiz-adv-x="210" 
d="M166 448q-3 -14 -17 -14h-27q-17 0 -15 17l20 195q1 18 20 18h44q20 0 17 -21z" />
    <glyph glyph-name="parenleft" unicode="(" horiz-adv-x="329" 
d="M160 185q0 -67 15 -131.5t48 -123.5q10 -20 -12 -20h-41q-14 0 -21 12q-35 62 -53.5 131t-18.5 141q0 50 10 108t32.5 118t58.5 120t88 115q8 9 21 9h41q11 0 11 -9t-10 -21q-46 -56 -78 -114t-52.5 -115.5t-29.5 -113t-9 -106.5z" />
    <glyph glyph-name="parenright" unicode=")" horiz-adv-x="329" 
d="M181 389q0 67 -15 131.5t-48 123.5q-10 20 12 20h41q13 0 21 -12q35 -62 53.5 -131t18.5 -141q0 -50 -10 -108t-32.5 -118t-58.5 -120t-88 -115q-8 -9 -21 -9h-41q-11 0 -11 9t10 21q46 56 78 114t52 115.5t29.5 113t9.5 106.5z" />
    <glyph glyph-name="asterisk" unicode="*" horiz-adv-x="479" 
d="M380 301q-16 -11 -25 6l-79 141l-93 -143q-9 -15 -25 -4l-29 21q-16 11 -3 25l116 127l-160 38q-18 3 -12 22l13 36q6 17 23 11l152 -66l-5 167q0 18 18 18h38q19 0 16 -19l-23 -164l155 64q18 7 23 -11l10 -36q4 -18 -13 -22l-166 -39l103 -125q12 -15 -3 -26z" />
    <glyph glyph-name="plus" unicode="+" horiz-adv-x="529" 
d="M272 53q-3 -17 -21 -17h-38q-21 0 -18 20l29 184h-183q-21 0 -18 20l6 40q3 17 21 17h187l29 188q3 17 21 17h38q21 0 18 -20l-29 -185h183q21 0 18 -20l-6 -40q-3 -17 -21 -17h-187z" />
    <glyph glyph-name="comma" unicode="," horiz-adv-x="233" 
d="M88 99q23 0 36.5 -14.5t13.5 -39.5q0 -42 -25.5 -84.5t-70.5 -75.5q-10 -8 -18 3l-13 17q-8 10 2 18q17 14 30.5 32t19.5 42q-34 10 -34 44q0 28 16.5 43t42.5 15z" />
    <glyph glyph-name="hyphen" unicode="-" horiz-adv-x="332" 
d="M49 233q-21 0 -18 20l6 42q3 17 21 17h233q21 0 18 -20l-6 -42q-3 -17 -21 -17h-233z" />
    <glyph glyph-name="period" unicode="." horiz-adv-x="233" 
d="M79 -12q-23 0 -37 14t-14 37q0 26 17.5 43t42.5 17q23 0 37 -14.5t14 -36.5q0 -26 -17.5 -43t-42.5 -17z" />
    <glyph glyph-name="slash" unicode="/" horiz-adv-x="356" 
d="M317 652q6 12 20 12h42q23 0 13 -20l-327 -632q-6 -12 -20 -12h-42q-23 0 -13 20z" />
    <glyph glyph-name="zero" unicode="0" horiz-adv-x="529" 
d="M79 424q33 212 237 212q92 0 142 -43.5t50 -125.5q0 -11 -1 -23.5t-3 -25.5l-34 -217q-17 -106 -75.5 -159.5t-161.5 -53.5q-92 0 -142 44t-50 125q0 26 4 49zM131 208q-3 -21 -3 -39q0 -105 110 -105q125 0 147 145l33 207q3 21 3 39q0 105 -110 105q-125 0 -147 -145z
" />
    <glyph glyph-name="one" unicode="1" horiz-adv-x="529" 
d="M346 17q-3 -17 -21 -17h-47q-21 0 -18 20l78 487l-143 -93q-15 -11 -26 6l-19 32q-9 17 6 26l208 139q11 7 24 7h33q21 0 18 -20z" />
    <glyph glyph-name="two" unicode="2" horiz-adv-x="529" 
d="M507 475q0 -31 -6.5 -57t-20.5 -50t-37 -48t-56 -52l-227 -190v-2h265q21 0 18 -20l-6 -39q-3 -17 -21 -17h-369q-20 0 -17 20l5 39q1 13 12 22l283 241q26 22 43.5 40.5t28 35.5t15 34.5t4.5 37.5q0 42 -28 66t-76 24q-45 0 -81.5 -21t-65.5 -59q-12 -15 -27 -3l-29 26
q-13 13 -2 27q42 52 97 79t119 27q81 0 130 -43t49 -118z" />
    <glyph glyph-name="three" unicode="3" horiz-adv-x="529" 
d="M395 321q40 -17 61.5 -51t21.5 -82q0 -94 -64 -147t-180 -53q-139 0 -201 88q-9 15 4 26l32 27q14 12 26 -4q45 -61 142 -61q75 0 115 34.5t40 95.5q0 92 -136 92h-39q-21 0 -18 20l6 39q3 17 21 17h36q83 0 121.5 26.5t38.5 84.5q0 42 -29 64.5t-82 22.5
q-44 0 -81 -17.5t-68 -49.5q-15 -15 -27 1l-25 30q-11 14 2 27q44 43 97.5 64t113.5 21q86 0 135.5 -41t49.5 -114q0 -60 -29 -100t-84 -58v-2z" />
    <glyph glyph-name="four" unicode="4" horiz-adv-x="529" 
d="M481 217q22 0 17 -21l-6 -38q-3 -17 -21 -17h-58l-19 -124q-3 -17 -21 -17h-47q-21 0 -18 20l19 121h-288q-21 0 -18 20l8 46q1 13 11 23l355 384q9 10 23 10h51q21 0 18 -20l-62 -387h56zM133 217h206l45 276h-2z" />
    <glyph glyph-name="five" unicode="5" horiz-adv-x="529" 
d="M492 624q21 0 18 -20l-6 -39q-3 -17 -21 -17h-266l-40 -180h2q53 33 125 33q39 0 71.5 -13t56 -36.5t36.5 -57t13 -74.5q0 -53 -17 -96t-49 -73t-78 -46.5t-104 -16.5q-138 0 -200 88q-11 15 3 27l31 27q14 12 26 -4q24 -32 59.5 -47t83.5 -15q73 0 115.5 40t42.5 108
q0 53 -31 83t-85 30q-75 0 -129 -43q-11 -8 -25 -7l-28 5q-18 3 -15 22l69 305q4 17 21 17h321z" />
    <glyph glyph-name="six" unicode="6" horiz-adv-x="529" 
d="M165 350q56 54 146 54q39 0 70 -13t53.5 -36.5t34.5 -56.5t12 -74q0 -53 -17 -96.5t-48.5 -74.5t-75.5 -48t-98 -17q-91 0 -141.5 47.5t-50.5 128.5q0 19 3 40l36 221q16 101 78 156t162 55q56 0 99 -16.5t73 -46.5q11 -13 -1 -27l-32 -30q-13 -13 -27 1q-40 43 -112 43
q-66 0 -105 -37t-50 -107l-11 -66h2zM287 328q-58 0 -98 -36t-50 -97q-2 -7 -2 -13.5v-13.5q0 -49 29.5 -76.5t82.5 -27.5q67 0 106 41.5t39 111.5q0 52 -28.5 81.5t-78.5 29.5z" />
    <glyph glyph-name="seven" unicode="7" horiz-adv-x="529" 
d="M197 12q-9 -12 -23 -12h-57q-12 0 -15.5 6.5t2.5 16.5l349 525h-274l-14 -92q-3 -17 -21 -17h-41q-21 0 -18 20l23 148q3 17 21 17h408q21 0 18 -20l-7 -48q-1 -11 -9 -22z" />
    <glyph glyph-name="eight" unicode="8" horiz-adv-x="529" 
d="M396 319q41 -20 61.5 -53t20.5 -78q0 -47 -16.5 -84t-48 -62.5t-76 -39.5t-100.5 -14q-101 0 -156 43.5t-55 122.5q0 66 34 110.5t97 64.5v2q-68 39 -68 118q0 89 60 138t164 49q94 0 144.5 -41t50.5 -114q0 -59 -29 -99.5t-83 -60.5v-2zM310 560q-63 0 -99.5 -30.5
t-36.5 -82.5q0 -41 29.5 -63t83.5 -22q63 0 99.5 29t36.5 83q0 42 -29 64t-84 22zM240 64q71 0 111.5 33t40.5 94q0 46 -33 70.5t-94 24.5q-71 0 -112 -33t-41 -93q0 -48 33 -72t95 -24z" />
    <glyph glyph-name="nine" unicode="9" horiz-adv-x="529" 
d="M308 636q90 0 140.5 -47t50.5 -128q0 -20 -3 -41l-36 -221q-16 -101 -78 -156t-162 -55q-56 0 -99.5 16.5t-72.5 46.5q-12 13 0 27l29 31q13 13 27 -1q43 -44 116 -44q66 0 105 37t50 107l11 67h-2q-55 -55 -146 -55q-39 0 -70 13t-53.5 36.5t-34.5 56.5t-12 74
q0 53 17 96.5t48.5 74.5t76 48t98.5 17zM410 429q1 7 1.5 13.5t0.5 13.5q0 49 -30 76.5t-81 27.5q-70 0 -108 -41.5t-38 -111.5q0 -52 28.5 -81.5t78.5 -29.5q58 0 98 36t50 97z" />
    <glyph glyph-name="colon" unicode=":" horiz-adv-x="233" 
d="M79 -12q-23 0 -37 14t-14 37q0 26 17.5 43t42.5 17q23 0 37 -14.5t14 -36.5q0 -26 -17.5 -43t-42.5 -17zM139 363q-23 0 -37 14t-14 37q0 26 17.5 43t42.5 17q23 0 37 -14.5t14 -36.5q0 -26 -17.5 -43t-42.5 -17z" />
    <glyph glyph-name="semicolon" unicode=";" horiz-adv-x="233" 
d="M88 99q23 0 36.5 -14.5t13.5 -39.5q0 -42 -25.5 -84.5t-70.5 -75.5q-10 -8 -18 3l-13 17q-8 10 2 18q17 14 30.5 32t19.5 42q-34 10 -34 44q0 28 16.5 43t42.5 15zM139 363q-23 0 -37 14t-14 37q0 26 17.5 43t42.5 17q23 0 37 -14.5t14 -36.5q0 -26 -17.5 -43t-42.5 -17z
" />
    <glyph glyph-name="less" unicode="&#x3c;" horiz-adv-x="529" 
d="M506 507q11 5 17 0t4 -16l-6 -44q-2 -15 -16 -21l-362 -150v-2l311 -147q16 -8 13 -23l-6 -41q-2 -10 -8.5 -13.5t-15.5 1.5l-383 186q-14 7 -13 23l6 39q2 15 16 21z" />
    <glyph glyph-name="equal" unicode="=" horiz-adv-x="529" 
d="M74 353q-21 0 -18 20l6 40q3 17 21 17h417q21 0 18 -20l-6 -40q-3 -17 -21 -17h-417zM39 128q-21 0 -18 20l6 40q3 17 21 17h417q20 0 17 -20l-6 -39q-2 -18 -20 -18h-417z" />
    <glyph glyph-name="greater" unicode="&#x3e;" horiz-adv-x="529" 
d="M483 321q14 -7 13 -23l-6 -39q-2 -15 -16 -21l-443 -187q-11 -5 -17 0t-4 16l6 44q2 15 16 21l362 150v2l-311 147q-16 8 -13 23l6 41q2 10 8.5 13.5t15.5 -1.5z" />
    <glyph glyph-name="question" unicode="?" horiz-adv-x="454" 
d="M290 676q83 0 132 -43.5t49 -117.5q0 -33 -7 -60t-23 -50t-41 -43t-62 -39q-28 -15 -46.5 -28t-30.5 -26t-18 -27t-9 -31l-2 -12q-3 -17 -21 -17h-39q-21 0 -18 20l3 19q8 51 36.5 87.5t91.5 71.5q29 16 48.5 31t31 30.5t16 32.5t4.5 38q0 41 -27 64.5t-75 23.5
q-87 0 -152 -82q-13 -17 -28 -2l-27 27q-13 11 0 27q42 52 96.5 79t117.5 27zM164 -12q-23 0 -37 14t-14 37q0 26 17.5 43t42.5 17q23 0 37 -14.5t14 -36.5q0 -26 -17.5 -43t-42.5 -17z" />
    <glyph glyph-name="at" unicode="@" horiz-adv-x="731" 
d="M451 337q3 19 3 35q0 37 -18 51.5t-53 14.5q-21 0 -40.5 -8.5t-35.5 -19.5q-14 -11 -23 3l-12 20q-7 13 4 22q27 21 56 30t60 9q63 0 95 -29t32 -85q0 -17 -3 -35l-18 -114q-1 -6 -1.5 -11.5t-0.5 -10.5q0 -48 42 -48q31 0 51.5 27t31.5 64.5t15.5 77.5t4.5 66
q0 48 -12 89t-37 71t-63.5 47t-92.5 17q-65 0 -115 -19.5t-86.5 -52t-60.5 -74t-38.5 -86t-20.5 -88t-6 -78.5q0 -116 62.5 -179.5t180.5 -63.5q52 0 95.5 13t75.5 35q14 9 22 -6l12 -24q6 -15 -7 -22q-43 -26 -94 -38.5t-108 -12.5q-146 0 -224 78t-78 218q0 43 8 93.5
t26 101.5t47.5 98t73.5 83t103 58t136 22q68 0 117.5 -21t82 -58.5t48.5 -89t16 -111.5q0 -42 -7.5 -92.5t-26.5 -94.5t-52.5 -74t-84.5 -30q-34 0 -54.5 14.5t-27.5 40.5h-2q-21 -28 -51.5 -41.5t-66.5 -13.5q-53 0 -83 26.5t-30 74.5q0 61 37.5 96t112.5 35h83zM371 282
q-88 0 -88 -74q0 -47 61 -47q35 0 60.5 22.5t33.5 70.5l4 28h-71z" />
    <glyph glyph-name="A" unicode="A" horiz-adv-x="587" 
d="M522 21q3 -21 -17 -21h-52q-18 0 -21 17l-19 115h-272l-56 -118q-7 -14 -23 -14h-55q-24 0 -14 22l311 628q7 14 22 14h63q17 0 20 -17zM343 557l-164 -346h222l-56 346h-2z" />
    <glyph glyph-name="B" unicode="B" horiz-adv-x="564" 
d="M425 336q90 -33 90 -134q0 -106 -60.5 -154t-192.5 -48h-201q-21 0 -18 20l99 627q3 17 21 17h181q102 0 152.5 -36t50.5 -114q0 -141 -122 -176v-2zM301 376q80 0 117.5 30t37.5 93q0 45 -29.5 65.5t-90.5 20.5h-113l-34 -209h112zM271 79q80 0 117 31.5t37 97.5
q0 47 -29 68t-89 21h-130l-35 -218h129z" />
    <glyph glyph-name="C" unicode="C" horiz-adv-x="527" 
d="M261 67q50 0 86 20.5t63 60.5q11 16 26 5l35 -23q16 -10 5 -26q-41 -60 -93.5 -88t-127.5 -28q-100 0 -153 48.5t-53 140.5q0 13 1 26.5t3 27.5l33 208q19 118 83.5 177.5t179.5 59.5q73 0 123.5 -30t73.5 -90q6 -17 -10 -25l-40 -18q-17 -7 -25 11q-32 73 -127 73
q-144 0 -171 -173l-29 -187q-2 -14 -3 -26.5t-1 -23.5q0 -120 121 -120z" />
    <glyph glyph-name="D" unicode="D" horiz-adv-x="591" 
d="M358 664q104 0 157.5 -44.5t53.5 -132.5q0 -13 -1.5 -26.5t-3.5 -27.5l-33 -207q-18 -115 -83.5 -170.5t-185.5 -55.5h-201q-21 0 -18 20l99 627q3 17 21 17h195zM473 425q4 23 4 46q0 114 -130 114h-124l-81 -506h123q78 0 121 39.5t57 121.5z" />
    <glyph glyph-name="E" unicode="E" horiz-adv-x="538" 
d="M450 375q21 0 18 -20l-7 -42q-3 -17 -21 -17h-263l-35 -217h305q21 0 18 -20l-7 -42q-3 -17 -21 -17h-376q-21 0 -18 20l99 627q3 17 21 17h377q20 0 17 -20l-6 -41q-2 -18 -20 -18h-308l-34 -210h261z" />
    <glyph glyph-name="F" unicode="F" horiz-adv-x="505" 
d="M439 369q21 0 18 -20l-7 -42q-3 -17 -21 -17h-253l-43 -273q-3 -17 -21 -17h-51q-21 0 -18 20l99 627q3 17 21 17h367q20 0 17 -20l-6 -41q-2 -18 -20 -18h-298l-35 -216h251z" />
    <glyph glyph-name="G" unicode="G" horiz-adv-x="569" 
d="M521 228q-20 -118 -83.5 -179t-177.5 -61q-102 0 -157 49t-55 140q0 14 1.5 27.5t3.5 27.5l33 208q38 236 267 236q76 0 128.5 -30t76.5 -90q7 -18 -10 -25l-41 -18q-16 -7 -25 10q-18 36 -51 55t-84 19q-75 0 -117.5 -43t-56.5 -131l-29 -185q-2 -14 -3 -26t-1 -23
q0 -122 126 -122q75 0 116 43t56 132l6 36h-123q-21 0 -18 20l6 42q3 17 21 17h191q21 0 18 -20z" />
    <glyph glyph-name="H" unicode="H" horiz-adv-x="623" 
d="M507 17q-3 -17 -21 -17h-51q-21 0 -18 20l44 277h-284l-44 -280q-3 -17 -21 -17h-51q-21 0 -18 20l99 627q3 17 21 17h51q21 0 18 -20l-43 -268h284l43 271q3 17 21 17h51q21 0 18 -20z" />
    <glyph glyph-name="I" unicode="I" horiz-adv-x="249" 
d="M61 0q-21 0 -18 20l99 627q3 17 21 17h51q21 0 18 -20l-99 -627q-3 -17 -21 -17h-51z" />
    <glyph glyph-name="J" unicode="J" horiz-adv-x="520" 
d="M447 217q-18 -114 -78.5 -171.5t-167.5 -57.5q-72 0 -122 27.5t-76 80.5q-7 16 7 25l38 24q16 10 26 -7q40 -71 128 -71q132 0 157 163l66 417q3 17 21 17h50q21 0 18 -20z" />
    <glyph glyph-name="K" unicode="K" horiz-adv-x="561" 
d="M411 0q-16 0 -23 12l-209 301l-46 -296q-3 -17 -21 -17h-51q-21 0 -18 20l99 627q3 17 21 17h51q21 0 18 -20l-43 -272h2l282 282q10 10 24 10h70q13 0 15.5 -7t-6.5 -16l-312 -305l223 -312q8 -10 4 -17t-15 -7h-65z" />
    <glyph glyph-name="L" unicode="L" horiz-adv-x="499" 
d="M61 0q-21 0 -18 20l99 627q3 17 21 17h51q21 0 18 -20l-90 -565h290q21 0 18 -20l-7 -42q-3 -17 -21 -17h-361z" />
    <glyph glyph-name="M" unicode="M" horiz-adv-x="820" 
d="M632 0q-21 0 -18 20l81 515h-2l-275 -522q-7 -13 -22 -13h-48q-18 0 -21 17l-112 522h-2l-82 -522q-3 -17 -21 -17h-49q-21 0 -18 20l99 627q3 17 21 17h94q18 0 21 -17l110 -516h2l269 519q7 14 22 14h104q21 0 18 -20l-99 -627q-3 -17 -21 -17h-51z" />
    <glyph glyph-name="N" unicode="N" horiz-adv-x="623" 
d="M430 0q-16 0 -22 15l-196 505h-2l-79 -503q-3 -17 -21 -17h-49q-21 0 -18 20l99 627q3 17 21 17h64q16 0 22 -15l190 -492h2l77 490q3 17 21 17h49q21 0 18 -20l-99 -627q-3 -17 -21 -17h-56z" />
    <glyph glyph-name="O" unicode="O" horiz-adv-x="588" 
d="M86 439q19 118 84 177.5t180 59.5q103 0 159.5 -48.5t56.5 -140.5q0 -13 -1.5 -26.5t-3.5 -27.5l-33 -208q-19 -118 -84 -177.5t-180 -59.5q-104 0 -159.5 49t-55.5 142q0 12 1 25t3 27zM144 237q-4 -23 -4 -48q0 -122 128 -122q76 0 117 41.5t55 129.5l30 189
q2 14 3 26.5t1 23.5q0 62 -32 91t-95 29q-76 0 -118 -42.5t-56 -130.5z" />
    <glyph glyph-name="P" unicode="P" horiz-adv-x="546" 
d="M347 664q207 0 207 -173q0 -121 -64.5 -178t-202.5 -57h-117l-37 -239q-3 -17 -21 -17h-51q-21 0 -18 20l99 627q3 17 21 17h184zM463 483q0 54 -31 78t-95 24h-114l-40 -250h113q87 0 127 36t40 112z" />
    <glyph glyph-name="Q" unicode="Q" horiz-adv-x="588" 
d="M350 676q103 0 159.5 -48.5t56.5 -140.5q0 -13 -1.5 -26.5t-3.5 -27.5l-33 -208q-32 -200 -198 -231q-1 -5 -1 -13q0 -63 64 -63q17 0 33 5.5t30 13.5q19 11 26 -8l14 -34q6 -17 -8 -26q-23 -14 -50 -21t-54 -7q-72 0 -108.5 33.5t-36.5 96.5v9t1 9q-92 5 -141.5 53.5
t-49.5 135.5q0 13 1 26t3 27l33 208q19 118 84 177.5t180 59.5zM470 427q2 14 3 26.5t1 23.5q0 62 -32 91t-95 29q-76 0 -118 -42.5t-56 -130.5l-29 -187q-4 -23 -4 -48q0 -122 128 -122q76 0 117 41.5t55 129.5z" />
    <glyph glyph-name="R" unicode="R" horiz-adv-x="568" 
d="M484 22q5 -10 1 -16t-15 -6h-60q-16 0 -22 15l-104 247h-113l-38 -245q-3 -17 -21 -17h-51q-21 0 -18 20l99 627q3 17 21 17h179q208 0 208 -172q0 -192 -177 -223zM458 485q0 52 -31 76t-94 24h-110l-39 -244h108q86 0 126 34.5t40 109.5z" />
    <glyph glyph-name="S" unicode="S" horiz-adv-x="512" 
d="M322 676q133 0 191 -82q10 -15 -4 -26l-37 -29q-15 -12 -27 5q-40 53 -127 53q-68 0 -109 -35t-41 -93q0 -20 6.5 -35t22 -26.5t40.5 -20.5t63 -16q49 -9 83 -23t55 -33.5t30.5 -46t9.5 -60.5q0 -51 -17 -91.5t-49 -69t-77 -44t-101 -15.5q-152 0 -219 97q-9 15 5 26
l36 29q15 12 27 -4q51 -69 156 -69q69 0 109 34.5t40 93.5q0 38 -28.5 60t-102.5 36q-50 9 -84 23t-55 34t-30.5 46.5t-9.5 61.5q0 51 17 91.5t49 69t77 44t101 15.5z" />
    <glyph glyph-name="T" unicode="T" horiz-adv-x="493" 
d="M255 17q-3 -17 -21 -17h-51q-21 0 -18 20l90 565h-162q-21 0 -18 20l7 42q3 17 21 17h415q21 0 18 -20l-6 -42q-3 -17 -21 -17h-164z" />
    <glyph glyph-name="U" unicode="U" horiz-adv-x="588" 
d="M515 217q-36 -229 -251 -229q-98 0 -151 47t-53 136q0 12 1 25t3 27l67 424q3 17 21 17h51q21 0 18 -20l-66 -416q-4 -23 -4 -46q0 -115 118 -115q71 0 109 39.5t51 123.5l66 417q3 17 21 17h48q21 0 18 -20z" />
    <glyph glyph-name="V" unicode="V" horiz-adv-x="569" 
d="M589 664q11 0 15 -6t-1 -16l-302 -628q-7 -14 -23 -14h-63q-18 0 -21 17l-104 627q-3 20 18 20h52q18 0 21 -17l82 -520h2l248 523q7 14 23 14h53z" />
    <glyph glyph-name="W" unicode="W" horiz-adv-x="853" 
d="M872 664q23 0 15 -22l-267 -627q-6 -15 -22 -15h-65q-19 0 -20 18l-48 469h-2l-199 -472q-6 -15 -22 -15h-64q-19 0 -20 18l-67 626q-2 20 18 20h56q18 0 20 -18l45 -500h2l212 503q6 15 22 15h46q18 0 20 -18l53 -500h2l206 503q6 15 22 15h57z" />
    <glyph glyph-name="X" unicode="X" horiz-adv-x="567" 
d="M491 22q5 -10 1 -16t-15 -6h-59q-16 0 -22 15l-107 258l-190 -261q-9 -12 -24 -12h-61q-12 0 -15.5 7t4.5 17l241 318l-132 300q-5 10 -1 16t15 6h59q16 0 22 -15l99 -240l177 243q9 12 24 12h62q12 0 15.5 -6.5t-4.5 -16.5l-228 -302z" />
    <glyph glyph-name="Y" unicode="Y" horiz-adv-x="530" 
d="M201 0q-21 0 -18 20l43 275l-150 347q-5 10 -1 16t15 6h59q16 0 22 -15l113 -273l198 276q9 12 24 12h62q12 0 15.5 -6.5t-3.5 -16.5l-264 -351l-43 -273q-3 -17 -21 -17h-51z" />
    <glyph glyph-name="Z" unicode="Z" horiz-adv-x="522" 
d="M435 79q21 0 18 -20l-6 -42q-3 -17 -21 -17h-405q-21 0 -18 20l7 49q1 13 10 23l401 493h-293q-21 0 -18 20l7 42q3 17 21 17h385q21 0 18 -20l-8 -50q-1 -12 -10 -22l-401 -493h313z" />
    <glyph glyph-name="bracketleft" unicode="[" horiz-adv-x="329" 
d="M226 -23q18 0 15 -18l-5 -33q-1 -16 -18 -16h-165q-18 0 -15 18l114 720q1 16 18 16h164q19 0 16 -18l-5 -33q-3 -16 -19 -16h-101l-97 -620h98z" />
    <glyph glyph-name="backslash" unicode="\" horiz-adv-x="356" 
d="M145 664q15 0 18 -15l129 -630q5 -19 -15 -19h-40q-15 0 -18 15l-129 630q-5 19 15 19h40z" />
    <glyph glyph-name="bracketright" unicode="]" horiz-adv-x="329" 
d="M190 -74q-1 -16 -18 -16h-165q-18 0 -15 18l5 33q1 16 18 16h101l97 620h-97q-18 0 -15 18l5 33q1 16 18 16h165q18 0 15 -18z" />
    <glyph glyph-name="asciicircum" unicode="^" horiz-adv-x="529" 
d="M42 258q-12 0 -15.5 6.5t3.5 16.5l249 331q8 12 23 12h40q16 0 22 -14l143 -330q5 -10 1 -16t-15 -6h-43q-16 0 -22 15l-114 266l-199 -269q-8 -12 -23 -12h-50z" />
    <glyph glyph-name="underscore" unicode="_" horiz-adv-x="500" 
d="M-56 -105l8 50h500l-8 -50h-500z" />
    <glyph glyph-name="grave" unicode="`" horiz-adv-x="500" 
d="M288 566q-14 0 -19 11l-65 121q-10 20 12 20h48q14 0 20 -13l55 -120q4 -8 1 -13.5t-13 -5.5h-39z" />
    <glyph glyph-name="a" unicode="a" horiz-adv-x="456" 
d="M249 507q83 0 127.5 -39t44.5 -114q0 -21 -4 -44l-22 -136q-14 -93 -66 -139.5t-146 -46.5q-78 0 -120.5 36.5t-42.5 102.5q0 79 50 122.5t149 43.5h112l2 12q3 21 3 38q0 48 -24.5 70t-73.5 22q-30 0 -55 -10t-47 -27q-17 -14 -28 4l-17 28q-9 15 6 27q35 26 71.5 38
t80.5 12zM189 60q55 0 84.5 30.5t40.5 95.5l6 38h-98q-57 0 -88 -23.5t-31 -70.5q0 -35 22 -52.5t64 -17.5z" />
    <glyph glyph-name="b" unicode="b" horiz-adv-x="488" 
d="M298 507q76 0 115.5 -37.5t39.5 -108.5q0 -22 -4 -45l-22 -142q-30 -186 -209 -186q-82 0 -126 39t-44 111q0 19 3 42l80 503q3 17 21 17h44q21 0 18 -20l-35 -219h2q43 46 117 46zM365 310q3 21 3 38q0 87 -90 87q-105 0 -124 -126l-19 -124q-3 -21 -3 -38
q0 -45 22.5 -66t67.5 -21q54 0 83.5 30.5t39.5 95.5z" />
    <glyph glyph-name="c" unicode="c" horiz-adv-x="405" 
d="M351 66q10 -15 -3 -27q-60 -51 -140 -51q-82 0 -127.5 39t-45.5 115q0 10 1 21t3 22l21 132q30 190 209 190q43 0 76.5 -12t56.5 -33q13 -13 0 -27l-24 -26q-11 -13 -26 0q-16 14 -36 20t-47 6q-54 0 -85.5 -31t-42.5 -100l-18 -114q-3 -20 -3 -37q0 -49 25 -71t73 -22
q26 0 47.5 9t41.5 25q15 13 27 -3z" />
    <glyph glyph-name="d" unicode="d" horiz-adv-x="488" 
d="M476 700q21 0 18 -20l-81 -506q-15 -93 -66 -139.5t-142 -46.5q-82 0 -126 39t-44 111q0 19 3 42l22 141q30 186 199 186q84 0 113 -55h2l37 231q3 17 21 17h44zM352 310q3 19 3 36q0 89 -89 89q-54 0 -84 -30.5t-41 -95.5l-19 -124q-3 -21 -3 -38q0 -45 22.5 -66
t67.5 -21q55 0 84 30.5t39 95.5z" />
    <glyph glyph-name="e" unicode="e" horiz-adv-x="458" 
d="M266 507q80 0 123 -38.5t43 -110.5q0 -20 -3 -42l-12 -80q-3 -17 -21 -17h-269l-5 -29q-3 -21 -3 -37q0 -49 26 -71t80 -22q29 0 54 11t50 32q15 14 26 -3l18 -27q10 -15 -3 -27q-33 -29 -71.5 -43.5t-80.5 -14.5q-89 0 -136 38.5t-47 113.5q0 11 1 22t3 23l21 136
q30 186 206 186zM350 310q3 21 3 38q0 45 -22 66t-67 21q-54 0 -83 -30.5t-40 -95.5l-3 -21h209z" />
    <glyph glyph-name="f" unicode="f" 
d="M317 640q-42 0 -67 -27t-33 -77l-7 -41h135q21 0 18 -20l-5 -35q-3 -17 -21 -17h-138l-64 -406q-3 -17 -21 -17h-44q-21 0 -18 20l64 403h-49q-21 0 -18 20l5 35q3 17 21 17h53l7 47q14 84 58.5 127t121.5 43q59 0 100 -21q8 -4 9.5 -10.5t-2.5 -14.5l-16 -32
q-9 -16 -24 -8q-27 14 -65 14z" />
    <glyph glyph-name="g" unicode="g" horiz-adv-x="488" 
d="M269 507q82 0 126.5 -38.5t44.5 -110.5q0 -11 -1 -21t-3 -22l-50 -313q-13 -83 -66 -128.5t-140 -45.5q-102 0 -161 56q-12 12 -1 27l22 28q12 15 27 2q44 -41 113 -41q54 0 85 29t39 83l6 37h-2q-42 -45 -114 -45q-76 0 -116.5 37.5t-40.5 108.5q0 11 1 22.5t3 23.5
l20 125q29 186 208 186zM352 310q3 21 3 37q0 88 -90 88q-54 0 -83 -31t-40 -95l-17 -108q-3 -21 -3 -37q0 -88 90 -88q102 0 122 126z" />
    <glyph glyph-name="h" unicode="h" horiz-adv-x="499" 
d="M302 507q73 0 111.5 -37t38.5 -106q0 -11 -1 -22t-3 -23l-48 -302q-3 -17 -21 -17h-44q-21 0 -18 20l47 294q3 21 3 37q0 84 -87 84q-51 0 -80 -30.5t-39 -91.5l-47 -296q-3 -17 -21 -17h-44q-21 0 -18 20l105 663q3 17 21 17h44q21 0 18 -20l-35 -218h2q42 45 116 45z
" />
    <glyph glyph-name="i" unicode="i" horiz-adv-x="217" 
d="M166 587q-21 0 -34.5 13.5t-13.5 33.5q0 26 15.5 42t40.5 16q22 0 35.5 -13.5t13.5 -34.5q0 -26 -16.5 -41.5t-40.5 -15.5zM48 0q-21 0 -18 20l73 458q3 17 21 17h44q21 0 18 -20l-73 -458q-3 -17 -21 -17h-44z" />
    <glyph glyph-name="j" unicode="j" horiz-adv-x="217" 
d="M166 587q-21 0 -34.5 13.5t-13.5 33.5q0 26 15.5 42t40.5 16q22 0 35.5 -13.5t13.5 -34.5q0 -26 -16.5 -41.5t-40.5 -15.5zM-56 -88q69 0 81 75l78 491q3 17 21 17h44q21 0 18 -20l-78 -491q-24 -144 -159 -144h-13q-21 0 -18 20l5 35q3 17 21 17z" />
    <glyph glyph-name="k" unicode="k" horiz-adv-x="450" 
d="M443 495q13 0 15.5 -7t-6.5 -16l-225 -220l163 -229q7 -10 3.5 -16.5t-15.5 -6.5h-54q-14 0 -23 12l-153 221l-34 -216q-3 -17 -21 -17h-44q-21 0 -18 20l105 663q3 17 21 17h44q21 0 18 -20l-63 -396h2l202 201q10 10 24 10h59z" />
    <glyph glyph-name="l" unicode="l" horiz-adv-x="218" 
d="M49 0q-21 0 -18 20l105 663q3 17 21 17h44q21 0 18 -20l-105 -663q-3 -17 -21 -17h-44z" />
    <glyph glyph-name="m" unicode="m" horiz-adv-x="754" 
d="M549 507q76 0 117 -37t41 -107q0 -10 -1 -21t-3 -22l-48 -303q-3 -17 -21 -17h-44q-21 0 -18 20l47 295q3 21 3 37q0 83 -81 83q-49 0 -76 -29t-37 -92l-46 -297q-3 -17 -21 -17h-44q-21 0 -18 20l47 295q3 21 3 38q0 82 -82 82q-49 0 -75.5 -28.5t-35.5 -87.5l-47 -302
q-3 -17 -21 -17h-44q-21 0 -18 20l48 305q29 182 192 182q102 0 136 -67h2q46 67 145 67z" />
    <glyph glyph-name="n" unicode="n" horiz-adv-x="494" 
d="M359 313q3 19 3 37q0 85 -87 85q-53 0 -81.5 -30t-38.5 -93l-46 -295q-3 -17 -21 -17h-44q-21 0 -18 20l48 305q29 182 205 182q81 0 124 -38t43 -109q0 -20 -3 -41l-48 -302q-3 -17 -21 -17h-44q-21 0 -18 20z" />
    <glyph glyph-name="o" unicode="o" horiz-adv-x="475" 
d="M269 507q82 0 126 -39t44 -111q0 -19 -3 -41l-22 -143q-29 -185 -209 -185q-82 0 -126.5 39t-44.5 111q0 20 3 41l23 142q30 186 209 186zM209 60q54 0 83.5 30.5t39.5 95.5l20 124q3 21 3 38q0 87 -90 87q-54 0 -83 -30.5t-40 -95.5l-20 -124q-3 -21 -3 -38
q0 -87 90 -87z" />
    <glyph glyph-name="p" unicode="p" horiz-adv-x="488" 
d="M282 507q82 0 126.5 -38.5t44.5 -110.5q0 -20 -4 -43l-22 -141q-30 -186 -198 -186q-85 0 -114 56h-2l-30 -187q-3 -17 -21 -17h-43q-21 0 -18 20l73 461q29 186 208 186zM365 310q3 21 3 37q0 88 -90 88q-104 0 -123 -126l-19 -124q-3 -20 -3 -35q0 -90 91 -90
q54 0 82.5 31t39.5 95z" />
    <glyph glyph-name="q" unicode="q" horiz-adv-x="488" 
d="M269 507q82 0 126.5 -38.5t44.5 -110.5q0 -11 -1 -21t-3 -22l-72 -458q-3 -17 -21 -17h-44q-21 0 -18 20l28 174h-2q-43 -46 -117 -46q-76 0 -116 37.5t-40 109.5q0 22 4 45l22 141q29 186 209 186zM352 310q3 21 3 37q0 88 -90 88q-54 0 -84 -31t-40 -95l-19 -124
q-3 -21 -3 -37q0 -88 91 -88q102 0 122 126z" />
    <glyph glyph-name="r" unicode="r" horiz-adv-x="364" 
d="M75 329q14 89 59.5 133.5t126.5 44.5q32 0 60.5 -8.5t51.5 -23.5q14 -10 3 -26l-20 -29q-10 -15 -26 -4q-14 10 -32 14.5t-35 4.5q-47 0 -72 -27.5t-34 -84.5l-48 -306q-3 -17 -21 -17h-44q-21 0 -18 20z" />
    <glyph glyph-name="s" unicode="s" horiz-adv-x="413" 
d="M178 -12q-113 0 -170 58q-13 13 0 26l24 28q12 15 26 1q44 -41 120 -41q52 0 81.5 22.5t29.5 63.5q0 29 -21.5 44.5t-78.5 25.5q-76 13 -106.5 41t-30.5 82q0 78 53.5 123t147.5 45q42 0 77.5 -11t61.5 -32q14 -11 2 -26l-23 -29q-11 -14 -26 -2q-36 28 -93 28
q-55 0 -86 -22.5t-31 -62.5q0 -26 21 -41t75 -23q79 -12 110.5 -42.5t31.5 -85.5q0 -80 -52 -125t-143 -45z" />
    <glyph glyph-name="t" unicode="t" horiz-adv-x="355" 
d="M156 147q-1 -6 -1.5 -11.5t-0.5 -10.5q0 -65 67 -65q13 0 25 3.5t23 8.5q19 10 25 -9l11 -32q5 -17 -10 -25q-36 -18 -83 -18q-69 0 -105.5 32t-36.5 92q0 17 3 37l43 274h-49q-21 0 -18 20l5 35q3 17 21 17h52l18 115q3 17 21 17h44q21 0 18 -20l-18 -112h135
q21 0 18 -20l-5 -35q-3 -17 -21 -17h-138z" />
    <glyph glyph-name="u" unicode="u" horiz-adv-x="488" 
d="M413 167q-29 -179 -201 -179q-80 0 -122.5 37t-42.5 107q0 20 3 41l48 305q3 17 21 17h44q21 0 18 -20l-47 -297q-3 -20 -3 -34q0 -44 21 -64t65 -20q52 0 79.5 28.5t37.5 88.5l47 301q3 17 21 17h42q21 0 18 -20z" />
    <glyph glyph-name="v" unicode="v" horiz-adv-x="454" 
d="M455 495q24 0 14 -22l-229 -459q-7 -14 -22 -14h-58q-17 0 -20 17l-83 457q-3 21 17 21h48q18 0 21 -17l58 -377h2l181 380q7 14 23 14h48z" />
    <glyph glyph-name="w" unicode="w" horiz-adv-x="691" 
d="M691 495q11 0 15 -6t-1 -16l-209 -459q-6 -14 -22 -14h-50q-17 0 -20 18l-42 320h-2l-147 -324q-6 -14 -22 -14h-50q-17 0 -20 18l-63 457q-3 20 17 20h48q18 0 20 -18l40 -353h2l159 357q6 14 22 14h34q17 0 20 -18l46 -350h2l153 354q6 14 22 14h48z" />
    <glyph glyph-name="x" unicode="x" horiz-adv-x="463" 
d="M393 22q10 -22 -15 -22h-51q-16 0 -22 14l-81 184l-140 -186q-8 -12 -23 -12h-53q-12 0 -15.5 7t4.5 16l185 235l-101 215q-10 22 15 22h51q16 0 22 -15l72 -167l127 170q8 12 23 12h52q13 0 16.5 -7t-4.5 -16l-172 -218z" />
    <glyph glyph-name="y" unicode="y" horiz-adv-x="499" 
d="M450 495q21 0 18 -20l-76 -473q-13 -83 -66 -128.5t-140 -45.5q-102 0 -161 56q-12 12 -1 27l22 28q12 15 27 2q44 -41 113 -41q54 0 85.5 29t39.5 83l6 37h-2q-44 -45 -117 -45q-72 0 -110.5 36.5t-38.5 105.5q0 11 1 22.5t3 23.5l45 286q3 17 21 17h44q21 0 18 -20
l-44 -278q-3 -20 -3 -36q0 -85 87 -85q52 0 81 30.5t39 91.5l44 280q3 17 21 17h44z" />
    <glyph glyph-name="z" unicode="z" horiz-adv-x="427" 
d="M341 72q21 0 18 -20l-5 -35q-3 -17 -21 -17h-315q-21 0 -18 20l6 43q1 13 10 23l298 337h-214q-21 0 -18 20l5 35q3 17 21 17h296q21 0 18 -20l-7 -43q-1 -13 -10 -23l-298 -337h234z" />
    <glyph glyph-name="braceleft" unicode="{" horiz-adv-x="339" 
d="M344 664q19 0 16 -18l-5 -33q-3 -16 -22 -16q-42 0 -63 -20t-29 -69l-17 -105q-8 -51 -29.5 -79t-62.5 -37v-2q59 -17 59 -82q0 -15 -3 -31l-17 -105q-3 -17 -3 -30q0 -32 16.5 -46t51.5 -14q18 0 15 -18l-5 -33q-3 -16 -18 -16h-15q-130 0 -130 106q0 16 3 36l18 113
q3 18 3 31q0 31 -14 44.5t-36 13.5q-15 0 -12 18l5 32q3 16 18 16q29 0 47.5 20t26.5 68l18 113q12 78 52 110.5t121 32.5h11z" />
    <glyph glyph-name="bar" unicode="|" horiz-adv-x="264" 
d="M50 -160q-17 0 -14 17l131 828q1 15 17 15h37q17 0 14 -17l-131 -828q-2 -15 -17 -15h-37z" />
    <glyph glyph-name="braceright" unicode="}" horiz-adv-x="339" 
d="M295 320q15 0 12 -18l-5 -32q-3 -16 -18 -16q-29 0 -47.5 -20t-26.5 -68l-18 -113q-12 -78 -52 -110.5t-121 -32.5h-11q-19 0 -16 18l5 33q3 16 22 16q42 0 63 20t29 69l17 105q8 51 29.5 79t62.5 37v2q-59 17 -59 82q0 14 3 31l17 105q3 16 3 30q0 32 -16.5 46t-51.5 14
q-18 0 -15 18l5 33q3 16 18 16h15q130 0 130 -106q0 -17 -3 -36l-18 -113q-3 -18 -3 -31q0 -31 14 -44.5t36 -13.5z" />
    <glyph glyph-name="asciitilde" unicode="~" horiz-adv-x="529" 
d="M173 275q-27 0 -50 -15.5t-47 -46.5q-12 -16 -27 -5l-27 20q-15 10 -4 27q36 53 73.5 75t82.5 22q29 0 54.5 -9t58.5 -31q27 -18 43 -24.5t36 -6.5q27 0 49.5 15.5t46.5 47.5q12 16 27 4l27 -20q15 -10 4 -27q-36 -53 -73 -75t-82 -22q-31 0 -56.5 9t-57.5 32
q-25 17 -41.5 23.5t-36.5 6.5z" />
    <glyph glyph-name="uni00A0" unicode="&#xa0;" horiz-adv-x="215" 
 />
    <glyph glyph-name="exclamdown" unicode="&#xa1;" horiz-adv-x="235" 
d="M180 676q23 0 37.5 -14t14.5 -37q0 -26 -17.5 -43t-42.5 -17q-23 0 -37 14.5t-14 36.5q0 26 17.5 43t41.5 17zM164 482q14 0 12 -13l-12 -181l-42 -271q-3 -17 -21 -17h-43q-21 0 -18 20l42 268l45 183q3 11 15 11h22z" />
    <glyph glyph-name="cent" unicode="&#xa2;" horiz-adv-x="529" 
d="M455 423q-11 -13 -26 0q-22 19 -62 25l-58 -364q23 3 41 12.5t36 24.5q15 14 26 -3l20 -29q10 -15 -3 -27q-29 -23 -60.5 -36.5t-71.5 -16.5l-10 -65q-2 -14 -16 -14h-27q-16 0 -14 16l10 63q-77 7 -117.5 47.5t-40.5 112.5q0 11 1 22t3 23l18 112q16 97 69 146.5
t149 51.5l9 58q2 14 16 14h27q16 0 13 -16l-9 -59q67 -10 103 -45q13 -13 -1 -26zM171 218q-3 -20 -3 -37q0 -45 20.5 -68t63.5 -29l58 365q-55 -5 -84 -38t-40 -99z" />
    <glyph glyph-name="sterling" unicode="&#xa3;" horiz-adv-x="529" 
d="M524 557q11 -15 -5 -26l-33 -24q-15 -12 -27 4q-36 49 -119 49q-62 0 -99 -36.5t-37 -99.5q0 -17 3 -34t10 -40q3 -12 6 -25h176q18 0 15 -18l-5 -36q-1 -16 -18 -16h-160q0 -103 -80 -177v-2h271q21 0 18 -20l-6 -39q-3 -17 -21 -17h-351q-21 0 -18 20l5 37q2 8 5 13.5
t8 10.5q47 43 67 83t20 91h-66q-18 0 -15 18l5 36q1 16 18 16h47q-2 5 -3 9.5t-3 9.5q-10 29 -12.5 46.5t-2.5 37.5q0 48 15.5 86.5t45 65.5t71 41.5t92.5 14.5q62 0 109 -20.5t74 -58.5z" />
    <glyph glyph-name="currency" unicode="&#xa4;" horiz-adv-x="529" 
d="M453 326q0 -36 -11.5 -67.5t-31.5 -56.5l51 -58q10 -12 -2 -24l-28 -26q-12 -12 -24 2l-52 59q-21 -11 -45.5 -17.5t-50.5 -6.5q-60 0 -104 33l-79 -70q-12 -10 -24 2l-23 25q-12 13 1 24l82 72q-17 34 -17 75q0 36 11.5 67.5t31.5 57.5l-51 58q-10 12 2 24l28 26
q12 12 24 -2l52 -59q44 25 96 25q31 0 57.5 -9t46.5 -25l79 70q12 10 24 -2l23 -25q12 -13 -1 -24l-82 -72q17 -34 17 -76zM160 297q0 -45 28.5 -73t74.5 -28q26 0 49 9.5t40 26.5t27 40t10 50q0 45 -28.5 73.5t-74.5 28.5q-26 0 -49 -9.5t-40 -27t-27 -40.5t-10 -50z" />
    <glyph glyph-name="yen" unicode="&#xa5;" horiz-adv-x="529" 
d="M471 266q-3 -15 -19 -15h-144l-11 -71h141q19 0 16 -18l-6 -36q-3 -15 -19 -15h-143l-15 -94q-3 -17 -21 -17h-47q-21 0 -18 20l15 91h-144q-19 0 -16 18l6 36q3 15 19 15h146l11 71h-143q-19 0 -16 18l6 36q3 15 19 15h142l-135 282q-10 22 14 22h54q16 0 22 -14
l100 -226l172 228q8 12 23 12h57q13 0 16.5 -7t-4.5 -16l-223 -281h135q19 0 16 -18z" />
    <glyph glyph-name="brokenbar" unicode="&#xa6;" horiz-adv-x="264" 
d="M130 350q-17 0 -14 17l51 318q3 15 17 15h37q17 0 14 -17l-51 -318q-2 -15 -17 -15h-37zM50 -160q-17 0 -14 17l50 318q1 15 17 15h37q17 0 14 -17l-50 -318q-2 -15 -17 -15h-37z" />
    <glyph glyph-name="section" unicode="&#xa7;" horiz-adv-x="553" 
d="M523 639q11 -15 -5 -26l-30 -23q-15 -10 -26 4q-38 47 -126 47q-32 0 -58.5 -8.5t-46 -23.5t-30.5 -36t-11 -46q0 -17 6.5 -30t22.5 -23t42 -16.5t65 -11.5q101 -13 142 -45.5t41 -92.5q0 -63 -30.5 -108t-90.5 -68v-2q28 -14 45 -37.5t17 -65.5q0 -45 -16.5 -82
t-46.5 -63t-73 -40t-95 -14q-147 0 -209 86q-10 15 4 26l29 23q15 11 26 -3q24 -32 62.5 -46.5t91.5 -14.5q66 0 106.5 31t40.5 82q0 34 -29 52t-106 28q-51 6 -86.5 17.5t-57.5 28.5t-32 40.5t-10 54.5q0 59 30 103.5t87 70.5v2q-26 14 -41.5 38t-15.5 64q0 46 16.5 83
t46.5 63.5t73 40.5t96 14q128 0 182 -73zM264 381q-59 -9 -96 -44t-37 -85q0 -21 8 -36.5t26 -26.5t48 -18.5t74 -13.5q63 8 102 43.5t39 88.5q0 20 -7 34t-25 24.5t-50 18.5t-82 15z" />
    <glyph glyph-name="dieresis" unicode="&#xa8;" horiz-adv-x="500" 
d="M225 590q-21 0 -33.5 12.5t-12.5 32.5q0 23 15 38.5t38 15.5q20 0 33 -13t13 -33q0 -23 -15.5 -38t-37.5 -15zM392 590q-20 0 -33 13t-13 33q0 23 15 38t37 15q21 0 34 -13t13 -33q0 -23 -15 -38t-38 -15z" />
    <glyph glyph-name="copyright" unicode="&#xa9;" horiz-adv-x="766" 
d="M436 676q68 0 124.5 -22.5t97 -62.5t63 -95t22.5 -120q0 -80 -30.5 -150.5t-83.5 -123t-123.5 -83.5t-149.5 -31q-68 0 -124.5 22.5t-97 62.5t-63 95t-22.5 120q0 79 30.5 150t83.5 123.5t123 83.5t150 31zM359 40q66 0 125.5 26.5t104 72.5t70.5 106.5t26 128.5
q0 55 -18.5 101t-52 79t-80 51.5t-102.5 18.5q-66 0 -125.5 -26.5t-103.5 -72.5t-70 -106.5t-26 -128.5q0 -55 18.5 -101t51.5 -79t79.5 -51.5t102.5 -18.5zM316 280q-1 -7 -1.5 -13.5t-0.5 -11.5q0 -62 62 -62q23 0 40.5 10t31.5 29q9 13 21 4l19 -14q12 -9 3 -21
q-23 -31 -51.5 -45.5t-67.5 -14.5q-57 0 -87.5 27t-30.5 78q0 13 3 30l18 116q11 65 46.5 98t100.5 33q80 0 110 -63q6 -13 -8 -19l-21 -11q-12 -7 -20 7q-19 34 -65 34q-72 0 -85 -88z" />
    <glyph glyph-name="ordfeminine" unicode="&#xaa;" horiz-adv-x="351" 
d="M218 636q65 0 100.5 -30.5t35.5 -89.5v-14.5t-2 -15.5l-17 -107q-11 -71 -51 -107t-112 -36q-62 0 -95.5 28.5t-33.5 79.5q0 62 37.5 96.5t115.5 34.5h82l1 6q2 9 2 14.5v11.5q0 35 -18 50.5t-55 15.5q-20 0 -38.5 -7.5t-35.5 -20.5q-15 -11 -24 6l-14 25q-7 13 7 24
q28 19 55.5 27.5t59.5 8.5zM176 299q39 0 60 22t28 68l4 25h-67q-41 0 -63 -16t-22 -50q0 -49 60 -49z" />
    <glyph glyph-name="guillemotleft" unicode="&#xab;" horiz-adv-x="437" 
d="M180 78q10 -20 -12 -20h-38q-14 0 -20 12l-81 165q-6 11 3 23l132 169q9 10 21 10h42q11 0 14 -6t-4 -15l-136 -173zM366 78q10 -20 -12 -20h-38q-14 0 -20 12l-81 165q-6 11 3 23l132 169q9 10 21 10h42q11 0 14 -6t-4 -15l-136 -173z" />
    <glyph glyph-name="logicalnot" unicode="&#xac;" horiz-adv-x="529" 
d="M487 113q-3 -17 -21 -17h-38q-21 0 -18 20l29 184h-388q-21 0 -18 20l6 40q3 17 21 17h447q21 0 18 -20z" />
    <glyph glyph-name="uni00AD" unicode="&#xad;" horiz-adv-x="332" 
d="M49 233q-21 0 -18 20l6 42q3 17 21 17h233q21 0 18 -20l-6 -42q-3 -17 -21 -17h-233z" />
    <glyph glyph-name="registered" unicode="&#xae;" horiz-adv-x="766" 
d="M427 516q117 0 117 -93q0 -109 -97 -129l58 -128q8 -18 -11 -18h-36q-12 0 -18 12l-50 129h-55l-21 -127q-2 -14 -16 -14h-29q-16 0 -13 16l54 338q2 14 16 14h101zM484 415q0 49 -63 49h-58l-20 -123h57q84 0 84 74zM436 676q68 0 124.5 -22.5t97 -62.5t63 -95
t22.5 -120q0 -80 -30.5 -150.5t-83.5 -123t-123.5 -83.5t-149.5 -31q-68 0 -124.5 22.5t-97 62.5t-63 95t-22.5 120q0 79 30.5 150t83.5 123.5t123 83.5t150 31zM359 40q66 0 125.5 26.5t104 72.5t70.5 106.5t26 128.5q0 55 -18.5 101t-52 79t-80 51.5t-102.5 18.5
q-66 0 -125.5 -26.5t-103.5 -72.5t-70 -106.5t-26 -128.5q0 -55 18.5 -101t51.5 -79t79.5 -51.5t102.5 -18.5z" />
    <glyph glyph-name="macron" unicode="&#xaf;" horiz-adv-x="500" 
d="M440 614q-3 -15 -19 -15h-229q-18 0 -15 18l5 32q1 16 18 16h230q18 0 15 -18z" />
    <glyph glyph-name="degree" unicode="&#xb0;" horiz-adv-x="357" 
d="M201 336q-30 0 -55 10t-42.5 28t-27.5 43t-10 54q0 35 13 65.5t35.5 52.5t52.5 34.5t64 12.5q30 0 55 -10t42.5 -28t27.5 -42.5t10 -53.5q0 -36 -13 -66t-35.5 -52.5t-52.5 -35t-64 -12.5zM205 401q19 0 36 7.5t30 20.5t20.5 31t7.5 39q0 32 -20 52t-52 20
q-19 0 -36 -7.5t-30 -20.5t-20.5 -31t-7.5 -39q0 -33 20 -52.5t52 -19.5z" />
    <glyph glyph-name="plusminus" unicode="&#xb1;" horiz-adv-x="529" 
d="M509 301q-3 -17 -21 -17h-180l-25 -158q-3 -17 -21 -17h-38q-21 0 -18 20l25 155h-175q-21 0 -18 20l6 40q3 17 21 17h179l24 159q3 17 21 17h38q21 0 18 -20l-24 -156h176q21 0 18 -20zM451 77q21 0 18 -20l-6 -40q-3 -17 -21 -17h-432q-20 0 -17 20l6 39q3 18 20 18
h432z" />
    <glyph glyph-name="uni00B2" unicode="&#xb2;" 
d="M303 418q16 0 13 -16l-4 -25q-2 -14 -16 -14h-217q-16 0 -14 16l4 26q1 12 9 18l167 145q28 25 39 42.5t11 40.5t-14.5 36.5t-41.5 13.5q-23 0 -43 -12t-37 -32q-9 -12 -21 -2l-19 18q-10 10 -2 21q25 31 57.5 46.5t70.5 15.5q52 0 82 -28t30 -76q0 -18 -3.5 -33.5
t-12.5 -30t-23 -29t-35 -32.5l-128 -107v-2h148z" />
    <glyph glyph-name="uni00B3" unicode="&#xb3;" 
d="M288 560q24 -11 37.5 -31.5t13.5 -49.5q0 -60 -38.5 -91.5t-107.5 -31.5q-42 0 -72.5 13.5t-50.5 39.5q-9 10 2 21l18 17q12 10 21 -2q28 -34 83 -34q38 0 60.5 18.5t22.5 52.5q0 54 -77 54h-17q-16 0 -14 16l4 23q2 14 16 14h15q48 0 69.5 16t21.5 48q0 23 -15.5 35.5
t-44.5 12.5q-23 0 -43.5 -10t-37.5 -27q-12 -12 -21 1l-17 20q-9 11 1 21q53 50 126 50q53 0 83.5 -26t30.5 -72q0 -37 -17 -61.5t-52 -34.5v-2z" />
    <glyph glyph-name="acute" unicode="&#xb4;" horiz-adv-x="500" 
d="M339 575q-9 -9 -20 -9h-45q-11 0 -13.5 6t3.5 14l96 122q9 10 21 10h53q11 0 14.5 -6.5t-4.5 -14.5z" />
    <glyph glyph-name="uni00B5" unicode="&#xb5;" horiz-adv-x="499" 
d="M455 495q21 0 18 -20l-49 -305q-29 -182 -190 -182q-82 0 -114 53h-2l-29 -184q-3 -17 -21 -17h-44q-21 0 -18 20l97 618q3 17 21 17h44q21 0 18 -20l-47 -294q-3 -18 -3 -34q0 -87 88 -87q53 0 81.5 29.5t38.5 92.5l46 296q3 17 21 17h44z" />
    <glyph glyph-name="paragraph" unicode="&#xb6;" horiz-adv-x="570" 
d="M431 -145q-2 -15 -17 -15h-35q-17 0 -14 17l122 774h-118l-123 -776q-2 -15 -17 -15h-35q-17 0 -14 17l69 435q-189 7 -189 164q0 124 64.5 184t203.5 60h220q17 0 14 -17z" />
    <glyph glyph-name="periodcentered" unicode="&#xb7;" horiz-adv-x="233" 
d="M122 257q-23 0 -37 14t-14 37q0 26 17.5 43t42.5 17q23 0 37 -14.5t14 -36.5q0 -26 -17.5 -43t-42.5 -17z" />
    <glyph glyph-name="cedilla" unicode="&#xb8;" horiz-adv-x="500" 
d="M217 -46q32 -3 47.5 -18t15.5 -38q0 -34 -25.5 -52t-73.5 -18q-44 0 -75 17q-11 6 -5 20l9 20q6 13 20 5q10 -5 22.5 -8.5t27.5 -3.5q20 0 30.5 6.5t10.5 16.5q0 13 -11.5 17t-34.5 4q-17 0 -11 16l28 75h46z" />
    <glyph glyph-name="uni00B9" unicode="&#xb9;" 
d="M223 363q-16 0 -13 16l45 285l-73 -49q-13 -8 -21 5l-13 21q-8 13 4 20l122 82q9 6 18 6h22q16 0 13 -16l-57 -356q-2 -14 -16 -14h-31z" />
    <glyph glyph-name="ordmasculine" unicode="&#xba;" horiz-adv-x="368" 
d="M237 636q65 0 100 -30t35 -87q0 -16 -3 -32l-17 -108q-23 -143 -162 -143q-64 0 -99 30t-35 87q0 15 3 32l17 108q23 143 161 143zM193 299q75 0 88 90l15 95q2 8 2 14.5v12.5q0 62 -64 62q-38 0 -59 -22t-29 -68l-15 -95q-1 -7 -1.5 -13.5t-0.5 -12.5q0 -63 64 -63z" />
    <glyph glyph-name="guillemotright" unicode="&#xbb;" horiz-adv-x="437" 
d="M87 68q-9 -10 -21 -10h-42q-11 0 -14 6t4 15l136 173l-79 165q-10 20 12 20h38q14 0 20 -12l81 -166q6 -11 -3 -23zM273 68q-9 -10 -21 -10h-42q-11 0 -14 6t4 15l136 173l-79 165q-10 20 12 20h38q14 0 20 -12l81 -166q6 -11 -3 -23z" />
    <glyph glyph-name="onequarter" unicode="&#xbc;" horiz-adv-x="796" 
d="M658 615q7 9 18 9h40q10 0 12.5 -5t-3.5 -13l-488 -597q-8 -9 -18 -9h-40q-10 0 -12.5 5t3.5 13zM746 140q16 0 14 -16l-4 -25q-2 -14 -16 -14h-32l-12 -71q-2 -14 -16 -14h-31q-16 0 -13 16l11 69h-164q-17 0 -14 16l5 32q1 9 9 18l205 227q7 8 18 8h34q16 0 13 -16
l-37 -230h30zM678 291l-134 -151h111l25 151h-2zM204 238q-16 0 -13 16l45 285l-73 -49q-13 -8 -21 5l-13 21q-8 13 4 20l122 82q9 6 18 6h22q16 0 13 -16l-57 -356q-2 -14 -16 -14h-31z" />
    <glyph glyph-name="onehalf" unicode="&#xbd;" horiz-adv-x="796" 
d="M618 615q7 9 18 9h40q10 0 12.5 -5t-3.5 -13l-488 -597q-8 -9 -18 -9h-40q-10 0 -12.5 5t3.5 13zM712 55q16 0 13 -16l-4 -25q-2 -14 -16 -14h-217q-16 0 -14 16l4 26q1 12 9 18l167 145q28 25 39 42.5t11 40.5t-14.5 36.5t-41.5 13.5q-23 0 -43 -12t-37 -32
q-9 -12 -21 -2l-19 18q-10 10 -2 21q25 31 57.5 46.5t70.5 15.5q52 0 82 -28t30 -76q0 -18 -3.5 -33.5t-12.5 -30t-23 -29t-35 -32.5l-128 -107v-2h148zM204 238q-16 0 -13 16l45 285l-73 -49q-13 -8 -21 5l-13 21q-8 13 4 20l122 82q9 6 18 6h22q16 0 13 -16l-57 -356
q-2 -14 -16 -14h-31z" />
    <glyph glyph-name="threequarters" unicode="&#xbe;" horiz-adv-x="796" 
d="M661 615q7 9 18 9h40q10 0 12.5 -5t-3.5 -13l-488 -597q-8 -9 -18 -9h-40q-10 0 -12.5 5t3.5 13zM746 140q16 0 14 -16l-4 -25q-2 -14 -16 -14h-32l-12 -71q-2 -14 -16 -14h-31q-16 0 -13 16l11 69h-164q-17 0 -14 16l5 32q1 9 9 18l205 227q7 8 18 8h34q16 0 13 -16
l-37 -230h30zM678 291l-134 -151h111l25 151h-2zM269 435q24 -11 37.5 -31.5t13.5 -49.5q0 -60 -38.5 -91.5t-107.5 -31.5q-42 0 -72.5 13.5t-50.5 39.5q-9 10 2 21l18 17q12 10 21 -2q28 -34 83 -34q38 0 60.5 18.5t22.5 52.5q0 54 -77 54h-17q-16 0 -14 16l4 23
q2 14 16 14h15q48 0 69.5 16t21.5 48q0 23 -15.5 35.5t-44.5 12.5q-23 0 -43.5 -10t-37.5 -27q-12 -12 -21 1l-17 20q-9 11 1 21q53 50 126 50q53 0 83.5 -26t30.5 -72q0 -37 -17 -61.5t-52 -34.5v-2z" />
    <glyph glyph-name="questiondown" unicode="&#xbf;" horiz-adv-x="454" 
d="M190 -12q-83 0 -132 43.5t-49 117.5q0 33 7 60t22.5 50t41 43t62.5 39q28 15 46.5 28t30.5 26t18 27t9 31l2 12q3 17 21 17h39q21 0 18 -20l-3 -19q-8 -51 -36.5 -87.5t-91.5 -71.5q-29 -17 -48.5 -31.5t-31 -30t-16 -32.5t-4.5 -38q0 -41 27 -64.5t75 -23.5q87 0 152 82
q13 17 28 2l27 -27q13 -11 0 -27q-42 -52 -96.5 -79t-117.5 -27zM316 676q23 0 37 -14t14 -37q0 -26 -17.5 -43t-42.5 -17q-23 0 -37 14.5t-14 36.5q0 26 17.5 43t42.5 17z" />
    <glyph glyph-name="Agrave" unicode="&#xc0;" horiz-adv-x="587" 
d="M522 21q3 -21 -17 -21h-52q-18 0 -21 17l-19 115h-272l-56 -118q-7 -14 -23 -14h-55q-24 0 -14 22l311 628q7 14 22 14h63q17 0 20 -17zM343 557l-164 -346h222l-56 346h-2zM357 729q-14 0 -19 11l-65 121q-10 20 12 20h48q14 0 20 -13l55 -120q4 -8 1 -13.5t-13 -5.5
h-39z" />
    <glyph glyph-name="Aacute" unicode="&#xc1;" horiz-adv-x="587" 
d="M522 21q3 -21 -17 -21h-52q-18 0 -21 17l-19 115h-272l-56 -118q-7 -14 -23 -14h-55q-24 0 -14 22l311 628q7 14 22 14h63q17 0 20 -17zM343 557l-164 -346h222l-56 346h-2zM408 738q-9 -9 -20 -9h-45q-11 0 -13.5 6t3.5 14l96 122q9 10 21 10h53q11 0 14.5 -6.5
t-4.5 -14.5z" />
    <glyph glyph-name="Acircumflex" unicode="&#xc2;" horiz-adv-x="587" 
d="M522 21q3 -21 -17 -21h-52q-18 0 -21 17l-19 115h-272l-56 -118q-7 -14 -23 -14h-55q-24 0 -14 22l311 628q7 14 22 14h63q17 0 20 -17zM343 557l-164 -346h222l-56 346h-2zM315 738q-9 -9 -20 -9h-41q-11 0 -13.5 6t4.5 14l104 122q9 10 21 10h45q14 0 20 -12l64 -121
q5 -8 1.5 -13.5t-12.5 -5.5h-37q-13 0 -19 11l-44 83z" />
    <glyph glyph-name="Atilde" unicode="&#xc3;" horiz-adv-x="587" 
d="M522 21q3 -21 -17 -21h-52q-18 0 -21 17l-19 115h-272l-56 -118q-7 -14 -23 -14h-55q-24 0 -14 22l311 628q7 14 22 14h63q17 0 20 -17zM343 557l-164 -346h222l-56 346h-2zM242 739q-18 0 -13 18q27 102 101 102q19 0 32.5 -7t33.5 -24q14 -12 21 -17t18 -5q28 0 42 41
q4 13 17 13h25q18 0 13 -18q-29 -102 -101 -102q-20 0 -34.5 7t-32.5 24q-14 12 -21 17t-18 5q-28 0 -42 -41q-4 -13 -17 -13h-24z" />
    <glyph glyph-name="Adieresis" unicode="&#xc4;" horiz-adv-x="587" 
d="M522 21q3 -21 -17 -21h-52q-18 0 -21 17l-19 115h-272l-56 -118q-7 -14 -23 -14h-55q-24 0 -14 22l311 628q7 14 22 14h63q17 0 20 -17zM343 557l-164 -346h222l-56 346h-2zM294 753q-21 0 -33.5 12.5t-12.5 32.5q0 23 15 38.5t38 15.5q20 0 33 -13t13 -33
q0 -23 -15.5 -38t-37.5 -15zM461 753q-20 0 -33 13t-13 33q0 23 15 38t37 15q21 0 34 -13t13 -33q0 -23 -15 -38t-38 -15z" />
    <glyph glyph-name="Aring" unicode="&#xc5;" horiz-adv-x="587" 
d="M522 21q3 -21 -17 -21h-52q-18 0 -21 17l-19 115h-272l-56 -118q-7 -14 -23 -14h-55q-24 0 -14 22l311 628q7 14 22 14h63q17 0 20 -17zM343 557l-164 -346h222l-56 346h-2zM375 723q-34 0 -55.5 21t-21.5 53q0 39 26.5 64.5t63.5 25.5q33 0 54.5 -21t21.5 -53
q0 -39 -26.5 -64.5t-62.5 -25.5zM377 767q17 0 29.5 12t12.5 31q0 15 -9.5 24t-24.5 9q-17 0 -29.5 -12t-12.5 -31q0 -33 34 -33z" />
    <glyph glyph-name="AE" unicode="&#xc6;" horiz-adv-x="875" 
d="M787 375q21 0 18 -20l-7 -42q-3 -17 -21 -17h-264l-35 -217h306q21 0 18 -20l-7 -42q-3 -17 -21 -17h-377q-21 0 -18 20l18 112h-237l-86 -120q-8 -12 -23 -12h-61q-12 0 -15.5 6.5t3.5 16.5l458 629q8 12 24 12h416q21 0 18 -20l-6 -42q-3 -17 -21 -17h-308l-34 -210
h262zM465 559h-2l-246 -348h192z" />
    <glyph glyph-name="Ccedilla" unicode="&#xc7;" horiz-adv-x="527" 
d="M546 556q6 -17 -10 -25l-40 -18q-17 -7 -25 11q-32 73 -127 73q-144 0 -171 -173l-29 -187q-2 -14 -3 -26.5t-1 -23.5q0 -120 121 -120q50 0 86 20.5t63 60.5q11 16 26 5l35 -23q16 -10 5 -26q-39 -57 -89.5 -85.5t-121.5 -30.5l-12 -34q32 -3 47.5 -18t15.5 -38
q0 -34 -25.5 -52t-73.5 -18q-44 0 -75 17q-11 6 -5 20l9 20q6 13 20 5q10 -5 22.5 -8.5t27.5 -3.5q20 0 30.5 6.5t10.5 16.5q0 13 -11.5 17t-34.5 4q-17 0 -11 16l19 52q-82 8 -126 55.5t-44 131.5q0 13 1 26.5t3 27.5l33 208q19 118 83.5 177.5t179.5 59.5q73 0 123.5 -30
t73.5 -90z" />
    <glyph glyph-name="Egrave" unicode="&#xc8;" horiz-adv-x="538" 
d="M450 375q21 0 18 -20l-7 -42q-3 -17 -21 -17h-263l-35 -217h305q21 0 18 -20l-7 -42q-3 -17 -21 -17h-376q-21 0 -18 20l99 627q3 17 21 17h377q20 0 17 -20l-6 -41q-2 -18 -20 -18h-308l-34 -210h261zM351 729q-14 0 -19 11l-65 121q-10 20 12 20h48q14 0 20 -13
l55 -120q4 -8 1 -13.5t-13 -5.5h-39z" />
    <glyph glyph-name="Eacute" unicode="&#xc9;" horiz-adv-x="538" 
d="M450 375q21 0 18 -20l-7 -42q-3 -17 -21 -17h-263l-35 -217h305q21 0 18 -20l-7 -42q-3 -17 -21 -17h-376q-21 0 -18 20l99 627q3 17 21 17h377q20 0 17 -20l-6 -41q-2 -18 -20 -18h-308l-34 -210h261zM402 738q-9 -9 -20 -9h-45q-11 0 -13.5 6t3.5 14l96 122q9 10 21 10
h53q11 0 14.5 -6.5t-4.5 -14.5z" />
    <glyph glyph-name="Ecircumflex" unicode="&#xca;" horiz-adv-x="538" 
d="M450 375q21 0 18 -20l-7 -42q-3 -17 -21 -17h-263l-35 -217h305q21 0 18 -20l-7 -42q-3 -17 -21 -17h-376q-21 0 -18 20l99 627q3 17 21 17h377q20 0 17 -20l-6 -41q-2 -18 -20 -18h-308l-34 -210h261zM309 738q-9 -9 -20 -9h-41q-11 0 -13.5 6t4.5 14l104 122
q9 10 21 10h45q14 0 20 -12l64 -121q5 -8 1.5 -13.5t-12.5 -5.5h-37q-13 0 -19 11l-44 83z" />
    <glyph glyph-name="Edieresis" unicode="&#xcb;" horiz-adv-x="538" 
d="M450 375q21 0 18 -20l-7 -42q-3 -17 -21 -17h-263l-35 -217h305q21 0 18 -20l-7 -42q-3 -17 -21 -17h-376q-21 0 -18 20l99 627q3 17 21 17h377q20 0 17 -20l-6 -41q-2 -18 -20 -18h-308l-34 -210h261zM288 753q-21 0 -33.5 12.5t-12.5 32.5q0 23 15 38.5t38 15.5
q20 0 33 -13t13 -33q0 -23 -15.5 -38t-37.5 -15zM455 753q-20 0 -33 13t-13 33q0 23 15 38t37 15q21 0 34 -13t13 -33q0 -23 -15 -38t-38 -15z" />
    <glyph glyph-name="Igrave" unicode="&#xcc;" horiz-adv-x="249" 
d="M61 0q-21 0 -18 20l99 627q3 17 21 17h51q21 0 18 -20l-99 -627q-3 -17 -21 -17h-51zM187 729q-14 0 -19 11l-65 121q-10 20 12 20h48q14 0 20 -13l55 -120q4 -8 1 -13.5t-13 -5.5h-39z" />
    <glyph glyph-name="Iacute" unicode="&#xcd;" horiz-adv-x="249" 
d="M61 0q-21 0 -18 20l99 627q3 17 21 17h51q21 0 18 -20l-99 -627q-3 -17 -21 -17h-51zM238 738q-9 -9 -20 -9h-45q-11 0 -13.5 6t3.5 14l96 122q9 10 21 10h53q11 0 14.5 -6.5t-4.5 -14.5z" />
    <glyph glyph-name="Icircumflex" unicode="&#xce;" horiz-adv-x="249" 
d="M61 0q-21 0 -18 20l99 627q3 17 21 17h51q21 0 18 -20l-99 -627q-3 -17 -21 -17h-51zM145 738q-9 -9 -20 -9h-41q-11 0 -13.5 6t4.5 14l104 122q9 10 21 10h45q14 0 20 -12l64 -121q5 -8 1.5 -13.5t-12.5 -5.5h-37q-13 0 -19 11l-44 83z" />
    <glyph glyph-name="Idieresis" unicode="&#xcf;" horiz-adv-x="249" 
d="M61 0q-21 0 -18 20l99 627q3 17 21 17h51q21 0 18 -20l-99 -627q-3 -17 -21 -17h-51zM124 753q-21 0 -33.5 12.5t-12.5 32.5q0 23 15 38.5t38 15.5q20 0 33 -13t13 -33q0 -23 -15.5 -38t-37.5 -15zM291 753q-20 0 -33 13t-13 33q0 23 15 38t37 15q21 0 34 -13t13 -33
q0 -23 -15 -38t-38 -15z" />
    <glyph glyph-name="Eth" unicode="&#xd0;" horiz-adv-x="602" 
d="M369 664q104 0 157.5 -44.5t53.5 -132.5q0 -13 -1.5 -26.5t-3.5 -27.5l-33 -207q-18 -115 -83.5 -170.5t-185.5 -55.5h-201q-21 0 -18 20l44 277h-46q-21 0 -18 20l6 42q3 17 21 17h49l43 271q3 17 21 17h195zM484 425q4 23 4 46q0 114 -130 114h-124l-33 -209h115
q21 0 18 -20l-7 -42q-3 -17 -21 -17h-118l-35 -218h123q78 0 121 39.5t57 121.5z" />
    <glyph glyph-name="Ntilde" unicode="&#xd1;" horiz-adv-x="623" 
d="M430 0q-16 0 -22 15l-196 505h-2l-79 -503q-3 -17 -21 -17h-49q-21 0 -18 20l99 627q3 17 21 17h64q16 0 22 -15l190 -492h2l77 490q3 17 21 17h49q21 0 18 -20l-99 -627q-3 -17 -21 -17h-56zM260 739q-18 0 -13 18q27 102 101 102q19 0 32.5 -7t33.5 -24q14 -12 21 -17
t18 -5q28 0 42 41q4 13 17 13h25q18 0 13 -18q-29 -102 -101 -102q-20 0 -34.5 7t-32.5 24q-14 12 -21 17t-18 5q-28 0 -42 -41q-4 -13 -17 -13h-24z" />
    <glyph glyph-name="Ograve" unicode="&#xd2;" horiz-adv-x="588" 
d="M86 439q19 118 84 177.5t180 59.5q103 0 159.5 -48.5t56.5 -140.5q0 -13 -1.5 -26.5t-3.5 -27.5l-33 -208q-19 -118 -84 -177.5t-180 -59.5q-104 0 -159.5 49t-55.5 142q0 12 1 25t3 27zM144 237q-4 -23 -4 -48q0 -122 128 -122q76 0 117 41.5t55 129.5l30 189
q2 14 3 26.5t1 23.5q0 62 -32 91t-95 29q-76 0 -118 -42.5t-56 -130.5zM357 729q-14 0 -19 11l-65 121q-10 20 12 20h48q14 0 20 -13l55 -120q4 -8 1 -13.5t-13 -5.5h-39z" />
    <glyph glyph-name="Oacute" unicode="&#xd3;" horiz-adv-x="588" 
d="M86 439q19 118 84 177.5t180 59.5q103 0 159.5 -48.5t56.5 -140.5q0 -13 -1.5 -26.5t-3.5 -27.5l-33 -208q-19 -118 -84 -177.5t-180 -59.5q-104 0 -159.5 49t-55.5 142q0 12 1 25t3 27zM144 237q-4 -23 -4 -48q0 -122 128 -122q76 0 117 41.5t55 129.5l30 189
q2 14 3 26.5t1 23.5q0 62 -32 91t-95 29q-76 0 -118 -42.5t-56 -130.5zM408 738q-9 -9 -20 -9h-45q-11 0 -13.5 6t3.5 14l96 122q9 10 21 10h53q11 0 14.5 -6.5t-4.5 -14.5z" />
    <glyph glyph-name="Ocircumflex" unicode="&#xd4;" horiz-adv-x="588" 
d="M86 439q19 118 84 177.5t180 59.5q103 0 159.5 -48.5t56.5 -140.5q0 -13 -1.5 -26.5t-3.5 -27.5l-33 -208q-19 -118 -84 -177.5t-180 -59.5q-104 0 -159.5 49t-55.5 142q0 12 1 25t3 27zM144 237q-4 -23 -4 -48q0 -122 128 -122q76 0 117 41.5t55 129.5l30 189
q2 14 3 26.5t1 23.5q0 62 -32 91t-95 29q-76 0 -118 -42.5t-56 -130.5zM315 738q-9 -9 -20 -9h-41q-11 0 -13.5 6t4.5 14l104 122q9 10 21 10h45q14 0 20 -12l64 -121q5 -8 1.5 -13.5t-12.5 -5.5h-37q-13 0 -19 11l-44 83z" />
    <glyph glyph-name="Otilde" unicode="&#xd5;" horiz-adv-x="588" 
d="M86 439q19 118 84 177.5t180 59.5q103 0 159.5 -48.5t56.5 -140.5q0 -13 -1.5 -26.5t-3.5 -27.5l-33 -208q-19 -118 -84 -177.5t-180 -59.5q-104 0 -159.5 49t-55.5 142q0 12 1 25t3 27zM144 237q-4 -23 -4 -48q0 -122 128 -122q76 0 117 41.5t55 129.5l30 189
q2 14 3 26.5t1 23.5q0 62 -32 91t-95 29q-76 0 -118 -42.5t-56 -130.5zM242 739q-18 0 -13 18q27 102 101 102q19 0 32.5 -7t33.5 -24q14 -12 21 -17t18 -5q28 0 42 41q4 13 17 13h25q18 0 13 -18q-29 -102 -101 -102q-20 0 -34.5 7t-32.5 24q-14 12 -21 17t-18 5
q-28 0 -42 -41q-4 -13 -17 -13h-24z" />
    <glyph glyph-name="Odieresis" unicode="&#xd6;" horiz-adv-x="588" 
d="M86 439q19 118 84 177.5t180 59.5q103 0 159.5 -48.5t56.5 -140.5q0 -13 -1.5 -26.5t-3.5 -27.5l-33 -208q-19 -118 -84 -177.5t-180 -59.5q-104 0 -159.5 49t-55.5 142q0 12 1 25t3 27zM144 237q-4 -23 -4 -48q0 -122 128 -122q76 0 117 41.5t55 129.5l30 189
q2 14 3 26.5t1 23.5q0 62 -32 91t-95 29q-76 0 -118 -42.5t-56 -130.5zM294 753q-21 0 -33.5 12.5t-12.5 32.5q0 23 15 38.5t38 15.5q20 0 33 -13t13 -33q0 -23 -15.5 -38t-37.5 -15zM461 753q-20 0 -33 13t-13 33q0 23 15 38t37 15q21 0 34 -13t13 -33q0 -23 -15 -38
t-38 -15z" />
    <glyph glyph-name="multiply" unicode="&#xd7;" horiz-adv-x="529" 
d="M465 112q12 -14 -2 -26l-31 -27q-14 -13 -26 2l-140 164l-192 -167q-13 -12 -27 2l-24 27q-12 14 2 27l193 167l-139 165q-12 14 2 26l32 27q15 12 26 -2l139 -164l193 167q15 13 27 -2l23 -27q12 -15 -1 -26l-194 -168z" />
    <glyph glyph-name="Oslash" unicode="&#xd8;" horiz-adv-x="588" 
d="M586 646q12 -13 2 -26l-39 -47q17 -39 17 -86q0 -13 -1.5 -26.5t-3.5 -27.5l-33 -208q-19 -118 -84 -177.5t-180 -59.5q-101 0 -156 47l-30 -36q-12 -14 -26 -2l-24 21q-13 12 -2 26l39 48q-16 40 -16 87q0 12 1 25t3 27l33 208q19 118 84 177.5t180 59.5q101 0 157 -47
l29 36q12 14 26 2zM144 237q-4 -23 -4 -48v-4h2l308 375q-31 37 -103 37q-76 0 -118 -42.5t-56 -130.5zM165 105q31 -38 103 -38q76 0 117 41.5t55 129.5l30 189q2 14 3 26.5t1 23.5v2h-2z" />
    <glyph glyph-name="Ugrave" unicode="&#xd9;" horiz-adv-x="588" 
d="M515 217q-36 -229 -251 -229q-98 0 -151 47t-53 136q0 12 1 25t3 27l67 424q3 17 21 17h51q21 0 18 -20l-66 -416q-4 -23 -4 -46q0 -115 118 -115q71 0 109 39.5t51 123.5l66 417q3 17 21 17h48q21 0 18 -20zM358 729q-14 0 -19 11l-65 121q-10 20 12 20h48q14 0 20 -13
l55 -120q4 -8 1 -13.5t-13 -5.5h-39z" />
    <glyph glyph-name="Uacute" unicode="&#xda;" horiz-adv-x="588" 
d="M515 217q-36 -229 -251 -229q-98 0 -151 47t-53 136q0 12 1 25t3 27l67 424q3 17 21 17h51q21 0 18 -20l-66 -416q-4 -23 -4 -46q0 -115 118 -115q71 0 109 39.5t51 123.5l66 417q3 17 21 17h48q21 0 18 -20zM409 738q-9 -9 -20 -9h-45q-11 0 -13.5 6t3.5 14l96 122
q9 10 21 10h53q11 0 14.5 -6.5t-4.5 -14.5z" />
    <glyph glyph-name="Ucircumflex" unicode="&#xdb;" horiz-adv-x="588" 
d="M515 217q-36 -229 -251 -229q-98 0 -151 47t-53 136q0 12 1 25t3 27l67 424q3 17 21 17h51q21 0 18 -20l-66 -416q-4 -23 -4 -46q0 -115 118 -115q71 0 109 39.5t51 123.5l66 417q3 17 21 17h48q21 0 18 -20zM316 738q-9 -9 -20 -9h-41q-11 0 -13.5 6t4.5 14l104 122
q9 10 21 10h45q14 0 20 -12l64 -121q5 -8 1.5 -13.5t-12.5 -5.5h-37q-13 0 -19 11l-44 83z" />
    <glyph glyph-name="Udieresis" unicode="&#xdc;" horiz-adv-x="588" 
d="M515 217q-36 -229 -251 -229q-98 0 -151 47t-53 136q0 12 1 25t3 27l67 424q3 17 21 17h51q21 0 18 -20l-66 -416q-4 -23 -4 -46q0 -115 118 -115q71 0 109 39.5t51 123.5l66 417q3 17 21 17h48q21 0 18 -20zM295 753q-21 0 -33.5 12.5t-12.5 32.5q0 23 15 38.5t38 15.5
q20 0 33 -13t13 -33q0 -23 -15.5 -38t-37.5 -15zM462 753q-20 0 -33 13t-13 33q0 23 15 38t37 15q21 0 34 -13t13 -33q0 -23 -15 -38t-38 -15z" />
    <glyph glyph-name="Yacute" unicode="&#xdd;" horiz-adv-x="530" 
d="M201 0q-21 0 -18 20l43 275l-150 347q-5 10 -1 16t15 6h59q16 0 22 -15l113 -273l198 276q9 12 24 12h62q12 0 15.5 -6.5t-3.5 -16.5l-264 -351l-43 -273q-3 -17 -21 -17h-51zM379 738q-9 -9 -20 -9h-45q-11 0 -13.5 6t3.5 14l96 122q9 10 21 10h53q11 0 14.5 -6.5
t-4.5 -14.5z" />
    <glyph glyph-name="Thorn" unicode="&#xde;" horiz-adv-x="546" 
d="M328 546q104 0 156 -42.5t52 -132.5q0 -121 -64.5 -177t-203.5 -56h-116l-19 -121q-3 -17 -21 -17h-51q-21 0 -18 20l99 627q3 17 21 17h51q21 0 18 -20l-16 -98h112zM445 365q0 53 -31.5 77.5t-95.5 24.5h-114l-40 -250h113q87 0 127.5 36t40.5 112z" />
    <glyph glyph-name="germandbls" unicode="&#xdf;" horiz-adv-x="552" 
d="M113 537q13 83 69.5 129t147.5 46q81 0 127.5 -38t46.5 -106q0 -51 -22.5 -85.5t-78.5 -66.5q-39 -23 -53 -40t-14 -40q0 -19 12.5 -30t50.5 -22q60 -17 84 -45.5t24 -81.5q0 -80 -50 -124.5t-140 -44.5q-96 0 -148 42q-14 13 -3 27l21 29q11 14 27 2q35 -28 101 -28
q51 0 80 23.5t29 63.5q0 26 -16.5 42t-58.5 30q-53 17 -75 42t-22 69q0 46 21 77.5t76 63.5q42 25 57.5 44t15.5 48q0 37 -25.5 57t-71.5 20q-54 0 -87.5 -27.5t-41.5 -79.5l-82 -516q-3 -17 -21 -17h-44q-21 0 -18 20z" />
    <glyph glyph-name="agrave" unicode="&#xe0;" horiz-adv-x="456" 
d="M249 507q83 0 127.5 -39t44.5 -114q0 -21 -4 -44l-22 -136q-14 -93 -66 -139.5t-146 -46.5q-78 0 -120.5 36.5t-42.5 102.5q0 79 50 122.5t149 43.5h112l2 12q3 21 3 38q0 48 -24.5 70t-73.5 22q-30 0 -55 -10t-47 -27q-17 -14 -28 4l-17 28q-9 15 6 27q35 26 71.5 38
t80.5 12zM189 60q55 0 84.5 30.5t40.5 95.5l6 38h-98q-57 0 -88 -23.5t-31 -70.5q0 -35 22 -52.5t64 -17.5zM270 566q-14 0 -19 11l-65 121q-10 20 12 20h48q14 0 20 -13l55 -120q4 -8 1 -13.5t-13 -5.5h-39z" />
    <glyph glyph-name="aacute" unicode="&#xe1;" horiz-adv-x="456" 
d="M249 507q83 0 127.5 -39t44.5 -114q0 -21 -4 -44l-22 -136q-14 -93 -66 -139.5t-146 -46.5q-78 0 -120.5 36.5t-42.5 102.5q0 79 50 122.5t149 43.5h112l2 12q3 21 3 38q0 48 -24.5 70t-73.5 22q-30 0 -55 -10t-47 -27q-17 -14 -28 4l-17 28q-9 15 6 27q35 26 71.5 38
t80.5 12zM189 60q55 0 84.5 30.5t40.5 95.5l6 38h-98q-57 0 -88 -23.5t-31 -70.5q0 -35 22 -52.5t64 -17.5zM321 575q-9 -9 -20 -9h-45q-11 0 -13.5 6t3.5 14l96 122q9 10 21 10h53q11 0 14.5 -6.5t-4.5 -14.5z" />
    <glyph glyph-name="acircumflex" unicode="&#xe2;" horiz-adv-x="456" 
d="M249 507q83 0 127.5 -39t44.5 -114q0 -21 -4 -44l-22 -136q-14 -93 -66 -139.5t-146 -46.5q-78 0 -120.5 36.5t-42.5 102.5q0 79 50 122.5t149 43.5h112l2 12q3 21 3 38q0 48 -24.5 70t-73.5 22q-30 0 -55 -10t-47 -27q-17 -14 -28 4l-17 28q-9 15 6 27q35 26 71.5 38
t80.5 12zM189 60q55 0 84.5 30.5t40.5 95.5l6 38h-98q-57 0 -88 -23.5t-31 -70.5q0 -35 22 -52.5t64 -17.5zM228 575q-9 -9 -20 -9h-41q-11 0 -13.5 6t4.5 14l104 122q9 10 21 10h45q14 0 20 -12l64 -121q5 -8 1.5 -13.5t-12.5 -5.5h-37q-13 0 -19 11l-44 83z" />
    <glyph glyph-name="atilde" unicode="&#xe3;" horiz-adv-x="456" 
d="M249 507q83 0 127.5 -39t44.5 -114q0 -21 -4 -44l-22 -136q-14 -93 -66 -139.5t-146 -46.5q-78 0 -120.5 36.5t-42.5 102.5q0 79 50 122.5t149 43.5h112l2 12q3 21 3 38q0 48 -24.5 70t-73.5 22q-30 0 -55 -10t-47 -27q-17 -14 -28 4l-17 28q-9 15 6 27q35 26 71.5 38
t80.5 12zM189 60q55 0 84.5 30.5t40.5 95.5l6 38h-98q-57 0 -88 -23.5t-31 -70.5q0 -35 22 -52.5t64 -17.5zM155 576q-18 0 -13 18q27 102 101 102q19 0 32.5 -7t33.5 -24q14 -12 21 -17t18 -5q28 0 42 41q4 13 17 13h25q18 0 13 -18q-29 -102 -101 -102q-20 0 -34.5 7
t-32.5 24q-14 12 -21 17t-18 5q-28 0 -42 -41q-4 -13 -17 -13h-24z" />
    <glyph glyph-name="adieresis" unicode="&#xe4;" horiz-adv-x="456" 
d="M249 507q83 0 127.5 -39t44.5 -114q0 -21 -4 -44l-22 -136q-14 -93 -66 -139.5t-146 -46.5q-78 0 -120.5 36.5t-42.5 102.5q0 79 50 122.5t149 43.5h112l2 12q3 21 3 38q0 48 -24.5 70t-73.5 22q-30 0 -55 -10t-47 -27q-17 -14 -28 4l-17 28q-9 15 6 27q35 26 71.5 38
t80.5 12zM189 60q55 0 84.5 30.5t40.5 95.5l6 38h-98q-57 0 -88 -23.5t-31 -70.5q0 -35 22 -52.5t64 -17.5zM207 590q-21 0 -33.5 12.5t-12.5 32.5q0 23 15 38.5t38 15.5q20 0 33 -13t13 -33q0 -23 -15.5 -38t-37.5 -15zM374 590q-20 0 -33 13t-13 33q0 23 15 38t37 15
q21 0 34 -13t13 -33q0 -23 -15 -38t-38 -15z" />
    <glyph glyph-name="aring" unicode="&#xe5;" horiz-adv-x="456" 
d="M249 507q83 0 127.5 -39t44.5 -114q0 -21 -4 -44l-22 -136q-14 -93 -66 -139.5t-146 -46.5q-78 0 -120.5 36.5t-42.5 102.5q0 79 50 122.5t149 43.5h112l2 12q3 21 3 38q0 48 -24.5 70t-73.5 22q-30 0 -55 -10t-47 -27q-17 -14 -28 4l-17 28q-9 15 6 27q35 26 71.5 38
t80.5 12zM189 60q55 0 84.5 30.5t40.5 95.5l6 38h-98q-57 0 -88 -23.5t-31 -70.5q0 -35 22 -52.5t64 -17.5zM288 560q-34 0 -55.5 21t-21.5 53q0 39 26.5 64.5t63.5 25.5q33 0 54.5 -21t21.5 -53q0 -39 -26.5 -64.5t-62.5 -25.5zM290 604q17 0 29.5 12t12.5 31q0 15 -9.5 24
t-24.5 9q-17 0 -29.5 -12t-12.5 -31q0 -33 34 -33z" />
    <glyph glyph-name="ae" unicode="&#xe6;" horiz-adv-x="734" 
d="M553 507q75 0 115 -38.5t40 -108.5q0 -11 -1 -22t-3 -22l-12 -77q-3 -17 -21 -17h-269l-5 -32q-3 -21 -3 -38q0 -49 26 -70.5t80 -21.5q29 0 54 11t50 32q15 14 26 -3l18 -27q10 -15 -3 -27q-64 -58 -150 -58q-123 0 -153 84h-2q-25 -42 -66 -63t-102 -21
q-72 0 -112 36.5t-40 101.5q0 79 49.5 122t148.5 43h113l2 14q3 21 3 39q0 48 -23.5 69.5t-73.5 21.5q-29 0 -56.5 -10.5t-49.5 -27.5q-15 -12 -26 5l-17 28q-9 15 5 26q35 26 73 38.5t77 12.5q115 0 144 -83h2q49 83 162 83zM624 310q2 12 3 21.5t1 18.5q0 85 -87 85
q-54 0 -84.5 -30.5t-41.5 -95.5l-3 -18h209zM220 222q-57 0 -87 -23t-30 -70q0 -69 85 -69q55 0 85 30.5t41 95.5l6 36h-100z" />
    <glyph glyph-name="ccedilla" unicode="&#xe7;" horiz-adv-x="405" 
d="M402 462q13 -13 0 -27l-24 -26q-11 -13 -26 0q-16 14 -36 20t-47 6q-54 0 -85.5 -31t-42.5 -100l-18 -114q-3 -20 -3 -37q0 -49 25 -71t73 -22q26 0 47.5 9t41.5 25q15 13 27 -3l17 -25q10 -15 -3 -27q-60 -51 -140 -51l-12 -34q32 -3 47.5 -18t15.5 -38q0 -34 -25.5 -52
t-73.5 -18q-44 0 -75 17q-11 6 -5 20l9 20q6 13 20 5q10 -5 22.5 -8.5t27.5 -3.5q20 0 30.5 6.5t10.5 16.5q0 13 -11.5 17t-34.5 4q-17 0 -11 16l20 53q-61 11 -94.5 48.5t-33.5 102.5q0 10 1 21t3 22l21 132q30 190 209 190q43 0 76.5 -12t56.5 -33z" />
    <glyph glyph-name="egrave" unicode="&#xe8;" horiz-adv-x="458" 
d="M266 507q80 0 123 -38.5t43 -110.5q0 -20 -3 -42l-12 -80q-3 -17 -21 -17h-269l-5 -29q-3 -21 -3 -37q0 -49 26 -71t80 -22q29 0 54 11t50 32q15 14 26 -3l18 -27q10 -15 -3 -27q-33 -29 -71.5 -43.5t-80.5 -14.5q-89 0 -136 38.5t-47 113.5q0 11 1 22t3 23l21 136
q30 186 206 186zM350 310q3 21 3 38q0 45 -22 66t-67 21q-54 0 -83 -30.5t-40 -95.5l-3 -21h209zM274 566q-14 0 -19 11l-65 121q-10 20 12 20h48q14 0 20 -13l55 -120q4 -8 1 -13.5t-13 -5.5h-39z" />
    <glyph glyph-name="eacute" unicode="&#xe9;" horiz-adv-x="458" 
d="M266 507q80 0 123 -38.5t43 -110.5q0 -20 -3 -42l-12 -80q-3 -17 -21 -17h-269l-5 -29q-3 -21 -3 -37q0 -49 26 -71t80 -22q29 0 54 11t50 32q15 14 26 -3l18 -27q10 -15 -3 -27q-33 -29 -71.5 -43.5t-80.5 -14.5q-89 0 -136 38.5t-47 113.5q0 11 1 22t3 23l21 136
q30 186 206 186zM350 310q3 21 3 38q0 45 -22 66t-67 21q-54 0 -83 -30.5t-40 -95.5l-3 -21h209zM325 575q-9 -9 -20 -9h-45q-11 0 -13.5 6t3.5 14l96 122q9 10 21 10h53q11 0 14.5 -6.5t-4.5 -14.5z" />
    <glyph glyph-name="ecircumflex" unicode="&#xea;" horiz-adv-x="458" 
d="M266 507q80 0 123 -38.5t43 -110.5q0 -20 -3 -42l-12 -80q-3 -17 -21 -17h-269l-5 -29q-3 -21 -3 -37q0 -49 26 -71t80 -22q29 0 54 11t50 32q15 14 26 -3l18 -27q10 -15 -3 -27q-33 -29 -71.5 -43.5t-80.5 -14.5q-89 0 -136 38.5t-47 113.5q0 11 1 22t3 23l21 136
q30 186 206 186zM350 310q3 21 3 38q0 45 -22 66t-67 21q-54 0 -83 -30.5t-40 -95.5l-3 -21h209zM232 575q-9 -9 -20 -9h-41q-11 0 -13.5 6t4.5 14l104 122q9 10 21 10h45q14 0 20 -12l64 -121q5 -8 1.5 -13.5t-12.5 -5.5h-37q-13 0 -19 11l-44 83z" />
    <glyph glyph-name="edieresis" unicode="&#xeb;" horiz-adv-x="458" 
d="M266 507q80 0 123 -38.5t43 -110.5q0 -20 -3 -42l-12 -80q-3 -17 -21 -17h-269l-5 -29q-3 -21 -3 -37q0 -49 26 -71t80 -22q29 0 54 11t50 32q15 14 26 -3l18 -27q10 -15 -3 -27q-33 -29 -71.5 -43.5t-80.5 -14.5q-89 0 -136 38.5t-47 113.5q0 11 1 22t3 23l21 136
q30 186 206 186zM350 310q3 21 3 38q0 45 -22 66t-67 21q-54 0 -83 -30.5t-40 -95.5l-3 -21h209zM211 590q-21 0 -33.5 12.5t-12.5 32.5q0 23 15 38.5t38 15.5q20 0 33 -13t13 -33q0 -23 -15.5 -38t-37.5 -15zM378 590q-20 0 -33 13t-13 33q0 23 15 38t37 15q21 0 34 -13
t13 -33q0 -23 -15 -38t-38 -15z" />
    <glyph glyph-name="igrave" unicode="&#xec;" horiz-adv-x="217" 
d="M168 495q21 0 18 -20l-73 -458q-3 -17 -21 -17h-44q-21 0 -18 20l73 458q3 17 21 17h44zM146 566q-14 0 -19 11l-65 121q-10 20 12 20h48q14 0 20 -13l55 -120q4 -8 1 -13.5t-13 -5.5h-39z" />
    <glyph glyph-name="iacute" unicode="&#xed;" horiz-adv-x="217" 
d="M168 495q21 0 18 -20l-73 -458q-3 -17 -21 -17h-44q-21 0 -18 20l73 458q3 17 21 17h44zM197 575q-9 -9 -20 -9h-45q-11 0 -13.5 6t3.5 14l96 122q9 10 21 10h53q11 0 14.5 -6.5t-4.5 -14.5z" />
    <glyph glyph-name="icircumflex" unicode="&#xee;" horiz-adv-x="217" 
d="M168 495q21 0 18 -20l-73 -458q-3 -17 -21 -17h-44q-21 0 -18 20l73 458q3 17 21 17h44zM104 575q-9 -9 -20 -9h-41q-11 0 -13.5 6t4.5 14l104 122q9 10 21 10h45q14 0 20 -12l64 -121q5 -8 1.5 -13.5t-12.5 -5.5h-37q-13 0 -19 11l-44 83z" />
    <glyph glyph-name="idieresis" unicode="&#xef;" horiz-adv-x="217" 
d="M168 495q21 0 18 -20l-73 -458q-3 -17 -21 -17h-44q-21 0 -18 20l73 458q3 17 21 17h44zM83 590q-21 0 -33.5 12.5t-12.5 32.5q0 23 15 38.5t38 15.5q20 0 33 -13t13 -33q0 -23 -15.5 -38t-37.5 -15zM250 590q-20 0 -33 13t-13 33q0 23 15 38t37 15q21 0 34 -13t13 -33
q0 -23 -15 -38t-38 -15z" />
    <glyph glyph-name="eth" unicode="&#xf0;" horiz-adv-x="483" 
d="M388 626q59 -66 59 -192q0 -26 -2.5 -55.5t-7.5 -61.5l-23 -143q-30 -186 -209 -186q-82 0 -126 39t-44 111q0 19 3 42l21 132q30 185 196 185q73 0 107 -48h2q-3 86 -44 130l-68 -47q-15 -10 -24 4l-17 25q-9 13 5 24l45 32v2q-33 11 -80 19q-21 2 -16 23l9 36
q5 17 22 14q85 -10 140 -43l50 35q14 11 24 -4l17 -25q9 -13 -5 -24zM350 300q3 19 3 35q0 90 -89 90q-54 0 -83.5 -30.5t-40.5 -95.5l-18 -114q-3 -21 -3 -38q0 -45 22.5 -66t67.5 -21q54 0 83.5 30.5t39.5 95.5z" />
    <glyph glyph-name="ntilde" unicode="&#xf1;" horiz-adv-x="494" 
d="M359 313q3 19 3 37q0 85 -87 85q-53 0 -81.5 -30t-38.5 -93l-46 -295q-3 -17 -21 -17h-44q-21 0 -18 20l48 305q29 182 205 182q81 0 124 -38t43 -109q0 -20 -3 -41l-48 -302q-3 -17 -21 -17h-44q-21 0 -18 20zM170 576q-18 0 -13 18q27 102 101 102q19 0 32.5 -7
t33.5 -24q14 -12 21 -17t18 -5q28 0 42 41q4 13 17 13h25q18 0 13 -18q-29 -102 -101 -102q-20 0 -34.5 7t-32.5 24q-14 12 -21 17t-18 5q-28 0 -42 -41q-4 -13 -17 -13h-24z" />
    <glyph glyph-name="ograve" unicode="&#xf2;" horiz-adv-x="475" 
d="M269 507q82 0 126 -39t44 -111q0 -19 -3 -41l-22 -143q-29 -185 -209 -185q-82 0 -126.5 39t-44.5 111q0 20 3 41l23 142q30 186 209 186zM209 60q54 0 83.5 30.5t39.5 95.5l20 124q3 21 3 38q0 87 -90 87q-54 0 -83 -30.5t-40 -95.5l-20 -124q-3 -21 -3 -38
q0 -87 90 -87zM275 566q-14 0 -19 11l-65 121q-10 20 12 20h48q14 0 20 -13l55 -120q4 -8 1 -13.5t-13 -5.5h-39z" />
    <glyph glyph-name="oacute" unicode="&#xf3;" horiz-adv-x="475" 
d="M269 507q82 0 126 -39t44 -111q0 -19 -3 -41l-22 -143q-29 -185 -209 -185q-82 0 -126.5 39t-44.5 111q0 20 3 41l23 142q30 186 209 186zM209 60q54 0 83.5 30.5t39.5 95.5l20 124q3 21 3 38q0 87 -90 87q-54 0 -83 -30.5t-40 -95.5l-20 -124q-3 -21 -3 -38
q0 -87 90 -87zM326 575q-9 -9 -20 -9h-45q-11 0 -13.5 6t3.5 14l96 122q9 10 21 10h53q11 0 14.5 -6.5t-4.5 -14.5z" />
    <glyph glyph-name="ocircumflex" unicode="&#xf4;" horiz-adv-x="475" 
d="M269 507q82 0 126 -39t44 -111q0 -19 -3 -41l-22 -143q-29 -185 -209 -185q-82 0 -126.5 39t-44.5 111q0 20 3 41l23 142q30 186 209 186zM209 60q54 0 83.5 30.5t39.5 95.5l20 124q3 21 3 38q0 87 -90 87q-54 0 -83 -30.5t-40 -95.5l-20 -124q-3 -21 -3 -38
q0 -87 90 -87zM233 575q-9 -9 -20 -9h-41q-11 0 -13.5 6t4.5 14l104 122q9 10 21 10h45q14 0 20 -12l64 -121q5 -8 1.5 -13.5t-12.5 -5.5h-37q-13 0 -19 11l-44 83z" />
    <glyph glyph-name="otilde" unicode="&#xf5;" horiz-adv-x="475" 
d="M269 507q82 0 126 -39t44 -111q0 -19 -3 -41l-22 -143q-29 -185 -209 -185q-82 0 -126.5 39t-44.5 111q0 20 3 41l23 142q30 186 209 186zM209 60q54 0 83.5 30.5t39.5 95.5l20 124q3 21 3 38q0 87 -90 87q-54 0 -83 -30.5t-40 -95.5l-20 -124q-3 -21 -3 -38
q0 -87 90 -87zM160 576q-18 0 -13 18q27 102 101 102q19 0 32.5 -7t33.5 -24q14 -12 21 -17t18 -5q28 0 42 41q4 13 17 13h25q18 0 13 -18q-29 -102 -101 -102q-20 0 -34.5 7t-32.5 24q-14 12 -21 17t-18 5q-28 0 -42 -41q-4 -13 -17 -13h-24z" />
    <glyph glyph-name="odieresis" unicode="&#xf6;" horiz-adv-x="475" 
d="M269 507q82 0 126 -39t44 -111q0 -19 -3 -41l-22 -143q-29 -185 -209 -185q-82 0 -126.5 39t-44.5 111q0 20 3 41l23 142q30 186 209 186zM209 60q54 0 83.5 30.5t39.5 95.5l20 124q3 21 3 38q0 87 -90 87q-54 0 -83 -30.5t-40 -95.5l-20 -124q-3 -21 -3 -38
q0 -87 90 -87zM212 590q-21 0 -33.5 12.5t-12.5 32.5q0 23 15 38.5t38 15.5q20 0 33 -13t13 -33q0 -23 -15.5 -38t-37.5 -15zM379 590q-20 0 -33 13t-13 33q0 23 15 38t37 15q21 0 34 -13t13 -33q0 -23 -15 -38t-38 -15z" />
    <glyph glyph-name="divide" unicode="&#xf7;" horiz-adv-x="529" 
d="M29 300q3 17 21 17h447q21 0 18 -20l-6 -40q-3 -17 -21 -17h-447q-21 0 -18 20zM234 26q-23 0 -36.5 14t-13.5 35q0 26 17 42.5t41 16.5q23 0 36.5 -14t13.5 -35q0 -26 -17 -42.5t-41 -16.5zM297 424q-23 0 -36.5 14t-13.5 35q0 26 17 42.5t41 16.5q23 0 36.5 -14
t13.5 -35q0 -26 -17 -42.5t-41 -16.5z" />
    <glyph glyph-name="oslash" unicode="&#xf8;" horiz-adv-x="475" 
d="M454 475q12 -10 1 -24l-27 -31q11 -30 11 -63q0 -19 -3 -41l-22 -143q-29 -185 -209 -185q-74 0 -117 32l-19 -22q-12 -13 -24 -1l-25 23q-12 10 -1 24l26 31q-11 28 -11 63q0 20 3 41l23 142q30 186 209 186q74 0 117 -32l19 22q12 13 24 1zM333 413q-22 22 -68 22
q-54 0 -83 -30.5t-40 -95.5l-20 -124q-2 -9 -2.5 -13.5t-0.5 -7.5h2zM353 331l-212 -249q22 -22 68 -22q54 0 83 30.5t40 95.5l20 124q3 15 3 21h-2z" />
    <glyph glyph-name="ugrave" unicode="&#xf9;" horiz-adv-x="488" 
d="M413 167q-29 -179 -201 -179q-80 0 -122.5 37t-42.5 107q0 20 3 41l48 305q3 17 21 17h44q21 0 18 -20l-47 -297q-3 -20 -3 -34q0 -44 21 -64t65 -20q52 0 79.5 28.5t37.5 88.5l47 301q3 17 21 17h42q21 0 18 -20zM282 566q-14 0 -19 11l-65 121q-10 20 12 20h48
q14 0 20 -13l55 -120q4 -8 1 -13.5t-13 -5.5h-39z" />
    <glyph glyph-name="uacute" unicode="&#xfa;" horiz-adv-x="488" 
d="M413 167q-29 -179 -201 -179q-80 0 -122.5 37t-42.5 107q0 20 3 41l48 305q3 17 21 17h44q21 0 18 -20l-47 -297q-3 -20 -3 -34q0 -44 21 -64t65 -20q52 0 79.5 28.5t37.5 88.5l47 301q3 17 21 17h42q21 0 18 -20zM333 575q-9 -9 -20 -9h-45q-11 0 -13.5 6t3.5 14l96 122
q9 10 21 10h53q11 0 14.5 -6.5t-4.5 -14.5z" />
    <glyph glyph-name="ucircumflex" unicode="&#xfb;" horiz-adv-x="488" 
d="M413 167q-29 -179 -201 -179q-80 0 -122.5 37t-42.5 107q0 20 3 41l48 305q3 17 21 17h44q21 0 18 -20l-47 -297q-3 -20 -3 -34q0 -44 21 -64t65 -20q52 0 79.5 28.5t37.5 88.5l47 301q3 17 21 17h42q21 0 18 -20zM240 575q-9 -9 -20 -9h-41q-11 0 -13.5 6t4.5 14
l104 122q9 10 21 10h45q14 0 20 -12l64 -121q5 -8 1.5 -13.5t-12.5 -5.5h-37q-13 0 -19 11l-44 83z" />
    <glyph glyph-name="udieresis" unicode="&#xfc;" horiz-adv-x="488" 
d="M413 167q-29 -179 -201 -179q-80 0 -122.5 37t-42.5 107q0 20 3 41l48 305q3 17 21 17h44q21 0 18 -20l-47 -297q-3 -20 -3 -34q0 -44 21 -64t65 -20q52 0 79.5 28.5t37.5 88.5l47 301q3 17 21 17h42q21 0 18 -20zM219 590q-21 0 -33.5 12.5t-12.5 32.5q0 23 15 38.5
t38 15.5q20 0 33 -13t13 -33q0 -23 -15.5 -38t-37.5 -15zM386 590q-20 0 -33 13t-13 33q0 23 15 38t37 15q21 0 34 -13t13 -33q0 -23 -15 -38t-38 -15z" />
    <glyph glyph-name="yacute" unicode="&#xfd;" horiz-adv-x="499" 
d="M450 495q21 0 18 -20l-76 -473q-13 -83 -66 -128.5t-140 -45.5q-102 0 -161 56q-12 12 -1 27l22 28q12 15 27 2q44 -41 113 -41q54 0 85.5 29t39.5 83l6 37h-2q-44 -45 -117 -45q-72 0 -110.5 36.5t-38.5 105.5q0 11 1 22.5t3 23.5l45 286q3 17 21 17h44q21 0 18 -20
l-44 -278q-3 -20 -3 -36q0 -85 87 -85q52 0 81 30.5t39 91.5l44 280q3 17 21 17h44zM336 575q-9 -9 -20 -9h-45q-11 0 -13.5 6t3.5 14l96 122q9 10 21 10h53q11 0 14.5 -6.5t-4.5 -14.5z" />
    <glyph glyph-name="thorn" unicode="&#xfe;" horiz-adv-x="493" 
d="M303 507q75 0 115 -37.5t40 -107.5q0 -11 -1 -22.5t-3 -23.5l-22 -142q-30 -186 -198 -186q-85 0 -115 57h-2l-30 -188q-3 -17 -21 -17h-44q-21 0 -18 20l131 823q3 17 21 17h44q21 0 18 -20l-35 -219h2q43 46 118 46zM371 310q3 21 3 37q0 88 -91 88q-104 0 -124 -126
l-19 -124q-3 -20 -3 -35q0 -90 91 -90q54 0 83 31t40 95z" />
    <glyph glyph-name="ydieresis" unicode="&#xff;" horiz-adv-x="499" 
d="M450 495q21 0 18 -20l-76 -473q-13 -83 -66 -128.5t-140 -45.5q-102 0 -161 56q-12 12 -1 27l22 28q12 15 27 2q44 -41 113 -41q54 0 85.5 29t39.5 83l6 37h-2q-44 -45 -117 -45q-72 0 -110.5 36.5t-38.5 105.5q0 11 1 22.5t3 23.5l45 286q3 17 21 17h44q21 0 18 -20
l-44 -278q-3 -20 -3 -36q0 -85 87 -85q52 0 81 30.5t39 91.5l44 280q3 17 21 17h44zM222 590q-21 0 -33.5 12.5t-12.5 32.5q0 23 15 38.5t38 15.5q20 0 33 -13t13 -33q0 -23 -15.5 -38t-37.5 -15zM389 590q-20 0 -33 13t-13 33q0 23 15 38t37 15q21 0 34 -13t13 -33
q0 -23 -15 -38t-38 -15z" />
    <glyph glyph-name="Amacron" unicode="&#x100;" horiz-adv-x="587" 
d="M522 21q3 -21 -17 -21h-52q-18 0 -21 17l-19 115h-272l-56 -118q-7 -14 -23 -14h-55q-24 0 -14 22l311 628q7 14 22 14h63q17 0 20 -17zM343 557l-164 -346h222l-56 346h-2zM508 777q-3 -15 -19 -15h-229q-18 0 -15 18l5 32q1 16 18 16h230q18 0 15 -18z" />
    <glyph glyph-name="amacron" unicode="&#x101;" horiz-adv-x="456" 
d="M249 507q83 0 127.5 -39t44.5 -114q0 -21 -4 -44l-22 -136q-14 -93 -66 -139.5t-146 -46.5q-78 0 -120.5 36.5t-42.5 102.5q0 79 50 122.5t149 43.5h112l2 12q3 21 3 38q0 48 -24.5 70t-73.5 22q-30 0 -55 -10t-47 -27q-17 -14 -28 4l-17 28q-9 15 6 27q35 26 71.5 38
t80.5 12zM189 60q55 0 84.5 30.5t40.5 95.5l6 38h-98q-57 0 -88 -23.5t-31 -70.5q0 -35 22 -52.5t64 -17.5zM421 614q-3 -15 -19 -15h-229q-18 0 -15 18l5 32q1 16 18 16h230q18 0 15 -18z" />
    <glyph glyph-name="Abreve" unicode="&#x102;" horiz-adv-x="587" 
d="M522 21q3 -21 -17 -21h-52q-18 0 -21 17l-19 115h-272l-56 -118q-7 -14 -23 -14h-55q-24 0 -14 22l311 628q7 14 22 14h63q17 0 20 -17zM343 557l-164 -346h222l-56 346h-2zM508 864q17 0 14 -17q-11 -53 -49.5 -79.5t-92.5 -26.5q-57 0 -89.5 29t-33.5 79q0 15 15 15h31
q12 0 15 -14q8 -45 63 -45q27 0 48 12t31 35q6 12 18 12h30z" />
    <glyph glyph-name="abreve" unicode="&#x103;" horiz-adv-x="456" 
d="M249 507q83 0 127.5 -39t44.5 -114q0 -21 -4 -44l-22 -136q-14 -93 -66 -139.5t-146 -46.5q-78 0 -120.5 36.5t-42.5 102.5q0 79 50 122.5t149 43.5h112l2 12q3 21 3 38q0 48 -24.5 70t-73.5 22q-30 0 -55 -10t-47 -27q-17 -14 -28 4l-17 28q-9 15 6 27q35 26 71.5 38
t80.5 12zM189 60q55 0 84.5 30.5t40.5 95.5l6 38h-98q-57 0 -88 -23.5t-31 -70.5q0 -35 22 -52.5t64 -17.5zM421 701q17 0 14 -17q-11 -53 -49.5 -79.5t-92.5 -26.5q-57 0 -89.5 29t-33.5 79q0 15 15 15h31q12 0 15 -14q8 -45 63 -45q27 0 48 12t31 35q6 12 18 12h30z" />
    <glyph glyph-name="Aogonek" unicode="&#x104;" horiz-adv-x="587" 
d="M517 -123q9 -13 -3 -23q-33 -26 -79 -26q-37 0 -59 19t-22 51q0 33 17.5 61.5t62.5 48.5l-21 124h-272l-56 -118q-7 -14 -23 -14h-55q-24 0 -14 22l311 628q7 14 22 14h63q17 0 20 -17l113 -626q3 -21 -17 -21h-3q-87 -32 -87 -84q0 -14 8.5 -23t22.5 -9q17 0 36 14
q14 11 23 -3zM345 557h-2l-164 -346h222z" />
    <glyph glyph-name="aogonek" unicode="&#x105;" horiz-adv-x="456" 
d="M249 507q83 0 127.5 -39t44.5 -114q0 -21 -4 -44l-22 -136q-10 -65 -37.5 -106t-75.5 -63q-39 -18 -58 -41.5t-19 -47.5q0 -14 8 -23t22 -9q18 0 38 15q13 10 22 -4l11 -18q8 -14 -4 -23q-17 -13 -34.5 -19.5t-40.5 -6.5q-37 0 -59.5 20t-22.5 53q0 23 9.5 44.5
t32.5 40.5v2h-4q-78 0 -120.5 36.5t-42.5 102.5q0 79 50 122.5t149 43.5h112l2 12q3 21 3 38q0 48 -24.5 70t-73.5 22q-30 0 -55 -10t-47 -27q-17 -14 -28 4l-17 28q-9 15 6 27q35 26 71.5 38t80.5 12zM222 224q-57 0 -88 -23.5t-31 -70.5q0 -35 22 -52.5t64 -17.5
q55 0 84.5 30.5t40.5 95.5l6 38h-98z" />
    <glyph glyph-name="Cacute" unicode="&#x106;" horiz-adv-x="527" 
d="M261 67q50 0 86 20.5t63 60.5q11 16 26 5l35 -23q16 -10 5 -26q-41 -60 -93.5 -88t-127.5 -28q-100 0 -153 48.5t-53 140.5q0 13 1 26.5t3 27.5l33 208q19 118 83.5 177.5t179.5 59.5q73 0 123.5 -30t73.5 -90q6 -17 -10 -25l-40 -18q-17 -7 -25 11q-32 73 -127 73
q-144 0 -171 -173l-29 -187q-2 -14 -3 -26.5t-1 -23.5q0 -120 121 -120zM398 738q-9 -9 -20 -9h-45q-11 0 -13.5 6t3.5 14l96 122q9 10 21 10h53q11 0 14.5 -6.5t-4.5 -14.5z" />
    <glyph glyph-name="cacute" unicode="&#x107;" horiz-adv-x="405" 
d="M351 66q10 -15 -3 -27q-60 -51 -140 -51q-82 0 -127.5 39t-45.5 115q0 10 1 21t3 22l21 132q30 190 209 190q43 0 76.5 -12t56.5 -33q13 -13 0 -27l-24 -26q-11 -13 -26 0q-16 14 -36 20t-47 6q-54 0 -85.5 -31t-42.5 -100l-18 -114q-3 -20 -3 -37q0 -49 25 -71t73 -22
q26 0 47.5 9t41.5 25q15 13 27 -3zM312 575q-9 -9 -20 -9h-45q-11 0 -13.5 6t3.5 14l96 122q9 10 21 10h53q11 0 14.5 -6.5t-4.5 -14.5z" />
    <glyph glyph-name="Ccircumflex" unicode="&#x108;" horiz-adv-x="527" 
d="M261 67q50 0 86 20.5t63 60.5q11 16 26 5l35 -23q16 -10 5 -26q-41 -60 -93.5 -88t-127.5 -28q-100 0 -153 48.5t-53 140.5q0 13 1 26.5t3 27.5l33 208q19 118 83.5 177.5t179.5 59.5q73 0 123.5 -30t73.5 -90q6 -17 -10 -25l-40 -18q-17 -7 -25 11q-32 73 -127 73
q-144 0 -171 -173l-29 -187q-2 -14 -3 -26.5t-1 -23.5q0 -120 121 -120zM305 738q-9 -9 -20 -9h-41q-11 0 -13.5 6t4.5 14l104 122q9 10 21 10h45q14 0 20 -12l64 -121q5 -8 1.5 -13.5t-12.5 -5.5h-37q-13 0 -19 11l-44 83z" />
    <glyph glyph-name="ccircumflex" unicode="&#x109;" horiz-adv-x="405" 
d="M351 66q10 -15 -3 -27q-60 -51 -140 -51q-82 0 -127.5 39t-45.5 115q0 10 1 21t3 22l21 132q30 190 209 190q43 0 76.5 -12t56.5 -33q13 -13 0 -27l-24 -26q-11 -13 -26 0q-16 14 -36 20t-47 6q-54 0 -85.5 -31t-42.5 -100l-18 -114q-3 -20 -3 -37q0 -49 25 -71t73 -22
q26 0 47.5 9t41.5 25q15 13 27 -3zM219 575q-9 -9 -20 -9h-41q-11 0 -13.5 6t4.5 14l104 122q9 10 21 10h45q14 0 20 -12l64 -121q5 -8 1.5 -13.5t-12.5 -5.5h-37q-13 0 -19 11l-44 83z" />
    <glyph glyph-name="Cdotaccent" unicode="&#x10a;" horiz-adv-x="527" 
d="M261 67q50 0 86 20.5t63 60.5q11 16 26 5l35 -23q16 -10 5 -26q-41 -60 -93.5 -88t-127.5 -28q-100 0 -153 48.5t-53 140.5q0 13 1 26.5t3 27.5l33 208q19 118 83.5 177.5t179.5 59.5q73 0 123.5 -30t73.5 -90q6 -17 -10 -25l-40 -18q-17 -7 -25 11q-32 73 -127 73
q-144 0 -171 -173l-29 -187q-2 -14 -3 -26.5t-1 -23.5q0 -120 121 -120zM367 750q-22 0 -35 13.5t-13 34.5q0 25 16 41t39 16q22 0 35.5 -13.5t13.5 -33.5q0 -26 -16 -42t-40 -16z" />
    <glyph glyph-name="cdotaccent" unicode="&#x10b;" horiz-adv-x="405" 
d="M351 66q10 -15 -3 -27q-60 -51 -140 -51q-82 0 -127.5 39t-45.5 115q0 10 1 21t3 22l21 132q30 190 209 190q43 0 76.5 -12t56.5 -33q13 -13 0 -27l-24 -26q-11 -13 -26 0q-16 14 -36 20t-47 6q-54 0 -85.5 -31t-42.5 -100l-18 -114q-3 -20 -3 -37q0 -49 25 -71t73 -22
q26 0 47.5 9t41.5 25q15 13 27 -3zM281 587q-22 0 -35 13.5t-13 34.5q0 25 16 41t39 16q22 0 35.5 -13.5t13.5 -33.5q0 -26 -16 -42t-40 -16z" />
    <glyph glyph-name="Ccaron" unicode="&#x10c;" horiz-adv-x="527" 
d="M261 67q50 0 86 20.5t63 60.5q11 16 26 5l35 -23q16 -10 5 -26q-41 -60 -93.5 -88t-127.5 -28q-100 0 -153 48.5t-53 140.5q0 13 1 26.5t3 27.5l33 208q19 118 83.5 177.5t179.5 59.5q73 0 123.5 -30t73.5 -90q6 -17 -10 -25l-40 -18q-17 -7 -25 11q-32 73 -127 73
q-144 0 -171 -173l-29 -187q-2 -14 -3 -26.5t-1 -23.5q0 -120 121 -120zM404 739q-9 -10 -21 -10h-45q-14 0 -20 12l-64 121q-10 19 12 19h36q13 0 19 -11l44 -82l73 84q9 9 20 9h41q11 0 13.5 -6t-4.5 -14z" />
    <glyph glyph-name="ccaron" unicode="&#x10d;" horiz-adv-x="405" 
d="M351 66q10 -15 -3 -27q-60 -51 -140 -51q-82 0 -127.5 39t-45.5 115q0 10 1 21t3 22l21 132q30 190 209 190q43 0 76.5 -12t56.5 -33q13 -13 0 -27l-24 -26q-11 -13 -26 0q-16 14 -36 20t-47 6q-54 0 -85.5 -31t-42.5 -100l-18 -114q-3 -20 -3 -37q0 -49 25 -71t73 -22
q26 0 47.5 9t41.5 25q15 13 27 -3zM318 576q-9 -10 -21 -10h-45q-14 0 -20 12l-64 121q-10 19 12 19h36q13 0 19 -11l44 -82l73 84q9 9 20 9h41q11 0 13.5 -6t-4.5 -14z" />
    <glyph glyph-name="Dcaron" unicode="&#x10e;" horiz-adv-x="591" 
d="M358 664q104 0 157.5 -44.5t53.5 -132.5q0 -13 -1.5 -26.5t-3.5 -27.5l-33 -207q-18 -115 -83.5 -170.5t-185.5 -55.5h-201q-21 0 -18 20l99 627q3 17 21 17h195zM473 425q4 23 4 46q0 114 -130 114h-124l-81 -506h123q78 0 121 39.5t57 121.5zM402 739q-9 -10 -21 -10
h-45q-14 0 -20 12l-64 121q-10 19 12 19h36q13 0 19 -11l44 -82l73 84q9 9 20 9h41q11 0 13.5 -6t-4.5 -14z" />
    <glyph glyph-name="dcaron" unicode="&#x10f;" horiz-adv-x="488" 
d="M476 700q21 0 18 -20l-81 -506q-15 -93 -66 -139.5t-142 -46.5q-82 0 -126 39t-44 111q0 19 3 42l22 141q30 186 199 186q84 0 113 -55h2l37 231q3 17 21 17h44zM352 310q3 19 3 36q0 89 -89 89q-54 0 -84 -30.5t-41 -95.5l-19 -124q-3 -21 -3 -38q0 -45 22.5 -66
t67.5 -21q55 0 84 30.5t39 95.5zM575 518q-4 -13 -18 -13h-28q-18 0 -13 18l42 162q4 15 19 15h39q19 0 14 -19z" />
    <glyph glyph-name="Dcroat" unicode="&#x110;" horiz-adv-x="602" 
d="M369 664q104 0 157.5 -44.5t53.5 -132.5q0 -13 -1.5 -26.5t-3.5 -27.5l-33 -207q-18 -115 -83.5 -170.5t-185.5 -55.5h-201q-21 0 -18 20l44 277h-46q-21 0 -18 20l6 42q3 17 21 17h49l43 271q3 17 21 17h195zM484 425q4 23 4 46q0 114 -130 114h-124l-33 -209h115
q21 0 18 -20l-7 -42q-3 -17 -21 -17h-118l-35 -218h123q78 0 121 39.5t57 121.5z" />
    <glyph glyph-name="dcroat" unicode="&#x111;" horiz-adv-x="491" 
d="M527 624q20 0 17 -19l-5 -34q-2 -16 -20 -16h-45l-61 -381q-15 -93 -66 -139.5t-142 -46.5q-82 0 -126 39t-44 111q0 19 3 42l22 141q30 186 199 186q84 0 113 -55h2l16 103h-121q-20 0 -17 19l6 34q3 16 20 16h124l9 59q3 17 21 17h44q21 0 18 -20l-9 -56h42zM352 310
q3 19 3 36q0 89 -89 89q-54 0 -84 -30.5t-41 -95.5l-19 -124q-3 -21 -3 -38q0 -45 22.5 -66t67.5 -21q55 0 84 30.5t39 95.5z" />
    <glyph glyph-name="Emacron" unicode="&#x112;" horiz-adv-x="538" 
d="M450 375q21 0 18 -20l-7 -42q-3 -17 -21 -17h-263l-35 -217h305q21 0 18 -20l-7 -42q-3 -17 -21 -17h-376q-21 0 -18 20l99 627q3 17 21 17h377q20 0 17 -20l-6 -41q-2 -18 -20 -18h-308l-34 -210h261zM502 777q-3 -15 -19 -15h-229q-18 0 -15 18l5 32q1 16 18 16h230
q18 0 15 -18z" />
    <glyph glyph-name="emacron" unicode="&#x113;" horiz-adv-x="458" 
d="M266 507q80 0 123 -38.5t43 -110.5q0 -20 -3 -42l-12 -80q-3 -17 -21 -17h-269l-5 -29q-3 -21 -3 -37q0 -49 26 -71t80 -22q29 0 54 11t50 32q15 14 26 -3l18 -27q10 -15 -3 -27q-33 -29 -71.5 -43.5t-80.5 -14.5q-89 0 -136 38.5t-47 113.5q0 11 1 22t3 23l21 136
q30 186 206 186zM350 310q3 21 3 38q0 45 -22 66t-67 21q-54 0 -83 -30.5t-40 -95.5l-3 -21h209zM425 614q-3 -15 -19 -15h-229q-18 0 -15 18l5 32q1 16 18 16h230q18 0 15 -18z" />
    <glyph glyph-name="Ebreve" unicode="&#x114;" horiz-adv-x="538" 
d="M450 375q21 0 18 -20l-7 -42q-3 -17 -21 -17h-263l-35 -217h305q21 0 18 -20l-7 -42q-3 -17 -21 -17h-376q-21 0 -18 20l99 627q3 17 21 17h377q20 0 17 -20l-6 -41q-2 -18 -20 -18h-308l-34 -210h261zM502 864q17 0 14 -17q-11 -53 -49.5 -79.5t-92.5 -26.5
q-57 0 -89.5 29t-33.5 79q0 15 15 15h31q12 0 15 -14q8 -45 63 -45q27 0 48 12t31 35q6 12 18 12h30z" />
    <glyph glyph-name="ebreve" unicode="&#x115;" horiz-adv-x="458" 
d="M266 507q80 0 123 -38.5t43 -110.5q0 -20 -3 -42l-12 -80q-3 -17 -21 -17h-269l-5 -29q-3 -21 -3 -37q0 -49 26 -71t80 -22q29 0 54 11t50 32q15 14 26 -3l18 -27q10 -15 -3 -27q-33 -29 -71.5 -43.5t-80.5 -14.5q-89 0 -136 38.5t-47 113.5q0 11 1 22t3 23l21 136
q30 186 206 186zM350 310q3 21 3 38q0 45 -22 66t-67 21q-54 0 -83 -30.5t-40 -95.5l-3 -21h209zM425 701q17 0 14 -17q-11 -53 -49.5 -79.5t-92.5 -26.5q-57 0 -89.5 29t-33.5 79q0 15 15 15h31q12 0 15 -14q8 -45 63 -45q27 0 48 12t31 35q6 12 18 12h30z" />
    <glyph glyph-name="Edotaccent" unicode="&#x116;" horiz-adv-x="538" 
d="M450 375q21 0 18 -20l-7 -42q-3 -17 -21 -17h-263l-35 -217h305q21 0 18 -20l-7 -42q-3 -17 -21 -17h-376q-21 0 -18 20l99 627q3 17 21 17h377q20 0 17 -20l-6 -41q-2 -18 -20 -18h-308l-34 -210h261zM371 750q-22 0 -35 13.5t-13 34.5q0 25 16 41t39 16
q22 0 35.5 -13.5t13.5 -33.5q0 -26 -16 -42t-40 -16z" />
    <glyph glyph-name="edotaccent" unicode="&#x117;" horiz-adv-x="458" 
d="M266 507q80 0 123 -38.5t43 -110.5q0 -20 -3 -42l-12 -80q-3 -17 -21 -17h-269l-5 -29q-3 -21 -3 -37q0 -49 26 -71t80 -22q29 0 54 11t50 32q15 14 26 -3l18 -27q10 -15 -3 -27q-33 -29 -71.5 -43.5t-80.5 -14.5q-89 0 -136 38.5t-47 113.5q0 11 1 22t3 23l21 136
q30 186 206 186zM350 310q3 21 3 38q0 45 -22 66t-67 21q-54 0 -83 -30.5t-40 -95.5l-3 -21h209zM294 587q-22 0 -35 13.5t-13 34.5q0 25 16 41t39 16q22 0 35.5 -13.5t13.5 -33.5q0 -26 -16 -42t-40 -16z" />
    <glyph glyph-name="Eogonek" unicode="&#x118;" horiz-adv-x="538" 
d="M540 664q20 0 17 -20l-6 -41q-2 -18 -20 -18h-308l-34 -210h261q21 0 18 -20l-7 -42q-3 -17 -21 -17h-263l-35 -217h305q21 0 18 -20l-7 -42q-3 -17 -21 -17h-10q-50 -16 -72.5 -39.5t-22.5 -47.5q0 -13 8.5 -21t22.5 -8q18 0 38 15q13 10 22 -4l11 -18q8 -14 -4 -23
q-17 -13 -36 -19.5t-43 -6.5q-36 0 -58 18.5t-22 49.5q0 65 65 102v2h-275q-21 0 -18 20l99 627q3 17 21 17h377z" />
    <glyph glyph-name="eogonek" unicode="&#x119;" horiz-adv-x="458" 
d="M266 507q80 0 123 -38.5t43 -110.5q0 -20 -3 -42l-12 -80q-3 -17 -21 -17h-269l-5 -29q-3 -21 -3 -37q0 -49 26 -71t80 -22q29 0 54 11t50 32q15 14 26 -3l18 -27q10 -15 -3 -27q-27 -24 -58 -38q-42 -20 -61.5 -43.5t-19.5 -48.5q0 -14 8 -23t22 -9q18 0 38 15
q13 10 22 -4l11 -18q8 -14 -4 -23q-17 -13 -34.5 -19.5t-40.5 -6.5q-37 0 -59.5 20t-22.5 53q0 23 9.5 44.5t32.5 40.5v2q-87 2 -132.5 40t-45.5 112q0 11 1 22t3 23l21 136q30 186 206 186zM350 310q3 21 3 38q0 45 -22 66t-67 21q-54 0 -83 -30.5t-40 -95.5l-3 -21h209z
" />
    <glyph glyph-name="Ecaron" unicode="&#x11a;" horiz-adv-x="538" 
d="M450 375q21 0 18 -20l-7 -42q-3 -17 -21 -17h-263l-35 -217h305q21 0 18 -20l-7 -42q-3 -17 -21 -17h-376q-21 0 -18 20l99 627q3 17 21 17h377q20 0 17 -20l-6 -41q-2 -18 -20 -18h-308l-34 -210h261zM408 739q-9 -10 -21 -10h-45q-14 0 -20 12l-64 121q-10 19 12 19h36
q13 0 19 -11l44 -82l73 84q9 9 20 9h41q11 0 13.5 -6t-4.5 -14z" />
    <glyph glyph-name="ecaron" unicode="&#x11b;" horiz-adv-x="458" 
d="M266 507q80 0 123 -38.5t43 -110.5q0 -20 -3 -42l-12 -80q-3 -17 -21 -17h-269l-5 -29q-3 -21 -3 -37q0 -49 26 -71t80 -22q29 0 54 11t50 32q15 14 26 -3l18 -27q10 -15 -3 -27q-33 -29 -71.5 -43.5t-80.5 -14.5q-89 0 -136 38.5t-47 113.5q0 11 1 22t3 23l21 136
q30 186 206 186zM350 310q3 21 3 38q0 45 -22 66t-67 21q-54 0 -83 -30.5t-40 -95.5l-3 -21h209zM331 576q-9 -10 -21 -10h-45q-14 0 -20 12l-64 121q-10 19 12 19h36q13 0 19 -11l44 -82l73 84q9 9 20 9h41q11 0 13.5 -6t-4.5 -14z" />
    <glyph glyph-name="Gcircumflex" unicode="&#x11c;" horiz-adv-x="569" 
d="M521 228q-20 -118 -83.5 -179t-177.5 -61q-102 0 -157 49t-55 140q0 14 1.5 27.5t3.5 27.5l33 208q38 236 267 236q76 0 128.5 -30t76.5 -90q7 -18 -10 -25l-41 -18q-16 -7 -25 10q-18 36 -51 55t-84 19q-75 0 -117.5 -43t-56.5 -131l-29 -185q-2 -14 -3 -26t-1 -23
q0 -122 126 -122q75 0 116 43t56 132l6 36h-123q-21 0 -18 20l6 42q3 17 21 17h191q21 0 18 -20zM309 738q-9 -9 -20 -9h-41q-11 0 -13.5 6t4.5 14l104 122q9 10 21 10h45q14 0 20 -12l64 -121q5 -8 1.5 -13.5t-12.5 -5.5h-37q-13 0 -19 11l-44 83z" />
    <glyph glyph-name="gcircumflex" unicode="&#x11d;" horiz-adv-x="488" 
d="M269 507q82 0 126.5 -38.5t44.5 -110.5q0 -11 -1 -21t-3 -22l-50 -313q-13 -83 -66 -128.5t-140 -45.5q-102 0 -161 56q-12 12 -1 27l22 28q12 15 27 2q44 -41 113 -41q54 0 85 29t39 83l6 37h-2q-42 -45 -114 -45q-76 0 -116.5 37.5t-40.5 108.5q0 11 1 22.5t3 23.5
l20 125q29 186 208 186zM352 310q3 21 3 37q0 88 -90 88q-54 0 -83 -31t-40 -95l-17 -108q-3 -21 -3 -37q0 -88 90 -88q102 0 122 126zM233 575q-9 -9 -20 -9h-41q-11 0 -13.5 6t4.5 14l104 122q9 10 21 10h45q14 0 20 -12l64 -121q5 -8 1.5 -13.5t-12.5 -5.5h-37
q-13 0 -19 11l-44 83z" />
    <glyph glyph-name="Gbreve" unicode="&#x11e;" horiz-adv-x="569" 
d="M521 228q-20 -118 -83.5 -179t-177.5 -61q-102 0 -157 49t-55 140q0 14 1.5 27.5t3.5 27.5l33 208q38 236 267 236q76 0 128.5 -30t76.5 -90q7 -18 -10 -25l-41 -18q-16 -7 -25 10q-18 36 -51 55t-84 19q-75 0 -117.5 -43t-56.5 -131l-29 -185q-2 -14 -3 -26t-1 -23
q0 -122 126 -122q75 0 116 43t56 132l6 36h-123q-21 0 -18 20l6 42q3 17 21 17h191q21 0 18 -20zM502 864q17 0 14 -17q-11 -53 -49.5 -79.5t-92.5 -26.5q-57 0 -89.5 29t-33.5 79q0 15 15 15h31q12 0 15 -14q8 -45 63 -45q27 0 48 12t31 35q6 12 18 12h30z" />
    <glyph glyph-name="gbreve" unicode="&#x11f;" horiz-adv-x="488" 
d="M269 507q82 0 126.5 -38.5t44.5 -110.5q0 -11 -1 -21t-3 -22l-50 -313q-13 -83 -66 -128.5t-140 -45.5q-102 0 -161 56q-12 12 -1 27l22 28q12 15 27 2q44 -41 113 -41q54 0 85 29t39 83l6 37h-2q-42 -45 -114 -45q-76 0 -116.5 37.5t-40.5 108.5q0 11 1 22.5t3 23.5
l20 125q29 186 208 186zM352 310q3 21 3 37q0 88 -90 88q-54 0 -83 -31t-40 -95l-17 -108q-3 -21 -3 -37q0 -88 90 -88q102 0 122 126zM426 701q17 0 14 -17q-11 -53 -49.5 -79.5t-92.5 -26.5q-57 0 -89.5 29t-33.5 79q0 15 15 15h31q12 0 15 -14q8 -45 63 -45q27 0 48 12
t31 35q6 12 18 12h30z" />
    <glyph glyph-name="Gdotaccent" unicode="&#x120;" horiz-adv-x="569" 
d="M521 228q-20 -118 -83.5 -179t-177.5 -61q-102 0 -157 49t-55 140q0 14 1.5 27.5t3.5 27.5l33 208q38 236 267 236q76 0 128.5 -30t76.5 -90q7 -18 -10 -25l-41 -18q-16 -7 -25 10q-18 36 -51 55t-84 19q-75 0 -117.5 -43t-56.5 -131l-29 -185q-2 -14 -3 -26t-1 -23
q0 -122 126 -122q75 0 116 43t56 132l6 36h-123q-21 0 -18 20l6 42q3 17 21 17h191q21 0 18 -20zM371 750q-22 0 -35 13.5t-13 34.5q0 25 16 41t39 16q22 0 35.5 -13.5t13.5 -33.5q0 -26 -16 -42t-40 -16z" />
    <glyph glyph-name="gdotaccent" unicode="&#x121;" horiz-adv-x="488" 
d="M269 507q82 0 126.5 -38.5t44.5 -110.5q0 -11 -1 -21t-3 -22l-50 -313q-13 -83 -66 -128.5t-140 -45.5q-102 0 -161 56q-12 12 -1 27l22 28q12 15 27 2q44 -41 113 -41q54 0 85 29t39 83l6 37h-2q-42 -45 -114 -45q-76 0 -116.5 37.5t-40.5 108.5q0 11 1 22.5t3 23.5
l20 125q29 186 208 186zM352 310q3 21 3 37q0 88 -90 88q-54 0 -83 -31t-40 -95l-17 -108q-3 -21 -3 -37q0 -88 90 -88q102 0 122 126zM295 587q-22 0 -35 13.5t-13 34.5q0 25 16 41t39 16q22 0 35.5 -13.5t13.5 -33.5q0 -26 -16 -42t-40 -16z" />
    <glyph glyph-name="Gcommaaccent" unicode="&#x122;" horiz-adv-x="569" 
d="M521 228q-20 -118 -83.5 -179t-177.5 -61q-102 0 -157 49t-55 140q0 14 1.5 27.5t3.5 27.5l33 208q38 236 267 236q76 0 128.5 -30t76.5 -90q7 -18 -10 -25l-41 -18q-16 -7 -25 10q-18 36 -51 55t-84 19q-75 0 -117.5 -43t-56.5 -131l-29 -185q-2 -14 -3 -26t-1 -23
q0 -122 126 -122q75 0 116 43t56 132l6 36h-123q-21 0 -18 20l6 42q3 17 21 17h191q21 0 18 -20zM239 -48q20 0 32.5 -13t12.5 -36q0 -32 -21.5 -62t-52.5 -43q-11 -5 -16 6l-6 14q-4 10 6 16q15 9 25 27q-15 3 -24 14t-9 28q0 23 15 36t38 13z" />
    <glyph glyph-name="gcommaaccent" unicode="&#x123;" horiz-adv-x="488" 
d="M314 671q15 -3 24 -14t9 -27q0 -23 -15 -36.5t-38 -13.5q-20 0 -32.5 13t-12.5 35q0 15 4.5 31t13.5 30.5t23 27t34 19.5q10 3 15 -6l9 -16q4 -9 -6 -15q-19 -10 -28 -28zM269 507q82 0 126.5 -38.5t44.5 -110.5q0 -11 -1 -21t-3 -22l-50 -313q-13 -83 -66 -128.5
t-140 -45.5q-102 0 -161 56q-12 12 -1 27l22 28q12 15 27 2q44 -41 113 -41q54 0 85 29t39 83l6 37h-2q-42 -45 -114 -45q-76 0 -116.5 37.5t-40.5 108.5q0 11 1 22.5t3 23.5l20 125q29 186 208 186zM352 310q3 21 3 37q0 88 -90 88q-54 0 -83 -31t-40 -95l-17 -108
q-3 -21 -3 -37q0 -88 90 -88q102 0 122 126z" />
    <glyph glyph-name="Hcircumflex" unicode="&#x124;" horiz-adv-x="623" 
d="M507 17q-3 -17 -21 -17h-51q-21 0 -18 20l44 277h-284l-44 -280q-3 -17 -21 -17h-51q-21 0 -18 20l99 627q3 17 21 17h51q21 0 18 -20l-43 -268h284l43 271q3 17 21 17h51q21 0 18 -20zM333 738q-9 -9 -20 -9h-41q-11 0 -13.5 6t4.5 14l104 122q9 10 21 10h45
q14 0 20 -12l64 -121q5 -8 1.5 -13.5t-12.5 -5.5h-37q-13 0 -19 11l-44 83z" />
    <glyph glyph-name="hcircumflex" unicode="&#x125;" horiz-adv-x="499" 
d="M302 507q73 0 111.5 -37t38.5 -106q0 -11 -1 -22t-3 -23l-48 -302q-3 -17 -21 -17h-44q-21 0 -18 20l47 294q3 21 3 37q0 84 -87 84q-51 0 -80 -30.5t-39 -91.5l-47 -296q-3 -17 -21 -17h-44q-21 0 -18 20l105 663q3 17 21 17h44q21 0 18 -20l-35 -218h2q42 45 116 45z
M135 769q-9 -9 -20 -9h-41q-11 0 -13.5 6t4.5 14l104 122q9 10 21 10h45q14 0 20 -12l64 -121q5 -8 1.5 -13.5t-12.5 -5.5h-37q-13 0 -19 11l-44 83z" />
    <glyph glyph-name="Hbar" unicode="&#x126;" horiz-adv-x="634" 
d="M640 540q19 0 16 -18l-6 -35q-3 -16 -18 -16h-48l-72 -454q-3 -17 -21 -17h-51q-21 0 -18 20l44 277h-284l-44 -280q-3 -17 -21 -17h-51q-21 0 -18 20l71 451h-44q-19 0 -16 18l6 35q3 16 18 16h47l17 107q3 17 21 17h51q21 0 18 -20l-17 -104h284l17 107q3 17 21 17h51
q21 0 18 -20l-16 -104h45zM478 376l15 95h-284l-15 -95h284z" />
    <glyph glyph-name="hbar" unicode="&#x127;" horiz-adv-x="502" 
d="M305 507q73 0 111.5 -37t38.5 -106q0 -11 -1 -22t-3 -23l-48 -302q-3 -17 -21 -17h-44q-21 0 -18 20l47 294q3 21 3 37q0 84 -87 84q-51 0 -80 -30.5t-39 -91.5l-47 -296q-3 -17 -21 -17h-44q-21 0 -18 20l85 535h-47q-20 0 -17 19l6 34q3 16 20 16h49l9 59q3 17 21 17
h44q21 0 18 -20l-9 -56h110q20 0 17 -19l-6 -34q-3 -16 -20 -16h-112l-15 -93h2q42 45 116 45z" />
    <glyph glyph-name="Itilde" unicode="&#x128;" horiz-adv-x="249" 
d="M61 0q-21 0 -18 20l99 627q3 17 21 17h51q21 0 18 -20l-99 -627q-3 -17 -21 -17h-51zM72 739q-18 0 -13 18q27 102 101 102q19 0 32.5 -7t33.5 -24q14 -12 21 -17t18 -5q28 0 42 41q4 13 17 13h25q18 0 13 -18q-29 -102 -101 -102q-20 0 -34.5 7t-32.5 24q-14 12 -21 17
t-18 5q-28 0 -42 -41q-4 -13 -17 -13h-24z" />
    <glyph glyph-name="itilde" unicode="&#x129;" horiz-adv-x="217" 
d="M168 495q21 0 18 -20l-73 -458q-3 -17 -21 -17h-44q-21 0 -18 20l73 458q3 17 21 17h44zM31 576q-18 0 -13 18q27 102 101 102q19 0 32.5 -7t33.5 -24q14 -12 21 -17t18 -5q28 0 42 41q4 13 17 13h25q18 0 13 -18q-29 -102 -101 -102q-20 0 -34.5 7t-32.5 24
q-14 12 -21 17t-18 5q-28 0 -42 -41q-4 -13 -17 -13h-24z" />
    <glyph glyph-name="Imacron" unicode="&#x12a;" horiz-adv-x="249" 
d="M61 0q-21 0 -18 20l99 627q3 17 21 17h51q21 0 18 -20l-99 -627q-3 -17 -21 -17h-51zM338 777q-3 -15 -19 -15h-229q-18 0 -15 18l5 32q1 16 18 16h230q18 0 15 -18z" />
    <glyph glyph-name="imacron" unicode="&#x12b;" horiz-adv-x="217" 
d="M168 495q21 0 18 -20l-73 -458q-3 -17 -21 -17h-44q-21 0 -18 20l73 458q3 17 21 17h44zM297 614q-3 -15 -19 -15h-229q-18 0 -15 18l5 32q1 16 18 16h230q18 0 15 -18z" />
    <glyph glyph-name="Ibreve" unicode="&#x12c;" horiz-adv-x="249" 
d="M61 0q-21 0 -18 20l99 627q3 17 21 17h51q21 0 18 -20l-99 -627q-3 -17 -21 -17h-51zM338 864q17 0 14 -17q-11 -53 -49.5 -79.5t-92.5 -26.5q-57 0 -89.5 29t-33.5 79q0 15 15 15h31q12 0 15 -14q8 -45 63 -45q27 0 48 12t31 35q6 12 18 12h30z" />
    <glyph glyph-name="ibreve" unicode="&#x12d;" horiz-adv-x="217" 
d="M168 495q21 0 18 -20l-73 -458q-3 -17 -21 -17h-44q-21 0 -18 20l73 458q3 17 21 17h44zM297 701q17 0 14 -17q-11 -53 -49.5 -79.5t-92.5 -26.5q-57 0 -89.5 29t-33.5 79q0 15 15 15h31q12 0 15 -14q8 -45 63 -45q27 0 48 12t31 35q6 12 18 12h30z" />
    <glyph glyph-name="Iogonek" unicode="&#x12e;" horiz-adv-x="248" 
d="M111 0q-78 -34 -78 -84q0 -14 8.5 -23t22.5 -9q17 0 36 14q14 11 23 -3l12 -18q8 -14 -4 -23q-34 -26 -78 -26q-38 0 -60 19.5t-22 50.5q0 67 74 108v2q-4 5 -2 12l99 627q3 17 21 17h51q21 0 18 -20l-99 -627q-3 -17 -22 -17z" />
    <glyph glyph-name="iogonek" unicode="&#x12f;" horiz-adv-x="217" 
d="M168 495q21 0 18 -20l-73 -458q-3 -12 -15 -17q-75 -31 -75 -84q0 -14 8 -23t22 -9q18 0 38 15q13 10 22 -4l11 -18q8 -14 -4 -23q-17 -13 -35.5 -19.5t-42.5 -6.5q-37 0 -59 19.5t-22 50.5q0 32 16.5 59.5t54.5 48.5v2q-4 5 -2 12l73 458q3 17 21 17h44zM166 587
q-21 0 -34.5 13.5t-13.5 33.5q0 26 15.5 42t40.5 16q22 0 35.5 -13.5t13.5 -34.5q0 -26 -16.5 -41.5t-40.5 -15.5z" />
    <glyph glyph-name="Idotaccent" unicode="&#x130;" horiz-adv-x="249" 
d="M61 0q-21 0 -18 20l99 627q3 17 21 17h51q21 0 18 -20l-99 -627q-3 -17 -21 -17h-51zM207 750q-22 0 -35 13.5t-13 34.5q0 25 16 41t39 16q22 0 35.5 -13.5t13.5 -33.5q0 -26 -16 -42t-40 -16z" />
    <glyph glyph-name="dotlessi" unicode="&#x131;" horiz-adv-x="217" 
d="M168 495q21 0 18 -20l-73 -458q-3 -17 -21 -17h-44q-21 0 -18 20l73 458q3 17 21 17h44z" />
    <glyph glyph-name="IJ" unicode="&#x132;" horiz-adv-x="763" 
d="M61 0q-21 0 -18 20l99 627q3 17 21 17h51q21 0 18 -20l-99 -627q-3 -17 -21 -17h-51zM690 217q-18 -114 -78.5 -171.5t-167.5 -57.5q-72 0 -122 27.5t-76 80.5q-7 16 7 25l38 24q16 10 26 -7q40 -71 128 -71q132 0 157 163l66 417q3 17 21 17h50q21 0 18 -20z" />
    <glyph glyph-name="ij" unicode="&#x133;" horiz-adv-x="434" 
d="M166 587q-21 0 -34.5 13.5t-13.5 33.5q0 26 15.5 42t40.5 16q22 0 35.5 -13.5t13.5 -34.5q0 -26 -16.5 -41.5t-40.5 -15.5zM48 0q-21 0 -18 20l73 458q3 17 21 17h44q21 0 18 -20l-73 -458q-3 -17 -21 -17h-44zM383 587q-21 0 -34.5 13.5t-13.5 33.5q0 26 15.5 42
t40.5 16q22 0 35.5 -13.5t13.5 -34.5q0 -26 -16.5 -41.5t-40.5 -15.5zM161 -88q69 0 81 75l78 491q3 17 21 17h44q21 0 18 -20l-78 -491q-24 -144 -159 -144h-13q-21 0 -18 20l5 35q3 17 21 17z" />
    <glyph glyph-name="Jcircumflex" unicode="&#x134;" horiz-adv-x="520" 
d="M447 217q-18 -114 -78.5 -171.5t-167.5 -57.5q-72 0 -122 27.5t-76 80.5q-7 16 7 25l38 24q16 10 26 -7q40 -71 128 -71q132 0 157 163l66 417q3 17 21 17h50q21 0 18 -20zM429 738q-9 -9 -20 -9h-41q-11 0 -13.5 6t4.5 14l104 122q9 10 21 10h45q14 0 20 -12l64 -121
q5 -8 1.5 -13.5t-12.5 -5.5h-37q-13 0 -19 11l-44 83z" />
    <glyph glyph-name="jcircumflex" unicode="&#x135;" horiz-adv-x="217" 
d="M-56 -88q69 0 81 75l78 491q3 17 21 17h44q21 0 18 -20l-78 -491q-24 -144 -159 -144h-13q-21 0 -18 20l5 35q3 17 21 17zM104 575q-9 -9 -20 -9h-41q-11 0 -13.5 6t4.5 14l104 122q9 10 21 10h45q14 0 20 -12l64 -121q5 -8 1.5 -13.5t-12.5 -5.5h-37q-13 0 -19 11
l-44 83z" />
    <glyph glyph-name="Kcommaaccent" unicode="&#x136;" horiz-adv-x="561" 
d="M411 0q-16 0 -23 12l-209 301l-46 -296q-3 -17 -21 -17h-51q-21 0 -18 20l99 627q3 17 21 17h51q21 0 18 -20l-43 -272h2l282 282q10 10 24 10h70q13 0 15.5 -7t-6.5 -16l-312 -305l223 -312q8 -10 4 -17t-15 -7h-65zM243 -48q20 0 32.5 -13t12.5 -36q0 -32 -21.5 -62
t-52.5 -43q-11 -5 -16 6l-6 14q-4 10 6 16q15 9 25 27q-15 3 -24 14t-9 28q0 23 15 36t38 13z" />
    <glyph glyph-name="kcommaaccent" unicode="&#x137;" horiz-adv-x="450" 
d="M443 495q13 0 15.5 -7t-6.5 -16l-225 -220l163 -229q7 -10 3.5 -16.5t-15.5 -6.5h-54q-14 0 -23 12l-153 221l-34 -216q-3 -17 -21 -17h-44q-21 0 -18 20l105 663q3 17 21 17h44q21 0 18 -20l-63 -396h2l202 201q10 10 24 10h59zM194 -48q20 0 32.5 -13t12.5 -36
q0 -32 -21.5 -62t-52.5 -43q-11 -5 -16 6l-6 14q-4 10 6 16q15 9 25 27q-15 3 -24 14t-9 28q0 23 15 36t38 13z" />
    <glyph glyph-name="kgreenlandic" unicode="&#x138;" horiz-adv-x="450" 
d="M443 495q13 0 15.5 -7t-6.5 -16l-225 -220l163 -229q7 -10 3.5 -16.5t-15.5 -6.5h-54q-16 0 -23 12l-153 221l-34 -216q-3 -17 -21 -17h-44q-21 0 -18 20l72 458q3 17 21 17h44q21 0 18 -20l-30 -191h2l202 201q10 10 24 10h59z" />
    <glyph glyph-name="Lacute" unicode="&#x139;" horiz-adv-x="499" 
d="M61 0q-21 0 -18 20l99 627q3 17 21 17h51q21 0 18 -20l-90 -565h290q21 0 18 -20l-7 -42q-3 -17 -21 -17h-361zM238 738q-9 -9 -20 -9h-45q-11 0 -13.5 6t3.5 14l96 122q9 10 21 10h53q11 0 14.5 -6.5t-4.5 -14.5z" />
    <glyph glyph-name="lacute" unicode="&#x13a;" horiz-adv-x="218" 
d="M49 0q-21 0 -18 20l105 663q3 17 21 17h44q21 0 18 -20l-105 -663q-3 -17 -21 -17h-44zM228 769q-9 -9 -20 -9h-45q-11 0 -13.5 6t3.5 14l96 122q9 10 21 10h53q11 0 14.5 -6.5t-4.5 -14.5z" />
    <glyph glyph-name="Lcommaaccent" unicode="&#x13b;" horiz-adv-x="499" 
d="M61 0q-21 0 -18 20l99 627q3 17 21 17h51q21 0 18 -20l-90 -565h290q21 0 18 -20l-7 -42q-3 -17 -21 -17h-361zM227 -48q20 0 32.5 -13t12.5 -36q0 -32 -21.5 -62t-52.5 -43q-11 -5 -16 6l-6 14q-4 10 6 16q15 9 25 27q-15 3 -24 14t-9 28q0 23 15 36t38 13z" />
    <glyph glyph-name="lcommaaccent" unicode="&#x13c;" horiz-adv-x="218" 
d="M49 0q-21 0 -18 20l105 663q3 17 21 17h44q21 0 18 -20l-105 -663q-3 -17 -21 -17h-44zM57 -48q20 0 32.5 -13t12.5 -36q0 -32 -21.5 -62t-52.5 -43q-11 -5 -16 6l-6 14q-4 10 6 16q15 9 25 27q-15 3 -24 14t-9 28q0 23 15 36t38 13z" />
    <glyph glyph-name="Lcaron" unicode="&#x13d;" horiz-adv-x="499" 
d="M61 0q-21 0 -18 20l99 627q3 17 21 17h51q21 0 18 -20l-90 -565h290q21 0 18 -20l-7 -42q-3 -17 -21 -17h-361zM351 518q-4 -13 -18 -13h-28q-18 0 -13 18l42 162q4 15 19 15h39q19 0 14 -19z" />
    <glyph glyph-name="lcaron" unicode="&#x13e;" horiz-adv-x="218" 
d="M49 0q-21 0 -18 20l105 663q3 17 21 17h44q21 0 18 -20l-105 -663q-3 -17 -21 -17h-44zM299 518q-4 -13 -18 -13h-28q-18 0 -13 18l42 162q4 15 19 15h39q19 0 14 -19z" />
    <glyph glyph-name="Ldot" unicode="&#x13f;" horiz-adv-x="499" 
d="M61 0q-21 0 -18 20l99 627q3 17 21 17h51q21 0 18 -20l-90 -565h290q21 0 18 -20l-7 -42q-3 -17 -21 -17h-361zM382 280q-22 0 -35 13.5t-13 34.5q0 25 16 41t39 16q22 0 35.5 -13.5t13.5 -33.5q0 -26 -16 -42t-40 -16z" />
    <glyph glyph-name="ldot" unicode="&#x140;" horiz-adv-x="272" 
d="M49 0q-21 0 -18 20l105 663q3 17 21 17h44q21 0 18 -20l-105 -663q-3 -17 -21 -17h-44zM253 280q-22 0 -35 13.5t-13 34.5q0 25 16 41t39 16q22 0 35.5 -13.5t13.5 -33.5q0 -26 -16 -42t-40 -16z" />
    <glyph glyph-name="Lslash" unicode="&#x141;" horiz-adv-x="510" 
d="M443 79q21 0 18 -20l-7 -42q-3 -17 -21 -17h-361q-21 0 -18 20l26 162l-49 -29q-10 -6 -15.5 -2t-3.5 15l7 55q1 13 13 20l63 38l58 368q3 17 21 17h51q21 0 18 -20l-49 -305l212 128q9 6 15 2t4 -15l-8 -55q-1 -13 -13 -20l-225 -136l-26 -164h290z" />
    <glyph glyph-name="lslash" unicode="&#x142;" horiz-adv-x="235" 
d="M244 479q10 6 16 2t4 -16l-7 -45q-1 -13 -13 -20l-67 -45l-54 -338q-3 -17 -21 -17h-44q-21 0 -18 20l43 274l-54 -36q-10 -6 -16.5 -2t-4.5 15l7 46q1 13 13 20l69 46l48 300q3 17 21 17h44q21 0 18 -20l-37 -236z" />
    <glyph glyph-name="Nacute" unicode="&#x143;" horiz-adv-x="623" 
d="M430 0q-16 0 -22 15l-196 505h-2l-79 -503q-3 -17 -21 -17h-49q-21 0 -18 20l99 627q3 17 21 17h64q16 0 22 -15l190 -492h2l77 490q3 17 21 17h49q21 0 18 -20l-99 -627q-3 -17 -21 -17h-56zM426 738q-9 -9 -20 -9h-45q-11 0 -13.5 6t3.5 14l96 122q9 10 21 10h53
q11 0 14.5 -6.5t-4.5 -14.5z" />
    <glyph glyph-name="nacute" unicode="&#x144;" horiz-adv-x="494" 
d="M359 313q3 19 3 37q0 85 -87 85q-53 0 -81.5 -30t-38.5 -93l-46 -295q-3 -17 -21 -17h-44q-21 0 -18 20l48 305q29 182 205 182q81 0 124 -38t43 -109q0 -20 -3 -41l-48 -302q-3 -17 -21 -17h-44q-21 0 -18 20zM336 575q-9 -9 -20 -9h-45q-11 0 -13.5 6t3.5 14l96 122
q9 10 21 10h53q11 0 14.5 -6.5t-4.5 -14.5z" />
    <glyph glyph-name="Ncommaaccent" unicode="&#x145;" horiz-adv-x="623" 
d="M430 0q-16 0 -22 15l-196 505h-2l-79 -503q-3 -17 -21 -17h-49q-21 0 -18 20l99 627q3 17 21 17h64q16 0 22 -15l190 -492h2l77 490q3 17 21 17h49q21 0 18 -20l-99 -627q-3 -17 -21 -17h-56zM260 -48q20 0 32.5 -13t12.5 -36q0 -32 -21.5 -62t-52.5 -43q-11 -5 -16 6
l-6 14q-4 10 6 16q15 9 25 27q-15 3 -24 14t-9 28q0 23 15 36t38 13z" />
    <glyph glyph-name="ncommaaccent" unicode="&#x146;" horiz-adv-x="494" 
d="M359 313q3 19 3 37q0 85 -87 85q-53 0 -81.5 -30t-38.5 -93l-46 -295q-3 -17 -21 -17h-44q-21 0 -18 20l48 305q29 182 205 182q81 0 124 -38t43 -109q0 -20 -3 -41l-48 -302q-3 -17 -21 -17h-44q-21 0 -18 20zM196 -48q20 0 32.5 -13t12.5 -36q0 -32 -21.5 -62
t-52.5 -43q-11 -5 -16 6l-6 14q-4 10 6 16q15 9 25 27q-15 3 -24 14t-9 28q0 23 15 36t38 13z" />
    <glyph glyph-name="Ncaron" unicode="&#x147;" horiz-adv-x="623" 
d="M430 0q-16 0 -22 15l-196 505h-2l-79 -503q-3 -17 -21 -17h-49q-21 0 -18 20l99 627q3 17 21 17h64q16 0 22 -15l190 -492h2l77 490q3 17 21 17h49q21 0 18 -20l-99 -627q-3 -17 -21 -17h-56zM432 739q-9 -10 -21 -10h-45q-14 0 -20 12l-64 121q-10 19 12 19h36
q13 0 19 -11l44 -82l73 84q9 9 20 9h41q11 0 13.5 -6t-4.5 -14z" />
    <glyph glyph-name="ncaron" unicode="&#x148;" horiz-adv-x="494" 
d="M359 313q3 19 3 37q0 85 -87 85q-53 0 -81.5 -30t-38.5 -93l-46 -295q-3 -17 -21 -17h-44q-21 0 -18 20l48 305q29 182 205 182q81 0 124 -38t43 -109q0 -20 -3 -41l-48 -302q-3 -17 -21 -17h-44q-21 0 -18 20zM342 576q-9 -10 -21 -10h-45q-14 0 -20 12l-64 121
q-10 19 12 19h36q13 0 19 -11l44 -82l73 84q9 9 20 9h41q11 0 13.5 -6t-4.5 -14z" />
    <glyph glyph-name="napostrophe" unicode="&#x149;" horiz-adv-x="494" 
d="M359 313q3 19 3 37q0 85 -87 85q-53 0 -81.5 -30t-38.5 -93l-46 -295q-3 -17 -21 -17h-44q-21 0 -18 20l48 305q29 182 205 182q81 0 124 -38t43 -109q0 -20 -3 -41l-48 -302q-3 -17 -21 -17h-44q-21 0 -18 20zM181 721q20 0 33 -13.5t13 -36.5q0 -38 -23.5 -77
t-64.5 -69q-9 -8 -17 2l-12 16q-3 4 -3 8.5t5 7.5q16 14 28 30t18 38q-31 10 -31 41q0 26 15.5 39.5t38.5 13.5z" />
    <glyph glyph-name="Eng" unicode="&#x14a;" horiz-adv-x="623" 
d="M588 664q21 0 18 -20l-104 -660q-23 -144 -158 -144h-31q-21 0 -18 20l6 39q3 17 21 17h12q36 0 55 18t25 53l1 10l-203 523h-2l-79 -503q-3 -17 -21 -17h-49q-21 0 -18 20l99 627q3 17 21 17h64q16 0 22 -15l190 -492h2l77 490q3 17 21 17h49z" />
    <glyph glyph-name="eng" unicode="&#x14b;" horiz-adv-x="494" 
d="M359 313q3 19 3 37q0 85 -87 85q-53 0 -81.5 -30t-38.5 -93l-46 -295q-3 -17 -21 -17h-44q-21 0 -18 20l48 305q29 182 205 182q81 0 124 -38t43 -109q0 -20 -3 -41l-53 -335q-24 -144 -159 -144h-13q-21 0 -18 20l5 35q3 17 21 17q69 0 81 75z" />
    <glyph glyph-name="Omacron" unicode="&#x14c;" horiz-adv-x="588" 
d="M86 439q19 118 84 177.5t180 59.5q103 0 159.5 -48.5t56.5 -140.5q0 -13 -1.5 -26.5t-3.5 -27.5l-33 -208q-19 -118 -84 -177.5t-180 -59.5q-104 0 -159.5 49t-55.5 142q0 12 1 25t3 27zM144 237q-4 -23 -4 -48q0 -122 128 -122q76 0 117 41.5t55 129.5l30 189
q2 14 3 26.5t1 23.5q0 62 -32 91t-95 29q-76 0 -118 -42.5t-56 -130.5zM508 777q-3 -15 -19 -15h-229q-18 0 -15 18l5 32q1 16 18 16h230q18 0 15 -18z" />
    <glyph glyph-name="omacron" unicode="&#x14d;" horiz-adv-x="475" 
d="M269 507q82 0 126 -39t44 -111q0 -19 -3 -41l-22 -143q-29 -185 -209 -185q-82 0 -126.5 39t-44.5 111q0 20 3 41l23 142q30 186 209 186zM209 60q54 0 83.5 30.5t39.5 95.5l20 124q3 21 3 38q0 87 -90 87q-54 0 -83 -30.5t-40 -95.5l-20 -124q-3 -21 -3 -38
q0 -87 90 -87zM426 614q-3 -15 -19 -15h-229q-18 0 -15 18l5 32q1 16 18 16h230q18 0 15 -18z" />
    <glyph glyph-name="Obreve" unicode="&#x14e;" horiz-adv-x="588" 
d="M86 439q19 118 84 177.5t180 59.5q103 0 159.5 -48.5t56.5 -140.5q0 -13 -1.5 -26.5t-3.5 -27.5l-33 -208q-19 -118 -84 -177.5t-180 -59.5q-104 0 -159.5 49t-55.5 142q0 12 1 25t3 27zM144 237q-4 -23 -4 -48q0 -122 128 -122q76 0 117 41.5t55 129.5l30 189
q2 14 3 26.5t1 23.5q0 62 -32 91t-95 29q-76 0 -118 -42.5t-56 -130.5zM508 864q17 0 14 -17q-11 -53 -49.5 -79.5t-92.5 -26.5q-57 0 -89.5 29t-33.5 79q0 15 15 15h31q12 0 15 -14q8 -45 63 -45q27 0 48 12t31 35q6 12 18 12h30z" />
    <glyph glyph-name="obreve" unicode="&#x14f;" horiz-adv-x="475" 
d="M269 507q82 0 126 -39t44 -111q0 -19 -3 -41l-22 -143q-29 -185 -209 -185q-82 0 -126.5 39t-44.5 111q0 20 3 41l23 142q30 186 209 186zM209 60q54 0 83.5 30.5t39.5 95.5l20 124q3 21 3 38q0 87 -90 87q-54 0 -83 -30.5t-40 -95.5l-20 -124q-3 -21 -3 -38
q0 -87 90 -87zM426 701q17 0 14 -17q-11 -53 -49.5 -79.5t-92.5 -26.5q-57 0 -89.5 29t-33.5 79q0 15 15 15h31q12 0 15 -14q8 -45 63 -45q27 0 48 12t31 35q6 12 18 12h30z" />
    <glyph glyph-name="Ohungarumlaut" unicode="&#x150;" horiz-adv-x="588" 
d="M86 439q19 118 84 177.5t180 59.5q103 0 159.5 -48.5t56.5 -140.5q0 -13 -1.5 -26.5t-3.5 -27.5l-33 -208q-19 -118 -84 -177.5t-180 -59.5q-104 0 -159.5 49t-55.5 142q0 12 1 25t3 27zM144 237q-4 -23 -4 -48q0 -122 128 -122q76 0 117 41.5t55 129.5l30 189
q2 14 3 26.5t1 23.5q0 62 -32 91t-95 29q-76 0 -118 -42.5t-56 -130.5zM326 738q-6 -9 -20 -9h-36q-10 0 -13 5.5t3 13.5l90 123q7 10 21 10h44q11 0 14 -6.5t-4 -14.5zM477 738q-6 -9 -20 -9h-35q-10 0 -13 5.5t3 13.5l89 123q7 10 21 10h44q11 0 14 -6.5t-4 -14.5z" />
    <glyph glyph-name="ohungarumlaut" unicode="&#x151;" horiz-adv-x="475" 
d="M269 507q82 0 126 -39t44 -111q0 -19 -3 -41l-22 -143q-29 -185 -209 -185q-82 0 -126.5 39t-44.5 111q0 20 3 41l23 142q30 186 209 186zM209 60q54 0 83.5 30.5t39.5 95.5l20 124q3 21 3 38q0 87 -90 87q-54 0 -83 -30.5t-40 -95.5l-20 -124q-3 -21 -3 -38
q0 -87 90 -87zM244 575q-6 -9 -20 -9h-36q-10 0 -13 5.5t3 13.5l90 123q7 10 21 10h44q11 0 14 -6.5t-4 -14.5zM395 575q-6 -9 -20 -9h-35q-10 0 -13 5.5t3 13.5l89 123q7 10 21 10h44q11 0 14 -6.5t-4 -14.5z" />
    <glyph glyph-name="OE" unicode="&#x152;" horiz-adv-x="882" 
d="M793 375q21 0 18 -20l-6 -42q-3 -17 -21 -17h-265l-35 -217h306q21 0 18 -20l-6 -42q-3 -17 -21 -17h-522q-104 0 -157.5 45.5t-53.5 133.5q0 13 1.5 26.5t3.5 27.5l33 207q18 114 83.5 169t185.5 55h528q21 0 18 -20l-6 -42q-3 -17 -21 -17h-309l-34 -210h262zM352 585
q-154 0 -179 -161l-29 -185q-2 -12 -3 -23t-1 -22q0 -115 130 -115h124l81 506h-123z" />
    <glyph glyph-name="oe" unicode="&#x153;" horiz-adv-x="753" 
d="M570 507q75 0 116 -39t41 -110q0 -20 -3 -42l-13 -80q-3 -17 -21 -17h-269l-5 -29q-3 -21 -3 -38q0 -50 26 -71t80 -21q29 0 53.5 10.5t48.5 31.5q15 13 27 -3l19 -27q11 -14 -3 -26q-64 -58 -147 -58q-123 0 -155 85h-2q-24 -43 -63.5 -64t-98.5 -21q-79 0 -121.5 38.5
t-42.5 110.5q0 19 3 42l23 142q15 92 65 139t137 47q117 0 146 -82h2q48 82 160 82zM352 310q3 21 3 38q0 87 -90 87q-54 0 -83 -30.5t-40 -95.5l-20 -124q-3 -21 -3 -38q0 -87 90 -87q54 0 83 30.5t40 95.5zM644 310q3 21 3 38q0 45 -22 66t-67 21q-54 0 -83 -30.5
t-40 -95.5l-3 -21h209z" />
    <glyph glyph-name="Racute" unicode="&#x154;" horiz-adv-x="568" 
d="M484 22q5 -10 1 -16t-15 -6h-60q-16 0 -22 15l-104 247h-113l-38 -245q-3 -17 -21 -17h-51q-21 0 -18 20l99 627q3 17 21 17h179q208 0 208 -172q0 -192 -177 -223zM458 485q0 52 -31 76t-94 24h-110l-39 -244h108q86 0 126 34.5t40 109.5zM392 738q-9 -9 -20 -9h-45
q-11 0 -13.5 6t3.5 14l96 122q9 10 21 10h53q11 0 14.5 -6.5t-4.5 -14.5z" />
    <glyph glyph-name="racute" unicode="&#x155;" horiz-adv-x="364" 
d="M75 329q14 89 59.5 133.5t126.5 44.5q32 0 60.5 -8.5t51.5 -23.5q14 -10 3 -26l-20 -29q-10 -15 -26 -4q-14 10 -32 14.5t-35 4.5q-47 0 -72 -27.5t-34 -84.5l-48 -306q-3 -17 -21 -17h-44q-21 0 -18 20zM297 575q-9 -9 -20 -9h-45q-11 0 -13.5 6t3.5 14l96 122
q9 10 21 10h53q11 0 14.5 -6.5t-4.5 -14.5z" />
    <glyph glyph-name="Rcommaaccent" unicode="&#x156;" horiz-adv-x="568" 
d="M484 22q5 -10 1 -16t-15 -6h-60q-16 0 -22 15l-104 247h-113l-38 -245q-3 -17 -21 -17h-51q-21 0 -18 20l99 627q3 17 21 17h179q208 0 208 -172q0 -192 -177 -223zM458 485q0 52 -31 76t-94 24h-110l-39 -244h108q86 0 126 34.5t40 109.5zM246 -48q20 0 32.5 -13
t12.5 -36q0 -32 -21.5 -62t-52.5 -43q-11 -5 -16 6l-6 14q-4 10 6 16q15 9 25 27q-15 3 -24 14t-9 28q0 23 15 36t38 13z" />
    <glyph glyph-name="rcommaaccent" unicode="&#x157;" horiz-adv-x="364" 
d="M75 329q14 89 59.5 133.5t126.5 44.5q32 0 60.5 -8.5t51.5 -23.5q14 -10 3 -26l-20 -29q-10 -15 -26 -4q-14 10 -32 14.5t-35 4.5q-47 0 -72 -27.5t-34 -84.5l-48 -306q-3 -17 -21 -17h-44q-21 0 -18 20zM52 -48q20 0 32.5 -13t12.5 -36q0 -32 -21.5 -62t-52.5 -43
q-11 -5 -16 6l-6 14q-4 10 6 16q15 9 25 27q-15 3 -24 14t-9 28q0 23 15 36t38 13z" />
    <glyph glyph-name="Rcaron" unicode="&#x158;" horiz-adv-x="568" 
d="M484 22q5 -10 1 -16t-15 -6h-60q-16 0 -22 15l-104 247h-113l-38 -245q-3 -17 -21 -17h-51q-21 0 -18 20l99 627q3 17 21 17h179q208 0 208 -172q0 -192 -177 -223zM458 485q0 52 -31 76t-94 24h-110l-39 -244h108q86 0 126 34.5t40 109.5zM398 739q-9 -10 -21 -10h-45
q-14 0 -20 12l-64 121q-10 19 12 19h36q13 0 19 -11l44 -82l73 84q9 9 20 9h41q11 0 13.5 -6t-4.5 -14z" />
    <glyph glyph-name="rcaron" unicode="&#x159;" horiz-adv-x="364" 
d="M75 329q14 89 59.5 133.5t126.5 44.5q32 0 60.5 -8.5t51.5 -23.5q14 -10 3 -26l-20 -29q-10 -15 -26 -4q-14 10 -32 14.5t-35 4.5q-47 0 -72 -27.5t-34 -84.5l-48 -306q-3 -17 -21 -17h-44q-21 0 -18 20zM303 576q-9 -10 -21 -10h-45q-14 0 -20 12l-64 121q-10 19 12 19
h36q13 0 19 -11l44 -82l73 84q9 9 20 9h41q11 0 13.5 -6t-4.5 -14z" />
    <glyph glyph-name="Sacute" unicode="&#x15a;" horiz-adv-x="512" 
d="M322 676q133 0 191 -82q10 -15 -4 -26l-37 -29q-15 -12 -27 5q-40 53 -127 53q-68 0 -109 -35t-41 -93q0 -20 6.5 -35t22 -26.5t40.5 -20.5t63 -16q49 -9 83 -23t55 -33.5t30.5 -46t9.5 -60.5q0 -51 -17 -91.5t-49 -69t-77 -44t-101 -15.5q-152 0 -219 97q-9 15 5 26
l36 29q15 12 27 -4q51 -69 156 -69q69 0 109 34.5t40 93.5q0 38 -28.5 60t-102.5 36q-50 9 -84 23t-55 34t-30.5 46.5t-9.5 61.5q0 51 17 91.5t49 69t77 44t101 15.5zM372 738q-9 -9 -20 -9h-45q-11 0 -13.5 6t3.5 14l96 122q9 10 21 10h53q11 0 14.5 -6.5t-4.5 -14.5z" />
    <glyph glyph-name="sacute" unicode="&#x15b;" horiz-adv-x="413" 
d="M178 -12q-113 0 -170 58q-13 13 0 26l24 28q12 15 26 1q44 -41 120 -41q52 0 81.5 22.5t29.5 63.5q0 29 -21.5 44.5t-78.5 25.5q-76 13 -106.5 41t-30.5 82q0 78 53.5 123t147.5 45q42 0 77.5 -11t61.5 -32q14 -11 2 -26l-23 -29q-11 -14 -26 -2q-36 28 -93 28
q-55 0 -86 -22.5t-31 -62.5q0 -26 21 -41t75 -23q79 -12 110.5 -42.5t31.5 -85.5q0 -80 -52 -125t-143 -45zM296 575q-9 -9 -20 -9h-45q-11 0 -13.5 6t3.5 14l96 122q9 10 21 10h53q11 0 14.5 -6.5t-4.5 -14.5z" />
    <glyph glyph-name="Scircumflex" unicode="&#x15c;" horiz-adv-x="512" 
d="M322 676q133 0 191 -82q10 -15 -4 -26l-37 -29q-15 -12 -27 5q-40 53 -127 53q-68 0 -109 -35t-41 -93q0 -20 6.5 -35t22 -26.5t40.5 -20.5t63 -16q49 -9 83 -23t55 -33.5t30.5 -46t9.5 -60.5q0 -51 -17 -91.5t-49 -69t-77 -44t-101 -15.5q-152 0 -219 97q-9 15 5 26
l36 29q15 12 27 -4q51 -69 156 -69q69 0 109 34.5t40 93.5q0 38 -28.5 60t-102.5 36q-50 9 -84 23t-55 34t-30.5 46.5t-9.5 61.5q0 51 17 91.5t49 69t77 44t101 15.5zM279 738q-9 -9 -20 -9h-41q-11 0 -13.5 6t4.5 14l104 122q9 10 21 10h45q14 0 20 -12l64 -121
q5 -8 1.5 -13.5t-12.5 -5.5h-37q-13 0 -19 11l-44 83z" />
    <glyph glyph-name="scircumflex" unicode="&#x15d;" horiz-adv-x="413" 
d="M178 -12q-113 0 -170 58q-13 13 0 26l24 28q12 15 26 1q44 -41 120 -41q52 0 81.5 22.5t29.5 63.5q0 29 -21.5 44.5t-78.5 25.5q-76 13 -106.5 41t-30.5 82q0 78 53.5 123t147.5 45q42 0 77.5 -11t61.5 -32q14 -11 2 -26l-23 -29q-11 -14 -26 -2q-36 28 -93 28
q-55 0 -86 -22.5t-31 -62.5q0 -26 21 -41t75 -23q79 -12 110.5 -42.5t31.5 -85.5q0 -80 -52 -125t-143 -45zM203 575q-9 -9 -20 -9h-41q-11 0 -13.5 6t4.5 14l104 122q9 10 21 10h45q14 0 20 -12l64 -121q5 -8 1.5 -13.5t-12.5 -5.5h-37q-13 0 -19 11l-44 83z" />
    <glyph glyph-name="Scedilla" unicode="&#x15e;" horiz-adv-x="512" 
d="M15 85q-9 15 5 26l36 29q15 12 27 -4q51 -69 156 -69q69 0 109 34.5t40 93.5q0 38 -28.5 60t-102.5 36q-50 9 -84 23t-55 34t-30.5 46.5t-9.5 61.5q0 51 17 91.5t49 69t77 44t101 15.5q133 0 191 -82q10 -15 -4 -26l-37 -29q-15 -12 -27 5q-40 53 -127 53q-68 0 -109 -35
t-41 -93q0 -20 6.5 -35t22 -26.5t40.5 -20.5t63 -16q49 -9 83 -23t55 -33.5t30.5 -46t9.5 -60.5q0 -50 -16.5 -90t-47.5 -68.5t-74.5 -44.5t-97.5 -17l-12 -34q32 -3 47.5 -18t15.5 -38q0 -34 -25.5 -52t-73.5 -18q-44 0 -75 17q-11 6 -5 20l9 20q6 13 20 5q10 -5 22.5 -8.5
t27.5 -3.5q20 0 30.5 6.5t10.5 16.5q0 13 -11.5 17t-34.5 4q-17 0 -11 16l19 52q-123 10 -181 95z" />
    <glyph glyph-name="scedilla" unicode="&#x15f;" horiz-adv-x="413" 
d="M8 46q-13 13 0 26l24 28q12 15 26 1q44 -41 120 -41q52 0 81.5 22.5t29.5 63.5q0 29 -21.5 44.5t-78.5 25.5q-76 13 -106.5 41t-30.5 82q0 78 53.5 123t147.5 45q42 0 77.5 -11t61.5 -32q14 -11 2 -26l-23 -29q-11 -14 -26 -2q-36 28 -93 28q-55 0 -86 -22.5t-31 -62.5
q0 -26 21 -41t75 -23q79 -12 110.5 -42.5t31.5 -85.5q0 -79 -49.5 -123t-134.5 -47l-12 -34q32 -3 47.5 -18t15.5 -38q0 -34 -25.5 -52t-73.5 -18q-44 0 -75 17q-11 6 -5 20l9 20q6 13 20 5q10 -5 22.5 -8.5t27.5 -3.5q20 0 30.5 6.5t10.5 16.5q0 13 -11.5 17t-34.5 4
q-17 0 -11 16l19 51q-46 5 -79 19t-56 38z" />
    <glyph glyph-name="Scaron" unicode="&#x160;" horiz-adv-x="512" 
d="M322 676q133 0 191 -82q10 -15 -4 -26l-37 -29q-15 -12 -27 5q-40 53 -127 53q-68 0 -109 -35t-41 -93q0 -20 6.5 -35t22 -26.5t40.5 -20.5t63 -16q49 -9 83 -23t55 -33.5t30.5 -46t9.5 -60.5q0 -51 -17 -91.5t-49 -69t-77 -44t-101 -15.5q-152 0 -219 97q-9 15 5 26
l36 29q15 12 27 -4q51 -69 156 -69q69 0 109 34.5t40 93.5q0 38 -28.5 60t-102.5 36q-50 9 -84 23t-55 34t-30.5 46.5t-9.5 61.5q0 51 17 91.5t49 69t77 44t101 15.5zM378 739q-9 -10 -21 -10h-45q-14 0 -20 12l-64 121q-10 19 12 19h36q13 0 19 -11l44 -82l73 84q9 9 20 9
h41q11 0 13.5 -6t-4.5 -14z" />
    <glyph glyph-name="scaron" unicode="&#x161;" horiz-adv-x="413" 
d="M178 -12q-113 0 -170 58q-13 13 0 26l24 28q12 15 26 1q44 -41 120 -41q52 0 81.5 22.5t29.5 63.5q0 29 -21.5 44.5t-78.5 25.5q-76 13 -106.5 41t-30.5 82q0 78 53.5 123t147.5 45q42 0 77.5 -11t61.5 -32q14 -11 2 -26l-23 -29q-11 -14 -26 -2q-36 28 -93 28
q-55 0 -86 -22.5t-31 -62.5q0 -26 21 -41t75 -23q79 -12 110.5 -42.5t31.5 -85.5q0 -80 -52 -125t-143 -45zM302 576q-9 -10 -21 -10h-45q-14 0 -20 12l-64 121q-10 19 12 19h36q13 0 19 -11l44 -82l73 84q9 9 20 9h41q11 0 13.5 -6t-4.5 -14z" />
    <glyph glyph-name="Tcommaaccent" unicode="&#x162;" horiz-adv-x="493" 
d="M518 664q21 0 18 -20l-6 -42q-3 -17 -21 -17h-164l-90 -568q-3 -17 -21 -17h-5l-16 -46q32 -3 47.5 -18t15.5 -38q0 -34 -25.5 -52t-73.5 -18q-44 0 -75 17q-11 6 -5 20l9 20q6 13 20 5q10 -5 22.5 -8.5t27.5 -3.5q20 0 30.5 6.5t10.5 16.5q0 13 -11.5 17t-34.5 4
q-17 0 -11 16l23 62q-21 0 -18 20l90 565h-162q-21 0 -18 20l7 42q3 17 21 17h415z" />
    <glyph glyph-name="tcommaaccent" unicode="&#x163;" horiz-adv-x="355" 
d="M345 495q21 0 18 -20l-5 -35q-3 -17 -21 -17h-138l-43 -276q-1 -6 -1.5 -11.5t-0.5 -10.5q0 -65 67 -65q13 0 25 3.5t23 8.5q19 10 25 -9l11 -32q5 -17 -10 -25q-36 -18 -83 -18q-8 0 -15.5 0.5t-15.5 1.5l-13 -36q32 -3 47.5 -18t15.5 -38q0 -34 -25.5 -52t-73.5 -18
q-44 0 -75 17q-11 6 -5 20l9 20q6 13 20 5q10 -5 22.5 -8.5t27.5 -3.5q20 0 30.5 6.5t10.5 16.5q0 13 -11.5 17t-34.5 4q-17 0 -11 16l23 63q-68 28 -68 111q0 17 3 37l43 274h-49q-21 0 -18 20l5 35q3 17 21 17h52l18 115q3 17 21 17h44q21 0 18 -20l-18 -112h135z" />
    <glyph glyph-name="Tcaron" unicode="&#x164;" horiz-adv-x="493" 
d="M255 17q-3 -17 -21 -17h-51q-21 0 -18 20l90 565h-162q-21 0 -18 20l7 42q3 17 21 17h415q21 0 18 -20l-6 -42q-3 -17 -21 -17h-164zM367 739q-9 -10 -21 -10h-45q-14 0 -20 12l-64 121q-10 19 12 19h36q13 0 19 -11l44 -82l73 84q9 9 20 9h41q11 0 13.5 -6t-4.5 -14z
" />
    <glyph glyph-name="tcaron" unicode="&#x165;" horiz-adv-x="355" 
d="M156 147q-1 -6 -1.5 -11.5t-0.5 -10.5q0 -65 67 -65q13 0 25 3.5t23 8.5q19 10 25 -9l11 -32q5 -17 -10 -25q-36 -18 -83 -18q-69 0 -105.5 32t-36.5 92q0 17 3 37l43 274h-49q-21 0 -18 20l5 35q3 17 21 17h52l18 115q3 17 21 17h44q21 0 18 -20l-18 -112h135
q21 0 18 -20l-5 -35q-3 -17 -21 -17h-138zM367 553q-4 -13 -18 -13h-28q-18 0 -13 18l42 162q4 15 19 15h39q19 0 14 -19z" />
    <glyph glyph-name="Tbar" unicode="&#x166;" horiz-adv-x="493" 
d="M518 664q21 0 18 -20l-6 -42q-3 -17 -21 -17h-164l-30 -191h99q19 0 16 -18l-6 -35q-1 -16 -18 -16h-102l-49 -308q-3 -17 -21 -17h-51q-21 0 -18 20l49 305h-101q-19 0 -16 18l6 35q1 16 18 16h104l30 191h-162q-21 0 -18 20l7 42q3 17 21 17h415z" />
    <glyph glyph-name="tbar" unicode="&#x167;" horiz-adv-x="367" 
d="M351 495q21 0 18 -20l-5 -35q-3 -17 -21 -17h-138l-18 -115h116q20 0 17 -19l-6 -34q-3 -16 -20 -16h-118l-14 -92q-1 -6 -1.5 -11.5t-0.5 -10.5q0 -65 67 -65q13 0 25 3.5t23 8.5q19 10 25 -9l11 -32q5 -17 -10 -25q-36 -18 -83 -18q-69 0 -105.5 32t-36.5 92q0 17 3 37
l14 90h-41q-20 0 -17 19l6 34q3 16 20 16h43l18 115h-49q-21 0 -18 20l5 35q3 17 21 17h52l18 115q3 17 21 17h44q21 0 18 -20l-18 -112h135z" />
    <glyph glyph-name="Utilde" unicode="&#x168;" horiz-adv-x="588" 
d="M515 217q-36 -229 -251 -229q-98 0 -151 47t-53 136q0 12 1 25t3 27l67 424q3 17 21 17h51q21 0 18 -20l-66 -416q-4 -23 -4 -46q0 -115 118 -115q71 0 109 39.5t51 123.5l66 417q3 17 21 17h48q21 0 18 -20zM243 739q-18 0 -13 18q27 102 101 102q19 0 32.5 -7t33.5 -24
q14 -12 21 -17t18 -5q28 0 42 41q4 13 17 13h25q18 0 13 -18q-29 -102 -101 -102q-20 0 -34.5 7t-32.5 24q-14 12 -21 17t-18 5q-28 0 -42 -41q-4 -13 -17 -13h-24z" />
    <glyph glyph-name="utilde" unicode="&#x169;" horiz-adv-x="488" 
d="M413 167q-29 -179 -201 -179q-80 0 -122.5 37t-42.5 107q0 20 3 41l48 305q3 17 21 17h44q21 0 18 -20l-47 -297q-3 -20 -3 -34q0 -44 21 -64t65 -20q52 0 79.5 28.5t37.5 88.5l47 301q3 17 21 17h42q21 0 18 -20zM167 576q-18 0 -13 18q27 102 101 102q19 0 32.5 -7
t33.5 -24q14 -12 21 -17t18 -5q28 0 42 41q4 13 17 13h25q18 0 13 -18q-29 -102 -101 -102q-20 0 -34.5 7t-32.5 24q-14 12 -21 17t-18 5q-28 0 -42 -41q-4 -13 -17 -13h-24z" />
    <glyph glyph-name="Umacron" unicode="&#x16a;" horiz-adv-x="588" 
d="M515 217q-36 -229 -251 -229q-98 0 -151 47t-53 136q0 12 1 25t3 27l67 424q3 17 21 17h51q21 0 18 -20l-66 -416q-4 -23 -4 -46q0 -115 118 -115q71 0 109 39.5t51 123.5l66 417q3 17 21 17h48q21 0 18 -20zM509 777q-3 -15 -19 -15h-229q-18 0 -15 18l5 32q1 16 18 16
h230q18 0 15 -18z" />
    <glyph glyph-name="umacron" unicode="&#x16b;" horiz-adv-x="488" 
d="M413 167q-29 -179 -201 -179q-80 0 -122.5 37t-42.5 107q0 20 3 41l48 305q3 17 21 17h44q21 0 18 -20l-47 -297q-3 -20 -3 -34q0 -44 21 -64t65 -20q52 0 79.5 28.5t37.5 88.5l47 301q3 17 21 17h42q21 0 18 -20zM433 614q-3 -15 -19 -15h-229q-18 0 -15 18l5 32
q1 16 18 16h230q18 0 15 -18z" />
    <glyph glyph-name="Ubreve" unicode="&#x16c;" horiz-adv-x="588" 
d="M515 217q-36 -229 -251 -229q-98 0 -151 47t-53 136q0 12 1 25t3 27l67 424q3 17 21 17h51q21 0 18 -20l-66 -416q-4 -23 -4 -46q0 -115 118 -115q71 0 109 39.5t51 123.5l66 417q3 17 21 17h48q21 0 18 -20zM509 864q17 0 14 -17q-11 -53 -49.5 -79.5t-92.5 -26.5
q-57 0 -89.5 29t-33.5 79q0 15 15 15h31q12 0 15 -14q8 -45 63 -45q27 0 48 12t31 35q6 12 18 12h30z" />
    <glyph glyph-name="ubreve" unicode="&#x16d;" horiz-adv-x="488" 
d="M413 167q-29 -179 -201 -179q-80 0 -122.5 37t-42.5 107q0 20 3 41l48 305q3 17 21 17h44q21 0 18 -20l-47 -297q-3 -20 -3 -34q0 -44 21 -64t65 -20q52 0 79.5 28.5t37.5 88.5l47 301q3 17 21 17h42q21 0 18 -20zM433 701q17 0 14 -17q-11 -53 -49.5 -79.5t-92.5 -26.5
q-57 0 -89.5 29t-33.5 79q0 15 15 15h31q12 0 15 -14q8 -45 63 -45q27 0 48 12t31 35q6 12 18 12h30z" />
    <glyph glyph-name="Uring" unicode="&#x16e;" horiz-adv-x="588" 
d="M515 217q-36 -229 -251 -229q-98 0 -151 47t-53 136q0 12 1 25t3 27l67 424q3 17 21 17h51q21 0 18 -20l-66 -416q-4 -23 -4 -46q0 -115 118 -115q71 0 109 39.5t51 123.5l66 417q3 17 21 17h48q21 0 18 -20zM376 723q-34 0 -55.5 21t-21.5 53q0 39 26.5 64.5t63.5 25.5
q33 0 54.5 -21t21.5 -53q0 -39 -26.5 -64.5t-62.5 -25.5zM378 767q17 0 29.5 12t12.5 31q0 15 -9.5 24t-24.5 9q-17 0 -29.5 -12t-12.5 -31q0 -33 34 -33z" />
    <glyph glyph-name="uring" unicode="&#x16f;" horiz-adv-x="488" 
d="M413 167q-29 -179 -201 -179q-80 0 -122.5 37t-42.5 107q0 20 3 41l48 305q3 17 21 17h44q21 0 18 -20l-47 -297q-3 -20 -3 -34q0 -44 21 -64t65 -20q52 0 79.5 28.5t37.5 88.5l47 301q3 17 21 17h42q21 0 18 -20zM300 560q-34 0 -55.5 21t-21.5 53q0 39 26.5 64.5
t63.5 25.5q33 0 54.5 -21t21.5 -53q0 -39 -26.5 -64.5t-62.5 -25.5zM302 604q17 0 29.5 12t12.5 31q0 15 -9.5 24t-24.5 9q-17 0 -29.5 -12t-12.5 -31q0 -33 34 -33z" />
    <glyph glyph-name="Uhungarumlaut" unicode="&#x170;" horiz-adv-x="588" 
d="M515 217q-36 -229 -251 -229q-98 0 -151 47t-53 136q0 12 1 25t3 27l67 424q3 17 21 17h51q21 0 18 -20l-66 -416q-4 -23 -4 -46q0 -115 118 -115q71 0 109 39.5t51 123.5l66 417q3 17 21 17h48q21 0 18 -20zM327 738q-6 -9 -20 -9h-36q-10 0 -13 5.5t3 13.5l90 123
q7 10 21 10h44q11 0 14 -6.5t-4 -14.5zM478 738q-6 -9 -20 -9h-35q-10 0 -13 5.5t3 13.5l89 123q7 10 21 10h44q11 0 14 -6.5t-4 -14.5z" />
    <glyph glyph-name="uhungarumlaut" unicode="&#x171;" horiz-adv-x="488" 
d="M413 167q-29 -179 -201 -179q-80 0 -122.5 37t-42.5 107q0 20 3 41l48 305q3 17 21 17h44q21 0 18 -20l-47 -297q-3 -20 -3 -34q0 -44 21 -64t65 -20q52 0 79.5 28.5t37.5 88.5l47 301q3 17 21 17h42q21 0 18 -20zM251 575q-6 -9 -20 -9h-36q-10 0 -13 5.5t3 13.5l90 123
q7 10 21 10h44q11 0 14 -6.5t-4 -14.5zM402 575q-6 -9 -20 -9h-35q-10 0 -13 5.5t3 13.5l89 123q7 10 21 10h44q11 0 14 -6.5t-4 -14.5z" />
    <glyph glyph-name="Uogonek" unicode="&#x172;" horiz-adv-x="588" 
d="M564 664q21 0 18 -20l-67 -427q-14 -84 -50 -135.5t-96 -77.5q-40 -17 -58.5 -40.5t-18.5 -47.5q0 -14 8 -23t22 -9q18 0 38 15q13 10 22 -4l11 -18q8 -14 -4 -23q-17 -13 -34.5 -19.5t-40.5 -6.5q-37 0 -59.5 20t-22.5 53q0 23 9.5 44.5t32.5 40.5v2h-10q-98 0 -151 47
t-53 136q0 12 1 25t3 27l67 424q3 17 21 17h51q21 0 18 -20l-66 -416q-4 -23 -4 -46q0 -115 118 -115q71 0 109 39.5t51 123.5l66 417q3 17 21 17h48z" />
    <glyph glyph-name="uogonek" unicode="&#x173;" horiz-adv-x="488" 
d="M444 495q21 0 18 -20l-49 -308q-11 -64 -37.5 -103.5t-72.5 -60.5q-38 -17 -56 -40.5t-18 -46.5q0 -14 8 -23t22 -9q18 0 38 15q13 10 22 -4l11 -18q8 -14 -4 -23q-17 -13 -34.5 -19.5t-40.5 -6.5q-37 0 -59.5 20t-22.5 53q0 23 9.5 44.5t32.5 40.5v2q-80 1 -122 38
t-42 106q0 20 3 41l48 305q3 17 21 17h44q21 0 18 -20l-47 -297q-3 -20 -3 -34q0 -44 21 -64t65 -20q52 0 79.5 28.5t37.5 88.5l47 301q3 17 21 17h42z" />
    <glyph glyph-name="Wcircumflex" unicode="&#x174;" horiz-adv-x="853" 
d="M872 664q23 0 15 -22l-267 -627q-6 -15 -22 -15h-65q-19 0 -20 18l-48 469h-2l-199 -472q-6 -15 -22 -15h-64q-19 0 -20 18l-67 626q-2 20 18 20h56q18 0 20 -18l45 -500h2l212 503q6 15 22 15h46q18 0 20 -18l53 -500h2l206 503q6 15 22 15h57zM448 738q-9 -9 -20 -9
h-41q-11 0 -13.5 6t4.5 14l104 122q9 10 21 10h45q14 0 20 -12l64 -121q5 -8 1.5 -13.5t-12.5 -5.5h-37q-13 0 -19 11l-44 83z" />
    <glyph glyph-name="wcircumflex" unicode="&#x175;" horiz-adv-x="691" 
d="M691 495q11 0 15 -6t-1 -16l-209 -459q-6 -14 -22 -14h-50q-17 0 -20 18l-42 320h-2l-147 -324q-6 -14 -22 -14h-50q-17 0 -20 18l-63 457q-3 20 17 20h48q18 0 20 -18l40 -353h2l159 357q6 14 22 14h34q17 0 20 -18l46 -350h2l153 354q6 14 22 14h48zM342 575
q-9 -9 -20 -9h-41q-11 0 -13.5 6t4.5 14l104 122q9 10 21 10h45q14 0 20 -12l64 -121q5 -8 1.5 -13.5t-12.5 -5.5h-37q-13 0 -19 11l-44 83z" />
    <glyph glyph-name="Ycircumflex" unicode="&#x176;" horiz-adv-x="530" 
d="M201 0q-21 0 -18 20l43 275l-150 347q-5 10 -1 16t15 6h59q16 0 22 -15l113 -273l198 276q9 12 24 12h62q12 0 15.5 -6.5t-3.5 -16.5l-264 -351l-43 -273q-3 -17 -21 -17h-51zM286 738q-9 -9 -20 -9h-41q-11 0 -13.5 6t4.5 14l104 122q9 10 21 10h45q14 0 20 -12l64 -121
q5 -8 1.5 -13.5t-12.5 -5.5h-37q-13 0 -19 11l-44 83z" />
    <glyph glyph-name="ycircumflex" unicode="&#x177;" horiz-adv-x="499" 
d="M450 495q21 0 18 -20l-76 -473q-13 -83 -66 -128.5t-140 -45.5q-102 0 -161 56q-12 12 -1 27l22 28q12 15 27 2q44 -41 113 -41q54 0 85.5 29t39.5 83l6 37h-2q-44 -45 -117 -45q-72 0 -110.5 36.5t-38.5 105.5q0 11 1 22.5t3 23.5l45 286q3 17 21 17h44q21 0 18 -20
l-44 -278q-3 -20 -3 -36q0 -85 87 -85q52 0 81 30.5t39 91.5l44 280q3 17 21 17h44zM243 575q-9 -9 -20 -9h-41q-11 0 -13.5 6t4.5 14l104 122q9 10 21 10h45q14 0 20 -12l64 -121q5 -8 1.5 -13.5t-12.5 -5.5h-37q-13 0 -19 11l-44 83z" />
    <glyph glyph-name="Ydieresis" unicode="&#x178;" horiz-adv-x="530" 
d="M201 0q-21 0 -18 20l43 275l-150 347q-5 10 -1 16t15 6h59q16 0 22 -15l113 -273l198 276q9 12 24 12h62q12 0 15.5 -6.5t-3.5 -16.5l-264 -351l-43 -273q-3 -17 -21 -17h-51zM265 753q-21 0 -33.5 12.5t-12.5 32.5q0 23 15 38.5t38 15.5q20 0 33 -13t13 -33
q0 -23 -15.5 -38t-37.5 -15zM432 753q-20 0 -33 13t-13 33q0 23 15 38t37 15q21 0 34 -13t13 -33q0 -23 -15 -38t-38 -15z" />
    <glyph glyph-name="Zacute" unicode="&#x179;" horiz-adv-x="522" 
d="M435 79q21 0 18 -20l-6 -42q-3 -17 -21 -17h-405q-21 0 -18 20l7 49q1 13 10 23l401 493h-293q-21 0 -18 20l7 42q3 17 21 17h385q21 0 18 -20l-8 -50q-1 -12 -10 -22l-401 -493h313zM378 738q-9 -9 -20 -9h-45q-11 0 -13.5 6t3.5 14l96 122q9 10 21 10h53
q11 0 14.5 -6.5t-4.5 -14.5z" />
    <glyph glyph-name="zacute" unicode="&#x17a;" horiz-adv-x="427" 
d="M341 72q21 0 18 -20l-5 -35q-3 -17 -21 -17h-315q-21 0 -18 20l6 43q1 13 10 23l298 337h-214q-21 0 -18 20l5 35q3 17 21 17h296q21 0 18 -20l-7 -43q-1 -13 -10 -23l-298 -337h234zM305 575q-9 -9 -20 -9h-45q-11 0 -13.5 6t3.5 14l96 122q9 10 21 10h53
q11 0 14.5 -6.5t-4.5 -14.5z" />
    <glyph glyph-name="Zdotaccent" unicode="&#x17b;" horiz-adv-x="522" 
d="M435 79q21 0 18 -20l-6 -42q-3 -17 -21 -17h-405q-21 0 -18 20l7 49q1 13 10 23l401 493h-293q-21 0 -18 20l7 42q3 17 21 17h385q21 0 18 -20l-8 -50q-1 -12 -10 -22l-401 -493h313zM347 750q-22 0 -35 13.5t-13 34.5q0 25 16 41t39 16q22 0 35.5 -13.5t13.5 -33.5
q0 -26 -16 -42t-40 -16z" />
    <glyph glyph-name="zdotaccent" unicode="&#x17c;" horiz-adv-x="427" 
d="M341 72q21 0 18 -20l-5 -35q-3 -17 -21 -17h-315q-21 0 -18 20l6 43q1 13 10 23l298 337h-214q-21 0 -18 20l5 35q3 17 21 17h296q21 0 18 -20l-7 -43q-1 -13 -10 -23l-298 -337h234zM274 587q-22 0 -35 13.5t-13 34.5q0 25 16 41t39 16q22 0 35.5 -13.5t13.5 -33.5
q0 -26 -16 -42t-40 -16z" />
    <glyph glyph-name="Zcaron" unicode="&#x17d;" horiz-adv-x="522" 
d="M435 79q21 0 18 -20l-6 -42q-3 -17 -21 -17h-405q-21 0 -18 20l7 49q1 13 10 23l401 493h-293q-21 0 -18 20l7 42q3 17 21 17h385q21 0 18 -20l-8 -50q-1 -12 -10 -22l-401 -493h313zM384 739q-9 -10 -21 -10h-45q-14 0 -20 12l-64 121q-10 19 12 19h36q13 0 19 -11
l44 -82l73 84q9 9 20 9h41q11 0 13.5 -6t-4.5 -14z" />
    <glyph glyph-name="zcaron" unicode="&#x17e;" horiz-adv-x="427" 
d="M341 72q21 0 18 -20l-5 -35q-3 -17 -21 -17h-315q-21 0 -18 20l6 43q1 13 10 23l298 337h-214q-21 0 -18 20l5 35q3 17 21 17h296q21 0 18 -20l-7 -43q-1 -13 -10 -23l-298 -337h234zM311 576q-9 -10 -21 -10h-45q-14 0 -20 12l-64 121q-10 19 12 19h36q13 0 19 -11
l44 -82l73 84q9 9 20 9h41q11 0 13.5 -6t-4.5 -14z" />
    <glyph glyph-name="florin" unicode="&#x192;" horiz-adv-x="529" 
d="M439 564q-83 0 -114 -102l-16 -53h146q21 0 18 -20l-5 -35q-3 -17 -21 -17h-159l-116 -391q-4 -16 -22 -16h-44q-22 0 -16 21l115 386h-93q-21 0 -18 20l5 35q3 17 21 17h106l17 57q26 88 73 129t121 41q59 0 100 -21q17 -8 7 -25l-17 -32q-9 -16 -25 -7q-26 13 -63 13z
" />
    <glyph glyph-name="AEacute" unicode="&#x1fc;" horiz-adv-x="875" 
d="M787 375q21 0 18 -20l-7 -42q-3 -17 -21 -17h-264l-35 -217h306q21 0 18 -20l-7 -42q-3 -17 -21 -17h-377q-21 0 -18 20l18 112h-237l-86 -120q-8 -12 -23 -12h-61q-12 0 -15.5 6.5t3.5 16.5l458 629q8 12 24 12h416q21 0 18 -20l-6 -42q-3 -17 -21 -17h-308l-34 -210
h262zM465 559h-2l-246 -348h192zM558 738q-9 -9 -20 -9h-45q-11 0 -13.5 6t3.5 14l96 122q9 10 21 10h53q11 0 14.5 -6.5t-4.5 -14.5z" />
    <glyph glyph-name="aeacute" unicode="&#x1fd;" horiz-adv-x="734" 
d="M553 507q75 0 115 -38.5t40 -108.5q0 -11 -1 -22t-3 -22l-12 -77q-3 -17 -21 -17h-269l-5 -32q-3 -21 -3 -38q0 -49 26 -70.5t80 -21.5q29 0 54 11t50 32q15 14 26 -3l18 -27q10 -15 -3 -27q-64 -58 -150 -58q-123 0 -153 84h-2q-25 -42 -66 -63t-102 -21
q-72 0 -112 36.5t-40 101.5q0 79 49.5 122t148.5 43h113l2 14q3 21 3 39q0 48 -23.5 69.5t-73.5 21.5q-29 0 -56.5 -10.5t-49.5 -27.5q-15 -12 -26 5l-17 28q-9 15 5 26q35 26 73 38.5t77 12.5q115 0 144 -83h2q49 83 162 83zM624 310q2 12 3 21.5t1 18.5q0 85 -87 85
q-54 0 -84.5 -30.5t-41.5 -95.5l-3 -18h209zM220 222q-57 0 -87 -23t-30 -70q0 -69 85 -69q55 0 85 30.5t41 95.5l6 36h-100zM455 575q-9 -9 -20 -9h-45q-11 0 -13.5 6t3.5 14l96 122q9 10 21 10h53q11 0 14.5 -6.5t-4.5 -14.5z" />
    <glyph glyph-name="Oslashacute" unicode="&#x1fe;" horiz-adv-x="588" 
d="M586 646q12 -13 2 -26l-39 -47q17 -39 17 -86q0 -13 -1.5 -26.5t-3.5 -27.5l-33 -208q-19 -118 -84 -177.5t-180 -59.5q-101 0 -156 47l-30 -36q-12 -14 -26 -2l-24 21q-13 12 -2 26l39 48q-16 40 -16 87q0 12 1 25t3 27l33 208q19 118 84 177.5t180 59.5q101 0 157 -47
l29 36q12 14 26 2zM144 237q-4 -23 -4 -48v-4h2l308 375q-31 37 -103 37q-76 0 -118 -42.5t-56 -130.5zM165 105q31 -38 103 -38q76 0 117 41.5t55 129.5l30 189q2 14 3 26.5t1 23.5v2h-2zM408 738q-9 -9 -20 -9h-45q-11 0 -13.5 6t3.5 14l96 122q9 10 21 10h53
q11 0 14.5 -6.5t-4.5 -14.5z" />
    <glyph glyph-name="oslashacute" unicode="&#x1ff;" horiz-adv-x="475" 
d="M454 475q12 -10 1 -24l-27 -31q11 -30 11 -63q0 -19 -3 -41l-22 -143q-29 -185 -209 -185q-74 0 -117 32l-19 -22q-12 -13 -24 -1l-25 23q-12 10 -1 24l26 31q-11 28 -11 63q0 20 3 41l23 142q30 186 209 186q74 0 117 -32l19 22q12 13 24 1zM333 413q-22 22 -68 22
q-54 0 -83 -30.5t-40 -95.5l-20 -124q-2 -9 -2.5 -13.5t-0.5 -7.5h2zM353 331l-212 -249q22 -22 68 -22q54 0 83 30.5t40 95.5l20 124q3 15 3 21h-2zM326 575q-9 -9 -20 -9h-45q-11 0 -13.5 6t3.5 14l96 122q9 10 21 10h53q11 0 14.5 -6.5t-4.5 -14.5z" />
    <glyph glyph-name="Scommaaccent" unicode="&#x218;" horiz-adv-x="512" 
d="M322 676q133 0 191 -82q10 -15 -4 -26l-37 -29q-15 -12 -27 5q-40 53 -127 53q-68 0 -109 -35t-41 -93q0 -20 6.5 -35t22 -26.5t40.5 -20.5t63 -16q49 -9 83 -23t55 -33.5t30.5 -46t9.5 -60.5q0 -51 -17 -91.5t-49 -69t-77 -44t-101 -15.5q-152 0 -219 97q-9 15 5 26
l36 29q15 12 27 -4q51 -69 156 -69q69 0 109 34.5t40 93.5q0 38 -28.5 60t-102.5 36q-50 9 -84 23t-55 34t-30.5 46.5t-9.5 61.5q0 51 17 91.5t49 69t77 44t101 15.5zM212 -48q20 0 32.5 -13t12.5 -36q0 -32 -21.5 -62t-52.5 -43q-11 -5 -16 6l-6 14q-4 10 6 16q15 9 25 27
q-15 3 -24 14t-9 28q0 23 15 36t38 13z" />
    <glyph glyph-name="scommaaccent" unicode="&#x219;" horiz-adv-x="413" 
d="M178 -12q-113 0 -170 58q-13 13 0 26l24 28q12 15 26 1q44 -41 120 -41q52 0 81.5 22.5t29.5 63.5q0 29 -21.5 44.5t-78.5 25.5q-76 13 -106.5 41t-30.5 82q0 78 53.5 123t147.5 45q42 0 77.5 -11t61.5 -32q14 -11 2 -26l-23 -29q-11 -14 -26 -2q-36 28 -93 28
q-55 0 -86 -22.5t-31 -62.5q0 -26 21 -41t75 -23q79 -12 110.5 -42.5t31.5 -85.5q0 -80 -52 -125t-143 -45zM159 -48q20 0 32.5 -13t12.5 -36q0 -32 -21.5 -62t-52.5 -43q-11 -5 -16 6l-6 14q-4 10 6 16q15 9 25 27q-15 3 -24 14t-9 28q0 23 15 36t38 13z" />
    <glyph glyph-name="uni021A" unicode="&#x21a;" horiz-adv-x="493" 
d="M255 17q-3 -17 -21 -17h-51q-21 0 -18 20l90 565h-162q-21 0 -18 20l7 42q3 17 21 17h415q21 0 18 -20l-6 -42q-3 -17 -21 -17h-164zM195 -48q20 0 32.5 -13t12.5 -36q0 -32 -21.5 -62t-52.5 -43q-11 -5 -16 6l-6 14q-4 10 6 16q15 9 25 27q-15 3 -24 14t-9 28
q0 23 15 36t38 13z" />
    <glyph glyph-name="uni021B" unicode="&#x21b;" horiz-adv-x="355" 
d="M156 147q-1 -6 -1.5 -11.5t-0.5 -10.5q0 -65 67 -65q13 0 25 3.5t23 8.5q19 10 25 -9l11 -32q5 -17 -10 -25q-36 -18 -83 -18q-69 0 -105.5 32t-36.5 92q0 17 3 37l43 274h-49q-21 0 -18 20l5 35q3 17 21 17h52l18 115q3 17 21 17h44q21 0 18 -20l-18 -112h135
q21 0 18 -20l-5 -35q-3 -17 -21 -17h-138zM150 -48q20 0 32.5 -13t12.5 -36q0 -32 -21.5 -62t-52.5 -43q-11 -5 -16 6l-6 14q-4 10 6 16q15 9 25 27q-15 3 -24 14t-9 28q0 23 15 36t38 13z" />
    <glyph glyph-name="uni0237" unicode="&#x237;" horiz-adv-x="217" 
d="M-56 -88q69 0 81 75l78 491q3 17 21 17h44q21 0 18 -20l-78 -491q-24 -144 -159 -144h-13q-21 0 -18 20l5 35q3 17 21 17z" />
    <glyph glyph-name="circumflex" unicode="&#x2c6;" horiz-adv-x="500" 
d="M247 575q-9 -9 -20 -9h-41q-11 0 -13.5 6t4.5 14l104 122q9 10 21 10h45q14 0 20 -12l64 -121q5 -8 1.5 -13.5t-12.5 -5.5h-37q-13 0 -19 11l-44 83z" />
    <glyph glyph-name="caron" unicode="&#x2c7;" horiz-adv-x="500" 
d="M346 576q-9 -10 -21 -10h-45q-14 0 -20 12l-64 121q-10 19 12 19h36q13 0 19 -11l44 -82l73 84q9 9 20 9h41q11 0 13.5 -6t-4.5 -14z" />
    <glyph glyph-name="breve" unicode="&#x2d8;" horiz-adv-x="500" 
d="M439 701q17 0 14 -17q-11 -53 -49.5 -79.5t-92.5 -26.5q-57 0 -89.5 29t-33.5 79q0 15 15 15h31q12 0 15 -14q8 -45 63 -45q27 0 48 12t31 35q6 12 18 12h30z" />
    <glyph glyph-name="dotaccent" unicode="&#x2d9;" horiz-adv-x="500" 
d="M308 587q-22 0 -35 13.5t-13 34.5q0 25 16 41t39 16q22 0 35.5 -13.5t13.5 -33.5q0 -26 -16 -42t-40 -16z" />
    <glyph glyph-name="ring" unicode="&#x2da;" horiz-adv-x="500" 
d="M306 560q-34 0 -55.5 21t-21.5 53q0 39 26.5 64.5t63.5 25.5q33 0 54.5 -21t21.5 -53q0 -39 -26.5 -64.5t-62.5 -25.5zM308 604q17 0 29.5 12t12.5 31q0 15 -9.5 24t-24.5 9q-17 0 -29.5 -12t-12.5 -31q0 -33 34 -33z" />
    <glyph glyph-name="ogonek" unicode="&#x2db;" horiz-adv-x="500" 
d="M287 -123q8 -14 -4 -23q-17 -13 -34.5 -19.5t-40.5 -6.5q-37 0 -59.5 20t-22.5 53q0 36 26.5 69.5t87.5 58.5l27 -21q-42 -20 -61.5 -43.5t-19.5 -48.5q0 -14 8 -23t22 -9q18 0 38 15q13 10 22 -4z" />
    <glyph glyph-name="tilde" unicode="&#x2dc;" horiz-adv-x="500" 
d="M173 576q-18 0 -13 18q27 102 101 102q19 0 32.5 -7t33.5 -24q14 -12 21 -17t18 -5q28 0 42 41q4 13 17 13h25q18 0 13 -18q-29 -102 -101 -102q-20 0 -34.5 7t-32.5 24q-14 12 -21 17t-18 5q-28 0 -42 -41q-4 -13 -17 -13h-24z" />
    <glyph glyph-name="hungarumlaut" unicode="&#x2dd;" horiz-adv-x="500" 
d="M258 575q-6 -9 -20 -9h-36q-10 0 -13 5.5t3 13.5l90 123q7 10 21 10h44q11 0 14 -6.5t-4 -14.5zM409 575q-6 -9 -20 -9h-35q-10 0 -13 5.5t3 13.5l89 123q7 10 21 10h44q11 0 14 -6.5t-4 -14.5z" />
    <glyph glyph-name="Delta" unicode="&#x394;" horiz-adv-x="587" 
d="M522 21q3 -21 -17 -21h-498q-24 0 -14 22l311 628q7 14 22 14h64q17 0 20 -17zM343 553l-227 -474h306l-77 474h-2z" />
    <glyph glyph-name="Omega" unicode="&#x3a9;" horiz-adv-x="588" 
d="M351 676q103 0 159 -48.5t56 -140.5q0 -13 -1.5 -26.5t-3.5 -27.5l-26 -161q-11 -69 -43 -117.5t-84 -73.5v-2h76q21 0 18 -20l-7 -42q-3 -17 -21 -17h-153q-21 0 -18 20l7 47q1 14 16 21q95 41 118 178l26 160q2 14 3 26.5t1 23.5q0 121 -127 121q-75 0 -117 -42
t-56 -130l-25 -160q-2 -14 -3 -27t-1 -25q0 -90 62 -124q15 -7 12 -23l-7 -49q-3 -17 -21 -17h-153q-21 0 -18 20l6 42q3 17 21 17h86v2q-37 22 -56.5 59.5t-19.5 88.5q0 26 4 49l25 161q19 118 84.5 177.5t180.5 59.5z" />
    <glyph glyph-name="mu" unicode="&#x3bc;" horiz-adv-x="499" 
d="M455 495q21 0 18 -20l-49 -305q-29 -182 -190 -182q-82 0 -114 53h-2l-29 -184q-3 -17 -21 -17h-44q-21 0 -18 20l97 618q3 17 21 17h44q21 0 18 -20l-47 -294q-3 -18 -3 -34q0 -87 88 -87q53 0 81.5 29.5t38.5 92.5l46 296q3 17 21 17h44z" />
    <glyph glyph-name="pi" unicode="&#x3c0;" horiz-adv-x="517" 
d="M199 423l-64 -406q-3 -17 -21 -17h-44q-21 0 -18 20l64 403h-49q-21 0 -18 20l5 35q3 17 21 17h442q21 0 18 -20l-6 -35q-3 -17 -20 -17h-53l-64 -406q-3 -17 -21 -17h-44q-21 0 -18 20l64 403h-174z" />
    <glyph glyph-name="uni1E02" unicode="&#x1e02;" horiz-adv-x="564" 
d="M425 336q90 -33 90 -134q0 -106 -60.5 -154t-192.5 -48h-201q-21 0 -18 20l99 627q3 17 21 17h181q102 0 152.5 -36t50.5 -114q0 -141 -122 -176v-2zM301 376q80 0 117.5 30t37.5 93q0 45 -29.5 65.5t-90.5 20.5h-113l-34 -209h112zM271 79q80 0 117 31.5t37 97.5
q0 47 -29 68t-89 21h-130l-35 -218h129zM359 750q-22 0 -35 13.5t-13 34.5q0 25 16 41t39 16q22 0 35.5 -13.5t13.5 -33.5q0 -26 -16 -42t-40 -16z" />
    <glyph glyph-name="uni1E03" unicode="&#x1e03;" horiz-adv-x="488" 
d="M298 507q76 0 115.5 -37.5t39.5 -108.5q0 -22 -4 -45l-22 -142q-30 -186 -209 -186q-82 0 -126 39t-44 111q0 19 3 42l80 503q3 17 21 17h44q21 0 18 -20l-35 -219h2q43 46 117 46zM365 310q3 21 3 38q0 87 -90 87q-105 0 -124 -126l-19 -124q-3 -21 -3 -38
q0 -45 22.5 -66t67.5 -21q54 0 83.5 30.5t39.5 95.5zM192 781q-22 0 -35 13.5t-13 34.5q0 25 16 41t39 16q22 0 35.5 -13.5t13.5 -33.5q0 -26 -16 -42t-40 -16z" />
    <glyph glyph-name="uni1E0A" unicode="&#x1e0a;" horiz-adv-x="591" 
d="M358 664q104 0 157.5 -44.5t53.5 -132.5q0 -13 -1.5 -26.5t-3.5 -27.5l-33 -207q-18 -115 -83.5 -170.5t-185.5 -55.5h-201q-21 0 -18 20l99 627q3 17 21 17h195zM473 425q4 23 4 46q0 114 -130 114h-124l-81 -506h123q78 0 121 39.5t57 121.5zM365 750q-22 0 -35 13.5
t-13 34.5q0 25 16 41t39 16q22 0 35.5 -13.5t13.5 -33.5q0 -26 -16 -42t-40 -16z" />
    <glyph glyph-name="uni1E0B" unicode="&#x1e0b;" horiz-adv-x="488" 
d="M476 700q21 0 18 -20l-81 -506q-15 -93 -66 -139.5t-142 -46.5q-82 0 -126 39t-44 111q0 19 3 42l22 141q30 186 199 186q84 0 113 -55h2l37 231q3 17 21 17h44zM352 310q3 19 3 36q0 89 -89 89q-54 0 -84 -30.5t-41 -95.5l-19 -124q-3 -21 -3 -38q0 -45 22.5 -66
t67.5 -21q55 0 84 30.5t39 95.5zM473 781q-22 0 -35 13.5t-13 34.5q0 25 16 41t39 16q22 0 35.5 -13.5t13.5 -33.5q0 -26 -16 -42t-40 -16z" />
    <glyph glyph-name="uni1E1E" unicode="&#x1e1e;" horiz-adv-x="505" 
d="M439 369q21 0 18 -20l-7 -42q-3 -17 -21 -17h-253l-43 -273q-3 -17 -21 -17h-51q-21 0 -18 20l99 627q3 17 21 17h367q20 0 17 -20l-6 -41q-2 -18 -20 -18h-298l-35 -216h251zM355 750q-22 0 -35 13.5t-13 34.5q0 25 16 41t39 16q22 0 35.5 -13.5t13.5 -33.5
q0 -26 -16 -42t-40 -16z" />
    <glyph glyph-name="uni1E1F" unicode="&#x1e1f;" 
d="M317 640q-42 0 -67 -27t-33 -77l-7 -41h135q21 0 18 -20l-5 -35q-3 -17 -21 -17h-138l-64 -406q-3 -17 -21 -17h-44q-21 0 -18 20l64 403h-49q-21 0 -18 20l5 35q3 17 21 17h53l7 47q14 84 58.5 127t121.5 43q59 0 100 -21q8 -4 9.5 -10.5t-2.5 -14.5l-16 -32
q-9 -16 -24 -8q-27 14 -65 14zM295 781q-22 0 -35 13.5t-13 34.5q0 25 16 41t39 16q22 0 35.5 -13.5t13.5 -33.5q0 -26 -16 -42t-40 -16z" />
    <glyph glyph-name="uni1E40" unicode="&#x1e40;" horiz-adv-x="820" 
d="M632 0q-21 0 -18 20l81 515h-2l-275 -522q-7 -13 -22 -13h-48q-18 0 -21 17l-112 522h-2l-82 -522q-3 -17 -21 -17h-49q-21 0 -18 20l99 627q3 17 21 17h94q18 0 21 -17l110 -516h2l269 519q7 14 22 14h104q21 0 18 -20l-99 -627q-3 -17 -21 -17h-51zM491 750
q-22 0 -35 13.5t-13 34.5q0 25 16 41t39 16q22 0 35.5 -13.5t13.5 -33.5q0 -26 -16 -42t-40 -16z" />
    <glyph glyph-name="uni1E41" unicode="&#x1e41;" horiz-adv-x="754" 
d="M549 507q76 0 117 -37t41 -107q0 -10 -1 -21t-3 -22l-48 -303q-3 -17 -21 -17h-44q-21 0 -18 20l47 295q3 21 3 37q0 83 -81 83q-49 0 -76 -29t-37 -92l-46 -297q-3 -17 -21 -17h-44q-21 0 -18 20l47 295q3 21 3 38q0 82 -82 82q-49 0 -75.5 -28.5t-35.5 -87.5l-47 -302
q-3 -17 -21 -17h-44q-21 0 -18 20l48 305q29 182 192 182q102 0 136 -67h2q46 67 145 67zM435 587q-22 0 -35 13.5t-13 34.5q0 25 16 41t39 16q22 0 35.5 -13.5t13.5 -33.5q0 -26 -16 -42t-40 -16z" />
    <glyph glyph-name="uni1E56" unicode="&#x1e56;" horiz-adv-x="546" 
d="M347 664q207 0 207 -173q0 -121 -64.5 -178t-202.5 -57h-117l-37 -239q-3 -17 -21 -17h-51q-21 0 -18 20l99 627q3 17 21 17h184zM463 483q0 54 -31 78t-95 24h-114l-40 -250h113q87 0 127 36t40 112zM363 750q-22 0 -35 13.5t-13 34.5q0 25 16 41t39 16q22 0 35.5 -13.5
t13.5 -33.5q0 -26 -16 -42t-40 -16z" />
    <glyph glyph-name="uni1E57" unicode="&#x1e57;" horiz-adv-x="488" 
d="M282 507q82 0 126.5 -38.5t44.5 -110.5q0 -20 -4 -43l-22 -141q-30 -186 -198 -186q-85 0 -114 56h-2l-30 -187q-3 -17 -21 -17h-43q-21 0 -18 20l73 461q29 186 208 186zM365 310q3 21 3 37q0 88 -90 88q-104 0 -123 -126l-19 -124q-3 -20 -3 -35q0 -90 91 -90
q54 0 82.5 31t39.5 95zM309 587q-22 0 -35 13.5t-13 34.5q0 25 16 41t39 16q22 0 35.5 -13.5t13.5 -33.5q0 -26 -16 -42t-40 -16z" />
    <glyph glyph-name="uni1E60" unicode="&#x1e60;" horiz-adv-x="512" 
d="M322 676q133 0 191 -82q10 -15 -4 -26l-37 -29q-15 -12 -27 5q-40 53 -127 53q-68 0 -109 -35t-41 -93q0 -20 6.5 -35t22 -26.5t40.5 -20.5t63 -16q49 -9 83 -23t55 -33.5t30.5 -46t9.5 -60.5q0 -51 -17 -91.5t-49 -69t-77 -44t-101 -15.5q-152 0 -219 97q-9 15 5 26
l36 29q15 12 27 -4q51 -69 156 -69q69 0 109 34.5t40 93.5q0 38 -28.5 60t-102.5 36q-50 9 -84 23t-55 34t-30.5 46.5t-9.5 61.5q0 51 17 91.5t49 69t77 44t101 15.5zM341 750q-22 0 -35 13.5t-13 34.5q0 25 16 41t39 16q22 0 35.5 -13.5t13.5 -33.5q0 -26 -16 -42t-40 -16z
" />
    <glyph glyph-name="uni1E61" unicode="&#x1e61;" horiz-adv-x="413" 
d="M178 -12q-113 0 -170 58q-13 13 0 26l24 28q12 15 26 1q44 -41 120 -41q52 0 81.5 22.5t29.5 63.5q0 29 -21.5 44.5t-78.5 25.5q-76 13 -106.5 41t-30.5 82q0 78 53.5 123t147.5 45q42 0 77.5 -11t61.5 -32q14 -11 2 -26l-23 -29q-11 -14 -26 -2q-36 28 -93 28
q-55 0 -86 -22.5t-31 -62.5q0 -26 21 -41t75 -23q79 -12 110.5 -42.5t31.5 -85.5q0 -80 -52 -125t-143 -45zM265 587q-22 0 -35 13.5t-13 34.5q0 25 16 41t39 16q22 0 35.5 -13.5t13.5 -33.5q0 -26 -16 -42t-40 -16z" />
    <glyph glyph-name="uni1E6A" unicode="&#x1e6a;" horiz-adv-x="493" 
d="M255 17q-3 -17 -21 -17h-51q-21 0 -18 20l90 565h-162q-21 0 -18 20l7 42q3 17 21 17h415q21 0 18 -20l-6 -42q-3 -17 -21 -17h-164zM330 750q-22 0 -35 13.5t-13 34.5q0 25 16 41t39 16q22 0 35.5 -13.5t13.5 -33.5q0 -26 -16 -42t-40 -16z" />
    <glyph glyph-name="uni1E6B" unicode="&#x1e6b;" horiz-adv-x="355" 
d="M156 147q-1 -6 -1.5 -11.5t-0.5 -10.5q0 -65 67 -65q13 0 25 3.5t23 8.5q19 10 25 -9l11 -32q5 -17 -10 -25q-36 -18 -83 -18q-69 0 -105.5 32t-36.5 92q0 17 3 37l43 274h-49q-21 0 -18 20l5 35q3 17 21 17h52l18 115q3 17 21 17h44q21 0 18 -20l-18 -112h135
q21 0 18 -20l-5 -35q-3 -17 -21 -17h-138zM207 713q-22 0 -35 13.5t-13 34.5q0 25 16 41t39 16q22 0 35.5 -13.5t13.5 -33.5q0 -26 -16 -42t-40 -16z" />
    <glyph glyph-name="Wgrave" unicode="&#x1e80;" horiz-adv-x="853" 
d="M872 664q23 0 15 -22l-267 -627q-6 -15 -22 -15h-65q-19 0 -20 18l-48 469h-2l-199 -472q-6 -15 -22 -15h-64q-19 0 -20 18l-67 626q-2 20 18 20h56q18 0 20 -18l45 -500h2l212 503q6 15 22 15h46q18 0 20 -18l53 -500h2l206 503q6 15 22 15h57zM490 729q-14 0 -19 11
l-65 121q-10 20 12 20h48q14 0 20 -13l55 -120q4 -8 1 -13.5t-13 -5.5h-39z" />
    <glyph glyph-name="wgrave" unicode="&#x1e81;" horiz-adv-x="691" 
d="M691 495q11 0 15 -6t-1 -16l-209 -459q-6 -14 -22 -14h-50q-17 0 -20 18l-42 320h-2l-147 -324q-6 -14 -22 -14h-50q-17 0 -20 18l-63 457q-3 20 17 20h48q18 0 20 -18l40 -353h2l159 357q6 14 22 14h34q17 0 20 -18l46 -350h2l153 354q6 14 22 14h48zM384 566
q-14 0 -19 11l-65 121q-10 20 12 20h48q14 0 20 -13l55 -120q4 -8 1 -13.5t-13 -5.5h-39z" />
    <glyph glyph-name="Wacute" unicode="&#x1e82;" horiz-adv-x="853" 
d="M872 664q23 0 15 -22l-267 -627q-6 -15 -22 -15h-65q-19 0 -20 18l-48 469h-2l-199 -472q-6 -15 -22 -15h-64q-19 0 -20 18l-67 626q-2 20 18 20h56q18 0 20 -18l45 -500h2l212 503q6 15 22 15h46q18 0 20 -18l53 -500h2l206 503q6 15 22 15h57zM541 738q-9 -9 -20 -9
h-45q-11 0 -13.5 6t3.5 14l96 122q9 10 21 10h53q11 0 14.5 -6.5t-4.5 -14.5z" />
    <glyph glyph-name="wacute" unicode="&#x1e83;" horiz-adv-x="691" 
d="M691 495q11 0 15 -6t-1 -16l-209 -459q-6 -14 -22 -14h-50q-17 0 -20 18l-42 320h-2l-147 -324q-6 -14 -22 -14h-50q-17 0 -20 18l-63 457q-3 20 17 20h48q18 0 20 -18l40 -353h2l159 357q6 14 22 14h34q17 0 20 -18l46 -350h2l153 354q6 14 22 14h48zM435 575
q-9 -9 -20 -9h-45q-11 0 -13.5 6t3.5 14l96 122q9 10 21 10h53q11 0 14.5 -6.5t-4.5 -14.5z" />
    <glyph glyph-name="Wdieresis" unicode="&#x1e84;" horiz-adv-x="853" 
d="M872 664q23 0 15 -22l-267 -627q-6 -15 -22 -15h-65q-19 0 -20 18l-48 469h-2l-199 -472q-6 -15 -22 -15h-64q-19 0 -20 18l-67 626q-2 20 18 20h56q18 0 20 -18l45 -500h2l212 503q6 15 22 15h46q18 0 20 -18l53 -500h2l206 503q6 15 22 15h57zM427 753
q-21 0 -33.5 12.5t-12.5 32.5q0 23 15 38.5t38 15.5q20 0 33 -13t13 -33q0 -23 -15.5 -38t-37.5 -15zM594 753q-20 0 -33 13t-13 33q0 23 15 38t37 15q21 0 34 -13t13 -33q0 -23 -15 -38t-38 -15z" />
    <glyph glyph-name="wdieresis" unicode="&#x1e85;" horiz-adv-x="691" 
d="M691 495q11 0 15 -6t-1 -16l-209 -459q-6 -14 -22 -14h-50q-17 0 -20 18l-42 320h-2l-147 -324q-6 -14 -22 -14h-50q-17 0 -20 18l-63 457q-3 20 17 20h48q18 0 20 -18l40 -353h2l159 357q6 14 22 14h34q17 0 20 -18l46 -350h2l153 354q6 14 22 14h48zM321 590
q-21 0 -33.5 12.5t-12.5 32.5q0 23 15 38.5t38 15.5q20 0 33 -13t13 -33q0 -23 -15.5 -38t-37.5 -15zM488 590q-20 0 -33 13t-13 33q0 23 15 38t37 15q21 0 34 -13t13 -33q0 -23 -15 -38t-38 -15z" />
    <glyph glyph-name="Ygrave" unicode="&#x1ef2;" horiz-adv-x="530" 
d="M201 0q-21 0 -18 20l43 275l-150 347q-5 10 -1 16t15 6h59q16 0 22 -15l113 -273l198 276q9 12 24 12h62q12 0 15.5 -6.5t-3.5 -16.5l-264 -351l-43 -273q-3 -17 -21 -17h-51zM328 729q-14 0 -19 11l-65 121q-10 20 12 20h48q14 0 20 -13l55 -120q4 -8 1 -13.5t-13 -5.5
h-39z" />
    <glyph glyph-name="ygrave" unicode="&#x1ef3;" horiz-adv-x="499" 
d="M450 495q21 0 18 -20l-76 -473q-13 -83 -66 -128.5t-140 -45.5q-102 0 -161 56q-12 12 -1 27l22 28q12 15 27 2q44 -41 113 -41q54 0 85.5 29t39.5 83l6 37h-2q-44 -45 -117 -45q-72 0 -110.5 36.5t-38.5 105.5q0 11 1 22.5t3 23.5l45 286q3 17 21 17h44q21 0 18 -20
l-44 -278q-3 -20 -3 -36q0 -85 87 -85q52 0 81 30.5t39 91.5l44 280q3 17 21 17h44zM285 566q-14 0 -19 11l-65 121q-10 20 12 20h48q14 0 20 -13l55 -120q4 -8 1 -13.5t-13 -5.5h-39z" />
    <glyph glyph-name="uni2007" unicode="&#x2007;" horiz-adv-x="529" 
 />
    <glyph glyph-name="figuredash" unicode="&#x2012;" horiz-adv-x="529" 
d="M53 279q-18 0 -15 18l5 33q1 16 18 16h435q18 0 15 -18l-5 -33q-1 -16 -18 -16h-435z" />
    <glyph glyph-name="endash" unicode="&#x2013;" horiz-adv-x="500" 
d="M47 239q-18 0 -15 18l5 33q1 16 18 16h406q18 0 15 -18l-5 -33q-1 -16 -18 -16h-406z" />
    <glyph glyph-name="emdash" unicode="&#x2014;" horiz-adv-x="900" 
d="M47 239q-18 0 -15 18l5 33q1 16 18 16h806q18 0 15 -18l-5 -33q-1 -16 -18 -16h-806z" />
    <glyph glyph-name="quoteleft" unicode="&#x2018;" horiz-adv-x="233" 
d="M154 459q-23 0 -36.5 14.5t-13.5 39.5q0 42 25.5 84.5t70.5 75.5q10 8 18 -3l13 -17q8 -10 -2 -18q-17 -14 -30.5 -32t-19.5 -42q34 -10 34 -44q0 -28 -16.5 -43t-42.5 -15z" />
    <glyph glyph-name="quoteright" unicode="&#x2019;" horiz-adv-x="233" 
d="M180 676q23 0 36.5 -14.5t13.5 -39.5q0 -42 -25.5 -84.5t-70.5 -75.5q-10 -8 -18 3l-13 17q-8 10 2 18q17 14 30.5 32t19.5 42q-34 10 -34 44q0 28 16.5 43t42.5 15z" />
    <glyph glyph-name="quotesinglbase" unicode="&#x201a;" horiz-adv-x="233" 
d="M88 99q23 0 36.5 -14.5t13.5 -39.5q0 -42 -25.5 -84.5t-70.5 -75.5q-10 -8 -18 3l-13 17q-8 10 2 18q17 14 30.5 32t19.5 42q-34 10 -34 44q0 28 16.5 43t42.5 15z" />
    <glyph glyph-name="quotedblleft" unicode="&#x201c;" horiz-adv-x="410" 
d="M331 459q-23 0 -36.5 14.5t-13.5 39.5q0 42 25.5 84.5t70.5 75.5q10 8 18 -3l13 -17q8 -10 -2 -18q-17 -14 -30.5 -32t-19.5 -42q34 -10 34 -44q0 -28 -16.5 -43t-42.5 -15zM154 459q-23 0 -36.5 14.5t-13.5 39.5q0 42 25.5 84.5t70.5 75.5q10 8 18 -3l13 -17
q8 -10 -2 -18q-17 -14 -30.5 -32t-19.5 -42q34 -10 34 -44q0 -28 -16.5 -43t-42.5 -15z" />
    <glyph glyph-name="quotedblright" unicode="&#x201d;" horiz-adv-x="410" 
d="M180 676q23 0 36.5 -14.5t13.5 -39.5q0 -42 -25.5 -84.5t-70.5 -75.5q-10 -8 -18 3l-13 17q-8 10 2 18q17 14 30.5 32t19.5 42q-34 10 -34 44q0 28 16.5 43t42.5 15zM357 676q23 0 36.5 -14.5t13.5 -39.5q0 -42 -25.5 -84.5t-70.5 -75.5q-10 -8 -18 3l-13 17q-8 10 2 18
q17 14 30.5 32t19.5 42q-34 10 -34 44q0 28 16.5 43t42.5 15z" />
    <glyph glyph-name="quotedblbase" unicode="&#x201e;" horiz-adv-x="410" 
d="M265 99q23 0 36.5 -14.5t13.5 -39.5q0 -42 -25.5 -84.5t-70.5 -75.5q-10 -8 -18 3l-13 17q-8 10 2 18q17 14 30.5 32t19.5 42q-34 10 -34 44q0 28 16.5 43t42.5 15zM88 99q23 0 36.5 -14.5t13.5 -39.5q0 -42 -25.5 -84.5t-70.5 -75.5q-10 -8 -18 3l-13 17q-8 10 2 18
q17 14 30.5 32t19.5 42q-34 10 -34 44q0 28 16.5 43t42.5 15z" />
    <glyph glyph-name="dagger" unicode="&#x2020;" horiz-adv-x="438" 
d="M228 98q-2 -15 -17 -15h-35q-17 0 -14 17l60 382h-129q-17 0 -14 17l5 30q1 15 17 15h131l23 141q3 15 17 15h35q17 0 14 -17l-22 -139h129q18 0 15 -17l-5 -31q-3 -14 -18 -14h-131z" />
    <glyph glyph-name="daggerdbl" unicode="&#x2021;" horiz-adv-x="438" 
d="M390 301q17 0 14 -17l-5 -31q-2 -15 -17 -15h-131l-23 -140q-2 -15 -17 -15h-35q-17 0 -14 17l22 138h-129q-18 0 -15 17l5 31q3 15 18 15h131l28 181h-129q-17 0 -14 17l5 30q1 15 17 15h131l23 141q3 15 17 15h35q17 0 14 -17l-22 -139h129q18 0 15 -17l-5 -31
q-3 -14 -18 -14h-131l-28 -181h129z" />
    <glyph glyph-name="bullet" unicode="&#x2022;" horiz-adv-x="500" 
d="M248 165q-26 0 -47.5 9t-37.5 25t-25 37.5t-9 46.5q0 29 11 54t29.5 43.5t43.5 29t53 10.5q25 0 47 -9t37.5 -25t24.5 -37.5t9 -46.5q0 -29 -11 -53.5t-29.5 -43.5t-43 -29.5t-52.5 -10.5z" />
    <glyph glyph-name="ellipsis" unicode="&#x2026;" horiz-adv-x="900" 
d="M696 -12q-23 0 -37 14t-14 37q0 26 17.5 43t42.5 17q23 0 37 -14.5t14 -36.5q0 -26 -17.5 -43t-42.5 -17zM413 -12q-23 0 -37 14t-14 37q0 26 17.5 43t42.5 17q23 0 37 -14.5t14 -36.5q0 -26 -17.5 -43t-42.5 -17zM129 -12q-23 0 -37 14t-14 37q0 26 17.5 43t42.5 17
q23 0 37 -14.5t14 -36.5q0 -26 -17.5 -43t-42.5 -17z" />
    <glyph glyph-name="perthousand" unicode="&#x2030;" horiz-adv-x="919" 
d="M638 194q18 120 133 120q52 0 81 -25.5t29 -73.5v-12.5t-2 -14.5l-12 -79q-18 -121 -132 -121q-53 0 -82 26t-29 74v12.5t2 14.5zM688 112q-1 -6 -1.5 -11t-0.5 -10q0 -46 51 -46q30 0 46 17t22 53l12 76q1 5 1.5 9.5t0.5 9.5q0 47 -50 47q-32 0 -47.5 -17t-21.5 -53z
M73 516q18 120 133 120q52 0 81 -25.5t29 -73.5v-12.5t-2 -14.5l-12 -79q-18 -121 -132 -121q-53 0 -82 26t-29 74v12.5t2 14.5zM123 434q-1 -6 -1.5 -11t-0.5 -10q0 -46 51 -46q30 0 46 17t22 53l12 76q1 5 1.5 9.5t0.5 9.5q0 47 -50 47q-32 0 -47.5 -17t-21.5 -53z
M350 194q18 120 133 120q52 0 81 -25.5t29 -73.5v-12.5t-2 -14.5l-12 -79q-18 -121 -132 -121q-53 0 -82 26t-29 74v12.5t2 14.5zM400 112q-1 -6 -1.5 -11t-0.5 -10q0 -46 51 -46q30 0 46 17t22 53l12 76q1 5 1.5 9.5t0.5 9.5q0 47 -50 47q-32 0 -47.5 -17t-21.5 -53z
M535 615q7 9 18 9h43q10 0 12.5 -5t-3.5 -13l-487 -597q-8 -9 -18 -9h-43q-10 0 -12.5 5t3.5 13z" />
    <glyph glyph-name="guilsinglleft" unicode="&#x2039;" horiz-adv-x="251" 
d="M180 78q10 -20 -12 -20h-38q-14 0 -20 12l-81 165q-6 11 3 23l132 169q9 10 21 10h42q11 0 14 -6t-4 -15l-136 -173z" />
    <glyph glyph-name="guilsinglright" unicode="&#x203a;" horiz-adv-x="251" 
d="M87 68q-9 -10 -21 -10h-42q-11 0 -14 6t4 15l136 173l-79 165q-10 20 12 20h38q14 0 20 -12l81 -166q6 -11 -3 -23z" />
    <glyph glyph-name="fraction" unicode="&#x2044;" horiz-adv-x="136" 
d="M288 615q7 9 18 9h40q10 0 12.5 -5t-3.5 -13l-488 -597q-8 -9 -18 -9h-40q-10 0 -12.5 5t3.5 13z" />
    <glyph glyph-name="uni2070" unicode="&#x2070;" 
d="M95 626q21 130 143 130q57 0 87.5 -28t30.5 -79v-13.5t-2 -14.5l-22 -135q-21 -130 -143 -130q-57 0 -87.5 28t-30.5 80v13.5t2 14.5zM134 491q-1 -6 -1.5 -12t-0.5 -11q0 -57 60 -57q35 0 54 20t26 61l21 130q1 6 1.5 12t0.5 11q0 56 -60 56q-36 0 -55 -20t-25 -60z" />
    <glyph glyph-name="uni2074" unicode="&#x2074;" 
d="M337 503q16 0 14 -16l-4 -25q-2 -14 -16 -14h-32l-12 -71q-2 -14 -16 -14h-31q-16 0 -13 16l11 69h-164q-17 0 -14 16l5 32q1 9 9 18l205 227q7 8 18 8h34q16 0 13 -16l-37 -230h30zM269 654l-134 -151h111l25 151h-2z" />
    <glyph glyph-name="uni2075" unicode="&#x2075;" 
d="M344 749q16 0 14 -16l-4 -25q-2 -14 -16 -14h-152l-23 -98h2q30 16 67 16q49 0 79 -30.5t30 -82.5q0 -67 -41.5 -105t-112.5 -38q-40 0 -70 13.5t-50 37.5q-9 10 2 21l18 17q12 10 21 -1q29 -33 79 -33q43 0 67.5 22.5t24.5 60.5q0 30 -17.5 46.5t-47.5 16.5
q-39 0 -67 -22q-9 -6 -20 -5l-18 3q-15 2 -12 17l42 186q3 13 16 13h189z" />
    <glyph glyph-name="uni2076" unicode="&#x2076;" 
d="M158 590q29 25 77 25t76.5 -31t28.5 -82q0 -66 -38.5 -106t-104.5 -40q-56 0 -88 30t-32 81q0 6 0.5 12t1.5 12l22 135q10 63 47 96.5t97 33.5q66 0 104 -36q11 -10 0 -21l-19 -21q-10 -11 -22 0q-24 23 -60 23q-75 0 -87 -82l-5 -29h2zM220 560q-32 0 -53.5 -20
t-27.5 -55q-1 -5 -1 -15q0 -27 16 -43t45 -16q36 0 58 23.5t22 63.5q0 29 -16 45.5t-43 16.5z" />
    <glyph glyph-name="uni2077" unicode="&#x2077;" 
d="M380 701q-1 -5 -2 -9t-4 -9l-198 -310q-6 -10 -18 -10h-37q-10 0 -12.5 5t2.5 13l201 313h-146l-9 -54q-2 -14 -16 -14h-28q-16 0 -13 16l15 93q2 14 16 14h241q16 0 13 -16z" />
    <glyph glyph-name="uni2078" unicode="&#x2078;" 
d="M288 558q25 -12 37.5 -33t12.5 -48q0 -56 -39.5 -88.5t-106.5 -32.5q-63 0 -97 27t-34 77q0 41 21 67.5t60 38.5v2q-42 24 -42 73q0 53 36.5 84t99.5 31q57 0 88.5 -26t31.5 -72q0 -35 -17 -60.5t-51 -37.5v-2zM221 589q35 0 54.5 16.5t19.5 47.5q0 48 -60 48
q-35 0 -54.5 -17t-19.5 -48q0 -47 60 -47zM193 411q40 0 62 19t22 53q0 26 -18.5 39.5t-51.5 13.5q-40 0 -62.5 -19t-22.5 -53q0 -26 18.5 -39.5t52.5 -13.5z" />
    <glyph glyph-name="uni2079" unicode="&#x2079;" 
d="M231 756q55 0 87 -30t32 -80q0 -6 -0.5 -12t-1.5 -13l-21 -135q-10 -63 -47 -96.5t-97 -33.5q-67 0 -105 36q-11 9 -1 21l18 22q9 10 20 1q28 -25 65 -25q74 0 86 82l5 28h-2q-30 -24 -77 -24t-75.5 30t-28.5 81q0 69 39 108.5t104 39.5zM288 627q1 5 1 15q0 27 -16 43
t-44 16q-36 0 -58 -23.5t-22 -63.5q0 -29 16 -45.5t43 -16.5q34 0 54.5 20.5t25.5 54.5z" />
    <glyph glyph-name="uni2080" unicode="&#x2080;" 
d="M12 103q21 130 143 130q57 0 87.5 -28t30.5 -79v-13.5t-2 -14.5l-22 -135q-21 -130 -143 -130q-57 0 -87.5 28t-30.5 80v13.5t2 14.5zM51 -32q-1 -6 -1.5 -12t-0.5 -11q0 -57 60 -57q35 0 54 20t26 61l21 130q1 6 1.5 12t0.5 11q0 56 -60 56q-36 0 -55 -20t-25 -60z" />
    <glyph glyph-name="uni2081" unicode="&#x2081;" 
d="M140 -160q-16 0 -13 16l45 285l-73 -49q-13 -8 -21 5l-13 21q-8 13 4 20l122 82q9 6 18 6h22q16 0 13 -16l-57 -356q-2 -14 -16 -14h-31z" />
    <glyph glyph-name="uni2082" unicode="&#x2082;" 
d="M220 -105q16 0 13 -16l-4 -25q-2 -14 -16 -14h-217q-16 0 -14 16l4 26q1 12 9 18l167 145q28 25 39 42.5t11 40.5t-14.5 36.5t-41.5 13.5q-23 0 -43 -12t-37 -32q-9 -12 -21 -2l-19 18q-10 10 -2 21q25 31 57.5 46.5t70.5 15.5q52 0 82 -28t30 -76q0 -18 -3.5 -33.5
t-12.5 -30t-23 -29t-35 -32.5l-128 -107v-2h148z" />
    <glyph glyph-name="uni2083" unicode="&#x2083;" 
d="M205 37q24 -11 37.5 -31.5t13.5 -49.5q0 -60 -38.5 -91.5t-107.5 -31.5q-82 0 -123 53q-9 10 2 21l18 17q12 10 21 -2q28 -34 83 -34q38 0 60.5 18.5t22.5 52.5q0 54 -77 54h-17q-16 0 -14 16l4 23q2 14 16 14h15q48 0 69.5 16t21.5 48q0 23 -15.5 35.5t-44.5 12.5
q-23 0 -43.5 -10t-37.5 -27q-12 -12 -21 1l-17 20q-9 11 1 21q53 50 126 50q53 0 83.5 -26t30.5 -72q0 -76 -69 -96v-2z" />
    <glyph glyph-name="uni2084" unicode="&#x2084;" 
d="M254 -20q16 0 14 -16l-4 -25q-2 -14 -16 -14h-32l-12 -71q-2 -14 -16 -14h-31q-16 0 -13 16l11 69h-164q-17 0 -14 16l5 32q1 9 9 18l205 227q7 8 18 8h34q16 0 13 -16l-37 -230h30zM186 131l-134 -151h111l25 151h-2z" />
    <glyph glyph-name="uni2085" unicode="&#x2085;" 
d="M261 226q16 0 14 -16l-4 -25q-2 -14 -16 -14h-152l-23 -98h2q30 16 67 16q49 0 79 -30.5t30 -82.5q0 -67 -41.5 -105t-112.5 -38q-40 0 -70 13.5t-50 37.5q-9 10 2 21l18 17q12 10 21 -1q29 -33 79 -33q43 0 67.5 22.5t24.5 60.5q0 30 -17.5 46.5t-47.5 16.5
q-39 0 -67 -22q-9 -6 -20 -5l-18 3q-15 2 -12 17l42 186q3 13 16 13h189z" />
    <glyph glyph-name="uni2086" unicode="&#x2086;" 
d="M75 67q29 25 77 25t76.5 -31t28.5 -82q0 -66 -38.5 -106t-104.5 -40q-56 0 -88 30t-32 81q0 6 0.5 12t1.5 12l22 135q10 63 47 96.5t97 33.5q66 0 104 -36q11 -10 0 -21l-19 -21q-10 -11 -22 0q-24 23 -60 23q-75 0 -87 -82l-5 -29h2zM137 37q-32 0 -53.5 -20t-27.5 -55
q-1 -5 -1 -15q0 -27 16 -43t45 -16q36 0 58 23.5t22 63.5q0 29 -16 45.5t-43 16.5z" />
    <glyph glyph-name="uni2087" unicode="&#x2087;" 
d="M297 178q-1 -5 -2 -9t-4 -9l-198 -310q-6 -10 -18 -10h-37q-10 0 -12.5 5t2.5 13l201 313h-146l-9 -54q-2 -14 -16 -14h-28q-16 0 -13 16l15 93q2 14 16 14h241q16 0 13 -16z" />
    <glyph glyph-name="uni2088" unicode="&#x2088;" 
d="M205 35q25 -12 37.5 -33t12.5 -48q0 -56 -39.5 -88.5t-106.5 -32.5q-63 0 -97 27t-34 77q0 41 21 67.5t60 38.5v2q-42 24 -42 73q0 53 36.5 84t99.5 31q57 0 88.5 -26t31.5 -72q0 -35 -17 -60.5t-51 -37.5v-2zM138 66q35 0 54.5 16.5t19.5 47.5q0 48 -60 48
q-35 0 -54.5 -17t-19.5 -48q0 -47 60 -47zM110 -112q40 0 62 19t22 53q0 26 -18.5 39.5t-51.5 13.5q-40 0 -62.5 -19t-22.5 -53q0 -26 18.5 -39.5t52.5 -13.5z" />
    <glyph glyph-name="uni2089" unicode="&#x2089;" 
d="M148 233q55 0 87 -30t32 -80q0 -6 -0.5 -12t-1.5 -13l-21 -135q-10 -63 -47 -96.5t-97 -33.5q-67 0 -105 36q-11 9 -1 21l18 22q9 10 20 1q28 -25 65 -25q74 0 86 82l5 28h-2q-30 -24 -77 -24t-75.5 30t-28.5 81q0 69 39 108.5t104 39.5zM205 104q1 5 1 15q0 27 -16 43
t-44 16q-36 0 -58 -23.5t-22 -63.5q0 -29 16 -45.5t43 -16.5q34 0 54.5 20.5t25.5 54.5z" />
    <glyph glyph-name="Euro" unicode="&#x20ac;" horiz-adv-x="529" 
d="M272 64q42 0 75 17t57 49q12 17 26 5l31 -25q14 -11 4 -26q-35 -48 -85 -72t-118 -24q-89 0 -138.5 44.5t-49.5 128.5q0 11 1 23.5t3 25.5h-31q-19 0 -16 18l6 35q1 16 18 16h34l11 71h-31q-19 0 -16 18l6 35q1 16 18 16h34q35 217 237 217q66 0 114 -25.5t71 -73.5
q8 -17 -9 -26l-37 -20q-15 -8 -25 9q-34 60 -119 60q-123 0 -145 -141h193q21 0 14 -20l-14 -36q-4 -13 -19 -13h-186l-11 -71h164q21 0 14 -20l-14 -36q-4 -13 -19 -13h-157q-3 -21 -3 -38q0 -55 29 -81.5t83 -26.5z" />
    <glyph glyph-name="uni20B9" unicode="&#x20b9;" horiz-adv-x="529" 
d="M547 624q21 0 14 -19l-13 -37q-4 -14 -20 -14h-87v-2q28 -31 31 -82h53q21 0 14 -19l-13 -37q-4 -14 -20 -14h-39q-16 -80 -80 -116.5t-194 -36.5h-14v-2l213 -222q9 -9 6 -16t-15 -7h-66q-14 0 -23 10l-230 244q-10 12 -5 25l9 26q4 15 20 15h113q81 0 122.5 19t55.5 61
h-285q-21 0 -13 20l14 37q4 13 19 13h272q-5 42 -40 60t-108 18h-120q-21 0 -15 21l15 41q5 14 20 14h409z" />
    <glyph glyph-name="afii61289" unicode="&#x2113;" horiz-adv-x="436" 
d="M60 119q-18 -9 -26 9l-14 34q-8 17 9 25q20 11 38.5 21t35.5 21l41 260q11 71 54 109t109 38q57 0 88.5 -31t31.5 -88q0 -87 -62 -168.5t-183 -158.5l-4 -25q-2 -8 -2 -15v-14q0 -72 67 -72q18 0 35 7t34 20q17 12 26 -6l17 -34q8 -16 -6 -26q-52 -37 -117 -37
q-71 0 -107 35t-36 99v13zM301 563q-60 0 -72 -81l-30 -187h2q71 54 108.5 110t37.5 108q0 50 -46 50z" />
    <glyph glyph-name="uni2117" unicode="&#x2117;" horiz-adv-x="766" 
d="M437 516q118 0 118 -94q0 -136 -152 -136h-58l-20 -124q-2 -14 -16 -14h-29q-16 0 -13 16l54 338q2 14 16 14h100zM494 415q0 49 -64 49h-56l-21 -126h56q85 0 85 77zM436 676q68 0 124.5 -22.5t97 -62.5t63 -95t22.5 -120q0 -80 -30.5 -150.5t-83.5 -123t-123.5 -83.5
t-149.5 -31q-68 0 -124.5 22.5t-97 62.5t-63 95t-22.5 120q0 79 30.5 150t83.5 123.5t123 83.5t150 31zM359 40q66 0 125.5 26.5t104 72.5t70.5 106.5t26 128.5q0 55 -18.5 101t-52 79t-80 51.5t-102.5 18.5q-66 0 -125.5 -26.5t-103.5 -72.5t-70 -106.5t-26 -128.5
q0 -55 18.5 -101t51.5 -79t79.5 -51.5t102.5 -18.5z" />
    <glyph glyph-name="trademark" unicode="&#x2122;" horiz-adv-x="769" 
d="M321 664q17 0 14 -16l-4 -23q-3 -14 -16 -14h-85l-46 -287q-2 -14 -16 -14h-29q-16 0 -13 16l45 285h-83q-17 0 -14 16l4 23q3 14 16 14h227zM765 664q16 0 13 -16l-51 -324q-2 -14 -16 -14h-29q-16 0 -13 16l42 265h-2l-147 -270q-6 -11 -18 -11h-20q-13 0 -16 13
l-60 263h-2l-43 -262q-2 -14 -16 -14h-27q-16 0 -13 16l51 324q2 14 16 14h58q13 0 16 -13l57 -253h2l138 255q5 11 18 11h62z" />
    <glyph glyph-name="uni2126" unicode="&#x2126;" horiz-adv-x="582" 
d="M348 676q103 0 159 -48.5t56 -140.5q0 -13 -1.5 -26.5t-3.5 -27.5l-26 -161q-11 -69 -43 -117.5t-84 -73.5v-2h76q21 0 18 -20l-7 -42q-3 -17 -21 -17h-153q-21 0 -18 20l7 47q1 14 16 21q95 41 118 178l26 160q2 14 3 26.5t1 23.5q0 121 -127 121q-75 0 -117 -42
t-56 -130l-25 -160q-2 -14 -3 -27t-1 -25q0 -90 62 -124q15 -7 12 -23l-7 -49q-3 -17 -21 -17h-153q-21 0 -18 20l6 42q3 17 21 17h86v2q-37 22 -56.5 59.5t-19.5 88.5q0 26 4 49l25 161q19 118 84.5 177.5t180.5 59.5z" />
    <glyph glyph-name="estimated" unicode="&#x212e;" horiz-adv-x="820" 
d="M202 112q42 -48 99.5 -75.5t123.5 -27.5q70 0 130 31t103 84h54q-51 -62 -126 -98.5t-163 -36.5q-75 0 -141 27t-115 73.5t-77.5 109.5t-28.5 134q0 72 28.5 134.5t77.5 109t115 73.5t141 27t141 -27t115 -73.5t77.5 -109t28.5 -134.5v-8h-587q-4 0 -4 -4v-189
q0 -6 2.5 -10.5t5.5 -9.5zM648 343q6 0 6 6v189q0 12 -10 22q-43 45 -99.5 71t-119.5 26q-66 0 -123 -27t-100 -74q-3 -5 -5.5 -10.5t-2.5 -11.5v-185q0 -6 4 -6h450z" />
    <glyph glyph-name="onethird" unicode="&#x2153;" horiz-adv-x="796" 
d="M618 615q7 9 18 9h40q10 0 12.5 -5t-3.5 -13l-488 -597q-8 -9 -18 -9h-40q-10 0 -12.5 5t3.5 13zM697 197q24 -11 37.5 -31.5t13.5 -49.5q0 -60 -38.5 -91.5t-107.5 -31.5q-82 0 -123 53q-9 10 2 21l18 17q12 10 21 -2q28 -34 83 -34q38 0 60.5 18.5t22.5 52.5
q0 54 -77 54h-17q-16 0 -14 16l4 23q2 14 16 14h15q48 0 69.5 16t21.5 48q0 23 -15.5 35.5t-44.5 12.5q-23 0 -43.5 -10t-37.5 -27q-12 -12 -21 1l-17 20q-9 11 1 21q53 50 126 50q53 0 83.5 -26t30.5 -72q0 -37 -17 -61.5t-52 -34.5v-2zM204 238q-16 0 -13 16l45 285
l-73 -49q-13 -8 -21 5l-13 21q-8 13 4 20l122 82q9 6 18 6h22q16 0 13 -16l-57 -356q-2 -14 -16 -14h-31z" />
    <glyph glyph-name="twothirds" unicode="&#x2154;" horiz-adv-x="796" 
d="M638 615q7 9 18 9h40q10 0 12.5 -5t-3.5 -13l-488 -597q-8 -9 -18 -9h-40q-10 0 -12.5 5t3.5 13zM697 197q24 -11 37.5 -31.5t13.5 -49.5q0 -60 -38.5 -91.5t-107.5 -31.5q-82 0 -123 53q-9 10 2 21l18 17q12 10 21 -2q28 -34 83 -34q38 0 60.5 18.5t22.5 52.5
q0 54 -77 54h-17q-16 0 -14 16l4 23q2 14 16 14h15q48 0 69.5 16t21.5 48q0 23 -15.5 35.5t-44.5 12.5q-23 0 -43.5 -10t-37.5 -27q-12 -12 -21 1l-17 20q-9 11 1 21q53 50 126 50q53 0 83.5 -26t30.5 -72q0 -37 -17 -61.5t-52 -34.5v-2zM284 293q16 0 13 -16l-4 -25
q-2 -14 -16 -14h-217q-16 0 -14 16l4 26q1 12 9 18l167 145q28 25 39 42.5t11 40.5t-14.5 36.5t-41.5 13.5q-23 0 -43 -12t-37 -32q-9 -12 -21 -2l-19 18q-10 10 -2 21q25 31 57.5 46.5t70.5 15.5q52 0 82 -28t30 -76q0 -18 -3.5 -33.5t-12.5 -30t-23 -29t-35 -32.5
l-128 -107v-2h148z" />
    <glyph glyph-name="oneeighth" unicode="&#x215b;" horiz-adv-x="796" 
d="M618 615q7 9 18 9h40q10 0 12.5 -5t-3.5 -13l-488 -597q-8 -9 -18 -9h-40q-10 0 -12.5 5t3.5 13zM697 195q25 -12 37.5 -33t12.5 -48q0 -56 -39.5 -88.5t-106.5 -32.5q-63 0 -97 27t-34 77q0 41 21 67.5t60 38.5v2q-42 24 -42 73q0 53 36.5 84t99.5 31q57 0 88.5 -26
t31.5 -72q0 -35 -17 -60.5t-51 -37.5v-2zM630 226q35 0 54.5 16.5t19.5 47.5q0 48 -60 48q-35 0 -54.5 -17t-19.5 -48q0 -47 60 -47zM602 48q40 0 62 19t22 53q0 26 -18.5 39.5t-51.5 13.5q-40 0 -62.5 -19t-22.5 -53q0 -26 18.5 -39.5t52.5 -13.5zM204 238q-16 0 -13 16
l45 285l-73 -49q-13 -8 -21 5l-13 21q-8 13 4 20l122 82q9 6 18 6h22q16 0 13 -16l-57 -356q-2 -14 -16 -14h-31z" />
    <glyph glyph-name="threeeighths" unicode="&#x215c;" horiz-adv-x="796" 
d="M623 615q7 9 18 9h40q10 0 12.5 -5t-3.5 -13l-488 -597q-8 -9 -18 -9h-40q-10 0 -12.5 5t3.5 13zM697 195q25 -12 37.5 -33t12.5 -48q0 -56 -39.5 -88.5t-106.5 -32.5q-63 0 -97 27t-34 77q0 41 21 67.5t60 38.5v2q-42 24 -42 73q0 53 36.5 84t99.5 31q57 0 88.5 -26
t31.5 -72q0 -35 -17 -60.5t-51 -37.5v-2zM630 226q35 0 54.5 16.5t19.5 47.5q0 48 -60 48q-35 0 -54.5 -17t-19.5 -48q0 -47 60 -47zM602 48q40 0 62 19t22 53q0 26 -18.5 39.5t-51.5 13.5q-40 0 -62.5 -19t-22.5 -53q0 -26 18.5 -39.5t52.5 -13.5zM268 435
q24 -11 37.5 -31.5t13.5 -49.5q0 -60 -38.5 -91.5t-107.5 -31.5q-42 0 -72.5 13.5t-50.5 39.5q-9 10 2 21l18 17q12 10 21 -2q28 -34 83 -34q38 0 60.5 18.5t22.5 52.5q0 54 -77 54h-17q-16 0 -14 16l4 23q2 14 16 14h15q48 0 69.5 16t21.5 48q0 23 -15.5 35.5t-44.5 12.5
q-23 0 -43.5 -10t-37.5 -27q-12 -12 -21 1l-17 20q-9 11 1 21q53 50 126 50q53 0 83.5 -26t30.5 -72q0 -37 -17 -61.5t-52 -34.5v-2z" />
    <glyph glyph-name="fiveeighths" unicode="&#x215d;" horiz-adv-x="796" 
d="M623 615q7 9 18 9h40q10 0 12.5 -5t-3.5 -13l-488 -597q-8 -9 -18 -9h-40q-10 0 -12.5 5t3.5 13zM697 195q25 -12 37.5 -33t12.5 -48q0 -56 -39.5 -88.5t-106.5 -32.5q-63 0 -97 27t-34 77q0 41 21 67.5t60 38.5v2q-42 24 -42 73q0 53 36.5 84t99.5 31q57 0 88.5 -26
t31.5 -72q0 -35 -17 -60.5t-51 -37.5v-2zM630 226q35 0 54.5 16.5t19.5 47.5q0 48 -60 48q-35 0 -54.5 -17t-19.5 -48q0 -47 60 -47zM602 48q40 0 62 19t22 53q0 26 -18.5 39.5t-51.5 13.5q-40 0 -62.5 -19t-22.5 -53q0 -26 18.5 -39.5t52.5 -13.5zM325 624q16 0 14 -16
l-4 -25q-2 -14 -16 -14h-152l-23 -98h2q30 16 67 16q49 0 79 -30.5t30 -82.5q0 -67 -41.5 -105t-112.5 -38q-40 0 -70 13.5t-50 37.5q-9 10 2 21l18 17q12 10 21 -1q29 -33 79 -33q43 0 67.5 22.5t24.5 60.5q0 30 -17.5 46.5t-47.5 16.5q-39 0 -67 -22q-9 -6 -20 -5l-18 3
q-15 2 -12 17l42 186q3 13 16 13h189z" />
    <glyph glyph-name="seveneighths" unicode="&#x215e;" horiz-adv-x="796" 
d="M583 615q7 9 18 9h40q10 0 12.5 -5t-3.5 -13l-488 -597q-8 -9 -18 -9h-40q-10 0 -12.5 5t3.5 13zM697 195q25 -12 37.5 -33t12.5 -48q0 -56 -39.5 -88.5t-106.5 -32.5q-63 0 -97 27t-34 77q0 41 21 67.5t60 38.5v2q-42 24 -42 73q0 53 36.5 84t99.5 31q57 0 88.5 -26
t31.5 -72q0 -35 -17 -60.5t-51 -37.5v-2zM630 226q35 0 54.5 16.5t19.5 47.5q0 48 -60 48q-35 0 -54.5 -17t-19.5 -48q0 -47 60 -47zM602 48q40 0 62 19t22 53q0 26 -18.5 39.5t-51.5 13.5q-40 0 -62.5 -19t-22.5 -53q0 -26 18.5 -39.5t52.5 -13.5zM361 576q-1 -5 -2 -9
t-4 -9l-198 -310q-6 -10 -18 -10h-37q-10 0 -12.5 5t2.5 13l201 313h-146l-9 -54q-2 -14 -16 -14h-28q-16 0 -13 16l15 93q2 14 16 14h241q16 0 13 -16z" />
    <glyph glyph-name="partialdiff" unicode="&#x2202;" horiz-adv-x="539" 
d="M335 676q92 0 137.5 -57.5t45.5 -165.5q0 -37 -6 -86t-20.5 -100.5t-38 -101.5t-58 -89.5t-81 -63.5t-106.5 -24q-81 0 -127.5 47t-46.5 127q0 57 19 106.5t52.5 86.5t78.5 58t97 21q51 0 86 -18.5t55 -50.5h2q3 17 5.5 44t2.5 46q0 71 -26.5 108t-86.5 37
q-29 0 -55.5 -10t-46.5 -24q-17 -12 -27 4l-20 32q-10 16 4 25q67 49 161 49zM213 64q60 0 108.5 50.5t77.5 141.5q-3 47 -31 74.5t-76 27.5q-36 0 -67 -15t-54 -41t-36.5 -61t-13.5 -75q0 -49 23.5 -75.5t68.5 -26.5z" />
    <glyph glyph-name="uni2206" unicode="&#x2206;" horiz-adv-x="581" 
d="M519 21q3 -21 -17 -21h-498q-24 0 -14 22l311 628q7 14 22 14h64q17 0 20 -17zM340 553l-227 -474h306l-77 474h-2z" />
    <glyph glyph-name="product" unicode="&#x220f;" horiz-adv-x="606" 
d="M496 -63q-3 -17 -21 -17h-51q-21 0 -18 20l102 645h-305l-102 -648q-3 -17 -21 -17h-51q-21 0 -18 20l112 707q3 17 21 17h446q21 0 18 -20z" />
    <glyph glyph-name="summation" unicode="&#x2211;" horiz-adv-x="486" 
d="M339 300q8 -14 -3 -26l-242 -275h321q21 0 18 -20l-7 -42q-3 -17 -21 -17h-415q-21 0 -18 20l7 49q1 13 11 23l250 280l-159 278q-6 12 -5 25l8 52q3 17 21 17h415q21 0 18 -20l-7 -42q-3 -17 -21 -17h-337z" />
    <glyph glyph-name="minus" unicode="&#x2212;" horiz-adv-x="529" 
d="M41 240q-21 0 -18 20l6 40q3 17 21 17h447q21 0 18 -20l-6 -40q-3 -17 -21 -17h-447z" />
    <glyph glyph-name="uni2219" unicode="&#x2219;" horiz-adv-x="233" 
d="M122 257q-23 0 -37 14t-14 37q0 26 17.5 43t42.5 17q23 0 37 -14.5t14 -36.5q0 -26 -17.5 -43t-42.5 -17z" />
    <glyph glyph-name="radical" unicode="&#x221a;" horiz-adv-x="516" 
d="M555 664q23 0 15 -22l-293 -707q-6 -15 -22 -15h-58q-16 0 -21 17l-53 256l-66 -17q-18 -5 -23 14l-6 25q-5 18 14 23l121 32q18 5 23 -14l45 -241h2l257 634q6 15 22 15h43z" />
    <glyph glyph-name="infinity" unicode="&#x221e;" horiz-adv-x="628" 
d="M477 459q59 0 92.5 -35t33.5 -96q0 -74 -41 -118.5t-110 -44.5q-45 0 -78 21t-60 69q-35 -47 -69.5 -68.5t-74.5 -21.5q-58 0 -91 34.5t-33 94.5q0 76 40.5 120.5t109.5 44.5q45 0 78 -21.5t59 -68.5q36 48 70.5 69t73.5 21zM178 230q29 0 55 18t55 58q-25 49 -46.5 68.5
t-50.5 19.5q-35 0 -57 -26.5t-22 -69.5q0 -33 17 -50.5t49 -17.5zM535 326q0 33 -17 50.5t-49 17.5q-28 0 -54 -18t-55 -58q26 -49 47.5 -68.5t49.5 -19.5q35 0 56.5 26t21.5 70z" />
    <glyph glyph-name="integral" unicode="&#x222b;" horiz-adv-x="326" 
d="M149 519q14 91 65 139t132 53q20 2 18 -19l-3 -34q-1 -17 -19 -19q-42 -6 -72 -38.5t-40 -92.5q-9 -55 -13.5 -112.5t-8.5 -117.5q-4 -63 -9 -127.5t-16 -129.5q-14 -91 -64.5 -139t-131.5 -53q-20 -2 -18 19l3 34q1 18 19 19q42 6 72 38.5t40 92.5q8 55 12.5 112
t8.5 117q5 64 9.5 128.5t15.5 129.5z" />
    <glyph glyph-name="approxequal" unicode="&#x2248;" horiz-adv-x="529" 
d="M191 388q-27 0 -50 -15.5t-47 -46.5q-12 -16 -27 -5l-27 20q-15 10 -4 27q36 53 73.5 75t82.5 22q29 0 54.5 -9t58.5 -31q27 -18 43 -24.5t36 -6.5q27 0 49.5 15.5t46.5 47.5q12 16 27 4l27 -20q15 -10 4 -27q-36 -53 -73 -75t-82 -22q-31 0 -56.5 9t-57.5 32
q-25 17 -41.5 23.5t-36.5 6.5zM155 163q-27 0 -50 -15.5t-47 -46.5q-12 -16 -27 -5l-27 20q-15 10 -4 27q36 53 73.5 75t82.5 22q29 0 54.5 -9t58.5 -31q27 -18 43 -24.5t36 -6.5q27 0 49.5 15.5t46.5 47.5q12 16 27 4l27 -20q15 -10 4 -27q-36 -53 -73 -75t-82 -22
q-31 0 -56.5 9t-57.5 32q-25 17 -41.5 23.5t-36.5 6.5z" />
    <glyph glyph-name="notequal" unicode="&#x2260;" horiz-adv-x="529" 
d="M465 205q20 0 17 -20l-6 -39q-2 -18 -20 -18h-259l-77 -106q-9 -12 -24 -12h-38q-12 0 -15.5 6.5t3.5 16.5l69 95h-76q-21 0 -18 20l6 40q3 17 21 17h123l109 148h-206q-21 0 -18 20l6 40q3 17 21 17h253l77 106q9 12 24 12h38q12 0 15.5 -6.5t-3.5 -16.5l-69 -95h82
q21 0 18 -20l-6 -40q-3 -17 -21 -17h-129l-109 -148h212z" />
    <glyph glyph-name="lessequal" unicode="&#x2264;" horiz-adv-x="529" 
d="M514 548q11 4 16.5 -0.5t3.5 -15.5l-6 -45q-2 -16 -16 -20l-349 -126v-2l305 -123q16 -6 13 -23l-7 -42q-3 -21 -23 -13l-387 164q-16 6 -13 24l6 38q3 15 16 20zM441 77q21 0 18 -20l-6 -40q-3 -17 -21 -17h-412q-21 0 -18 20l6 40q3 17 21 17h412z" />
    <glyph glyph-name="greaterequal" unicode="&#x2265;" horiz-adv-x="529" 
d="M494 386q16 -7 13 -24l-6 -38q-3 -15 -16 -20l-441 -165q-11 -4 -16.5 0.5t-3.5 15.5l6 46q1 14 16 20l350 126v2l-305 123q-16 6 -13 23l7 41q3 21 23 13zM441 77q21 0 18 -20l-6 -40q-3 -17 -21 -17h-412q-21 0 -18 20l6 40q3 17 21 17h412z" />
    <glyph glyph-name="lozenge" unicode="&#x25ca;" horiz-adv-x="515" 
d="M490 346q6 -14 -3 -26l-229 -318q-8 -12 -23 -12h-35q-16 0 -22 15l-126 313q-6 14 3 26l228 318q7 12 23 12h35q16 0 22 -15zM312 581l-177 -254l92 -245h2l178 255l-93 244h-2z" />
    <glyph glyph-name="uniE069" unicode="&#xe069;" horiz-adv-x="217" 
d="M166 587q-21 0 -34.5 13.5t-13.5 33.5q0 26 15.5 42t40.5 16q22 0 35.5 -13.5t13.5 -34.5q0 -26 -16.5 -41.5t-40.5 -15.5zM48 0q-21 0 -18 20l73 458q3 17 21 17h44q21 0 18 -20l-73 -458q-3 -17 -21 -17h-44z" />
    <glyph glyph-name="uniEF01" unicode="&#xef01;" horiz-adv-x="500" 
d="M199 -48q20 0 32.5 -13t12.5 -36q0 -32 -21.5 -62t-52.5 -43q-11 -5 -16 6l-6 14q-4 10 6 16q15 9 25 27q-15 3 -24 14t-9 28q0 23 15 36t38 13z" />
    <glyph glyph-name="uniEF02" unicode="&#xef02;" horiz-adv-x="500" 
d="M308 518q-4 -13 -18 -13h-28q-18 0 -13 18l42 162q4 15 19 15h39q19 0 14 -19z" />
    <glyph glyph-name="uniF8FF" unicode="&#xf8ff;" horiz-adv-x="1000" 
d="M439 262h-1l-17 -78h-23l28 126h27v-66h1l28 66h31l-28 -126h-24l17 78h-1l-22 -52h-16v52zM123 208q-7 -24 -25 -24h-46l28 126h43q18 0 18 -15v-3.5t-1 -6.5zM269 184l6 26h-17l-7 -26h-24l23 103q5 23 26 23h22q18 0 18 -15v-3.5t-1 -6.5l-22 -101h-24zM546 184l6 26
h-17l-7 -26h-24l23 103q5 23 26 23h22q18 0 18 -15v-3.5t-1 -6.5l-22 -101h-24zM390 233q-4 -17 -13 -20l6 -29h-23l-4 26h-13l-6 -26h-24l28 126h43q18 0 18 -15v-3.5t-1 -6.5zM833 232q-4 -22 -24 -22h-22l-6 -26h-24l28 126h43q18 0 18 -15v-3.5t-1 -6.5zM205 184h-24
l6 26h-18l-6 -26h-24l28 126h24l-18 -81h18l18 81h24zM727 310l-17 -75q-1 -6 4 -6h7q5 0 6 4l17 77h24l-17 -78q-4 -22 -24 -22l-14 -26h-24l14 26q-7 0 -12.5 3.5t-5.5 11.5q0 5 1 10l17 75h24zM897 223h-26l-4 -20h33l-5 -19h-56l28 126h57l-5 -19h-32l-11 -49h25z
M647 184h-24l24 107h-19l4 19h61l-4 -19h-18zM80 203h13q4 0 6 5l17 77q1 6 -3 6h-13zM821 285q1 6 -4 6h-12l-14 -62h13q5 0 6 4zM377 285q1 6 -4 6h-12l-14 -62h13q5 0 6 4zM557 291q-5 0 -6 -5l-13 -57h18l12 56q1 6 -4 6h-7zM280 291q-5 0 -6 -5l-13 -57h18l12 56
q1 6 -4 6h-7zM987 303h-6v25h-1l-7 -20h-4l-7 20h-1v-25h-5v30h10l5 -16h1l5 16h10v-30zM952 328h-9v-25h-6v25h-8v5h23v-5z" />
    <glyph glyph-name="zero.numr" 
d="M76 501q21 130 143 130q57 0 87.5 -28t30.5 -79v-13.5t-2 -14.5l-22 -135q-21 -130 -143 -130q-57 0 -87.5 28t-30.5 80v13.5t2 14.5zM115 366q-1 -6 -1.5 -12t-0.5 -11q0 -57 60 -57q35 0 54 20t26 61l21 130q1 6 1.5 12t0.5 11q0 56 -60 56q-36 0 -55 -20t-25 -60z" />
    <glyph glyph-name="one.numr" 
d="M204 238q-16 0 -13 16l45 285l-73 -49q-13 -8 -21 5l-13 21q-8 13 4 20l122 82q9 6 18 6h22q16 0 13 -16l-57 -356q-2 -14 -16 -14h-31z" />
    <glyph glyph-name="two.numr" 
d="M284 293q16 0 13 -16l-4 -25q-2 -14 -16 -14h-217q-16 0 -14 16l4 26q1 12 9 18l167 145q28 25 39 42.5t11 40.5t-14.5 36.5t-41.5 13.5q-23 0 -43 -12t-37 -32q-9 -12 -21 -2l-19 18q-10 10 -2 21q25 31 57.5 46.5t70.5 15.5q52 0 82 -28t30 -76q0 -18 -3.5 -33.5
t-12.5 -30t-23 -29t-35 -32.5l-128 -107v-2h148z" />
    <glyph glyph-name="three.numr" 
d="M269 435q24 -11 37.5 -31.5t13.5 -49.5q0 -60 -38.5 -91.5t-107.5 -31.5q-42 0 -72.5 13.5t-50.5 39.5q-9 10 2 21l18 17q12 10 21 -2q28 -34 83 -34q38 0 60.5 18.5t22.5 52.5q0 54 -77 54h-17q-16 0 -14 16l4 23q2 14 16 14h15q48 0 69.5 16t21.5 48q0 23 -15.5 35.5
t-44.5 12.5q-23 0 -43.5 -10t-37.5 -27q-12 -12 -21 1l-17 20q-9 11 1 21q53 50 126 50q53 0 83.5 -26t30.5 -72q0 -37 -17 -61.5t-52 -34.5v-2z" />
    <glyph glyph-name="four.numr" 
d="M318 378q16 0 14 -16l-4 -25q-2 -14 -16 -14h-32l-12 -71q-2 -14 -16 -14h-31q-16 0 -13 16l11 69h-164q-17 0 -14 16l5 32q1 9 9 18l205 227q7 8 18 8h34q16 0 13 -16l-37 -230h30zM250 529l-134 -151h111l25 151h-2z" />
    <glyph glyph-name="five.numr" 
d="M325 624q16 0 14 -16l-4 -25q-2 -14 -16 -14h-152l-23 -98h2q30 16 67 16q49 0 79 -30.5t30 -82.5q0 -67 -41.5 -105t-112.5 -38q-40 0 -70 13.5t-50 37.5q-9 10 2 21l18 17q12 10 21 -1q29 -33 79 -33q43 0 67.5 22.5t24.5 60.5q0 30 -17.5 46.5t-47.5 16.5
q-39 0 -67 -22q-9 -6 -20 -5l-18 3q-15 2 -12 17l42 186q3 13 16 13h189z" />
    <glyph glyph-name="six.numr" 
d="M139 465q29 25 77 25t76.5 -31t28.5 -82q0 -66 -38.5 -106t-104.5 -40q-56 0 -88 30t-32 81q0 6 0.5 12t1.5 12l22 135q10 63 47 96.5t97 33.5q66 0 104 -36q11 -10 0 -21l-19 -21q-10 -11 -22 0q-24 23 -60 23q-75 0 -87 -82l-5 -29h2zM201 435q-32 0 -53.5 -20
t-27.5 -55q-1 -5 -1 -15q0 -27 16 -43t45 -16q36 0 58 23.5t22 63.5q0 29 -16 45.5t-43 16.5z" />
    <glyph glyph-name="seven.numr" 
d="M361 576q-1 -5 -2 -9t-4 -9l-198 -310q-6 -10 -18 -10h-37q-10 0 -12.5 5t2.5 13l201 313h-146l-9 -54q-2 -14 -16 -14h-28q-16 0 -13 16l15 93q2 14 16 14h241q16 0 13 -16z" />
    <glyph glyph-name="eight.numr" 
d="M269 433q25 -12 37.5 -33t12.5 -48q0 -56 -39.5 -88.5t-106.5 -32.5q-63 0 -97 27t-34 77q0 41 21 67.5t60 38.5v2q-42 24 -42 73q0 53 36.5 84t99.5 31q57 0 88.5 -26t31.5 -72q0 -35 -17 -60.5t-51 -37.5v-2zM202 464q35 0 54.5 16.5t19.5 47.5q0 48 -60 48
q-35 0 -54.5 -17t-19.5 -48q0 -47 60 -47zM174 286q40 0 62 19t22 53q0 26 -18.5 39.5t-51.5 13.5q-40 0 -62.5 -19t-22.5 -53q0 -26 18.5 -39.5t52.5 -13.5z" />
    <glyph glyph-name="nine.numr" 
d="M212 631q55 0 87 -30t32 -80q0 -6 -0.5 -12t-1.5 -13l-21 -135q-10 -63 -47 -96.5t-97 -33.5q-67 0 -105 36q-11 9 -1 21l18 22q9 10 20 1q28 -25 65 -25q74 0 86 82l5 28h-2q-30 -24 -77 -24t-75.5 30t-28.5 81q0 69 39 108.5t104 39.5zM269 502q1 5 1 15q0 27 -16 43
t-44 16q-36 0 -58 -23.5t-22 -63.5q0 -29 16 -45.5t43 -16.5q34 0 54.5 20.5t25.5 54.5z" />
    <glyph glyph-name="zero.dnom" 
d="M38 263q21 130 143 130q57 0 87.5 -28t30.5 -79v-13.5t-2 -14.5l-22 -135q-21 -130 -143 -130q-57 0 -87.5 28t-30.5 80v13.5t2 14.5zM77 128q-1 -6 -1.5 -12t-0.5 -11q0 -57 60 -57q35 0 54 20t26 61l21 130q1 6 1.5 12t0.5 11q0 56 -60 56q-36 0 -55 -20t-25 -60z" />
    <glyph glyph-name="one.dnom" 
d="M166 0q-16 0 -13 16l45 285l-73 -49q-13 -8 -21 5l-13 21q-8 13 4 20l122 82q9 6 18 6h22q16 0 13 -16l-57 -356q-2 -14 -16 -14h-31z" />
    <glyph glyph-name="two.dnom" 
d="M246 55q16 0 13 -16l-4 -25q-2 -14 -16 -14h-217q-16 0 -14 16l4 26q1 12 9 18l167 145q28 25 39 42.5t11 40.5t-14.5 36.5t-41.5 13.5q-23 0 -43 -12t-37 -32q-9 -12 -21 -2l-19 18q-10 10 -2 21q25 31 57.5 46.5t70.5 15.5q52 0 82 -28t30 -76q0 -18 -3.5 -33.5
t-12.5 -30t-23 -29t-35 -32.5l-128 -107v-2h148z" />
    <glyph glyph-name="three.dnom" 
d="M231 197q24 -11 37.5 -31.5t13.5 -49.5q0 -60 -38.5 -91.5t-107.5 -31.5q-82 0 -123 53q-9 10 2 21l18 17q12 10 21 -2q28 -34 83 -34q38 0 60.5 18.5t22.5 52.5q0 54 -77 54h-17q-16 0 -14 16l4 23q2 14 16 14h15q48 0 69.5 16t21.5 48q0 23 -15.5 35.5t-44.5 12.5
q-23 0 -43.5 -10t-37.5 -27q-12 -12 -21 1l-17 20q-9 11 1 21q53 50 126 50q53 0 83.5 -26t30.5 -72q0 -37 -17 -61.5t-52 -34.5v-2z" />
    <glyph glyph-name="four.dnom" 
d="M280 140q16 0 14 -16l-4 -25q-2 -14 -16 -14h-32l-12 -71q-2 -14 -16 -14h-31q-16 0 -13 16l11 69h-164q-17 0 -14 16l5 32q1 9 9 18l205 227q7 8 18 8h34q16 0 13 -16l-37 -230h30zM212 291l-134 -151h111l25 151h-2z" />
    <glyph glyph-name="five.dnom" 
d="M287 386q16 0 14 -16l-4 -25q-2 -14 -16 -14h-152l-23 -98h2q30 16 67 16q49 0 79 -30.5t30 -82.5q0 -67 -41.5 -105t-112.5 -38q-40 0 -70 13.5t-50 37.5q-9 10 2 21l18 17q12 10 21 -1q29 -33 79 -33q43 0 67.5 22.5t24.5 60.5q0 30 -17.5 46.5t-47.5 16.5
q-39 0 -67 -22q-9 -6 -20 -5l-18 3q-15 2 -12 17l42 186q3 13 16 13h189z" />
    <glyph glyph-name="six.dnom" 
d="M101 227q29 25 77 25t76.5 -31t28.5 -82q0 -66 -38.5 -106t-104.5 -40q-56 0 -88 30t-32 81q0 6 0.5 12t1.5 12l22 135q10 63 47 96.5t97 33.5q66 0 104 -36q11 -10 0 -21l-19 -21q-10 -11 -22 0q-24 23 -60 23q-75 0 -87 -82l-5 -29h2zM163 197q-32 0 -53.5 -20
t-27.5 -55q-1 -5 -1 -15q0 -27 16 -43t45 -16q36 0 58 23.5t22 63.5q0 29 -16 45.5t-43 16.5z" />
    <glyph glyph-name="seven.dnom" 
d="M323 338q-1 -5 -2 -9t-4 -9l-198 -310q-6 -10 -18 -10h-37q-10 0 -12.5 5t2.5 13l201 313h-146l-9 -54q-2 -14 -16 -14h-28q-16 0 -13 16l15 93q2 14 16 14h241q16 0 13 -16z" />
    <glyph glyph-name="eight.dnom" 
d="M231 195q25 -12 37.5 -33t12.5 -48q0 -56 -39.5 -88.5t-106.5 -32.5q-63 0 -97 27t-34 77q0 41 21 67.5t60 38.5v2q-42 24 -42 73q0 53 36.5 84t99.5 31q57 0 88.5 -26t31.5 -72q0 -35 -17 -60.5t-51 -37.5v-2zM164 226q35 0 54.5 16.5t19.5 47.5q0 48 -60 48
q-35 0 -54.5 -17t-19.5 -48q0 -47 60 -47zM136 48q40 0 62 19t22 53q0 26 -18.5 39.5t-51.5 13.5q-40 0 -62.5 -19t-22.5 -53q0 -26 18.5 -39.5t52.5 -13.5z" />
    <glyph glyph-name="nine.dnom" 
d="M174 393q55 0 87 -30t32 -80q0 -6 -0.5 -12t-1.5 -13l-21 -135q-10 -63 -47 -96.5t-97 -33.5q-67 0 -105 36q-11 9 -1 21l18 22q9 10 20 1q28 -25 65 -25q74 0 86 82l5 28h-2q-30 -24 -77 -24t-75.5 30t-28.5 81q0 69 39 108.5t104 39.5zM231 264q1 5 1 15q0 27 -16 43
t-44 16q-36 0 -58 -23.5t-22 -63.5q0 -29 16 -45.5t43 -16.5q34 0 54.5 20.5t25.5 54.5z" />
    </font>
</defs>
</svg>
