<?xml version="1.0" standalone="no"?>
<!DOCTYPE svg PUBLIC "-//W3C//DTD SVG 1.1//EN" "http://www.w3.org/Graphics/SVG/1.1/DTD/svg11.dtd" >
<svg>
<metadata>
Created by FontForge 20120731 at Mon Jul 10 16:07:32 2017
 By www
Copyright (c) 2014 by Ryoichi Tsunekawa. All rights reserved.
</metadata>
<defs>
<font id="KiroW03-LightItalic" horiz-adv-x="330" >
  <font-face 
    font-family="KiroW03-LightItalic"
    font-weight="350"
    font-style="italic"
    font-stretch="normal"
    units-per-em="1000"
    panose-1="2 15 4 6 2 2 3 11 2 4"
    ascent="800"
    descent="-200"
    x-height="493"
    cap-height="664"
    bbox="-197.571 -181.231 1047 911"
    underline-thickness="50"
    underline-position="-75"
    slope="-9"
    unicode-range="U+0020-FB04"
  />
<missing-glyph horiz-adv-x="600" 
d="M83 0v664h462v-664h-462zM158 623l156 -248l156 248h-312zM128 585v-506l159 253zM500 79v506l-159 -253zM314 289l-156 -248h312z" />
    <glyph glyph-name="uniFB00" unicode="ff" horiz-adv-x="605" 
d="M694 690q11 -7 5 -21l-12 -21q-8 -12 -19 -6q-31 17 -72 17q-48 0 -75 -29.5t-37 -87.5l-8 -49h151q16 0 13 -16l-4 -23q-2 -14 -16 -14h-152l-68 -426q-2 -14 -16 -14h-31q-16 0 -13 16l67 424h-221l-68 -426q-2 -14 -16 -14h-31q-16 0 -13 16l67 424h-60q-16 0 -13 16
l4 23q2 14 16 14h61l6 38q13 81 61.5 126t129.5 45q42 0 77.5 -13t58.5 -34q45 57 129 57q59 0 99 -22zM424 548q2 16 5.5 29.5t8.5 26.5q-18 21 -45 33t-64 12q-54 0 -87.5 -32.5t-42.5 -91.5l-5 -32h221z" />
    <glyph glyph-name="uniFB01" unicode="fi" horiz-adv-x="507" 
d="M458 493q16 0 13 -16l-73 -463q-2 -14 -16 -14h-31q-16 0 -13 16l67 424h-219l-68 -426q-2 -14 -16 -14h-31q-16 0 -13 16l67 424h-60q-16 0 -13 16l4 23q2 14 16 14h61l9 55q13 80 59 122t125 42q40 0 70.5 -10t54.5 -28q11 -9 2 -21l-15 -19q-9 -11 -21 -2
q-17 14 -39 20.5t-53 6.5q-54 0 -84 -30t-39 -87l-8 -49h264z" />
    <glyph glyph-name="uniFB02" unicode="fl" horiz-adv-x="517" 
d="M501 700q16 0 13 -16l-106 -670q-2 -14 -16 -14h-31q-16 0 -13 16l95 598q-17 19 -46.5 32t-67.5 13q-54 0 -86 -32.5t-42 -91.5l-7 -42h138q16 0 13 -16l-4 -23q-2 -14 -16 -14h-139l-68 -426q-2 -14 -16 -14h-31q-16 0 -13 16l67 424h-60q-16 0 -13 16l4 23q2 14 16 14
h61l8 48q13 81 60.5 126t128.5 45q38 0 69 -9.5t54 -24.5l1 8q2 14 16 14h31z" />
    <glyph glyph-name="uniFB03" unicode="ffi" horiz-adv-x="788" 
d="M740 493q16 0 13 -16l-73 -463q-2 -14 -16 -14h-31q-16 0 -13 16l67 424h-219l-68 -426q-2 -14 -16 -14h-31q-16 0 -13 16l67 424h-221l-68 -426q-2 -14 -16 -14h-31q-16 0 -13 16l67 424h-60q-16 0 -13 16l4 23q2 14 16 14h61l6 38q13 81 61.5 126t129.5 45
q43 0 78.5 -13.5t59.5 -34.5q47 58 140 58q40 0 70.5 -10t54.5 -28q11 -9 2 -21l-15 -19q-9 -11 -21 -2q-17 14 -39 20.5t-53 6.5q-54 0 -84 -30t-39 -87l-8 -49h264zM424 548q5 31 15 56q-18 21 -45 33t-65 12q-54 0 -87.5 -32.5t-42.5 -91.5l-5 -32h221z" />
    <glyph glyph-name="uniFB04" unicode="ffl" horiz-adv-x="798" 
d="M783 700q16 0 13 -16l-106 -670q-2 -14 -16 -14h-31q-16 0 -13 16l95 598q-17 19 -46.5 32t-67.5 13q-54 0 -86 -32.5t-42 -91.5l-7 -42h138q16 0 13 -16l-4 -23q-2 -14 -16 -14h-139l-68 -426q-2 -14 -16 -14h-31q-16 0 -13 16l67 424h-221l-68 -426q-2 -14 -16 -14h-31
q-16 0 -13 16l67 424h-60q-16 0 -13 16l4 23q2 14 16 14h61l6 38q13 81 61.5 126t129.5 45q43 0 79.5 -14t59.5 -35q50 59 143 59q38 0 69 -9.5t54 -24.5l1 8q2 14 16 14h31zM423 541q3 17 7 32.5t10 29.5q-18 21 -45.5 33.5t-65.5 12.5q-54 0 -87.5 -32.5t-42.5 -91.5
l-5 -32h221z" />
    <glyph glyph-name="f_b.liga" unicode="fb" horiz-adv-x="803" 
d="M443 614q-17 19 -46.5 32t-67.5 13q-54 0 -86 -32.5t-42 -91.5l-7 -42h138q16 0 13 -16l-4 -23q-2 -14 -16 -14h-139l-68 -426q-2 -14 -16 -14h-31q-16 0 -13 16l67 424h-60q-16 0 -13 16l4 23q2 14 16 14h61l8 48q13 81 60.5 126t128.5 45q38 0 69 -9.5t54 -24.5l1 8
q2 14 16 14h31q16 0 13 -16l-38 -239h1q45 60 133 60q75 0 115 -37t40 -107q0 -11 -1 -22t-3 -23l-23 -142q-29 -186 -204 -186q-80 0 -122.5 37.5t-42.5 108.5q0 11 1 22t3 22zM700 309q3 22 3 41q0 53 -26 77.5t-80 24.5q-121 0 -143 -144l-19 -124q-3 -23 -3 -41
q0 -53 26 -77.5t79 -24.5q63 0 97 35t46 109z" />
    <glyph glyph-name="f_f_b.liga" unicode="ffb" horiz-adv-x="1085" 
d="M736 686q2 14 16 14h31q16 0 13 -16l-38 -239h1q45 60 133 60q75 0 115 -37t40 -107q0 -11 -1 -22t-3 -23l-23 -142q-29 -186 -204 -186q-80 0 -122.5 37.5t-42.5 108.5q0 11 1 22t3 22l70 436q-17 19 -46.5 32t-67.5 13q-54 0 -86 -32.5t-42 -91.5l-7 -42h138
q16 0 13 -16l-4 -23q-2 -14 -16 -14h-139l-68 -426q-2 -14 -16 -14h-31q-16 0 -13 16l67 424h-221l-68 -426q-2 -14 -16 -14h-31q-16 0 -13 16l67 424h-60q-16 0 -13 16l4 23q2 14 16 14h61l6 38q13 81 61.5 126t129.5 45q43 0 79.5 -14t59.5 -35q50 59 143 59q38 0 69 -9.5
t54 -24.5zM423 541q3 17 7 32.5t10 29.5q-18 21 -45.5 33.5t-65.5 12.5q-54 0 -87.5 -32.5t-42.5 -91.5l-5 -32h221zM982 309q3 22 3 41q0 53 -26 77.5t-80 24.5q-121 0 -143 -144l-19 -124q-3 -23 -3 -41q0 -53 26 -77.5t79 -24.5q63 0 97 35t46 109z" />
    <glyph glyph-name="f_h.liga" unicode="fh" horiz-adv-x="811" 
d="M443 614q-17 19 -46.5 32t-67.5 13q-54 0 -86 -32.5t-42 -91.5l-7 -42h138q16 0 13 -16l-4 -23q-2 -14 -16 -14h-139l-68 -426q-2 -14 -16 -14h-31q-16 0 -13 16l67 424h-60q-16 0 -13 16l4 23q2 14 16 14h61l8 48q13 81 60.5 126t128.5 45q38 0 69 -9.5t54 -24.5l1 8
q2 14 16 14h31q16 0 13 -16l-37 -237h1q44 58 131 58q73 0 112 -36t39 -105q0 -11 -1 -22t-3 -23l-49 -305q-2 -14 -16 -14h-31q-16 0 -13 16l47 297q3 22 3 41q0 98 -103 98q-60 0 -93.5 -35t-44.5 -105l-48 -298q-2 -14 -16 -14h-31q-16 0 -13 16z" />
    <glyph glyph-name="f_f_h.liga" unicode="ffh" horiz-adv-x="1093" 
d="M736 686q2 14 16 14h31q16 0 13 -16l-37 -237h1q44 58 131 58q73 0 112 -36t39 -105q0 -11 -1 -22t-3 -23l-49 -305q-2 -14 -16 -14h-31q-16 0 -13 16l47 297q3 22 3 41q0 98 -103 98q-60 0 -93.5 -35t-44.5 -105l-48 -298q-2 -14 -16 -14h-31q-16 0 -13 16l95 598
q-17 19 -46.5 32t-67.5 13q-54 0 -86 -32.5t-42 -91.5l-7 -42h138q16 0 13 -16l-4 -23q-2 -14 -16 -14h-139l-68 -426q-2 -14 -16 -14h-31q-16 0 -13 16l67 424h-221l-68 -426q-2 -14 -16 -14h-31q-16 0 -13 16l67 424h-60q-16 0 -13 16l4 23q2 14 16 14h61l6 38
q13 81 61.5 126t129.5 45q43 0 79.5 -14t59.5 -35q50 59 143 59q38 0 69 -9.5t54 -24.5zM423 541q3 17 7 32.5t10 29.5q-18 21 -45.5 33.5t-65.5 12.5q-54 0 -87.5 -32.5t-42.5 -91.5l-5 -32h221z" />
    <glyph glyph-name="f_j.liga" unicode="fj" horiz-adv-x="507" 
d="M458 493q16 0 13 -16l-79 -501q-22 -136 -150 -136h-9q-17 0 -14 16l4 23q3 14 16 14q79 0 92 84l74 463h-219l-68 -426q-2 -14 -16 -14h-31q-16 0 -13 16l67 424h-60q-16 0 -13 16l4 23q2 14 16 14h61l9 55q13 80 59 122t125 42q40 0 70.5 -10t54.5 -28q11 -9 2 -21
l-15 -19q-9 -11 -21 -2q-17 14 -39 20.5t-53 6.5q-54 0 -84 -30t-39 -87l-8 -49h264z" />
    <glyph glyph-name="f_f_j.liga" unicode="ffj" horiz-adv-x="788" 
d="M740 493q16 0 13 -16l-79 -501q-22 -136 -150 -136h-9q-17 0 -14 16l4 23q3 14 16 14q79 0 92 84l74 463h-219l-68 -426q-2 -14 -16 -14h-31q-16 0 -13 16l67 424h-221l-68 -426q-2 -14 -16 -14h-31q-16 0 -13 16l67 424h-60q-16 0 -13 16l4 23q2 14 16 14h61l6 38
q13 81 61.5 126t129.5 45q43 0 78.5 -13.5t59.5 -34.5q47 58 140 58q40 0 70.5 -10t54.5 -28q11 -9 2 -21l-15 -19q-9 -11 -21 -2q-17 14 -39 20.5t-53 6.5q-54 0 -84 -30t-39 -87l-8 -49h264zM424 548q5 31 15 56q-18 21 -45 33t-65 12q-54 0 -87.5 -32.5t-42.5 -91.5
l-5 -32h221z" />
    <glyph glyph-name="f_k.liga" unicode="fk" horiz-adv-x="747" 
d="M443 614q-17 19 -46.5 32t-67.5 13q-54 0 -86 -32.5t-42 -91.5l-7 -42h138q16 0 13 -16l-4 -23q-2 -14 -16 -14h-139l-68 -426q-2 -14 -16 -14h-31q-16 0 -13 16l67 424h-60q-16 0 -13 16l4 23q2 14 16 14h61l8 48q13 81 60.5 126t128.5 45q38 0 69 -9.5t54 -24.5l1 8
q2 14 16 14h31q16 0 13 -16l-64 -409l231 211q8 7 19 7h42q11 0 13.5 -5.5t-5.5 -12.5l-247 -223l184 -234q5 -8 2.5 -13t-11.5 -5h-40q-11 0 -18 9l-176 229l-36 -224q-2 -14 -16 -14h-31q-16 0 -13 16l95 598v0z" />
    <glyph glyph-name="f_f_k.liga" unicode="ffk" horiz-adv-x="1029" 
d="M736 686q2 14 16 14h31q16 0 13 -16l-64 -409l231 211q8 7 19 7h42q11 0 13.5 -5.5t-5.5 -12.5l-247 -223l184 -234q5 -8 2.5 -13t-11.5 -5h-40q-11 0 -18 9l-176 229l-36 -224q-2 -14 -16 -14h-31q-16 0 -13 16l95 598q-17 19 -46.5 32t-67.5 13q-54 0 -86 -32.5
t-42 -91.5l-7 -42h138q16 0 13 -16l-4 -23q-2 -14 -16 -14h-139l-68 -426q-2 -14 -16 -14h-31q-16 0 -13 16l67 424h-221l-68 -426q-2 -14 -16 -14h-31q-16 0 -13 16l67 424h-60q-16 0 -13 16l4 23q2 14 16 14h61l6 38q13 81 61.5 126t129.5 45q43 0 79.5 -14t59.5 -35
q50 59 143 59q38 0 69 -9.5t54 -24.5zM423 541q3 17 7 32.5t10 29.5q-18 21 -45.5 33.5t-65.5 12.5q-54 0 -87.5 -32.5t-42.5 -91.5l-5 -32h221z" />
    <glyph glyph-name="f_t.liga" unicode="ft" horiz-adv-x="632" 
d="M418 140q-1 -7 -1.5 -13.5t-0.5 -12.5q0 -73 78 -73q30 0 56 17q15 9 21 -6l9 -21q5 -14 -6 -21q-37 -22 -89 -22q-63 0 -97 30t-34 87q0 16 3 34l47 301h-218l-68 -426q-2 -14 -16 -14h-31q-16 0 -13 16l67 424h-60q-16 0 -13 16l4 23q2 14 16 14h61l9 55
q13 80 58.5 122t121.5 42q38 0 67.5 -9t49.5 -25q12 -8 2 -21l-15 -19q-9 -11 -21 -2q-15 11 -35 17t-48 6q-52 0 -81.5 -30t-38.5 -87l-8 -49h219l14 90q2 14 16 14h31q16 0 14 -16l-14 -88h151q16 0 14 -16l-4 -23q-2 -14 -16 -14h-154z" />
    <glyph glyph-name="f_f_t.liga" unicode="fft" horiz-adv-x="914" 
d="M907 493q16 0 14 -16l-4 -23q-2 -14 -16 -14h-154l-47 -300q-1 -7 -1.5 -13.5t-0.5 -12.5q0 -73 78 -73q30 0 56 17q15 9 21 -6l9 -21q5 -14 -6 -21q-37 -22 -89 -22q-63 0 -97 30t-34 87q0 16 3 34l47 301h-218l-68 -426q-2 -14 -16 -14h-31q-16 0 -13 16l67 424h-221
l-68 -426q-2 -14 -16 -14h-31q-16 0 -13 16l67 424h-60q-16 0 -13 16l4 23q2 14 16 14h61l6 38q13 81 61.5 126t129.5 45q42 0 78 -13.5t60 -34.5q47 58 136 58q38 0 67.5 -9t49.5 -25q12 -8 2 -21l-15 -19q-9 -11 -21 -2q-15 11 -35 17t-48 6q-52 0 -81.5 -30t-38.5 -87
l-8 -49h219l14 90q2 14 16 14h31q16 0 14 -16l-14 -88h151zM424 548q5 31 15 56q-18 21 -45 33t-65 12q-54 0 -87.5 -32.5t-42.5 -91.5l-5 -32h221z" />
    <glyph glyph-name=".notdef" horiz-adv-x="600" 
d="M83 0v664h462v-664h-462zM158 623l156 -248l156 248h-312zM128 585v-506l159 253zM500 79v506l-159 -253zM314 289l-156 -248h312z" />
    <glyph glyph-name=".null" horiz-adv-x="0" 
 />
    <glyph glyph-name="nonmarkingreturn" horiz-adv-x="333" 
 />
    <glyph glyph-name="space" unicode=" " horiz-adv-x="215" 
 />
    <glyph glyph-name="exclam" unicode="!" horiz-adv-x="222" 
d="M119 176q-2 -9 -11 -9h-16q-11 0 -9 11l17 191l45 281q2 14 16 14h31q16 0 13 -16l-44 -279zM73 -12q-18 0 -29.5 11.5t-11.5 29.5q0 20 14.5 34t34.5 14q18 0 29.5 -11.5t11.5 -28.5q0 -21 -14 -35t-35 -14z" />
    <glyph glyph-name="quotedbl" unicode="&#x22;" horiz-adv-x="354" 
d="M154 460q-2 -11 -13 -11h-17q-14 0 -12 13l20 188q2 14 16 14h31q17 0 14 -16zM309 460q-2 -11 -13 -11h-17q-14 0 -12 13l20 188q2 14 16 14h31q17 0 14 -16z" />
    <glyph glyph-name="numbersign" unicode="#" horiz-adv-x="529" 
d="M456 244q17 0 12 -16l-8 -23q-5 -11 -16 -11h-90l-61 -183q-3 -11 -16 -11h-24q-17 0 -12 15l60 179h-134l-61 -183q-3 -11 -16 -11h-24q-17 0 -12 15l60 179h-86q-17 0 -12 16l8 23q5 11 16 11h91l52 156h-86q-17 0 -12 16l7 22q4 12 16 12h92l54 162q3 12 16 12h23
q16 0 12 -15l-53 -159h135l54 162q3 12 16 12h23q16 0 12 -15l-53 -159h86q17 0 12 -16l-8 -23q-5 -11 -16 -11h-91l-52 -156h86zM183 244h135l52 156h-135z" />
    <glyph glyph-name="dollar" unicode="$" horiz-adv-x="529" 
d="M311 335q84 -10 120.5 -42t36.5 -92q0 -42 -14.5 -76t-42 -59t-66 -40t-86.5 -17l-10 -67q-2 -12 -14 -12h-29q-14 0 -12 14l11 65q-60 5 -101.5 28t-69.5 66q-8 12 5 20l24 17q12 9 21 -5q40 -64 129 -71l36 223q-86 11 -122 43t-36 92q0 42 14.5 76t42 59t66.5 39.5
t87 17.5l9 62q1 12 14 12h29q14 0 12 -14l-10 -60q100 -9 144 -81q7 -12 -4 -20l-25 -17q-12 -9 -21 5q-32 51 -102 58zM154 431q0 -38 24 -59t79 -29l35 217q-64 -6 -101 -40.5t-37 -88.5zM406 193q0 38 -24.5 58t-79.5 28l-34 -215q64 6 101 40.5t37 88.5z" />
    <glyph glyph-name="percent" unicode="%" horiz-adv-x="626" 
d="M76 516q20 120 130 120q51 0 79 -25.5t28 -73.5q0 -6 -0.5 -12.5t-1.5 -13.5l-12 -77q-20 -121 -130 -121q-51 0 -79.5 25t-28.5 73v13.5t2 14.5zM112 438q-1 -7 -1.5 -13.5t-0.5 -11.5q0 -29 14.5 -42t45.5 -13q38 0 56 19t25 62l12 73q1 7 1.5 13t0.5 11q0 29 -15 42
t-46 13q-38 0 -56 -19t-25 -62zM348 191q20 120 130 120q51 0 79 -25.5t28 -73.5q0 -6 -0.5 -12.5t-1.5 -13.5l-12 -77q-20 -121 -130 -121q-51 0 -79.5 25t-28.5 73v13.5t2 14.5zM384 113q-1 -7 -1.5 -13.5t-0.5 -11.5q0 -29 14.5 -42t45.5 -13q38 0 56 19t25 62l12 73
q1 7 1.5 13t0.5 11q0 29 -15 42t-46 13q-38 0 -56 -19t-25 -62zM541 616q7 8 17 8h29q9 0 11 -4.5t-3 -11.5l-490 -600q-5 -8 -16 -8h-29q-9 0 -11 4.5t3 11.5z" />
    <glyph glyph-name="ampersand" unicode="&#x26;" horiz-adv-x="583" 
d="M545 316q14 -6 8 -20q-47 -111 -100 -181l76 -97q5 -8 2.5 -13t-11.5 -5h-43q-11 0 -18 9l-47 60q-84 -81 -202 -81q-87 0 -136.5 45.5t-49.5 122.5q0 72 35 126t113 100q-34 56 -34 111q0 85 52.5 134t145.5 49q41 0 76.5 -12t59.5 -34q10 -9 0 -21l-17 -20
q-10 -11 -22 0q-35 32 -97 32q-63 0 -99.5 -34t-36.5 -91q0 -29 11.5 -57.5t36.5 -60.5l169 -216q23 31 43.5 69t39.5 86q7 15 20 9zM219 43q86 0 158 72l-174 222q-60 -35 -88 -78.5t-28 -97.5t34.5 -86t97.5 -32z" />
    <glyph glyph-name="quotesingle" unicode="'" horiz-adv-x="199" 
d="M154 460q-2 -11 -13 -11h-17q-14 0 -12 13l20 188q2 14 16 14h31q17 0 14 -16z" />
    <glyph glyph-name="parenleft" unicode="(" horiz-adv-x="320" 
d="M144 186q0 -69 15.5 -134.5t49.5 -125.5q8 -16 -10 -16h-27q-11 0 -17 9q-36 60 -54 129t-18 141q0 53 9.5 112t31.5 119.5t58 120t89 115.5q7 8 18 8h27q9 0 9 -7.5t-8 -17.5q-48 -57 -81 -116.5t-53.5 -118t-29.5 -114t-9 -104.5z" />
    <glyph glyph-name="parenright" unicode=")" horiz-adv-x="320" 
d="M190 388q0 69 -15.5 134.5t-49.5 125.5q-8 16 10 16h27q11 0 17 -9q36 -60 54 -129t18 -141q0 -53 -9.5 -112t-31.5 -119.5t-58 -120.5t-89 -115q-7 -8 -18 -8h-27q-9 0 -9 7.5t8 17.5q48 57 81 116t53.5 117.5t29.5 114.5t9 105z" />
    <glyph glyph-name="asterisk" unicode="*" horiz-adv-x="475" 
d="M408 341q10 -11 -3 -21l-22 -15q-13 -9 -21 4l-87 149l-102 -149q-9 -13 -21 -4l-20 15q-11 9 -2 21l120 137l-168 44q-14 4 -10 19l9 24q5 14 19 8l162 -64l-1 176q0 15 15 15h26q16 0 14 -16l-21 -174l165 63q15 6 20 -9l7 -23q4 -14 -11 -19l-174 -45z" />
    <glyph glyph-name="plus" unicode="+" horiz-adv-x="529" 
d="M261 50q-2 -14 -16 -14h-26q-16 0 -13 16l31 199h-199q-16 0 -13 16l4 26q2 14 16 14h201l32 201q2 14 16 14h26q16 0 13 -16l-31 -199h199q16 0 13 -16l-4 -26q-2 -14 -16 -14h-201z" />
    <glyph glyph-name="comma" unicode="," horiz-adv-x="220" 
d="M80 77q17 0 28.5 -10.5t11.5 -30.5q0 -29 -20.5 -68t-61.5 -70q-8 -6 -14 2l-9 11q-6 8 2 14q17 14 28.5 30.5t18.5 39.5q-31 7 -31 38q0 20 13.5 32t33.5 12z" />
    <glyph glyph-name="hyphen" unicode="-" 
d="M46 242q-16 0 -14 16l5 29q2 14 16 14h240q16 0 13 -16l-5 -29q-2 -14 -16 -14h-239z" />
    <glyph glyph-name="period" unicode="." horiz-adv-x="220" 
d="M73 -12q-18 0 -29.5 11.5t-11.5 29.5q0 20 14.5 34t34.5 14q18 0 29.5 -11.5t11.5 -28.5q0 -21 -14 -35t-35 -14z" />
    <glyph glyph-name="slash" unicode="/" horiz-adv-x="351" 
d="M330 654q4 10 16 10h29q18 0 10 -17l-337 -637q-4 -10 -16 -10h-29q-19 0 -10 17z" />
    <glyph glyph-name="zero" unicode="0" horiz-adv-x="529" 
d="M317 636q91 0 139.5 -43t48.5 -124q0 -12 -1 -24.5t-3 -26.5l-34 -216q-33 -214 -234 -214q-91 0 -139.5 43t-48.5 124q0 12 1 24.5t3 26.5l34 217q33 213 234 213zM437 414q4 23 4 46q0 121 -127 121q-75 0 -115.5 -41.5t-54.5 -126.5l-32 -203q-2 -13 -3 -24.5
t-1 -22.5q0 -120 128 -120q75 0 115 41.5t54 127.5z" />
    <glyph glyph-name="one" unicode="1" horiz-adv-x="529" 
d="M286 0q-16 0 -13 16l83 524l-166 -110q-13 -9 -21 4l-12 21q-7 13 5 21l212 141q10 7 20 7h22q16 0 13 -16l-94 -594q-2 -14 -16 -14h-33z" />
    <glyph glyph-name="two" unicode="2" horiz-adv-x="529" 
d="M504 480q0 -32 -7 -57.5t-22 -50t-39.5 -49t-59.5 -54.5l-252 -213v-1h300q16 0 14 -16l-4 -25q-2 -14 -16 -14h-372q-16 0 -14 16l4 26q1 12 9 18l297 254q28 24 47 43.5t30.5 38.5t16.5 38.5t5 42.5q0 50 -31.5 77t-87.5 27q-51 0 -93 -24t-72 -66q-9 -12 -21 -3
l-19 16q-11 9 -3 21q40 54 95.5 82.5t119.5 28.5q81 0 128 -42t47 -114z" />
    <glyph glyph-name="three" unicode="3" horiz-adv-x="529" 
d="M508 487q0 -128 -124 -162v-1q45 -15 69.5 -49t24.5 -85q0 -96 -63.5 -149t-178.5 -53q-141 0 -199 91q-7 11 4 21l20 15q14 9 22 -3q46 -69 155 -69q86 0 131.5 39.5t45.5 109.5q0 54 -37.5 80t-109.5 26h-50q-16 0 -14 16l4 25q2 14 16 14h45q176 0 176 128
q0 48 -33 74t-93 26q-51 0 -91.5 -19t-73.5 -55q-11 -12 -21 0l-17 19q-11 11 0 22q42 45 95.5 66.5t115.5 21.5q85 0 133 -39.5t48 -109.5z" />
    <glyph glyph-name="four" unicode="4" horiz-adv-x="529" 
d="M342 0q-16 0 -13 16l20 131h-309q-16 0 -13 16l5 33q3 11 9 17l377 403q8 8 18 8h36q16 0 13 -16l-64 -406h61q16 0 13 -16l-4 -25q-2 -14 -16 -14h-63l-21 -133q-2 -14 -16 -14h-33zM409 524h-1l-299 -322h249z" />
    <glyph glyph-name="five" unicode="5" horiz-adv-x="529" 
d="M158 356q59 41 141 41q39 0 72 -12.5t57 -36t37 -56.5t13 -73q0 -53 -17 -95.5t-49 -72.5t-77 -46.5t-102 -16.5q-140 0 -199 91q-7 11 4 21l20 15q13 10 22 -3q46 -69 156 -69q82 0 130 46.5t48 125.5q0 60 -35.5 93.5t-95.5 33.5q-88 0 -149 -52q-7 -7 -19 -6l-18 3
q-15 2 -12 17l69 307q3 13 16 13h324q17 0 14 -16l-5 -25q-2 -14 -16 -14h-283l-47 -213h1z" />
    <glyph glyph-name="six" unicode="6" horiz-adv-x="529" 
d="M305 399q78 0 125 -48t47 -129q0 -53 -16.5 -96t-47.5 -74t-74.5 -47.5t-97.5 -16.5q-43 0 -77.5 12t-59 34.5t-37.5 54t-13 70.5q0 19 3 40l37 230q16 99 77 153t159 54q57 0 100 -18.5t71 -52.5q9 -10 -2 -21l-21 -19q-12 -9 -21 2q-45 54 -128 54q-75 0 -118.5 -42
t-55.5 -121l-14 -88h1q28 33 69.5 51t93.5 18zM246 43q78 0 122.5 47.5t44.5 126.5q0 60 -33 93.5t-90 33.5q-66 0 -112.5 -41t-57.5 -110q-3 -17 -3 -31q0 -56 34.5 -87.5t94.5 -31.5z" />
    <glyph glyph-name="seven" unicode="7" horiz-adv-x="529" 
d="M550 575q-1 -10 -7 -18l-367 -547q-6 -10 -18 -10h-39q-9 0 -12 5t2 13l372 551h-315l-15 -97q-2 -14 -16 -14h-30q-16 0 -13 16l22 136q2 14 16 14h412q16 0 13 -16z" />
    <glyph glyph-name="eight" unicode="8" horiz-adv-x="529" 
d="M506 487q0 -63 -32 -104.5t-91 -58.5v-1q45 -18 68.5 -52.5t23.5 -82.5q0 -96 -63.5 -148t-175.5 -52q-99 0 -153 43t-54 120q0 70 37 116t105 63v1q-37 17 -57.5 48t-20.5 73t15.5 76t44.5 58t70 37t92 13q91 0 141 -39.5t50 -109.5zM443 481q0 48 -33.5 74t-97.5 26
q-72 0 -114 -35.5t-42 -95.5q0 -46 33.5 -71.5t97.5 -25.5q73 0 114.5 34t41.5 94zM412 191q0 51 -37.5 79t-107.5 28q-81 0 -128 -37.5t-47 -105.5q0 -54 37.5 -83t108.5 -29q82 0 128 39.5t46 108.5z" />
    <glyph glyph-name="nine" unicode="9" horiz-adv-x="529" 
d="M309 636q87 0 137 -46.5t50 -124.5q0 -19 -3 -40l-37 -229q-16 -99 -77.5 -153.5t-158.5 -54.5q-57 0 -100 18.5t-72 52.5q-9 11 1 21l20 20q11 11 21 -2q23 -28 54.5 -41.5t75.5 -13.5q75 0 118.5 43t56.5 122l14 86h-1q-28 -33 -69.5 -51t-93.5 -18q-78 0 -125 47.5
t-47 128.5q0 53 16.5 96.5t47.5 74t74.5 47.5t97.5 17zM259 280q66 0 113 41t59 110q3 16 3 30q0 57 -35 88.5t-95 31.5q-80 0 -123.5 -47.5t-43.5 -126.5q0 -60 32.5 -93.5t89.5 -33.5z" />
    <glyph glyph-name="colon" unicode=":" horiz-adv-x="220" 
d="M73 -12q-18 0 -29.5 11.5t-11.5 29.5q0 20 14.5 34t34.5 14q18 0 29.5 -11.5t11.5 -28.5q0 -21 -14 -35t-35 -14zM135 378q-18 0 -29.5 11.5t-11.5 29.5q0 20 14.5 34t34.5 14q18 0 29.5 -11.5t11.5 -28.5q0 -21 -14 -35t-35 -14z" />
    <glyph glyph-name="semicolon" unicode=";" horiz-adv-x="220" 
d="M80 77q17 0 28.5 -10.5t11.5 -30.5q0 -29 -20.5 -68t-61.5 -70q-8 -6 -14 2l-9 11q-6 8 2 14q17 14 28.5 30.5t18.5 39.5q-31 7 -31 38q0 20 13.5 32t33.5 12zM135 378q-18 0 -29.5 11.5t-11.5 29.5q0 20 14.5 34t34.5 14q18 0 29.5 -11.5t11.5 -28.5q0 -21 -14 -35
t-35 -14z" />
    <glyph glyph-name="less" unicode="&#x3c;" horiz-adv-x="529" 
d="M453 107q11 -6 10 -19l-4 -27q-3 -18 -19 -10l-387 196q-10 6 -9 19l3 27q1 11 13 17l451 197q8 4 13 0t3 -13l-4 -30q-1 -11 -13 -17l-395 -171z" />
    <glyph glyph-name="equal" unicode="=" horiz-adv-x="529" 
d="M73 363q-16 0 -14 16l4 26q2 14 16 14h423q16 0 13 -16l-4 -26q-2 -14 -16 -14h-422zM37 139q-16 0 -13 16l4 26q2 14 16 14h423q16 0 13 -16l-4 -26q-2 -14 -16 -14h-423z" />
    <glyph glyph-name="greater" unicode="&#x3e;" horiz-adv-x="529" 
d="M490 265q-1 -11 -13 -17l-450 -196q-8 -4 -13 -0.5t-3 12.5l4 30q1 11 13 17l395 171l-338 169q-11 6 -10 19l4 27q3 18 19 10l386 -196q11 -6 10 -19z" />
    <glyph glyph-name="question" unicode="?" horiz-adv-x="450" 
d="M292 676q81 0 128 -42t47 -114q0 -33 -6.5 -60t-22 -50t-41.5 -43.5t-64 -40.5q-30 -16 -50 -30.5t-33.5 -29.5t-20 -31t-9.5 -35l-3 -19q-2 -14 -16 -14h-27q-16 0 -14 16l4 26q4 25 12.5 46.5t23.5 40.5t38 36.5t55 35.5q31 17 52.5 33.5t34.5 34t18.5 37.5t5.5 44
q0 49 -31 76.5t-87 27.5q-48 0 -91 -23.5t-75 -68.5q-9 -12 -21 -3l-20 18q-11 9 -2 21q41 54 96 82.5t119 28.5zM162 -12q-18 0 -29.5 11.5t-11.5 29.5q0 20 14.5 34t34.5 14q18 0 29.5 -11.5t11.5 -28.5q0 -21 -14 -35t-35 -14z" />
    <glyph glyph-name="at" unicode="@" horiz-adv-x="728" 
d="M442 676q64 0 112 -20t80.5 -57t48.5 -88t16 -113q0 -39 -7 -90t-25.5 -96.5t-50.5 -76.5t-83 -31q-35 0 -54.5 17t-24.5 45h-1q-20 -30 -52 -45.5t-70 -15.5q-54 0 -83 25.5t-29 72.5q0 60 38 94.5t113 34.5h91q2 15 3 25.5t1 19.5q0 40 -19 57.5t-59 17.5
q-23 0 -45.5 -9.5t-39.5 -24.5q-11 -9 -18 1l-11 15q-8 11 2 19q27 23 56.5 32.5t61.5 9.5q61 0 92 -29t31 -83q0 -17 -3 -36l-20 -123q-1 -6 -1.5 -11.5t-0.5 -10.5q0 -26 11.5 -40.5t34.5 -14.5q35 0 57.5 29.5t35 70t17 83.5t4.5 70q0 52 -13 95t-39.5 73.5t-66.5 47.5
t-94 17q-68 0 -119.5 -20.5t-89 -54.5t-63 -77.5t-40.5 -89.5t-21.5 -91.5t-6.5 -82.5q0 -121 65 -185.5t187 -64.5q53 0 98 13.5t81 36.5q12 8 17 -4l8 -19q5 -11 -5 -17q-42 -26 -94 -39.5t-109 -13.5q-143 0 -220 77t-77 216q0 44 8 95t26.5 102t48 98.5t73.5 83.5
t102.5 58t134.5 22zM340 148q38 0 68.5 25t39.5 81l6 35h-83q-49 0 -76 -21t-27 -63q0 -57 72 -57z" />
    <glyph glyph-name="A" unicode="A" horiz-adv-x="581" 
d="M60 11q-4 -11 -17 -11h-38q-19 0 -11 18l322 635q5 11 18 11h43q14 0 17 -13l121 -635q3 -16 -14 -16h-34q-14 0 -16 14l-24 130h-300zM155 201h261l-71 385h-1z" />
    <glyph glyph-name="B" unicode="B" horiz-adv-x="563" 
d="M413 337q99 -29 99 -135q0 -105 -60.5 -153.5t-189.5 -48.5h-201q-16 0 -13 16l100 634q2 14 16 14h181q100 0 149.5 -35.5t49.5 -111.5q0 -72 -32.5 -118t-98.5 -61v-1zM478 507q0 52 -34 76t-105 24h-133l-38 -241h131q93 0 136 34t43 107zM447 205q0 54 -34 79
t-104 25h-150l-40 -252h149q93 0 136 36t43 112z" />
    <glyph glyph-name="C" unicode="C" horiz-adv-x="531" 
d="M124 238q-2 -16 -3.5 -30t-1.5 -28q0 -135 139 -135q57 0 98 24t70 71q8 13 21 5l25 -16q12 -7 4 -21q-40 -62 -94 -91t-129 -29q-98 0 -149.5 46.5t-51.5 137.5q0 14 1.5 28t3.5 30l33 208q36 238 259 238q154 0 196 -123q5 -14 -9 -19l-28 -11q-13 -6 -19 9
q-16 42 -51 64.5t-92 22.5q-83 0 -130 -48t-63 -146z" />
    <glyph glyph-name="D" unicode="D" horiz-adv-x="590" 
d="M361 664q101 0 153 -44t52 -131q0 -13 -1.5 -26.5t-3.5 -27.5l-34 -210q-18 -113 -82.5 -169t-182.5 -56h-201q-16 0 -13 16l100 634q2 14 16 14h197zM495 427q2 14 3.5 26.5t1.5 24.5q0 129 -147 129h-147l-87 -550h145q88 0 136.5 44.5t63.5 137.5z" />
    <glyph glyph-name="E" unicode="E" horiz-adv-x="538" 
d="M451 364q16 0 13 -16l-4 -27q-2 -14 -16 -14h-285l-40 -250h327q16 0 13 -16l-4 -27q-2 -14 -16 -14h-378q-16 0 -13 16l100 634q2 14 16 14h378q16 0 14 -16l-4 -27q-2 -14 -16 -14h-330l-38 -243h283z" />
    <glyph glyph-name="F" unicode="F" horiz-adv-x="502" 
d="M441 360q16 0 13 -16l-5 -27q-2 -14 -16 -14h-275l-46 -289q-2 -14 -16 -14h-35q-16 0 -13 16l100 634q2 14 16 14h368q16 0 14 -16l-4 -27q-2 -14 -16 -14h-320l-39 -247h274z" />
    <glyph glyph-name="G" unicode="G" horiz-adv-x="569" 
d="M517 228q-19 -119 -82 -179.5t-177 -60.5q-100 0 -153 47.5t-53 138.5q0 13 1.5 27t3.5 29l33 208q36 238 263 238q77 0 128.5 -31t73.5 -92q5 -14 -9 -20l-27 -11q-13 -6 -19 9q-36 88 -151 88q-85 0 -132.5 -48t-63.5 -147l-29 -185q-2 -15 -3.5 -29t-1.5 -27
q0 -71 36 -104.5t108 -33.5q86 0 132 48.5t62 148.5l8 47h-144q-16 0 -13 16l4 27q2 14 16 14h192q16 0 13 -16z" />
    <glyph glyph-name="H" unicode="H" horiz-adv-x="623" 
d="M503 14q-2 -14 -16 -14h-35q-16 0 -13 16l46 292h-326l-47 -294q-2 -14 -16 -14h-35q-16 0 -13 16l100 634q2 14 16 14h35q16 0 13 -16l-44 -283h326l45 285q2 14 16 14h35q16 0 13 -16z" />
    <glyph glyph-name="I" unicode="I" horiz-adv-x="233" 
d="M112 14q-2 -14 -16 -14h-35q-16 0 -13 16l100 634q2 14 16 14h35q16 0 13 -16z" />
    <glyph glyph-name="J" unicode="J" horiz-adv-x="518" 
d="M442 217q-35 -229 -244 -229q-142 0 -194 111q-6 13 6 20l25 16q14 8 21 -6q43 -84 143 -84q78 0 122 45.5t58 139.5l66 420q2 14 16 14h35q16 0 13 -16z" />
    <glyph glyph-name="K" unicode="K" horiz-adv-x="550" 
d="M423 0q-11 0 -18 9l-244 311l-49 -306q-2 -14 -16 -14h-35q-16 0 -13 16l100 634q2 14 16 14h35q16 0 13 -16l-45 -287l325 296q8 7 19 7h47q11 0 13.5 -5.5t-5.5 -12.5l-342 -310l252 -318q6 -8 3.5 -13t-11.5 -5h-45z" />
    <glyph glyph-name="L" unicode="L" horiz-adv-x="497" 
d="M440 14q-2 -14 -16 -14h-363q-16 0 -13 16l100 634q2 14 16 14h35q16 0 13 -16l-93 -591h312q17 0 14 -16z" />
    <glyph glyph-name="M" unicode="M" horiz-adv-x="814" 
d="M642 0q-16 0 -13 16l89 562h-1l-318 -568q-6 -10 -18 -10h-26q-13 0 -16 13l-139 565h-1l-89 -564q-2 -14 -16 -14h-33q-16 0 -13 16l100 634q2 14 16 14h65q13 0 16 -13l136 -558l308 560q5 11 18 11h73q16 0 13 -16l-100 -634q-2 -14 -16 -14h-35z" />
    <glyph glyph-name="N" unicode="N" horiz-adv-x="623" 
d="M449 0q-14 0 -18 12l-233 552h-1l-87 -550q-2 -14 -16 -14h-33q-16 0 -13 16l100 634q2 14 16 14h43q13 0 18 -12l229 -543h1l86 541q2 14 16 14h33q16 0 13 -16l-100 -634q-2 -14 -16 -14h-38z" />
    <glyph glyph-name="O" unicode="O" horiz-adv-x="585" 
d="M350 676q102 0 156 -47.5t54 -138.5q0 -14 -1.5 -27.5t-3.5 -28.5l-33 -208q-36 -238 -260 -238q-102 0 -156 47.5t-54 138.5q0 14 1.5 27.5t3.5 28.5l33 208q36 238 260 238zM488 426q2 15 3.5 28.5t1.5 26.5q0 71 -36.5 104.5t-108.5 33.5q-86 0 -133 -48t-62 -146
l-29 -187q-2 -15 -3.5 -28.5t-1.5 -26.5q0 -138 146 -138q85 0 131.5 48t62.5 146z" />
    <glyph glyph-name="P" unicode="P" horiz-adv-x="541" 
d="M348 664q101 0 152 -40.5t51 -125.5q0 -119 -63 -174.5t-199 -55.5h-137l-40 -254q-2 -14 -16 -14h-35q-16 0 -13 16l100 634q2 14 16 14h184zM486 493q0 59 -36 86.5t-108 27.5h-136l-45 -282h134q99 0 145 40.5t46 127.5z" />
    <glyph glyph-name="Q" unicode="Q" horiz-adv-x="585" 
d="M350 676q102 0 156 -47.5t54 -138.5q0 -14 -1.5 -27.5t-3.5 -28.5l-33 -208q-32 -209 -207 -234q-1 -6 -1.5 -11.5t-0.5 -10.5q0 -70 71 -70q20 0 39.5 7t36.5 18q14 10 21 -5l12 -26q6 -13 -5 -20q-23 -16 -50.5 -23.5t-55.5 -7.5q-64 0 -99 32t-35 94v9.5t1 9.5
q-95 3 -146 51t-51 136q0 13 1.5 27t3.5 28l33 208q36 238 260 238zM488 426q2 15 3.5 28.5t1.5 26.5q0 71 -36.5 104.5t-108.5 33.5q-86 0 -133 -48t-62 -146l-29 -187q-2 -15 -3.5 -28.5t-1.5 -26.5q0 -138 146 -138q85 0 131.5 48t62.5 146z" />
    <glyph glyph-name="R" unicode="R" horiz-adv-x="567" 
d="M482 18q8 -18 -12 -18h-39q-12 0 -17 11l-119 261h-142l-41 -258q-2 -14 -16 -14h-35q-16 0 -13 16l100 634q2 14 16 14h178q101 0 152.5 -40.5t51.5 -124.5q0 -99 -45 -153.5t-142 -68.5zM480 492q0 60 -35.5 87.5t-108.5 27.5h-130l-44 -278h128q98 0 144 39t46 124z
" />
    <glyph glyph-name="S" unicode="S" horiz-adv-x="507" 
d="M322 676q135 0 188 -87q8 -12 -5 -20l-26 -18q-12 -9 -21 5q-41 63 -139 63q-39 0 -70.5 -11t-54 -30.5t-35 -46.5t-12.5 -60q0 -23 7 -40t24 -30.5t45 -23t69 -17.5q50 -9 84 -22.5t55 -32t30 -44t9 -59.5q0 -49 -17 -88.5t-48 -67.5t-75 -43t-99 -15q-154 0 -215 100
q-7 11 4 21l25 19q13 10 21 -4q50 -79 169 -79q78 0 124.5 40t46.5 108q0 22 -7 39.5t-24 30.5t-45 22.5t-69 17.5q-50 9 -84 22.5t-55 32.5t-30.5 44.5t-9.5 59.5q0 49 17 88.5t48.5 67.5t75.5 43t99 15z" />
    <glyph glyph-name="T" unicode="T" horiz-adv-x="484" 
d="M238 14q-2 -14 -16 -14h-35q-16 0 -13 16l93 591h-175q-16 0 -13 16l4 27q2 14 16 14h416q16 0 13 -16l-4 -27q-2 -14 -16 -14h-176z" />
    <glyph glyph-name="U" unicode="U" horiz-adv-x="588" 
d="M512 217q-35 -229 -249 -229q-96 0 -147.5 46t-51.5 134q0 13 1.5 26.5t3.5 27.5l67 428q2 14 16 14h35q16 0 13 -16l-66 -420q-2 -14 -3 -27t-1 -24q0 -68 34 -100t103 -32q81 0 124.5 45.5t58.5 139.5l67 420q2 14 16 14h33q16 0 13 -16z" />
    <glyph glyph-name="V" unicode="V" horiz-adv-x="563" 
d="M282 11q-4 -11 -17 -11h-42q-14 0 -16 14l-114 634q-3 16 14 16h36q13 0 16 -14l97 -557h1l275 560q5 11 17 11h37q19 0 11 -18z" />
    <glyph glyph-name="W" unicode="W" horiz-adv-x="850" 
d="M608 11q-5 -11 -17 -11h-45q-14 0 -16 14l-60 518h-1l-224 -521q-5 -11 -17 -11h-44q-14 0 -16 14l-74 634q-2 16 14 16h39q14 0 16 -14l56 -542h1l234 545q5 11 17 11h33q14 0 16 -14l61 -541h1l232 544q5 11 17 11h40q19 0 11 -18z" />
    <glyph glyph-name="X" unicode="X" horiz-adv-x="557" 
d="M427 0q-12 0 -17 11l-123 278l-212 -280q-8 -9 -18 -9h-43q-10 0 -12.5 5t3.5 13l250 323l-140 305q-8 18 11 18h41q12 0 17 -11l115 -261l199 263q7 9 18 9h44q9 0 12 -5t-3 -13l-238 -306l148 -322q8 -18 -11 -18h-41z" />
    <glyph glyph-name="Y" unicode="Y" horiz-adv-x="521" 
d="M255 14q-2 -14 -16 -14h-35q-16 0 -13 16l44 284l-157 346q-8 18 11 18h41q12 0 17 -11l129 -293l223 295q7 9 18 9h44q10 0 12.5 -5t-3.5 -13l-270 -348z" />
    <glyph glyph-name="Z" unicode="Z" horiz-adv-x="518" 
d="M432 57q16 0 13 -16l-4 -27q-2 -14 -16 -14h-408q-16 0 -14 16l5 34q2 5 3 9t5 9l436 539h-324q-16 0 -13 16l4 27q2 14 16 14h388q16 0 13 -16l-5 -34q-2 -5 -3 -9t-5 -9l-437 -539h346z" />
    <glyph glyph-name="bracketleft" unicode="[" horiz-adv-x="320" 
d="M217 -40q14 0 13 -15l-3 -22q-1 -13 -15 -13h-157q-15 0 -13 15l115 726q1 13 15 13h157q15 0 13 -15l-4 -22q-1 -13 -15 -13h-111l-103 -654h108z" />
    <glyph glyph-name="backslash" unicode="\" horiz-adv-x="351" 
d="M132 664q13 0 16 -12l138 -637q3 -15 -13 -15h-26q-13 0 -16 12l-138 637q-3 15 13 15h26z" />
    <glyph glyph-name="bracketright" unicode="]" horiz-adv-x="320" 
d="M176 -77q-1 -13 -15 -13h-156q-15 0 -13 15l3 22q1 13 15 13h112l103 654h-109q-15 0 -13 15l4 22q1 13 15 13h156q15 0 13 -15z" />
    <glyph glyph-name="asciicircum" unicode="^" horiz-adv-x="529" 
d="M93 267q-8 -9 -18 -9h-34q-10 0 -12.5 5t3.5 13l259 339q7 9 18 9h29q12 0 17 -11l151 -337q8 -18 -11 -18h-30q-12 0 -17 11l-130 293z" />
    <glyph glyph-name="underscore" unicode="_" horiz-adv-x="500" 
d="M-54 -99l6 38h500l-6 -38h-500z" />
    <glyph glyph-name="grave" unicode="`" horiz-adv-x="500" 
d="M295 567q-11 0 -15 9l-68 122q-9 17 10 17h34q12 0 16 -10l60 -123q7 -15 -10 -15h-27z" />
    <glyph glyph-name="a" unicode="a" horiz-adv-x="454" 
d="M250 505q80 0 122.5 -38.5t42.5 -111.5q0 -11 -1 -22t-3 -23l-22 -138q-14 -93 -65 -138.5t-143 -45.5q-76 0 -117 34.5t-41 97.5q0 79 51 122.5t148 43.5h124l3 20q2 11 3 22t1 20q0 54 -28 79t-83 25q-32 0 -60 -13t-51 -33q-12 -10 -21 2l-15 20q-9 13 3 22
q35 29 72.5 42t79.5 13zM223 235q-67 0 -103 -28t-36 -83q0 -40 26.5 -61.5t75.5 -21.5q65 0 99 35t45 109l8 50h-115z" />
    <glyph glyph-name="b" unicode="b" horiz-adv-x="487" 
d="M294 505q75 0 115 -37t40 -107q0 -11 -1 -22t-3 -23l-23 -142q-29 -186 -204 -186q-80 0 -122.5 37.5t-42.5 108.5q0 11 1 22t3 22l81 508q2 14 16 14h31q16 0 13 -16l-38 -239h1q45 60 133 60zM384 309q3 22 3 41q0 53 -26 77.5t-80 24.5q-121 0 -143 -144l-19 -124
q-3 -23 -3 -41q0 -53 26 -77.5t79 -24.5q63 0 97 35t46 109z" />
    <glyph glyph-name="c" unicode="c" horiz-adv-x="409" 
d="M269 505q45 0 78 -12.5t56 -35.5q10 -12 0 -22l-17 -17q-11 -11 -21 0q-18 18 -41 26t-55 8q-64 0 -99 -35.5t-47 -111.5l-19 -118q-3 -21 -3 -40q0 -55 28 -80.5t84 -25.5q31 0 55.5 11t46.5 32q12 12 22 -1l14 -18q9 -11 -1 -21q-62 -56 -145 -56q-79 0 -122.5 38
t-43.5 112q0 21 4 44l21 135q29 188 205 188z" />
    <glyph glyph-name="d" unicode="d" horiz-adv-x="487" 
d="M408 174q-29 -186 -204 -186q-80 0 -122.5 37.5t-42.5 108.5q0 11 1 22t3 22l22 142q29 185 199 185q95 0 124 -66h1l40 247q2 14 16 14h31q16 0 13 -16zM207 41q63 0 97 35t46 109l19 124q3 22 3 41q0 102 -104 102q-63 0 -97.5 -35t-46.5 -109l-20 -124q-3 -23 -3 -41
q0 -53 26 -77.5t80 -24.5z" />
    <glyph glyph-name="e" unicode="e" horiz-adv-x="454" 
d="M266 505q78 0 120 -37t42 -109q0 -10 -1 -21t-3 -22l-12 -75q-2 -14 -16 -14h-285l-6 -40q-4 -23 -4 -42q0 -54 29.5 -79t89.5 -25q33 0 60 12.5t54 38.5q11 12 21 -1l14 -19q9 -11 -1 -21q-64 -63 -153 -63q-85 0 -130.5 37.5t-45.5 111.5q0 11 1 22t3 22l22 139
q15 92 64 138.5t137 46.5zM365 309q2 12 3 22.5t1 20.5q0 52 -26 76t-79 24q-62 0 -96 -34.5t-44 -109.5l-4 -30h240z" />
    <glyph glyph-name="f" unicode="f" horiz-adv-x="323" 
d="M314 659q-48 0 -75 -29.5t-37 -87.5l-8 -49h151q16 0 13 -16l-4 -23q-2 -14 -16 -14h-152l-68 -426q-2 -14 -16 -14h-31q-16 0 -13 16l67 424h-60q-16 0 -13 16l4 23q2 14 16 14h61l9 55q13 81 55.5 122.5t115.5 41.5q59 0 99 -22q11 -7 5 -21l-12 -21q-8 -12 -19 -6
q-31 17 -72 17z" />
    <glyph glyph-name="g" unicode="g" horiz-adv-x="487" 
d="M270 505q80 0 122.5 -37.5t42.5 -109.5q0 -11 -1 -21t-3 -22l-50 -316q-13 -81 -64.5 -126t-136.5 -45q-51 0 -91.5 14.5t-67.5 43.5q-10 10 0 21l15 19q10 13 22 1q45 -46 122 -46q61 0 96.5 33.5t45.5 94.5l8 53h-1q-44 -60 -132 -60q-75 0 -115.5 36.5t-40.5 107.5
q0 11 1 22.5t3 23.5l20 128q15 92 65 138.5t140 46.5zM209 55q119 0 142 145l18 110q3 22 3 41q0 101 -105 101q-63 0 -97 -35t-46 -109l-17 -110q-3 -23 -3 -41q0 -53 26 -77.5t79 -24.5z" />
    <glyph glyph-name="h" unicode="h" horiz-adv-x="500" 
d="M298 505q73 0 112 -36t39 -105q0 -11 -1 -22t-3 -23l-49 -305q-2 -14 -16 -14h-31q-16 0 -13 16l47 297q3 22 3 41q0 98 -103 98q-60 0 -93.5 -35t-44.5 -105l-48 -298q-2 -14 -16 -14h-31q-16 0 -13 16l106 670q2 14 16 14h31q16 0 13 -16l-37 -237h1q44 58 131 58z" />
    <glyph glyph-name="i" unicode="i" horiz-adv-x="207" 
d="M161 593q-17 0 -27.5 10.5t-10.5 27.5q0 21 13 33.5t32 12.5q17 0 28 -10.5t11 -26.5q0 -20 -13 -33.5t-33 -13.5zM50 0q-16 0 -13 16l73 463q2 14 16 14h31q16 0 13 -16l-73 -463q-2 -14 -16 -14h-31z" />
    <glyph glyph-name="j" unicode="j" horiz-adv-x="206" 
d="M161 593q-17 0 -27.5 10.5t-10.5 27.5q0 21 13 33.5t32 12.5q17 0 28 -10.5t11 -26.5q0 -20 -13 -33.5t-33 -13.5zM-62 -107q79 0 92 84l80 502q2 14 16 14h31q16 0 13 -16l-79 -501q-22 -136 -150 -136h-9q-17 0 -14 16l4 23q3 14 16 14z" />
    <glyph glyph-name="k" unicode="k" horiz-adv-x="436" 
d="M327 0q-11 0 -18 9l-176 229l-36 -224q-2 -14 -16 -14h-31q-16 0 -13 16l106 670q2 14 16 14h31q16 0 13 -16l-64 -409l231 211q8 7 19 7h42q11 0 13.5 -5.5t-5.5 -12.5l-247 -223l184 -234q5 -8 2.5 -13t-11.5 -5h-40z" />
    <glyph glyph-name="l" unicode="l" horiz-adv-x="207" 
d="M50 0q-16 0 -13 16l106 670q2 14 16 14h31q16 0 13 -16l-106 -670q-2 -14 -16 -14h-31z" />
    <glyph glyph-name="m" unicode="m" horiz-adv-x="758" 
d="M555 505q73 0 112.5 -36t39.5 -105q0 -21 -4 -44l-49 -306q-2 -14 -16 -14h-31q-16 0 -13 16l47 299q2 12 3 22t1 19q0 50 -24 73t-72 23q-57 0 -87.5 -33.5t-41.5 -104.5l-47 -300q-2 -14 -16 -14h-31q-16 0 -13 16l47 299q2 12 3 22t1 20q0 95 -97 95
q-57 0 -87.5 -33.5t-41.5 -104.5l-47 -300q-2 -14 -16 -14h-31q-16 0 -13 16l49 309q14 90 60.5 135t127.5 45q107 0 137 -76h1q43 76 149 76z" />
    <glyph glyph-name="n" unicode="n" horiz-adv-x="494" 
d="M377 313q4 23 4 42q0 51 -26 74t-78 23q-61 0 -94 -34t-44 -106l-48 -298q-2 -14 -16 -14h-31q-16 0 -13 16l49 308q14 91 63.5 136t137.5 45q78 0 120 -36.5t42 -106.5q0 -10 -1 -21t-3 -22l-48 -305q-2 -14 -16 -14h-31q-16 0 -13 16z" />
    <glyph glyph-name="o" unicode="o" horiz-adv-x="473" 
d="M270 505q80 0 122.5 -37t42.5 -109q0 -11 -1 -21t-3 -22l-23 -143q-29 -185 -204 -185q-80 0 -123 37t-43 109q0 10 1 21t3 22l23 143q15 92 65 138.5t140 46.5zM368 309q2 12 3 22.5t1 20.5q0 100 -105 100q-64 0 -97.5 -35t-45.5 -109l-20 -124q-3 -23 -3 -41
q0 -53 26 -77.5t80 -24.5q63 0 96.5 35t45.5 109z" />
    <glyph glyph-name="p" unicode="p" horiz-adv-x="487" 
d="M284 505q80 0 122.5 -37.5t42.5 -109.5q0 -11 -1 -21t-3 -22l-23 -142q-29 -185 -197 -185q-96 0 -126 68h-1l-32 -202q-2 -14 -16 -14h-31q-16 0 -13 16l73 464q29 185 205 185zM384 310q3 22 3 41q0 101 -106 101q-63 0 -97.5 -35t-45.5 -109l-20 -124q-3 -21 -3 -39
q0 -104 106 -104q64 0 97 35t45 110z" />
    <glyph glyph-name="q" unicode="q" horiz-adv-x="487" 
d="M270 505q80 0 122.5 -37.5t42.5 -109.5q0 -11 -1 -21t-3 -22l-73 -461q-2 -14 -16 -14h-31q-16 0 -14 16l30 191h-1q-44 -59 -132 -59q-76 0 -116 36.5t-40 107.5q0 11 1 22.5t3 23.5l23 142q15 92 65 138.5t140 46.5zM207 41q119 0 142 145l20 124q3 22 3 41
q0 101 -105 101q-64 0 -97.5 -35t-45.5 -109l-20 -124q-3 -23 -3 -41q0 -53 26 -77.5t80 -24.5z" />
    <glyph glyph-name="r" unicode="r" horiz-adv-x="363" 
d="M81 332q14 87 58 130t123 43q66 0 110 -33q12 -9 2 -22l-15 -19q-9 -12 -21 -2q-15 12 -34.5 17.5t-40.5 5.5q-54 0 -82.5 -30.5t-39.5 -96.5l-50 -311q-2 -14 -16 -14h-31q-16 0 -13 16z" />
    <glyph glyph-name="s" unicode="s" horiz-adv-x="412" 
d="M368 153q0 -77 -51 -121t-140 -44q-115 0 -168 62q-9 11 1 21l18 19q10 11 21 -1q43 -48 129 -48q60 0 94.5 28t34.5 76q0 34 -24 51.5t-87 27.5q-78 12 -108.5 39.5t-30.5 78.5q0 75 53 119t143 44q42 0 77.5 -11.5t59.5 -32.5q11 -11 1 -22l-17 -19q-9 -12 -21 -1
q-36 33 -101 33q-63 0 -98.5 -27t-35.5 -75q0 -31 22.5 -47.5t83.5 -25.5q80 -12 112 -41t32 -83z" />
    <glyph glyph-name="t" unicode="t" horiz-adv-x="352" 
d="M138 140q-1 -7 -1.5 -13.5t-0.5 -12.5q0 -73 78 -73q30 0 56 17q15 9 21 -6l9 -21q5 -14 -6 -21q-37 -22 -89 -22q-63 0 -97 30t-34 87q0 16 3 34l47 301h-59q-16 0 -13 16l4 23q2 14 16 14h61l19 120q2 14 16 14h31q16 0 13 -16l-18 -118h151q16 0 13 -16l-4 -23
q-2 -14 -16 -14h-153z" />
    <glyph glyph-name="u" unicode="u" horiz-adv-x="488" 
d="M409 166q-27 -178 -197 -178q-78 0 -119 36.5t-41 106.5q0 19 3 40l50 308q2 14 16 14h31q16 0 13 -16l-47 -301q-4 -23 -4 -40q0 -95 101 -95q61 0 93.5 33t43.5 103l48 302q2 14 16 14h29q16 0 13 -16z" />
    <glyph glyph-name="v" unicode="v" horiz-adv-x="447" 
d="M223 11q-6 -11 -18 -11h-38q-14 0 -17 13l-91 464q-3 16 14 16h33q13 0 16 -14l72 -404h1l204 407q5 11 17 11h35q9 0 12.5 -5t-1.5 -13z" />
    <glyph glyph-name="w" unicode="w" horiz-adv-x="683" 
d="M431 0q-14 0 -16 14l-49 372h-1l-170 -375q-5 -11 -17 -11h-37q-14 0 -16 14l-65 463q-2 16 14 16h33q14 0 16 -14l48 -388h1l177 391q5 11 17 11h28q14 0 16 -14l51 -386h1l173 389q5 11 17 11h34q19 0 11 -18l-213 -464q-5 -11 -17 -11h-36z" />
    <glyph glyph-name="x" unicode="x" horiz-adv-x="455" 
d="M383 18q8 -18 -11 -18h-35q-13 0 -17 11l-96 204l-161 -206q-8 -9 -18 -9h-37q-10 0 -12.5 5t3.5 13l192 238l-107 219q-8 18 11 18h35q13 0 17 -11l87 -187l149 189q7 9 18 9h35q10 0 12.5 -5t-3.5 -13l-179 -221z" />
    <glyph glyph-name="y" unicode="y" horiz-adv-x="500" 
d="M451 493q16 0 13 -16l-76 -478q-13 -81 -64.5 -126t-136.5 -45q-51 0 -91.5 14.5t-67.5 43.5q-10 10 0 21l15 19q10 13 22 1q45 -46 123 -46q60 0 96 33.5t45 94.5l8 50h-1q-44 -57 -131 -57q-73 0 -112 36t-39 105q0 11 1 22t3 23l47 291q2 14 16 14h31q16 0 13 -16
l-45 -283q-3 -23 -3 -40q0 -51 26 -75t77 -24q60 0 94 35t45 105l45 284q2 14 16 14h31z" />
    <glyph glyph-name="z" unicode="z" horiz-adv-x="422" 
d="M338 53q16 0 14 -16l-4 -23q-2 -14 -16 -14h-318q-16 0 -13 16l5 30q1 10 8 18l323 376h-238q-16 0 -13 16l4 23q2 14 16 14h297q16 0 13 -16l-5 -30q-1 -10 -8 -18l-323 -376h258z" />
    <glyph glyph-name="braceleft" unicode="{" 
d="M331 614q-48 0 -72 -21t-32 -72l-20 -121q-8 -50 -28.5 -77.5t-57.5 -36.5v-1q54 -15 54 -77q0 -16 -3 -32l-20 -122q-2 -8 -2 -15v-14q0 -35 18 -50t60 -15q13 0 12 -15l-3 -22q-1 -13 -15 -13h-11q-123 0 -123 100q0 15 3 35l20 127q3 16 3 30q0 32 -14.5 46t-40.5 14
q-14 0 -11 15l4 22q3 13 15 13q34 0 53 20t27 68l20 128q11 74 49 105t115 31h8q14 0 13 -13l-4 -24q-2 -13 -16 -13h-1z" />
    <glyph glyph-name="bar" unicode="|" horiz-adv-x="264" 
d="M58 -160q-15 0 -13 15l132 832q1 13 15 13h23q15 0 13 -15l-132 -832q-1 -13 -15 -13h-23z" />
    <glyph glyph-name="braceright" unicode="}" 
d="M12 -40q48 0 72 21t32 72l20 121q8 50 28.5 77.5t57.5 36.5v1q-54 15 -54 77q0 15 3 32l20 122q2 8 2 15v14q0 35 -18 50t-60 15q-14 0 -12 15l3 22q1 13 15 13h11q123 0 123 -100q0 -16 -3 -35l-20 -127q-3 -17 -3 -30q0 -32 14.5 -46t40.5 -14q14 0 11 -15l-4 -22
q-3 -13 -15 -13q-34 0 -53 -20t-27 -68l-20 -128q-11 -74 -49 -105t-115 -31h-8q-14 0 -13 13l4 24q2 13 16 13h1z" />
    <glyph glyph-name="asciitilde" unicode="~" horiz-adv-x="529" 
d="M170 288q-30 0 -54.5 -16t-53.5 -54q-9 -12 -21 -2l-18 14q-11 9 -2 21q35 48 70.5 70.5t78.5 22.5q30 0 55.5 -9t59.5 -33q26 -19 45 -26.5t39 -7.5q29 0 54.5 16t52.5 53q9 13 21 4l19 -15q12 -9 3 -21q-37 -49 -72.5 -71t-77.5 -22q-31 0 -56.5 9t-58.5 32
q-28 20 -45.5 27.5t-38.5 7.5z" />
    <glyph glyph-name="uni00A0" unicode="&#xa0;" horiz-adv-x="215" 
 />
    <glyph glyph-name="exclamdown" unicode="&#xa1;" horiz-adv-x="222" 
d="M58 0q-16 0 -13 16l44 279l42 193q1 9 11 9h15q12 0 10 -11l-18 -191l-44 -281q-2 -14 -16 -14h-31zM176 676q18 0 29.5 -11.5t11.5 -29.5q0 -20 -14.5 -34t-34.5 -14q-18 0 -29.5 11.5t-11.5 28.5q0 21 14 35t35 14z" />
    <glyph glyph-name="cent" unicode="&#xa2;" horiz-adv-x="529" 
d="M372 521q69 -9 108 -49q9 -11 0 -20l-18 -19q-11 -11 -23 1q-26 27 -75 33l-64 -403q29 4 51 15t42 31q11 11 21 -2l15 -20q9 -11 -2 -21q-29 -26 -61.5 -40t-74.5 -18l-10 -67q-2 -12 -14 -12h-29q-14 0 -12 14l10 65q-75 7 -114 46.5t-39 109.5q0 11 1 22t3 23l19 118
q15 95 66.5 143.5t145.5 51.5l9 61q1 12 14 12h29q14 0 12 -14zM149 215q-3 -23 -3 -41q0 -99 99 -109l64 403q-65 -5 -98.5 -42t-45.5 -111z" />
    <glyph glyph-name="sterling" unicode="&#xa3;" horiz-adv-x="529" 
d="M341 636q63 0 109.5 -21t72.5 -62q8 -12 -5 -20l-23 -16q-12 -8 -21 5q-19 29 -54 44t-80 15q-74 0 -117 -42.5t-43 -115.5q0 -15 2 -29t10 -44q2 -8 4.5 -16.5t4.5 -17.5h196q16 0 13 -16l-4 -24q-2 -14 -16 -14h-182q1 -5 1 -9v-9q0 -59 -22 -102.5t-64 -85.5v-1h298
q16 0 13 -16l-4 -25q-2 -14 -16 -14h-355q-16 0 -14 16l4 27q1 10 10 17q50 46 71.5 88.5t21.5 96.5v8.5t-1 8.5h-67q-16 0 -13 16l4 24q2 14 16 14h50q-1 6 -3 12t-4 13q-9 28 -12 46.5t-3 38.5q0 48 15.5 87t44.5 66t70 42t92 15z" />
    <glyph glyph-name="currency" unicode="&#xa4;" horiz-adv-x="529" 
d="M453 326q0 -38 -13 -71t-36 -59l55 -64q9 -9 -1 -19l-19 -18q-11 -9 -20 2l-56 65q-46 -29 -104 -29q-32 0 -60 10t-49 27l-86 -75q-9 -9 -19 1l-16 18q-9 11 2 20l86 75q-20 35 -20 81q0 79 48 133l-55 64q-9 9 1 19l19 18q11 9 20 -2l56 -64q47 30 104 30q65 0 110 -39
l85 75q9 9 19 -1l16 -18q9 -9 -2 -19l-86 -76q21 -36 21 -84zM146 295q0 -51 32 -82.5t83 -31.5q30 0 56 11t45.5 30t30.5 45.5t11 56.5q0 51 -32.5 83t-83.5 32q-29 0 -55 -11t-45.5 -30.5t-30.5 -46t-11 -56.5z" />
    <glyph glyph-name="yen" unicode="&#xa5;" horiz-adv-x="529" 
d="M461 318q14 0 12 -14l-4 -24q-2 -12 -14 -12h-156l-13 -86h152q14 0 12 -14l-4 -24q-2 -12 -14 -12h-154l-19 -118q-2 -14 -16 -14h-33q-16 0 -13 16l18 116h-156q-14 0 -12 14l4 24q1 12 14 12h158l14 86h-155q-14 0 -12 14l4 24q1 12 14 12h152l-141 288q-8 18 11 18
h37q13 0 17 -11l117 -253l199 255q7 9 18 9h40q10 0 12.5 -5t-3.5 -13l-232 -288h146z" />
    <glyph glyph-name="brokenbar" unicode="&#xa6;" horiz-adv-x="264" 
d="M138 350q-15 0 -13 15l52 322q1 13 15 13h23q15 0 13 -15l-52 -322q-1 -13 -15 -13h-23zM58 -160q-15 0 -13 15l51 322q1 13 15 13h23q15 0 13 -15l-51 -322q-1 -13 -15 -13h-23z" />
    <glyph glyph-name="section" unicode="&#xa7;" horiz-adv-x="556" 
d="M524 636q9 -13 -4 -21l-21 -15q-12 -9 -21 4q-39 55 -138 55q-36 0 -66.5 -9.5t-52.5 -27t-34 -41.5t-12 -53q0 -20 7 -34.5t24.5 -25t46 -18t70.5 -12.5q101 -11 142.5 -42.5t41.5 -90.5q0 -65 -34 -110.5t-98 -68.5v-1q32 -12 52.5 -35t20.5 -68q0 -44 -16.5 -80
t-46.5 -61.5t-72 -39t-93 -13.5q-148 0 -207 89q-8 13 5 21l20 14q13 9 21 -3q48 -69 164 -69q75 0 120.5 36.5t45.5 95.5q0 37 -31.5 57t-114.5 30q-52 6 -87.5 17t-57.5 27.5t-32 39.5t-10 53q0 63 32.5 108.5t94.5 68.5v1q-29 11 -48 35t-19 67q0 45 16 81t46 61.5
t72 39.5t94 14q128 0 180 -76zM448 290q0 22 -8 38t-28 28t-55 20.5t-90 15.5q-33 -4 -60.5 -16t-48 -30.5t-31.5 -43t-11 -53.5q0 -23 8.5 -40t28 -29.5t52.5 -20.5t82 -13q35 3 64.5 14.5t51 30.5t33.5 44t12 55z" />
    <glyph glyph-name="dieresis" unicode="&#xa8;" horiz-adv-x="500" 
d="M228 595q-17 0 -27 10t-10 26q0 19 12 31.5t31 12.5q17 0 27.5 -10t10.5 -26q0 -19 -12.5 -31.5t-31.5 -12.5zM388 595q-17 0 -27 10t-10 26q0 19 12 31.5t31 12.5q17 0 27.5 -10t10.5 -26q0 -19 -12.5 -31.5t-31.5 -12.5z" />
    <glyph glyph-name="copyright" unicode="&#xa9;" horiz-adv-x="771" 
d="M440 676q67 0 123.5 -22.5t97 -62t63 -94.5t22.5 -120q0 -80 -30.5 -150.5t-83.5 -123.5t-123.5 -84t-149.5 -31q-68 0 -124 22.5t-96.5 62t-63 94.5t-22.5 120q0 80 30.5 150.5t83.5 123.5t123 84t150 31zM308 280q-2 -8 -2 -14.5v-13.5q0 -70 72 -70q28 0 47.5 12
t35.5 35q7 10 17 3l15 -11q9 -7 2 -17q-42 -63 -121 -63q-55 0 -85 26.5t-30 77.5q0 14 3 31l18 116q11 65 46 98t98 33q41 0 69 -16.5t41 -48.5q5 -11 -6 -16l-19 -8q-11 -5 -15 6q-20 42 -73 42q-42 0 -65 -24.5t-31 -74.5zM362 29q69 0 130.5 27.5t108 75t73.5 110
t27 132.5q0 57 -19 105t-54 82.5t-83.5 54t-107.5 19.5q-69 0 -130.5 -27.5t-108 -75t-73.5 -110t-27 -132.5q0 -57 19 -105t54 -82.5t83.5 -54t107.5 -19.5z" />
    <glyph glyph-name="ordfeminine" unicode="&#xaa;" horiz-adv-x="348" 
d="M219 636q63 0 96.5 -29.5t33.5 -86.5v-16t-2 -16l-17 -108q-11 -71 -50 -106.5t-110 -35.5q-60 0 -92.5 27t-32.5 76q0 62 38.5 95t114.5 33h92l2 15q2 8 2 15v14q0 40 -20 58t-62 18q-24 0 -44.5 -9t-37.5 -23q-12 -11 -20 2l-11 17q-8 11 5 20q28 21 55.5 30.5
t59.5 9.5zM173 285q47 0 71.5 25.5t32.5 79.5l5 33h-82q-48 0 -74.5 -20.5t-26.5 -58.5q0 -29 19.5 -44t54.5 -15z" />
    <glyph glyph-name="guillemotleft" unicode="&#xab;" horiz-adv-x="415" 
d="M166 75q4 -8 1 -12.5t-11 -4.5h-26q-12 0 -16 10l-83 169q-5 11 2 19l135 171q7 8 18 8h27q9 0 11.5 -5t-2.5 -12l-138 -175zM342 75q4 -8 1 -12.5t-11 -4.5h-26q-12 0 -16 10l-83 169q-5 11 2 19l135 171q7 8 18 8h27q9 0 11.5 -5t-2.5 -12l-138 -175z" />
    <glyph glyph-name="logicalnot" unicode="&#xac;" horiz-adv-x="529" 
d="M486 114q-2 -14 -16 -14h-26q-16 0 -13 16l31 199h-413q-16 0 -14 16l4 26q2 14 16 14h456q16 0 13 -16z" />
    <glyph glyph-name="uni00AD" unicode="&#xad;" 
d="M46 242q-16 0 -14 16l5 29q2 14 16 14h240q16 0 13 -16l-5 -29q-2 -14 -16 -14h-239z" />
    <glyph glyph-name="registered" unicode="&#xae;" horiz-adv-x="771" 
d="M506 163q3 -6 1 -10.5t-10 -4.5h-26q-10 0 -14 9l-59 138h-69l-21 -136q-2 -11 -13 -11h-22q-13 0 -11 13l55 344q2 11 13 11h100q115 0 115 -92q0 -53 -26 -85t-76 -40zM498 420q0 55 -73 55h-67l-22 -139h65q97 0 97 84zM440 676q67 0 123.5 -22.5t97 -62t63 -94.5
t22.5 -120q0 -80 -30.5 -150.5t-83.5 -123.5t-123.5 -84t-149.5 -31q-68 0 -124 22.5t-96.5 62t-63 94.5t-22.5 120q0 80 30.5 150.5t83.5 123.5t123 84t150 31zM362 29q69 0 130.5 27.5t108 75t73.5 110t27 132.5q0 57 -19 105t-54 82.5t-83.5 54t-107.5 19.5
q-69 0 -130.5 -27.5t-108 -75t-73.5 -110t-27 -132.5q0 -57 19 -105t54 -82.5t83.5 -54t107.5 -19.5z" />
    <glyph glyph-name="macron" unicode="&#xaf;" horiz-adv-x="500" 
d="M436 618q-1 -13 -15 -13h-227q-15 0 -13 15l3 22q1 13 15 13h228q16 0 13 -15z" />
    <glyph glyph-name="degree" unicode="&#xb0;" horiz-adv-x="353" 
d="M200 345q-59 0 -95 36t-36 93q0 34 13 64t35 51.5t51.5 34t62.5 12.5q58 0 94 -36t36 -92q0 -35 -12.5 -65t-34.5 -51.5t-51.5 -34t-62.5 -12.5zM203 396q21 0 40.5 8.5t33.5 23.5t22.5 35t8.5 43q0 35 -22.5 57t-57.5 22q-22 0 -41 -8.5t-33.5 -23.5t-23 -35t-8.5 -43
q0 -35 22.5 -57t58.5 -22z" />
    <glyph glyph-name="plusminus" unicode="&#xb1;" horiz-adv-x="529" 
d="M507 301q-2 -14 -16 -14h-192l-28 -178q-2 -14 -16 -14h-26q-16 0 -13 16l27 176h-190q-17 0 -14 16l5 26q2 14 16 14h192l28 178q2 14 16 14h26q16 0 13 -16l-27 -176h190q17 0 14 -16zM453 56q16 0 13 -16l-4 -26q-2 -14 -16 -14h-439q-16 0 -14 16l4 26q2 14 16 14
h440z" />
    <glyph glyph-name="uni00B2" unicode="&#xb2;" 
d="M355 656q0 -19 -3.5 -34.5t-12 -30t-23 -30t-36.5 -33.5l-143 -121v-1h165q14 0 12 -14l-3 -17q-2 -12 -14 -12h-218q-14 0 -12 14l3 17q2 10 8 15l171 151q32 29 45.5 49.5t13.5 46.5t-17.5 41.5t-48.5 15.5q-27 0 -50 -12.5t-39 -34.5q-9 -12 -19 -3l-13 11
q-11 7 -3 18q25 31 58 47.5t71 16.5q50 0 79 -27t29 -73z" />
    <glyph glyph-name="uni00B3" unicode="&#xb3;" 
d="M358 661q0 -79 -75 -97v-1q26 -11 41 -32t15 -52q0 -60 -38.5 -91.5t-105.5 -31.5q-83 0 -123 54q-7 10 2 18l13 11q10 9 18 -2q28 -38 91 -38q45 0 70.5 22t25.5 61q0 61 -85 61h-23q-14 0 -12 14l2 15q1 12 14 12h21q101 0 101 72q0 57 -70 57q-51 0 -90 -39
q-10 -10 -18 -1l-12 14q-8 9 1 18q51 51 125 51q51 0 81.5 -25t30.5 -70z" />
    <glyph glyph-name="acute" unicode="&#xb4;" horiz-adv-x="500" 
d="M426 715q9 0 11.5 -5t-3.5 -12l-108 -124q-6 -7 -16 -7h-31q-8 0 -10 4.5t3 11.5l99 124q7 8 18 8h37z" />
    <glyph glyph-name="uni00B5" unicode="&#xb5;" horiz-adv-x="500" 
d="M456 493q16 0 13 -16l-48 -308q-29 -181 -192 -181q-94 0 -124 64h-1l-32 -198q-2 -14 -16 -14h-31q-16 0 -13 16l98 623q2 14 16 14h31q16 0 13 -16l-47 -297q-3 -21 -3 -39q0 -100 103 -100q61 0 94 34t44 106l48 298q2 14 16 14h31z" />
    <glyph glyph-name="paragraph" unicode="&#xb6;" horiz-adv-x="565" 
d="M423 -148q-2 -12 -14 -12h-25q-14 0 -12 14l126 795h-137l-125 -797q-2 -12 -14 -12h-25q-14 0 -12 14l71 450q-194 4 -194 158q0 238 263 238h218q14 0 12 -14z" />
    <glyph glyph-name="periodcentered" unicode="&#xb7;" horiz-adv-x="220" 
d="M117 268q-18 0 -29.5 11.5t-11.5 29.5q0 20 14.5 34t34.5 14q18 0 29.5 -11.5t11.5 -28.5q0 -21 -14 -35t-35 -14z" />
    <glyph glyph-name="cedilla" unicode="&#xb8;" horiz-adv-x="500" 
d="M213 -50q63 -6 63 -53q0 -33 -25 -51t-70 -18q-41 0 -71 19q-8 6 -4 16l8 17q5 11 16 4q11 -6 23.5 -10.5t26.5 -4.5q27 0 38.5 9t11.5 22q0 10 -9 16.5t-35 6.5h-9q-15 0 -10 14l26 70h41z" />
    <glyph glyph-name="uni00B9" unicode="&#xb9;" 
d="M230 363q-14 0 -12 14l49 308l-89 -60q-11 -8 -18 4l-8 13q-6 11 4 18l125 84q6 5 16 5h14q14 0 12 -14l-58 -360q-2 -12 -14 -12h-21z" />
    <glyph glyph-name="ordmasculine" unicode="&#xba;" horiz-adv-x="366" 
d="M238 636q62 0 95.5 -29.5t33.5 -84.5q0 -15 -3 -33l-16 -109q-21 -142 -159 -142q-63 0 -96.5 29t-33.5 85q0 16 3 33l17 108q23 143 159 143zM191 285q46 0 70.5 25.5t33.5 79.5l15 94q3 16 3 30q0 75 -78 75q-46 0 -70.5 -26t-32.5 -80l-15 -95q-3 -17 -3 -30
q0 -73 77 -73z" />
    <glyph glyph-name="guillemotright" unicode="&#xbb;" horiz-adv-x="415" 
d="M26 58q-9 0 -11.5 5t2.5 12l138 176l-83 167q-4 8 -1 12.5t11 4.5h26q12 0 16 -10l84 -168q5 -11 -2 -19l-135 -172q-7 -8 -18 -8h-27zM202 58q-9 0 -11.5 5t2.5 12l138 176l-83 167q-4 8 -1 12.5t11 4.5h26q12 0 16 -10l84 -168q5 -11 -2 -19l-135 -172q-7 -8 -18 -8
h-27z" />
    <glyph glyph-name="onequarter" unicode="&#xbc;" horiz-adv-x="793" 
d="M665 616q7 8 17 8h27q9 0 11 -4.5t-3 -11.5l-489 -600q-7 -8 -17 -8h-27q-9 0 -11 4.5t3 11.5zM692 12q-2 -12 -14 -12h-21q-14 0 -12 14l12 74h-175q-14 0 -12 14l4 23q1 9 7 16l218 238q6 7 16 7h23q14 0 12 -14l-39 -241h32q14 0 12 -14l-2 -17q-2 -12 -14 -12h-35z
M664 131l29 182h-1l-162 -182h134zM211 238q-14 0 -12 14l49 308l-89 -60q-11 -8 -18 4l-8 13q-6 11 4 18l125 84q6 5 16 5h14q14 0 12 -14l-58 -360q-2 -12 -14 -12h-21z" />
    <glyph glyph-name="onehalf" unicode="&#xbd;" horiz-adv-x="793" 
d="M625 616q7 8 17 8h27q9 0 11 -4.5t-3 -11.5l-489 -600q-7 -8 -17 -8h-27q-9 0 -11 4.5t3 11.5zM761 293q0 -19 -3.5 -34.5t-12 -30t-23 -30t-36.5 -33.5l-143 -121v-1h165q14 0 12 -14l-3 -17q-2 -12 -14 -12h-218q-14 0 -12 14l3 17q2 10 8 15l171 151q32 29 45.5 49.5
t13.5 46.5t-17.5 41.5t-48.5 15.5q-27 0 -50 -12.5t-39 -34.5q-9 -12 -19 -3l-13 11q-11 7 -3 18q25 31 58 47.5t71 16.5q50 0 79 -27t29 -73zM211 238q-14 0 -12 14l49 308l-89 -60q-11 -8 -18 4l-8 13q-6 11 4 18l125 84q6 5 16 5h14q14 0 12 -14l-58 -360q-2 -12 -14 -12
h-21z" />
    <glyph glyph-name="threequarters" unicode="&#xbe;" horiz-adv-x="793" 
d="M670 616q7 8 17 8h27q9 0 11 -4.5t-3 -11.5l-489 -600q-7 -8 -17 -8h-27q-9 0 -11 4.5t3 11.5zM692 12q-2 -12 -14 -12h-21q-14 0 -12 14l12 74h-175q-14 0 -12 14l4 23q1 9 7 16l218 238q6 7 16 7h23q14 0 12 -14l-39 -241h32q14 0 12 -14l-2 -17q-2 -12 -14 -12h-35z
M664 131l29 182h-1l-162 -182h134zM339 536q0 -79 -75 -97v-1q26 -11 41 -32t15 -52q0 -60 -38.5 -91.5t-105.5 -31.5q-83 0 -123 54q-7 10 2 18l13 11q10 9 18 -2q28 -38 91 -38q45 0 70.5 22t25.5 61q0 61 -85 61h-23q-14 0 -12 14l2 15q1 12 14 12h21q101 0 101 72
q0 57 -70 57q-51 0 -90 -39q-10 -10 -18 -1l-12 14q-8 9 1 18q51 51 125 51q51 0 81.5 -25t30.5 -70z" />
    <glyph glyph-name="questiondown" unicode="&#xbf;" horiz-adv-x="450" 
d="M186 -12q-81 0 -128 42t-47 114q0 33 6.5 60t22 50t41.5 43.5t64 40.5q59 31 83.5 59.5t29.5 66.5l3 19q2 14 16 14h27q16 0 14 -16l-4 -26q-4 -25 -12.5 -46.5t-23.5 -40.5t-38 -36.5t-55 -35.5q-32 -17 -53 -33.5t-34 -34t-18.5 -37.5t-5.5 -44q0 -49 31 -76.5
t87 -27.5q48 0 91 23.5t75 68.5q9 12 21 3l20 -18q11 -9 2 -21q-41 -54 -96 -82.5t-119 -28.5zM316 676q18 0 29.5 -11.5t11.5 -29.5q0 -20 -14.5 -34t-34.5 -14q-18 0 -29.5 11.5t-11.5 28.5q0 21 14 35t35 14z" />
    <glyph glyph-name="Agrave" unicode="&#xc0;" horiz-adv-x="581" 
d="M60 11q-4 -11 -17 -11h-38q-19 0 -11 18l322 635q5 11 18 11h43q14 0 17 -13l121 -635q3 -16 -14 -16h-34q-14 0 -16 14l-24 130h-300zM155 201h261l-71 385h-1zM362 732q-11 0 -15 9l-68 122q-9 17 10 17h34q12 0 16 -10l60 -123q7 -15 -10 -15h-27z" />
    <glyph glyph-name="Aacute" unicode="&#xc1;" horiz-adv-x="581" 
d="M60 11q-4 -11 -17 -11h-38q-19 0 -11 18l322 635q5 11 18 11h43q14 0 17 -13l121 -635q3 -16 -14 -16h-34q-14 0 -16 14l-24 130h-300zM155 201h261l-71 385h-1zM493 880q9 0 11.5 -5t-3.5 -12l-108 -124q-6 -7 -16 -7h-31q-8 0 -10 4.5t3 11.5l99 124q7 8 18 8h37z" />
    <glyph glyph-name="Acircumflex" unicode="&#xc2;" horiz-adv-x="581" 
d="M60 11q-4 -11 -17 -11h-38q-19 0 -11 18l322 635q5 11 18 11h43q14 0 17 -13l121 -635q3 -16 -14 -16h-34q-14 0 -16 14l-24 130h-300zM155 201h261l-71 385h-1zM303 739q-6 -7 -16 -7h-28q-8 0 -10.5 4.5t3.5 11.5l105 124q7 8 17 8h32q12 0 16 -10l65 -123
q8 -15 -9 -15h-25q-11 0 -15 9l-51 94z" />
    <glyph glyph-name="Atilde" unicode="&#xc3;" horiz-adv-x="581" 
d="M60 11q-4 -11 -17 -11h-38q-19 0 -11 18l322 635q5 11 18 11h43q14 0 17 -13l121 -635q3 -16 -14 -16h-34q-14 0 -16 14l-24 130h-300zM155 201h261l-71 385h-1zM246 744q-16 0 -11 17q12 45 36.5 67.5t56.5 22.5q18 0 32 -7t31 -25q13 -14 22 -19t20 -5q32 0 48 46
q3 11 14 11h17q16 0 11 -16q-26 -91 -93 -91q-17 0 -31.5 6.5t-32.5 25.5q-13 14 -22 19t-20 5q-32 0 -48 -45q-5 -12 -15 -12h-15z" />
    <glyph glyph-name="Adieresis" unicode="&#xc4;" horiz-adv-x="581" 
d="M60 11q-4 -11 -17 -11h-38q-19 0 -11 18l322 635q5 11 18 11h43q14 0 17 -13l121 -635q3 -16 -14 -16h-34q-14 0 -16 14l-24 130h-300zM155 201h261l-71 385h-1zM295 760q-17 0 -27 10t-10 26q0 19 12 31.5t31 12.5q17 0 27.5 -10t10.5 -26q0 -19 -12.5 -31.5
t-31.5 -12.5zM455 760q-17 0 -27 10t-10 26q0 19 12 31.5t31 12.5q17 0 27.5 -10t10.5 -26q0 -19 -12.5 -31.5t-31.5 -12.5z" />
    <glyph glyph-name="Aring" unicode="&#xc5;" horiz-adv-x="581" 
d="M60 11q-4 -11 -17 -11h-38q-19 0 -11 18l322 635q5 11 18 11h43q14 0 17 -13l121 -635q3 -16 -14 -16h-34q-14 0 -16 14l-24 130h-300zM155 201h261l-71 385h-1zM373 727q-32 0 -52.5 20t-20.5 52q0 36 25 61t61 25q32 0 52.5 -20t20.5 -52q0 -37 -25 -61.5t-61 -24.5z
M375 770q15 0 27.5 12.5t12.5 29.5q0 13 -9 21.5t-23 8.5q-15 0 -27 -12.5t-12 -29.5q0 -13 8.5 -21.5t22.5 -8.5z" />
    <glyph glyph-name="AE" unicode="&#xc6;" horiz-adv-x="880" 
d="M794 364q16 0 13 -16l-5 -27q-2 -14 -16 -14h-285l-40 -250h328q16 0 13 -16l-4 -27q-2 -14 -16 -14h-379q-16 0 -13 16l20 128h-261l-101 -135q-8 -9 -18 -9h-43q-10 0 -12.5 5t3.5 13l483 637q7 9 18 9h406q16 0 13 -16l-4 -27q-2 -14 -16 -14h-330l-38 -243h284z
M480 588h-1l-288 -387h228z" />
    <glyph glyph-name="Ccedilla" unicode="&#xc7;" horiz-adv-x="531" 
d="M545 553q5 -14 -9 -19l-28 -11q-13 -6 -19 9q-16 42 -51 64.5t-92 22.5q-83 0 -130 -48t-63 -146l-29 -187q-2 -16 -3.5 -30t-1.5 -28q0 -135 139 -135q57 0 98 24t70 71q8 13 21 5l25 -16q12 -7 4 -21q-38 -60 -89.5 -89t-122.5 -31l-14 -38q63 -6 63 -53q0 -33 -25 -51
t-70 -18q-41 0 -71 19q-8 6 -4 16l8 17q5 11 16 4q11 -6 23.5 -10.5t26.5 -4.5q27 0 38.5 9t11.5 22q0 10 -9 16.5t-35 6.5h-9q-15 0 -10 14l19 52q-84 7 -127.5 53t-43.5 130q0 14 1.5 28t3.5 30l33 208q36 238 259 238q154 0 196 -123z" />
    <glyph glyph-name="Egrave" unicode="&#xc8;" horiz-adv-x="538" 
d="M451 364q16 0 13 -16l-4 -27q-2 -14 -16 -14h-285l-40 -250h327q16 0 13 -16l-4 -27q-2 -14 -16 -14h-378q-16 0 -13 16l100 634q2 14 16 14h378q16 0 14 -16l-4 -27q-2 -14 -16 -14h-330l-38 -243h283zM359 732q-11 0 -15 9l-68 122q-9 17 10 17h34q12 0 16 -10l60 -123
q7 -15 -10 -15h-27z" />
    <glyph glyph-name="Eacute" unicode="&#xc9;" horiz-adv-x="538" 
d="M451 364q16 0 13 -16l-4 -27q-2 -14 -16 -14h-285l-40 -250h327q16 0 13 -16l-4 -27q-2 -14 -16 -14h-378q-16 0 -13 16l100 634q2 14 16 14h378q16 0 14 -16l-4 -27q-2 -14 -16 -14h-330l-38 -243h283zM490 880q9 0 11.5 -5t-3.5 -12l-108 -124q-6 -7 -16 -7h-31
q-8 0 -10 4.5t3 11.5l99 124q7 8 18 8h37z" />
    <glyph glyph-name="Ecircumflex" unicode="&#xca;" horiz-adv-x="538" 
d="M451 364q16 0 13 -16l-4 -27q-2 -14 -16 -14h-285l-40 -250h327q16 0 13 -16l-4 -27q-2 -14 -16 -14h-378q-16 0 -13 16l100 634q2 14 16 14h378q16 0 14 -16l-4 -27q-2 -14 -16 -14h-330l-38 -243h283zM300 739q-6 -7 -16 -7h-28q-8 0 -10.5 4.5t3.5 11.5l105 124
q7 8 17 8h32q12 0 16 -10l65 -123q8 -15 -9 -15h-25q-11 0 -15 9l-51 94z" />
    <glyph glyph-name="Edieresis" unicode="&#xcb;" horiz-adv-x="538" 
d="M451 364q16 0 13 -16l-4 -27q-2 -14 -16 -14h-285l-40 -250h327q16 0 13 -16l-4 -27q-2 -14 -16 -14h-378q-16 0 -13 16l100 634q2 14 16 14h378q16 0 14 -16l-4 -27q-2 -14 -16 -14h-330l-38 -243h283zM292 760q-17 0 -27 10t-10 26q0 19 12 31.5t31 12.5q17 0 27.5 -10
t10.5 -26q0 -19 -12.5 -31.5t-31.5 -12.5zM452 760q-17 0 -27 10t-10 26q0 19 12 31.5t31 12.5q17 0 27.5 -10t10.5 -26q0 -19 -12.5 -31.5t-31.5 -12.5z" />
    <glyph glyph-name="Igrave" unicode="&#xcc;" horiz-adv-x="233" 
d="M112 14q-2 -14 -16 -14h-35q-16 0 -13 16l100 634q2 14 16 14h35q16 0 13 -16zM187 732q-11 0 -15 9l-68 122q-9 17 10 17h34q12 0 16 -10l60 -123q7 -15 -10 -15h-27z" />
    <glyph glyph-name="Iacute" unicode="&#xcd;" horiz-adv-x="233" 
d="M112 14q-2 -14 -16 -14h-35q-16 0 -13 16l100 634q2 14 16 14h35q16 0 13 -16zM318 880q9 0 11.5 -5t-3.5 -12l-108 -124q-6 -7 -16 -7h-31q-8 0 -10 4.5t3 11.5l99 124q7 8 18 8h37z" />
    <glyph glyph-name="Icircumflex" unicode="&#xce;" horiz-adv-x="233" 
d="M112 14q-2 -14 -16 -14h-35q-16 0 -13 16l100 634q2 14 16 14h35q16 0 13 -16zM128 739q-6 -7 -16 -7h-28q-8 0 -10.5 4.5t3.5 11.5l105 124q7 8 17 8h32q12 0 16 -10l65 -123q8 -15 -9 -15h-25q-11 0 -15 9l-51 94z" />
    <glyph glyph-name="Idieresis" unicode="&#xcf;" horiz-adv-x="233" 
d="M112 14q-2 -14 -16 -14h-35q-16 0 -13 16l100 634q2 14 16 14h35q16 0 13 -16zM120 760q-17 0 -27 10t-10 26q0 19 12 31.5t31 12.5q17 0 27.5 -10t10.5 -26q0 -19 -12.5 -31.5t-31.5 -12.5zM280 760q-17 0 -27 10t-10 26q0 19 12 31.5t31 12.5q17 0 27.5 -10t10.5 -26
q0 -19 -12.5 -31.5t-31.5 -12.5z" />
    <glyph glyph-name="Eth" unicode="&#xd0;" horiz-adv-x="600" 
d="M371 664q101 0 153 -44t52 -131q0 -13 -1.5 -26.5t-3.5 -27.5l-34 -210q-18 -113 -82.5 -169t-182.5 -56h-201q-16 0 -13 16l46 292h-54q-16 0 -13 16l4 27q2 14 16 14h56l45 285q2 14 16 14h197zM505 427q2 14 3.5 26.5t1.5 24.5q0 129 -147 129h-147l-38 -242h138
q16 0 13 -16l-4 -27q-2 -14 -16 -14h-140l-40 -251h145q88 0 136.5 44.5t63.5 137.5z" />
    <glyph glyph-name="Ntilde" unicode="&#xd1;" horiz-adv-x="623" 
d="M449 0q-14 0 -18 12l-233 552h-1l-87 -550q-2 -14 -16 -14h-33q-16 0 -13 16l100 634q2 14 16 14h43q13 0 18 -12l229 -543h1l86 541q2 14 16 14h33q16 0 13 -16l-100 -634q-2 -14 -16 -14h-38zM267 744q-16 0 -11 17q12 45 36.5 67.5t56.5 22.5q18 0 32 -7t31 -25
q13 -14 22 -19t20 -5q32 0 48 46q3 11 14 11h17q16 0 11 -16q-26 -91 -93 -91q-17 0 -31.5 6.5t-32.5 25.5q-13 14 -22 19t-20 5q-32 0 -48 -45q-5 -12 -15 -12h-15z" />
    <glyph glyph-name="Ograve" unicode="&#xd2;" horiz-adv-x="585" 
d="M350 676q102 0 156 -47.5t54 -138.5q0 -14 -1.5 -27.5t-3.5 -28.5l-33 -208q-36 -238 -260 -238q-102 0 -156 47.5t-54 138.5q0 14 1.5 27.5t3.5 28.5l33 208q36 238 260 238zM488 426q2 15 3.5 28.5t1.5 26.5q0 71 -36.5 104.5t-108.5 33.5q-86 0 -133 -48t-62 -146
l-29 -187q-2 -15 -3.5 -28.5t-1.5 -26.5q0 -138 146 -138q85 0 131.5 48t62.5 146zM364 732q-11 0 -15 9l-68 122q-9 17 10 17h34q12 0 16 -10l60 -123q7 -15 -10 -15h-27z" />
    <glyph glyph-name="Oacute" unicode="&#xd3;" horiz-adv-x="585" 
d="M350 676q102 0 156 -47.5t54 -138.5q0 -14 -1.5 -27.5t-3.5 -28.5l-33 -208q-36 -238 -260 -238q-102 0 -156 47.5t-54 138.5q0 14 1.5 27.5t3.5 28.5l33 208q36 238 260 238zM488 426q2 15 3.5 28.5t1.5 26.5q0 71 -36.5 104.5t-108.5 33.5q-86 0 -133 -48t-62 -146
l-29 -187q-2 -15 -3.5 -28.5t-1.5 -26.5q0 -138 146 -138q85 0 131.5 48t62.5 146zM495 880q9 0 11.5 -5t-3.5 -12l-108 -124q-6 -7 -16 -7h-31q-8 0 -10 4.5t3 11.5l99 124q7 8 18 8h37z" />
    <glyph glyph-name="Ocircumflex" unicode="&#xd4;" horiz-adv-x="585" 
d="M350 676q102 0 156 -47.5t54 -138.5q0 -14 -1.5 -27.5t-3.5 -28.5l-33 -208q-36 -238 -260 -238q-102 0 -156 47.5t-54 138.5q0 14 1.5 27.5t3.5 28.5l33 208q36 238 260 238zM488 426q2 15 3.5 28.5t1.5 26.5q0 71 -36.5 104.5t-108.5 33.5q-86 0 -133 -48t-62 -146
l-29 -187q-2 -15 -3.5 -28.5t-1.5 -26.5q0 -138 146 -138q85 0 131.5 48t62.5 146zM305 739q-6 -7 -16 -7h-28q-8 0 -10.5 4.5t3.5 11.5l105 124q7 8 17 8h32q12 0 16 -10l65 -123q8 -15 -9 -15h-25q-11 0 -15 9l-51 94z" />
    <glyph glyph-name="Otilde" unicode="&#xd5;" horiz-adv-x="585" 
d="M350 676q102 0 156 -47.5t54 -138.5q0 -14 -1.5 -27.5t-3.5 -28.5l-33 -208q-36 -238 -260 -238q-102 0 -156 47.5t-54 138.5q0 14 1.5 27.5t3.5 28.5l33 208q36 238 260 238zM488 426q2 15 3.5 28.5t1.5 26.5q0 71 -36.5 104.5t-108.5 33.5q-86 0 -133 -48t-62 -146
l-29 -187q-2 -15 -3.5 -28.5t-1.5 -26.5q0 -138 146 -138q85 0 131.5 48t62.5 146zM248 744q-16 0 -11 17q12 45 36.5 67.5t56.5 22.5q18 0 32 -7t31 -25q13 -14 22 -19t20 -5q32 0 48 46q3 11 14 11h17q16 0 11 -16q-26 -91 -93 -91q-17 0 -31.5 6.5t-32.5 25.5
q-13 14 -22 19t-20 5q-32 0 -48 -45q-5 -12 -15 -12h-15z" />
    <glyph glyph-name="Odieresis" unicode="&#xd6;" horiz-adv-x="585" 
d="M350 676q102 0 156 -47.5t54 -138.5q0 -14 -1.5 -27.5t-3.5 -28.5l-33 -208q-36 -238 -260 -238q-102 0 -156 47.5t-54 138.5q0 14 1.5 27.5t3.5 28.5l33 208q36 238 260 238zM488 426q2 15 3.5 28.5t1.5 26.5q0 71 -36.5 104.5t-108.5 33.5q-86 0 -133 -48t-62 -146
l-29 -187q-2 -15 -3.5 -28.5t-1.5 -26.5q0 -138 146 -138q85 0 131.5 48t62.5 146zM297 760q-17 0 -27 10t-10 26q0 19 12 31.5t31 12.5q17 0 27.5 -10t10.5 -26q0 -19 -12.5 -31.5t-31.5 -12.5zM457 760q-17 0 -27 10t-10 26q0 19 12 31.5t31 12.5q17 0 27.5 -10t10.5 -26
q0 -19 -12.5 -31.5t-31.5 -12.5z" />
    <glyph glyph-name="multiply" unicode="&#xd7;" horiz-adv-x="529" 
d="M460 101q9 -10 -2 -21l-21 -19q-11 -9 -21 2l-149 175l-205 -177q-11 -11 -21 1l-18 20q-11 12 1 21l207 178l-148 175q-10 11 0 21l24 20q12 10 20 -1l149 -176l206 177q12 9 20 -1l17 -19q10 -12 -1 -22l-206 -178z" />
    <glyph glyph-name="Oslash" unicode="&#xd8;" horiz-adv-x="585" 
d="M583 650q10 -10 1 -20l-42 -51q18 -38 18 -89q0 -14 -1.5 -27.5t-3.5 -28.5l-33 -208q-36 -238 -260 -238q-105 0 -160 52l-34 -42q-10 -11 -20 -1l-19 17q-10 10 -1 20l42 51q-18 37 -18 89q0 14 1.5 27.5t3.5 28.5l33 208q36 238 260 238q105 0 160 -52l34 42
q10 11 20 1zM119 183q0 -9 0.5 -17.5t1.5 -16.5h1l346 424q-36 46 -120 46q-86 0 -133 -48t-62 -146l-29 -187q-2 -15 -3.5 -28.5t-1.5 -26.5zM493 481q0 9 -0.5 17.5t-1.5 16.5h-1l-345 -423q34 -47 120 -47q85 0 131.5 48t62.5 146l29 187q2 15 3.5 28.5t1.5 26.5z" />
    <glyph glyph-name="Ugrave" unicode="&#xd9;" horiz-adv-x="588" 
d="M512 217q-35 -229 -249 -229q-96 0 -147.5 46t-51.5 134q0 13 1.5 26.5t3.5 27.5l67 428q2 14 16 14h35q16 0 13 -16l-66 -420q-2 -14 -3 -27t-1 -24q0 -68 34 -100t103 -32q81 0 124.5 45.5t58.5 139.5l67 420q2 14 16 14h33q16 0 13 -16zM365 732q-11 0 -15 9l-68 122
q-9 17 10 17h34q12 0 16 -10l60 -123q7 -15 -10 -15h-27z" />
    <glyph glyph-name="Uacute" unicode="&#xda;" horiz-adv-x="588" 
d="M512 217q-35 -229 -249 -229q-96 0 -147.5 46t-51.5 134q0 13 1.5 26.5t3.5 27.5l67 428q2 14 16 14h35q16 0 13 -16l-66 -420q-2 -14 -3 -27t-1 -24q0 -68 34 -100t103 -32q81 0 124.5 45.5t58.5 139.5l67 420q2 14 16 14h33q16 0 13 -16zM496 880q9 0 11.5 -5t-3.5 -12
l-108 -124q-6 -7 -16 -7h-31q-8 0 -10 4.5t3 11.5l99 124q7 8 18 8h37z" />
    <glyph glyph-name="Ucircumflex" unicode="&#xdb;" horiz-adv-x="588" 
d="M512 217q-35 -229 -249 -229q-96 0 -147.5 46t-51.5 134q0 13 1.5 26.5t3.5 27.5l67 428q2 14 16 14h35q16 0 13 -16l-66 -420q-2 -14 -3 -27t-1 -24q0 -68 34 -100t103 -32q81 0 124.5 45.5t58.5 139.5l67 420q2 14 16 14h33q16 0 13 -16zM306 739q-6 -7 -16 -7h-28
q-8 0 -10.5 4.5t3.5 11.5l105 124q7 8 17 8h32q12 0 16 -10l65 -123q8 -15 -9 -15h-25q-11 0 -15 9l-51 94z" />
    <glyph glyph-name="Udieresis" unicode="&#xdc;" horiz-adv-x="588" 
d="M512 217q-35 -229 -249 -229q-96 0 -147.5 46t-51.5 134q0 13 1.5 26.5t3.5 27.5l67 428q2 14 16 14h35q16 0 13 -16l-66 -420q-2 -14 -3 -27t-1 -24q0 -68 34 -100t103 -32q81 0 124.5 45.5t58.5 139.5l67 420q2 14 16 14h33q16 0 13 -16zM298 760q-17 0 -27 10t-10 26
q0 19 12 31.5t31 12.5q17 0 27.5 -10t10.5 -26q0 -19 -12.5 -31.5t-31.5 -12.5zM458 760q-17 0 -27 10t-10 26q0 19 12 31.5t31 12.5q17 0 27.5 -10t10.5 -26q0 -19 -12.5 -31.5t-31.5 -12.5z" />
    <glyph glyph-name="Yacute" unicode="&#xdd;" horiz-adv-x="521" 
d="M255 14q-2 -14 -16 -14h-35q-16 0 -13 16l44 284l-157 346q-8 18 11 18h41q12 0 17 -11l129 -293l223 295q7 9 18 9h44q10 0 12.5 -5t-3.5 -13l-270 -348zM462 880q9 0 11.5 -5t-3.5 -12l-108 -124q-6 -7 -16 -7h-31q-8 0 -10 4.5t3 11.5l99 124q7 8 18 8h37z" />
    <glyph glyph-name="Thorn" unicode="&#xde;" horiz-adv-x="541" 
d="M328 540q102 0 152.5 -40.5t50.5 -126.5q0 -118 -63 -173.5t-199 -55.5h-136l-21 -130q-2 -14 -16 -14h-35q-16 0 -13 16l100 634q2 14 16 14h35q16 0 13 -16l-17 -108h133zM465 367q0 116 -144 116h-135l-44 -282h134q98 0 143.5 40t45.5 126z" />
    <glyph glyph-name="germandbls" unicode="&#xdf;" horiz-adv-x="550" 
d="M120 541q13 81 68.5 126t144.5 45q79 0 123.5 -36t44.5 -101q0 -49 -22.5 -83t-78.5 -64q-44 -23 -59.5 -43t-15.5 -48q0 -22 14.5 -35.5t55.5 -24.5q60 -16 84 -44.5t24 -78.5q0 -79 -49 -122.5t-139 -43.5q-103 0 -154 52q-10 10 0 21l16 19q10 11 21 0q39 -39 117 -39
q60 0 93.5 28t33.5 78q0 31 -17.5 48.5t-65.5 33.5q-54 17 -75 40.5t-21 65.5q0 44 21 74.5t76 59.5q47 25 65 48.5t18 55.5q0 41 -29.5 63.5t-83.5 22.5q-63 0 -101.5 -31.5t-48.5 -92.5l-83 -521q-2 -14 -16 -14h-31q-16 0 -13 16z" />
    <glyph glyph-name="agrave" unicode="&#xe0;" horiz-adv-x="454" 
d="M250 505q80 0 122.5 -38.5t42.5 -111.5q0 -11 -1 -22t-3 -23l-22 -138q-14 -93 -65 -138.5t-143 -45.5q-76 0 -117 34.5t-41 97.5q0 79 51 122.5t148 43.5h124l3 20q2 11 3 22t1 20q0 54 -28 79t-83 25q-32 0 -60 -13t-51 -33q-12 -10 -21 2l-15 20q-9 13 3 22
q35 29 72.5 42t79.5 13zM223 235q-67 0 -103 -28t-36 -83q0 -40 26.5 -61.5t75.5 -21.5q65 0 99 35t45 109l8 50h-115zM276 567q-11 0 -15 9l-68 122q-9 17 10 17h34q12 0 16 -10l60 -123q7 -15 -10 -15h-27z" />
    <glyph glyph-name="aacute" unicode="&#xe1;" horiz-adv-x="454" 
d="M250 505q80 0 122.5 -38.5t42.5 -111.5q0 -11 -1 -22t-3 -23l-22 -138q-14 -93 -65 -138.5t-143 -45.5q-76 0 -117 34.5t-41 97.5q0 79 51 122.5t148 43.5h124l3 20q2 11 3 22t1 20q0 54 -28 79t-83 25q-32 0 -60 -13t-51 -33q-12 -10 -21 2l-15 20q-9 13 3 22
q35 29 72.5 42t79.5 13zM223 235q-67 0 -103 -28t-36 -83q0 -40 26.5 -61.5t75.5 -21.5q65 0 99 35t45 109l8 50h-115zM407 715q9 0 11.5 -5t-3.5 -12l-108 -124q-6 -7 -16 -7h-31q-8 0 -10 4.5t3 11.5l99 124q7 8 18 8h37z" />
    <glyph glyph-name="acircumflex" unicode="&#xe2;" horiz-adv-x="454" 
d="M250 505q80 0 122.5 -38.5t42.5 -111.5q0 -11 -1 -22t-3 -23l-22 -138q-14 -93 -65 -138.5t-143 -45.5q-76 0 -117 34.5t-41 97.5q0 79 51 122.5t148 43.5h124l3 20q2 11 3 22t1 20q0 54 -28 79t-83 25q-32 0 -60 -13t-51 -33q-12 -10 -21 2l-15 20q-9 13 3 22
q35 29 72.5 42t79.5 13zM223 235q-67 0 -103 -28t-36 -83q0 -40 26.5 -61.5t75.5 -21.5q65 0 99 35t45 109l8 50h-115zM217 574q-6 -7 -16 -7h-28q-8 0 -10.5 4.5t3.5 11.5l105 124q7 8 17 8h32q12 0 16 -10l65 -123q8 -15 -9 -15h-25q-11 0 -15 9l-51 94z" />
    <glyph glyph-name="atilde" unicode="&#xe3;" horiz-adv-x="454" 
d="M250 505q80 0 122.5 -38.5t42.5 -111.5q0 -11 -1 -22t-3 -23l-22 -138q-14 -93 -65 -138.5t-143 -45.5q-76 0 -117 34.5t-41 97.5q0 79 51 122.5t148 43.5h124l3 20q2 11 3 22t1 20q0 54 -28 79t-83 25q-32 0 -60 -13t-51 -33q-12 -10 -21 2l-15 20q-9 13 3 22
q35 29 72.5 42t79.5 13zM223 235q-67 0 -103 -28t-36 -83q0 -40 26.5 -61.5t75.5 -21.5q65 0 99 35t45 109l8 50h-115zM160 579q-16 0 -11 17q12 45 36.5 67.5t56.5 22.5q18 0 32 -7t31 -25q13 -14 22 -19t20 -5q32 0 48 46q3 11 14 11h17q16 0 11 -16q-26 -91 -93 -91
q-17 0 -31.5 6.5t-32.5 25.5q-13 14 -22 19t-20 5q-32 0 -48 -45q-5 -12 -15 -12h-15z" />
    <glyph glyph-name="adieresis" unicode="&#xe4;" horiz-adv-x="454" 
d="M250 505q80 0 122.5 -38.5t42.5 -111.5q0 -11 -1 -22t-3 -23l-22 -138q-14 -93 -65 -138.5t-143 -45.5q-76 0 -117 34.5t-41 97.5q0 79 51 122.5t148 43.5h124l3 20q2 11 3 22t1 20q0 54 -28 79t-83 25q-32 0 -60 -13t-51 -33q-12 -10 -21 2l-15 20q-9 13 3 22
q35 29 72.5 42t79.5 13zM223 235q-67 0 -103 -28t-36 -83q0 -40 26.5 -61.5t75.5 -21.5q65 0 99 35t45 109l8 50h-115zM209 595q-17 0 -27 10t-10 26q0 19 12 31.5t31 12.5q17 0 27.5 -10t10.5 -26q0 -19 -12.5 -31.5t-31.5 -12.5zM369 595q-17 0 -27 10t-10 26
q0 19 12 31.5t31 12.5q17 0 27.5 -10t10.5 -26q0 -19 -12.5 -31.5t-31.5 -12.5z" />
    <glyph glyph-name="aring" unicode="&#xe5;" horiz-adv-x="454" 
d="M250 505q80 0 122.5 -38.5t42.5 -111.5q0 -11 -1 -22t-3 -23l-22 -138q-14 -93 -65 -138.5t-143 -45.5q-76 0 -117 34.5t-41 97.5q0 79 51 122.5t148 43.5h124l3 20q2 11 3 22t1 20q0 54 -28 79t-83 25q-32 0 -60 -13t-51 -33q-12 -10 -21 2l-15 20q-9 13 3 22
q35 29 72.5 42t79.5 13zM223 235q-67 0 -103 -28t-36 -83q0 -40 26.5 -61.5t75.5 -21.5q65 0 99 35t45 109l8 50h-115zM287 562q-32 0 -52.5 20t-20.5 52q0 36 25 61t61 25q32 0 52.5 -20t20.5 -52q0 -37 -25 -61.5t-61 -24.5zM289 605q15 0 27.5 12.5t12.5 29.5
q0 13 -9 21.5t-23 8.5q-15 0 -27 -12.5t-12 -29.5q0 -13 8.5 -21.5t22.5 -8.5z" />
    <glyph glyph-name="ae" unicode="&#xe6;" horiz-adv-x="741" 
d="M563 505q74 0 113 -37.5t39 -106.5q0 -11 -1 -22t-3 -23l-12 -70q-2 -14 -16 -14h-285l-7 -45q-2 -12 -3 -22t-1 -19q0 -55 30 -80t90 -25q33 0 60.5 12.5t53.5 38.5q12 12 21 -1l15 -19q8 -11 -2 -21q-64 -63 -152 -63q-128 0 -156 95h-1q-47 -95 -171 -95
q-72 0 -112 35t-40 97q0 78 50 120.5t147 42.5h126l4 23q4 23 4 45q0 53 -26.5 77t-81.5 24q-32 0 -61.5 -13t-53.5 -33q-12 -10 -21 2l-15 20q-9 11 2 22q35 29 73.5 42t79.5 13q119 0 145 -92h1q48 92 167 92zM555 452q-63 0 -98 -34.5t-47 -109.5l-4 -25h242l4 26
q4 23 4 46q0 51 -25 74t-76 23zM186 41q63 0 98 35t46 109l8 47h-116q-66 0 -102 -28t-36 -83q0 -40 26 -60t76 -20z" />
    <glyph glyph-name="ccedilla" unicode="&#xe7;" horiz-adv-x="409" 
d="M403 457q10 -12 0 -22l-17 -17q-11 -11 -21 0q-18 18 -41 26t-55 8q-64 0 -99 -35.5t-47 -111.5l-19 -118q-3 -21 -3 -40q0 -55 28 -80.5t84 -25.5q31 0 55.5 11t46.5 32q12 12 22 -1l14 -18q9 -11 -1 -21q-60 -55 -141 -56l-14 -38q63 -6 63 -53q0 -33 -25 -51t-70 -18
q-41 0 -71 19q-8 6 -4 16l8 17q5 11 16 4q11 -6 23.5 -10.5t26.5 -4.5q27 0 38.5 9t11.5 22q0 10 -9 16.5t-35 6.5h-9q-15 0 -10 14l20 53q-63 8 -96.5 45.5t-33.5 102.5q0 21 4 44l21 135q29 188 205 188q45 0 78 -12.5t56 -35.5z" />
    <glyph glyph-name="egrave" unicode="&#xe8;" horiz-adv-x="454" 
d="M266 505q78 0 120 -37t42 -109q0 -10 -1 -21t-3 -22l-12 -75q-2 -14 -16 -14h-285l-6 -40q-4 -23 -4 -42q0 -54 29.5 -79t89.5 -25q33 0 60 12.5t54 38.5q11 12 21 -1l14 -19q9 -11 -1 -21q-64 -63 -153 -63q-85 0 -130.5 37.5t-45.5 111.5q0 11 1 22t3 22l22 139
q15 92 64 138.5t137 46.5zM365 309q2 12 3 22.5t1 20.5q0 52 -26 76t-79 24q-62 0 -96 -34.5t-44 -109.5l-4 -30h240zM281 567q-11 0 -15 9l-68 122q-9 17 10 17h34q12 0 16 -10l60 -123q7 -15 -10 -15h-27z" />
    <glyph glyph-name="eacute" unicode="&#xe9;" horiz-adv-x="454" 
d="M266 505q78 0 120 -37t42 -109q0 -10 -1 -21t-3 -22l-12 -75q-2 -14 -16 -14h-285l-6 -40q-4 -23 -4 -42q0 -54 29.5 -79t89.5 -25q33 0 60 12.5t54 38.5q11 12 21 -1l14 -19q9 -11 -1 -21q-64 -63 -153 -63q-85 0 -130.5 37.5t-45.5 111.5q0 11 1 22t3 22l22 139
q15 92 64 138.5t137 46.5zM365 309q2 12 3 22.5t1 20.5q0 52 -26 76t-79 24q-62 0 -96 -34.5t-44 -109.5l-4 -30h240zM412 715q9 0 11.5 -5t-3.5 -12l-108 -124q-6 -7 -16 -7h-31q-8 0 -10 4.5t3 11.5l99 124q7 8 18 8h37z" />
    <glyph glyph-name="ecircumflex" unicode="&#xea;" horiz-adv-x="454" 
d="M266 505q78 0 120 -37t42 -109q0 -10 -1 -21t-3 -22l-12 -75q-2 -14 -16 -14h-285l-6 -40q-4 -23 -4 -42q0 -54 29.5 -79t89.5 -25q33 0 60 12.5t54 38.5q11 12 21 -1l14 -19q9 -11 -1 -21q-64 -63 -153 -63q-85 0 -130.5 37.5t-45.5 111.5q0 11 1 22t3 22l22 139
q15 92 64 138.5t137 46.5zM365 309q2 12 3 22.5t1 20.5q0 52 -26 76t-79 24q-62 0 -96 -34.5t-44 -109.5l-4 -30h240zM222 574q-6 -7 -16 -7h-28q-8 0 -10.5 4.5t3.5 11.5l105 124q7 8 17 8h32q12 0 16 -10l65 -123q8 -15 -9 -15h-25q-11 0 -15 9l-51 94z" />
    <glyph glyph-name="edieresis" unicode="&#xeb;" horiz-adv-x="454" 
d="M266 505q78 0 120 -37t42 -109q0 -10 -1 -21t-3 -22l-12 -75q-2 -14 -16 -14h-285l-6 -40q-4 -23 -4 -42q0 -54 29.5 -79t89.5 -25q33 0 60 12.5t54 38.5q11 12 21 -1l14 -19q9 -11 -1 -21q-64 -63 -153 -63q-85 0 -130.5 37.5t-45.5 111.5q0 11 1 22t3 22l22 139
q15 92 64 138.5t137 46.5zM365 309q2 12 3 22.5t1 20.5q0 52 -26 76t-79 24q-62 0 -96 -34.5t-44 -109.5l-4 -30h240zM214 595q-17 0 -27 10t-10 26q0 19 12 31.5t31 12.5q17 0 27.5 -10t10.5 -26q0 -19 -12.5 -31.5t-31.5 -12.5zM374 595q-17 0 -27 10t-10 26q0 19 12 31.5
t31 12.5q17 0 27.5 -10t10.5 -26q0 -19 -12.5 -31.5t-31.5 -12.5z" />
    <glyph glyph-name="igrave" unicode="&#xec;" horiz-adv-x="207" 
d="M50 0q-16 0 -13 16l73 463q2 14 16 14h31q16 0 13 -16l-73 -463q-2 -14 -16 -14h-31zM148 567q-11 0 -15 9l-68 122q-9 17 10 17h34q12 0 16 -10l60 -123q7 -15 -10 -15h-27z" />
    <glyph glyph-name="iacute" unicode="&#xed;" horiz-adv-x="207" 
d="M50 0q-16 0 -13 16l73 463q2 14 16 14h31q16 0 13 -16l-73 -463q-2 -14 -16 -14h-31zM279 715q9 0 11.5 -5t-3.5 -12l-108 -124q-6 -7 -16 -7h-31q-8 0 -10 4.5t3 11.5l99 124q7 8 18 8h37z" />
    <glyph glyph-name="icircumflex" unicode="&#xee;" horiz-adv-x="207" 
d="M50 0q-16 0 -13 16l73 463q2 14 16 14h31q16 0 13 -16l-73 -463q-2 -14 -16 -14h-31zM89 574q-6 -7 -16 -7h-28q-8 0 -10.5 4.5t3.5 11.5l105 124q7 8 17 8h32q12 0 16 -10l65 -123q8 -15 -9 -15h-25q-11 0 -15 9l-51 94z" />
    <glyph glyph-name="idieresis" unicode="&#xef;" horiz-adv-x="207" 
d="M50 0q-16 0 -13 16l73 463q2 14 16 14h31q16 0 13 -16l-73 -463q-2 -14 -16 -14h-31zM81 595q-17 0 -27 10t-10 26q0 19 12 31.5t31 12.5q17 0 27.5 -10t10.5 -26q0 -19 -12.5 -31.5t-31.5 -12.5zM241 595q-17 0 -27 10t-10 26q0 19 12 31.5t31 12.5q17 0 27.5 -10
t10.5 -26q0 -19 -12.5 -31.5t-31.5 -12.5z" />
    <glyph glyph-name="eth" unicode="&#xf0;" horiz-adv-x="482" 
d="M207 41q63 0 97 35t46 109l18 118q3 21 3 40q0 103 -105 103q-63 0 -97 -35t-46 -109l-19 -118q-3 -23 -3 -41q0 -53 26 -77.5t80 -24.5zM380 636q63 -66 63 -195q0 -26 -2.5 -55t-7.5 -61l-25 -151q-15 -93 -65 -139.5t-139 -46.5q-80 0 -122.5 37.5t-42.5 108.5
q0 11 1 22t3 22l21 136q29 185 197 185q87 0 121 -61h1v5q0 107 -51 158l-68 -49q-13 -8 -20 4l-12 19q-8 11 3 19l53 38q-42 20 -103 27q-16 1 -13 18l5 23q3 14 17 12q90 -10 145 -44l57 42q12 9 20 -4l12 -19q8 -11 -3 -19z" />
    <glyph glyph-name="ntilde" unicode="&#xf1;" horiz-adv-x="494" 
d="M377 313q4 23 4 42q0 51 -26 74t-78 23q-61 0 -94 -34t-44 -106l-48 -298q-2 -14 -16 -14h-31q-16 0 -13 16l49 308q14 91 63.5 136t137.5 45q78 0 120 -36.5t42 -106.5q0 -10 -1 -21t-3 -22l-48 -305q-2 -14 -16 -14h-31q-16 0 -13 16zM177 579q-16 0 -11 17
q12 45 36.5 67.5t56.5 22.5q18 0 32 -7t31 -25q13 -14 22 -19t20 -5q32 0 48 46q3 11 14 11h17q16 0 11 -16q-26 -91 -93 -91q-17 0 -31.5 6.5t-32.5 25.5q-13 14 -22 19t-20 5q-32 0 -48 -45q-5 -12 -15 -12h-15z" />
    <glyph glyph-name="ograve" unicode="&#xf2;" horiz-adv-x="473" 
d="M270 505q80 0 122.5 -37t42.5 -109q0 -11 -1 -21t-3 -22l-23 -143q-29 -185 -204 -185q-80 0 -123 37t-43 109q0 10 1 21t3 22l23 143q15 92 65 138.5t140 46.5zM368 309q2 12 3 22.5t1 20.5q0 100 -105 100q-64 0 -97.5 -35t-45.5 -109l-20 -124q-3 -23 -3 -41
q0 -53 26 -77.5t80 -24.5q63 0 96.5 35t45.5 109zM282 567q-11 0 -15 9l-68 122q-9 17 10 17h34q12 0 16 -10l60 -123q7 -15 -10 -15h-27z" />
    <glyph glyph-name="oacute" unicode="&#xf3;" horiz-adv-x="473" 
d="M270 505q80 0 122.5 -37t42.5 -109q0 -11 -1 -21t-3 -22l-23 -143q-29 -185 -204 -185q-80 0 -123 37t-43 109q0 10 1 21t3 22l23 143q15 92 65 138.5t140 46.5zM368 309q2 12 3 22.5t1 20.5q0 100 -105 100q-64 0 -97.5 -35t-45.5 -109l-20 -124q-3 -23 -3 -41
q0 -53 26 -77.5t80 -24.5q63 0 96.5 35t45.5 109zM413 715q9 0 11.5 -5t-3.5 -12l-108 -124q-6 -7 -16 -7h-31q-8 0 -10 4.5t3 11.5l99 124q7 8 18 8h37z" />
    <glyph glyph-name="ocircumflex" unicode="&#xf4;" horiz-adv-x="473" 
d="M270 505q80 0 122.5 -37t42.5 -109q0 -11 -1 -21t-3 -22l-23 -143q-29 -185 -204 -185q-80 0 -123 37t-43 109q0 10 1 21t3 22l23 143q15 92 65 138.5t140 46.5zM368 309q2 12 3 22.5t1 20.5q0 100 -105 100q-64 0 -97.5 -35t-45.5 -109l-20 -124q-3 -23 -3 -41
q0 -53 26 -77.5t80 -24.5q63 0 96.5 35t45.5 109zM223 574q-6 -7 -16 -7h-28q-8 0 -10.5 4.5t3.5 11.5l105 124q7 8 17 8h32q12 0 16 -10l65 -123q8 -15 -9 -15h-25q-11 0 -15 9l-51 94z" />
    <glyph glyph-name="otilde" unicode="&#xf5;" horiz-adv-x="473" 
d="M270 505q80 0 122.5 -37t42.5 -109q0 -11 -1 -21t-3 -22l-23 -143q-29 -185 -204 -185q-80 0 -123 37t-43 109q0 10 1 21t3 22l23 143q15 92 65 138.5t140 46.5zM368 309q2 12 3 22.5t1 20.5q0 100 -105 100q-64 0 -97.5 -35t-45.5 -109l-20 -124q-3 -23 -3 -41
q0 -53 26 -77.5t80 -24.5q63 0 96.5 35t45.5 109zM166 579q-16 0 -11 17q12 45 36.5 67.5t56.5 22.5q18 0 32 -7t31 -25q13 -14 22 -19t20 -5q32 0 48 46q3 11 14 11h17q16 0 11 -16q-26 -91 -93 -91q-17 0 -31.5 6.5t-32.5 25.5q-13 14 -22 19t-20 5q-32 0 -48 -45
q-5 -12 -15 -12h-15z" />
    <glyph glyph-name="odieresis" unicode="&#xf6;" horiz-adv-x="473" 
d="M270 505q80 0 122.5 -37t42.5 -109q0 -11 -1 -21t-3 -22l-23 -143q-29 -185 -204 -185q-80 0 -123 37t-43 109q0 10 1 21t3 22l23 143q15 92 65 138.5t140 46.5zM368 309q2 12 3 22.5t1 20.5q0 100 -105 100q-64 0 -97.5 -35t-45.5 -109l-20 -124q-3 -23 -3 -41
q0 -53 26 -77.5t80 -24.5q63 0 96.5 35t45.5 109zM215 595q-17 0 -27 10t-10 26q0 19 12 31.5t31 12.5q17 0 27.5 -10t10.5 -26q0 -19 -12.5 -31.5t-31.5 -12.5zM375 595q-17 0 -27 10t-10 26q0 19 12 31.5t31 12.5q17 0 27.5 -10t10.5 -26q0 -19 -12.5 -31.5t-31.5 -12.5z
" />
    <glyph glyph-name="divide" unicode="&#xf7;" horiz-adv-x="529" 
d="M38 251q-16 0 -13 16l4 26q2 14 16 14h456q16 0 13 -16l-4 -26q-2 -14 -16 -14h-456zM234 37q-17 0 -28 11t-11 28q0 20 13.5 33.5t33.5 13.5q17 0 28.5 -11t11.5 -28q0 -21 -14 -34t-34 -13zM297 435q-17 0 -28 11t-11 28q0 20 13.5 33.5t33.5 13.5q17 0 28.5 -11
t11.5 -28q0 -21 -14 -34t-34 -13z" />
    <glyph glyph-name="oslash" unicode="&#xf8;" horiz-adv-x="473" 
d="M450 481q10 -9 1 -20l-29 -34q13 -27 13 -68q0 -11 -1 -21t-3 -22l-23 -143q-29 -185 -204 -185q-79 0 -122 37l-23 -27q-10 -11 -20 -1l-16 15q-10 9 -1 20l29 34q-13 29 -13 68q0 10 1 21t3 22l23 143q15 92 65 138.5t140 46.5q78 0 121 -37l23 27q10 11 20 1zM101 127
h1l250 294q-27 31 -85 31q-64 0 -97.5 -35t-45.5 -109l-20 -124q-3 -23 -3 -41v-16zM372 366h-1l-249 -294q25 -31 85 -31q63 0 96.5 35t45.5 109l19 124q2 14 3 26t1 26v5z" />
    <glyph glyph-name="ugrave" unicode="&#xf9;" horiz-adv-x="488" 
d="M409 166q-27 -178 -197 -178q-78 0 -119 36.5t-41 106.5q0 19 3 40l50 308q2 14 16 14h31q16 0 13 -16l-47 -301q-4 -23 -4 -40q0 -95 101 -95q61 0 93.5 33t43.5 103l48 302q2 14 16 14h29q16 0 13 -16zM290 567q-11 0 -15 9l-68 122q-9 17 10 17h34q12 0 16 -10
l60 -123q7 -15 -10 -15h-27z" />
    <glyph glyph-name="uacute" unicode="&#xfa;" horiz-adv-x="488" 
d="M409 166q-27 -178 -197 -178q-78 0 -119 36.5t-41 106.5q0 19 3 40l50 308q2 14 16 14h31q16 0 13 -16l-47 -301q-4 -23 -4 -40q0 -95 101 -95q61 0 93.5 33t43.5 103l48 302q2 14 16 14h29q16 0 13 -16zM421 715q9 0 11.5 -5t-3.5 -12l-108 -124q-6 -7 -16 -7h-31
q-8 0 -10 4.5t3 11.5l99 124q7 8 18 8h37z" />
    <glyph glyph-name="ucircumflex" unicode="&#xfb;" horiz-adv-x="488" 
d="M409 166q-27 -178 -197 -178q-78 0 -119 36.5t-41 106.5q0 19 3 40l50 308q2 14 16 14h31q16 0 13 -16l-47 -301q-4 -23 -4 -40q0 -95 101 -95q61 0 93.5 33t43.5 103l48 302q2 14 16 14h29q16 0 13 -16zM231 574q-6 -7 -16 -7h-28q-8 0 -10.5 4.5t3.5 11.5l105 124
q7 8 17 8h32q12 0 16 -10l65 -123q8 -15 -9 -15h-25q-11 0 -15 9l-51 94z" />
    <glyph glyph-name="udieresis" unicode="&#xfc;" horiz-adv-x="488" 
d="M409 166q-27 -178 -197 -178q-78 0 -119 36.5t-41 106.5q0 19 3 40l50 308q2 14 16 14h31q16 0 13 -16l-47 -301q-4 -23 -4 -40q0 -95 101 -95q61 0 93.5 33t43.5 103l48 302q2 14 16 14h29q16 0 13 -16zM223 595q-17 0 -27 10t-10 26q0 19 12 31.5t31 12.5
q17 0 27.5 -10t10.5 -26q0 -19 -12.5 -31.5t-31.5 -12.5zM383 595q-17 0 -27 10t-10 26q0 19 12 31.5t31 12.5q17 0 27.5 -10t10.5 -26q0 -19 -12.5 -31.5t-31.5 -12.5z" />
    <glyph glyph-name="yacute" unicode="&#xfd;" horiz-adv-x="500" 
d="M451 493q16 0 13 -16l-76 -478q-13 -81 -64.5 -126t-136.5 -45q-51 0 -91.5 14.5t-67.5 43.5q-10 10 0 21l15 19q10 13 22 1q45 -46 123 -46q60 0 96 33.5t45 94.5l8 50h-1q-44 -57 -131 -57q-73 0 -112 36t-39 105q0 11 1 22t3 23l47 291q2 14 16 14h31q16 0 13 -16
l-45 -283q-3 -23 -3 -40q0 -51 26 -75t77 -24q60 0 94 35t45 105l45 284q2 14 16 14h31zM424 715q9 0 11.5 -5t-3.5 -12l-108 -124q-6 -7 -16 -7h-31q-8 0 -10 4.5t3 11.5l99 124q7 8 18 8h37z" />
    <glyph glyph-name="thorn" unicode="&#xfe;" horiz-adv-x="493" 
d="M299 505q76 0 116 -37t40 -107q0 -11 -1 -22t-3 -23l-23 -143q-29 -185 -198 -185q-95 0 -125 67h-1l-32 -201q-2 -14 -16 -14h-31q-16 0 -13 16l131 830q2 14 16 14h31q16 0 13 -16l-37 -238h1q44 59 132 59zM388 310q2 11 3 22t1 20q0 52 -26.5 76t-79.5 24
q-120 0 -142 -144l-19 -124q-4 -23 -4 -41q0 -102 106 -102q63 0 96.5 35t44.5 110z" />
    <glyph glyph-name="ydieresis" unicode="&#xff;" horiz-adv-x="500" 
d="M451 493q16 0 13 -16l-76 -478q-13 -81 -64.5 -126t-136.5 -45q-51 0 -91.5 14.5t-67.5 43.5q-10 10 0 21l15 19q10 13 22 1q45 -46 123 -46q60 0 96 33.5t45 94.5l8 50h-1q-44 -57 -131 -57q-73 0 -112 36t-39 105q0 11 1 22t3 23l47 291q2 14 16 14h31q16 0 13 -16
l-45 -283q-3 -23 -3 -40q0 -51 26 -75t77 -24q60 0 94 35t45 105l45 284q2 14 16 14h31zM226 595q-17 0 -27 10t-10 26q0 19 12 31.5t31 12.5q17 0 27.5 -10t10.5 -26q0 -19 -12.5 -31.5t-31.5 -12.5zM386 595q-17 0 -27 10t-10 26q0 19 12 31.5t31 12.5q17 0 27.5 -10
t10.5 -26q0 -19 -12.5 -31.5t-31.5 -12.5z" />
    <glyph glyph-name="Amacron" unicode="&#x100;" horiz-adv-x="581" 
d="M60 11q-4 -11 -17 -11h-38q-19 0 -11 18l322 635q5 11 18 11h43q14 0 17 -13l121 -635q3 -16 -14 -16h-34q-14 0 -16 14l-24 130h-300zM155 201h261l-71 385h-1zM502 783q-1 -13 -15 -13h-227q-15 0 -13 15l3 22q1 13 15 13h228q16 0 13 -15z" />
    <glyph glyph-name="amacron" unicode="&#x101;" horiz-adv-x="454" 
d="M250 505q80 0 122.5 -38.5t42.5 -111.5q0 -11 -1 -22t-3 -23l-22 -138q-14 -93 -65 -138.5t-143 -45.5q-76 0 -117 34.5t-41 97.5q0 79 51 122.5t148 43.5h124l3 20q2 11 3 22t1 20q0 54 -28 79t-83 25q-32 0 -60 -13t-51 -33q-12 -10 -21 2l-15 20q-9 13 3 22
q35 29 72.5 42t79.5 13zM223 235q-67 0 -103 -28t-36 -83q0 -40 26.5 -61.5t75.5 -21.5q65 0 99 35t45 109l8 50h-115zM416 618q-1 -13 -15 -13h-227q-15 0 -13 15l3 22q1 13 15 13h228q16 0 13 -15z" />
    <glyph glyph-name="Abreve" unicode="&#x102;" horiz-adv-x="581" 
d="M60 11q-4 -11 -17 -11h-38q-19 0 -11 18l322 635q5 11 18 11h43q14 0 17 -13l121 -635q3 -16 -14 -16h-34q-14 0 -16 14l-24 130h-300zM155 201h261l-71 385h-1zM498 860q15 0 12 -15q-14 -48 -49 -73t-85 -25q-51 0 -81 26.5t-33 73.5q0 13 13 13h20q13 0 14 -13
q3 -24 20.5 -38t46.5 -14q30 0 53 14.5t34 39.5q4 11 15 11h20z" />
    <glyph glyph-name="abreve" unicode="&#x103;" horiz-adv-x="454" 
d="M250 505q80 0 122.5 -38.5t42.5 -111.5q0 -11 -1 -22t-3 -23l-22 -138q-14 -93 -65 -138.5t-143 -45.5q-76 0 -117 34.5t-41 97.5q0 79 51 122.5t148 43.5h124l3 20q2 11 3 22t1 20q0 54 -28 79t-83 25q-32 0 -60 -13t-51 -33q-12 -10 -21 2l-15 20q-9 13 3 22
q35 29 72.5 42t79.5 13zM223 235q-67 0 -103 -28t-36 -83q0 -40 26.5 -61.5t75.5 -21.5q65 0 99 35t45 109l8 50h-115zM412 695q15 0 12 -15q-14 -48 -49 -73t-85 -25q-51 0 -81 26.5t-33 73.5q0 13 13 13h20q13 0 14 -13q3 -24 20.5 -38t46.5 -14q30 0 53 14.5t34 39.5
q4 11 15 11h20z" />
    <glyph glyph-name="Aogonek" unicode="&#x104;" horiz-adv-x="581" 
d="M510 -127q6 -9 -2 -16q-17 -14 -35.5 -21.5t-42.5 -7.5q-34 0 -54.5 18.5t-20.5 48.5q0 35 22.5 65.5t73.5 52.5l-24 131h-300l-67 -133q-4 -11 -17 -11h-38q-19 0 -11 18l322 635q5 11 18 11h43q14 0 17 -13l121 -635q3 -16 -14 -16h-2q-47 -17 -71.5 -41t-24.5 -53
q0 -16 10 -25.5t25 -9.5q24 0 46 19q11 9 17 -2zM416 201l-71 385h-1l-189 -385h261z" />
    <glyph glyph-name="aogonek" unicode="&#x105;" horiz-adv-x="454" 
d="M250 505q80 0 122.5 -38.5t42.5 -111.5q0 -11 -1 -22t-3 -23l-22 -138q-11 -66 -39 -107.5t-77 -62.5q-81 -35 -81 -96q0 -16 10 -25.5t26 -9.5q13 0 23 5t20 13q12 10 19 -2l8 -12q7 -11 -2 -19q-16 -14 -33 -21t-41 -7q-35 0 -56 19t-21 51q0 47 46 89v1h-10
q-76 0 -117 34.5t-41 97.5q0 79 51 122.5t148 43.5h124l3 20q2 11 3 22t1 20q0 54 -28 79t-83 25q-32 0 -60 -13t-51 -33q-12 -10 -21 2l-15 20q-9 13 3 22q35 29 72.5 42t79.5 13zM223 235q-67 0 -103 -28t-36 -83q0 -40 26.5 -61.5t75.5 -21.5q65 0 99 35t45 109l8 50
h-115z" />
    <glyph glyph-name="Cacute" unicode="&#x106;" horiz-adv-x="531" 
d="M124 238q-2 -16 -3.5 -30t-1.5 -28q0 -135 139 -135q57 0 98 24t70 71q8 13 21 5l25 -16q12 -7 4 -21q-40 -62 -94 -91t-129 -29q-98 0 -149.5 46.5t-51.5 137.5q0 14 1.5 28t3.5 30l33 208q36 238 259 238q154 0 196 -123q5 -14 -9 -19l-28 -11q-13 -6 -19 9
q-16 42 -51 64.5t-92 22.5q-83 0 -130 -48t-63 -146zM485 880q9 0 11.5 -5t-3.5 -12l-108 -124q-6 -7 -16 -7h-31q-8 0 -10 4.5t3 11.5l99 124q7 8 18 8h37z" />
    <glyph glyph-name="cacute" unicode="&#x107;" horiz-adv-x="409" 
d="M269 505q45 0 78 -12.5t56 -35.5q10 -12 0 -22l-17 -17q-11 -11 -21 0q-18 18 -41 26t-55 8q-64 0 -99 -35.5t-47 -111.5l-19 -118q-3 -21 -3 -40q0 -55 28 -80.5t84 -25.5q31 0 55.5 11t46.5 32q12 12 22 -1l14 -18q9 -11 -1 -21q-62 -56 -145 -56q-79 0 -122.5 38
t-43.5 112q0 21 4 44l21 135q29 188 205 188zM401 715q9 0 11.5 -5t-3.5 -12l-108 -124q-6 -7 -16 -7h-31q-8 0 -10 4.5t3 11.5l99 124q7 8 18 8h37z" />
    <glyph glyph-name="Ccircumflex" unicode="&#x108;" horiz-adv-x="531" 
d="M124 238q-2 -16 -3.5 -30t-1.5 -28q0 -135 139 -135q57 0 98 24t70 71q8 13 21 5l25 -16q12 -7 4 -21q-40 -62 -94 -91t-129 -29q-98 0 -149.5 46.5t-51.5 137.5q0 14 1.5 28t3.5 30l33 208q36 238 259 238q154 0 196 -123q5 -14 -9 -19l-28 -11q-13 -6 -19 9
q-16 42 -51 64.5t-92 22.5q-83 0 -130 -48t-63 -146zM295 739q-6 -7 -16 -7h-28q-8 0 -10.5 4.5t3.5 11.5l105 124q7 8 17 8h32q12 0 16 -10l65 -123q8 -15 -9 -15h-25q-11 0 -15 9l-51 94z" />
    <glyph glyph-name="ccircumflex" unicode="&#x109;" horiz-adv-x="409" 
d="M269 505q45 0 78 -12.5t56 -35.5q10 -12 0 -22l-17 -17q-11 -11 -21 0q-18 18 -41 26t-55 8q-64 0 -99 -35.5t-47 -111.5l-19 -118q-3 -21 -3 -40q0 -55 28 -80.5t84 -25.5q31 0 55.5 11t46.5 32q12 12 22 -1l14 -18q9 -11 -1 -21q-62 -56 -145 -56q-79 0 -122.5 38
t-43.5 112q0 21 4 44l21 135q29 188 205 188zM211 574q-6 -7 -16 -7h-28q-8 0 -10.5 4.5t3.5 11.5l105 124q7 8 17 8h32q12 0 16 -10l65 -123q8 -15 -9 -15h-25q-11 0 -15 9l-51 94z" />
    <glyph glyph-name="Cdotaccent" unicode="&#x10a;" horiz-adv-x="531" 
d="M124 238q-2 -16 -3.5 -30t-1.5 -28q0 -135 139 -135q57 0 98 24t70 71q8 13 21 5l25 -16q12 -7 4 -21q-40 -62 -94 -91t-129 -29q-98 0 -149.5 46.5t-51.5 137.5q0 14 1.5 28t3.5 30l33 208q36 238 259 238q154 0 196 -123q5 -14 -9 -19l-28 -11q-13 -6 -19 9
q-16 42 -51 64.5t-92 22.5q-83 0 -130 -48t-63 -146zM367 758q-17 0 -27.5 10.5t-10.5 26.5q0 21 12.5 34t32.5 13q17 0 28 -11t11 -28q0 -19 -13 -32t-33 -13z" />
    <glyph glyph-name="cdotaccent" unicode="&#x10b;" horiz-adv-x="409" 
d="M269 505q45 0 78 -12.5t56 -35.5q10 -12 0 -22l-17 -17q-11 -11 -21 0q-18 18 -41 26t-55 8q-64 0 -99 -35.5t-47 -111.5l-19 -118q-3 -21 -3 -40q0 -55 28 -80.5t84 -25.5q31 0 55.5 11t46.5 32q12 12 22 -1l14 -18q9 -11 -1 -21q-62 -56 -145 -56q-79 0 -122.5 38
t-43.5 112q0 21 4 44l21 135q29 188 205 188zM283 593q-17 0 -27.5 10.5t-10.5 26.5q0 21 12.5 34t32.5 13q17 0 28 -11t11 -28q0 -19 -13 -32t-33 -13z" />
    <glyph glyph-name="Ccaron" unicode="&#x10c;" horiz-adv-x="531" 
d="M124 238q-2 -16 -3.5 -30t-1.5 -28q0 -135 139 -135q57 0 98 24t70 71q8 13 21 5l25 -16q12 -7 4 -21q-40 -62 -94 -91t-129 -29q-98 0 -149.5 46.5t-51.5 137.5q0 14 1.5 28t3.5 30l33 208q36 238 259 238q154 0 196 -123q5 -14 -9 -19l-28 -11q-13 -6 -19 9
q-16 42 -51 64.5t-92 22.5q-83 0 -130 -48t-63 -146zM393 740q-7 -8 -17 -8h-32q-12 0 -16 10l-65 123q-8 15 9 15h25q10 0 15 -9l51 -94l84 96q6 7 16 7h29q8 0 10.5 -4.5t-3.5 -11.5z" />
    <glyph glyph-name="ccaron" unicode="&#x10d;" horiz-adv-x="409" 
d="M269 505q45 0 78 -12.5t56 -35.5q10 -12 0 -22l-17 -17q-11 -11 -21 0q-18 18 -41 26t-55 8q-64 0 -99 -35.5t-47 -111.5l-19 -118q-3 -21 -3 -40q0 -55 28 -80.5t84 -25.5q31 0 55.5 11t46.5 32q12 12 22 -1l14 -18q9 -11 -1 -21q-62 -56 -145 -56q-79 0 -122.5 38
t-43.5 112q0 21 4 44l21 135q29 188 205 188zM309 575q-7 -8 -17 -8h-32q-12 0 -16 10l-65 123q-8 15 9 15h25q10 0 15 -9l51 -94l84 96q6 7 16 7h29q8 0 10.5 -4.5t-3.5 -11.5z" />
    <glyph glyph-name="Dcaron" unicode="&#x10e;" horiz-adv-x="590" 
d="M361 664q101 0 153 -44t52 -131q0 -13 -1.5 -26.5t-3.5 -27.5l-34 -210q-18 -113 -82.5 -169t-182.5 -56h-201q-16 0 -13 16l100 634q2 14 16 14h197zM495 427q2 14 3.5 26.5t1.5 24.5q0 129 -147 129h-147l-87 -550h145q88 0 136.5 44.5t63.5 137.5zM391 740
q-7 -8 -17 -8h-32q-12 0 -16 10l-65 123q-8 15 9 15h25q10 0 15 -9l51 -94l84 96q6 7 16 7h29q8 0 10.5 -4.5t-3.5 -11.5z" />
    <glyph glyph-name="dcaron" unicode="&#x10f;" horiz-adv-x="487" 
d="M408 174q-29 -186 -204 -186q-80 0 -122.5 37.5t-42.5 108.5q0 11 1 22t3 22l22 142q29 185 199 185q95 0 124 -66h1l40 247q2 14 16 14h31q16 0 13 -16zM207 41q63 0 97 35t46 109l19 124q3 22 3 41q0 102 -104 102q-63 0 -97.5 -35t-46.5 -109l-20 -124q-3 -23 -3 -41
q0 -53 26 -77.5t80 -24.5zM559 522q-3 -11 -14 -11h-19q-14 0 -11 15l45 162q3 12 15 12h26q17 0 12 -16z" />
    <glyph glyph-name="Dcroat" unicode="&#x110;" horiz-adv-x="600" 
d="M371 664q101 0 153 -44t52 -131q0 -13 -1.5 -26.5t-3.5 -27.5l-34 -210q-18 -113 -82.5 -169t-182.5 -56h-201q-16 0 -13 16l46 292h-54q-16 0 -13 16l4 27q2 14 16 14h56l45 285q2 14 16 14h197zM505 427q2 14 3.5 26.5t1.5 24.5q0 129 -147 129h-147l-38 -242h138
q16 0 13 -16l-4 -27q-2 -14 -16 -14h-140l-40 -251h145q88 0 136.5 44.5t63.5 137.5z" />
    <glyph glyph-name="dcroat" unicode="&#x111;" horiz-adv-x="490" 
d="M529 613q15 0 13 -15l-4 -23q-1 -13 -15 -13h-53l-62 -388q-29 -186 -204 -186q-80 0 -122.5 37.5t-42.5 108.5q0 11 1 22t3 22l22 142q29 185 199 185q95 0 124 -66h1l20 123h-136q-15 0 -12 15l4 23q1 13 15 13h137l12 73q2 14 16 14h31q16 0 13 -16l-11 -71h51z
M369 309q3 22 3 41q0 102 -104 102q-63 0 -97.5 -35t-46.5 -109l-20 -124q-3 -23 -3 -41q0 -53 26 -77.5t80 -24.5q63 0 97 35t46 109z" />
    <glyph glyph-name="Emacron" unicode="&#x112;" horiz-adv-x="538" 
d="M451 364q16 0 13 -16l-4 -27q-2 -14 -16 -14h-285l-40 -250h327q16 0 13 -16l-4 -27q-2 -14 -16 -14h-378q-16 0 -13 16l100 634q2 14 16 14h378q16 0 14 -16l-4 -27q-2 -14 -16 -14h-330l-38 -243h283zM499 783q-1 -13 -15 -13h-227q-15 0 -13 15l3 22q1 13 15 13h228
q16 0 13 -15z" />
    <glyph glyph-name="emacron" unicode="&#x113;" horiz-adv-x="454" 
d="M266 505q78 0 120 -37t42 -109q0 -10 -1 -21t-3 -22l-12 -75q-2 -14 -16 -14h-285l-6 -40q-4 -23 -4 -42q0 -54 29.5 -79t89.5 -25q33 0 60 12.5t54 38.5q11 12 21 -1l14 -19q9 -11 -1 -21q-64 -63 -153 -63q-85 0 -130.5 37.5t-45.5 111.5q0 11 1 22t3 22l22 139
q15 92 64 138.5t137 46.5zM365 309q2 12 3 22.5t1 20.5q0 52 -26 76t-79 24q-62 0 -96 -34.5t-44 -109.5l-4 -30h240zM421 618q-1 -13 -15 -13h-227q-15 0 -13 15l3 22q1 13 15 13h228q16 0 13 -15z" />
    <glyph glyph-name="Ebreve" unicode="&#x114;" horiz-adv-x="538" 
d="M451 364q16 0 13 -16l-4 -27q-2 -14 -16 -14h-285l-40 -250h327q16 0 13 -16l-4 -27q-2 -14 -16 -14h-378q-16 0 -13 16l100 634q2 14 16 14h378q16 0 14 -16l-4 -27q-2 -14 -16 -14h-330l-38 -243h283zM495 860q15 0 12 -15q-14 -48 -49 -73t-85 -25q-51 0 -81 26.5
t-33 73.5q0 13 13 13h20q13 0 14 -13q3 -24 20.5 -38t46.5 -14q30 0 53 14.5t34 39.5q4 11 15 11h20z" />
    <glyph glyph-name="ebreve" unicode="&#x115;" horiz-adv-x="454" 
d="M266 505q78 0 120 -37t42 -109q0 -10 -1 -21t-3 -22l-12 -75q-2 -14 -16 -14h-285l-6 -40q-4 -23 -4 -42q0 -54 29.5 -79t89.5 -25q33 0 60 12.5t54 38.5q11 12 21 -1l14 -19q9 -11 -1 -21q-64 -63 -153 -63q-85 0 -130.5 37.5t-45.5 111.5q0 11 1 22t3 22l22 139
q15 92 64 138.5t137 46.5zM365 309q2 12 3 22.5t1 20.5q0 52 -26 76t-79 24q-62 0 -96 -34.5t-44 -109.5l-4 -30h240zM417 695q15 0 12 -15q-14 -48 -49 -73t-85 -25q-51 0 -81 26.5t-33 73.5q0 13 13 13h20q13 0 14 -13q3 -24 20.5 -38t46.5 -14q30 0 53 14.5t34 39.5
q4 11 15 11h20z" />
    <glyph glyph-name="Edotaccent" unicode="&#x116;" horiz-adv-x="538" 
d="M451 364q16 0 13 -16l-4 -27q-2 -14 -16 -14h-285l-40 -250h327q16 0 13 -16l-4 -27q-2 -14 -16 -14h-378q-16 0 -13 16l100 634q2 14 16 14h378q16 0 14 -16l-4 -27q-2 -14 -16 -14h-330l-38 -243h283zM372 758q-17 0 -27.5 10.5t-10.5 26.5q0 21 12.5 34t32.5 13
q17 0 28 -11t11 -28q0 -19 -13 -32t-33 -13z" />
    <glyph glyph-name="edotaccent" unicode="&#x117;" horiz-adv-x="454" 
d="M266 505q78 0 120 -37t42 -109q0 -10 -1 -21t-3 -22l-12 -75q-2 -14 -16 -14h-285l-6 -40q-4 -23 -4 -42q0 -54 29.5 -79t89.5 -25q33 0 60 12.5t54 38.5q11 12 21 -1l14 -19q9 -11 -1 -21q-64 -63 -153 -63q-85 0 -130.5 37.5t-45.5 111.5q0 11 1 22t3 22l22 139
q15 92 64 138.5t137 46.5zM365 309q2 12 3 22.5t1 20.5q0 52 -26 76t-79 24q-62 0 -96 -34.5t-44 -109.5l-4 -30h240zM294 593q-17 0 -27.5 10.5t-10.5 26.5q0 21 12.5 34t32.5 13q17 0 28 -11t11 -28q0 -19 -13 -32t-33 -13z" />
    <glyph glyph-name="Eogonek" unicode="&#x118;" horiz-adv-x="538" 
d="M542 664q16 0 14 -16l-4 -27q-2 -14 -16 -14h-330l-38 -243h283q16 0 13 -16l-4 -27q-2 -14 -16 -14h-285l-40 -250h327q16 0 13 -16l-4 -27q-2 -14 -16 -14h-10q-55 -17 -80 -43t-25 -52q0 -15 10.5 -24.5t25.5 -9.5q24 0 46 19q11 9 17 -2l10 -15q6 -9 -2 -16
q-17 -14 -36 -21.5t-43 -7.5q-32 0 -53.5 17.5t-21.5 47.5q0 32 18 59t55 47v1h-289q-16 0 -13 16l100 634q2 14 16 14h378z" />
    <glyph glyph-name="eogonek" unicode="&#x119;" horiz-adv-x="454" 
d="M266 505q78 0 120 -37t42 -109q0 -10 -1 -21t-3 -22l-12 -75q-2 -14 -16 -14h-285l-6 -40q-4 -23 -4 -42q0 -54 29.5 -79t89.5 -25q33 0 60 12.5t54 38.5q11 12 21 -1l14 -19q9 -11 -1 -21q-16 -16 -32.5 -27t-34.5 -19q-84 -41 -84 -99q0 -16 10 -25.5t26 -9.5
q13 0 23 5t20 13q12 10 19 -2l8 -12q7 -11 -2 -19q-16 -14 -33 -21t-41 -7q-35 0 -56 19t-21 51q0 47 46 89v1h-1q-85 0 -130.5 37.5t-45.5 111.5q0 11 1 22t3 22l22 139q15 92 64 138.5t137 46.5zM365 309q2 12 3 22.5t1 20.5q0 52 -26 76t-79 24q-62 0 -96 -34.5
t-44 -109.5l-4 -30h240z" />
    <glyph glyph-name="Ecaron" unicode="&#x11a;" horiz-adv-x="538" 
d="M451 364q16 0 13 -16l-4 -27q-2 -14 -16 -14h-285l-40 -250h327q16 0 13 -16l-4 -27q-2 -14 -16 -14h-378q-16 0 -13 16l100 634q2 14 16 14h378q16 0 14 -16l-4 -27q-2 -14 -16 -14h-330l-38 -243h283zM398 740q-7 -8 -17 -8h-32q-12 0 -16 10l-65 123q-8 15 9 15h25
q10 0 15 -9l51 -94l84 96q6 7 16 7h29q8 0 10.5 -4.5t-3.5 -11.5z" />
    <glyph glyph-name="ecaron" unicode="&#x11b;" horiz-adv-x="454" 
d="M266 505q78 0 120 -37t42 -109q0 -10 -1 -21t-3 -22l-12 -75q-2 -14 -16 -14h-285l-6 -40q-4 -23 -4 -42q0 -54 29.5 -79t89.5 -25q33 0 60 12.5t54 38.5q11 12 21 -1l14 -19q9 -11 -1 -21q-64 -63 -153 -63q-85 0 -130.5 37.5t-45.5 111.5q0 11 1 22t3 22l22 139
q15 92 64 138.5t137 46.5zM365 309q2 12 3 22.5t1 20.5q0 52 -26 76t-79 24q-62 0 -96 -34.5t-44 -109.5l-4 -30h240zM320 575q-7 -8 -17 -8h-32q-12 0 -16 10l-65 123q-8 15 9 15h25q10 0 15 -9l51 -94l84 96q6 7 16 7h29q8 0 10.5 -4.5t-3.5 -11.5z" />
    <glyph glyph-name="Gcircumflex" unicode="&#x11c;" horiz-adv-x="569" 
d="M517 228q-19 -119 -82 -179.5t-177 -60.5q-100 0 -153 47.5t-53 138.5q0 13 1.5 27t3.5 29l33 208q36 238 263 238q77 0 128.5 -31t73.5 -92q5 -14 -9 -20l-27 -11q-13 -6 -19 9q-36 88 -151 88q-85 0 -132.5 -48t-63.5 -147l-29 -185q-2 -15 -3.5 -29t-1.5 -27
q0 -71 36 -104.5t108 -33.5q86 0 132 48.5t62 148.5l8 47h-144q-16 0 -13 16l4 27q2 14 16 14h192q16 0 13 -16zM299 739q-6 -7 -16 -7h-28q-8 0 -10.5 4.5t3.5 11.5l105 124q7 8 17 8h32q12 0 16 -10l65 -123q8 -15 -9 -15h-25q-11 0 -15 9l-51 94z" />
    <glyph glyph-name="gcircumflex" unicode="&#x11d;" horiz-adv-x="487" 
d="M270 505q80 0 122.5 -37.5t42.5 -109.5q0 -11 -1 -21t-3 -22l-50 -316q-13 -81 -64.5 -126t-136.5 -45q-51 0 -91.5 14.5t-67.5 43.5q-10 10 0 21l15 19q10 13 22 1q45 -46 122 -46q61 0 96.5 33.5t45.5 94.5l8 53h-1q-44 -60 -132 -60q-75 0 -115.5 36.5t-40.5 107.5
q0 11 1 22.5t3 23.5l20 128q15 92 65 138.5t140 46.5zM209 55q119 0 142 145l18 110q3 22 3 41q0 101 -105 101q-63 0 -97 -35t-46 -109l-17 -110q-3 -23 -3 -41q0 -53 26 -77.5t79 -24.5zM223 574q-6 -7 -16 -7h-28q-8 0 -10.5 4.5t3.5 11.5l105 124q7 8 17 8h32
q12 0 16 -10l65 -123q8 -15 -9 -15h-25q-11 0 -15 9l-51 94z" />
    <glyph glyph-name="Gbreve" unicode="&#x11e;" horiz-adv-x="569" 
d="M517 228q-19 -119 -82 -179.5t-177 -60.5q-100 0 -153 47.5t-53 138.5q0 13 1.5 27t3.5 29l33 208q36 238 263 238q77 0 128.5 -31t73.5 -92q5 -14 -9 -20l-27 -11q-13 -6 -19 9q-36 88 -151 88q-85 0 -132.5 -48t-63.5 -147l-29 -185q-2 -15 -3.5 -29t-1.5 -27
q0 -71 36 -104.5t108 -33.5q86 0 132 48.5t62 148.5l8 47h-144q-16 0 -13 16l4 27q2 14 16 14h192q16 0 13 -16zM494 860q15 0 12 -15q-14 -48 -49 -73t-85 -25q-51 0 -81 26.5t-33 73.5q0 13 13 13h20q13 0 14 -13q3 -24 20.5 -38t46.5 -14q30 0 53 14.5t34 39.5
q4 11 15 11h20z" />
    <glyph glyph-name="gbreve" unicode="&#x11f;" horiz-adv-x="487" 
d="M270 505q80 0 122.5 -37.5t42.5 -109.5q0 -11 -1 -21t-3 -22l-50 -316q-13 -81 -64.5 -126t-136.5 -45q-51 0 -91.5 14.5t-67.5 43.5q-10 10 0 21l15 19q10 13 22 1q45 -46 122 -46q61 0 96.5 33.5t45.5 94.5l8 53h-1q-44 -60 -132 -60q-75 0 -115.5 36.5t-40.5 107.5
q0 11 1 22.5t3 23.5l20 128q15 92 65 138.5t140 46.5zM209 55q119 0 142 145l18 110q3 22 3 41q0 101 -105 101q-63 0 -97 -35t-46 -109l-17 -110q-3 -23 -3 -41q0 -53 26 -77.5t79 -24.5zM418 695q15 0 12 -15q-14 -48 -49 -73t-85 -25q-51 0 -81 26.5t-33 73.5q0 13 13 13
h20q13 0 14 -13q3 -24 20.5 -38t46.5 -14q30 0 53 14.5t34 39.5q4 11 15 11h20z" />
    <glyph glyph-name="Gdotaccent" unicode="&#x120;" horiz-adv-x="569" 
d="M517 228q-19 -119 -82 -179.5t-177 -60.5q-100 0 -153 47.5t-53 138.5q0 13 1.5 27t3.5 29l33 208q36 238 263 238q77 0 128.5 -31t73.5 -92q5 -14 -9 -20l-27 -11q-13 -6 -19 9q-36 88 -151 88q-85 0 -132.5 -48t-63.5 -147l-29 -185q-2 -15 -3.5 -29t-1.5 -27
q0 -71 36 -104.5t108 -33.5q86 0 132 48.5t62 148.5l8 47h-144q-16 0 -13 16l4 27q2 14 16 14h192q16 0 13 -16zM371 758q-17 0 -27.5 10.5t-10.5 26.5q0 21 12.5 34t32.5 13q17 0 28 -11t11 -28q0 -19 -13 -32t-33 -13z" />
    <glyph glyph-name="gdotaccent" unicode="&#x121;" horiz-adv-x="487" 
d="M270 505q80 0 122.5 -37.5t42.5 -109.5q0 -11 -1 -21t-3 -22l-50 -316q-13 -81 -64.5 -126t-136.5 -45q-51 0 -91.5 14.5t-67.5 43.5q-10 10 0 21l15 19q10 13 22 1q45 -46 122 -46q61 0 96.5 33.5t45.5 94.5l8 53h-1q-44 -60 -132 -60q-75 0 -115.5 36.5t-40.5 107.5
q0 11 1 22.5t3 23.5l20 128q15 92 65 138.5t140 46.5zM209 55q119 0 142 145l18 110q3 22 3 41q0 101 -105 101q-63 0 -97 -35t-46 -109l-17 -110q-3 -23 -3 -41q0 -53 26 -77.5t79 -24.5zM295 593q-17 0 -27.5 10.5t-10.5 26.5q0 21 12.5 34t32.5 13q17 0 28 -11t11 -28
q0 -19 -13 -32t-33 -13z" />
    <glyph glyph-name="Gcommaaccent" unicode="&#x122;" horiz-adv-x="569" 
d="M517 228q-19 -119 -82 -179.5t-177 -60.5q-100 0 -153 47.5t-53 138.5q0 13 1.5 27t3.5 29l33 208q36 238 263 238q77 0 128.5 -31t73.5 -92q5 -14 -9 -20l-27 -11q-13 -6 -19 9q-36 88 -151 88q-85 0 -132.5 -48t-63.5 -147l-29 -185q-2 -15 -3.5 -29t-1.5 -27
q0 -71 36 -104.5t108 -33.5q86 0 132 48.5t62 148.5l8 47h-144q-16 0 -13 16l4 27q2 14 16 14h192q16 0 13 -16zM240 -50q16 0 26.5 -11t10.5 -29q0 -29 -18 -54t-44 -36q-9 -4 -14 5l-4 8q-4 8 5 13q8 5 14.5 12t10.5 16q-30 5 -30 34q0 20 12 31t31 11z" />
    <glyph glyph-name="gcommaaccent" unicode="&#x123;" horiz-adv-x="487" 
d="M307 662q14 -2 22.5 -11t8.5 -23q0 -20 -13 -30.5t-31 -10.5q-17 0 -27 10t-10 28q0 29 18 55t46 37q8 3 12 -4l5 -10q4 -7 -4 -12q-18 -10 -27 -29zM270 505q80 0 122.5 -37.5t42.5 -109.5q0 -11 -1 -21t-3 -22l-50 -316q-13 -81 -64.5 -126t-136.5 -45
q-51 0 -91.5 14.5t-67.5 43.5q-10 10 0 21l15 19q10 13 22 1q45 -46 122 -46q61 0 96.5 33.5t45.5 94.5l8 53h-1q-44 -60 -132 -60q-75 0 -115.5 36.5t-40.5 107.5q0 11 1 22.5t3 23.5l20 128q15 92 65 138.5t140 46.5zM209 55q119 0 142 145l18 110q3 22 3 41
q0 101 -105 101q-63 0 -97 -35t-46 -109l-17 -110q-3 -23 -3 -41q0 -53 26 -77.5t79 -24.5z" />
    <glyph glyph-name="Hcircumflex" unicode="&#x124;" horiz-adv-x="623" 
d="M503 14q-2 -14 -16 -14h-35q-16 0 -13 16l46 292h-326l-47 -294q-2 -14 -16 -14h-35q-16 0 -13 16l100 634q2 14 16 14h35q16 0 13 -16l-44 -283h326l45 285q2 14 16 14h35q16 0 13 -16zM324 739q-6 -7 -16 -7h-28q-8 0 -10.5 4.5t3.5 11.5l105 124q7 8 17 8h32
q12 0 16 -10l65 -123q8 -15 -9 -15h-25q-11 0 -15 9l-51 94z" />
    <glyph glyph-name="hcircumflex" unicode="&#x125;" horiz-adv-x="500" 
d="M298 505q73 0 112 -36t39 -105q0 -11 -1 -22t-3 -23l-49 -305q-2 -14 -16 -14h-31q-16 0 -13 16l47 297q3 22 3 41q0 98 -103 98q-60 0 -93.5 -35t-44.5 -105l-48 -298q-2 -14 -16 -14h-31q-16 0 -13 16l106 670q2 14 16 14h31q16 0 13 -16l-37 -237h1q44 58 131 58z
M120 770q-6 -7 -16 -7h-28q-8 0 -10.5 4.5t3.5 11.5l105 124q7 8 17 8h32q12 0 16 -10l65 -123q8 -15 -9 -15h-25q-11 0 -15 9l-51 94z" />
    <glyph glyph-name="Hbar" unicode="&#x126;" horiz-adv-x="633" 
d="M640 524q15 0 13 -15l-4 -23q-1 -13 -15 -13h-54l-72 -459q-2 -14 -16 -14h-35q-16 0 -13 16l46 292h-326l-47 -294q-2 -14 -16 -14h-35q-16 0 -13 16l72 457h-52q-15 0 -13 15l4 23q1 13 15 13h54l20 126q2 14 16 14h35q16 0 13 -16l-19 -124h326l20 126q2 14 16 14h35
q16 0 13 -16l-20 -124h52zM499 365l17 108h-326l-17 -108h326z" />
    <glyph glyph-name="hbar" unicode="&#x127;" horiz-adv-x="503" 
d="M301 505q73 0 112 -36t39 -105q0 -11 -1 -22t-3 -23l-49 -305q-2 -14 -16 -14h-31q-16 0 -13 16l47 297q3 22 3 41q0 98 -103 98q-60 0 -93.5 -35t-44.5 -105l-48 -298q-2 -14 -16 -14h-31q-16 0 -13 16l86 546h-56q-15 0 -13 15l4 23q1 13 15 13h58l12 73q2 14 16 14h31
q16 0 13 -16l-11 -71h125q15 0 12 -15l-4 -23q-1 -13 -15 -13h-126l-18 -115h1q44 58 131 58z" />
    <glyph glyph-name="Itilde" unicode="&#x128;" horiz-adv-x="233" 
d="M112 14q-2 -14 -16 -14h-35q-16 0 -13 16l100 634q2 14 16 14h35q16 0 13 -16zM71 744q-16 0 -11 17q12 45 36.5 67.5t56.5 22.5q18 0 32 -7t31 -25q13 -14 22 -19t20 -5q32 0 48 46q3 11 14 11h17q16 0 11 -16q-26 -91 -93 -91q-17 0 -31.5 6.5t-32.5 25.5
q-13 14 -22 19t-20 5q-32 0 -48 -45q-5 -12 -15 -12h-15z" />
    <glyph glyph-name="itilde" unicode="&#x129;" horiz-adv-x="207" 
d="M50 0q-16 0 -13 16l73 463q2 14 16 14h31q16 0 13 -16l-73 -463q-2 -14 -16 -14h-31zM32 579q-16 0 -11 17q12 45 36.5 67.5t56.5 22.5q18 0 32 -7t31 -25q13 -14 22 -19t20 -5q32 0 48 46q3 11 14 11h17q16 0 11 -16q-26 -91 -93 -91q-17 0 -31.5 6.5t-32.5 25.5
q-13 14 -22 19t-20 5q-32 0 -48 -45q-5 -12 -15 -12h-15z" />
    <glyph glyph-name="Imacron" unicode="&#x12a;" horiz-adv-x="233" 
d="M112 14q-2 -14 -16 -14h-35q-16 0 -13 16l100 634q2 14 16 14h35q16 0 13 -16zM327 783q-1 -13 -15 -13h-227q-15 0 -13 15l3 22q1 13 15 13h228q16 0 13 -15z" />
    <glyph glyph-name="imacron" unicode="&#x12b;" horiz-adv-x="207" 
d="M50 0q-16 0 -13 16l73 463q2 14 16 14h31q16 0 13 -16l-73 -463q-2 -14 -16 -14h-31zM288 618q-1 -13 -15 -13h-227q-15 0 -13 15l3 22q1 13 15 13h228q16 0 13 -15z" />
    <glyph glyph-name="Ibreve" unicode="&#x12c;" horiz-adv-x="233" 
d="M112 14q-2 -14 -16 -14h-35q-16 0 -13 16l100 634q2 14 16 14h35q16 0 13 -16zM323 860q15 0 12 -15q-14 -48 -49 -73t-85 -25q-51 0 -81 26.5t-33 73.5q0 13 13 13h20q13 0 14 -13q3 -24 20.5 -38t46.5 -14q30 0 53 14.5t34 39.5q4 11 15 11h20z" />
    <glyph glyph-name="ibreve" unicode="&#x12d;" horiz-adv-x="207" 
d="M50 0q-16 0 -13 16l73 463q2 14 16 14h31q16 0 13 -16l-73 -463q-2 -14 -16 -14h-31zM284 695q15 0 12 -15q-14 -48 -49 -73t-85 -25q-51 0 -81 26.5t-33 73.5q0 13 13 13h20q13 0 14 -13q3 -24 20.5 -38t46.5 -14q30 0 53 14.5t34 39.5q4 11 15 11h20z" />
    <glyph glyph-name="Iogonek" unicode="&#x12e;" horiz-adv-x="233" 
d="M97 0q-82 -38 -82 -92q0 -16 9.5 -26.5t25.5 -10.5q24 0 46 19q11 9 17 -2l10 -15q6 -9 -2 -16q-17 -14 -36 -21.5t-42 -7.5q-34 0 -55 18.5t-21 49.5q0 32 18.5 61t61.5 52v5t1 7l100 629q2 14 16 14h35q16 0 13 -16l-100 -634q-2 -14 -15 -14z" />
    <glyph glyph-name="iogonek" unicode="&#x12f;" horiz-adv-x="206" 
d="M157 493q16 0 13 -16l-73 -463q-2 -9 -9 -13q-80 -40 -80 -93q0 -16 9.5 -26.5t25.5 -10.5q24 0 46 19q11 9 17 -2l10 -15q6 -9 -2 -16q-34 -29 -78 -29q-34 0 -55 18.5t-21 49.5q0 32 17.5 61t58.5 52v4t1 7l73 459q2 14 16 14h31zM161 593q-17 0 -27.5 10.5t-10.5 27.5
q0 21 13 33.5t32 12.5q17 0 28 -10.5t11 -26.5q0 -20 -13 -33.5t-33 -13.5z" />
    <glyph glyph-name="Idotaccent" unicode="&#x130;" horiz-adv-x="233" 
d="M112 14q-2 -14 -16 -14h-35q-16 0 -13 16l100 634q2 14 16 14h35q16 0 13 -16zM200 758q-17 0 -27.5 10.5t-10.5 26.5q0 21 12.5 34t32.5 13q17 0 28 -11t11 -28q0 -19 -13 -32t-33 -13z" />
    <glyph glyph-name="dotlessi" unicode="&#x131;" horiz-adv-x="207" 
d="M50 0q-16 0 -13 16l73 463q2 14 16 14h31q16 0 13 -16l-73 -463q-2 -14 -16 -14h-31z" />
    <glyph glyph-name="IJ" unicode="&#x132;" horiz-adv-x="745" 
d="M112 14q-2 -14 -16 -14h-35q-16 0 -13 16l100 634q2 14 16 14h35q16 0 13 -16zM669 217q-35 -229 -244 -229q-142 0 -194 111q-6 13 6 20l25 16q14 8 21 -6q43 -84 143 -84q78 0 122 45.5t58 139.5l66 420q2 14 16 14h35q16 0 13 -16z" />
    <glyph glyph-name="ij" unicode="&#x133;" horiz-adv-x="413" 
d="M161 593q-17 0 -27.5 10.5t-10.5 27.5q0 21 13 33.5t32 12.5q17 0 28 -10.5t11 -26.5q0 -20 -13 -33.5t-33 -13.5zM50 0q-16 0 -13 16l73 463q2 14 16 14h31q16 0 13 -16l-73 -463q-2 -14 -16 -14h-31zM368 593q-17 0 -27.5 10.5t-10.5 27.5q0 21 13 33.5t32 12.5
q17 0 28 -10.5t11 -26.5q0 -20 -13 -33.5t-33 -13.5zM145 -107q79 0 92 84l80 502q2 14 16 14h31q16 0 13 -16l-79 -501q-22 -136 -150 -136h-9q-17 0 -14 16l4 23q3 14 16 14z" />
    <glyph glyph-name="Jcircumflex" unicode="&#x134;" horiz-adv-x="518" 
d="M442 217q-35 -229 -244 -229q-142 0 -194 111q-6 13 6 20l25 16q14 8 21 -6q43 -84 143 -84q78 0 122 45.5t58 139.5l66 420q2 14 16 14h35q16 0 13 -16zM426 739q-6 -7 -16 -7h-28q-8 0 -10.5 4.5t3.5 11.5l105 124q7 8 17 8h32q12 0 16 -10l65 -123q8 -15 -9 -15h-25
q-11 0 -15 9l-51 94z" />
    <glyph glyph-name="jcircumflex" unicode="&#x135;" horiz-adv-x="206" 
d="M-62 -107q79 0 92 84l80 502q2 14 16 14h31q16 0 13 -16l-79 -501q-22 -136 -150 -136h-9q-17 0 -14 16l4 23q3 14 16 14zM89 574q-6 -7 -16 -7h-28q-8 0 -10.5 4.5t3.5 11.5l105 124q7 8 17 8h32q12 0 16 -10l65 -123q8 -15 -9 -15h-25q-11 0 -15 9l-51 94z" />
    <glyph glyph-name="Kcommaaccent" unicode="&#x136;" horiz-adv-x="550" 
d="M423 0q-11 0 -18 9l-244 311l-49 -306q-2 -14 -16 -14h-35q-16 0 -13 16l100 634q2 14 16 14h35q16 0 13 -16l-45 -287l325 296q8 7 19 7h47q11 0 13.5 -5.5t-5.5 -12.5l-342 -310l252 -318q6 -8 3.5 -13t-11.5 -5h-45zM242 -50q16 0 26.5 -11t10.5 -29q0 -29 -18 -54
t-44 -36q-9 -4 -14 5l-4 8q-4 8 5 13q8 5 14.5 12t10.5 16q-30 5 -30 34q0 20 12 31t31 11z" />
    <glyph glyph-name="kcommaaccent" unicode="&#x137;" horiz-adv-x="436" 
d="M327 0q-11 0 -18 9l-176 229l-36 -224q-2 -14 -16 -14h-31q-16 0 -13 16l106 670q2 14 16 14h31q16 0 13 -16l-64 -409l231 211q8 7 19 7h42q11 0 13.5 -5.5t-5.5 -12.5l-247 -223l184 -234q5 -8 2.5 -13t-11.5 -5h-40zM191 -50q16 0 26.5 -11t10.5 -29q0 -29 -18 -54
t-44 -36q-9 -4 -14 5l-4 8q-4 8 5 13q8 5 14.5 12t10.5 16q-30 5 -30 34q0 20 12 31t31 11z" />
    <glyph glyph-name="kgreenlandic" unicode="&#x138;" horiz-adv-x="436" 
d="M376 18q5 -8 2.5 -13t-11.5 -5h-40q-11 0 -18 9l-176 229l-36 -224q-2 -14 -16 -14h-31q-16 0 -13 16l73 463q2 14 16 14h31q16 0 13 -16l-32 -202l232 211q8 7 19 7h42q11 0 13.5 -5.5t-5.5 -12.5l-247 -223z" />
    <glyph glyph-name="Lacute" unicode="&#x139;" horiz-adv-x="497" 
d="M440 14q-2 -14 -16 -14h-363q-16 0 -13 16l100 634q2 14 16 14h35q16 0 13 -16l-93 -591h312q17 0 14 -16zM318 880q9 0 11.5 -5t-3.5 -12l-108 -124q-6 -7 -16 -7h-31q-8 0 -10 4.5t3 11.5l99 124q7 8 18 8h37z" />
    <glyph glyph-name="lacute" unicode="&#x13a;" horiz-adv-x="207" 
d="M50 0q-16 0 -13 16l106 670q2 14 16 14h31q16 0 13 -16l-106 -670q-2 -14 -16 -14h-31zM310 911q9 0 11.5 -5t-3.5 -12l-108 -124q-6 -7 -16 -7h-31q-8 0 -10 4.5t3 11.5l99 124q7 8 18 8h37z" />
    <glyph glyph-name="Lcommaaccent" unicode="&#x13b;" horiz-adv-x="497" 
d="M440 14q-2 -14 -16 -14h-363q-16 0 -13 16l100 634q2 14 16 14h35q16 0 13 -16l-93 -591h312q17 0 14 -16zM228 -50q16 0 26.5 -11t10.5 -29q0 -29 -18 -54t-44 -36q-9 -4 -14 5l-4 8q-4 8 5 13q8 5 14.5 12t10.5 16q-30 5 -30 34q0 20 12 31t31 11z" />
    <glyph glyph-name="lcommaaccent" unicode="&#x13c;" horiz-adv-x="207" 
d="M50 0q-16 0 -13 16l106 670q2 14 16 14h31q16 0 13 -16l-106 -670q-2 -14 -16 -14h-31zM53 -50q16 0 26.5 -11t10.5 -29q0 -29 -18 -54t-44 -36q-9 -4 -14 5l-4 8q-4 8 5 13q8 5 14.5 12t10.5 16q-30 5 -30 34q0 20 12 31t31 11z" />
    <glyph glyph-name="Lcaron" unicode="&#x13d;" horiz-adv-x="497" 
d="M440 14q-2 -14 -16 -14h-363q-16 0 -13 16l100 634q2 14 16 14h35q16 0 13 -16l-93 -591h312q17 0 14 -16zM323 522q-3 -11 -14 -11h-19q-14 0 -11 15l45 162q3 12 15 12h26q17 0 12 -16z" />
    <glyph glyph-name="lcaron" unicode="&#x13e;" horiz-adv-x="207" 
d="M50 0q-16 0 -13 16l106 670q2 14 16 14h31q16 0 13 -16l-106 -670q-2 -14 -16 -14h-31zM272 522q-3 -11 -14 -11h-19q-14 0 -11 15l45 162q3 12 15 12h26q17 0 12 -16z" />
    <glyph glyph-name="Ldot" unicode="&#x13f;" horiz-adv-x="497" 
d="M440 14q-2 -14 -16 -14h-363q-16 0 -13 16l100 634q2 14 16 14h35q16 0 13 -16l-93 -591h312q17 0 14 -16zM375 290q-17 0 -27.5 10.5t-10.5 26.5q0 21 12.5 34t32.5 13q17 0 28 -11t11 -28q0 -19 -13 -32t-33 -13z" />
    <glyph glyph-name="ldot" unicode="&#x140;" horiz-adv-x="240" 
d="M50 0q-16 0 -13 16l106 670q2 14 16 14h31q16 0 13 -16l-106 -670q-2 -14 -16 -14h-31zM233 290q-17 0 -27.5 10.5t-10.5 26.5q0 21 12.5 34t32.5 13q17 0 28 -11t11 -28q0 -19 -13 -32t-33 -13z" />
    <glyph glyph-name="Lslash" unicode="&#x141;" horiz-adv-x="507" 
d="M441 57q17 0 14 -16l-5 -27q-2 -14 -16 -14h-363q-16 0 -13 16l29 184l-59 -36q-8 -5 -13 -1.5t-3 12.5l6 36q1 10 11 16l69 42l60 381q2 14 16 14h35q16 0 13 -16l-53 -335l234 144q8 5 12.5 1.5t2.5 -12.5l-6 -36q-1 -10 -11 -16l-242 -150l-30 -187h312z" />
    <glyph glyph-name="lslash" unicode="&#x142;" horiz-adv-x="225" 
d="M239 480q8 5 13 2t3 -12l-5 -33q-1 -10 -10 -16l-78 -52l-56 -355q-2 -14 -16 -14h-31q-16 0 -13 16l49 308l-68 -45q-8 -5 -12.5 -2t-3.5 12l5 33q2 11 11 16l78 52l47 296q2 14 16 14h31q16 0 13 -16l-39 -248z" />
    <glyph glyph-name="Nacute" unicode="&#x143;" horiz-adv-x="623" 
d="M449 0q-14 0 -18 12l-233 552h-1l-87 -550q-2 -14 -16 -14h-33q-16 0 -13 16l100 634q2 14 16 14h43q13 0 18 -12l229 -543h1l86 541q2 14 16 14h33q16 0 13 -16l-100 -634q-2 -14 -16 -14h-38zM514 880q9 0 11.5 -5t-3.5 -12l-108 -124q-6 -7 -16 -7h-31q-8 0 -10 4.5
t3 11.5l99 124q7 8 18 8h37z" />
    <glyph glyph-name="nacute" unicode="&#x144;" horiz-adv-x="494" 
d="M377 313q4 23 4 42q0 51 -26 74t-78 23q-61 0 -94 -34t-44 -106l-48 -298q-2 -14 -16 -14h-31q-16 0 -13 16l49 308q14 91 63.5 136t137.5 45q78 0 120 -36.5t42 -106.5q0 -10 -1 -21t-3 -22l-48 -305q-2 -14 -16 -14h-31q-16 0 -13 16zM424 715q9 0 11.5 -5t-3.5 -12
l-108 -124q-6 -7 -16 -7h-31q-8 0 -10 4.5t3 11.5l99 124q7 8 18 8h37z" />
    <glyph glyph-name="Ncommaaccent" unicode="&#x145;" horiz-adv-x="623" 
d="M449 0q-14 0 -18 12l-233 552h-1l-87 -550q-2 -14 -16 -14h-33q-16 0 -13 16l100 634q2 14 16 14h43q13 0 18 -12l229 -543h1l86 541q2 14 16 14h33q16 0 13 -16l-100 -634q-2 -14 -16 -14h-38zM262 -50q16 0 26.5 -11t10.5 -29q0 -29 -18 -54t-44 -36q-9 -4 -14 5l-4 8
q-4 8 5 13q8 5 14.5 12t10.5 16q-30 5 -30 34q0 20 12 31t31 11z" />
    <glyph glyph-name="ncommaaccent" unicode="&#x146;" horiz-adv-x="494" 
d="M377 313q4 23 4 42q0 51 -26 74t-78 23q-61 0 -94 -34t-44 -106l-48 -298q-2 -14 -16 -14h-31q-16 0 -13 16l49 308q14 91 63.5 136t137.5 45q78 0 120 -36.5t42 -106.5q0 -10 -1 -21t-3 -22l-48 -305q-2 -14 -16 -14h-31q-16 0 -13 16zM197 -50q16 0 26.5 -11t10.5 -29
q0 -29 -18 -54t-44 -36q-9 -4 -14 5l-4 8q-4 8 5 13q8 5 14.5 12t10.5 16q-30 5 -30 34q0 20 12 31t31 11z" />
    <glyph glyph-name="Ncaron" unicode="&#x147;" horiz-adv-x="623" 
d="M449 0q-14 0 -18 12l-233 552h-1l-87 -550q-2 -14 -16 -14h-33q-16 0 -13 16l100 634q2 14 16 14h43q13 0 18 -12l229 -543h1l86 541q2 14 16 14h33q16 0 13 -16l-100 -634q-2 -14 -16 -14h-38zM422 740q-7 -8 -17 -8h-32q-12 0 -16 10l-65 123q-8 15 9 15h25q10 0 15 -9
l51 -94l84 96q6 7 16 7h29q8 0 10.5 -4.5t-3.5 -11.5z" />
    <glyph glyph-name="ncaron" unicode="&#x148;" horiz-adv-x="494" 
d="M377 313q4 23 4 42q0 51 -26 74t-78 23q-61 0 -94 -34t-44 -106l-48 -298q-2 -14 -16 -14h-31q-16 0 -13 16l49 308q14 91 63.5 136t137.5 45q78 0 120 -36.5t42 -106.5q0 -10 -1 -21t-3 -22l-48 -305q-2 -14 -16 -14h-31q-16 0 -13 16zM332 575q-7 -8 -17 -8h-32
q-12 0 -16 10l-65 123q-8 15 9 15h25q10 0 15 -9l51 -94l84 96q6 7 16 7h29q8 0 10.5 -4.5t-3.5 -11.5z" />
    <glyph glyph-name="napostrophe" unicode="&#x149;" horiz-adv-x="494" 
d="M377 313q4 23 4 42q0 51 -26 74t-78 23q-61 0 -94 -34t-44 -106l-48 -298q-2 -14 -16 -14h-31q-16 0 -13 16l49 308q14 91 63.5 136t137.5 45q78 0 120 -36.5t42 -106.5q0 -10 -1 -21t-3 -22l-48 -305q-2 -14 -16 -14h-31q-16 0 -13 16zM173 703q17 0 27.5 -10t10.5 -29
q0 -28 -20 -65t-58 -66q-8 -5 -13 2l-9 11q-6 6 2 13q32 26 45 66q-14 3 -22 12.5t-8 23.5q0 20 13 31t32 11z" />
    <glyph glyph-name="Eng" unicode="&#x14a;" horiz-adv-x="623" 
d="M590 664q16 0 13 -16l-106 -672q-21 -136 -150 -136h-28q-16 0 -13 16l4 27q2 14 16 14h16q81 0 92 82l3 20l-239 565h-1l-87 -550q-2 -14 -16 -14h-33q-16 0 -13 16l100 634q2 14 16 14h43q13 0 18 -12l229 -543h1l86 541q2 14 16 14h33z" />
    <glyph glyph-name="eng" unicode="&#x14b;" horiz-adv-x="494" 
d="M377 313q2 12 3 22t1 20q0 51 -26 74t-78 23q-61 0 -94 -34t-44 -106l-48 -298q-2 -14 -16 -14h-31q-16 0 -13 16l49 308q14 91 63.5 136t137.5 45q78 0 120 -36.5t42 -106.5q0 -10 -1 -20.5t-3 -22.5l-54 -343q-21 -136 -150 -136h-9q-17 0 -14 16l4 23q3 14 16 14
q79 0 92 84z" />
    <glyph glyph-name="Omacron" unicode="&#x14c;" horiz-adv-x="585" 
d="M350 676q102 0 156 -47.5t54 -138.5q0 -14 -1.5 -27.5t-3.5 -28.5l-33 -208q-36 -238 -260 -238q-102 0 -156 47.5t-54 138.5q0 14 1.5 27.5t3.5 28.5l33 208q36 238 260 238zM488 426q2 15 3.5 28.5t1.5 26.5q0 71 -36.5 104.5t-108.5 33.5q-86 0 -133 -48t-62 -146
l-29 -187q-2 -15 -3.5 -28.5t-1.5 -26.5q0 -138 146 -138q85 0 131.5 48t62.5 146zM504 783q-1 -13 -15 -13h-227q-15 0 -13 15l3 22q1 13 15 13h228q16 0 13 -15z" />
    <glyph glyph-name="omacron" unicode="&#x14d;" horiz-adv-x="473" 
d="M270 505q80 0 122.5 -37t42.5 -109q0 -11 -1 -21t-3 -22l-23 -143q-29 -185 -204 -185q-80 0 -123 37t-43 109q0 10 1 21t3 22l23 143q15 92 65 138.5t140 46.5zM368 309q2 12 3 22.5t1 20.5q0 100 -105 100q-64 0 -97.5 -35t-45.5 -109l-20 -124q-3 -23 -3 -41
q0 -53 26 -77.5t80 -24.5q63 0 96.5 35t45.5 109zM422 618q-1 -13 -15 -13h-227q-15 0 -13 15l3 22q1 13 15 13h228q16 0 13 -15z" />
    <glyph glyph-name="Obreve" unicode="&#x14e;" horiz-adv-x="585" 
d="M350 676q102 0 156 -47.5t54 -138.5q0 -14 -1.5 -27.5t-3.5 -28.5l-33 -208q-36 -238 -260 -238q-102 0 -156 47.5t-54 138.5q0 14 1.5 27.5t3.5 28.5l33 208q36 238 260 238zM488 426q2 15 3.5 28.5t1.5 26.5q0 71 -36.5 104.5t-108.5 33.5q-86 0 -133 -48t-62 -146
l-29 -187q-2 -15 -3.5 -28.5t-1.5 -26.5q0 -138 146 -138q85 0 131.5 48t62.5 146zM500 860q15 0 12 -15q-14 -48 -49 -73t-85 -25q-51 0 -81 26.5t-33 73.5q0 13 13 13h20q13 0 14 -13q3 -24 20.5 -38t46.5 -14q30 0 53 14.5t34 39.5q4 11 15 11h20z" />
    <glyph glyph-name="obreve" unicode="&#x14f;" horiz-adv-x="473" 
d="M270 505q80 0 122.5 -37t42.5 -109q0 -11 -1 -21t-3 -22l-23 -143q-29 -185 -204 -185q-80 0 -123 37t-43 109q0 10 1 21t3 22l23 143q15 92 65 138.5t140 46.5zM368 309q2 12 3 22.5t1 20.5q0 100 -105 100q-64 0 -97.5 -35t-45.5 -109l-20 -124q-3 -23 -3 -41
q0 -53 26 -77.5t80 -24.5q63 0 96.5 35t45.5 109zM418 695q15 0 12 -15q-14 -48 -49 -73t-85 -25q-51 0 -81 26.5t-33 73.5q0 13 13 13h20q13 0 14 -13q3 -24 20.5 -38t46.5 -14q30 0 53 14.5t34 39.5q4 11 15 11h20z" />
    <glyph glyph-name="Ohungarumlaut" unicode="&#x150;" horiz-adv-x="585" 
d="M350 676q102 0 156 -47.5t54 -138.5q0 -14 -1.5 -27.5t-3.5 -28.5l-33 -208q-36 -238 -260 -238q-102 0 -156 47.5t-54 138.5q0 14 1.5 27.5t3.5 28.5l33 208q36 238 260 238zM488 426q2 15 3.5 28.5t1.5 26.5q0 71 -36.5 104.5t-108.5 33.5q-86 0 -133 -48t-62 -146
l-29 -187q-2 -15 -3.5 -28.5t-1.5 -26.5q0 -138 146 -138q85 0 131.5 48t62.5 146zM321 740q-5 -8 -16 -8h-24q-8 0 -10.5 4.5t2.5 11.5l93 123q6 9 17 9h31q9 0 11.5 -5t-3.5 -12zM465 740q-5 -8 -16 -8h-24q-8 0 -10.5 4.5t2.5 11.5l92 123q6 9 17 9h31q9 0 11.5 -5
t-3.5 -12z" />
    <glyph glyph-name="ohungarumlaut" unicode="&#x151;" horiz-adv-x="473" 
d="M270 505q80 0 122.5 -37t42.5 -109q0 -11 -1 -21t-3 -22l-23 -143q-29 -185 -204 -185q-80 0 -123 37t-43 109q0 10 1 21t3 22l23 143q15 92 65 138.5t140 46.5zM368 309q2 12 3 22.5t1 20.5q0 100 -105 100q-64 0 -97.5 -35t-45.5 -109l-20 -124q-3 -23 -3 -41
q0 -53 26 -77.5t80 -24.5q63 0 96.5 35t45.5 109zM239 575q-5 -8 -16 -8h-24q-8 0 -10.5 4.5t2.5 11.5l93 123q6 9 17 9h31q9 0 11.5 -5t-3.5 -12zM383 575q-5 -8 -16 -8h-24q-8 0 -10.5 4.5t2.5 11.5l92 123q6 9 17 9h31q9 0 11.5 -5t-3.5 -12z" />
    <glyph glyph-name="OE" unicode="&#x152;" horiz-adv-x="895" 
d="M809 364q16 0 13 -16l-5 -27q-2 -14 -16 -14h-285l-40 -250h328q16 0 13 -16l-4 -27q-2 -14 -16 -14h-540q-205 0 -205 175q0 13 1.5 26.5t3.5 28.5l33 209q18 114 82.5 169.5t182.5 55.5h545q16 0 13 -16l-4 -27q-2 -14 -16 -14h-330l-38 -243h284zM353 607
q-170 0 -200 -182l-29 -187q-2 -14 -3 -27t-1 -24q0 -67 35 -98.5t109 -31.5h147l87 550h-145z" />
    <glyph glyph-name="oe" unicode="&#x153;" horiz-adv-x="761" 
d="M579 505q75 0 115.5 -38t40.5 -108q0 -23 -4 -43l-13 -75q-2 -14 -16 -14h-285l-6 -40q-2 -12 -3 -22.5t-1 -20.5q0 -55 30 -79t90 -24q32 0 58.5 12.5t53.5 38.5q12 12 22 -1l14 -19q9 -11 -1 -21q-64 -63 -150 -63q-130 0 -157 94h-1q-45 -94 -167 -94q-77 0 -119 37
t-42 108q0 11 1 21.5t3 22.5l23 143q30 185 200 185q121 0 149 -92h1q45 92 164 92zM207 41q63 0 96.5 35t45.5 109l19 124q2 12 3 22.5t1 20.5q0 100 -105 100q-64 0 -97.5 -35t-45.5 -109l-20 -124q-3 -23 -3 -41q0 -53 26 -77.5t80 -24.5zM671 309q2 12 3 22.5t1 20.5
q0 52 -26 76t-78 24q-63 0 -97 -35t-45 -110l-4 -29h241z" />
    <glyph glyph-name="Racute" unicode="&#x154;" horiz-adv-x="567" 
d="M482 18q8 -18 -12 -18h-39q-12 0 -17 11l-119 261h-142l-41 -258q-2 -14 -16 -14h-35q-16 0 -13 16l100 634q2 14 16 14h178q101 0 152.5 -40.5t51.5 -124.5q0 -99 -45 -153.5t-142 -68.5zM480 492q0 60 -35.5 87.5t-108.5 27.5h-130l-44 -278h128q98 0 144 39t46 124z
M479 880q9 0 11.5 -5t-3.5 -12l-108 -124q-6 -7 -16 -7h-31q-8 0 -10 4.5t3 11.5l99 124q7 8 18 8h37z" />
    <glyph glyph-name="racute" unicode="&#x155;" horiz-adv-x="363" 
d="M81 332q14 87 58 130t123 43q66 0 110 -33q12 -9 2 -22l-15 -19q-9 -12 -21 -2q-15 12 -34.5 17.5t-40.5 5.5q-54 0 -82.5 -30.5t-39.5 -96.5l-50 -311q-2 -14 -16 -14h-31q-16 0 -13 16zM384 715q9 0 11.5 -5t-3.5 -12l-108 -124q-6 -7 -16 -7h-31q-8 0 -10 4.5t3 11.5
l99 124q7 8 18 8h37z" />
    <glyph glyph-name="Rcommaaccent" unicode="&#x156;" horiz-adv-x="567" 
d="M482 18q8 -18 -12 -18h-39q-12 0 -17 11l-119 261h-142l-41 -258q-2 -14 -16 -14h-35q-16 0 -13 16l100 634q2 14 16 14h178q101 0 152.5 -40.5t51.5 -124.5q0 -99 -45 -153.5t-142 -68.5zM480 492q0 60 -35.5 87.5t-108.5 27.5h-130l-44 -278h128q98 0 144 39t46 124z
M248 -50q16 0 26.5 -11t10.5 -29q0 -29 -18 -54t-44 -36q-9 -4 -14 5l-4 8q-4 8 5 13q8 5 14.5 12t10.5 16q-30 5 -30 34q0 20 12 31t31 11z" />
    <glyph glyph-name="rcommaaccent" unicode="&#x157;" horiz-adv-x="363" 
d="M81 332q14 87 58 130t123 43q66 0 110 -33q12 -9 2 -22l-15 -19q-9 -12 -21 -2q-15 12 -34.5 17.5t-40.5 5.5q-54 0 -82.5 -30.5t-39.5 -96.5l-50 -311q-2 -14 -16 -14h-31q-16 0 -13 16zM48 -50q16 0 26.5 -11t10.5 -29q0 -29 -18 -54t-44 -36q-9 -4 -14 5l-4 8
q-4 8 5 13q8 5 14.5 12t10.5 16q-30 5 -30 34q0 20 12 31t31 11z" />
    <glyph glyph-name="Rcaron" unicode="&#x158;" horiz-adv-x="567" 
d="M482 18q8 -18 -12 -18h-39q-12 0 -17 11l-119 261h-142l-41 -258q-2 -14 -16 -14h-35q-16 0 -13 16l100 634q2 14 16 14h178q101 0 152.5 -40.5t51.5 -124.5q0 -99 -45 -153.5t-142 -68.5zM480 492q0 60 -35.5 87.5t-108.5 27.5h-130l-44 -278h128q98 0 144 39t46 124z
M387 740q-7 -8 -17 -8h-32q-12 0 -16 10l-65 123q-8 15 9 15h25q10 0 15 -9l51 -94l84 96q6 7 16 7h29q8 0 10.5 -4.5t-3.5 -11.5z" />
    <glyph glyph-name="rcaron" unicode="&#x159;" horiz-adv-x="363" 
d="M81 332q14 87 58 130t123 43q66 0 110 -33q12 -9 2 -22l-15 -19q-9 -12 -21 -2q-15 12 -34.5 17.5t-40.5 5.5q-54 0 -82.5 -30.5t-39.5 -96.5l-50 -311q-2 -14 -16 -14h-31q-16 0 -13 16zM292 575q-7 -8 -17 -8h-32q-12 0 -16 10l-65 123q-8 15 9 15h25q10 0 15 -9
l51 -94l84 96q6 7 16 7h29q8 0 10.5 -4.5t-3.5 -11.5z" />
    <glyph glyph-name="Sacute" unicode="&#x15a;" horiz-adv-x="507" 
d="M322 676q135 0 188 -87q8 -12 -5 -20l-26 -18q-12 -9 -21 5q-41 63 -139 63q-39 0 -70.5 -11t-54 -30.5t-35 -46.5t-12.5 -60q0 -23 7 -40t24 -30.5t45 -23t69 -17.5q50 -9 84 -22.5t55 -32t30 -44t9 -59.5q0 -49 -17 -88.5t-48 -67.5t-75 -43t-99 -15q-154 0 -215 100
q-7 11 4 21l25 19q13 10 21 -4q50 -79 169 -79q78 0 124.5 40t46.5 108q0 22 -7 39.5t-24 30.5t-45 22.5t-69 17.5q-50 9 -84 22.5t-55 32.5t-30.5 44.5t-9.5 59.5q0 49 17 88.5t48.5 67.5t75.5 43t99 15zM458 880q9 0 11.5 -5t-3.5 -12l-108 -124q-6 -7 -16 -7h-31
q-8 0 -10 4.5t3 11.5l99 124q7 8 18 8h37z" />
    <glyph glyph-name="sacute" unicode="&#x15b;" horiz-adv-x="412" 
d="M368 153q0 -77 -51 -121t-140 -44q-115 0 -168 62q-9 11 1 21l18 19q10 11 21 -1q43 -48 129 -48q60 0 94.5 28t34.5 76q0 34 -24 51.5t-87 27.5q-78 12 -108.5 39.5t-30.5 78.5q0 75 53 119t143 44q42 0 77.5 -11.5t59.5 -32.5q11 -11 1 -22l-17 -19q-9 -12 -21 -1
q-36 33 -101 33q-63 0 -98.5 -27t-35.5 -75q0 -31 22.5 -47.5t83.5 -25.5q80 -12 112 -41t32 -83zM383 715q9 0 11.5 -5t-3.5 -12l-108 -124q-6 -7 -16 -7h-31q-8 0 -10 4.5t3 11.5l99 124q7 8 18 8h37z" />
    <glyph glyph-name="Scircumflex" unicode="&#x15c;" horiz-adv-x="507" 
d="M322 676q135 0 188 -87q8 -12 -5 -20l-26 -18q-12 -9 -21 5q-41 63 -139 63q-39 0 -70.5 -11t-54 -30.5t-35 -46.5t-12.5 -60q0 -23 7 -40t24 -30.5t45 -23t69 -17.5q50 -9 84 -22.5t55 -32t30 -44t9 -59.5q0 -49 -17 -88.5t-48 -67.5t-75 -43t-99 -15q-154 0 -215 100
q-7 11 4 21l25 19q13 10 21 -4q50 -79 169 -79q78 0 124.5 40t46.5 108q0 22 -7 39.5t-24 30.5t-45 22.5t-69 17.5q-50 9 -84 22.5t-55 32.5t-30.5 44.5t-9.5 59.5q0 49 17 88.5t48.5 67.5t75.5 43t99 15zM268 739q-6 -7 -16 -7h-28q-8 0 -10.5 4.5t3.5 11.5l105 124
q7 8 17 8h32q12 0 16 -10l65 -123q8 -15 -9 -15h-25q-11 0 -15 9l-51 94z" />
    <glyph glyph-name="scircumflex" unicode="&#x15d;" horiz-adv-x="412" 
d="M368 153q0 -77 -51 -121t-140 -44q-115 0 -168 62q-9 11 1 21l18 19q10 11 21 -1q43 -48 129 -48q60 0 94.5 28t34.5 76q0 34 -24 51.5t-87 27.5q-78 12 -108.5 39.5t-30.5 78.5q0 75 53 119t143 44q42 0 77.5 -11.5t59.5 -32.5q11 -11 1 -22l-17 -19q-9 -12 -21 -1
q-36 33 -101 33q-63 0 -98.5 -27t-35.5 -75q0 -31 22.5 -47.5t83.5 -25.5q80 -12 112 -41t32 -83zM193 574q-6 -7 -16 -7h-28q-8 0 -10.5 4.5t3.5 11.5l105 124q7 8 17 8h32q12 0 16 -10l65 -123q8 -15 -9 -15h-25q-11 0 -15 9l-51 94z" />
    <glyph glyph-name="Scedilla" unicode="&#x15e;" horiz-adv-x="507" 
d="M16 88q-7 11 4 21l25 19q13 10 21 -4q50 -79 169 -79q78 0 124.5 40t46.5 108q0 22 -7 39.5t-24 30.5t-45 22.5t-69 17.5q-50 9 -84 22.5t-55 32.5t-30.5 44.5t-9.5 59.5q0 49 17 88.5t48.5 67.5t75.5 43t99 15q135 0 188 -87q8 -12 -5 -20l-26 -18q-12 -9 -21 5
q-41 63 -139 63q-39 0 -70.5 -11t-54 -30.5t-35 -46.5t-12.5 -60q0 -23 7 -40t24 -30.5t45 -23t69 -17.5q50 -9 84 -22.5t55 -32t30 -44t9 -59.5q0 -48 -16 -87t-46 -66.5t-73 -43.5t-96 -17l-14 -38q63 -6 63 -53q0 -33 -25 -51t-70 -18q-41 0 -71 19q-8 6 -4 16l8 17
q5 11 16 4q11 -6 23.5 -10.5t26.5 -4.5q27 0 38.5 9t11.5 22q0 10 -9 16.5t-35 6.5h-9q-15 0 -10 14l19 52q-127 10 -182 99z" />
    <glyph glyph-name="scedilla" unicode="&#x15f;" horiz-adv-x="412" 
d="M9 50q-9 11 1 21l18 19q10 11 21 -1q43 -48 129 -48q60 0 94.5 28t34.5 76q0 34 -24 51.5t-87 27.5q-78 12 -108.5 39.5t-30.5 78.5q0 75 53 119t143 44q42 0 77.5 -11.5t59.5 -32.5q11 -11 1 -22l-17 -19q-9 -12 -21 -1q-36 33 -101 33q-63 0 -98.5 -27t-35.5 -75
q0 -31 22.5 -47.5t83.5 -25.5q80 -12 112 -41t32 -83q0 -73 -47.5 -117.5t-132.5 -47.5l-14 -38q63 -6 63 -53q0 -33 -25 -51t-70 -18q-41 0 -71 19q-8 6 -4 16l8 17q5 11 16 4q11 -6 23.5 -10.5t26.5 -4.5q27 0 38.5 9t11.5 22q0 10 -9 16.5t-35 6.5h-9q-15 0 -10 14l19 52
q-93 7 -138 61z" />
    <glyph glyph-name="Scaron" unicode="&#x160;" horiz-adv-x="507" 
d="M322 676q135 0 188 -87q8 -12 -5 -20l-26 -18q-12 -9 -21 5q-41 63 -139 63q-39 0 -70.5 -11t-54 -30.5t-35 -46.5t-12.5 -60q0 -23 7 -40t24 -30.5t45 -23t69 -17.5q50 -9 84 -22.5t55 -32t30 -44t9 -59.5q0 -49 -17 -88.5t-48 -67.5t-75 -43t-99 -15q-154 0 -215 100
q-7 11 4 21l25 19q13 10 21 -4q50 -79 169 -79q78 0 124.5 40t46.5 108q0 22 -7 39.5t-24 30.5t-45 22.5t-69 17.5q-50 9 -84 22.5t-55 32.5t-30.5 44.5t-9.5 59.5q0 49 17 88.5t48.5 67.5t75.5 43t99 15zM366 740q-7 -8 -17 -8h-32q-12 0 -16 10l-65 123q-8 15 9 15h25
q10 0 15 -9l51 -94l84 96q6 7 16 7h29q8 0 10.5 -4.5t-3.5 -11.5z" />
    <glyph glyph-name="scaron" unicode="&#x161;" horiz-adv-x="412" 
d="M368 153q0 -77 -51 -121t-140 -44q-115 0 -168 62q-9 11 1 21l18 19q10 11 21 -1q43 -48 129 -48q60 0 94.5 28t34.5 76q0 34 -24 51.5t-87 27.5q-78 12 -108.5 39.5t-30.5 78.5q0 75 53 119t143 44q42 0 77.5 -11.5t59.5 -32.5q11 -11 1 -22l-17 -19q-9 -12 -21 -1
q-36 33 -101 33q-63 0 -98.5 -27t-35.5 -75q0 -31 22.5 -47.5t83.5 -25.5q80 -12 112 -41t32 -83zM291 575q-7 -8 -17 -8h-32q-12 0 -16 10l-65 123q-8 15 9 15h25q10 0 15 -9l51 -94l84 96q6 7 16 7h29q8 0 10.5 -4.5t-3.5 -11.5z" />
    <glyph glyph-name="Tcommaaccent" unicode="&#x162;" horiz-adv-x="484" 
d="M515 664q16 0 13 -16l-4 -27q-2 -14 -16 -14h-176l-94 -593q-1 -12 -15 -14l-18 -50q63 -6 63 -53q0 -33 -25 -51t-70 -18q-41 0 -71 19q-8 6 -4 16l8 17q5 11 16 4q11 -6 23.5 -10.5t26.5 -4.5q27 0 38.5 9t11.5 22q0 10 -9 16.5t-35 6.5h-9q-15 0 -10 14l24 63
q-12 3 -9 16l93 591h-175q-16 0 -13 16l4 27q2 14 16 14h416z" />
    <glyph glyph-name="tcommaaccent" unicode="&#x163;" horiz-adv-x="352" 
d="M345 493q16 0 13 -16l-4 -23q-3 -14 -16 -14h-153l-47 -300q-1 -7 -1.5 -13.5t-0.5 -12.5q0 -73 78 -73q30 0 56 17q15 9 21 -6l9 -21q5 -14 -6 -21q-37 -22 -89 -22q-7 0 -13.5 0.5t-12.5 1.5l-15 -40q63 -6 63 -53q0 -33 -25 -51t-70 -18q-41 0 -71 19q-8 6 -4 16l8 17
q5 11 16 4q11 -6 23.5 -10.5t26.5 -4.5q27 0 38.5 9t11.5 22q0 10 -9 16.5t-35 6.5h-9q-15 0 -10 14l23 62q-67 24 -67 106q0 16 3 34l47 301h-59q-16 0 -13 16l4 23q3 14 16 14h61l19 120q2 14 16 14h31q16 0 13 -16l-18 -118h151z" />
    <glyph glyph-name="Tcaron" unicode="&#x164;" horiz-adv-x="484" 
d="M238 14q-2 -14 -16 -14h-35q-16 0 -13 16l93 591h-175q-16 0 -13 16l4 27q2 14 16 14h416q16 0 13 -16l-4 -27q-2 -14 -16 -14h-176zM352 740q-7 -8 -17 -8h-32q-12 0 -16 10l-65 123q-8 15 9 15h25q10 0 15 -9l51 -94l84 96q6 7 16 7h29q8 0 10.5 -4.5t-3.5 -11.5z" />
    <glyph glyph-name="tcaron" unicode="&#x165;" horiz-adv-x="352" 
d="M138 140q-1 -7 -1.5 -13.5t-0.5 -12.5q0 -73 78 -73q30 0 56 17q15 9 21 -6l9 -21q5 -14 -6 -21q-37 -22 -89 -22q-63 0 -97 30t-34 87q0 16 3 34l47 301h-59q-16 0 -13 16l4 23q2 14 16 14h61l19 120q2 14 16 14h31q16 0 13 -16l-18 -118h151q16 0 13 -16l-4 -23
q-2 -14 -16 -14h-153zM352 556q-3 -11 -14 -11h-19q-14 0 -11 15l45 162q3 12 15 12h26q17 0 12 -16z" />
    <glyph glyph-name="Tbar" unicode="&#x166;" horiz-adv-x="484" 
d="M515 664q16 0 13 -16l-4 -27q-2 -14 -16 -14h-176l-35 -218h112q15 0 12 -15l-4 -23q-1 -13 -15 -13h-113l-51 -324q-2 -14 -16 -14h-35q-16 0 -13 16l51 322h-113q-15 0 -13 15l4 23q1 13 15 13h115l34 218h-175q-16 0 -13 16l4 27q2 14 16 14h416z" />
    <glyph glyph-name="tbar" unicode="&#x167;" horiz-adv-x="364" 
d="M351 493q16 0 13 -16l-4 -23q-3 -14 -16 -14h-153l-21 -137h132q16 0 13 -15l-4 -23q-3 -13 -15 -13h-134l-18 -112q-1 -7 -1.5 -13.5t-0.5 -12.5q0 -73 78 -73q30 0 56 17q15 9 21 -6l9 -21q5 -14 -6 -21q-37 -22 -89 -22q-63 0 -97 30t-34 87q0 16 3 34l18 113h-50
q-16 0 -13 15l4 23q3 13 15 13h52l21 137h-59q-16 0 -13 16l4 23q3 14 16 14h61l19 120q2 14 16 14h31q16 0 13 -16l-18 -118h151z" />
    <glyph glyph-name="Utilde" unicode="&#x168;" horiz-adv-x="588" 
d="M512 217q-35 -229 -249 -229q-96 0 -147.5 46t-51.5 134q0 13 1.5 26.5t3.5 27.5l67 428q2 14 16 14h35q16 0 13 -16l-66 -420q-2 -14 -3 -27t-1 -24q0 -68 34 -100t103 -32q81 0 124.5 45.5t58.5 139.5l67 420q2 14 16 14h33q16 0 13 -16zM249 744q-16 0 -11 17
q12 45 36.5 67.5t56.5 22.5q18 0 32 -7t31 -25q13 -14 22 -19t20 -5q32 0 48 46q3 11 14 11h17q16 0 11 -16q-26 -91 -93 -91q-17 0 -31.5 6.5t-32.5 25.5q-13 14 -22 19t-20 5q-32 0 -48 -45q-5 -12 -15 -12h-15z" />
    <glyph glyph-name="utilde" unicode="&#x169;" horiz-adv-x="488" 
d="M409 166q-27 -178 -197 -178q-78 0 -119 36.5t-41 106.5q0 19 3 40l50 308q2 14 16 14h31q16 0 13 -16l-47 -301q-4 -23 -4 -40q0 -95 101 -95q61 0 93.5 33t43.5 103l48 302q2 14 16 14h29q16 0 13 -16zM174 579q-16 0 -11 17q12 45 36.5 67.5t56.5 22.5q18 0 32 -7
t31 -25q13 -14 22 -19t20 -5q32 0 48 46q3 11 14 11h17q16 0 11 -16q-26 -91 -93 -91q-17 0 -31.5 6.5t-32.5 25.5q-13 14 -22 19t-20 5q-32 0 -48 -45q-5 -12 -15 -12h-15z" />
    <glyph glyph-name="Umacron" unicode="&#x16a;" horiz-adv-x="588" 
d="M512 217q-35 -229 -249 -229q-96 0 -147.5 46t-51.5 134q0 13 1.5 26.5t3.5 27.5l67 428q2 14 16 14h35q16 0 13 -16l-66 -420q-2 -14 -3 -27t-1 -24q0 -68 34 -100t103 -32q81 0 124.5 45.5t58.5 139.5l67 420q2 14 16 14h33q16 0 13 -16zM505 783q-1 -13 -15 -13h-227
q-15 0 -13 15l3 22q1 13 15 13h228q16 0 13 -15z" />
    <glyph glyph-name="umacron" unicode="&#x16b;" horiz-adv-x="488" 
d="M409 166q-27 -178 -197 -178q-78 0 -119 36.5t-41 106.5q0 19 3 40l50 308q2 14 16 14h31q16 0 13 -16l-47 -301q-4 -23 -4 -40q0 -95 101 -95q61 0 93.5 33t43.5 103l48 302q2 14 16 14h29q16 0 13 -16zM430 618q-1 -13 -15 -13h-227q-15 0 -13 15l3 22q1 13 15 13h228
q16 0 13 -15z" />
    <glyph glyph-name="Ubreve" unicode="&#x16c;" horiz-adv-x="588" 
d="M512 217q-35 -229 -249 -229q-96 0 -147.5 46t-51.5 134q0 13 1.5 26.5t3.5 27.5l67 428q2 14 16 14h35q16 0 13 -16l-66 -420q-2 -14 -3 -27t-1 -24q0 -68 34 -100t103 -32q81 0 124.5 45.5t58.5 139.5l67 420q2 14 16 14h33q16 0 13 -16zM501 860q15 0 12 -15
q-14 -48 -49 -73t-85 -25q-51 0 -81 26.5t-33 73.5q0 13 13 13h20q13 0 14 -13q3 -24 20.5 -38t46.5 -14q30 0 53 14.5t34 39.5q4 11 15 11h20z" />
    <glyph glyph-name="ubreve" unicode="&#x16d;" horiz-adv-x="488" 
d="M409 166q-27 -178 -197 -178q-78 0 -119 36.5t-41 106.5q0 19 3 40l50 308q2 14 16 14h31q16 0 13 -16l-47 -301q-4 -23 -4 -40q0 -95 101 -95q61 0 93.5 33t43.5 103l48 302q2 14 16 14h29q16 0 13 -16zM426 695q15 0 12 -15q-14 -48 -49 -73t-85 -25q-51 0 -81 26.5
t-33 73.5q0 13 13 13h20q13 0 14 -13q3 -24 20.5 -38t46.5 -14q30 0 53 14.5t34 39.5q4 11 15 11h20z" />
    <glyph glyph-name="Uring" unicode="&#x16e;" horiz-adv-x="588" 
d="M512 217q-35 -229 -249 -229q-96 0 -147.5 46t-51.5 134q0 13 1.5 26.5t3.5 27.5l67 428q2 14 16 14h35q16 0 13 -16l-66 -420q-2 -14 -3 -27t-1 -24q0 -68 34 -100t103 -32q81 0 124.5 45.5t58.5 139.5l67 420q2 14 16 14h33q16 0 13 -16zM376 727q-32 0 -52.5 20
t-20.5 52q0 36 25 61t61 25q32 0 52.5 -20t20.5 -52q0 -37 -25 -61.5t-61 -24.5zM378 770q15 0 27.5 12.5t12.5 29.5q0 13 -9 21.5t-23 8.5q-15 0 -27 -12.5t-12 -29.5q0 -13 8.5 -21.5t22.5 -8.5z" />
    <glyph glyph-name="uring" unicode="&#x16f;" horiz-adv-x="488" 
d="M409 166q-27 -178 -197 -178q-78 0 -119 36.5t-41 106.5q0 19 3 40l50 308q2 14 16 14h31q16 0 13 -16l-47 -301q-4 -23 -4 -40q0 -95 101 -95q61 0 93.5 33t43.5 103l48 302q2 14 16 14h29q16 0 13 -16zM301 562q-32 0 -52.5 20t-20.5 52q0 36 25 61t61 25
q32 0 52.5 -20t20.5 -52q0 -37 -25 -61.5t-61 -24.5zM303 605q15 0 27.5 12.5t12.5 29.5q0 13 -9 21.5t-23 8.5q-15 0 -27 -12.5t-12 -29.5q0 -13 8.5 -21.5t22.5 -8.5z" />
    <glyph glyph-name="Uhungarumlaut" unicode="&#x170;" horiz-adv-x="588" 
d="M512 217q-35 -229 -249 -229q-96 0 -147.5 46t-51.5 134q0 13 1.5 26.5t3.5 27.5l67 428q2 14 16 14h35q16 0 13 -16l-66 -420q-2 -14 -3 -27t-1 -24q0 -68 34 -100t103 -32q81 0 124.5 45.5t58.5 139.5l67 420q2 14 16 14h33q16 0 13 -16zM322 740q-5 -8 -16 -8h-24
q-8 0 -10.5 4.5t2.5 11.5l93 123q6 9 17 9h31q9 0 11.5 -5t-3.5 -12zM466 740q-5 -8 -16 -8h-24q-8 0 -10.5 4.5t2.5 11.5l92 123q6 9 17 9h31q9 0 11.5 -5t-3.5 -12z" />
    <glyph glyph-name="uhungarumlaut" unicode="&#x171;" horiz-adv-x="488" 
d="M409 166q-27 -178 -197 -178q-78 0 -119 36.5t-41 106.5q0 19 3 40l50 308q2 14 16 14h31q16 0 13 -16l-47 -301q-4 -23 -4 -40q0 -95 101 -95q61 0 93.5 33t43.5 103l48 302q2 14 16 14h29q16 0 13 -16zM247 575q-5 -8 -16 -8h-24q-8 0 -10.5 4.5t2.5 11.5l93 123
q6 9 17 9h31q9 0 11.5 -5t-3.5 -12zM391 575q-5 -8 -16 -8h-24q-8 0 -10.5 4.5t2.5 11.5l92 123q6 9 17 9h31q9 0 11.5 -5t-3.5 -12z" />
    <glyph glyph-name="Uogonek" unicode="&#x172;" horiz-adv-x="588" 
d="M566 664q16 0 13 -16l-67 -431q-13 -84 -49.5 -136t-97.5 -78q-84 -35 -84 -97q0 -16 10 -25.5t26 -9.5q13 0 23 5t20 13q12 10 19 -2l8 -12q7 -11 -2 -19q-16 -14 -33 -21t-41 -7q-35 0 -56 19t-21 51q0 23 11.5 45.5t35.5 43.5v1h-18q-96 0 -147.5 46t-51.5 134
q0 13 1.5 26.5t3.5 27.5l67 428q2 14 16 14h35q16 0 13 -16l-66 -420q-2 -14 -3 -27t-1 -24q0 -68 34 -100t103 -32q81 0 124.5 45.5t58.5 139.5l67 420q2 14 16 14h33z" />
    <glyph glyph-name="uogonek" unicode="&#x173;" horiz-adv-x="488" 
d="M445 493q16 0 13 -16l-49 -311q-10 -64 -37 -104t-74 -60q-80 -36 -80 -96q0 -16 10 -25.5t26 -9.5q13 0 23 5t20 13q12 10 19 -2l8 -12q7 -11 -2 -19q-16 -14 -33 -21t-41 -7q-35 0 -56 19t-21 51q0 47 46 89v1h-5q-78 0 -119 36.5t-41 106.5q0 19 3 40l50 308
q2 14 16 14h31q16 0 13 -16l-47 -301q-4 -23 -4 -40q0 -95 101 -95q61 0 93.5 33t43.5 103l48 302q2 14 16 14h29z" />
    <glyph glyph-name="Wcircumflex" unicode="&#x174;" horiz-adv-x="850" 
d="M608 11q-5 -11 -17 -11h-45q-14 0 -16 14l-60 518h-1l-224 -521q-5 -11 -17 -11h-44q-14 0 -16 14l-74 634q-2 16 14 16h39q14 0 16 -14l56 -542h1l234 545q5 11 17 11h33q14 0 16 -14l61 -541h1l232 544q5 11 17 11h40q19 0 11 -18zM437 739q-6 -7 -16 -7h-28
q-8 0 -10.5 4.5t3.5 11.5l105 124q7 8 17 8h32q12 0 16 -10l65 -123q8 -15 -9 -15h-25q-11 0 -15 9l-51 94z" />
    <glyph glyph-name="wcircumflex" unicode="&#x175;" horiz-adv-x="683" 
d="M431 0q-14 0 -16 14l-49 372h-1l-170 -375q-5 -11 -17 -11h-37q-14 0 -16 14l-65 463q-2 16 14 16h33q14 0 16 -14l48 -388h1l177 391q5 11 17 11h28q14 0 16 -14l51 -386h1l173 389q5 11 17 11h34q19 0 11 -18l-213 -464q-5 -11 -17 -11h-36zM328 574q-6 -7 -16 -7h-28
q-8 0 -10.5 4.5t3.5 11.5l105 124q7 8 17 8h32q12 0 16 -10l65 -123q8 -15 -9 -15h-25q-11 0 -15 9l-51 94z" />
    <glyph glyph-name="Ycircumflex" unicode="&#x176;" horiz-adv-x="521" 
d="M255 14q-2 -14 -16 -14h-35q-16 0 -13 16l44 284l-157 346q-8 18 11 18h41q12 0 17 -11l129 -293l223 295q7 9 18 9h44q10 0 12.5 -5t-3.5 -13l-270 -348zM272 739q-6 -7 -16 -7h-28q-8 0 -10.5 4.5t3.5 11.5l105 124q7 8 17 8h32q12 0 16 -10l65 -123q8 -15 -9 -15h-25
q-11 0 -15 9l-51 94z" />
    <glyph glyph-name="ycircumflex" unicode="&#x177;" horiz-adv-x="500" 
d="M451 493q16 0 13 -16l-76 -478q-13 -81 -64.5 -126t-136.5 -45q-51 0 -91.5 14.5t-67.5 43.5q-10 10 0 21l15 19q10 13 22 1q45 -46 123 -46q60 0 96 33.5t45 94.5l8 50h-1q-44 -57 -131 -57q-73 0 -112 36t-39 105q0 11 1 22t3 23l47 291q2 14 16 14h31q16 0 13 -16
l-45 -283q-3 -23 -3 -40q0 -51 26 -75t77 -24q60 0 94 35t45 105l45 284q2 14 16 14h31zM234 574q-6 -7 -16 -7h-28q-8 0 -10.5 4.5t3.5 11.5l105 124q7 8 17 8h32q12 0 16 -10l65 -123q8 -15 -9 -15h-25q-11 0 -15 9l-51 94z" />
    <glyph glyph-name="Ydieresis" unicode="&#x178;" horiz-adv-x="521" 
d="M255 14q-2 -14 -16 -14h-35q-16 0 -13 16l44 284l-157 346q-8 18 11 18h41q12 0 17 -11l129 -293l223 295q7 9 18 9h44q10 0 12.5 -5t-3.5 -13l-270 -348zM264 760q-17 0 -27 10t-10 26q0 19 12 31.5t31 12.5q17 0 27.5 -10t10.5 -26q0 -19 -12.5 -31.5t-31.5 -12.5z
M424 760q-17 0 -27 10t-10 26q0 19 12 31.5t31 12.5q17 0 27.5 -10t10.5 -26q0 -19 -12.5 -31.5t-31.5 -12.5z" />
    <glyph glyph-name="Zacute" unicode="&#x179;" horiz-adv-x="518" 
d="M432 57q16 0 13 -16l-4 -27q-2 -14 -16 -14h-408q-16 0 -14 16l5 34q2 5 3 9t5 9l436 539h-324q-16 0 -13 16l4 27q2 14 16 14h388q16 0 13 -16l-5 -34q-2 -5 -3 -9t-5 -9l-437 -539h346zM464 880q9 0 11.5 -5t-3.5 -12l-108 -124q-6 -7 -16 -7h-31q-8 0 -10 4.5t3 11.5
l99 124q7 8 18 8h37z" />
    <glyph glyph-name="zacute" unicode="&#x17a;" horiz-adv-x="422" 
d="M338 53q16 0 14 -16l-4 -23q-2 -14 -16 -14h-318q-16 0 -13 16l5 30q1 10 8 18l323 376h-238q-16 0 -13 16l4 23q2 14 16 14h297q16 0 13 -16l-5 -30q-1 -10 -8 -18l-323 -376h258zM390 715q9 0 11.5 -5t-3.5 -12l-108 -124q-6 -7 -16 -7h-31q-8 0 -10 4.5t3 11.5l99 124
q7 8 18 8h37z" />
    <glyph glyph-name="Zdotaccent" unicode="&#x17b;" horiz-adv-x="518" 
d="M432 57q16 0 13 -16l-4 -27q-2 -14 -16 -14h-408q-16 0 -14 16l5 34q2 5 3 9t5 9l436 539h-324q-16 0 -13 16l4 27q2 14 16 14h388q16 0 13 -16l-5 -34q-2 -5 -3 -9t-5 -9l-437 -539h346zM346 758q-17 0 -27.5 10.5t-10.5 26.5q0 21 12.5 34t32.5 13q17 0 28 -11t11 -28
q0 -19 -13 -32t-33 -13z" />
    <glyph glyph-name="zdotaccent" unicode="&#x17c;" horiz-adv-x="422" 
d="M338 53q16 0 14 -16l-4 -23q-2 -14 -16 -14h-318q-16 0 -13 16l5 30q1 10 8 18l323 376h-238q-16 0 -13 16l4 23q2 14 16 14h297q16 0 13 -16l-5 -30q-1 -10 -8 -18l-323 -376h258zM272 593q-17 0 -27.5 10.5t-10.5 26.5q0 21 12.5 34t32.5 13q17 0 28 -11t11 -28
q0 -19 -13 -32t-33 -13z" />
    <glyph glyph-name="Zcaron" unicode="&#x17d;" horiz-adv-x="518" 
d="M432 57q16 0 13 -16l-4 -27q-2 -14 -16 -14h-408q-16 0 -14 16l5 34q2 5 3 9t5 9l436 539h-324q-16 0 -13 16l4 27q2 14 16 14h388q16 0 13 -16l-5 -34q-2 -5 -3 -9t-5 -9l-437 -539h346zM372 740q-7 -8 -17 -8h-32q-12 0 -16 10l-65 123q-8 15 9 15h25q10 0 15 -9
l51 -94l84 96q6 7 16 7h29q8 0 10.5 -4.5t-3.5 -11.5z" />
    <glyph glyph-name="zcaron" unicode="&#x17e;" horiz-adv-x="422" 
d="M338 53q16 0 14 -16l-4 -23q-2 -14 -16 -14h-318q-16 0 -13 16l5 30q1 10 8 18l323 376h-238q-16 0 -13 16l4 23q2 14 16 14h297q16 0 13 -16l-5 -30q-1 -10 -8 -18l-323 -376h258zM298 575q-7 -8 -17 -8h-32q-12 0 -16 10l-65 123q-8 15 9 15h25q10 0 15 -9l51 -94
l84 96q6 7 16 7h29q8 0 10.5 -4.5t-3.5 -11.5z" />
    <glyph glyph-name="florin" unicode="&#x192;" horiz-adv-x="529" 
d="M440 583q-48 0 -78 -28.5t-48 -88.5l-18 -59h162q16 0 14 -16l-4 -23q-2 -14 -16 -14h-171l-123 -411q-4 -13 -17 -13h-30q-18 0 -13 17l122 407h-107q-16 0 -14 16l4 23q2 14 16 14h117l19 65q26 85 70 124.5t115 39.5q58 0 98 -22q12 -8 5 -21l-12 -21q-7 -13 -21 -5
q-14 9 -31 12.5t-39 3.5z" />
    <glyph glyph-name="AEacute" unicode="&#x1fc;" horiz-adv-x="880" 
d="M794 364q16 0 13 -16l-5 -27q-2 -14 -16 -14h-285l-40 -250h328q16 0 13 -16l-4 -27q-2 -14 -16 -14h-379q-16 0 -13 16l20 128h-261l-101 -135q-8 -9 -18 -9h-43q-10 0 -12.5 5t3.5 13l483 637q7 9 18 9h406q16 0 13 -16l-4 -27q-2 -14 -16 -14h-330l-38 -243h284z
M480 588h-1l-288 -387h228zM649 880q9 0 11.5 -5t-3.5 -12l-108 -124q-6 -7 -16 -7h-31q-8 0 -10 4.5t3 11.5l99 124q7 8 18 8h37z" />
    <glyph glyph-name="aeacute" unicode="&#x1fd;" horiz-adv-x="741" 
d="M563 505q74 0 113 -37.5t39 -106.5q0 -11 -1 -22t-3 -23l-12 -70q-2 -14 -16 -14h-285l-7 -45q-2 -12 -3 -22t-1 -19q0 -55 30 -80t90 -25q33 0 60.5 12.5t53.5 38.5q12 12 21 -1l15 -19q8 -11 -2 -21q-64 -63 -152 -63q-128 0 -156 95h-1q-47 -95 -171 -95
q-72 0 -112 35t-40 97q0 78 50 120.5t147 42.5h126l4 23q4 23 4 45q0 53 -26.5 77t-81.5 24q-32 0 -61.5 -13t-53.5 -33q-12 -10 -21 2l-15 20q-9 11 2 22q35 29 73.5 42t79.5 13q119 0 145 -92h1q48 92 167 92zM555 452q-63 0 -98 -34.5t-47 -109.5l-4 -25h242l4 26
q4 23 4 46q0 51 -25 74t-76 23zM186 41q63 0 98 35t46 109l8 47h-116q-66 0 -102 -28t-36 -83q0 -40 26 -60t76 -20zM547 715q9 0 11.5 -5t-3.5 -12l-108 -124q-6 -7 -16 -7h-31q-8 0 -10 4.5t3 11.5l99 124q7 8 18 8h37z" />
    <glyph glyph-name="Oslashacute" unicode="&#x1fe;" horiz-adv-x="585" 
d="M583 650q10 -10 1 -20l-42 -51q18 -38 18 -89q0 -14 -1.5 -27.5t-3.5 -28.5l-33 -208q-36 -238 -260 -238q-105 0 -160 52l-34 -42q-10 -11 -20 -1l-19 17q-10 10 -1 20l42 51q-18 37 -18 89q0 14 1.5 27.5t3.5 28.5l33 208q36 238 260 238q105 0 160 -52l34 42
q10 11 20 1zM119 183q0 -9 0.5 -17.5t1.5 -16.5h1l346 424q-36 46 -120 46q-86 0 -133 -48t-62 -146l-29 -187q-2 -15 -3.5 -28.5t-1.5 -26.5zM493 481q0 9 -0.5 17.5t-1.5 16.5h-1l-345 -423q34 -47 120 -47q85 0 131.5 48t62.5 146l29 187q2 15 3.5 28.5t1.5 26.5z
M495 880q9 0 11.5 -5t-3.5 -12l-108 -124q-6 -7 -16 -7h-31q-8 0 -10 4.5t3 11.5l99 124q7 8 18 8h37z" />
    <glyph glyph-name="oslashacute" unicode="&#x1ff;" horiz-adv-x="473" 
d="M450 481q10 -9 1 -20l-29 -34q13 -27 13 -68q0 -11 -1 -21t-3 -22l-23 -143q-29 -185 -204 -185q-79 0 -122 37l-23 -27q-10 -11 -20 -1l-16 15q-10 9 -1 20l29 34q-13 29 -13 68q0 10 1 21t3 22l23 143q15 92 65 138.5t140 46.5q78 0 121 -37l23 27q10 11 20 1zM101 127
h1l250 294q-27 31 -85 31q-64 0 -97.5 -35t-45.5 -109l-20 -124q-3 -23 -3 -41v-16zM372 366h-1l-249 -294q25 -31 85 -31q63 0 96.5 35t45.5 109l19 124q2 14 3 26t1 26v5zM413 715q9 0 11.5 -5t-3.5 -12l-108 -124q-6 -7 -16 -7h-31q-8 0 -10 4.5t3 11.5l99 124q7 8 18 8
h37z" />
    <glyph glyph-name="Scommaaccent" unicode="&#x218;" horiz-adv-x="507" 
d="M322 676q135 0 188 -87q8 -12 -5 -20l-26 -18q-12 -9 -21 5q-41 63 -139 63q-39 0 -70.5 -11t-54 -30.5t-35 -46.5t-12.5 -60q0 -23 7 -40t24 -30.5t45 -23t69 -17.5q50 -9 84 -22.5t55 -32t30 -44t9 -59.5q0 -49 -17 -88.5t-48 -67.5t-75 -43t-99 -15q-154 0 -215 100
q-7 11 4 21l25 19q13 10 21 -4q50 -79 169 -79q78 0 124.5 40t46.5 108q0 22 -7 39.5t-24 30.5t-45 22.5t-69 17.5q-50 9 -84 22.5t-55 32.5t-30.5 44.5t-9.5 59.5q0 49 17 88.5t48.5 67.5t75.5 43t99 15zM212 -50q16 0 26.5 -11t10.5 -29q0 -29 -18 -54t-44 -36
q-9 -4 -14 5l-4 8q-4 8 5 13q8 5 14.5 12t10.5 16q-30 5 -30 34q0 20 12 31t31 11z" />
    <glyph glyph-name="scommaaccent" unicode="&#x219;" horiz-adv-x="412" 
d="M368 153q0 -77 -51 -121t-140 -44q-115 0 -168 62q-9 11 1 21l18 19q10 11 21 -1q43 -48 129 -48q60 0 94.5 28t34.5 76q0 34 -24 51.5t-87 27.5q-78 12 -108.5 39.5t-30.5 78.5q0 75 53 119t143 44q42 0 77.5 -11.5t59.5 -32.5q11 -11 1 -22l-17 -19q-9 -12 -21 -1
q-36 33 -101 33q-63 0 -98.5 -27t-35.5 -75q0 -31 22.5 -47.5t83.5 -25.5q80 -12 112 -41t32 -83zM161 -50q16 0 26.5 -11t10.5 -29q0 -29 -18 -54t-44 -36q-9 -4 -14 5l-4 8q-4 8 5 13q8 5 14.5 12t10.5 16q-30 5 -30 34q0 20 12 31t31 11z" />
    <glyph glyph-name="uni021A" unicode="&#x21a;" horiz-adv-x="484" 
d="M238 14q-2 -14 -16 -14h-35q-16 0 -13 16l93 591h-175q-16 0 -13 16l4 27q2 14 16 14h416q16 0 13 -16l-4 -27q-2 -14 -16 -14h-176zM192 -50q16 0 26.5 -11t10.5 -29q0 -29 -18 -54t-44 -36q-9 -4 -14 5l-4 8q-4 8 5 13q8 5 14.5 12t10.5 16q-30 5 -30 34q0 20 12 31
t31 11z" />
    <glyph glyph-name="uni021B" unicode="&#x21b;" horiz-adv-x="352" 
d="M138 140q-1 -7 -1.5 -13.5t-0.5 -12.5q0 -73 78 -73q30 0 56 17q15 9 21 -6l9 -21q5 -14 -6 -21q-37 -22 -89 -22q-63 0 -97 30t-34 87q0 16 3 34l47 301h-59q-16 0 -13 16l4 23q2 14 16 14h61l19 120q2 14 16 14h31q16 0 13 -16l-18 -118h151q16 0 13 -16l-4 -23
q-2 -14 -16 -14h-153zM151 -50q16 0 26.5 -11t10.5 -29q0 -29 -18 -54t-44 -36q-9 -4 -14 5l-4 8q-4 8 5 13q8 5 14.5 12t10.5 16q-30 5 -30 34q0 20 12 31t31 11z" />
    <glyph glyph-name="uni0237" unicode="&#x237;" horiz-adv-x="206" 
d="M-62 -107q79 0 92 84l80 502q2 14 16 14h31q16 0 13 -16l-79 -501q-22 -136 -150 -136h-9q-17 0 -14 16l4 23q3 14 16 14z" />
    <glyph glyph-name="circumflex" unicode="&#x2c6;" horiz-adv-x="500" 
d="M237 574q-6 -7 -16 -7h-28q-8 0 -10.5 4.5t3.5 11.5l105 124q7 8 17 8h32q12 0 16 -10l65 -123q8 -15 -9 -15h-25q-11 0 -15 9l-51 94z" />
    <glyph glyph-name="caron" unicode="&#x2c7;" horiz-adv-x="500" 
d="M335 575q-7 -8 -17 -8h-32q-12 0 -16 10l-65 123q-8 15 9 15h25q10 0 15 -9l51 -94l84 96q6 7 16 7h29q8 0 10.5 -4.5t-3.5 -11.5z" />
    <glyph glyph-name="breve" unicode="&#x2d8;" horiz-adv-x="500" 
d="M431 695q15 0 12 -15q-14 -48 -49 -73t-85 -25q-51 0 -81 26.5t-33 73.5q0 13 13 13h20q13 0 14 -13q3 -24 20.5 -38t46.5 -14q30 0 53 14.5t34 39.5q4 11 15 11h20z" />
    <glyph glyph-name="dotaccent" unicode="&#x2d9;" horiz-adv-x="500" 
d="M308 593q-17 0 -27.5 10.5t-10.5 26.5q0 21 12.5 34t32.5 13q17 0 28 -11t11 -28q0 -19 -13 -32t-33 -13z" />
    <glyph glyph-name="ring" unicode="&#x2da;" horiz-adv-x="500" 
d="M306 562q-32 0 -52.5 20t-20.5 52q0 36 25 61t61 25q32 0 52.5 -20t20.5 -52q0 -37 -25 -61.5t-61 -24.5zM308 605q15 0 27.5 12.5t12.5 29.5q0 13 -9 21.5t-23 8.5q-15 0 -27 -12.5t-12 -29.5q0 -13 8.5 -21.5t22.5 -8.5z" />
    <glyph glyph-name="ogonek" unicode="&#x2db;" horiz-adv-x="500" 
d="M283 -125q7 -11 -2 -19q-16 -14 -33 -21t-41 -7q-35 0 -56 19t-21 51q0 34 26.5 68.5t84.5 60.5l24 -20q-88 -42 -88 -101q0 -16 10 -25.5t26 -9.5q13 0 23 5t20 13q12 10 19 -2z" />
    <glyph glyph-name="tilde" unicode="&#x2dc;" horiz-adv-x="500" 
d="M179 579q-16 0 -11 17q12 45 36.5 67.5t56.5 22.5q18 0 32 -7t31 -25q13 -14 22 -19t20 -5q32 0 48 46q3 11 14 11h17q16 0 11 -16q-26 -91 -93 -91q-17 0 -31.5 6.5t-32.5 25.5q-13 14 -22 19t-20 5q-32 0 -48 -45q-5 -12 -15 -12h-15z" />
    <glyph glyph-name="hungarumlaut" unicode="&#x2dd;" horiz-adv-x="500" 
d="M253 575q-5 -8 -16 -8h-24q-8 0 -10.5 4.5t2.5 11.5l93 123q6 9 17 9h31q9 0 11.5 -5t-3.5 -12zM397 575q-5 -8 -16 -8h-24q-8 0 -10.5 4.5t2.5 11.5l92 123q6 9 17 9h31q9 0 11.5 -5t-3.5 -12z" />
    <glyph glyph-name="Delta" unicode="&#x394;" horiz-adv-x="581" 
d="M5 0q-19 0 -11 18l322 635q5 11 18 11h43q14 0 17 -13l121 -635q3 -16 -14 -16h-496zM83 57h360l-96 527h-1z" />
    <glyph glyph-name="Omega" unicode="&#x3a9;" horiz-adv-x="585" 
d="M351 676q101 0 155 -47.5t54 -138.5q0 -13 -1.5 -27t-3.5 -29l-27 -169q-12 -76 -47.5 -128.5t-93.5 -78.5v-1h93q16 0 13 -16l-4 -27q-2 -14 -16 -14h-155q-16 0 -13 16l5 32q1 11 13 16q116 45 140 200l26 162q2 15 3.5 28.5t1.5 26.5q0 71 -36.5 104.5t-108.5 33.5
q-86 0 -134 -48t-63 -146l-25 -162q-2 -15 -3.5 -29t-1.5 -27q0 -105 80 -142q11 -6 10 -18l-5 -33q-2 -14 -16 -14h-155q-16 0 -13 16l5 27q2 14 16 14h100v1q-42 22 -63.5 62.5t-21.5 97.5q0 12 1 24.5t3 26.5l27 169q38 238 261 238z" />
    <glyph glyph-name="mu" unicode="&#x3bc;" horiz-adv-x="500" 
d="M456 493q16 0 13 -16l-48 -308q-29 -181 -192 -181q-94 0 -124 64h-1l-32 -198q-2 -14 -16 -14h-31q-16 0 -13 16l98 623q2 14 16 14h31q16 0 13 -16l-47 -297q-3 -21 -3 -39q0 -100 103 -100q61 0 94 34t44 106l48 298q2 14 16 14h31z" />
    <glyph glyph-name="pi" unicode="&#x3c0;" horiz-adv-x="512" 
d="M390 14q-2 -14 -16 -14h-31q-16 0 -13 16l66 424h-211l-67 -426q-2 -14 -16 -14h-31q-16 0 -13 16l66 424h-59q-16 0 -13 16l4 23q2 14 16 14h453q16 0 13 -16l-4 -23q-2 -14 -16 -14h-61z" />
    <glyph glyph-name="uni1E02" unicode="&#x1e02;" horiz-adv-x="563" 
d="M413 337q99 -29 99 -135q0 -105 -60.5 -153.5t-189.5 -48.5h-201q-16 0 -13 16l100 634q2 14 16 14h181q100 0 149.5 -35.5t49.5 -111.5q0 -72 -32.5 -118t-98.5 -61v-1zM478 507q0 52 -34 76t-105 24h-133l-38 -241h131q93 0 136 34t43 107zM447 205q0 54 -34 79
t-104 25h-150l-40 -252h149q93 0 136 36t43 112zM359 758q-17 0 -27.5 10.5t-10.5 26.5q0 21 12.5 34t32.5 13q17 0 28 -11t11 -28q0 -19 -13 -32t-33 -13z" />
    <glyph glyph-name="uni1E03" unicode="&#x1e03;" horiz-adv-x="487" 
d="M294 505q75 0 115 -37t40 -107q0 -11 -1 -22t-3 -23l-23 -142q-29 -186 -204 -186q-80 0 -122.5 37.5t-42.5 108.5q0 11 1 22t3 22l81 508q2 14 16 14h31q16 0 13 -16l-38 -239h1q45 60 133 60zM384 309q3 22 3 41q0 53 -26 77.5t-80 24.5q-121 0 -143 -144l-19 -124
q-3 -23 -3 -41q0 -53 26 -77.5t79 -24.5q63 0 97 35t46 109zM187 789q-17 0 -27.5 10.5t-10.5 26.5q0 21 12.5 34t32.5 13q17 0 28 -11t11 -28q0 -19 -13 -32t-33 -13z" />
    <glyph glyph-name="uni1E0A" unicode="&#x1e0a;" horiz-adv-x="590" 
d="M361 664q101 0 153 -44t52 -131q0 -13 -1.5 -26.5t-3.5 -27.5l-34 -210q-18 -113 -82.5 -169t-182.5 -56h-201q-16 0 -13 16l100 634q2 14 16 14h197zM495 427q2 14 3.5 26.5t1.5 24.5q0 129 -147 129h-147l-87 -550h145q88 0 136.5 44.5t63.5 137.5zM365 758
q-17 0 -27.5 10.5t-10.5 26.5q0 21 12.5 34t32.5 13q17 0 28 -11t11 -28q0 -19 -13 -32t-33 -13z" />
    <glyph glyph-name="uni1E0B" unicode="&#x1e0b;" horiz-adv-x="487" 
d="M408 174q-29 -186 -204 -186q-80 0 -122.5 37.5t-42.5 108.5q0 11 1 22t3 22l22 142q29 185 199 185q95 0 124 -66h1l40 247q2 14 16 14h31q16 0 13 -16zM207 41q63 0 97 35t46 109l19 124q3 22 3 41q0 102 -104 102q-63 0 -97.5 -35t-46.5 -109l-20 -124q-3 -23 -3 -41
q0 -53 26 -77.5t80 -24.5zM479 789q-17 0 -27.5 10.5t-10.5 26.5q0 21 12.5 34t32.5 13q17 0 28 -11t11 -28q0 -19 -13 -32t-33 -13z" />
    <glyph glyph-name="uni1E1E" unicode="&#x1e1e;" horiz-adv-x="502" 
d="M441 360q16 0 13 -16l-5 -27q-2 -14 -16 -14h-275l-46 -289q-2 -14 -16 -14h-35q-16 0 -13 16l100 634q2 14 16 14h368q16 0 14 -16l-4 -27q-2 -14 -16 -14h-320l-39 -247h274zM355 758q-17 0 -27.5 10.5t-10.5 26.5q0 21 12.5 34t32.5 13q17 0 28 -11t11 -28
q0 -19 -13 -32t-33 -13z" />
    <glyph glyph-name="uni1E1F" unicode="&#x1e1f;" horiz-adv-x="323" 
d="M314 659q-48 0 -75 -29.5t-37 -87.5l-8 -49h151q16 0 13 -16l-4 -23q-2 -14 -16 -14h-152l-68 -426q-2 -14 -16 -14h-31q-16 0 -13 16l67 424h-60q-16 0 -13 16l4 23q2 14 16 14h61l9 55q13 81 55.5 122.5t115.5 41.5q59 0 99 -22q11 -7 5 -21l-12 -21q-8 -12 -19 -6
q-31 17 -72 17zM293 789q-17 0 -27.5 10.5t-10.5 26.5q0 21 12.5 34t32.5 13q17 0 28 -11t11 -28q0 -19 -13 -32t-33 -13z" />
    <glyph glyph-name="uni1E40" unicode="&#x1e40;" horiz-adv-x="814" 
d="M642 0q-16 0 -13 16l89 562h-1l-318 -568q-6 -10 -18 -10h-26q-13 0 -16 13l-139 565h-1l-89 -564q-2 -14 -16 -14h-33q-16 0 -13 16l100 634q2 14 16 14h65q13 0 16 -13l136 -558l308 560q5 11 18 11h73q16 0 13 -16l-100 -634q-2 -14 -16 -14h-35zM489 758
q-17 0 -27.5 10.5t-10.5 26.5q0 21 12.5 34t32.5 13q17 0 28 -11t11 -28q0 -19 -13 -32t-33 -13z" />
    <glyph glyph-name="uni1E41" unicode="&#x1e41;" horiz-adv-x="758" 
d="M555 505q73 0 112.5 -36t39.5 -105q0 -21 -4 -44l-49 -306q-2 -14 -16 -14h-31q-16 0 -13 16l47 299q2 12 3 22t1 19q0 50 -24 73t-72 23q-57 0 -87.5 -33.5t-41.5 -104.5l-47 -300q-2 -14 -16 -14h-31q-16 0 -13 16l47 299q2 12 3 22t1 20q0 95 -97 95
q-57 0 -87.5 -33.5t-41.5 -104.5l-47 -300q-2 -14 -16 -14h-31q-16 0 -13 16l49 309q14 90 60.5 135t127.5 45q107 0 137 -76h1q43 76 149 76zM438 593q-17 0 -27.5 10.5t-10.5 26.5q0 21 12.5 34t32.5 13q17 0 28 -11t11 -28q0 -19 -13 -32t-33 -13z" />
    <glyph glyph-name="uni1E56" unicode="&#x1e56;" horiz-adv-x="541" 
d="M348 664q101 0 152 -40.5t51 -125.5q0 -119 -63 -174.5t-199 -55.5h-137l-40 -254q-2 -14 -16 -14h-35q-16 0 -13 16l100 634q2 14 16 14h184zM486 493q0 59 -36 86.5t-108 27.5h-136l-45 -282h134q99 0 145 40.5t46 127.5zM363 758q-17 0 -27.5 10.5t-10.5 26.5
q0 21 12.5 34t32.5 13q17 0 28 -11t11 -28q0 -19 -13 -32t-33 -13z" />
    <glyph glyph-name="uni1E57" unicode="&#x1e57;" horiz-adv-x="487" 
d="M284 505q80 0 122.5 -37.5t42.5 -109.5q0 -11 -1 -21t-3 -22l-23 -142q-29 -185 -197 -185q-96 0 -126 68h-1l-32 -202q-2 -14 -16 -14h-31q-16 0 -13 16l73 464q29 185 205 185zM384 310q3 22 3 41q0 101 -106 101q-63 0 -97.5 -35t-45.5 -109l-20 -124q-3 -21 -3 -39
q0 -104 106 -104q64 0 97 35t45 110zM309 593q-17 0 -27.5 10.5t-10.5 26.5q0 21 12.5 34t32.5 13q17 0 28 -11t11 -28q0 -19 -13 -32t-33 -13z" />
    <glyph glyph-name="uni1E60" unicode="&#x1e60;" horiz-adv-x="507" 
d="M322 676q135 0 188 -87q8 -12 -5 -20l-26 -18q-12 -9 -21 5q-41 63 -139 63q-39 0 -70.5 -11t-54 -30.5t-35 -46.5t-12.5 -60q0 -23 7 -40t24 -30.5t45 -23t69 -17.5q50 -9 84 -22.5t55 -32t30 -44t9 -59.5q0 -49 -17 -88.5t-48 -67.5t-75 -43t-99 -15q-154 0 -215 100
q-7 11 4 21l25 19q13 10 21 -4q50 -79 169 -79q78 0 124.5 40t46.5 108q0 22 -7 39.5t-24 30.5t-45 22.5t-69 17.5q-50 9 -84 22.5t-55 32.5t-30.5 44.5t-9.5 59.5q0 49 17 88.5t48.5 67.5t75.5 43t99 15zM340 758q-17 0 -27.5 10.5t-10.5 26.5q0 21 12.5 34t32.5 13
q17 0 28 -11t11 -28q0 -19 -13 -32t-33 -13z" />
    <glyph glyph-name="uni1E61" unicode="&#x1e61;" horiz-adv-x="412" 
d="M368 153q0 -77 -51 -121t-140 -44q-115 0 -168 62q-9 11 1 21l18 19q10 11 21 -1q43 -48 129 -48q60 0 94.5 28t34.5 76q0 34 -24 51.5t-87 27.5q-78 12 -108.5 39.5t-30.5 78.5q0 75 53 119t143 44q42 0 77.5 -11.5t59.5 -32.5q11 -11 1 -22l-17 -19q-9 -12 -21 -1
q-36 33 -101 33q-63 0 -98.5 -27t-35.5 -75q0 -31 22.5 -47.5t83.5 -25.5q80 -12 112 -41t32 -83zM265 593q-17 0 -27.5 10.5t-10.5 26.5q0 21 12.5 34t32.5 13q17 0 28 -11t11 -28q0 -19 -13 -32t-33 -13z" />
    <glyph glyph-name="uni1E6A" unicode="&#x1e6a;" horiz-adv-x="484" 
d="M238 14q-2 -14 -16 -14h-35q-16 0 -13 16l93 591h-175q-16 0 -13 16l4 27q2 14 16 14h416q16 0 13 -16l-4 -27q-2 -14 -16 -14h-176zM326 758q-17 0 -27.5 10.5t-10.5 26.5q0 21 12.5 34t32.5 13q17 0 28 -11t11 -28q0 -19 -13 -32t-33 -13z" />
    <glyph glyph-name="uni1E6B" unicode="&#x1e6b;" horiz-adv-x="352" 
d="M138 140q-1 -7 -1.5 -13.5t-0.5 -12.5q0 -73 78 -73q30 0 56 17q15 9 21 -6l9 -21q5 -14 -6 -21q-37 -22 -89 -22q-63 0 -97 30t-34 87q0 16 3 34l47 301h-59q-16 0 -13 16l4 23q2 14 16 14h61l19 120q2 14 16 14h31q16 0 13 -16l-18 -118h151q16 0 13 -16l-4 -23
q-2 -14 -16 -14h-153zM202 721q-17 0 -27.5 10.5t-10.5 26.5q0 21 12.5 34t32.5 13q17 0 28 -11t11 -28q0 -19 -13 -32t-33 -13z" />
    <glyph glyph-name="Wgrave" unicode="&#x1e80;" horiz-adv-x="850" 
d="M608 11q-5 -11 -17 -11h-45q-14 0 -16 14l-60 518h-1l-224 -521q-5 -11 -17 -11h-44q-14 0 -16 14l-74 634q-2 16 14 16h39q14 0 16 -14l56 -542h1l234 545q5 11 17 11h33q14 0 16 -14l61 -541h1l232 544q5 11 17 11h40q19 0 11 -18zM496 732q-11 0 -15 9l-68 122
q-9 17 10 17h34q12 0 16 -10l60 -123q7 -15 -10 -15h-27z" />
    <glyph glyph-name="wgrave" unicode="&#x1e81;" horiz-adv-x="683" 
d="M431 0q-14 0 -16 14l-49 372h-1l-170 -375q-5 -11 -17 -11h-37q-14 0 -16 14l-65 463q-2 16 14 16h33q14 0 16 -14l48 -388h1l177 391q5 11 17 11h28q14 0 16 -14l51 -386h1l173 389q5 11 17 11h34q19 0 11 -18l-213 -464q-5 -11 -17 -11h-36zM387 567q-11 0 -15 9
l-68 122q-9 17 10 17h34q12 0 16 -10l60 -123q7 -15 -10 -15h-27z" />
    <glyph glyph-name="Wacute" unicode="&#x1e82;" horiz-adv-x="850" 
d="M608 11q-5 -11 -17 -11h-45q-14 0 -16 14l-60 518h-1l-224 -521q-5 -11 -17 -11h-44q-14 0 -16 14l-74 634q-2 16 14 16h39q14 0 16 -14l56 -542h1l234 545q5 11 17 11h33q14 0 16 -14l61 -541h1l232 544q5 11 17 11h40q19 0 11 -18zM627 880q9 0 11.5 -5t-3.5 -12
l-108 -124q-6 -7 -16 -7h-31q-8 0 -10 4.5t3 11.5l99 124q7 8 18 8h37z" />
    <glyph glyph-name="wacute" unicode="&#x1e83;" horiz-adv-x="683" 
d="M431 0q-14 0 -16 14l-49 372h-1l-170 -375q-5 -11 -17 -11h-37q-14 0 -16 14l-65 463q-2 16 14 16h33q14 0 16 -14l48 -388h1l177 391q5 11 17 11h28q14 0 16 -14l51 -386h1l173 389q5 11 17 11h34q19 0 11 -18l-213 -464q-5 -11 -17 -11h-36zM518 715q9 0 11.5 -5
t-3.5 -12l-108 -124q-6 -7 -16 -7h-31q-8 0 -10 4.5t3 11.5l99 124q7 8 18 8h37z" />
    <glyph glyph-name="Wdieresis" unicode="&#x1e84;" horiz-adv-x="850" 
d="M608 11q-5 -11 -17 -11h-45q-14 0 -16 14l-60 518h-1l-224 -521q-5 -11 -17 -11h-44q-14 0 -16 14l-74 634q-2 16 14 16h39q14 0 16 -14l56 -542h1l234 545q5 11 17 11h33q14 0 16 -14l61 -541h1l232 544q5 11 17 11h40q19 0 11 -18zM429 760q-17 0 -27 10t-10 26
q0 19 12 31.5t31 12.5q17 0 27.5 -10t10.5 -26q0 -19 -12.5 -31.5t-31.5 -12.5zM589 760q-17 0 -27 10t-10 26q0 19 12 31.5t31 12.5q17 0 27.5 -10t10.5 -26q0 -19 -12.5 -31.5t-31.5 -12.5z" />
    <glyph glyph-name="wdieresis" unicode="&#x1e85;" horiz-adv-x="683" 
d="M431 0q-14 0 -16 14l-49 372h-1l-170 -375q-5 -11 -17 -11h-37q-14 0 -16 14l-65 463q-2 16 14 16h33q14 0 16 -14l48 -388h1l177 391q5 11 17 11h28q14 0 16 -14l51 -386h1l173 389q5 11 17 11h34q19 0 11 -18l-213 -464q-5 -11 -17 -11h-36zM320 595q-17 0 -27 10
t-10 26q0 19 12 31.5t31 12.5q17 0 27.5 -10t10.5 -26q0 -19 -12.5 -31.5t-31.5 -12.5zM480 595q-17 0 -27 10t-10 26q0 19 12 31.5t31 12.5q17 0 27.5 -10t10.5 -26q0 -19 -12.5 -31.5t-31.5 -12.5z" />
    <glyph glyph-name="Ygrave" unicode="&#x1ef2;" horiz-adv-x="521" 
d="M255 14q-2 -14 -16 -14h-35q-16 0 -13 16l44 284l-157 346q-8 18 11 18h41q12 0 17 -11l129 -293l223 295q7 9 18 9h44q10 0 12.5 -5t-3.5 -13l-270 -348zM331 732q-11 0 -15 9l-68 122q-9 17 10 17h34q12 0 16 -10l60 -123q7 -15 -10 -15h-27z" />
    <glyph glyph-name="ygrave" unicode="&#x1ef3;" horiz-adv-x="500" 
d="M451 493q16 0 13 -16l-76 -478q-13 -81 -64.5 -126t-136.5 -45q-51 0 -91.5 14.5t-67.5 43.5q-10 10 0 21l15 19q10 13 22 1q45 -46 123 -46q60 0 96 33.5t45 94.5l8 50h-1q-44 -57 -131 -57q-73 0 -112 36t-39 105q0 11 1 22t3 23l47 291q2 14 16 14h31q16 0 13 -16
l-45 -283q-3 -23 -3 -40q0 -51 26 -75t77 -24q60 0 94 35t45 105l45 284q2 14 16 14h31zM293 567q-11 0 -15 9l-68 122q-9 17 10 17h34q12 0 16 -10l60 -123q7 -15 -10 -15h-27z" />
    <glyph glyph-name="uni2007" unicode="&#x2007;" horiz-adv-x="529" 
 />
    <glyph glyph-name="figuredash" unicode="&#x2012;" horiz-adv-x="529" 
d="M51 288q-15 0 -13 15l4 21q1 13 15 13h440q14 0 13 -15l-3 -21q-1 -13 -15 -13h-441z" />
    <glyph glyph-name="endash" unicode="&#x2013;" horiz-adv-x="500" 
d="M45 247q-15 0 -13 15l4 21q1 13 15 13h412q15 0 13 -15l-4 -21q-1 -13 -15 -13h-412z" />
    <glyph glyph-name="emdash" unicode="&#x2014;" horiz-adv-x="900" 
d="M45 247q-15 0 -13 15l4 21q1 13 15 13h812q15 0 13 -15l-4 -21q-1 -13 -15 -13h-812z" />
    <glyph glyph-name="quoteleft" unicode="&#x2018;" horiz-adv-x="220" 
d="M153 495q-17 0 -28.5 10.5t-11.5 30.5q0 29 20.5 68t61.5 70q8 6 14 -2l9 -11q6 -8 -2 -14q-17 -14 -28.5 -30.5t-18.5 -39.5q31 -7 31 -38q0 -20 -13.5 -32t-33.5 -12z" />
    <glyph glyph-name="quoteright" unicode="&#x2019;" horiz-adv-x="220" 
d="M175 676q17 0 28.5 -10.5t11.5 -30.5q0 -29 -20.5 -68t-61.5 -70q-8 -6 -14 2l-9 11q-6 8 2 14q17 14 28.5 30.5t18.5 39.5q-31 7 -31 38q0 20 13.5 32t33.5 12z" />
    <glyph glyph-name="quotesinglbase" unicode="&#x201a;" horiz-adv-x="220" 
d="M80 77q17 0 28.5 -10.5t11.5 -30.5q0 -29 -20.5 -68t-61.5 -70q-8 -6 -14 2l-9 11q-6 8 2 14q17 14 28.5 30.5t18.5 39.5q-31 7 -31 38q0 20 13.5 32t33.5 12z" />
    <glyph glyph-name="quotedblleft" unicode="&#x201c;" horiz-adv-x="386" 
d="M318 495q-17 0 -28.5 10.5t-11.5 30.5q0 29 20.5 68t61.5 70q8 6 14 -2l9 -11q6 -8 -2 -14q-17 -14 -28.5 -30.5t-18.5 -39.5q31 -7 31 -38q0 -20 -13.5 -32t-33.5 -12zM153 495q-17 0 -28.5 10.5t-11.5 30.5q0 29 20.5 68t61.5 70q8 6 14 -2l9 -11q6 -8 -2 -14
q-17 -14 -28.5 -30.5t-18.5 -39.5q31 -7 31 -38q0 -20 -13.5 -32t-33.5 -12z" />
    <glyph glyph-name="quotedblright" unicode="&#x201d;" horiz-adv-x="386" 
d="M175 676q17 0 28.5 -10.5t11.5 -30.5q0 -29 -20.5 -68t-61.5 -70q-8 -6 -14 2l-9 11q-6 8 2 14q17 14 28.5 30.5t18.5 39.5q-31 7 -31 38q0 20 13.5 32t33.5 12zM340 676q17 0 28.5 -10.5t11.5 -30.5q0 -29 -20.5 -68t-61.5 -70q-8 -6 -14 2l-9 11q-6 8 2 14
q17 14 28.5 30.5t18.5 39.5q-31 7 -31 38q0 20 13.5 32t33.5 12z" />
    <glyph glyph-name="quotedblbase" unicode="&#x201e;" horiz-adv-x="386" 
d="M245 77q17 0 28.5 -10.5t11.5 -30.5q0 -29 -20.5 -68t-61.5 -70q-8 -6 -14 2l-9 11q-6 8 2 14q17 14 28.5 30.5t18.5 39.5q-31 7 -31 38q0 20 13.5 32t33.5 12zM80 77q17 0 28.5 -10.5t11.5 -30.5q0 -29 -20.5 -68t-61.5 -70q-8 -6 -14 2l-9 11q-6 8 2 14
q17 14 28.5 30.5t18.5 39.5q-31 7 -31 38q0 20 13.5 32t33.5 12z" />
    <glyph glyph-name="dagger" unicode="&#x2020;" horiz-adv-x="435" 
d="M219 98q-1 -13 -15 -13h-22q-15 0 -13 15l62 392h-136q-15 0 -12 15l3 19q1 13 15 13h138l23 148q1 13 15 13h23q15 0 13 -15l-24 -146h136q15 0 12 -15l-3 -19q-1 -13 -15 -13h-137z" />
    <glyph glyph-name="daggerdbl" unicode="&#x2021;" horiz-adv-x="435" 
d="M386 294q15 0 12 -15l-3 -20q-1 -13 -15 -13h-137l-24 -148q-1 -13 -15 -13h-22q-15 0 -13 15l23 146h-135q-15 0 -12 15l3 20q1 13 15 13h137l31 198h-136q-15 0 -12 15l3 19q1 13 15 13h138l23 148q1 13 15 13h23q15 0 13 -15l-24 -146h136q15 0 12 -15l-3 -19
q-1 -13 -15 -13h-137l-32 -198h136z" />
    <glyph glyph-name="bullet" unicode="&#x2022;" horiz-adv-x="500" 
d="M248 173q-24 0 -44 8.5t-35 23t-23 34.5t-8 43q0 27 10.5 50t28 40.5t41 27.5t49.5 10q47 0 78 -31t31 -77q0 -27 -10 -50.5t-27.5 -41t-41 -27.5t-49.5 -10z" />
    <glyph glyph-name="ellipsis" unicode="&#x2026;" horiz-adv-x="900" 
d="M693 -12q-18 0 -29.5 11.5t-11.5 29.5q0 20 14.5 34t34.5 14q18 0 29.5 -11.5t11.5 -28.5q0 -21 -14 -35t-35 -14zM413 -12q-18 0 -29.5 11.5t-11.5 29.5q0 20 14.5 34t34.5 14q18 0 29.5 -11.5t11.5 -28.5q0 -21 -14 -35t-35 -14zM133 -12q-18 0 -29.5 11.5t-11.5 29.5
q0 20 14.5 34t34.5 14q18 0 29.5 -11.5t11.5 -28.5q0 -21 -14 -35t-35 -14z" />
    <glyph glyph-name="perthousand" unicode="&#x2030;" horiz-adv-x="910" 
d="M634 191q18 120 130 120q51 0 79 -25.5t28 -73.5q0 -6 -0.5 -12.5t-1.5 -13.5l-12 -77q-20 -121 -130 -121q-51 0 -79.5 25t-28.5 73v13.5t2 14.5zM670 113q-1 -7 -1.5 -13.5t-0.5 -11.5q0 -29 14.5 -42t45.5 -13q38 0 56 19t25 62l12 73q1 7 1.5 13t0.5 11q0 29 -15 42
t-46 13q-38 0 -56 -19t-25 -62zM76 516q20 120 130 120q51 0 79 -25.5t28 -73.5q0 -6 -0.5 -12.5t-1.5 -13.5l-12 -77q-20 -121 -130 -121q-51 0 -79.5 25t-28.5 73v13.5t2 14.5zM112 438q-1 -7 -1.5 -13.5t-0.5 -11.5q0 -29 14.5 -42t45.5 -13q38 0 56 19t25 62l12 73
q1 7 1.5 13t0.5 11q0 29 -15 42t-46 13q-38 0 -56 -19t-25 -62zM348 191q20 120 130 120q51 0 79 -25.5t28 -73.5q0 -6 -0.5 -12.5t-1.5 -13.5l-12 -77q-20 -121 -130 -121q-51 0 -79.5 25t-28.5 73v13.5t2 14.5zM384 113q-1 -7 -1.5 -13.5t-0.5 -11.5q0 -29 14.5 -42
t45.5 -13q38 0 56 19t25 62l12 73q1 7 1.5 13t0.5 11q0 29 -15 42t-46 13q-38 0 -56 -19t-25 -62zM541 616q7 8 17 8h29q9 0 11 -4.5t-3 -11.5l-490 -600q-5 -8 -16 -8h-29q-9 0 -11 4.5t3 11.5z" />
    <glyph glyph-name="guilsinglleft" unicode="&#x2039;" horiz-adv-x="238" 
d="M166 75q4 -8 1 -12.5t-11 -4.5h-26q-12 0 -16 10l-83 169q-5 11 2 19l135 171q7 8 18 8h27q9 0 11.5 -5t-2.5 -12l-138 -175z" />
    <glyph glyph-name="guilsinglright" unicode="&#x203a;" horiz-adv-x="238" 
d="M26 58q-9 0 -11.5 5t2.5 12l138 176l-83 167q-4 8 -1 12.5t11 4.5h26q12 0 16 -10l84 -168q5 -11 -2 -19l-135 -172q-7 -8 -18 -8h-27z" />
    <glyph glyph-name="fraction" unicode="&#x2044;" horiz-adv-x="133" 
d="M295 616q7 8 17 8h27q9 0 11 -4.5t-3 -11.5l-489 -600q-7 -8 -17 -8h-27q-9 0 -11 4.5t3 11.5z" />
    <glyph glyph-name="uni2070" unicode="&#x2070;" 
d="M97 626q21 130 142 130q56 0 86 -27.5t30 -78.5v-14t-2 -15l-22 -134q-21 -131 -142 -131q-55 0 -85.5 27t-30.5 78q0 14 3 31zM123 492q-2 -8 -2 -14.5v-12.5q0 -66 70 -66q42 0 64 23t30 71l20 128q2 8 2 14v12q0 66 -70 66q-80 0 -93 -94z" />
    <glyph glyph-name="uni2074" unicode="&#x2074;" 
d="M286 375q-2 -12 -14 -12h-21q-14 0 -12 14l12 74h-175q-14 0 -12 14l4 23q1 9 7 16l218 238q6 7 16 7h23q14 0 12 -14l-39 -241h32q14 0 12 -14l-2 -17q-2 -12 -14 -12h-35zM258 494l29 182h-1l-162 -182h134z" />
    <glyph glyph-name="uni2075" unicode="&#x2075;" 
d="M154 590q32 20 76 20q48 0 78.5 -30.5t30.5 -81.5q0 -66 -40.5 -104t-111.5 -38q-41 0 -70 13.5t-48 38.5q-7 10 2 18l14 12q10 8 18 -3q14 -20 35 -28t49 -8q49 0 76.5 25t27.5 69q0 35 -19.5 54.5t-54.5 19.5q-46 0 -80 -28q-7 -5 -17 -4l-10 2q-13 2 -10 15l41 186
q3 11 15 11h189q14 0 12 -14l-3 -17q-2 -12 -14 -12h-161l-26 -116h1z" />
    <glyph glyph-name="uni2076" unicode="&#x2076;" 
d="M233 612q47 0 76 -30.5t29 -81.5q0 -67 -39 -105.5t-102 -38.5q-54 0 -85.5 30t-31.5 80q0 6 0.5 12t1.5 12l22 137q10 62 46.5 95.5t96.5 33.5q67 0 103 -39q8 -9 -1 -18l-15 -15q-10 -10 -19 1q-25 28 -67 28q-83 0 -98 -93l-7 -41h1q33 33 89 33zM199 399
q41 0 66.5 27t25.5 72q0 33 -19 52t-51 19q-38 0 -62.5 -23.5t-31.5 -62.5q-1 -4 -1 -8v-8q0 -31 19.5 -49.5t53.5 -18.5z" />
    <glyph glyph-name="uni2077" unicode="&#x2077;" 
d="M382 711q-1 -7 -6 -15l-211 -325q-5 -8 -16 -8h-25q-8 0 -11 4.5t2 11.5l215 327h-171l-9 -56q-2 -12 -14 -12h-20q-14 0 -12 14l14 85q1 12 14 12h242q14 0 12 -14z" />
    <glyph glyph-name="uni2078" unicode="&#x2078;" 
d="M355 661q0 -76 -72 -99v-1q26 -11 40 -32.5t14 -50.5q0 -59 -39.5 -90.5t-106.5 -31.5q-60 0 -94 27.5t-34 75.5q0 42 22.5 69.5t63.5 38.5v1q-46 23 -46 75q0 51 36.5 82t98.5 31q56 0 86.5 -25t30.5 -70zM308 656q0 57 -71 57q-42 0 -65 -19t-23 -56q0 -26 18.5 -40
t53.5 -14q40 0 63.5 19t23.5 53zM290 482q0 29 -21 45t-60 16q-45 0 -72 -22t-27 -60q0 -30 21.5 -46t60.5 -16q45 0 71.5 22.5t26.5 60.5z" />
    <glyph glyph-name="uni2079" unicode="&#x2079;" 
d="M232 756q54 0 85.5 -30t31.5 -80q0 -6 -0.5 -12t-1.5 -12l-22 -137q-11 -62 -47 -95.5t-96 -33.5q-67 0 -103 39q-8 8 0 18l14 15q9 9 18 -1q27 -28 70 -28q84 0 98 93l7 42h-1q-31 -34 -89 -34q-46 0 -75.5 30t-29.5 80q0 68 39 107t102 39zM208 543q36 0 61.5 23.5
t32.5 62.5q1 4 1 8v8q0 31 -19.5 49.5t-53.5 18.5q-41 0 -66.5 -27t-25.5 -72q0 -33 19 -52t51 -19z" />
    <glyph glyph-name="uni2080" unicode="&#x2080;" 
d="M14 103q21 130 142 130q56 0 86 -27.5t30 -78.5v-14t-2 -15l-22 -134q-21 -131 -142 -131q-55 0 -85.5 27t-30.5 78q0 14 3 31zM40 -31q-2 -8 -2 -14.5v-12.5q0 -66 70 -66q42 0 64 23t30 71l20 128q2 8 2 14v12q0 66 -70 66q-80 0 -93 -94z" />
    <glyph glyph-name="uni2081" unicode="&#x2081;" 
d="M147 -160q-14 0 -12 14l49 308l-89 -60q-11 -8 -18 4l-8 13q-6 11 4 18l125 84q6 5 16 5h14q14 0 12 -14l-58 -360q-2 -12 -14 -12h-21z" />
    <glyph glyph-name="uni2082" unicode="&#x2082;" 
d="M272 133q0 -19 -3.5 -34.5t-12 -30t-23 -30t-36.5 -33.5l-143 -121v-1h165q14 0 12 -14l-3 -17q-2 -12 -14 -12h-218q-14 0 -12 14l3 17q2 10 8 15l171 151q32 29 45.5 49.5t13.5 46.5t-17.5 41.5t-48.5 15.5q-27 0 -50 -12.5t-39 -34.5q-9 -12 -19 -3l-13 11
q-11 7 -3 18q25 31 58 47.5t71 16.5q50 0 79 -27t29 -73z" />
    <glyph glyph-name="uni2083" unicode="&#x2083;" 
d="M275 138q0 -79 -75 -97v-1q26 -11 41 -32t15 -52q0 -60 -38.5 -91.5t-105.5 -31.5q-83 0 -123 54q-7 10 2 18l13 11q10 9 18 -2q28 -38 91 -38q45 0 70.5 22t25.5 61q0 61 -85 61h-23q-14 0 -12 14l2 15q1 12 14 12h21q101 0 101 72q0 57 -70 57q-51 0 -90 -39
q-10 -10 -18 -1l-12 14q-8 9 1 18q51 51 125 51q51 0 81.5 -25t30.5 -70z" />
    <glyph glyph-name="uni2084" unicode="&#x2084;" 
d="M203 -148q-2 -12 -14 -12h-21q-14 0 -12 14l12 74h-175q-14 0 -12 14l4 23q1 9 7 16l218 238q6 7 16 7h23q14 0 12 -14l-39 -241h32q14 0 12 -14l-2 -17q-2 -12 -14 -12h-35zM175 -29l29 182h-1l-162 -182h134z" />
    <glyph glyph-name="uni2085" unicode="&#x2085;" 
d="M71 67q32 20 76 20q48 0 78.5 -30.5t30.5 -81.5q0 -66 -40.5 -104t-111.5 -38q-41 0 -70 13.5t-48 38.5q-7 10 2 18l14 12q10 8 18 -3q14 -20 35 -28t49 -8q49 0 76.5 25t27.5 69q0 35 -19.5 54.5t-54.5 19.5q-46 0 -80 -28q-7 -5 -17 -4l-10 2q-13 2 -10 15l41 186
q3 11 15 11h189q14 0 12 -14l-3 -17q-2 -12 -14 -12h-161l-26 -116h1z" />
    <glyph glyph-name="uni2086" unicode="&#x2086;" 
d="M150 89q47 0 76 -30.5t29 -81.5q0 -67 -39 -105.5t-102 -38.5q-54 0 -85.5 30t-31.5 80q0 6 0.5 12t1.5 12l22 137q10 62 46.5 95.5t96.5 33.5q67 0 103 -39q8 -9 -1 -18l-15 -15q-10 -10 -19 1q-25 28 -67 28q-83 0 -98 -93l-7 -41h1q33 33 89 33zM116 -124
q41 0 66.5 27t25.5 72q0 33 -19 52t-51 19q-38 0 -62.5 -23.5t-31.5 -62.5q-1 -4 -1 -8v-8q0 -31 19.5 -49.5t53.5 -18.5z" />
    <glyph glyph-name="uni2087" unicode="&#x2087;" 
d="M299 188q-1 -7 -6 -15l-211 -325q-5 -8 -16 -8h-25q-8 0 -11 4.5t2 11.5l215 327h-171l-9 -56q-2 -12 -14 -12h-20q-14 0 -12 14l14 85q1 12 14 12h242q14 0 12 -14z" />
    <glyph glyph-name="uni2088" unicode="&#x2088;" 
d="M272 138q0 -76 -72 -99v-1q26 -11 40 -32.5t14 -50.5q0 -59 -39.5 -90.5t-106.5 -31.5q-60 0 -94 27.5t-34 75.5q0 42 22.5 69.5t63.5 38.5v1q-46 23 -46 75q0 51 36.5 82t98.5 31q56 0 86.5 -25t30.5 -70zM225 133q0 57 -71 57q-42 0 -65 -19t-23 -56q0 -26 18.5 -40
t53.5 -14q40 0 63.5 19t23.5 53zM207 -41q0 29 -21 45t-60 16q-45 0 -72 -22t-27 -60q0 -30 21.5 -46t60.5 -16q45 0 71.5 22.5t26.5 60.5z" />
    <glyph glyph-name="uni2089" unicode="&#x2089;" 
d="M149 233q54 0 85.5 -30t31.5 -80q0 -6 -0.5 -12t-1.5 -12l-22 -137q-11 -62 -47 -95.5t-96 -33.5q-67 0 -103 39q-8 8 0 18l14 15q9 9 18 -1q27 -28 70 -28q84 0 98 93l7 42h-1q-31 -34 -89 -34q-46 0 -75.5 30t-29.5 80q0 68 39 107t102 39zM125 20q36 0 61.5 23.5
t32.5 62.5q1 4 1 8v8q0 31 -19.5 49.5t-53.5 18.5q-41 0 -66.5 -27t-25.5 -72q0 -33 19 -52t51 -19z" />
    <glyph glyph-name="Euro" unicode="&#x20ac;" horiz-adv-x="529" 
d="M343 581q-73 0 -113.5 -43.5t-53.5 -125.5h220q17 0 10 -15l-10 -25q-4 -10 -15 -10h-213l-15 -93h189q16 0 11 -15l-8 -24q-4 -11 -15 -11h-185q-2 -14 -3 -27t-1 -25q0 -65 31.5 -94.5t94.5 -29.5q49 0 86 21t63 59q8 13 20 4l22 -16q12 -9 4 -21q-35 -51 -84 -76.5
t-118 -25.5q-88 0 -136 44t-48 125q0 25 4 48l2 14h-37q-14 0 -12 14l4 24q1 12 14 12h39l15 93h-38q-14 0 -11 14l4 24q1 12 14 12h39l2 11q16 105 74 159t158 54q65 0 112.5 -26.5t70.5 -77.5q6 -13 -8 -20l-26 -12q-14 -6 -20 6q-16 37 -50.5 56t-82.5 19z" />
    <glyph glyph-name="uni20B9" unicode="&#x20b9;" horiz-adv-x="529" 
d="M425 571q47 -35 48 -106h52q17 0 11 -16l-10 -25q-4 -11 -16 -11h-42q-14 -82 -77 -120t-190 -38h-48v-1l238 -236q8 -7 5.5 -12.5t-12.5 -5.5h-46q-11 0 -19 8l-249 251q-9 9 -5 21l5 17q4 12 17 12h119q93 0 139 25t60 79h-308q-17 0 -11 16l9 25q5 11 16 11h300
q-2 54 -39.5 79t-122.5 25h-126q-19 0 -12 17l10 26q4 12 17 12h410q17 0 11 -16l-10 -25q-4 -11 -16 -11h-108v-1z" />
    <glyph glyph-name="afii61289" unicode="&#x2113;" horiz-adv-x="419" 
d="M158 153q-3 -18 -3 -34q0 -76 73 -76q20 0 39 7.5t36 20.5q12 11 21 -4l12 -21q7 -12 -5 -21q-26 -20 -53 -28.5t-58 -8.5q-62 0 -95 32t-33 90q0 9 0.5 18t1.5 18h-1l-40 -23q-14 -8 -20 7l-11 23q-6 13 7 20q20 11 39.5 22t37.5 22l44 280q11 67 49.5 103t99.5 36
q51 0 78.5 -28.5t27.5 -79.5q0 -86 -61.5 -172.5t-179.5 -165.5zM177 267q83 63 126.5 129.5t43.5 126.5q0 58 -52 58q-69 0 -83 -91l-36 -223h1z" />
    <glyph glyph-name="uni2117" unicode="&#x2117;" horiz-adv-x="771" 
d="M440 516q115 0 115 -92q0 -67 -36 -99.5t-112 -32.5h-68l-21 -133q-2 -11 -13 -11h-22q-13 0 -11 13l55 344q2 11 13 11h100zM508 420q0 55 -73 55h-67l-22 -142h65q51 0 74 21.5t23 65.5zM440 676q67 0 123.5 -22.5t97 -62t63 -94.5t22.5 -120q0 -80 -30.5 -150.5
t-83.5 -123.5t-123.5 -84t-149.5 -31q-68 0 -124 22.5t-96.5 62t-63 94.5t-22.5 120q0 80 30.5 150.5t83.5 123.5t123 84t150 31zM362 29q69 0 130.5 27.5t108 75t73.5 110t27 132.5q0 57 -19 105t-54 82.5t-83.5 54t-107.5 19.5q-69 0 -130.5 -27.5t-108 -75t-73.5 -110
t-27 -132.5q0 -57 19 -105t54 -82.5t83.5 -54t107.5 -19.5z" />
    <glyph glyph-name="trademark" unicode="&#x2122;" horiz-adv-x="763" 
d="M329 635q-2 -12 -14 -12h-91l-48 -301q-2 -12 -14 -12h-20q-14 0 -12 14l48 299h-89q-14 0 -12 14l2 15q1 12 14 12h226q14 0 12 -14zM719 322q-2 -12 -14 -12h-21q-14 0 -12 14l47 286h-1l-166 -291q-5 -9 -15 -9h-14q-12 0 -15 11l-71 284h-1l-46 -283q-2 -12 -14 -12
h-18q-14 0 -12 14l52 328q1 12 14 12h41q12 0 15 -11l70 -277l158 279q4 9 15 9h48q14 0 12 -14z" />
    <glyph glyph-name="uni2126" unicode="&#x2126;" horiz-adv-x="579" 
d="M348 676q101 0 155 -47.5t54 -138.5q0 -13 -1.5 -27t-3.5 -29l-27 -169q-12 -76 -47.5 -128.5t-93.5 -78.5v-1h93q16 0 13 -16l-4 -27q-2 -14 -16 -14h-155q-16 0 -13 16l5 32q1 11 13 16q116 45 140 200l26 162q2 15 3.5 28.5t1.5 26.5q0 71 -36.5 104.5t-108.5 33.5
q-86 0 -134 -48t-63 -146l-25 -162q-2 -15 -3.5 -29t-1.5 -27q0 -105 80 -142q11 -6 10 -18l-5 -33q-2 -14 -16 -14h-155q-16 0 -13 16l5 27q2 14 16 14h100v1q-42 22 -63.5 62.5t-21.5 97.5q0 12 1 24.5t3 26.5l27 169q38 238 261 238z" />
    <glyph glyph-name="estimated" unicode="&#x212e;" horiz-adv-x="820" 
d="M203 112q42 -48 99.5 -75.5t123.5 -27.5q70 0 130 31t103 84h54q-51 -62 -126 -98.5t-163 -36.5q-75 0 -141 27t-115 73.5t-77.5 109.5t-28.5 134q0 72 28.5 134.5t77.5 109t115 73.5t141 27t141 -27t115 -73.5t77.5 -109t28.5 -134.5v-8h-587q-4 0 -4 -4v-189
q0 -6 2.5 -10.5t5.5 -9.5zM649 343q6 0 6 6v189q0 12 -10 22q-43 45 -99.5 71t-119.5 26q-66 0 -123 -27t-100 -74q-3 -5 -5.5 -10.5t-2.5 -11.5v-185q0 -6 4 -6h450z" />
    <glyph glyph-name="onethird" unicode="&#x2153;" horiz-adv-x="793" 
d="M625 616q7 8 17 8h27q9 0 11 -4.5t-3 -11.5l-489 -600q-7 -8 -17 -8h-27q-9 0 -11 4.5t3 11.5zM764 298q0 -79 -75 -97v-1q26 -11 41 -32t15 -52q0 -60 -38.5 -91.5t-105.5 -31.5q-83 0 -123 54q-7 10 2 18l13 11q10 9 18 -2q28 -38 91 -38q45 0 70.5 22t25.5 61
q0 61 -85 61h-23q-14 0 -12 14l2 15q1 12 14 12h21q101 0 101 72q0 57 -70 57q-51 0 -90 -39q-10 -10 -18 -1l-12 14q-8 9 1 18q51 51 125 51q51 0 81.5 -25t30.5 -70zM211 238q-14 0 -12 14l49 308l-89 -60q-11 -8 -18 4l-8 13q-6 11 4 18l125 84q6 5 16 5h14q14 0 12 -14
l-58 -360q-2 -12 -14 -12h-21z" />
    <glyph glyph-name="twothirds" unicode="&#x2154;" horiz-adv-x="793" 
d="M649 616q7 8 17 8h27q9 0 11 -4.5t-3 -11.5l-489 -600q-7 -8 -17 -8h-27q-9 0 -11 4.5t3 11.5zM764 298q0 -79 -75 -97v-1q26 -11 41 -32t15 -52q0 -60 -38.5 -91.5t-105.5 -31.5q-83 0 -123 54q-7 10 2 18l13 11q10 9 18 -2q28 -38 91 -38q45 0 70.5 22t25.5 61
q0 61 -85 61h-23q-14 0 -12 14l2 15q1 12 14 12h21q101 0 101 72q0 57 -70 57q-51 0 -90 -39q-10 -10 -18 -1l-12 14q-8 9 1 18q51 51 125 51q51 0 81.5 -25t30.5 -70zM336 531q0 -19 -3.5 -34.5t-12 -30t-23 -30t-36.5 -33.5l-143 -121v-1h165q14 0 12 -14l-3 -17
q-2 -12 -14 -12h-218q-14 0 -12 14l3 17q2 10 8 15l171 151q32 29 45.5 49.5t13.5 46.5t-17.5 41.5t-48.5 15.5q-27 0 -50 -12.5t-39 -34.5q-9 -12 -19 -3l-13 11q-11 7 -3 18q25 31 58 47.5t71 16.5q50 0 79 -27t29 -73z" />
    <glyph glyph-name="oneeighth" unicode="&#x215b;" horiz-adv-x="793" 
d="M625 616q7 8 17 8h27q9 0 11 -4.5t-3 -11.5l-489 -600q-7 -8 -17 -8h-27q-9 0 -11 4.5t3 11.5zM761 298q0 -76 -72 -99v-1q26 -11 40 -32.5t14 -50.5q0 -59 -39.5 -90.5t-106.5 -31.5q-60 0 -94 27.5t-34 75.5q0 42 22.5 69.5t63.5 38.5v1q-46 23 -46 75q0 51 36.5 82
t98.5 31q56 0 86.5 -25t30.5 -70zM714 293q0 57 -71 57q-42 0 -65 -19t-23 -56q0 -26 18.5 -40t53.5 -14q40 0 63.5 19t23.5 53zM696 119q0 29 -21 45t-60 16q-45 0 -72 -22t-27 -60q0 -30 21.5 -46t60.5 -16q45 0 71.5 22.5t26.5 60.5zM211 238q-14 0 -12 14l49 308
l-89 -60q-11 -8 -18 4l-8 13q-6 11 4 18l125 84q6 5 16 5h14q14 0 12 -14l-58 -360q-2 -12 -14 -12h-21z" />
    <glyph glyph-name="threeeighths" unicode="&#x215c;" horiz-adv-x="793" 
d="M630 616q7 8 17 8h27q9 0 11 -4.5t-3 -11.5l-489 -600q-7 -8 -17 -8h-27q-9 0 -11 4.5t3 11.5zM761 298q0 -76 -72 -99v-1q26 -11 40 -32.5t14 -50.5q0 -59 -39.5 -90.5t-106.5 -31.5q-60 0 -94 27.5t-34 75.5q0 42 22.5 69.5t63.5 38.5v1q-46 23 -46 75q0 51 36.5 82
t98.5 31q56 0 86.5 -25t30.5 -70zM714 293q0 57 -71 57q-42 0 -65 -19t-23 -56q0 -26 18.5 -40t53.5 -14q40 0 63.5 19t23.5 53zM696 119q0 29 -21 45t-60 16q-45 0 -72 -22t-27 -60q0 -30 21.5 -46t60.5 -16q45 0 71.5 22.5t26.5 60.5zM339 536q0 -79 -75 -97v-1
q26 -11 41 -32t15 -52q0 -60 -38.5 -91.5t-105.5 -31.5q-83 0 -123 54q-7 10 2 18l13 11q10 9 18 -2q28 -38 91 -38q45 0 70.5 22t25.5 61q0 61 -85 61h-23q-14 0 -12 14l2 15q1 12 14 12h21q101 0 101 72q0 57 -70 57q-51 0 -90 -39q-10 -10 -18 -1l-12 14q-8 9 1 18
q51 51 125 51q51 0 81.5 -25t30.5 -70z" />
    <glyph glyph-name="fiveeighths" unicode="&#x215d;" horiz-adv-x="793" 
d="M630 616q7 8 17 8h27q9 0 11 -4.5t-3 -11.5l-489 -600q-7 -8 -17 -8h-27q-9 0 -11 4.5t3 11.5zM761 298q0 -76 -72 -99v-1q26 -11 40 -32.5t14 -50.5q0 -59 -39.5 -90.5t-106.5 -31.5q-60 0 -94 27.5t-34 75.5q0 42 22.5 69.5t63.5 38.5v1q-46 23 -46 75q0 51 36.5 82
t98.5 31q56 0 86.5 -25t30.5 -70zM714 293q0 57 -71 57q-42 0 -65 -19t-23 -56q0 -26 18.5 -40t53.5 -14q40 0 63.5 19t23.5 53zM696 119q0 29 -21 45t-60 16q-45 0 -72 -22t-27 -60q0 -30 21.5 -46t60.5 -16q45 0 71.5 22.5t26.5 60.5zM135 465q32 20 76 20
q48 0 78.5 -30.5t30.5 -81.5q0 -66 -40.5 -104t-111.5 -38q-41 0 -70 13.5t-48 38.5q-7 10 2 18l14 12q10 8 18 -3q14 -20 35 -28t49 -8q49 0 76.5 25t27.5 69q0 35 -19.5 54.5t-54.5 19.5q-46 0 -80 -28q-7 -5 -17 -4l-10 2q-13 2 -10 15l41 186q3 11 15 11h189
q14 0 12 -14l-3 -17q-2 -12 -14 -12h-161l-26 -116h1z" />
    <glyph glyph-name="seveneighths" unicode="&#x215e;" horiz-adv-x="793" 
d="M588 616q7 8 17 8h27q9 0 11 -4.5t-3 -11.5l-489 -600q-7 -8 -17 -8h-27q-9 0 -11 4.5t3 11.5zM761 298q0 -76 -72 -99v-1q26 -11 40 -32.5t14 -50.5q0 -59 -39.5 -90.5t-106.5 -31.5q-60 0 -94 27.5t-34 75.5q0 42 22.5 69.5t63.5 38.5v1q-46 23 -46 75q0 51 36.5 82
t98.5 31q56 0 86.5 -25t30.5 -70zM714 293q0 57 -71 57q-42 0 -65 -19t-23 -56q0 -26 18.5 -40t53.5 -14q40 0 63.5 19t23.5 53zM696 119q0 29 -21 45t-60 16q-45 0 -72 -22t-27 -60q0 -30 21.5 -46t60.5 -16q45 0 71.5 22.5t26.5 60.5zM363 586q-1 -7 -6 -15l-211 -325
q-5 -8 -16 -8h-25q-8 0 -11 4.5t2 11.5l215 327h-171l-9 -56q-2 -12 -14 -12h-20q-14 0 -12 14l14 85q1 12 14 12h242q14 0 12 -14z" />
    <glyph glyph-name="partialdiff" unicode="&#x2202;" horiz-adv-x="539" 
d="M338 676q91 0 135 -55t44 -159q0 -37 -6 -86.5t-20.5 -102t-38 -104t-58 -91.5t-81.5 -65t-107 -25q-78 0 -123.5 45.5t-45.5 123.5q0 57 19.5 107t54 86.5t80.5 57.5t100 21q56 0 94 -22t56 -60h1q5 26 8.5 58.5t3.5 56.5q0 78 -30.5 118.5t-96.5 40.5q-33 0 -63.5 -12
t-53.5 -32q-12 -10 -21 2l-15 21q-9 12 2 21q34 27 75.5 41t86.5 14zM210 43q68 0 122.5 55t86.5 155q-1 56 -34 88.5t-90 32.5q-41 0 -76.5 -16.5t-61.5 -45t-41 -68t-15 -84.5q0 -55 28 -86t81 -31z" />
    <glyph glyph-name="uni2206" unicode="&#x2206;" horiz-adv-x="575" 
d="M2 0q-19 0 -11 18l322 635q5 11 18 11h43q14 0 17 -13l121 -635q3 -16 -14 -16h-496zM80 57h360l-96 527h-1z" />
    <glyph glyph-name="product" unicode="&#x220f;" horiz-adv-x="606" 
d="M491 -66q-2 -14 -16 -14h-35q-16 0 -13 16l106 671h-346l-107 -673q-2 -14 -16 -14h-35q-16 0 -13 16l113 714q2 14 16 14h446q16 0 13 -16z" />
    <glyph glyph-name="summation" unicode="&#x2211;" horiz-adv-x="481" 
d="M324 298q6 -10 -2 -21l-261 -300h350q16 0 13 -16l-4 -27q-2 -14 -16 -14h-419q-16 0 -13 16l5 34q1 9 9 18l266 304l-169 303q-6 9 -3 19l5 36q2 14 16 14h419q16 0 13 -16l-5 -27q-2 -14 -16 -14h-362z" />
    <glyph glyph-name="minus" unicode="&#x2212;" horiz-adv-x="529" 
d="M38 251q-16 0 -13 16l4 26q2 14 16 14h456q16 0 13 -16l-4 -26q-2 -14 -16 -14h-456z" />
    <glyph glyph-name="uni2219" unicode="&#x2219;" horiz-adv-x="220" 
d="M117 268q-18 0 -29.5 11.5t-11.5 29.5q0 20 14.5 34t34.5 14q18 0 29.5 -11.5t11.5 -28.5q0 -21 -14 -35t-35 -14z" />
    <glyph glyph-name="radical" unicode="&#x221a;" horiz-adv-x="508" 
d="M262 -68q-5 -12 -18 -12h-41q-14 0 -17 13l-59 276l-76 -21q-15 -4 -19 12l-4 18q-3 13 11 18l117 31q15 4 18 -11l54 -268h1l274 664q4 12 18 12h29q19 0 12 -17z" />
    <glyph glyph-name="infinity" unicode="&#x221e;" horiz-adv-x="634" 
d="M486 455q57 0 89 -33.5t32 -90.5q0 -36 -10.5 -66t-30 -51.5t-46.5 -33t-60 -11.5q-45 0 -77.5 23t-61.5 75q-40 -53 -75 -75.5t-77 -22.5q-56 0 -88.5 33.5t-32.5 92.5q0 72 40.5 116t107.5 44q44 0 76.5 -23t61.5 -75q40 53 75 75.5t77 22.5zM176 220q32 0 60 20.5
t63 68.5q-26 53 -51 74t-57 21q-42 0 -66 -29.5t-24 -80.5q0 -36 19.5 -55t55.5 -19zM555 327q0 77 -76 77q-32 0 -60 -20.5t-63 -68.5q27 -53 51.5 -74t56.5 -21q42 0 66.5 28.5t24.5 78.5z" />
    <glyph glyph-name="integral" unicode="&#x222b;" horiz-adv-x="318" 
d="M158 526q14 89 62.5 135t122.5 51q16 0 14 -16l-2 -23q-2 -14 -15 -15q-46 -5 -79 -40.5t-44 -101.5q-10 -60 -15 -121t-10 -125q-4 -63 -9 -127t-16 -129q-14 -89 -62 -135t-122 -51q-17 0 -15 16l2 23q1 13 15 15q47 5 80 40.5t44 101.5q9 59 14 119t9 122l10 130
t16 131z" />
    <glyph glyph-name="approxequal" unicode="&#x2248;" horiz-adv-x="529" 
d="M187 399q-30 0 -54.5 -16t-53.5 -54q-9 -12 -21 -2l-18 14q-11 9 -2 21q35 48 70.5 70.5t78.5 22.5q30 0 55.5 -9t59.5 -33q26 -19 45 -26.5t39 -7.5q29 0 54.5 16t52.5 53q9 13 21 4l19 -15q12 -9 3 -21q-37 -49 -72.5 -71t-77.5 -22q-31 0 -56.5 9t-58.5 32
q-28 20 -45.5 27.5t-38.5 7.5zM152 177q-30 0 -54.5 -16t-53.5 -54q-9 -12 -21 -2l-18 14q-11 9 -2 21q35 48 70.5 70.5t78.5 22.5q30 0 55.5 -9t59.5 -33q26 -19 45 -26.5t39 -7.5q29 0 54.5 16t52.5 53q9 13 21 4l19 -15q12 -9 3 -21q-37 -49 -72.5 -71t-77.5 -22
q-31 0 -56.5 9t-58.5 32q-28 20 -45.5 27.5t-38.5 7.5z" />
    <glyph glyph-name="notequal" unicode="&#x2260;" horiz-adv-x="529" 
d="M467 195q16 0 13 -16l-4 -26q-2 -14 -16 -14h-267l-86 -116q-8 -9 -18 -9h-28q-10 0 -12.5 5.5t3.5 13.5l79 106h-94q-16 0 -13 16l4 26q2 14 16 14h129l124 168h-224q-16 0 -14 16l4 26q2 14 16 14h260l86 116q7 9 18 9h28q10 0 12.5 -5.5t-3.5 -13.5l-79 -106h101
q16 0 13 -16l-4 -26q-2 -14 -16 -14h-136l-124 -168h232z" />
    <glyph glyph-name="lessequal" unicode="&#x2264;" horiz-adv-x="529" 
d="M465 181q12 -4 10 -18l-4 -28q-3 -16 -19 -10l-389 179q-12 4 -10 18l4 26q1 12 13 16l447 179q19 7 16 -13l-4 -30q-1 -12 -13 -16l-387 -153zM441 56q16 0 13 -16l-4 -26q-2 -14 -16 -14h-417q-16 0 -13 16l4 26q2 14 16 14h417z" />
    <glyph glyph-name="greaterequal" unicode="&#x2265;" horiz-adv-x="529" 
d="M499 321q-1 -12 -13 -16l-447 -179q-8 -4 -13 0t-3 13l4 30q1 12 13 16l388 153l-337 150q-12 4 -10 18l5 28q3 16 19 10l388 -178q11 -6 10 -19zM441 56q16 0 13 -16l-4 -26q-2 -14 -16 -14h-417q-16 0 -13 16l4 26q2 14 16 14h417z" />
    <glyph glyph-name="lozenge" unicode="&#x25ca;" horiz-adv-x="515" 
d="M206 -10q-14 0 -18 12l-132 319q-4 11 3 21l234 323q7 9 18 9h26q13 0 18 -12l132 -319q5 -11 -2 -21l-236 -323q-8 -9 -18 -9h-25zM225 56h1l201 281l-109 270h-1l-200 -280z" />
    <glyph glyph-name="uniE069" unicode="&#xe069;" horiz-adv-x="207" 
d="M161 593q-17 0 -27.5 10.5t-10.5 27.5q0 21 13 33.5t32 12.5q17 0 28 -10.5t11 -26.5q0 -20 -13 -33.5t-33 -13.5zM50 0q-16 0 -13 16l73 463q2 14 16 14h31q16 0 13 -16l-73 -463q-2 -14 -16 -14h-31z" />
    <glyph glyph-name="uniEF01" unicode="&#xef01;" horiz-adv-x="500" 
d="M200 -50q16 0 26.5 -11t10.5 -29q0 -29 -18 -54t-44 -36q-9 -4 -14 5l-4 8q-4 8 5 13q8 5 14.5 12t10.5 16q-30 5 -30 34q0 20 12 31t31 11z" />
    <glyph glyph-name="uniEF02" unicode="&#xef02;" horiz-adv-x="500" 
d="M302 522q-3 -11 -14 -11h-19q-14 0 -11 15l45 162q3 12 15 12h26q17 0 12 -16z" />
    <glyph glyph-name="uniF8FF" unicode="&#xf8ff;" horiz-adv-x="1000" 
d="M439 262h-1l-17 -78h-23l28 126h27v-66h1l28 66h31l-28 -126h-24l17 78h-1l-22 -52h-16v52zM123 208q-7 -24 -25 -24h-46l28 126h43q18 0 18 -15v-3.5t-1 -6.5zM269 184l6 26h-17l-7 -26h-24l23 103q5 23 26 23h22q18 0 18 -15v-3.5t-1 -6.5l-22 -101h-24zM546 184l6 26
h-17l-7 -26h-24l23 103q5 23 26 23h22q18 0 18 -15v-3.5t-1 -6.5l-22 -101h-24zM390 233q-4 -17 -13 -20l6 -29h-23l-4 26h-13l-6 -26h-24l28 126h43q18 0 18 -15v-3.5t-1 -6.5zM833 232q-4 -22 -24 -22h-22l-6 -26h-24l28 126h43q18 0 18 -15v-3.5t-1 -6.5zM205 184h-24
l6 26h-18l-6 -26h-24l28 126h24l-18 -81h18l18 81h24zM727 310l-17 -75q-1 -6 4 -6h7q5 0 6 4l17 77h24l-17 -78q-4 -22 -24 -22l-14 -26h-24l14 26q-7 0 -12.5 3.5t-5.5 11.5q0 5 1 10l17 75h24zM897 223h-26l-4 -20h33l-5 -19h-56l28 126h57l-5 -19h-32l-11 -49h25z
M647 184h-24l24 107h-19l4 19h61l-4 -19h-18zM80 203h13q4 0 6 5l17 77q1 6 -3 6h-13zM821 285q1 6 -4 6h-12l-14 -62h13q5 0 6 4zM377 285q1 6 -4 6h-12l-14 -62h13q5 0 6 4zM557 291q-5 0 -6 -5l-13 -57h18l12 56q1 6 -4 6h-7zM280 291q-5 0 -6 -5l-13 -57h18l12 56
q1 6 -4 6h-7zM987 303h-6v25h-1l-7 -20h-4l-7 20h-1v-25h-5v30h10l5 -16h1l5 16h10v-30zM952 328h-9v-25h-6v25h-8v5h23v-5z" />
    <glyph glyph-name="zero.numr" 
d="M78 501q21 130 142 130q56 0 86 -27.5t30 -78.5v-14t-2 -15l-22 -134q-21 -131 -142 -131q-55 0 -85.5 27t-30.5 78q0 14 3 31zM104 367q-2 -8 -2 -14.5v-12.5q0 -66 70 -66q42 0 64 23t30 71l20 128q2 8 2 14v12q0 66 -70 66q-80 0 -93 -94z" />
    <glyph glyph-name="one.numr" 
d="M211 238q-14 0 -12 14l49 308l-89 -60q-11 -8 -18 4l-8 13q-6 11 4 18l125 84q6 5 16 5h14q14 0 12 -14l-58 -360q-2 -12 -14 -12h-21z" />
    <glyph glyph-name="two.numr" 
d="M336 531q0 -19 -3.5 -34.5t-12 -30t-23 -30t-36.5 -33.5l-143 -121v-1h165q14 0 12 -14l-3 -17q-2 -12 -14 -12h-218q-14 0 -12 14l3 17q2 10 8 15l171 151q32 29 45.5 49.5t13.5 46.5t-17.5 41.5t-48.5 15.5q-27 0 -50 -12.5t-39 -34.5q-9 -12 -19 -3l-13 11
q-11 7 -3 18q25 31 58 47.5t71 16.5q50 0 79 -27t29 -73z" />
    <glyph glyph-name="three.numr" 
d="M339 536q0 -79 -75 -97v-1q26 -11 41 -32t15 -52q0 -60 -38.5 -91.5t-105.5 -31.5q-83 0 -123 54q-7 10 2 18l13 11q10 9 18 -2q28 -38 91 -38q45 0 70.5 22t25.5 61q0 61 -85 61h-23q-14 0 -12 14l2 15q1 12 14 12h21q101 0 101 72q0 57 -70 57q-51 0 -90 -39
q-10 -10 -18 -1l-12 14q-8 9 1 18q51 51 125 51q51 0 81.5 -25t30.5 -70z" />
    <glyph glyph-name="four.numr" 
d="M267 250q-2 -12 -14 -12h-21q-14 0 -12 14l12 74h-175q-14 0 -12 14l4 23q1 9 7 16l218 238q6 7 16 7h23q14 0 12 -14l-39 -241h32q14 0 12 -14l-2 -17q-2 -12 -14 -12h-35zM239 369l29 182h-1l-162 -182h134z" />
    <glyph glyph-name="five.numr" 
d="M135 465q32 20 76 20q48 0 78.5 -30.5t30.5 -81.5q0 -66 -40.5 -104t-111.5 -38q-41 0 -70 13.5t-48 38.5q-7 10 2 18l14 12q10 8 18 -3q14 -20 35 -28t49 -8q49 0 76.5 25t27.5 69q0 35 -19.5 54.5t-54.5 19.5q-46 0 -80 -28q-7 -5 -17 -4l-10 2q-13 2 -10 15l41 186
q3 11 15 11h189q14 0 12 -14l-3 -17q-2 -12 -14 -12h-161l-26 -116h1z" />
    <glyph glyph-name="six.numr" 
d="M214 487q47 0 76 -30.5t29 -81.5q0 -67 -39 -105.5t-102 -38.5q-54 0 -85.5 30t-31.5 80q0 6 0.5 12t1.5 12l22 137q10 62 46.5 95.5t96.5 33.5q67 0 103 -39q8 -9 -1 -18l-15 -15q-10 -10 -19 1q-25 28 -67 28q-83 0 -98 -93l-7 -41h1q33 33 89 33zM180 274
q41 0 66.5 27t25.5 72q0 33 -19 52t-51 19q-38 0 -62.5 -23.5t-31.5 -62.5q-1 -4 -1 -8v-8q0 -31 19.5 -49.5t53.5 -18.5z" />
    <glyph glyph-name="seven.numr" 
d="M363 586q-1 -7 -6 -15l-211 -325q-5 -8 -16 -8h-25q-8 0 -11 4.5t2 11.5l215 327h-171l-9 -56q-2 -12 -14 -12h-20q-14 0 -12 14l14 85q1 12 14 12h242q14 0 12 -14z" />
    <glyph glyph-name="eight.numr" 
d="M336 536q0 -76 -72 -99v-1q26 -11 40 -32.5t14 -50.5q0 -59 -39.5 -90.5t-106.5 -31.5q-60 0 -94 27.5t-34 75.5q0 42 22.5 69.5t63.5 38.5v1q-46 23 -46 75q0 51 36.5 82t98.5 31q56 0 86.5 -25t30.5 -70zM289 531q0 57 -71 57q-42 0 -65 -19t-23 -56q0 -26 18.5 -40
t53.5 -14q40 0 63.5 19t23.5 53zM271 357q0 29 -21 45t-60 16q-45 0 -72 -22t-27 -60q0 -30 21.5 -46t60.5 -16q45 0 71.5 22.5t26.5 60.5z" />
    <glyph glyph-name="nine.numr" 
d="M213 631q54 0 85.5 -30t31.5 -80q0 -6 -0.5 -12t-1.5 -12l-22 -137q-11 -62 -47 -95.5t-96 -33.5q-67 0 -103 39q-8 8 0 18l14 15q9 9 18 -1q27 -28 70 -28q84 0 98 93l7 42h-1q-31 -34 -89 -34q-46 0 -75.5 30t-29.5 80q0 68 39 107t102 39zM189 418q36 0 61.5 23.5
t32.5 62.5q1 4 1 8v8q0 31 -19.5 49.5t-53.5 18.5q-41 0 -66.5 -27t-25.5 -72q0 -33 19 -52t51 -19z" />
    <glyph glyph-name="zero.dnom" 
d="M40 263q21 130 142 130q56 0 86 -27.5t30 -78.5v-14t-2 -15l-22 -134q-21 -131 -142 -131q-55 0 -85.5 27t-30.5 78q0 14 3 31zM66 129q-2 -8 -2 -14.5v-12.5q0 -66 70 -66q42 0 64 23t30 71l20 128q2 8 2 14v12q0 66 -70 66q-80 0 -93 -94z" />
    <glyph glyph-name="one.dnom" 
d="M173 0q-14 0 -12 14l49 308l-89 -60q-11 -8 -18 4l-8 13q-6 11 4 18l125 84q6 5 16 5h14q14 0 12 -14l-58 -360q-2 -12 -14 -12h-21z" />
    <glyph glyph-name="two.dnom" 
d="M298 293q0 -19 -3.5 -34.5t-12 -30t-23 -30t-36.5 -33.5l-143 -121v-1h165q14 0 12 -14l-3 -17q-2 -12 -14 -12h-218q-14 0 -12 14l3 17q2 10 8 15l171 151q32 29 45.5 49.5t13.5 46.5t-17.5 41.5t-48.5 15.5q-27 0 -50 -12.5t-39 -34.5q-9 -12 -19 -3l-13 11
q-11 7 -3 18q25 31 58 47.5t71 16.5q50 0 79 -27t29 -73z" />
    <glyph glyph-name="three.dnom" 
d="M301 298q0 -79 -75 -97v-1q26 -11 41 -32t15 -52q0 -60 -38.5 -91.5t-105.5 -31.5q-83 0 -123 54q-7 10 2 18l13 11q10 9 18 -2q28 -38 91 -38q45 0 70.5 22t25.5 61q0 61 -85 61h-23q-14 0 -12 14l2 15q1 12 14 12h21q101 0 101 72q0 57 -70 57q-51 0 -90 -39
q-10 -10 -18 -1l-12 14q-8 9 1 18q51 51 125 51q51 0 81.5 -25t30.5 -70z" />
    <glyph glyph-name="four.dnom" 
d="M229 12q-2 -12 -14 -12h-21q-14 0 -12 14l12 74h-175q-14 0 -12 14l4 23q1 9 7 16l218 238q6 7 16 7h23q14 0 12 -14l-39 -241h32q14 0 12 -14l-2 -17q-2 -12 -14 -12h-35zM201 131l29 182h-1l-162 -182h134z" />
    <glyph glyph-name="five.dnom" 
d="M97 227q32 20 76 20q48 0 78.5 -30.5t30.5 -81.5q0 -66 -40.5 -104t-111.5 -38q-41 0 -70 13.5t-48 38.5q-7 10 2 18l14 12q10 8 18 -3q14 -20 35 -28t49 -8q49 0 76.5 25t27.5 69q0 35 -19.5 54.5t-54.5 19.5q-46 0 -80 -28q-7 -5 -17 -4l-10 2q-13 2 -10 15l41 186
q3 11 15 11h189q14 0 12 -14l-3 -17q-2 -12 -14 -12h-161l-26 -116h1z" />
    <glyph glyph-name="six.dnom" 
d="M176 249q47 0 76 -30.5t29 -81.5q0 -67 -39 -105.5t-102 -38.5q-54 0 -85.5 30t-31.5 80q0 6 0.5 12t1.5 12l22 137q10 62 46.5 95.5t96.5 33.5q67 0 103 -39q8 -9 -1 -18l-15 -15q-10 -10 -19 1q-25 28 -67 28q-83 0 -98 -93l-7 -41h1q33 33 89 33zM142 36q41 0 66.5 27
t25.5 72q0 33 -19 52t-51 19q-38 0 -62.5 -23.5t-31.5 -62.5q-1 -4 -1 -8v-8q0 -31 19.5 -49.5t53.5 -18.5z" />
    <glyph glyph-name="seven.dnom" 
d="M325 348q-1 -7 -6 -15l-211 -325q-5 -8 -16 -8h-25q-8 0 -11 4.5t2 11.5l215 327h-171l-9 -56q-2 -12 -14 -12h-20q-14 0 -12 14l14 85q1 12 14 12h242q14 0 12 -14z" />
    <glyph glyph-name="eight.dnom" 
d="M298 298q0 -76 -72 -99v-1q26 -11 40 -32.5t14 -50.5q0 -59 -39.5 -90.5t-106.5 -31.5q-60 0 -94 27.5t-34 75.5q0 42 22.5 69.5t63.5 38.5v1q-46 23 -46 75q0 51 36.5 82t98.5 31q56 0 86.5 -25t30.5 -70zM251 293q0 57 -71 57q-42 0 -65 -19t-23 -56q0 -26 18.5 -40
t53.5 -14q40 0 63.5 19t23.5 53zM233 119q0 29 -21 45t-60 16q-45 0 -72 -22t-27 -60q0 -30 21.5 -46t60.5 -16q45 0 71.5 22.5t26.5 60.5z" />
    <glyph glyph-name="nine.dnom" 
d="M175 393q54 0 85.5 -30t31.5 -80q0 -6 -0.5 -12t-1.5 -12l-22 -137q-11 -62 -47 -95.5t-96 -33.5q-67 0 -103 39q-8 8 0 18l14 15q9 9 18 -1q27 -28 70 -28q84 0 98 93l7 42h-1q-31 -34 -89 -34q-46 0 -75.5 30t-29.5 80q0 68 39 107t102 39zM151 180q36 0 61.5 23.5
t32.5 62.5q1 4 1 8v8q0 31 -19.5 49.5t-53.5 18.5q-41 0 -66.5 -27t-25.5 -72q0 -33 19 -52t51 -19z" />
    </font>
</defs>
</svg>
