<?xml version="1.0" standalone="no"?>
<!DOCTYPE svg PUBLIC "-//W3C//DTD SVG 1.1//EN" "http://www.w3.org/Graphics/SVG/1.1/DTD/svg11.dtd" >
<svg>
<metadata>
Created by FontForge 20120731 at Mon Jul 10 16:08:00 2017
 By www
Copyright (c) 2014 by Ryoichi Tsunekawa. All rights reserved.
</metadata>
<defs>
<font id="KiroW03-ExtraLightItalic" horiz-adv-x="330" >
  <font-face 
    font-family="KiroW03-ExtraLightItalic"
    font-weight="300"
    font-style="italic"
    font-stretch="normal"
    units-per-em="1000"
    panose-1="2 15 4 6 2 2 3 11 2 4"
    ascent="800"
    descent="-200"
    x-height="491"
    cap-height="664"
    bbox="-191.571 -172 1041 911"
    underline-thickness="50"
    underline-position="-75"
    slope="-9"
    unicode-range="U+0020-FB04"
  />
<missing-glyph horiz-adv-x="600" 
d="M84 0v664h462v-664h-462zM159 623l156 -248l156 248h-312zM129 585v-506l159 253zM501 79v506l-159 -253zM315 289l-156 -248h312z" />
    <glyph glyph-name="uniFB00" unicode="ff" horiz-adv-x="597" 
d="M688 689q13 -7 5 -18l-8 -12q-7 -10 -16 -3q-15 11 -34 15t-43 4q-54 0 -83 -32t-40 -97l-9 -55h164q14 0 11 -13l-3 -13q-3 -11 -13 -11h-165l-70 -443q-2 -11 -13 -11h-17q-13 0 -11 13l70 441h-240l-70 -443q-2 -11 -13 -11h-17q-13 0 -11 13l70 441h-66q-13 0 -11 13
l2 13q2 11 13 11h68l7 44q12 79 59 123t125 44q43 0 78 -14.5t58 -36.5q43 61 128 61q29 0 52 -5t43 -18zM429 553q3 17 7 32.5t10 29.5q-17 21 -46.5 35.5t-71.5 14.5q-60 0 -96 -36t-47 -101l-6 -37h240z" />
    <glyph glyph-name="uniFB01" unicode="fi" horiz-adv-x="496" 
d="M325 712q41 0 70 -11t52 -29q9 -7 1 -17l-8 -10q-8 -10 -17 -1q-17 14 -41 22.5t-59 8.5q-59 0 -92 -33t-43 -96l-9 -55h144q13 0 11 -13l-3 -13q-2 -11 -13 -11h-145l-70 -443q-2 -11 -13 -11h-17q-13 0 -11 13l70 441h-66q-13 0 -11 13l2 13q2 11 13 11h68l10 62
q12 77 57 118t120 41zM352 0q-13 0 -11 13l74 467q2 11 13 11h17q13 0 11 -13l-74 -467q-2 -11 -13 -11h-17z" />
    <glyph glyph-name="uniFB02" unicode="fl" horiz-adv-x="506" 
d="M488 700q13 0 11 -13l-107 -676q-2 -11 -13 -11h-17q-13 0 -11 13l97 612q-17 21 -48 35.5t-73 14.5q-59 0 -94 -36t-46 -101l-8 -47h152q13 0 11 -13l-2 -13q-2 -11 -13 -11h-153l-71 -443q-2 -11 -13 -11h-17q-13 0 -11 13l70 441h-66q-13 0 -11 13l2 13q2 11 13 11h68
l9 54q13 79 58.5 123t123.5 44q38 0 70.5 -11.5t55.5 -29.5l3 18q2 11 13 11h17z" />
    <glyph glyph-name="uniFB03" unicode="ffi" horiz-adv-x="777" 
d="M604 491q13 0 11 -13l-3 -13q-2 -11 -13 -11h-145l-70 -443q-2 -11 -13 -11h-17q-13 0 -11 13l70 441h-240l-70 -443q-2 -11 -13 -11h-17q-13 0 -11 13l70 441h-66q-13 0 -11 13l2 13q2 11 13 11h68l7 44q12 79 59 123t125 44q44 0 79.5 -15t58.5 -37q46 62 139 62
q41 0 70 -11t52 -29q9 -7 1 -17l-8 -10q-8 -10 -17 -1q-17 14 -41 22.5t-59 8.5q-59 0 -92 -33t-43 -96l-9 -55h144zM429 553q3 17 7 32t10 29q-17 21 -46.5 36t-71.5 15q-60 0 -96 -36t-47 -101l-6 -37h240zM726 491q13 0 11 -13l-74 -467q-2 -11 -13 -11h-17q-13 0 -11 13
l74 467q2 11 13 11h17z" />
    <glyph glyph-name="uniFB04" unicode="ffl" horiz-adv-x="787" 
d="M769 700q13 0 11 -13l-107 -676q-2 -11 -13 -11h-17q-13 0 -11 13l97 612q-17 21 -48 35.5t-73 14.5q-59 0 -94 -36t-46 -101l-8 -47h152q13 0 11 -13l-2 -13q-2 -11 -13 -11h-153l-71 -443q-2 -11 -13 -11h-17q-13 0 -11 13l70 441h-240l-70 -443q-2 -11 -13 -11h-17
q-13 0 -11 13l70 441h-66q-13 0 -11 13l2 13q2 11 13 11h68l7 44q12 79 59 123t125 44q45 0 80.5 -15.5t58.5 -38.5q23 31 59 47.5t83 16.5q38 0 70.5 -11.5t55.5 -29.5l3 18q2 11 13 11h17zM428 545q6 40 19 68q-17 21 -47 36.5t-72 15.5q-60 0 -96 -36t-47 -101l-6 -37
h240z" />
    <glyph glyph-name="f_b.liga" unicode="fb" horiz-adv-x="802" 
d="M458 433h1q48 70 146 70q76 0 115.5 -36t39.5 -106q0 -22 -4 -45l-22 -143q-29 -185 -202 -185q-77 0 -118 36.5t-41 106.5q0 11 1 22t3 23l71 449q-17 21 -48 35.5t-73 14.5q-59 0 -94 -36t-46 -101l-8 -47h152q13 0 11 -13l-2 -13q-2 -11 -13 -11h-153l-71 -443
q-2 -11 -13 -11h-17q-13 0 -11 13l70 441h-66q-13 0 -11 13l2 13q2 11 13 11h68l9 54q13 79 58.5 123t123.5 44q38 0 70.5 -11.5t55.5 -29.5l3 18q2 11 13 11h17q13 0 11 -13zM535 25q72 0 109.5 38.5t50.5 121.5l19 124q2 13 3 24.5t1 22.5q0 110 -120 110q-69 0 -108 -40
t-52 -119l-19 -124q-2 -13 -3 -24.5t-1 -22.5q0 -57 30 -84t90 -27z" />
    <glyph glyph-name="f_f_b.liga" unicode="ffb" horiz-adv-x="1083" 
d="M428 545q6 40 19 68q-17 21 -47 36.5t-72 15.5q-60 0 -96 -36t-47 -101l-6 -37h240zM729 625q-17 21 -48 35.5t-73 14.5q-59 0 -94 -36t-46 -101l-8 -47h152q13 0 11 -13l-2 -13q-2 -11 -13 -11h-153l-71 -443q-2 -11 -13 -11h-17q-13 0 -11 13l70 441h-240l-70 -443
q-2 -11 -13 -11h-17q-13 0 -11 13l70 441h-66q-13 0 -11 13l2 13q2 11 13 11h68l7 44q12 79 59 123t125 44q45 0 80.5 -15.5t58.5 -38.5q23 31 59 47.5t83 16.5q38 0 70.5 -11.5t55.5 -29.5l3 18q2 11 13 11h17q13 0 11 -13l-41 -254h1q48 70 146 70q76 0 115.5 -36
t39.5 -106q0 -22 -4 -45l-22 -143q-29 -185 -202 -185q-77 0 -118 36.5t-41 106.5q0 11 1 22t3 23zM816 25q72 0 109.5 38.5t50.5 121.5l19 124q2 13 3 24.5t1 22.5q0 110 -120 110q-69 0 -108 -40t-52 -119l-19 -124q-2 -13 -3 -24.5t-1 -22.5q0 -57 30 -84t90 -27z" />
    <glyph glyph-name="f_h.liga" unicode="fh" horiz-adv-x="811" 
d="M448 625q-17 21 -48 35.5t-73 14.5q-59 0 -94 -36t-46 -101l-8 -47h152q13 0 11 -13l-2 -13q-2 -11 -13 -11h-153l-71 -443q-2 -11 -13 -11h-17q-13 0 -11 13l70 441h-66q-13 0 -11 13l2 13q2 11 13 11h68l9 54q13 79 58.5 123t123.5 44q38 0 70.5 -11.5t55.5 -29.5l3 18
q2 11 13 11h17q13 0 11 -13l-40 -252h1q45 68 144 68q73 0 112.5 -35t39.5 -104q0 -21 -4 -44l-49 -309q-2 -11 -13 -11h-17q-13 0 -11 13l48 301q2 12 3 22.5t1 20.5q0 57 -30 83t-88 26q-68 0 -106 -38.5t-50 -116.5l-48 -300q-2 -11 -13 -11h-17q-13 0 -11 13z" />
    <glyph glyph-name="f_f_h.liga" unicode="ffh" horiz-adv-x="1092" 
d="M739 689q2 11 13 11h17q13 0 11 -13l-40 -252h1q45 68 144 68q73 0 112.5 -35t39.5 -104q0 -21 -4 -44l-49 -309q-2 -11 -13 -11h-17q-13 0 -11 13l48 301q2 12 3 22.5t1 20.5q0 57 -30 83t-88 26q-68 0 -106 -38.5t-50 -116.5l-48 -300q-2 -11 -13 -11h-17q-13 0 -11 13
l97 612q-17 21 -48 35.5t-73 14.5q-59 0 -94 -36t-46 -101l-8 -47h152q13 0 11 -13l-2 -13q-2 -11 -13 -11h-153l-71 -443q-2 -11 -13 -11h-17q-13 0 -11 13l70 441h-240l-70 -443q-2 -11 -13 -11h-17q-13 0 -11 13l70 441h-66q-13 0 -11 13l2 13q2 11 13 11h68l7 44
q12 79 59 123t125 44q45 0 80.5 -15.5t58.5 -38.5q23 31 59 47.5t83 16.5q38 0 70.5 -11.5t55.5 -29.5zM428 545q6 40 19 68q-17 21 -47 36.5t-72 15.5q-60 0 -96 -36t-47 -101l-6 -37h240z" />
    <glyph glyph-name="f_j.liga" unicode="fj" horiz-adv-x="496" 
d="M325 712q41 0 70 -11t52 -29q9 -7 1 -17l-8 -10q-8 -10 -17 -1q-17 14 -41 22.5t-59 8.5q-59 0 -92 -33t-43 -96l-9 -55h144q13 0 11 -13l-3 -13q-2 -11 -13 -11h-145l-70 -443q-2 -11 -13 -11h-17q-13 0 -11 13l70 441h-66q-13 0 -11 13l2 13q2 11 13 11h68l10 62
q12 77 57 118t120 41zM233 -123q86 0 101 92l81 511q2 11 13 11h17q13 0 11 -13l-81 -509q-21 -129 -141 -129h-5q-13 0 -11 13l2 13q2 11 12 11h1z" />
    <glyph glyph-name="f_f_j.liga" unicode="ffj" horiz-adv-x="777" 
d="M612 465q-2 -11 -13 -11h-145l-70 -443q-2 -11 -13 -11h-17q-13 0 -11 13l70 441h-240l-70 -443q-2 -11 -13 -11h-17q-13 0 -11 13l70 441h-66q-13 0 -11 13l2 13q2 11 13 11h68l7 44q12 79 59 123t125 44q44 0 79.5 -15t58.5 -37q46 62 139 62q41 0 70 -11t52 -29
q9 -7 1 -17l-8 -10q-8 -10 -17 -1q-17 14 -41 22.5t-59 8.5q-59 0 -92 -33t-43 -96l-9 -55h144q13 0 11 -13zM429 553q3 17 7 32t10 29q-17 21 -46.5 36t-71.5 15q-60 0 -96 -36t-47 -101l-6 -37h240zM726 491q13 0 11 -13l-81 -509q-21 -129 -141 -129h-5q-13 0 -11 13
l2 13q2 11 12 11h1q86 0 101 92l81 511q2 11 13 11h17z" />
    <glyph glyph-name="f_k.liga" unicode="fk" horiz-adv-x="733" 
d="M448 625q-17 21 -48 35.5t-73 14.5q-59 0 -94 -36t-46 -101l-8 -47h152q13 0 11 -13l-2 -13q-2 -11 -13 -11h-153l-71 -443q-2 -11 -13 -11h-17q-13 0 -11 13l70 441h-66q-13 0 -11 13l2 13q2 11 13 11h68l9 54q12 79 58 123t124 44q38 0 70.5 -11.5t55.5 -29.5l3 18
q2 11 13 11h17q13 0 11 -13l-67 -423l260 222q7 5 14 5h25q8 0 10 -5t-4 -10l-264 -226l200 -235q5 -6 3.5 -10.5t-9.5 -4.5h-24q-9 0 -15 7l-200 236l-36 -232q-2 -11 -13 -11h-17q-13 0 -11 13z" />
    <glyph glyph-name="f_f_k.liga" unicode="ffk" horiz-adv-x="1014" 
d="M739 689q2 11 13 11h17q13 0 11 -13l-67 -423l260 222q7 5 14 5h25q8 0 10 -5t-4 -10l-264 -226l200 -235q5 -6 3.5 -10.5t-9.5 -4.5h-24q-9 0 -15 7l-200 236l-36 -232q-2 -11 -13 -11h-17q-13 0 -11 13l97 612q-17 21 -48 35.5t-73 14.5q-59 0 -94 -36t-46 -101l-8 -47
h152q13 0 11 -13l-2 -13q-2 -11 -13 -11h-153l-71 -443q-2 -11 -13 -11h-17q-13 0 -11 13l70 441h-240l-70 -443q-2 -11 -13 -11h-17q-13 0 -11 13l70 441h-66q-13 0 -11 13l2 13q2 11 13 11h68l7 44q12 79 59 123t125 44q45 0 80.5 -15.5t58.5 -38.5q23 31 59 47.5t83 16.5
q38 0 70.5 -11.5t55.5 -29.5zM428 545q6 40 19 68q-17 21 -47 36.5t-72 15.5q-60 0 -96 -36t-47 -101l-6 -37h240z" />
    <glyph glyph-name="f_t.liga" unicode="ft" horiz-adv-x="629" 
d="M402 133q-3 -17 -3 -29q0 -79 86 -79q36 0 68 22q11 6 17 -4l6 -11q4 -10 -4 -17q-20 -14 -44 -20.5t-48 -6.5q-59 0 -90.5 28.5t-31.5 82.5q0 15 3 32l51 323h-239l-70 -443q-2 -11 -13 -11h-17q-13 0 -11 13l70 441h-66q-13 0 -11 13l2 13q2 11 13 11h68l10 62
q12 77 56 118t118 41q40 0 69.5 -10.5t50.5 -27.5q8 -8 1 -17l-9 -11q-7 -9 -17 -1q-16 14 -38.5 22t-56.5 8q-58 0 -91 -33t-43 -96l-9 -55h238l15 95q2 11 13 11h17q13 0 11 -13l-15 -93h165q13 0 11 -13l-3 -13q-2 -11 -13 -11h-165z" />
    <glyph glyph-name="f_f_t.liga" unicode="fft" horiz-adv-x="910" 
d="M904 491q13 0 11 -13l-3 -13q-2 -11 -13 -11h-165l-51 -321q-3 -17 -3 -29q0 -79 86 -79q36 0 68 22q11 6 17 -4l6 -11q4 -10 -4 -17q-20 -14 -44 -20.5t-48 -6.5q-59 0 -90.5 28.5t-31.5 82.5q0 15 3 32l51 323h-239l-70 -443q-2 -11 -13 -11h-17q-13 0 -11 13l70 441
h-240l-70 -443q-2 -11 -13 -11h-17q-13 0 -11 13l70 441h-66q-13 0 -11 13l2 13q2 11 13 11h68l7 44q12 79 59 123t125 44q44 0 79.5 -14.5t58.5 -37.5q46 62 136 62q40 0 69.5 -10.5t50.5 -27.5q8 -8 1 -17l-9 -11q-7 -9 -17 -1q-16 14 -38.5 22t-56.5 8q-58 0 -91 -33
t-43 -96l-9 -55h238l15 95q2 11 13 11h17q13 0 11 -13l-15 -93h165zM429 553q3 17 7 32t10 29q-17 21 -46.5 36t-71.5 15q-60 0 -96 -36t-47 -101l-6 -37h240z" />
    <glyph glyph-name=".notdef" horiz-adv-x="600" 
d="M84 0v664h462v-664h-462zM159 623l156 -248l156 248h-312zM129 585v-506l159 253zM501 79v506l-159 -253zM315 289l-156 -248h312z" />
    <glyph glyph-name=".null" horiz-adv-x="0" 
 />
    <glyph glyph-name="nonmarkingreturn" horiz-adv-x="333" 
 />
    <glyph glyph-name="space" unicode=" " horiz-adv-x="215" 
 />
    <glyph glyph-name="exclam" unicode="!" horiz-adv-x="212" 
d="M105 161q-1 -7 -8 -7h-9q-9 0 -7 8l23 201l46 290q2 11 13 11h17q13 0 11 -13l-46 -288zM67 -12q-14 0 -22.5 8.5t-8.5 22.5q0 17 11 27.5t27 10.5q14 0 22.5 -8.5t8.5 -22.5q0 -17 -10.5 -27.5t-27.5 -10.5z" />
    <glyph glyph-name="quotedbl" unicode="&#x22;" horiz-adv-x="334" 
d="M144 470q-2 -8 -10 -8h-8q-11 0 -9 9l21 182q2 11 12 11h19q13 0 10 -13zM289 470q-2 -8 -10 -8h-8q-11 0 -9 9l21 182q2 11 12 11h19q13 0 10 -13z" />
    <glyph glyph-name="numbersign" unicode="#" horiz-adv-x="528" 
d="M457 237q13 0 10 -14l-4 -12q-3 -10 -13 -10h-100l-64 -191q-3 -10 -13 -10h-14q-14 0 -9 14l62 187h-151l-64 -191q-3 -10 -13 -10h-13q-14 0 -9 14l62 187h-97q-14 0 -9 14l4 12q3 10 13 10h101l57 170h-97q-13 0 -10 14l4 12q3 10 13 10h102l57 171q3 10 13 10h13
q14 0 9 -14l-55 -167h151l57 171q3 10 13 10h14q14 0 9 -14l-55 -167h95q13 0 10 -14l-4 -12q-3 -10 -13 -10h-100l-57 -170h95zM173 237h151l57 170h-151z" />
    <glyph glyph-name="dollar" unicode="$" horiz-adv-x="528" 
d="M480 505q-10 -7 -17 4q-34 61 -122 68l-39 -249q45 -6 76.5 -16t50.5 -26t27.5 -38t8.5 -51q0 -41 -15.5 -75t-43.5 -59t-67.5 -39.5t-87.5 -15.5l-10 -68q-1 -10 -12 -10h-15q-12 0 -10 12l10 67q-65 4 -108 28t-69 69q-4 10 5 17l13 8q10 7 17 -4q22 -38 58 -57.5
t90 -22.5l40 247q-91 11 -127 42t-36 91q0 84 57.5 134.5t156.5 54.5l9 62q1 10 12 10h15q11 0 10 -12l-10 -61q109 -9 151 -85q4 -10 -5 -17zM139 434q0 -45 29 -69t98 -32l39 245q-37 -2 -67.5 -13.5t-52.5 -30t-34 -44.5t-12 -56zM423 190q0 43 -29 66.5t-98 32.5
l-39 -243q75 4 120.5 43t45.5 101z" />
    <glyph glyph-name="percent" unicode="%" horiz-adv-x="620" 
d="M78 516q18 120 129 120q49 0 75.5 -24t26.5 -70v-14t-2 -15l-11 -76q-18 -121 -129 -121q-50 0 -77 24t-27 71q0 14 3 29zM102 441q-2 -8 -2 -15v-13q0 -34 17 -49t52 -15q42 0 63 22t29 71l11 70q2 8 2 14.5v13.5q0 33 -17 48t-52 15q-43 0 -63.5 -22.5t-28.5 -70.5z
M347 188q18 120 129 120q49 0 75.5 -24t26.5 -70v-14t-2 -15l-11 -76q-18 -121 -129 -121q-50 0 -77 24t-27 71q0 14 3 29zM371 113q-2 -8 -2 -15v-13q0 -34 17 -49t52 -15q42 0 63 22t29 71l11 70q2 8 2 14.5v13.5q0 33 -17 48t-52 15q-43 0 -63.5 -22.5t-28.5 -70.5z
M548 618q4 6 13 6h18q7 0 9 -4t-3 -9l-491 -605q-5 -6 -13 -6h-19q-7 0 -9 4t3 9z" />
    <glyph glyph-name="ampersand" unicode="&#x26;" horiz-adv-x="576" 
d="M540 314q10 -5 6 -15q-48 -116 -103 -187l79 -97q5 -6 3 -10.5t-10 -4.5h-26q-9 0 -15 7l-59 73q-89 -92 -207 -92q-85 0 -134 45t-49 120q0 72 35 127t114 102q-34 56 -34 111q0 85 52 134t143 49q40 0 75.5 -12.5t58.5 -35.5q8 -9 0 -17l-11 -13q-8 -9 -18 1
q-39 39 -105 39q-73 0 -113.5 -37t-40.5 -106q0 -32 13 -62.5t42 -65.5l181 -223q25 34 48 76t44 94q3 11 15 6zM213 26q98 0 177 86l-193 238q-66 -38 -97.5 -84.5t-31.5 -108.5q0 -59 38 -95t107 -36z" />
    <glyph glyph-name="quotesingle" unicode="'" horiz-adv-x="189" 
d="M144 470q-2 -8 -10 -8h-8q-11 0 -9 9l21 182q2 11 12 11h19q13 0 10 -13z" />
    <glyph glyph-name="parenleft" unicode="(" horiz-adv-x="312" 
d="M130 186q0 -69 15.5 -135.5t50.5 -126.5q9 -14 -8 -14h-14q-10 0 -14 8q-37 62 -54.5 130.5t-17.5 140.5q0 54 10 113t32.5 120t58.5 120.5t87 115.5q6 6 15 6h16q8 0 8 -6t-5 -11q-51 -58 -85.5 -119t-55.5 -120.5t-30 -116t-9 -105.5z" />
    <glyph glyph-name="parenright" unicode=")" horiz-adv-x="312" 
d="M196 388q0 69 -15.5 135.5t-50.5 126.5q-9 14 8 14h14q10 0 14 -8q37 -62 54.5 -130.5t17.5 -140.5q0 -54 -10 -113t-32.5 -120t-58.5 -121t-87 -115q-6 -6 -15 -6h-16q-8 0 -8 6t5 11q51 58 85.5 119t55.5 120.5t30 116t9 105.5z" />
    <glyph glyph-name="asterisk" unicode="*" horiz-adv-x="471" 
d="M403 335q7 -11 -3 -17l-15 -9q-10 -6 -16 3l-94 154l-111 -154q-7 -10 -17 -3l-11 9q-9 8 -2 16l122 145l-174 52q-12 3 -8 15l5 14q4 11 15 8l171 -65l3 185q0 12 12 12h15q14 0 12 -13l-18 -183l175 64q12 3 15 -8l4 -14q4 -12 -8 -15l-180 -51z" />
    <glyph glyph-name="plus" unicode="+" horiz-adv-x="528" 
d="M253 47q-2 -11 -13 -11h-14q-13 0 -11 13l33 211h-211q-13 0 -11 13l2 14q2 11 13 11h214l33 213q2 11 13 11h14q13 0 11 -13l-33 -211h210q13 0 11 -13l-2 -14q-2 -11 -13 -11h-213z" />
    <glyph glyph-name="comma" unicode="," horiz-adv-x="210" 
d="M73 57q14 0 22.5 -8.5t8.5 -24.5q0 -29 -18.5 -60t-50.5 -54q-7 -6 -12 2l-4 6q-5 6 2 11q33 25 43 64q-12 1 -20 8.5t-8 20.5q0 17 10.5 26t26.5 9z" />
    <glyph glyph-name="hyphen" unicode="-" horiz-adv-x="327" 
d="M44 251q-13 0 -11 13l3 16q2 11 13 11h243q13 0 11 -13l-3 -16q-2 -11 -13 -11h-243z" />
    <glyph glyph-name="period" unicode="." horiz-adv-x="210" 
d="M66 -12q-14 0 -23 8.5t-9 21.5q0 17 11.5 28t27.5 11q14 0 22.5 -8.5t8.5 -22.5q0 -17 -10.5 -27.5t-27.5 -10.5z" />
    <glyph glyph-name="slash" unicode="/" horiz-adv-x="347" 
d="M341 656q6 8 15 8h15q7 0 9.5 -4t-1.5 -10l-345 -642q-6 -8 -15 -8h-15q-7 0 -9.5 4t1.5 10z" />
    <glyph glyph-name="zero" unicode="0" horiz-adv-x="528" 
d="M87 422q17 107 73.5 160.5t158.5 53.5q88 0 135.5 -42t47.5 -123q0 -12 -1 -25t-3 -27l-34 -216q-33 -215 -232 -215q-89 0 -136 42t-47 124q0 12 1 25t3 27zM96 212q-2 -14 -3.5 -27.5t-1.5 -25.5q0 -69 35.5 -101t107.5 -32q85 0 129.5 45.5t59.5 142.5l32 199
q2 14 3 27t1 25q0 69 -35.5 101t-107.5 32q-85 0 -129 -45.5t-59 -141.5z" />
    <glyph glyph-name="one" unicode="1" horiz-adv-x="528" 
d="M326 11q-2 -11 -13 -11h-18q-13 0 -11 13l87 551l-184 -121q-10 -7 -16 4l-7 12q-6 10 4 16l215 143q5 4 8.5 5t8.5 1h10q13 0 11 -13z" />
    <glyph glyph-name="two" unicode="2" horiz-adv-x="528" 
d="M502 486q0 -32 -7 -58.5t-22 -51t-40 -50t-61 -56.5l-273 -231v-1h323q13 0 11 -13l-2 -14q-2 -11 -13 -11h-372q-13 0 -11 13l2 14q1 8 7 14l301 257q33 29 55.5 52t35.5 44.5t18.5 42.5t5.5 45q0 55 -36 85.5t-98 30.5q-111 0 -178 -100q-7 -10 -17 -4l-13 10
q-9 7 -3 17q39 57 94.5 86t121.5 29q78 0 124.5 -40t46.5 -110z" />
    <glyph glyph-name="three" unicode="3" horiz-adv-x="528" 
d="M508 490q0 -65 -35 -106t-99 -56v-1q48 -14 75.5 -49.5t27.5 -88.5q0 -47 -16.5 -84t-47.5 -63t-75.5 -40t-100.5 -14q-140 0 -196 92q-6 10 3 17l12 9q10 7 16 -4q48 -76 167 -76q92 0 144 44t52 119q0 59 -41 89.5t-117 30.5h-58q-13 0 -11 13l2 14q2 11 13 11h53
q94 0 142 36t48 105q0 54 -36.5 82t-103.5 28q-112 0 -179 -78q-8 -10 -17 -1l-10 10q-8 8 0 17q42 45 95 67.5t116 22.5q83 0 130 -38.5t47 -107.5z" />
    <glyph glyph-name="four" unicode="4" horiz-adv-x="528" 
d="M388 11q-2 -11 -13 -11h-18q-13 0 -11 13l22 140h-326q-13 0 -11 13l4 19q1 8 7 14l394 419q6 6 15 6h21q13 0 11 -13l-67 -420h66q13 0 11 -13l-3 -14q-2 -11 -13 -11h-67zM89 191h285l58 365h-1z" />
    <glyph glyph-name="five" unicode="5" horiz-adv-x="528" 
d="M141 347q64 49 155 49q39 0 72 -12.5t57 -36t37 -56t13 -72.5q0 -53 -17 -95.5t-48.5 -72.5t-76.5 -46.5t-101 -16.5q-140 0 -196 92q-6 10 4 17l14 9q10 7 16 -4q45 -76 165 -76q45 0 81.5 13.5t62 38.5t39.5 60t14 78q0 66 -39 104t-105 38q-98 0 -166 -62
q-7 -5 -17 -4l-7 1q-12 2 -9 14l69 306q1 11 13 11h325q13 0 11 -13l-3 -14q-2 -11 -13 -11h-298l-53 -239h1z" />
    <glyph glyph-name="six" unicode="6" horiz-adv-x="528" 
d="M330 598q-82 0 -130 -45.5t-62 -132.5l-18 -110h1q29 41 75.5 63.5t104.5 22.5q39 0 70.5 -13t54.5 -36t35.5 -55.5t12.5 -72.5q0 -52 -16.5 -94.5t-47.5 -73t-74 -47t-95 -16.5q-85 0 -134.5 46t-49.5 123q0 18 3 38l38 236q15 97 75.5 151t157.5 54q57 0 100.5 -19.5
t69.5 -56.5q6 -10 -3 -17l-14 -11q-10 -7 -16 2q-43 64 -138 64zM293 358q-37 0 -69 -12t-57 -34t-42 -53t-23 -68q-3 -17 -3 -32q0 -63 39 -98t106 -35q42 0 76.5 13.5t59 38.5t38 60.5t13.5 79.5q0 65 -37.5 102.5t-100.5 37.5z" />
    <glyph glyph-name="seven" unicode="7" horiz-adv-x="528" 
d="M552 592q-2 -9 -5 -14l-388 -570q-4 -8 -14 -8h-22q-8 0 -10.5 4t2.5 11l389 571h-351l-15 -100q-2 -11 -13 -11h-16q-13 0 -11 13l19 125q2 11 13 11h414q13 0 11 -13z" />
    <glyph glyph-name="eight" unicode="8" horiz-adv-x="528" 
d="M504 490q0 -63 -35 -105t-98 -58v-1q49 -17 75 -51.5t26 -85.5q0 -95 -63.5 -148t-173.5 -53q-97 0 -150 42.5t-53 117.5q0 72 40.5 119t112.5 64v1q-42 17 -65 47.5t-23 74.5q0 84 59 133t161 49q89 0 138 -38.5t49 -107.5zM286 347q81 0 128.5 37t47.5 103
q0 54 -37.5 82.5t-109.5 28.5q-41 0 -73.5 -10.5t-55.5 -29.5t-35.5 -45.5t-12.5 -57.5q0 -51 38.5 -79.5t109.5 -28.5zM430 190q0 57 -41.5 88t-119.5 31q-91 0 -143 -41.5t-52 -115.5q0 -61 42 -93.5t121 -32.5q89 0 141 43.5t52 120.5z" />
    <glyph glyph-name="nine" unicode="9" horiz-adv-x="528" 
d="M310 636q85 0 134 -45.5t49 -122.5q0 -18 -3 -39l-38 -236q-15 -97 -75 -151t-158 -54q-57 0 -100 20t-71 57q-6 9 2 17l12 11q9 9 17 -3q46 -64 142 -64q81 0 128.5 45.5t61.5 132.5l18 110h-1q-29 -41 -75 -63.5t-103 -22.5q-39 0 -70.5 12.5t-54.5 36t-35.5 56
t-12.5 72.5q0 52 16.5 94.5t47 73t73.5 47t96 16.5zM257 266q36 0 68.5 11.5t57.5 33.5t42.5 53t23.5 69q3 18 3 34q0 62 -39 96.5t-106 34.5q-89 0 -139 -52.5t-50 -140.5q0 -65 38 -102t101 -37z" />
    <glyph glyph-name="colon" unicode=":" horiz-adv-x="210" 
d="M66 -12q-14 0 -23 8.5t-9 21.5q0 17 11.5 28t27.5 11q14 0 22.5 -8.5t8.5 -22.5q0 -17 -10.5 -27.5t-27.5 -10.5zM130 391q-14 0 -23 8.5t-9 21.5q0 17 11.5 28t27.5 11q14 0 22.5 -8.5t8.5 -22.5q0 -17 -10.5 -27.5t-27.5 -10.5z" />
    <glyph glyph-name="semicolon" unicode=";" horiz-adv-x="210" 
d="M73 57q14 0 22.5 -8.5t8.5 -24.5q0 -29 -18.5 -60t-50.5 -54q-7 -6 -12 2l-4 6q-5 6 2 11q33 25 43 64q-12 1 -20 8.5t-8 20.5q0 17 10.5 26t26.5 9zM130 391q-14 0 -23 8.5t-9 21.5q0 17 11.5 28t27.5 11q14 0 22.5 -8.5t8.5 -22.5q0 -17 -10.5 -27.5t-27.5 -10.5z" />
    <glyph glyph-name="less" unicode="&#x3c;" horiz-adv-x="528" 
d="M512 505q16 7 13 -10l-3 -17q-1 -9 -10 -13l-418 -188l357 -187q9 -4 7 -15l-2 -14q-2 -15 -15 -8l-387 204q-9 5 -8 15l2 14q1 10 10 14z" />
    <glyph glyph-name="equal" unicode="=" horiz-adv-x="528" 
d="M73 371q-13 0 -11 13l2 14q2 11 13 11h425q13 0 11 -13l-2 -14q-2 -11 -13 -11h-425zM38 149q-13 0 -11 13l2 14q2 11 13 11h425q13 0 11 -13l-2 -14q-2 -11 -13 -11h-425z" />
    <glyph glyph-name="greater" unicode="&#x3e;" horiz-adv-x="528" 
d="M26 53q-16 -7 -13 10l3 17q1 9 10 13l418 188l-357 187q-9 4 -7 15l2 14q2 15 15 8l387 -204q9 -5 8 -15l-2 -14q-1 -10 -10 -14z" />
    <glyph glyph-name="question" unicode="?" horiz-adv-x="446" 
d="M293 676q78 0 124.5 -41.5t46.5 -112.5q0 -33 -7 -60t-23.5 -50.5t-42.5 -44t-65 -40.5q-32 -17 -53 -32t-34.5 -31t-20.5 -33.5t-10 -37.5l-4 -28q-2 -11 -12 -11h-15q-13 0 -11 13l5 32q4 25 12.5 46t24 39.5t38.5 36.5t56 36q34 19 57 37t37 37.5t20 42t6 49.5
q0 54 -35 84.5t-97 30.5q-54 0 -100.5 -26t-79.5 -74q-8 -11 -17 -3l-12 9q-9 7 -2 17q39 56 93.5 85.5t120.5 29.5zM159 -12q-14 0 -23 8.5t-9 21.5q0 17 11.5 28t27.5 11q14 0 22.5 -8.5t8.5 -22.5q0 -17 -10.5 -27.5t-27.5 -10.5z" />
    <glyph glyph-name="at" unicode="@" horiz-adv-x="726" 
d="M443 676q61 0 108 -19.5t79 -55.5t48.5 -87t16.5 -114q0 -41 -7 -92.5t-25 -96.5t-49 -76t-80 -31q-35 0 -54 18.5t-22 47.5h-1q-21 -32 -54.5 -49t-71.5 -17q-54 0 -83 25t-29 70q0 60 39 94.5t111 34.5h101l2 14q2 11 3 21.5t1 19.5q0 42 -21 61t-65 19q-53 0 -93 -38
q-8 -8 -16 1l-8 9q-7 9 1 15q54 45 120 45q119 0 119 -109q0 -18 -3 -37l-21 -131q-1 -7 -1.5 -13t-0.5 -11q0 -26 12 -42t38 -16q37 0 61 30.5t37.5 73.5t19 87.5t5.5 73.5q0 112 -55.5 177.5t-164.5 65.5q-70 0 -123 -21t-92.5 -56t-66 -79.5t-42 -92.5t-22.5 -94.5
t-7 -85.5q0 -126 67 -192.5t194 -66.5q106 0 183 51q9 6 15 -4l6 -12q4 -9 -6 -14q-42 -26 -93.5 -39.5t-107.5 -13.5q-140 0 -216.5 76t-76.5 215q0 44 8 95.5t26.5 102.5t48 98.5t73 84t101.5 58.5t134 22zM336 136q43 0 78 28t44 90l7 42h-94q-55 0 -85.5 -24t-30.5 -70
q0 -66 81 -66z" />
    <glyph glyph-name="A" unicode="A" horiz-adv-x="577" 
d="M41 10q-5 -10 -15 -10h-22q-16 0 -9 14l334 641q4 9 14 9h23q11 0 13 -11l129 -639q3 -14 -10 -14h-19q-11 0 -13 11l-28 142h-324zM430 192l-82 416h-1l-213 -416h296z" />
    <glyph glyph-name="B" unicode="B" horiz-adv-x="561" 
d="M402 338q106 -27 106 -137q0 -103 -59.5 -152t-187.5 -49h-198q-13 0 -11 13l101 640q2 11 13 11h179q98 0 147 -35t49 -109t-33.5 -119.5t-105.5 -61.5v-1zM297 357q103 0 151.5 38t48.5 119q0 58 -38 84.5t-117 26.5h-150l-43 -268h148zM465 202q0 61 -38 88.5
t-116 27.5h-168l-44 -279h166q103 0 151.5 40t48.5 123z" />
    <glyph glyph-name="C" unicode="C" horiz-adv-x="534" 
d="M104 237q-3 -17 -4 -32.5t-1 -29.5q0 -148 155 -148q65 0 109.5 26.5t76.5 79.5q7 12 17 5l16 -9q9 -6 3 -16q-39 -64 -93.5 -94.5t-131.5 -30.5q-96 0 -146 46t-50 136q0 14 1.5 29t3.5 31l33 208q38 238 257 238q155 0 194 -127q3 -11 -7 -15l-16 -5q-13 -5 -16 8
q-32 100 -158 100q-93 0 -145 -52.5t-69 -159.5z" />
    <glyph glyph-name="D" unicode="D" horiz-adv-x="590" 
d="M363 664q99 0 149.5 -43.5t50.5 -129.5q0 -13 -1.5 -26.5t-3.5 -28.5l-34 -211q-18 -113 -82.5 -169t-179.5 -56h-199q-13 0 -11 13l101 640q2 11 13 11h197zM513 428q2 15 3.5 28.5t1.5 26.5q0 142 -159 142h-167l-93 -586h164q95 0 149.5 48.5t70.5 150.5z" />
    <glyph glyph-name="E" unicode="E" horiz-adv-x="537" 
d="M451 355q13 0 11 -13l-3 -15q-2 -11 -13 -11h-303l-44 -277h345q13 0 11 -13l-2 -15q-2 -11 -12 -11h-378q-13 0 -11 13l101 640q2 11 13 11h378q13 0 11 -13l-2 -15q-2 -11 -13 -11h-348l-43 -270h302z" />
    <glyph glyph-name="F" unicode="F" horiz-adv-x="500" 
d="M441 352q13 0 11 -13l-3 -15q-2 -11 -13 -11h-294l-47 -302q-2 -11 -13 -11h-19q-13 0 -11 13l101 640q2 11 13 11h368q13 0 11 -13l-2 -15q-2 -11 -13 -11h-338l-43 -273h292z" />
    <glyph glyph-name="G" unicode="G" horiz-adv-x="570" 
d="M513 227q-20 -119 -81.5 -179t-174.5 -60q-98 0 -150 46.5t-52 137.5q0 14 1.5 28.5t3.5 29.5l33 208q19 118 83 178t177 60q78 0 128.5 -31.5t70.5 -95.5q3 -11 -7 -15l-15 -6q-12 -5 -17 8q-33 101 -162 101q-95 0 -148 -52t-70 -161l-29 -186q-2 -16 -3.5 -30.5
t-1.5 -28.5q0 -152 161 -152q96 0 145.5 52.5t68.5 161.5l10 57h-162q-13 0 -11 13l2 15q2 11 13 11h192q13 0 11 -13z" />
    <glyph glyph-name="H" unicode="H" horiz-adv-x="624" 
d="M500 11q-2 -11 -13 -11h-19q-13 0 -11 13l48 303h-362l-48 -305q-2 -11 -13 -11h-19q-13 0 -11 13l101 640q2 11 13 11h19q13 0 11 -13l-47 -296h362l47 298q2 11 13 11h19q13 0 11 -13z" />
    <glyph glyph-name="I" unicode="I" horiz-adv-x="219" 
d="M95 11q-2 -11 -13 -11h-19q-13 0 -11 13l101 640q2 11 13 11h19q13 0 11 -13z" />
    <glyph glyph-name="J" unicode="J" horiz-adv-x="516" 
d="M437 218q-18 -115 -77 -172.5t-165 -57.5q-69 0 -117.5 28.5t-72.5 85.5q-5 11 5 16l15 8q11 6 17 -6q20 -48 59.5 -70.5t95.5 -22.5q88 0 135.5 50t63.5 153l67 423q2 11 13 11h18q13 0 11 -13z" />
    <glyph glyph-name="K" unicode="K" horiz-adv-x="541" 
d="M466 15q5 -6 3.5 -10.5t-9.5 -4.5h-27q-9 0 -15 7l-273 320l-50 -316q-2 -11 -13 -11h-19q-13 0 -11 13l101 640q2 11 13 11h19q13 0 11 -13l-47 -299l356 306q7 6 15 6h31q8 0 10 -5t-4 -10l-369 -312z" />
    <glyph glyph-name="L" unicode="L" horiz-adv-x="495" 
d="M439 11q-2 -11 -13 -11h-363q-13 0 -11 13l101 640q2 11 13 11h19q13 0 11 -13l-97 -612h331q13 0 11 -13z" />
    <glyph glyph-name="M" unicode="M" horiz-adv-x="808" 
d="M683 11q-2 -11 -13 -11h-19q-13 0 -11 13l94 591h-1l-346 -596q-4 -8 -15 -8h-13q-11 0 -14 10l-156 594h-1l-94 -593q-2 -11 -13 -11h-18q-13 0 -11 13l101 640q2 11 13 11h38q11 0 14 -10l156 -595l341 597q4 8 15 8h43q13 0 11 -13z" />
    <glyph glyph-name="N" unicode="N" horiz-adv-x="624" 
d="M499 11q-2 -11 -13 -11h-21q-10 0 -14 9l-263 591h-1l-93 -589q-2 -11 -13 -11h-18q-13 0 -11 13l101 640q2 11 13 11h25q9 0 14 -9l260 -583h1l92 581q2 11 13 11h18q13 0 11 -13z" />
    <glyph glyph-name="O" unicode="O" horiz-adv-x="582" 
d="M93 438q19 118 82 178t176 60q99 0 151.5 -47t52.5 -138q0 -14 -1.5 -28t-3.5 -29l-33 -208q-36 -238 -257 -238q-100 0 -152.5 47t-52.5 138q0 14 1.5 28t3.5 29zM104 237q-2 -16 -3.5 -30t-1.5 -28q0 -152 163 -152q95 0 146 52t68 160l30 188q2 16 3.5 30.5t1.5 27.5
q0 78 -41 115t-121 37q-95 0 -146.5 -52t-68.5 -160z" />
    <glyph glyph-name="P" unicode="P" horiz-adv-x="538" 
d="M349 664q100 0 149.5 -39.5t49.5 -122.5q0 -114 -62.5 -168.5t-194.5 -54.5h-154l-42 -268q-2 -11 -13 -11h-19q-13 0 -11 13l101 640q2 11 13 11h183zM504 499q0 66 -39 96t-120 30h-153l-49 -307h152q108 0 158.5 43.5t50.5 137.5z" />
    <glyph glyph-name="Q" unicode="Q" horiz-adv-x="582" 
d="M351 676q99 0 151.5 -47t52.5 -138q0 -14 -1.5 -28t-3.5 -29l-33 -208q-33 -214 -214 -236q-1 -8 -1.5 -15t-0.5 -14q0 -78 83 -78q24 0 43.5 7.5t39.5 21.5q11 9 17 -4l7 -13q5 -9 -4 -17q-48 -34 -107 -34q-60 0 -92 31t-32 90v11.5t1 11.5q-98 1 -150 47.5t-52 137.5
q0 14 1.5 28t3.5 29l32 209q36 237 259 237zM506 427q2 16 3.5 30.5t1.5 27.5q0 78 -41 115t-121 37q-96 0 -147.5 -52t-68.5 -160l-29 -188q-2 -16 -3.5 -30.5t-1.5 -27.5q0 -152 163 -152q95 0 146 52t68 160z" />
    <glyph glyph-name="R" unicode="R" horiz-adv-x="567" 
d="M342 664q201 0 201 -161q0 -101 -47.5 -155t-148.5 -65l132 -269q7 -14 -9 -14h-23q-10 0 -14 9l-132 271h-164l-42 -269q-2 -11 -13 -11h-19q-13 0 -11 13l101 640q2 11 13 11h176zM499 499q0 66 -39.5 96t-120.5 30h-147l-49 -306h145q109 0 160 43.5t51 136.5z" />
    <glyph glyph-name="S" unicode="S" horiz-adv-x="505" 
d="M323 676q135 0 184 -90q5 -11 -4 -16l-15 -9q-5 -4 -10 -2.5t-7 6.5q-38 72 -150 72q-42 0 -77.5 -12t-60.5 -33.5t-39 -52t-14 -66.5q0 -26 8 -45.5t26 -34t48 -25.5t75 -19q49 -9 83 -21.5t55 -31t30.5 -43t9.5 -57.5q0 -47 -17 -85.5t-48 -65.5t-74.5 -42t-96.5 -15
q-75 0 -128.5 26t-82.5 77q-6 10 3 16l15 11q11 8 18 -4q49 -87 178 -87q43 0 78 12t60 33.5t38.5 51.5t13.5 67q0 25 -8 44t-26 33.5t-48 25t-74 18.5q-50 9 -84 22t-55 31t-30.5 43t-9.5 58q0 48 17 87t47.5 66t74 42t97.5 15z" />
    <glyph glyph-name="T" unicode="T" horiz-adv-x="477" 
d="M224 11q-2 -11 -13 -11h-19q-13 0 -11 13l97 612h-185q-13 0 -11 13l2 15q2 11 13 11h414q13 0 11 -13l-3 -15q-2 -11 -13 -11h-185z" />
    <glyph glyph-name="U" unicode="U" horiz-adv-x="588" 
d="M509 218q-19 -115 -79 -172.5t-167 -57.5q-95 0 -145.5 45t-50.5 133q0 13 1.5 27t3.5 28l68 432q2 11 13 11h19q13 0 11 -13l-67 -423q-2 -16 -3.5 -30t-1.5 -27q0 -75 38.5 -109.5t116.5 -34.5q90 0 138.5 50t64.5 154l66 422q2 11 13 11h18q13 0 11 -13z" />
    <glyph glyph-name="V" unicode="V" horiz-adv-x="559" 
d="M230 0q-11 0 -13 11l-122 640q-2 13 11 13h20q11 0 13 -11l110 -590h1l298 592q4 9 14 9h20q16 0 9 -14l-324 -641q-5 -9 -14 -9h-23z" />
    <glyph glyph-name="W" unicode="W" horiz-adv-x="848" 
d="M556 0q-10 0 -12 11l-68 568h-1l-249 -570q-5 -9 -14 -9h-25q-10 0 -12 11l-78 640q-2 13 11 13h22q10 0 12 -11l67 -581h1l255 583q4 9 14 9h17q10 0 12 -11l72 -585h1l253 587q4 9 14 9h22q16 0 9 -14l-281 -641q-5 -9 -14 -9h-28z" />
    <glyph glyph-name="X" unicode="X" horiz-adv-x="548" 
d="M436 0q-10 0 -14 9l-137 296l-231 -298q-6 -7 -15 -7h-24q-8 0 -10 4.5t3 10.5l255 325l-145 310q-7 14 9 14h22q9 0 14 -9l130 -281l218 283q6 7 15 7h25q8 0 10 -4.5t-3 -10.5l-243 -310l152 -325q7 -14 -9 -14h-22z" />
    <glyph glyph-name="Y" unicode="Y" horiz-adv-x="511" 
d="M239 11q-2 -11 -13 -11h-19q-13 0 -11 13l46 289l-162 348q-7 14 9 14h22q9 0 14 -9l144 -313l244 315q6 7 15 7h25q8 0 10 -4.5t-3 -10.5l-276 -352z" />
    <glyph glyph-name="Z" unicode="Z" horiz-adv-x="514" 
d="M428 39q13 0 11 -13l-2 -15q-2 -11 -13 -11h-409q-13 0 -11 13l4 20q1 8 6 14l461 578h-347q-13 0 -11 13l3 15q2 11 13 11h389q13 0 11 -13l-4 -20q-1 -8 -6 -14l-463 -578h368z" />
    <glyph glyph-name="bracketleft" unicode="[" horiz-adv-x="312" 
d="M208 -55q13 0 11 -13l-1 -11q-2 -11 -13 -11h-147q-13 0 -11 13l115 730q2 11 13 11h147q13 0 11 -13l-1 -11q-2 -11 -13 -11h-120l-107 -684h116z" />
    <glyph glyph-name="backslash" unicode="\" horiz-adv-x="347" 
d="M120 664q12 0 13 -11l146 -640q3 -13 -11 -13h-13q-12 0 -13 11l-146 640q-3 13 11 13h13z" />
    <glyph glyph-name="bracketright" unicode="]" horiz-adv-x="312" 
d="M4 -90q-13 0 -11 13l1 11q2 11 13 11h120l107 684h-116q-13 0 -11 13l1 11q2 11 13 11h148q13 0 11 -13l-115 -730q-2 -11 -13 -11h-148z" />
    <glyph glyph-name="asciicircum" unicode="^" horiz-adv-x="528" 
d="M75 265q-6 -7 -15 -7h-19q-8 0 -10.5 4.5t2.5 10.5l268 344q6 7 15 7h16q9 0 14 -9l158 -343q7 -14 -9 -14h-16q-10 0 -14 9l-144 314z" />
    <glyph glyph-name="underscore" unicode="_" horiz-adv-x="500" 
d="M-53 -94l4 28h500l-4 -28h-500z" />
    <glyph glyph-name="grave" unicode="`" horiz-adv-x="500" 
d="M303 567q-9 0 -13 8l-68 124q-4 6 -1.5 10t9.5 4h18q9 0 14 -9l62 -124q6 -13 -8 -13h-13z" />
    <glyph glyph-name="a" unicode="a" horiz-adv-x="451" 
d="M251 503q77 0 118 -36.5t41 -108.5q0 -11 -1 -21.5t-3 -22.5l-23 -141q-14 -92 -63.5 -138.5t-140.5 -46.5q-73 0 -113 33.5t-40 93.5q0 78 50 121t146 43h137l4 28q4 23 4 46q0 59 -30 86t-91 27q-35 0 -65.5 -14.5t-56.5 -37.5q-9 -9 -17 1l-10 13q-8 9 2 17
q33 30 70 44t82 14zM182 25q73 0 110.5 38.5t51.5 121.5l9 57h-129q-75 0 -116 -32.5t-41 -93.5q0 -45 29.5 -68t85.5 -23z" />
    <glyph glyph-name="b" unicode="b" horiz-adv-x="487" 
d="M290 503q76 0 115.5 -36t39.5 -106q0 -22 -4 -45l-22 -143q-29 -185 -202 -185q-77 0 -118 36.5t-41 106.5q0 11 1 22t3 23l81 513q2 11 13 11h17q13 0 11 -13l-41 -254h1q48 70 146 70zM220 25q72 0 109.5 38.5t50.5 121.5l19 124q2 13 3 24.5t1 22.5q0 110 -120 110
q-69 0 -108 -40t-52 -119l-19 -124q-2 -13 -3 -24.5t-1 -22.5q0 -57 30 -84t90 -27z" />
    <glyph glyph-name="c" unicode="c" horiz-adv-x="412" 
d="M352 65q7 -9 -1 -17q-63 -60 -148 -60q-77 0 -118.5 36.5t-41.5 108.5q0 11 1 22t3 23l21 140q27 185 201 185q89 0 136 -52q7 -9 -1 -17l-11 -10q-10 -8 -18 1q-37 41 -107 41q-71 0 -109 -39t-51 -122l-19 -121q-4 -23 -4 -46q0 -59 31.5 -86t92.5 -27q34 0 62.5 12.5
t55.5 38.5q9 9 17 -1z" />
    <glyph glyph-name="d" unicode="d" horiz-adv-x="487" 
d="M403 173q-14 -92 -63.5 -138.5t-137.5 -46.5q-77 0 -118.5 37t-41.5 108q0 10 1 21t3 22l22 143q29 184 201 184q104 0 133 -76h1l41 262q2 11 13 11h17q13 0 11 -13zM205 25q72 0 109.5 38.5t50.5 121.5l20 124q2 12 3 22.5t1 20.5q0 114 -119 114q-72 0 -110.5 -39
t-51.5 -120l-19 -124q-2 -13 -3 -24.5t-1 -22.5q0 -57 30 -84t90 -27z" />
    <glyph glyph-name="e" unicode="e" horiz-adv-x="452" 
d="M267 503q76 0 116.5 -36t40.5 -107q0 -21 -4 -44l-12 -73q-2 -11 -13 -11h-299l-7 -48q-2 -12 -3 -23t-1 -22q0 -60 33 -87t99 -27q35 0 64 14t57 43q9 10 18 1l10 -11q8 -9 0 -17q-66 -67 -154 -67q-81 0 -125 36t-44 108q0 11 1 22t3 23l21 142q27 184 199 184z
M265 467q-70 0 -107 -38.5t-50 -121.5l-6 -38h270l7 40q2 13 3 24.5t1 22.5q0 58 -29 84.5t-89 26.5z" />
    <glyph glyph-name="f" unicode="f" horiz-adv-x="316" 
d="M311 675q-54 0 -83 -32t-40 -97l-9 -55h164q14 0 11 -13l-3 -13q-3 -11 -13 -11h-165l-70 -443q-2 -11 -13 -11h-17q-13 0 -11 13l70 441h-66q-13 0 -11 13l2 13q2 11 13 11h68l10 62q12 78 53 118.5t111 40.5q29 0 52 -5t43 -18q13 -7 5 -18l-8 -12q-7 -10 -16 -3
q-15 11 -34 15t-43 4z" />
    <glyph glyph-name="g" unicode="g" horiz-adv-x="487" 
d="M270 503q78 0 119 -37t41 -108q0 -11 -1 -22t-3 -22l-50 -318q-13 -79 -64 -123.5t-133 -44.5q-100 0 -156 60q-9 8 0 17l10 10q8 8 17 -1q47 -50 131 -50q66 0 105.5 37.5t50.5 106.5l10 63h-1q-47 -70 -146 -70q-75 0 -115 36.5t-40 105.5q0 11 1 22.5t3 23.5l20 128
q14 92 63.5 139t137.5 47zM385 308q4 23 4 46q0 58 -30.5 85t-90.5 27q-72 0 -109.5 -39t-50.5 -121l-17 -110q-2 -13 -3 -24.5t-1 -22.5q0 -57 30 -84t90 -27q70 0 109 39.5t51 120.5z" />
    <glyph glyph-name="h" unicode="h" horiz-adv-x="501" 
d="M294 503q73 0 112.5 -35t39.5 -104q0 -21 -4 -44l-49 -309q-2 -11 -13 -11h-17q-13 0 -11 13l48 301q2 12 3 22.5t1 20.5q0 57 -30 83t-88 26q-68 0 -106 -38.5t-50 -116.5l-48 -300q-2 -11 -13 -11h-17q-13 0 -11 13l107 676q2 11 13 11h17q13 0 11 -13l-40 -252h1
q45 68 144 68z" />
    <glyph glyph-name="i" unicode="i" horiz-adv-x="196" 
d="M157 598q-13 0 -21.5 8.5t-8.5 22.5q0 16 10 25.5t26 9.5q13 0 21 -8t8 -21q0 -16 -10 -26.5t-25 -10.5zM52 0q-13 0 -11 13l74 467q2 11 13 11h17q13 0 11 -13l-74 -467q-2 -11 -13 -11h-17z" />
    <glyph glyph-name="j" unicode="j" horiz-adv-x="196" 
d="M157 598q-13 0 -21.5 8.5t-8.5 22.5q0 16 10 25.5t26 9.5q13 0 21 -8t8 -21q0 -16 -10 -26.5t-25 -10.5zM-67 -123q86 0 101 92l81 511q2 11 13 11h17q13 0 11 -13l-81 -509q-21 -129 -141 -129h-5q-13 0 -11 13l2 13q2 11 12 11h1z" />
    <glyph glyph-name="k" unicode="k" horiz-adv-x="423" 
d="M363 15q5 -6 3.5 -10.5t-9.5 -4.5h-24q-9 0 -15 7l-200 236l-36 -232q-2 -11 -13 -11h-17q-13 0 -11 13l107 676q2 11 13 11h17q13 0 11 -13l-67 -423l260 222q7 5 14 5h25q8 0 10 -5t-4 -10l-264 -226z" />
    <glyph glyph-name="l" unicode="l" horiz-adv-x="196" 
d="M52 0q-13 0 -11 13l107 676q2 11 13 11h17q13 0 11 -13l-107 -676q-2 -11 -13 -11h-17z" />
    <glyph glyph-name="m" unicode="m" horiz-adv-x="763" 
d="M560 503q71 0 109 -34.5t38 -102.5q0 -11 -1 -22t-3 -23l-49 -310q-2 -11 -13 -11h-17q-13 0 -11 13l48 301q2 12 3 23.5t1 21.5q0 56 -27 81.5t-82 25.5q-63 0 -96.5 -37.5t-46.5 -115.5l-48 -302q-2 -11 -13 -11h-17q-13 0 -11 13l48 301q4 23 4 46q0 55 -27 80.5
t-81 25.5q-63 0 -97 -38t-47 -116l-48 -301q-2 -11 -13 -11h-17q-13 0 -11 13l50 311q14 90 59 134.5t125 44.5q114 0 138 -86h1q42 86 152 86z" />
    <glyph glyph-name="n" unicode="n" horiz-adv-x="496" 
d="M394 314q2 12 3 23t1 21q0 56 -29.5 82t-88.5 26q-69 0 -106 -38.5t-50 -117.5l-48 -299q-2 -11 -13 -11h-17q-13 0 -11 13l50 310q14 90 62.5 135t134.5 45q76 0 117 -35.5t41 -104.5q0 -11 -1 -21t-3 -22l-49 -309q-2 -11 -13 -11h-17q-13 0 -11 13z" />
    <glyph glyph-name="o" unicode="o" horiz-adv-x="472" 
d="M270 503q78 0 119 -36.5t41 -106.5q0 -11 -1 -22t-3 -22l-23 -144q-14 -92 -63.5 -138t-137.5 -46q-77 0 -118.5 36.5t-41.5 108.5q0 10 1 21t3 22l22 143q29 184 202 184zM205 25q72 0 109 38.5t50 121.5l20 124q4 23 4 46q0 57 -30 84t-90 27q-72 0 -109.5 -39
t-50.5 -120l-19 -124q-2 -13 -3 -24.5t-1 -22.5q0 -57 30 -84t90 -27z" />
    <glyph glyph-name="p" unicode="p" horiz-adv-x="487" 
d="M286 503q77 0 118 -37t41 -107q0 -11 -1 -22t-3 -23l-22 -141q-15 -93 -63.5 -139t-134.5 -46q-52 0 -86 19.5t-48 58.5h-1l-34 -215q-2 -11 -13 -11h-18q-13 0 -11 13l74 464q15 92 64.5 139t137.5 47zM220 25q72 0 109 39t50 121l20 123q2 13 3 24.5t1 22.5
q0 57 -30 84t-90 27q-72 0 -109.5 -39t-50.5 -121l-19 -123q-2 -12 -3 -23t-1 -22q0 -57 30.5 -85t89.5 -28z" />
    <glyph glyph-name="q" unicode="q" horiz-adv-x="487" 
d="M270 503q78 0 119 -37t41 -108q0 -11 -1 -22t-3 -22l-73 -463q-2 -11 -13 -11h-17q-13 0 -11 13l33 205h-1q-47 -70 -146 -70q-76 0 -116 36.5t-40 106.5q0 22 4 45l23 141q14 92 63.5 139t137.5 47zM385 308q2 13 3 24.5t1 22.5q0 57 -30.5 84t-90.5 27
q-72 0 -109.5 -39t-50.5 -121l-19 -123q-2 -13 -3 -24.5t-1 -22.5q0 -57 30 -84t90 -27q70 0 109 39.5t51 120.5z" />
    <glyph glyph-name="r" unicode="r" horiz-adv-x="361" 
d="M87 335q14 84 56.5 126t118.5 42q32 0 60.5 -9t48.5 -26q9 -9 2 -17l-9 -12q-8 -9 -18 -1q-33 28 -84 28q-61 0 -93 -35.5t-43 -107.5l-50 -312q-2 -11 -13 -11h-17q-13 0 -11 13z" />
    <glyph glyph-name="s" unicode="s" horiz-adv-x="411" 
d="M364 149q0 -75 -50 -118t-137 -43q-117 0 -166 65q-8 10 1 17l12 10q9 8 16 -1q42 -54 138 -54q68 0 106.5 31.5t38.5 88.5q0 37 -27 57.5t-95 29.5q-79 11 -110 37t-31 76q0 73 52 115.5t142 42.5q41 0 76 -12.5t58 -35.5q8 -9 1 -16l-11 -11q-9 -9 -17 0
q-38 38 -109 38q-72 0 -111.5 -31t-39.5 -86q0 -17 5.5 -30t19 -23t36 -16.5t56.5 -11.5q41 -6 69 -15.5t45 -24t24.5 -34t7.5 -45.5z" />
    <glyph glyph-name="t" unicode="t" horiz-adv-x="349" 
d="M122 133q-3 -17 -3 -29q0 -79 86 -79q19 0 34.5 5t32.5 16q12 8 18 -3l6 -11q4 -10 -4 -17q-20 -14 -44 -20.5t-48 -6.5q-59 0 -90.5 28.5t-31.5 82.5q0 15 3 32l51 323h-66q-13 0 -11 13l2 13q2 11 13 11h68l19 125q2 11 13 11h17q13 0 11 -13l-19 -123h164q14 0 11 -13
l-3 -13q-2 -11 -13 -11h-165z" />
    <glyph glyph-name="u" unicode="u" horiz-adv-x="490" 
d="M405 166q-14 -89 -61.5 -133.5t-132.5 -44.5q-75 0 -114.5 35.5t-39.5 104.5q0 18 3 41l50 311q2 11 13 11h17q13 0 11 -13l-48 -303q-2 -12 -3 -23t-1 -21q0 -55 29 -80.5t86 -25.5q68 0 103.5 37t48.5 115l49 303q2 11 13 11h16q13 0 11 -13z" />
    <glyph glyph-name="v" unicode="v" horiz-adv-x="441" 
d="M208 9q-5 -9 -15 -9h-20q-11 0 -13 11l-98 467q-3 13 10 13h18q11 0 13 -11l86 -426h1l225 429q4 8 14 8h17q7 0 9 -4.5t-1 -10.5z" />
    <glyph glyph-name="w" unicode="w" horiz-adv-x="676" 
d="M473 9q-5 -9 -14 -9h-23q-11 0 -13 11l-56 405h-1l-188 -407q-5 -9 -14 -9h-23q-11 0 -13 11l-65 467q-2 13 11 13h18q11 0 12 -10l56 -422h1l194 423q4 9 14 9h15q11 0 13 -11l59 -420h1l191 422q4 9 14 9h17q15 0 10 -14z" />
    <glyph glyph-name="x" unicode="x" horiz-adv-x="448" 
d="M375 14q7 -14 -9 -14h-20q-10 0 -14 9l-109 216l-179 -218q-6 -7 -15 -7h-21q-8 0 -10 4.5t3 10.5l199 240l-114 222q-7 14 9 14h20q9 0 14 -9l100 -200l165 202q6 7 15 7h22q8 0 10 -4.5t-3 -10.5l-186 -224z" />
    <glyph glyph-name="y" unicode="y" horiz-adv-x="501" 
d="M384 -4q-13 -79 -63.5 -123.5t-132.5 -44.5q-49 0 -89 15t-68 45q-7 9 1 17l10 11q9 9 17 -1q47 -50 130 -50q67 0 106 37t50 106l10 61h-1q-45 -68 -143 -68q-74 0 -113 35t-39 104q0 11 1 22t3 23l47 295q2 11 13 11h17q13 0 11 -13l-46 -286q-2 -12 -3 -23t-1 -21
q0 -57 29.5 -83.5t88.5 -26.5q68 0 106 39t50 117l45 286q2 11 13 11h17q13 0 11 -13z" />
    <glyph glyph-name="z" unicode="z" horiz-adv-x="418" 
d="M334 37q13 0 11 -13l-2 -13q-2 -11 -13 -11h-317q-13 0 -11 13l3 18q1 8 6 14l347 409h-258q-13 0 -11 13l2 13q2 11 13 11h297q13 0 11 -13l-3 -19q-1 -8 -6 -14l-348 -408h279z" />
    <glyph glyph-name="braceleft" unicode="{" horiz-adv-x="322" 
d="M328 629q-53 0 -79.5 -22.5t-34.5 -74.5l-22 -135q-8 -48 -26.5 -75t-53.5 -36v-1q49 -13 49 -73q0 -15 -3 -33l-22 -135q-2 -8 -2 -15.5v-14.5q0 -38 20 -53.5t65 -15.5q12 0 10 -13l-1 -11q-2 -11 -13 -11h-6q-118 0 -118 97q0 14 3 31l23 140q3 16 3 29q0 32 -15 47
t-42 15q-13 0 -11 13l2 12q1 5 4 8t11 3q35 0 54 20.5t27 68.5l23 140q11 71 47.5 100.5t109.5 29.5h2q13 0 11 -13l-1 -11q-2 -11 -13 -11h-1z" />
    <glyph glyph-name="bar" unicode="|" horiz-adv-x="264" 
d="M63 -160q-12 0 -10 12l132 838q1 10 12 10h14q11 0 10 -12l-132 -838q-1 -10 -12 -10h-14z" />
    <glyph glyph-name="braceright" unicode="}" horiz-adv-x="322" 
d="M8 -55q53 0 79.5 22.5t34.5 74.5l22 135q8 48 26.5 75t53.5 36v1q-49 13 -49 73q0 15 3 33l22 135q2 8 2 15.5v14.5q0 38 -20 53.5t-65 15.5q-12 0 -10 13l1 11q2 11 13 11h6q118 0 118 -97q0 -15 -3 -31l-23 -140q-3 -17 -3 -29q0 -32 15 -47t42 -15q13 0 11 -13l-2 -12
q-1 -5 -4 -8t-11 -3q-35 0 -54 -20.5t-27 -68.5l-23 -140q-11 -71 -47.5 -100.5t-109.5 -29.5h-2q-13 0 -11 13l1 11q2 11 13 11h1z" />
    <glyph glyph-name="asciitilde" unicode="~" horiz-adv-x="528" 
d="M168 298q-33 0 -60 -17t-56 -55q-7 -10 -18 -2l-10 8q-10 6 -2 17q35 46 69.5 66.5t75.5 20.5q30 0 55 -8.5t58 -33.5q27 -20 47.5 -28.5t43.5 -8.5q32 0 59 17t56 55q7 10 18 2l10 -8q10 -6 2 -17q-35 -45 -69.5 -66t-74.5 -21q-30 0 -55 8.5t-58 33.5
q-27 20 -47.5 28.5t-43.5 8.5z" />
    <glyph glyph-name="uni00A0" unicode="&#xa0;" horiz-adv-x="215" 
 />
    <glyph glyph-name="exclamdown" unicode="&#xa1;" horiz-adv-x="212" 
d="M60 0q-13 0 -11 13l46 288l40 202q1 7 8 7h8q9 0 7 -8l-22 -201l-46 -290q-2 -11 -13 -11h-17zM172 676q14 0 22.5 -8.5t8.5 -22.5q0 -17 -11 -27.5t-27 -10.5q-14 0 -22.5 8.5t-8.5 22.5q0 17 10.5 27.5t27.5 10.5z" />
    <glyph glyph-name="cent" unicode="&#xa2;" horiz-adv-x="528" 
d="M359 522q79 -7 120 -53q7 -9 -1 -17l-12 -11q-9 -8 -17 2q-31 37 -95 43l-70 -440q35 2 62.5 15.5t55.5 39.5q5 5 9.5 4t7.5 -6l8 -11q6 -10 -1 -17q-32 -29 -67.5 -44.5t-80.5 -18.5l-10 -68q-1 -10 -12 -10h-16q-12 0 -10 12l10 67q-77 5 -116.5 43t-39.5 109
q0 11 1 22t3 23l20 124q15 97 66.5 145t147.5 49l9 62q1 10 12 10h16q11 0 10 -12zM130 212q-4 -23 -4 -46q0 -113 120 -120l70 441q-77 -3 -116.5 -44.5t-52.5 -125.5z" />
    <glyph glyph-name="sterling" unicode="&#xa3;" horiz-adv-x="528" 
d="M341 636q63 0 109 -22t71 -64q4 -10 -6 -17l-12 -8q-11 -6 -17 4q-20 35 -57 52t-90 17q-41 0 -73.5 -12.5t-55.5 -35t-35.5 -55t-12.5 -72.5q0 -20 3 -37t11 -45q2 -8 4.5 -17t4.5 -18h211q13 0 11 -13l-2 -13q-2 -11 -13 -11h-201q0 -5 0.5 -11t0.5 -12
q0 -63 -22 -112.5t-69 -94.5v-1h317q13 0 11 -13l-2 -14q-2 -11 -13 -11h-357q-13 0 -11 13l2 14q1 9 8 14q52 47 74.5 93t22.5 107q0 8 -0.5 15t-1.5 13h-66q-13 0 -11 13l2 13q2 11 13 11h55q-2 8 -4.5 15.5t-4.5 15.5q-10 32 -12.5 49t-2.5 38q0 49 15.5 88t44.5 66.5
t69.5 42.5t91.5 15z" />
    <glyph glyph-name="currency" unicode="&#xa4;" horiz-adv-x="528" 
d="M452 327q0 -40 -15 -74.5t-40 -60.5l60 -71q7 -7 -1 -15l-12 -10q-7 -7 -15 1l-60 71q-49 -34 -111 -34q-69 0 -113 41l-92 -79q-9 -7 -15 1l-9 11q-7 7 1 15l92 80q-24 37 -24 88q0 40 14.5 74.5t39.5 60.5l-59 72q-7 7 1 15l11 10q9 7 15 -1l61 -71q23 17 51 26t60 9
q35 0 63.5 -11.5t49.5 -31.5l91 80q9 7 15 -1l10 -11q7 -9 -1 -15l-92 -80q24 -38 24 -89zM133 292q0 -55 35 -89.5t92 -34.5q32 0 60.5 12.5t50 33.5t34 50t12.5 62q0 56 -35 91t-92 35q-32 0 -60.5 -12t-50 -33.5t-34 -51t-12.5 -63.5z" />
    <glyph glyph-name="yen" unicode="&#xa5;" horiz-adv-x="528" 
d="M466 290q-1 -10 -11 -10h-164l-16 -104h160q11 0 10 -12l-2 -14q-1 -10 -11 -10h-163l-20 -129q-2 -11 -13 -11h-18q-13 0 -11 13l20 127h-164q-12 0 -10 12l2 14q1 10 12 10h166l16 104h-163q-12 0 -10 12l2 14q1 10 12 10h159l-147 294q-7 14 9 14h21q9 0 14 -9
l133 -273l221 275q6 7 15 7h23q8 0 10 -4.5t-3 -10.5l-241 -293h154q11 0 10 -12z" />
    <glyph glyph-name="brokenbar" unicode="&#xa6;" horiz-adv-x="264" 
d="M143 350q-12 0 -10 12l52 328q1 10 12 10h14q11 0 10 -12l-52 -328q-1 -10 -12 -10h-14zM63 -160q-12 0 -10 12l51 328q1 10 12 10h14q11 0 10 -12l-51 -328q-1 -10 -12 -10h-14z" />
    <glyph glyph-name="section" unicode="&#xa7;" horiz-adv-x="559" 
d="M162 528q0 -22 8 -38t26.5 -27.5t48.5 -19t74 -12.5q52 -6 87.5 -15.5t57.5 -25.5t31.5 -38t9.5 -52q0 -67 -36 -112.5t-105 -66.5v-1q35 -11 58.5 -34t23.5 -70q0 -42 -16 -77t-45.5 -59.5t-71 -38t-92.5 -13.5q-149 0 -203 92q-6 10 3 16l13 9q10 7 16 -4
q46 -77 173 -77q40 0 74 11t58.5 30.5t38 46.5t13.5 59q0 21 -8 37t-26.5 27.5t-48.5 18.5t-74 12q-52 5 -88 15.5t-58 26.5t-32 38.5t-10 52.5q0 66 35.5 111.5t102.5 66.5v1q-34 11 -56 34.5t-22 68.5q0 43 16 78t45.5 60t71 39t92.5 14q127 0 177 -80q7 -10 -4 -16
l-12 -8q-10 -7 -17 4q-20 32 -55.5 48t-91.5 16q-41 0 -74.5 -11t-57.5 -30.5t-37 -46.5t-13 -60zM466 293q0 25 -9.5 43.5t-32.5 31.5t-60.5 21t-93.5 13q-37 -3 -68 -16t-53.5 -33t-35 -47.5t-12.5 -59.5q0 -26 9.5 -44t32 -30.5t59.5 -21.5t92 -15q77 8 124.5 50
t47.5 108z" />
    <glyph glyph-name="dieresis" unicode="&#xa8;" horiz-adv-x="500" 
d="M231 599q-13 0 -20.5 8.5t-7.5 20.5q0 15 9.5 25.5t24.5 10.5q13 0 21 -8.5t8 -21.5q0 -14 -10 -24.5t-25 -10.5zM386 599q-13 0 -20.5 8.5t-7.5 20.5q0 15 9.5 25.5t24.5 10.5q13 0 21 -8.5t8 -21.5q0 -14 -10 -24.5t-25 -10.5z" />
    <glyph glyph-name="copyright" unicode="&#xa9;" horiz-adv-x="776" 
d="M56 287q0 80 30.5 151t83.5 124t123 83.5t150 30.5q67 0 123.5 -22.5t97 -62t63 -94.5t22.5 -120q0 -80 -31 -151t-83.5 -124t-123.5 -83.5t-150 -30.5q-68 0 -124 22.5t-96 62t-62.5 94.5t-22.5 120zM89 288q0 -59 20 -108t56.5 -85t87 -56t111.5 -20q72 0 136 28.5
t112 77t76 113.5t28 138q0 59 -20 108.5t-56.5 85t-87 55.5t-111.5 20q-72 0 -136 -28.5t-112 -77.5t-76 -113.5t-28 -137.5zM427 523q41 0 69 -17t41 -50q4 -11 -7 -14l-9 -3q-11 -3 -15 6q-18 47 -81 47q-48 0 -73.5 -27t-34.5 -82l-16 -104q-3 -17 -3 -31q0 -76 81 -76
q32 0 53.5 13t38.5 38q6 9 15 3l8 -6q9 -6 3 -15q-22 -32 -50.5 -48t-70.5 -16q-54 0 -83.5 26t-29.5 77q0 14 3 31l18 116q21 132 143 132z" />
    <glyph glyph-name="ordfeminine" unicode="&#xaa;" horiz-adv-x="345" 
d="M220 636q60 0 92.5 -28.5t32.5 -84.5q0 -16 -3 -34l-17 -108q-11 -71 -49 -106.5t-108 -35.5q-58 0 -89.5 26.5t-31.5 74.5q0 60 39 92.5t113 32.5h101l3 20q3 18 3 34q0 83 -90 83q-51 0 -91 -38q-9 -8 -16 2l-8 10q-6 9 3 17q55 43 116 43zM170 273q54 0 81 28.5
t37 88.5l7 42h-94q-55 0 -85.5 -23t-30.5 -68q0 -68 85 -68z" />
    <glyph glyph-name="guillemotleft" unicode="&#xab;" horiz-adv-x="395" 
d="M132 59q-10 0 -14 9l-85 169q-5 9 2 17l137 171q6 7 15 7h14q8 0 10 -4.5t-3 -10.5l-138 -175l83 -169q7 -14 -9 -14h-12zM300 59q-10 0 -14 9l-85 169q-5 9 2 17l137 171q6 7 15 7h14q8 0 10 -4.5t-3 -10.5l-138 -175l83 -169q7 -14 -9 -14h-12z" />
    <glyph glyph-name="logicalnot" unicode="&#xac;" horiz-adv-x="528" 
d="M487 114q-2 -11 -13 -11h-14q-13 0 -11 13l34 211h-435q-13 0 -11 13l2 14q2 11 13 11h462q13 0 11 -13z" />
    <glyph glyph-name="uni00AD" unicode="&#xad;" horiz-adv-x="327" 
d="M44 251q-13 0 -11 13l3 16q2 11 13 11h243q13 0 11 -13l-3 -16q-2 -11 -13 -11h-243z" />
    <glyph glyph-name="registered" unicode="&#xae;" horiz-adv-x="776" 
d="M432 516q56 0 85 -21t29 -66q0 -54 -27 -86.5t-78 -40.5l67 -141q5 -13 -8 -13h-15q-9 0 -13 8l-65 143h-83l-22 -141q-1 -10 -12 -10h-12q-12 0 -10 12l55 346q1 10 12 10h97zM511 423q0 62 -82 62h-75l-25 -155h73q57 0 83 24t26 69zM56 287q0 80 30.5 151t83.5 124
t123 83.5t150 30.5q67 0 123.5 -22.5t97 -62t63 -94.5t22.5 -120q0 -80 -31 -151t-83.5 -124t-123.5 -83.5t-150 -30.5q-68 0 -124 22.5t-96 62t-62.5 94.5t-22.5 120zM89 288q0 -59 20 -108t56.5 -85t87 -56t111.5 -20q72 0 136 28.5t112 77t76 113.5t28 138
q0 59 -20 108.5t-56.5 85t-87 55.5t-111.5 20q-72 0 -136 -28.5t-112 -77.5t-76 -113.5t-28 -137.5z" />
    <glyph glyph-name="macron" unicode="&#xaf;" horiz-adv-x="500" 
d="M433 621q-2 -11 -13 -11h-223q-13 0 -11 13l2 12q2 11 12 11h224q13 0 11 -13z" />
    <glyph glyph-name="degree" unicode="&#xb0;" horiz-adv-x="349" 
d="M198 353q-57 0 -91.5 35t-34.5 90q0 34 12.5 63t34.5 50t50.5 33t61.5 12q57 0 91.5 -35t34.5 -90q0 -34 -12.5 -63t-34.5 -50t-50.5 -33t-61.5 -12zM201 389q24 0 45.5 9t37.5 25.5t25.5 38t9.5 47.5q0 41 -25 66t-66 25q-24 0 -45 -9.5t-37.5 -26t-26 -38.5t-9.5 -48
q0 -39 25 -64t66 -25z" />
    <glyph glyph-name="plusminus" unicode="&#xb1;" horiz-adv-x="528" 
d="M508 304q-2 -11 -13 -11h-204l-30 -192q-2 -11 -13 -11h-14q-13 0 -11 13l30 190h-202q-13 0 -11 13l3 14q2 11 13 11h203l30 191q2 11 13 11h14q13 0 11 -13l-30 -189h202q13 0 11 -13zM452 38q13 0 11 -13l-2 -14q-2 -11 -13 -11h-443q-13 0 -11 13l2 14q2 11 13 11
h443z" />
    <glyph glyph-name="uni00B2" unicode="&#xb2;" 
d="M353 660q0 -19 -3.5 -35t-12.5 -31t-23.5 -30.5t-36.5 -34.5l-154 -133v-1h178q11 0 10 -12l-2 -10q-1 -10 -12 -10h-219q-12 0 -10 12l2 10q1 7 7 13l176 155q35 31 49.5 54t14.5 51q0 31 -18.5 48.5t-53.5 17.5q-64 0 -98 -53q-7 -10 -15 -3l-9 7q-9 6 -3 15
q23 32 56.5 49t72.5 17q48 0 76 -26t28 -70z" />
    <glyph glyph-name="uni00B3" unicode="&#xb3;" 
d="M358 665q0 -39 -19.5 -65t-57.5 -34v-1q27 -11 42.5 -32.5t15.5 -53.5q0 -59 -38 -91t-104 -32q-45 0 -75 14t-48 40q-5 9 3 15l9 7q9 6 15 -3q27 -41 96 -41q50 0 78.5 25t28.5 69q0 67 -91 67h-28q-11 0 -11 12l1 10q1 10 12 10h26q109 0 109 79q0 32 -20 48t-57 16
q-31 0 -55 -11.5t-43 -31.5q-7 -9 -16 0l-7 7q-8 8 -1 15q26 27 58 40t68 13q50 0 79.5 -24t29.5 -67z" />
    <glyph glyph-name="acute" unicode="&#xb4;" horiz-adv-x="500" 
d="M317 573q-5 -6 -13 -6h-18q-7 0 -9 4t3 9l103 126q6 7 15 7h21q8 0 9.5 -4.5t-3.5 -10.5z" />
    <glyph glyph-name="uni00B5" unicode="&#xb5;" horiz-adv-x="501" 
d="M418 169q-29 -181 -194 -181q-51 0 -84.5 19t-47.5 57h-1l-34 -213q-2 -11 -13 -11h-17q-13 0 -11 13l99 627q2 11 13 11h18q13 0 11 -13l-48 -299q-2 -11 -3 -22t-1 -21q0 -111 118 -111q69 0 106 37.5t50 118.5l47 299q2 11 13 11h17q13 0 11 -13z" />
    <glyph glyph-name="paragraph" unicode="&#xb6;" horiz-adv-x="562" 
d="M388 -160q-12 0 -10 12l128 812h-152l-127 -814q-1 -10 -12 -10h-15q-12 0 -10 12l73 463q-199 0 -199 152q0 119 63 176t195 57h215q11 0 10 -12l-132 -838q-1 -10 -12 -10h-15z" />
    <glyph glyph-name="periodcentered" unicode="&#xb7;" horiz-adv-x="210" 
d="M112 277q-14 0 -23 8.5t-9 21.5q0 17 11.5 28t27.5 11q14 0 22.5 -8.5t8.5 -22.5q0 -17 -10.5 -27.5t-27.5 -10.5z" />
    <glyph glyph-name="cedilla" unicode="&#xb8;" horiz-adv-x="500" 
d="M208 -54q31 -2 47.5 -15t16.5 -36q0 -67 -89 -67q-43 0 -71 19q-8 5 -3 15l5 10q5 9 15 3q11 -7 24 -11.5t30 -4.5q30 0 42.5 11t12.5 25t-11.5 21.5t-40.5 7.5h-4q-14 0 -9 13l25 65h31z" />
    <glyph glyph-name="uni00B9" unicode="&#xb9;" 
d="M261 373q-1 -10 -12 -10h-13q-12 0 -10 12l52 325l-100 -67q-9 -6 -15 3l-5 8q-6 9 3 15l127 86q5 4 13 4h8q11 0 10 -12z" />
    <glyph glyph-name="ordmasculine" unicode="&#xba;" horiz-adv-x="364" 
d="M238 636q61 0 93.5 -28.5t32.5 -83.5q0 -15 -3 -33l-17 -110q-23 -142 -157 -142q-60 0 -92.5 28.5t-32.5 83.5q0 15 3 33l17 110q23 142 156 142zM321 485q3 19 3 35q0 82 -88 82q-52 0 -79.5 -28.5t-37.5 -89.5l-15 -95q-3 -18 -3 -34q0 -82 88 -82q52 0 80 28.5
t37 88.5z" />
    <glyph glyph-name="guillemotright" unicode="&#xbb;" horiz-adv-x="395" 
d="M28 59q-8 0 -10 4.5t3 10.5l137 175l-83 169q-7 14 9 14h12q9 0 14 -9l85 -168q4 -8 -2 -17l-136 -172q-6 -7 -15 -7h-14zM196 59q-8 0 -10 4.5t3 10.5l137 175l-83 169q-7 14 9 14h12q9 0 14 -9l85 -168q4 -8 -2 -17l-136 -172q-6 -7 -15 -7h-14z" />
    <glyph glyph-name="onequarter" unicode="&#xbc;" horiz-adv-x="790" 
d="M673 618q4 6 13 6h18q7 0 9 -4t-3 -9l-492 -605q-5 -6 -13 -6h-17q-7 0 -9 4t3 9zM688 10q-1 -10 -12 -10h-13q-12 0 -10 12l13 80h-185q-12 0 -10 12l2 15q2 9 6 13l228 247q6 7 14 7h15q11 0 10 -12l-40 -250h34q11 0 11 -12l-1 -10q-1 -10 -12 -10h-37zM515 124h156
l33 206h-1zM242 248q-1 -10 -12 -10h-13q-12 0 -10 12l52 325l-100 -67q-9 -6 -15 3l-5 8q-6 9 3 15l127 86q5 4 13 4h8q11 0 10 -12z" />
    <glyph glyph-name="onehalf" unicode="&#xbd;" horiz-adv-x="790" 
d="M633 618q4 6 13 6h18q7 0 9 -4t-3 -9l-492 -605q-5 -6 -13 -6h-17q-7 0 -9 4t3 9zM756 297q0 -19 -3.5 -35t-12.5 -31t-23.5 -30.5t-36.5 -34.5l-154 -133v-1h178q11 0 10 -12l-2 -10q-1 -10 -12 -10h-219q-12 0 -10 12l2 10q1 7 7 13l176 155q35 31 49.5 54t14.5 51
q0 31 -18.5 48.5t-53.5 17.5q-64 0 -98 -53q-7 -10 -15 -3l-9 7q-9 6 -3 15q23 32 56.5 49t72.5 17q48 0 76 -26t28 -70zM242 248q-1 -10 -12 -10h-13q-12 0 -10 12l52 325l-100 -67q-9 -6 -15 3l-5 8q-6 9 3 15l127 86q5 4 13 4h8q11 0 10 -12z" />
    <glyph glyph-name="threequarters" unicode="&#xbe;" horiz-adv-x="790" 
d="M681 618q4 6 13 6h18q7 0 9 -4t-3 -9l-492 -605q-5 -6 -13 -6h-17q-7 0 -9 4t3 9zM688 10q-1 -10 -12 -10h-13q-12 0 -10 12l13 80h-185q-12 0 -10 12l2 15q2 9 6 13l228 247q6 7 14 7h15q11 0 10 -12l-40 -250h34q11 0 11 -12l-1 -10q-1 -10 -12 -10h-37zM515 124h156
l33 206h-1zM339 540q0 -39 -19.5 -65t-57.5 -34v-1q27 -11 42.5 -32.5t15.5 -53.5q0 -59 -38 -91t-104 -32q-45 0 -75 14t-48 40q-5 9 3 15l9 7q9 6 15 -3q27 -41 96 -41q50 0 78.5 25t28.5 69q0 67 -91 67h-28q-11 0 -11 12l1 10q1 10 12 10h26q109 0 109 79q0 32 -20 48
t-57 16q-31 0 -55 -11.5t-43 -31.5q-7 -9 -16 0l-7 7q-8 8 -1 15q26 27 58 40t68 13q50 0 79.5 -24t29.5 -67z" />
    <glyph glyph-name="questiondown" unicode="&#xbf;" horiz-adv-x="446" 
d="M182 -12q-78 0 -124.5 41.5t-46.5 112.5q0 33 7 60t23.5 50t42.5 44t65 41q31 16 52.5 31.5t35 31.5t20.5 33.5t10 37.5l4 28q2 11 12 11h15q13 0 11 -13l-5 -32q-4 -25 -12.5 -46t-24 -39.5t-38.5 -36.5t-56 -36q-34 -19 -57 -37t-37 -37.5t-20 -42t-6 -49.5
q0 -54 35 -84.5t97 -30.5q54 0 100.5 26t79.5 74q8 11 17 3l12 -9q9 -7 2 -17q-39 -56 -93.5 -85.5t-120.5 -29.5zM316 676q14 0 23 -8.5t9 -21.5q0 -17 -11.5 -28t-27.5 -11q-14 0 -22.5 8.5t-8.5 22.5q0 17 10.5 27.5t27.5 10.5z" />
    <glyph glyph-name="Agrave" unicode="&#xc0;" horiz-adv-x="577" 
d="M41 10q-5 -10 -15 -10h-22q-16 0 -9 14l334 641q4 9 14 9h23q11 0 13 -11l129 -639q3 -14 -10 -14h-19q-11 0 -13 11l-28 142h-324zM430 192l-82 416h-1l-213 -416h296zM367 734q-9 0 -13 8l-68 124q-4 6 -1.5 10t9.5 4h18q9 0 14 -9l62 -124q6 -13 -8 -13h-13z" />
    <glyph glyph-name="Aacute" unicode="&#xc1;" horiz-adv-x="577" 
d="M41 10q-5 -10 -15 -10h-22q-16 0 -9 14l334 641q4 9 14 9h23q11 0 13 -11l129 -639q3 -14 -10 -14h-19q-11 0 -13 11l-28 142h-324zM430 192l-82 416h-1l-213 -416h296zM381 740q-5 -6 -13 -6h-18q-7 0 -9 4t3 9l103 126q6 7 15 7h21q8 0 9.5 -4.5t-3.5 -10.5z" />
    <glyph glyph-name="Acircumflex" unicode="&#xc2;" horiz-adv-x="577" 
d="M41 10q-5 -10 -15 -10h-22q-16 0 -9 14l334 641q4 9 14 9h23q11 0 13 -11l129 -639q3 -14 -10 -14h-19q-11 0 -13 11l-28 142h-324zM430 192l-82 416h-1l-213 -416h296zM293 740q-5 -6 -13 -6h-16q-8 0 -10 4t3 9l107 126q6 7 15 7h17q9 0 15 -9l65 -124q6 -13 -8 -13
h-12q-9 0 -13 8l-58 104z" />
    <glyph glyph-name="Atilde" unicode="&#xc3;" horiz-adv-x="577" 
d="M41 10q-5 -10 -15 -10h-22q-16 0 -9 14l334 641q4 9 14 9h23q11 0 13 -11l129 -639q3 -14 -10 -14h-19q-11 0 -13 11l-28 142h-324zM430 192l-82 416h-1l-213 -416h296zM245 749q-12 0 -8 13q11 41 34 62t53 21q17 0 30.5 -7t30.5 -26q13 -14 22 -20t20 -6q19 0 32 12
t22 39q3 8 12 8h13q11 0 8 -12q-26 -83 -88 -83q-18 0 -32 7.5t-30 25.5q-13 14 -22 20t-20 6q-35 0 -53 -51q-3 -9 -12 -9h-12z" />
    <glyph glyph-name="Adieresis" unicode="&#xc4;" horiz-adv-x="577" 
d="M41 10q-5 -10 -15 -10h-22q-16 0 -9 14l334 641q4 9 14 9h23q11 0 13 -11l129 -639q3 -14 -10 -14h-19q-11 0 -13 11l-28 142h-324zM430 192l-82 416h-1l-213 -416h296zM295 766q-13 0 -20.5 8.5t-7.5 20.5q0 15 9.5 25.5t24.5 10.5q13 0 21 -8.5t8 -21.5
q0 -14 -10 -24.5t-25 -10.5zM450 766q-13 0 -20.5 8.5t-7.5 20.5q0 15 9.5 25.5t24.5 10.5q13 0 21 -8.5t8 -21.5q0 -14 -10 -24.5t-25 -10.5z" />
    <glyph glyph-name="Aring" unicode="&#xc5;" horiz-adv-x="577" 
d="M41 10q-5 -10 -15 -10h-22q-16 0 -9 14l334 641q4 9 14 9h23q11 0 13 -11l129 -639q3 -14 -10 -14h-19q-11 0 -13 11l-28 142h-324zM430 192l-82 416h-1l-213 -416h296zM371 731q-31 0 -50.5 19.5t-19.5 49.5q0 35 24 59t59 24q30 0 49.5 -19t19.5 -48q0 -37 -24 -61
t-58 -24zM372 763q20 0 34.5 14.5t14.5 36.5q0 17 -11 27t-29 10q-20 0 -34 -14.5t-14 -36.5q0 -17 10.5 -27t28.5 -10z" />
    <glyph glyph-name="AE" unicode="&#xc6;" horiz-adv-x="885" 
d="M798 355q13 0 11 -13l-2 -15q-2 -11 -13 -11h-304l-44 -277h346q13 0 11 -13l-2 -15q-2 -11 -13 -11h-378q-13 0 -11 13l22 141h-281l-114 -147q-6 -7 -15 -7h-24q-8 0 -10.5 4.5t2.5 10.5l503 642q6 7 15 7h394q13 0 11 -13l-2 -15q-2 -11 -13 -11h-348l-43 -270h302z
M428 193l65 416h-1l-322 -416h258z" />
    <glyph glyph-name="Ccedilla" unicode="&#xc7;" horiz-adv-x="534" 
d="M544 549q3 -11 -7 -15l-16 -5q-13 -5 -16 8q-32 100 -158 100q-93 0 -145 -52.5t-69 -159.5l-29 -188q-3 -17 -4 -32.5t-1 -29.5q0 -148 155 -148q65 0 109.5 26.5t76.5 79.5q7 12 17 5l16 -9q9 -6 3 -16q-38 -63 -90.5 -93t-125.5 -32l-16 -42q31 -2 47.5 -15t16.5 -36
q0 -67 -89 -67q-43 0 -71 19q-8 5 -3 15l5 10q5 9 15 3q11 -7 24 -11.5t30 -4.5q30 0 42.5 11t12.5 25t-11.5 21.5t-40.5 7.5h-4q-14 0 -9 13l20 52q-85 5 -129.5 50.5t-44.5 130.5q0 14 1.5 29t3.5 31l33 208q38 238 257 238q155 0 194 -127z" />
    <glyph glyph-name="Egrave" unicode="&#xc8;" horiz-adv-x="537" 
d="M451 355q13 0 11 -13l-3 -15q-2 -11 -13 -11h-303l-44 -277h345q13 0 11 -13l-2 -15q-2 -11 -12 -11h-378q-13 0 -11 13l101 640q2 11 13 11h378q13 0 11 -13l-2 -15q-2 -11 -13 -11h-348l-43 -270h302zM368 734q-9 0 -13 8l-68 124q-4 6 -1.5 10t9.5 4h18q9 0 14 -9
l62 -124q6 -13 -8 -13h-13z" />
    <glyph glyph-name="Eacute" unicode="&#xc9;" horiz-adv-x="537" 
d="M451 355q13 0 11 -13l-3 -15q-2 -11 -13 -11h-303l-44 -277h345q13 0 11 -13l-2 -15q-2 -11 -12 -11h-378q-13 0 -11 13l101 640q2 11 13 11h378q13 0 11 -13l-2 -15q-2 -11 -13 -11h-348l-43 -270h302zM382 740q-5 -6 -13 -6h-18q-7 0 -9 4t3 9l103 126q6 7 15 7h21
q8 0 9.5 -4.5t-3.5 -10.5z" />
    <glyph glyph-name="Ecircumflex" unicode="&#xca;" horiz-adv-x="537" 
d="M451 355q13 0 11 -13l-3 -15q-2 -11 -13 -11h-303l-44 -277h345q13 0 11 -13l-2 -15q-2 -11 -12 -11h-378q-13 0 -11 13l101 640q2 11 13 11h378q13 0 11 -13l-2 -15q-2 -11 -13 -11h-348l-43 -270h302zM294 740q-5 -6 -13 -6h-16q-8 0 -10 4t3 9l107 126q6 7 15 7h17
q9 0 15 -9l65 -124q6 -13 -8 -13h-12q-9 0 -13 8l-58 104z" />
    <glyph glyph-name="Edieresis" unicode="&#xcb;" horiz-adv-x="537" 
d="M451 355q13 0 11 -13l-3 -15q-2 -11 -13 -11h-303l-44 -277h345q13 0 11 -13l-2 -15q-2 -11 -12 -11h-378q-13 0 -11 13l101 640q2 11 13 11h378q13 0 11 -13l-2 -15q-2 -11 -13 -11h-348l-43 -270h302zM296 766q-13 0 -20.5 8.5t-7.5 20.5q0 15 9.5 25.5t24.5 10.5
q13 0 21 -8.5t8 -21.5q0 -14 -10 -24.5t-25 -10.5zM451 766q-13 0 -20.5 8.5t-7.5 20.5q0 15 9.5 25.5t24.5 10.5q13 0 21 -8.5t8 -21.5q0 -14 -10 -24.5t-25 -10.5z" />
    <glyph glyph-name="Igrave" unicode="&#xcc;" horiz-adv-x="219" 
d="M95 11q-2 -11 -13 -11h-19q-13 0 -11 13l101 640q2 11 13 11h19q13 0 11 -13zM188 734q-9 0 -13 8l-68 124q-4 6 -1.5 10t9.5 4h18q9 0 14 -9l62 -124q6 -13 -8 -13h-13z" />
    <glyph glyph-name="Iacute" unicode="&#xcd;" horiz-adv-x="219" 
d="M95 11q-2 -11 -13 -11h-19q-13 0 -11 13l101 640q2 11 13 11h19q13 0 11 -13zM202 740q-5 -6 -13 -6h-18q-7 0 -9 4t3 9l103 126q6 7 15 7h21q8 0 9.5 -4.5t-3.5 -10.5z" />
    <glyph glyph-name="Icircumflex" unicode="&#xce;" horiz-adv-x="219" 
d="M95 11q-2 -11 -13 -11h-19q-13 0 -11 13l101 640q2 11 13 11h19q13 0 11 -13zM114 740q-5 -6 -13 -6h-16q-8 0 -10 4t3 9l107 126q6 7 15 7h17q9 0 15 -9l65 -124q6 -13 -8 -13h-12q-9 0 -13 8l-58 104z" />
    <glyph glyph-name="Idieresis" unicode="&#xcf;" horiz-adv-x="219" 
d="M95 11q-2 -11 -13 -11h-19q-13 0 -11 13l101 640q2 11 13 11h19q13 0 11 -13zM116 766q-13 0 -20.5 8.5t-7.5 20.5q0 15 9.5 25.5t24.5 10.5q13 0 21 -8.5t8 -21.5q0 -14 -10 -24.5t-25 -10.5zM271 766q-13 0 -20.5 8.5t-7.5 20.5q0 15 9.5 25.5t24.5 10.5q13 0 21 -8.5
t8 -21.5q0 -14 -10 -24.5t-25 -10.5z" />
    <glyph glyph-name="Eth" unicode="&#xd0;" horiz-adv-x="599" 
d="M372 664q99 0 149.5 -43.5t50.5 -129.5q0 -13 -1.5 -26.5t-3.5 -28.5l-34 -211q-18 -113 -82.5 -169t-179.5 -56h-199q-13 0 -11 13l48 303h-60q-13 0 -11 13l3 15q2 11 13 11h61l47 298q2 11 13 11h197zM522 428q2 15 3.5 28.5t1.5 26.5q0 142 -159 142h-167l-43 -270
h157q13 0 11 -13l-3 -15q-2 -11 -13 -11h-158l-44 -277h164q95 0 149.5 48.5t70.5 150.5z" />
    <glyph glyph-name="Ntilde" unicode="&#xd1;" horiz-adv-x="624" 
d="M499 11q-2 -11 -13 -11h-21q-10 0 -14 9l-263 591h-1l-93 -589q-2 -11 -13 -11h-18q-13 0 -11 13l101 640q2 11 13 11h25q9 0 14 -9l260 -583h1l92 581q2 11 13 11h18q13 0 11 -13zM268 749q-12 0 -8 13q11 41 34 62t53 21q17 0 30.5 -7t30.5 -26q13 -14 22 -20t20 -6
q19 0 32 12t22 39q3 8 12 8h13q11 0 8 -12q-26 -83 -88 -83q-18 0 -32 7.5t-30 25.5q-13 14 -22 20t-20 6q-35 0 -53 -51q-3 -9 -12 -9h-12z" />
    <glyph glyph-name="Ograve" unicode="&#xd2;" horiz-adv-x="582" 
d="M93 438q19 118 82 178t176 60q99 0 151.5 -47t52.5 -138q0 -14 -1.5 -28t-3.5 -29l-33 -208q-36 -238 -257 -238q-100 0 -152.5 47t-52.5 138q0 14 1.5 28t3.5 29zM104 237q-2 -16 -3.5 -30t-1.5 -28q0 -152 163 -152q95 0 146 52t68 160l30 188q2 16 3.5 30.5t1.5 27.5
q0 78 -41 115t-121 37q-95 0 -146.5 -52t-68.5 -160zM370 734q-9 0 -13 8l-68 124q-4 6 -1.5 10t9.5 4h18q9 0 14 -9l62 -124q6 -13 -8 -13h-13z" />
    <glyph glyph-name="Oacute" unicode="&#xd3;" horiz-adv-x="582" 
d="M93 438q19 118 82 178t176 60q99 0 151.5 -47t52.5 -138q0 -14 -1.5 -28t-3.5 -29l-33 -208q-36 -238 -257 -238q-100 0 -152.5 47t-52.5 138q0 14 1.5 28t3.5 29zM104 237q-2 -16 -3.5 -30t-1.5 -28q0 -152 163 -152q95 0 146 52t68 160l30 188q2 16 3.5 30.5t1.5 27.5
q0 78 -41 115t-121 37q-95 0 -146.5 -52t-68.5 -160zM384 740q-5 -6 -13 -6h-18q-7 0 -9 4t3 9l103 126q6 7 15 7h21q8 0 9.5 -4.5t-3.5 -10.5z" />
    <glyph glyph-name="Ocircumflex" unicode="&#xd4;" horiz-adv-x="582" 
d="M93 438q19 118 82 178t176 60q99 0 151.5 -47t52.5 -138q0 -14 -1.5 -28t-3.5 -29l-33 -208q-36 -238 -257 -238q-100 0 -152.5 47t-52.5 138q0 14 1.5 28t3.5 29zM104 237q-2 -16 -3.5 -30t-1.5 -28q0 -152 163 -152q95 0 146 52t68 160l30 188q2 16 3.5 30.5t1.5 27.5
q0 78 -41 115t-121 37q-95 0 -146.5 -52t-68.5 -160zM296 740q-5 -6 -13 -6h-16q-8 0 -10 4t3 9l107 126q6 7 15 7h17q9 0 15 -9l65 -124q6 -13 -8 -13h-12q-9 0 -13 8l-58 104z" />
    <glyph glyph-name="Otilde" unicode="&#xd5;" horiz-adv-x="582" 
d="M93 438q19 118 82 178t176 60q99 0 151.5 -47t52.5 -138q0 -14 -1.5 -28t-3.5 -29l-33 -208q-36 -238 -257 -238q-100 0 -152.5 47t-52.5 138q0 14 1.5 28t3.5 29zM104 237q-2 -16 -3.5 -30t-1.5 -28q0 -152 163 -152q95 0 146 52t68 160l30 188q2 16 3.5 30.5t1.5 27.5
q0 78 -41 115t-121 37q-95 0 -146.5 -52t-68.5 -160zM248 749q-12 0 -8 13q11 41 34 62t53 21q17 0 30.5 -7t30.5 -26q13 -14 22 -20t20 -6q19 0 32 12t22 39q3 8 12 8h13q11 0 8 -12q-26 -83 -88 -83q-18 0 -32 7.5t-30 25.5q-13 14 -22 20t-20 6q-35 0 -53 -51
q-3 -9 -12 -9h-12z" />
    <glyph glyph-name="Odieresis" unicode="&#xd6;" horiz-adv-x="582" 
d="M93 438q19 118 82 178t176 60q99 0 151.5 -47t52.5 -138q0 -14 -1.5 -28t-3.5 -29l-33 -208q-36 -238 -257 -238q-100 0 -152.5 47t-52.5 138q0 14 1.5 28t3.5 29zM104 237q-2 -16 -3.5 -30t-1.5 -28q0 -152 163 -152q95 0 146 52t68 160l30 188q2 16 3.5 30.5t1.5 27.5
q0 78 -41 115t-121 37q-95 0 -146.5 -52t-68.5 -160zM298 766q-13 0 -20.5 8.5t-7.5 20.5q0 15 9.5 25.5t24.5 10.5q13 0 21 -8.5t8 -21.5q0 -14 -10 -24.5t-25 -10.5zM453 766q-13 0 -20.5 8.5t-7.5 20.5q0 15 9.5 25.5t24.5 10.5q13 0 21 -8.5t8 -21.5q0 -14 -10 -24.5
t-25 -10.5z" />
    <glyph glyph-name="multiply" unicode="&#xd7;" horiz-adv-x="528" 
d="M454 92q8 -10 -1 -17l-11 -10q-9 -9 -17 0l-157 186l-217 -187q-10 -8 -17 1l-9 11q-8 10 1 17l217 187l-156 186q-8 10 1 17l12 11q10 8 17 -1l157 -186l217 187q10 8 17 -1l9 -11q7 -10 -2 -17l-217 -187z" />
    <glyph glyph-name="Oslash" unicode="&#xd8;" horiz-adv-x="582" 
d="M579 658q7 -7 1 -15l-46 -56q21 -41 21 -96q0 -14 -1.5 -28t-3.5 -29l-33 -208q-36 -238 -257 -238q-111 0 -163 58l-39 -48q-7 -8 -15 -2l-12 10q-7 7 -1 15l46 56q-21 40 -21 96q0 14 1.5 28t3.5 29l33 208q19 118 82 178t176 60q110 0 162 -58l39 48q7 8 15 2zM99 179
q0 -32 8 -61h1l377 465q-41 54 -136 54t-146.5 -52t-68.5 -160l-30 -188q-2 -16 -3.5 -30t-1.5 -28zM511 485q0 32 -8 61h-1l-377 -465q40 -54 137 -54q95 0 146 52t68 160l30 188q2 16 3.5 30.5t1.5 27.5z" />
    <glyph glyph-name="Ugrave" unicode="&#xd9;" horiz-adv-x="588" 
d="M509 218q-19 -115 -79 -172.5t-167 -57.5q-95 0 -145.5 45t-50.5 133q0 13 1.5 27t3.5 28l68 432q2 11 13 11h19q13 0 11 -13l-67 -423q-2 -16 -3.5 -30t-1.5 -27q0 -75 38.5 -109.5t116.5 -34.5q90 0 138.5 50t64.5 154l66 422q2 11 13 11h18q13 0 11 -13zM373 734
q-9 0 -13 8l-68 124q-4 6 -1.5 10t9.5 4h18q9 0 14 -9l62 -124q6 -13 -8 -13h-13z" />
    <glyph glyph-name="Uacute" unicode="&#xda;" horiz-adv-x="588" 
d="M509 218q-19 -115 -79 -172.5t-167 -57.5q-95 0 -145.5 45t-50.5 133q0 13 1.5 27t3.5 28l68 432q2 11 13 11h19q13 0 11 -13l-67 -423q-2 -16 -3.5 -30t-1.5 -27q0 -75 38.5 -109.5t116.5 -34.5q90 0 138.5 50t64.5 154l66 422q2 11 13 11h18q13 0 11 -13zM387 740
q-5 -6 -13 -6h-18q-7 0 -9 4t3 9l103 126q6 7 15 7h21q8 0 9.5 -4.5t-3.5 -10.5z" />
    <glyph glyph-name="Ucircumflex" unicode="&#xdb;" horiz-adv-x="588" 
d="M509 218q-19 -115 -79 -172.5t-167 -57.5q-95 0 -145.5 45t-50.5 133q0 13 1.5 27t3.5 28l68 432q2 11 13 11h19q13 0 11 -13l-67 -423q-2 -16 -3.5 -30t-1.5 -27q0 -75 38.5 -109.5t116.5 -34.5q90 0 138.5 50t64.5 154l66 422q2 11 13 11h18q13 0 11 -13zM299 740
q-5 -6 -13 -6h-16q-8 0 -10 4t3 9l107 126q6 7 15 7h17q9 0 15 -9l65 -124q6 -13 -8 -13h-12q-9 0 -13 8l-58 104z" />
    <glyph glyph-name="Udieresis" unicode="&#xdc;" horiz-adv-x="588" 
d="M509 218q-19 -115 -79 -172.5t-167 -57.5q-95 0 -145.5 45t-50.5 133q0 13 1.5 27t3.5 28l68 432q2 11 13 11h19q13 0 11 -13l-67 -423q-2 -16 -3.5 -30t-1.5 -27q0 -75 38.5 -109.5t116.5 -34.5q90 0 138.5 50t64.5 154l66 422q2 11 13 11h18q13 0 11 -13zM301 766
q-13 0 -20.5 8.5t-7.5 20.5q0 15 9.5 25.5t24.5 10.5q13 0 21 -8.5t8 -21.5q0 -14 -10 -24.5t-25 -10.5zM456 766q-13 0 -20.5 8.5t-7.5 20.5q0 15 9.5 25.5t24.5 10.5q13 0 21 -8.5t8 -21.5q0 -14 -10 -24.5t-25 -10.5z" />
    <glyph glyph-name="Yacute" unicode="&#xdd;" horiz-adv-x="511" 
d="M239 11q-2 -11 -13 -11h-19q-13 0 -11 13l46 289l-162 348q-7 14 9 14h22q9 0 14 -9l144 -313l244 315q6 7 15 7h25q8 0 10 -4.5t-3 -10.5l-276 -352zM348 740q-5 -6 -13 -6h-18q-7 0 -9 4t3 9l103 126q6 7 15 7h21q8 0 9.5 -4.5t-3.5 -10.5z" />
    <glyph glyph-name="Thorn" unicode="&#xde;" horiz-adv-x="538" 
d="M274 188q108 0 159 44t51 138q0 66 -39 96t-120 30h-154l-48 -308h151zM117 149l-22 -138q-2 -11 -13 -11h-19q-13 0 -11 13l101 640q2 11 13 11h19q13 0 11 -13l-18 -116h151q100 0 149.5 -39.5t49.5 -122.5q0 -114 -63 -169t-195 -55h-153z" />
    <glyph glyph-name="germandbls" unicode="&#xdf;" horiz-adv-x="549" 
d="M126 545q13 80 67.5 123.5t142.5 43.5q77 0 119.5 -34t42.5 -96q0 -48 -22.5 -81.5t-80.5 -63.5q-47 -24 -64 -45.5t-17 -52.5q0 -26 16 -42t62 -28q59 -16 83 -43.5t24 -75.5q0 -76 -49 -119t-136 -43q-110 0 -159 60q-7 9 1 17l10 10q9 9 17 -1q40 -49 132 -49
q68 0 106 32t38 89q0 35 -20 56t-71 35q-54 15 -74.5 38t-20.5 62q0 22 5 39.5t16 33t30 29.5t46 28q51 26 70 51.5t19 61.5q0 45 -33 70t-93 25q-71 0 -113.5 -35t-53.5 -102l-84 -527q-2 -11 -13 -11h-17q-13 0 -11 13z" />
    <glyph glyph-name="agrave" unicode="&#xe0;" horiz-adv-x="451" 
d="M251 503q77 0 118 -36.5t41 -108.5q0 -11 -1 -21.5t-3 -22.5l-23 -141q-14 -92 -63.5 -138.5t-140.5 -46.5q-73 0 -113 33.5t-40 93.5q0 78 50 121t146 43h137l4 28q4 23 4 46q0 59 -30 86t-91 27q-35 0 -65.5 -14.5t-56.5 -37.5q-9 -9 -17 1l-10 13q-8 9 2 17
q33 30 70 44t82 14zM182 25q73 0 110.5 38.5t51.5 121.5l9 57h-129q-75 0 -116 -32.5t-41 -93.5q0 -45 29.5 -68t85.5 -23zM283 567q-9 0 -13 8l-68 124q-4 6 -1.5 10t9.5 4h18q9 0 14 -9l62 -124q6 -13 -8 -13h-13z" />
    <glyph glyph-name="aacute" unicode="&#xe1;" horiz-adv-x="451" 
d="M251 503q77 0 118 -36.5t41 -108.5q0 -11 -1 -21.5t-3 -22.5l-23 -141q-14 -92 -63.5 -138.5t-140.5 -46.5q-73 0 -113 33.5t-40 93.5q0 78 50 121t146 43h137l4 28q4 23 4 46q0 59 -30 86t-91 27q-35 0 -65.5 -14.5t-56.5 -37.5q-9 -9 -17 1l-10 13q-8 9 2 17
q33 30 70 44t82 14zM182 25q73 0 110.5 38.5t51.5 121.5l9 57h-129q-75 0 -116 -32.5t-41 -93.5q0 -45 29.5 -68t85.5 -23zM297 573q-5 -6 -13 -6h-18q-7 0 -9 4t3 9l103 126q6 7 15 7h21q8 0 9.5 -4.5t-3.5 -10.5z" />
    <glyph glyph-name="acircumflex" unicode="&#xe2;" horiz-adv-x="451" 
d="M251 503q77 0 118 -36.5t41 -108.5q0 -11 -1 -21.5t-3 -22.5l-23 -141q-14 -92 -63.5 -138.5t-140.5 -46.5q-73 0 -113 33.5t-40 93.5q0 78 50 121t146 43h137l4 28q4 23 4 46q0 59 -30 86t-91 27q-35 0 -65.5 -14.5t-56.5 -37.5q-9 -9 -17 1l-10 13q-8 9 2 17
q33 30 70 44t82 14zM182 25q73 0 110.5 38.5t51.5 121.5l9 57h-129q-75 0 -116 -32.5t-41 -93.5q0 -45 29.5 -68t85.5 -23zM209 573q-5 -6 -13 -6h-16q-8 0 -10 4t3 9l107 126q6 7 15 7h17q9 0 15 -9l65 -124q6 -13 -8 -13h-12q-9 0 -13 8l-58 104z" />
    <glyph glyph-name="atilde" unicode="&#xe3;" horiz-adv-x="451" 
d="M251 503q77 0 118 -36.5t41 -108.5q0 -11 -1 -21.5t-3 -22.5l-23 -141q-14 -92 -63.5 -138.5t-140.5 -46.5q-73 0 -113 33.5t-40 93.5q0 78 50 121t146 43h137l4 28q4 23 4 46q0 59 -30 86t-91 27q-35 0 -65.5 -14.5t-56.5 -37.5q-9 -9 -17 1l-10 13q-8 9 2 17
q33 30 70 44t82 14zM182 25q73 0 110.5 38.5t51.5 121.5l9 57h-129q-75 0 -116 -32.5t-41 -93.5q0 -45 29.5 -68t85.5 -23zM161 582q-12 0 -8 13q11 41 34 62t53 21q17 0 30.5 -7t30.5 -26q13 -14 22 -20t20 -6q19 0 32 12t22 39q3 8 12 8h13q11 0 8 -12q-26 -83 -88 -83
q-18 0 -32 7.5t-30 25.5q-13 14 -22 20t-20 6q-35 0 -53 -51q-3 -9 -12 -9h-12z" />
    <glyph glyph-name="adieresis" unicode="&#xe4;" horiz-adv-x="451" 
d="M251 503q77 0 118 -36.5t41 -108.5q0 -11 -1 -21.5t-3 -22.5l-23 -141q-14 -92 -63.5 -138.5t-140.5 -46.5q-73 0 -113 33.5t-40 93.5q0 78 50 121t146 43h137l4 28q4 23 4 46q0 59 -30 86t-91 27q-35 0 -65.5 -14.5t-56.5 -37.5q-9 -9 -17 1l-10 13q-8 9 2 17
q33 30 70 44t82 14zM182 25q73 0 110.5 38.5t51.5 121.5l9 57h-129q-75 0 -116 -32.5t-41 -93.5q0 -45 29.5 -68t85.5 -23zM211 599q-13 0 -20.5 8.5t-7.5 20.5q0 15 9.5 25.5t24.5 10.5q13 0 21 -8.5t8 -21.5q0 -14 -10 -24.5t-25 -10.5zM366 599q-13 0 -20.5 8.5
t-7.5 20.5q0 15 9.5 25.5t24.5 10.5q13 0 21 -8.5t8 -21.5q0 -14 -10 -24.5t-25 -10.5z" />
    <glyph glyph-name="aring" unicode="&#xe5;" horiz-adv-x="451" 
d="M251 503q77 0 118 -36.5t41 -108.5q0 -11 -1 -21.5t-3 -22.5l-23 -141q-14 -92 -63.5 -138.5t-140.5 -46.5q-73 0 -113 33.5t-40 93.5q0 78 50 121t146 43h137l4 28q4 23 4 46q0 59 -30 86t-91 27q-35 0 -65.5 -14.5t-56.5 -37.5q-9 -9 -17 1l-10 13q-8 9 2 17
q33 30 70 44t82 14zM182 25q73 0 110.5 38.5t51.5 121.5l9 57h-129q-75 0 -116 -32.5t-41 -93.5q0 -45 29.5 -68t85.5 -23zM287 564q-31 0 -50.5 19.5t-19.5 49.5q0 35 24 59t59 24q30 0 49.5 -19t19.5 -48q0 -37 -24 -61t-58 -24zM288 596q20 0 34.5 14.5t14.5 36.5
q0 17 -11 27t-29 10q-20 0 -34 -14.5t-14 -36.5q0 -17 10.5 -27t28.5 -10z" />
    <glyph glyph-name="ae" unicode="&#xe6;" horiz-adv-x="748" 
d="M571 503q74 0 111.5 -35.5t37.5 -104.5q0 -24 -4 -47l-11 -67q-2 -11 -13 -11h-298l-9 -54q-2 -12 -3 -23t-1 -21q0 -60 33 -87.5t99 -27.5q35 0 64 13.5t58 43.5q8 9 17 0l10 -11q8 -8 0 -17q-32 -35 -70 -50.5t-83 -15.5q-136 0 -158 103h-1q-45 -103 -174 -103
q-71 0 -110.5 33.5t-39.5 93.5q0 77 49.5 118.5t145.5 41.5h138l5 32q2 14 3 26t1 23q0 57 -28.5 83.5t-88.5 26.5q-38 0 -69.5 -13.5t-57.5 -37.5q-9 -9 -17 1l-10 12q-7 9 1 17q34 29 73.5 43.5t82.5 14.5q126 0 144 -102h1q46 102 172 102zM675 309q2 14 3.5 27t1.5 24
q0 55 -28 80.5t-86 25.5q-70 0 -109 -38.5t-52 -120.5l-5 -32h269zM182 25q72 0 110 38.5t52 121.5l9 53h-130q-75 0 -115.5 -31t-40.5 -91q0 -91 115 -91z" />
    <glyph glyph-name="ccedilla" unicode="&#xe7;" horiz-adv-x="412" 
d="M405 451q7 -9 -1 -17l-11 -10q-10 -8 -18 1q-37 41 -107 41q-71 0 -109 -39t-51 -122l-19 -121q-4 -23 -4 -46q0 -59 31.5 -86t92.5 -27q34 0 62.5 12.5t55.5 38.5q9 9 17 -1l8 -10q7 -9 -1 -17q-61 -58 -144 -60l-16 -42q31 -2 47.5 -15t16.5 -36q0 -67 -89 -67
q-43 0 -71 19q-8 5 -3 15l5 10q5 9 15 3q11 -7 24 -11.5t30 -4.5q30 0 42.5 11t12.5 25t-11.5 21.5t-40.5 7.5h-4q-14 0 -9 13l20 52q-64 7 -98.5 43t-34.5 101q0 22 4 45l21 140q27 185 201 185q89 0 136 -52z" />
    <glyph glyph-name="egrave" unicode="&#xe8;" horiz-adv-x="452" 
d="M267 503q76 0 116.5 -36t40.5 -107q0 -21 -4 -44l-12 -73q-2 -11 -13 -11h-299l-7 -48q-2 -12 -3 -23t-1 -22q0 -60 33 -87t99 -27q35 0 64 14t57 43q9 10 18 1l10 -11q8 -9 0 -17q-66 -67 -154 -67q-81 0 -125 36t-44 108q0 11 1 22t3 23l21 142q27 184 199 184z
M265 467q-70 0 -107 -38.5t-50 -121.5l-6 -38h270l7 40q2 13 3 24.5t1 22.5q0 58 -29 84.5t-89 26.5zM287 567q-9 0 -13 8l-68 124q-4 6 -1.5 10t9.5 4h18q9 0 14 -9l62 -124q6 -13 -8 -13h-13z" />
    <glyph glyph-name="eacute" unicode="&#xe9;" horiz-adv-x="452" 
d="M267 503q76 0 116.5 -36t40.5 -107q0 -21 -4 -44l-12 -73q-2 -11 -13 -11h-299l-7 -48q-2 -12 -3 -23t-1 -22q0 -60 33 -87t99 -27q35 0 64 14t57 43q9 10 18 1l10 -11q8 -9 0 -17q-66 -67 -154 -67q-81 0 -125 36t-44 108q0 11 1 22t3 23l21 142q27 184 199 184z
M265 467q-70 0 -107 -38.5t-50 -121.5l-6 -38h270l7 40q2 13 3 24.5t1 22.5q0 58 -29 84.5t-89 26.5zM301 573q-5 -6 -13 -6h-18q-7 0 -9 4t3 9l103 126q6 7 15 7h21q8 0 9.5 -4.5t-3.5 -10.5z" />
    <glyph glyph-name="ecircumflex" unicode="&#xea;" horiz-adv-x="452" 
d="M267 503q76 0 116.5 -36t40.5 -107q0 -21 -4 -44l-12 -73q-2 -11 -13 -11h-299l-7 -48q-2 -12 -3 -23t-1 -22q0 -60 33 -87t99 -27q35 0 64 14t57 43q9 10 18 1l10 -11q8 -9 0 -17q-66 -67 -154 -67q-81 0 -125 36t-44 108q0 11 1 22t3 23l21 142q27 184 199 184z
M265 467q-70 0 -107 -38.5t-50 -121.5l-6 -38h270l7 40q2 13 3 24.5t1 22.5q0 58 -29 84.5t-89 26.5zM213 573q-5 -6 -13 -6h-16q-8 0 -10 4t3 9l107 126q6 7 15 7h17q9 0 15 -9l65 -124q6 -13 -8 -13h-12q-9 0 -13 8l-58 104z" />
    <glyph glyph-name="edieresis" unicode="&#xeb;" horiz-adv-x="452" 
d="M267 503q76 0 116.5 -36t40.5 -107q0 -21 -4 -44l-12 -73q-2 -11 -13 -11h-299l-7 -48q-2 -12 -3 -23t-1 -22q0 -60 33 -87t99 -27q35 0 64 14t57 43q9 10 18 1l10 -11q8 -9 0 -17q-66 -67 -154 -67q-81 0 -125 36t-44 108q0 11 1 22t3 23l21 142q27 184 199 184z
M265 467q-70 0 -107 -38.5t-50 -121.5l-6 -38h270l7 40q2 13 3 24.5t1 22.5q0 58 -29 84.5t-89 26.5zM215 599q-13 0 -20.5 8.5t-7.5 20.5q0 15 9.5 25.5t24.5 10.5q13 0 21 -8.5t8 -21.5q0 -14 -10 -24.5t-25 -10.5zM370 599q-13 0 -20.5 8.5t-7.5 20.5q0 15 9.5 25.5
t24.5 10.5q13 0 21 -8.5t8 -21.5q0 -14 -10 -24.5t-25 -10.5z" />
    <glyph glyph-name="igrave" unicode="&#xec;" horiz-adv-x="196" 
d="M52 0q-13 0 -11 13l74 467q2 11 13 11h17q13 0 11 -13l-74 -467q-2 -11 -13 -11h-17zM151 567q-9 0 -13 8l-68 124q-4 6 -1.5 10t9.5 4h18q9 0 14 -9l62 -124q6 -13 -8 -13h-13z" />
    <glyph glyph-name="iacute" unicode="&#xed;" horiz-adv-x="196" 
d="M52 0q-13 0 -11 13l74 467q2 11 13 11h17q13 0 11 -13l-74 -467q-2 -11 -13 -11h-17zM165 573q-5 -6 -13 -6h-18q-7 0 -9 4t3 9l103 126q6 7 15 7h21q8 0 9.5 -4.5t-3.5 -10.5z" />
    <glyph glyph-name="icircumflex" unicode="&#xee;" horiz-adv-x="196" 
d="M52 0q-13 0 -11 13l74 467q2 11 13 11h17q13 0 11 -13l-74 -467q-2 -11 -13 -11h-17zM77 573q-5 -6 -13 -6h-16q-8 0 -10 4t3 9l107 126q6 7 15 7h17q9 0 15 -9l65 -124q6 -13 -8 -13h-12q-9 0 -13 8l-58 104z" />
    <glyph glyph-name="idieresis" unicode="&#xef;" horiz-adv-x="196" 
d="M52 0q-13 0 -11 13l74 467q2 11 13 11h17q13 0 11 -13l-74 -467q-2 -11 -13 -11h-17zM79 599q-13 0 -20.5 8.5t-7.5 20.5q0 15 9.5 25.5t24.5 10.5q13 0 21 -8.5t8 -21.5q0 -14 -10 -24.5t-25 -10.5zM234 599q-13 0 -20.5 8.5t-7.5 20.5q0 15 9.5 25.5t24.5 10.5
q13 0 21 -8.5t8 -21.5q0 -14 -10 -24.5t-25 -10.5z" />
    <glyph glyph-name="eth" unicode="&#xf0;" horiz-adv-x="481" 
d="M205 25q72 0 109 38.5t51 121.5l20 121q3 22 3 42q0 116 -120 116q-71 0 -110 -39t-51 -121l-18 -121q-2 -13 -3 -24.5t-1 -22.5q0 -57 30 -84t90 -27zM378 639q32 -32 46.5 -79.5t14.5 -111.5q0 -27 -2.5 -57t-7.5 -63l-26 -155q-15 -92 -64 -138.5t-137 -46.5
q-77 0 -118.5 37t-41.5 108q0 10 1 21t3 22l22 140q30 185 199 185q99 0 131 -71h1v18q0 57 -12.5 98.5t-40.5 69.5l-72 -53q-9 -7 -15 2l-7 11q-6 9 3 15l63 47q-46 30 -131 38q-13 2 -10 14l3 12q3 10 13 9q98 -9 158 -49l57 42q9 7 15 -2l7 -11q6 -9 -3 -15z" />
    <glyph glyph-name="ntilde" unicode="&#xf1;" horiz-adv-x="496" 
d="M394 314q2 12 3 23t1 21q0 56 -29.5 82t-88.5 26q-69 0 -106 -38.5t-50 -117.5l-48 -299q-2 -11 -13 -11h-17q-13 0 -11 13l50 310q14 90 62.5 135t134.5 45q76 0 117 -35.5t41 -104.5q0 -11 -1 -21t-3 -22l-49 -309q-2 -11 -13 -11h-17q-13 0 -11 13zM178 582
q-12 0 -8 13q11 41 34 62t53 21q17 0 30.5 -7t30.5 -26q13 -14 22 -20t20 -6q19 0 32 12t22 39q3 8 12 8h13q11 0 8 -12q-26 -83 -88 -83q-18 0 -32 7.5t-30 25.5q-13 14 -22 20t-20 6q-35 0 -53 -51q-3 -9 -12 -9h-12z" />
    <glyph glyph-name="ograve" unicode="&#xf2;" horiz-adv-x="472" 
d="M270 503q78 0 119 -36.5t41 -106.5q0 -11 -1 -22t-3 -22l-23 -144q-14 -92 -63.5 -138t-137.5 -46q-77 0 -118.5 36.5t-41.5 108.5q0 10 1 21t3 22l22 143q29 184 202 184zM205 25q72 0 109 38.5t50 121.5l20 124q4 23 4 46q0 57 -30 84t-90 27q-72 0 -109.5 -39
t-50.5 -120l-19 -124q-2 -13 -3 -24.5t-1 -22.5q0 -57 30 -84t90 -27zM288 567q-9 0 -13 8l-68 124q-4 6 -1.5 10t9.5 4h18q9 0 14 -9l62 -124q6 -13 -8 -13h-13z" />
    <glyph glyph-name="oacute" unicode="&#xf3;" horiz-adv-x="472" 
d="M270 503q78 0 119 -36.5t41 -106.5q0 -11 -1 -22t-3 -22l-23 -144q-14 -92 -63.5 -138t-137.5 -46q-77 0 -118.5 36.5t-41.5 108.5q0 10 1 21t3 22l22 143q29 184 202 184zM205 25q72 0 109 38.5t50 121.5l20 124q4 23 4 46q0 57 -30 84t-90 27q-72 0 -109.5 -39
t-50.5 -120l-19 -124q-2 -13 -3 -24.5t-1 -22.5q0 -57 30 -84t90 -27zM302 573q-5 -6 -13 -6h-18q-7 0 -9 4t3 9l103 126q6 7 15 7h21q8 0 9.5 -4.5t-3.5 -10.5z" />
    <glyph glyph-name="ocircumflex" unicode="&#xf4;" horiz-adv-x="472" 
d="M270 503q78 0 119 -36.5t41 -106.5q0 -11 -1 -22t-3 -22l-23 -144q-14 -92 -63.5 -138t-137.5 -46q-77 0 -118.5 36.5t-41.5 108.5q0 10 1 21t3 22l22 143q29 184 202 184zM205 25q72 0 109 38.5t50 121.5l20 124q4 23 4 46q0 57 -30 84t-90 27q-72 0 -109.5 -39
t-50.5 -120l-19 -124q-2 -13 -3 -24.5t-1 -22.5q0 -57 30 -84t90 -27zM214 573q-5 -6 -13 -6h-16q-8 0 -10 4t3 9l107 126q6 7 15 7h17q9 0 15 -9l65 -124q6 -13 -8 -13h-12q-9 0 -13 8l-58 104z" />
    <glyph glyph-name="otilde" unicode="&#xf5;" horiz-adv-x="472" 
d="M270 503q78 0 119 -36.5t41 -106.5q0 -11 -1 -22t-3 -22l-23 -144q-14 -92 -63.5 -138t-137.5 -46q-77 0 -118.5 36.5t-41.5 108.5q0 10 1 21t3 22l22 143q29 184 202 184zM205 25q72 0 109 38.5t50 121.5l20 124q4 23 4 46q0 57 -30 84t-90 27q-72 0 -109.5 -39
t-50.5 -120l-19 -124q-2 -13 -3 -24.5t-1 -22.5q0 -57 30 -84t90 -27zM166 582q-12 0 -8 13q11 41 34 62t53 21q17 0 30.5 -7t30.5 -26q13 -14 22 -20t20 -6q19 0 32 12t22 39q3 8 12 8h13q11 0 8 -12q-26 -83 -88 -83q-18 0 -32 7.5t-30 25.5q-13 14 -22 20t-20 6
q-35 0 -53 -51q-3 -9 -12 -9h-12z" />
    <glyph glyph-name="odieresis" unicode="&#xf6;" horiz-adv-x="472" 
d="M270 503q78 0 119 -36.5t41 -106.5q0 -11 -1 -22t-3 -22l-23 -144q-14 -92 -63.5 -138t-137.5 -46q-77 0 -118.5 36.5t-41.5 108.5q0 10 1 21t3 22l22 143q29 184 202 184zM205 25q72 0 109 38.5t50 121.5l20 124q4 23 4 46q0 57 -30 84t-90 27q-72 0 -109.5 -39
t-50.5 -120l-19 -124q-2 -13 -3 -24.5t-1 -22.5q0 -57 30 -84t90 -27zM216 599q-13 0 -20.5 8.5t-7.5 20.5q0 15 9.5 25.5t24.5 10.5q13 0 21 -8.5t8 -21.5q0 -14 -10 -24.5t-25 -10.5zM371 599q-13 0 -20.5 8.5t-7.5 20.5q0 15 9.5 25.5t24.5 10.5q13 0 21 -8.5t8 -21.5
q0 -14 -10 -24.5t-25 -10.5z" />
    <glyph glyph-name="divide" unicode="&#xf7;" horiz-adv-x="528" 
d="M298 444q-13 0 -21.5 8.5t-8.5 22.5q0 15 10.5 25.5t26.5 10.5q14 0 22 -8t8 -21q0 -16 -10.5 -27t-26.5 -11zM37 260q-13 0 -11 13l2 14q2 11 13 11h462q13 0 11 -13l-2 -14q-2 -11 -13 -11h-462zM236 47q-13 0 -21.5 8.5t-8.5 22.5q0 15 10.5 25.5t26.5 10.5
q14 0 22 -8t8 -21q0 -16 -10.5 -27t-26.5 -11z" />
    <glyph glyph-name="oslash" unicode="&#xf8;" horiz-adv-x="472" 
d="M446 487q7 -7 1 -15l-33 -39q16 -29 16 -73q0 -11 -1 -22t-3 -22l-23 -144q-14 -92 -63.5 -138t-137.5 -46q-82 0 -123 41l-27 -32q-7 -7 -15 -1l-11 9q-7 7 -1 15l33 39q-16 31 -16 74q0 10 1 21t3 22l22 143q29 184 202 184q82 0 123 -41l27 32q7 8 15 2zM85 136
q0 -22 4 -38h1l276 332q-29 36 -98 36q-72 0 -109.5 -39t-50.5 -120l-19 -124q-2 -13 -3 -24.5t-1 -22.5zM388 355q0 23 -4 40h-1l-277 -333q28 -37 99 -37q72 0 109 38.5t50 121.5l20 124q4 23 4 46z" />
    <glyph glyph-name="ugrave" unicode="&#xf9;" horiz-adv-x="490" 
d="M405 166q-14 -89 -61.5 -133.5t-132.5 -44.5q-75 0 -114.5 35.5t-39.5 104.5q0 18 3 41l50 311q2 11 13 11h17q13 0 11 -13l-48 -303q-2 -12 -3 -23t-1 -21q0 -55 29 -80.5t86 -25.5q68 0 103.5 37t48.5 115l49 303q2 11 13 11h16q13 0 11 -13zM297 567q-9 0 -13 8
l-68 124q-4 6 -1.5 10t9.5 4h18q9 0 14 -9l62 -124q6 -13 -8 -13h-13z" />
    <glyph glyph-name="uacute" unicode="&#xfa;" horiz-adv-x="490" 
d="M405 166q-14 -89 -61.5 -133.5t-132.5 -44.5q-75 0 -114.5 35.5t-39.5 104.5q0 18 3 41l50 311q2 11 13 11h17q13 0 11 -13l-48 -303q-2 -12 -3 -23t-1 -21q0 -55 29 -80.5t86 -25.5q68 0 103.5 37t48.5 115l49 303q2 11 13 11h16q13 0 11 -13zM311 573q-5 -6 -13 -6h-18
q-7 0 -9 4t3 9l103 126q6 7 15 7h21q8 0 9.5 -4.5t-3.5 -10.5z" />
    <glyph glyph-name="ucircumflex" unicode="&#xfb;" horiz-adv-x="490" 
d="M405 166q-14 -89 -61.5 -133.5t-132.5 -44.5q-75 0 -114.5 35.5t-39.5 104.5q0 18 3 41l50 311q2 11 13 11h17q13 0 11 -13l-48 -303q-2 -12 -3 -23t-1 -21q0 -55 29 -80.5t86 -25.5q68 0 103.5 37t48.5 115l49 303q2 11 13 11h16q13 0 11 -13zM223 573q-5 -6 -13 -6h-16
q-8 0 -10 4t3 9l107 126q6 7 15 7h17q9 0 15 -9l65 -124q6 -13 -8 -13h-12q-9 0 -13 8l-58 104z" />
    <glyph glyph-name="udieresis" unicode="&#xfc;" horiz-adv-x="490" 
d="M405 166q-14 -89 -61.5 -133.5t-132.5 -44.5q-75 0 -114.5 35.5t-39.5 104.5q0 18 3 41l50 311q2 11 13 11h17q13 0 11 -13l-48 -303q-2 -12 -3 -23t-1 -21q0 -55 29 -80.5t86 -25.5q68 0 103.5 37t48.5 115l49 303q2 11 13 11h16q13 0 11 -13zM225 599q-13 0 -20.5 8.5
t-7.5 20.5q0 15 9.5 25.5t24.5 10.5q13 0 21 -8.5t8 -21.5q0 -14 -10 -24.5t-25 -10.5zM380 599q-13 0 -20.5 8.5t-7.5 20.5q0 15 9.5 25.5t24.5 10.5q13 0 21 -8.5t8 -21.5q0 -14 -10 -24.5t-25 -10.5z" />
    <glyph glyph-name="yacute" unicode="&#xfd;" horiz-adv-x="501" 
d="M384 -4q-13 -79 -63.5 -123.5t-132.5 -44.5q-49 0 -89 15t-68 45q-7 9 1 17l10 11q9 9 17 -1q47 -50 130 -50q67 0 106 37t50 106l10 61h-1q-45 -68 -143 -68q-74 0 -113 35t-39 104q0 11 1 22t3 23l47 295q2 11 13 11h17q13 0 11 -13l-46 -286q-2 -12 -3 -23t-1 -21
q0 -57 29.5 -83.5t88.5 -26.5q68 0 106 39t50 117l45 286q2 11 13 11h17q13 0 11 -13zM314 573q-5 -6 -13 -6h-18q-7 0 -9 4t3 9l103 126q6 7 15 7h21q8 0 9.5 -4.5t-3.5 -10.5z" />
    <glyph glyph-name="thorn" unicode="&#xfe;" horiz-adv-x="493" 
d="M296 503q75 0 115 -36.5t40 -106.5q0 -22 -4 -45l-23 -142q-29 -185 -198 -185q-106 0 -133 77h-1l-34 -214q-2 -11 -13 -11h-17q-13 0 -11 13l131 836q2 11 13 11h17q13 0 11 -13l-41 -256h1q46 72 147 72zM405 308q4 23 4 46q0 58 -30 85t-90 27q-69 0 -108 -39.5
t-52 -120.5l-19 -123q-2 -12 -3 -23t-1 -22q0 -57 30.5 -85t89.5 -28q72 0 109 39t50 121z" />
    <glyph glyph-name="ydieresis" unicode="&#xff;" horiz-adv-x="501" 
d="M384 -4q-13 -79 -63.5 -123.5t-132.5 -44.5q-49 0 -89 15t-68 45q-7 9 1 17l10 11q9 9 17 -1q47 -50 130 -50q67 0 106 37t50 106l10 61h-1q-45 -68 -143 -68q-74 0 -113 35t-39 104q0 11 1 22t3 23l47 295q2 11 13 11h17q13 0 11 -13l-46 -286q-2 -12 -3 -23t-1 -21
q0 -57 29.5 -83.5t88.5 -26.5q68 0 106 39t50 117l45 286q2 11 13 11h17q13 0 11 -13zM228 599q-13 0 -20.5 8.5t-7.5 20.5q0 15 9.5 25.5t24.5 10.5q13 0 21 -8.5t8 -21.5q0 -14 -10 -24.5t-25 -10.5zM383 599q-13 0 -20.5 8.5t-7.5 20.5q0 15 9.5 25.5t24.5 10.5
q13 0 21 -8.5t8 -21.5q0 -14 -10 -24.5t-25 -10.5z" />
    <glyph glyph-name="Amacron" unicode="&#x100;" horiz-adv-x="577" 
d="M41 10q-5 -10 -15 -10h-22q-16 0 -9 14l334 641q4 9 14 9h23q11 0 13 -11l129 -639q3 -14 -10 -14h-19q-11 0 -13 11l-28 142h-324zM430 192l-82 416h-1l-213 -416h296zM496 788q-2 -11 -13 -11h-223q-13 0 -11 13l2 12q2 11 12 11h224q13 0 11 -13z" />
    <glyph glyph-name="amacron" unicode="&#x101;" horiz-adv-x="451" 
d="M251 503q77 0 118 -36.5t41 -108.5q0 -11 -1 -21.5t-3 -22.5l-23 -141q-14 -92 -63.5 -138.5t-140.5 -46.5q-73 0 -113 33.5t-40 93.5q0 78 50 121t146 43h137l4 28q4 23 4 46q0 59 -30 86t-91 27q-35 0 -65.5 -14.5t-56.5 -37.5q-9 -9 -17 1l-10 13q-8 9 2 17
q33 30 70 44t82 14zM182 25q73 0 110.5 38.5t51.5 121.5l9 57h-129q-75 0 -116 -32.5t-41 -93.5q0 -45 29.5 -68t85.5 -23zM412 621q-2 -11 -13 -11h-223q-13 0 -11 13l2 12q2 11 12 11h224q13 0 11 -13z" />
    <glyph glyph-name="Abreve" unicode="&#x102;" horiz-adv-x="577" 
d="M41 10q-5 -10 -15 -10h-22q-16 0 -9 14l334 641q4 9 14 9h23q11 0 13 -11l129 -639q3 -14 -10 -14h-19q-11 0 -13 11l-28 142h-324zM430 192l-82 416h-1l-213 -416h296zM489 856q13 0 10 -12q-13 -44 -46.5 -68t-79.5 -24q-48 0 -76 24.5t-30 68.5q0 11 11 11h10
q9 0 11 -11q3 -27 22 -42.5t51 -15.5q33 0 58 15.5t36 44.5q3 9 13 9h10z" />
    <glyph glyph-name="abreve" unicode="&#x103;" horiz-adv-x="451" 
d="M251 503q77 0 118 -36.5t41 -108.5q0 -11 -1 -21.5t-3 -22.5l-23 -141q-14 -92 -63.5 -138.5t-140.5 -46.5q-73 0 -113 33.5t-40 93.5q0 78 50 121t146 43h137l4 28q4 23 4 46q0 59 -30 86t-91 27q-35 0 -65.5 -14.5t-56.5 -37.5q-9 -9 -17 1l-10 13q-8 9 2 17
q33 30 70 44t82 14zM182 25q73 0 110.5 38.5t51.5 121.5l9 57h-129q-75 0 -116 -32.5t-41 -93.5q0 -45 29.5 -68t85.5 -23zM405 689q13 0 10 -12q-13 -44 -46.5 -68t-79.5 -24q-48 0 -76 24.5t-30 68.5q0 11 11 11h10q9 0 11 -11q3 -27 22 -42.5t51 -15.5q33 0 58 15.5
t36 44.5q3 9 13 9h10z" />
    <glyph glyph-name="Aogonek" unicode="&#x104;" horiz-adv-x="577" 
d="M494 0q-102 -40 -102 -102q0 -17 10.5 -28t27.5 -11q16 0 28.5 5.5t23.5 16.5q9 8 16 -2l5 -7q2 -4 2.5 -8t-4.5 -8q-16 -14 -33.5 -21t-40.5 -7q-31 0 -51 17.5t-20 46.5q0 36 28.5 70.5t80.5 54.5l-27 136h-324l-73 -143q-5 -10 -15 -10h-22q-16 0 -9 14l334 641
q4 9 14 9h23q11 0 13 -11l129 -639q3 -14 -10 -14h-4zM134 192h296l-82 416h-1z" />
    <glyph glyph-name="aogonek" unicode="&#x105;" horiz-adv-x="451" 
d="M251 503q77 0 118 -36.5t41 -108.5q0 -11 -1 -21.5t-3 -22.5l-23 -141q-11 -66 -38 -107t-74 -63q-45 -20 -67.5 -47.5t-22.5 -56.5q0 -17 11.5 -28.5t30.5 -11.5q13 0 25.5 6t23.5 16q9 8 15 -1l7 -9q6 -8 -2 -15q-15 -13 -32 -20.5t-40 -7.5q-33 0 -53 18t-20 48
q0 52 50 94v1q-4 -1 -8.5 -1h-9.5q-73 0 -113 33.5t-40 93.5q0 78 50 121t146 43h137l4 28q4 23 4 46q0 59 -30 86t-91 27q-35 0 -65.5 -14.5t-56.5 -37.5q-9 -9 -17 1l-10 13q-8 9 2 17q33 30 70 44t82 14zM224 242q-75 0 -116 -32.5t-41 -93.5q0 -45 29.5 -68t85.5 -23
q73 0 110.5 38.5t51.5 121.5l9 57h-129z" />
    <glyph glyph-name="Cacute" unicode="&#x106;" horiz-adv-x="534" 
d="M104 237q-3 -17 -4 -32.5t-1 -29.5q0 -148 155 -148q65 0 109.5 26.5t76.5 79.5q7 12 17 5l16 -9q9 -6 3 -16q-39 -64 -93.5 -94.5t-131.5 -30.5q-96 0 -146 46t-50 136q0 14 1.5 29t3.5 31l33 208q38 238 257 238q155 0 194 -127q3 -11 -7 -15l-16 -5q-13 -5 -16 8
q-32 100 -158 100q-93 0 -145 -52.5t-69 -159.5zM376 740q-5 -6 -13 -6h-18q-7 0 -9 4t3 9l103 126q6 7 15 7h21q8 0 9.5 -4.5t-3.5 -10.5z" />
    <glyph glyph-name="cacute" unicode="&#x107;" horiz-adv-x="412" 
d="M352 65q7 -9 -1 -17q-63 -60 -148 -60q-77 0 -118.5 36.5t-41.5 108.5q0 11 1 22t3 23l21 140q27 185 201 185q89 0 136 -52q7 -9 -1 -17l-11 -10q-10 -8 -18 1q-37 41 -107 41q-71 0 -109 -39t-51 -122l-19 -121q-4 -23 -4 -46q0 -59 31.5 -86t92.5 -27q34 0 62.5 12.5
t55.5 38.5q9 9 17 -1zM292 573q-5 -6 -13 -6h-18q-7 0 -9 4t3 9l103 126q6 7 15 7h21q8 0 9.5 -4.5t-3.5 -10.5z" />
    <glyph glyph-name="Ccircumflex" unicode="&#x108;" horiz-adv-x="534" 
d="M104 237q-3 -17 -4 -32.5t-1 -29.5q0 -148 155 -148q65 0 109.5 26.5t76.5 79.5q7 12 17 5l16 -9q9 -6 3 -16q-39 -64 -93.5 -94.5t-131.5 -30.5q-96 0 -146 46t-50 136q0 14 1.5 29t3.5 31l33 208q38 238 257 238q155 0 194 -127q3 -11 -7 -15l-16 -5q-13 -5 -16 8
q-32 100 -158 100q-93 0 -145 -52.5t-69 -159.5zM288 740q-5 -6 -13 -6h-16q-8 0 -10 4t3 9l107 126q6 7 15 7h17q9 0 15 -9l65 -124q6 -13 -8 -13h-12q-9 0 -13 8l-58 104z" />
    <glyph glyph-name="ccircumflex" unicode="&#x109;" horiz-adv-x="412" 
d="M352 65q7 -9 -1 -17q-63 -60 -148 -60q-77 0 -118.5 36.5t-41.5 108.5q0 11 1 22t3 23l21 140q27 185 201 185q89 0 136 -52q7 -9 -1 -17l-11 -10q-10 -8 -18 1q-37 41 -107 41q-71 0 -109 -39t-51 -122l-19 -121q-4 -23 -4 -46q0 -59 31.5 -86t92.5 -27q34 0 62.5 12.5
t55.5 38.5q9 9 17 -1zM204 573q-5 -6 -13 -6h-16q-8 0 -10 4t3 9l107 126q6 7 15 7h17q9 0 15 -9l65 -124q6 -13 -8 -13h-12q-9 0 -13 8l-58 104z" />
    <glyph glyph-name="Cdotaccent" unicode="&#x10a;" horiz-adv-x="534" 
d="M104 237q-3 -17 -4 -32.5t-1 -29.5q0 -148 155 -148q65 0 109.5 26.5t76.5 79.5q7 12 17 5l16 -9q9 -6 3 -16q-39 -64 -93.5 -94.5t-131.5 -30.5q-96 0 -146 46t-50 136q0 14 1.5 29t3.5 31l33 208q38 238 257 238q155 0 194 -127q3 -11 -7 -15l-16 -5q-13 -5 -16 8
q-32 100 -158 100q-93 0 -145 -52.5t-69 -159.5zM368 765q-14 0 -22.5 8.5t-8.5 20.5q0 17 10.5 27t25.5 10q14 0 22.5 -8t8.5 -20q0 -17 -10.5 -27.5t-25.5 -10.5z" />
    <glyph glyph-name="cdotaccent" unicode="&#x10b;" horiz-adv-x="412" 
d="M352 65q7 -9 -1 -17q-63 -60 -148 -60q-77 0 -118.5 36.5t-41.5 108.5q0 11 1 22t3 23l21 140q27 185 201 185q89 0 136 -52q7 -9 -1 -17l-11 -10q-10 -8 -18 1q-37 41 -107 41q-71 0 -109 -39t-51 -122l-19 -121q-4 -23 -4 -46q0 -59 31.5 -86t92.5 -27q34 0 62.5 12.5
t55.5 38.5q9 9 17 -1zM284 598q-14 0 -22.5 8.5t-8.5 20.5q0 17 10.5 27t25.5 10q14 0 22.5 -8t8.5 -20q0 -17 -10.5 -27.5t-25.5 -10.5z" />
    <glyph glyph-name="Ccaron" unicode="&#x10c;" horiz-adv-x="534" 
d="M104 237q-3 -17 -4 -32.5t-1 -29.5q0 -148 155 -148q65 0 109.5 26.5t76.5 79.5q7 12 17 5l16 -9q9 -6 3 -16q-39 -64 -93.5 -94.5t-131.5 -30.5q-96 0 -146 46t-50 136q0 14 1.5 29t3.5 31l33 208q38 238 257 238q155 0 194 -127q3 -11 -7 -15l-16 -5q-13 -5 -16 8
q-32 100 -158 100q-93 0 -145 -52.5t-69 -159.5zM352 734q-9 0 -15 9l-65 124q-7 13 8 13h12q9 0 13 -8l58 -104l92 106q4 6 13 6h16q8 0 10 -4t-3 -9l-107 -126q-6 -7 -15 -7h-17z" />
    <glyph glyph-name="ccaron" unicode="&#x10d;" horiz-adv-x="412" 
d="M352 65q7 -9 -1 -17q-63 -60 -148 -60q-77 0 -118.5 36.5t-41.5 108.5q0 11 1 22t3 23l21 140q27 185 201 185q89 0 136 -52q7 -9 -1 -17l-11 -10q-10 -8 -18 1q-37 41 -107 41q-71 0 -109 -39t-51 -122l-19 -121q-4 -23 -4 -46q0 -59 31.5 -86t92.5 -27q34 0 62.5 12.5
t55.5 38.5q9 9 17 -1zM268 567q-9 0 -15 9l-65 124q-7 13 8 13h12q9 0 13 -8l58 -104l92 106q4 6 13 6h16q8 0 10 -4t-3 -9l-107 -126q-6 -7 -15 -7h-17z" />
    <glyph glyph-name="Dcaron" unicode="&#x10e;" horiz-adv-x="590" 
d="M363 664q99 0 149.5 -43.5t50.5 -129.5q0 -13 -1.5 -26.5t-3.5 -28.5l-34 -211q-18 -113 -82.5 -169t-179.5 -56h-199q-13 0 -11 13l101 640q2 11 13 11h197zM513 428q2 15 3.5 28.5t1.5 26.5q0 142 -159 142h-167l-93 -586h164q95 0 149.5 48.5t70.5 150.5zM350 734
q-9 0 -15 9l-65 124q-7 13 8 13h12q9 0 13 -8l58 -104l92 106q4 6 13 6h16q8 0 10 -4t-3 -9l-107 -126q-6 -7 -15 -7h-17z" />
    <glyph glyph-name="dcaron" unicode="&#x10f;" horiz-adv-x="487" 
d="M403 173q-14 -92 -63.5 -138.5t-137.5 -46.5q-77 0 -118.5 37t-41.5 108q0 10 1 21t3 22l22 143q29 184 201 184q104 0 133 -76h1l41 262q2 11 13 11h17q13 0 11 -13zM205 25q72 0 109.5 38.5t50.5 121.5l20 124q2 12 3 22.5t1 20.5q0 114 -119 114q-72 0 -110.5 -39
t-51.5 -120l-19 -124q-2 -13 -3 -24.5t-1 -22.5q0 -57 30 -84t90 -27zM544 525q-3 -9 -13 -9h-8q-12 0 -9 12l46 162q3 10 14 10h13q6 0 9 -3.5t1 -10.5z" />
    <glyph glyph-name="Dcroat" unicode="&#x110;" horiz-adv-x="599" 
d="M372 664q99 0 149.5 -43.5t50.5 -129.5q0 -13 -1.5 -26.5t-3.5 -28.5l-34 -211q-18 -113 -82.5 -169t-179.5 -56h-199q-13 0 -11 13l48 303h-60q-13 0 -11 13l3 15q2 11 13 11h61l47 298q2 11 13 11h197zM522 428q2 15 3.5 28.5t1.5 26.5q0 142 -159 142h-167l-43 -270
h157q13 0 11 -13l-3 -15q-2 -11 -13 -11h-158l-44 -277h164q95 0 149.5 48.5t70.5 150.5z" />
    <glyph glyph-name="dcroat" unicode="&#x111;" horiz-adv-x="489" 
d="M530 605q12 0 10 -13l-2 -12q-2 -11 -13 -11h-59l-63 -396q-14 -92 -63.5 -138.5t-137.5 -46.5q-77 0 -118.5 37t-41.5 108q0 10 1 21t3 22l22 143q29 184 201 184q104 0 133 -76h1l22 142h-146q-12 0 -10 13l2 12q2 11 13 11h147l13 84q2 11 13 11h17q13 0 11 -13
l-13 -82h58zM385 309q2 12 3 22.5t1 20.5q0 114 -119 114q-72 0 -110.5 -39t-51.5 -120l-19 -124q-2 -13 -3 -24.5t-1 -22.5q0 -57 30 -84t90 -27q72 0 109.5 38.5t50.5 121.5z" />
    <glyph glyph-name="Emacron" unicode="&#x112;" horiz-adv-x="537" 
d="M451 355q13 0 11 -13l-3 -15q-2 -11 -13 -11h-303l-44 -277h345q13 0 11 -13l-2 -15q-2 -11 -12 -11h-378q-13 0 -11 13l101 640q2 11 13 11h378q13 0 11 -13l-2 -15q-2 -11 -13 -11h-348l-43 -270h302zM497 788q-2 -11 -13 -11h-223q-13 0 -11 13l2 12q2 11 12 11h224
q13 0 11 -13z" />
    <glyph glyph-name="emacron" unicode="&#x113;" horiz-adv-x="452" 
d="M267 503q76 0 116.5 -36t40.5 -107q0 -21 -4 -44l-12 -73q-2 -11 -13 -11h-299l-7 -48q-2 -12 -3 -23t-1 -22q0 -60 33 -87t99 -27q35 0 64 14t57 43q9 10 18 1l10 -11q8 -9 0 -17q-66 -67 -154 -67q-81 0 -125 36t-44 108q0 11 1 22t3 23l21 142q27 184 199 184z
M265 467q-70 0 -107 -38.5t-50 -121.5l-6 -38h270l7 40q2 13 3 24.5t1 22.5q0 58 -29 84.5t-89 26.5zM416 621q-2 -11 -13 -11h-223q-13 0 -11 13l2 12q2 11 12 11h224q13 0 11 -13z" />
    <glyph glyph-name="Ebreve" unicode="&#x114;" horiz-adv-x="537" 
d="M451 355q13 0 11 -13l-3 -15q-2 -11 -13 -11h-303l-44 -277h345q13 0 11 -13l-2 -15q-2 -11 -12 -11h-378q-13 0 -11 13l101 640q2 11 13 11h378q13 0 11 -13l-2 -15q-2 -11 -13 -11h-348l-43 -270h302zM490 856q13 0 10 -12q-13 -44 -46.5 -68t-79.5 -24q-48 0 -76 24.5
t-30 68.5q0 11 11 11h10q9 0 11 -11q3 -27 22 -42.5t51 -15.5q33 0 58 15.5t36 44.5q3 9 13 9h10z" />
    <glyph glyph-name="ebreve" unicode="&#x115;" horiz-adv-x="452" 
d="M267 503q76 0 116.5 -36t40.5 -107q0 -21 -4 -44l-12 -73q-2 -11 -13 -11h-299l-7 -48q-2 -12 -3 -23t-1 -22q0 -60 33 -87t99 -27q35 0 64 14t57 43q9 10 18 1l10 -11q8 -9 0 -17q-66 -67 -154 -67q-81 0 -125 36t-44 108q0 11 1 22t3 23l21 142q27 184 199 184z
M265 467q-70 0 -107 -38.5t-50 -121.5l-6 -38h270l7 40q2 13 3 24.5t1 22.5q0 58 -29 84.5t-89 26.5zM409 689q13 0 10 -12q-13 -44 -46.5 -68t-79.5 -24q-48 0 -76 24.5t-30 68.5q0 11 11 11h10q9 0 11 -11q3 -27 22 -42.5t51 -15.5q33 0 58 15.5t36 44.5q3 9 13 9h10z" />
    <glyph glyph-name="Edotaccent" unicode="&#x116;" horiz-adv-x="537" 
d="M451 355q13 0 11 -13l-3 -15q-2 -11 -13 -11h-303l-44 -277h345q13 0 11 -13l-2 -15q-2 -11 -12 -11h-378q-13 0 -11 13l101 640q2 11 13 11h378q13 0 11 -13l-2 -15q-2 -11 -13 -11h-348l-43 -270h302zM374 765q-14 0 -22.5 8.5t-8.5 20.5q0 17 10.5 27t25.5 10
q14 0 22.5 -8t8.5 -20q0 -17 -10.5 -27.5t-25.5 -10.5z" />
    <glyph glyph-name="edotaccent" unicode="&#x117;" horiz-adv-x="452" 
d="M267 503q76 0 116.5 -36t40.5 -107q0 -21 -4 -44l-12 -73q-2 -11 -13 -11h-299l-7 -48q-2 -12 -3 -23t-1 -22q0 -60 33 -87t99 -27q35 0 64 14t57 43q9 10 18 1l10 -11q8 -9 0 -17q-66 -67 -154 -67q-81 0 -125 36t-44 108q0 11 1 22t3 23l21 142q27 184 199 184z
M265 467q-70 0 -107 -38.5t-50 -121.5l-6 -38h270l7 40q2 13 3 24.5t1 22.5q0 58 -29 84.5t-89 26.5zM293 598q-14 0 -22.5 8.5t-8.5 20.5q0 17 10.5 27t25.5 10q14 0 22.5 -8t8.5 -20q0 -17 -10.5 -27.5t-25.5 -10.5z" />
    <glyph glyph-name="Eogonek" unicode="&#x118;" horiz-adv-x="537" 
d="M544 664q13 0 11 -13l-2 -15q-2 -11 -13 -11h-348l-43 -270h302q13 0 11 -13l-3 -15q-2 -11 -13 -11h-303l-44 -277h345q13 0 11 -13l-2 -15q-2 -11 -12 -11h-11q-51 -17 -81.5 -44.5t-30.5 -58.5q0 -17 11 -27.5t28 -10.5q16 0 28.5 5.5t23.5 16.5q8 7 16 -2l6 -8
q6 -8 -3 -15q-16 -14 -34 -21t-41 -7q-29 0 -49.5 16.5t-20.5 45.5q0 31 20 59.5t60 49.5v1h-300q-13 0 -11 13l101 640q2 11 13 11h378z" />
    <glyph glyph-name="eogonek" unicode="&#x119;" horiz-adv-x="452" 
d="M267 503q76 0 116.5 -36t40.5 -107q0 -11 -1 -21.5t-3 -22.5l-12 -73q-2 -11 -13 -11h-299l-7 -48q-2 -14 -3 -24t-1 -21q0 -60 33 -87t99 -27q35 0 64 14t57 43q9 10 18 1l10 -11q8 -9 0 -17q-17 -17 -34 -29t-36 -21q-45 -22 -68 -49.5t-23 -56.5q0 -17 11.5 -28.5
t30.5 -11.5q13 0 25.5 6t23.5 16q9 8 15 -1l7 -9q6 -7 -2 -15q-15 -13 -32 -20.5t-40 -7.5q-33 0 -53 18t-20 48q0 26 13 49t37 44v1h-9q-81 0 -125 36t-44 108q0 22 4 45l21 142q27 184 199 184zM379 309q2 13 3 24.5t1 22.5q0 58 -29 84.5t-89 26.5q-70 0 -107 -38.5
t-50 -121.5l-6 -38h270z" />
    <glyph glyph-name="Ecaron" unicode="&#x11a;" horiz-adv-x="537" 
d="M451 355q13 0 11 -13l-3 -15q-2 -11 -13 -11h-303l-44 -277h345q13 0 11 -13l-2 -15q-2 -11 -12 -11h-378q-13 0 -11 13l101 640q2 11 13 11h378q13 0 11 -13l-2 -15q-2 -11 -13 -11h-348l-43 -270h302zM358 734q-9 0 -15 9l-65 124q-7 13 8 13h12q9 0 13 -8l58 -104
l92 106q4 6 13 6h16q8 0 10 -4t-3 -9l-107 -126q-6 -7 -15 -7h-17z" />
    <glyph glyph-name="ecaron" unicode="&#x11b;" horiz-adv-x="452" 
d="M267 503q76 0 116.5 -36t40.5 -107q0 -21 -4 -44l-12 -73q-2 -11 -13 -11h-299l-7 -48q-2 -12 -3 -23t-1 -22q0 -60 33 -87t99 -27q35 0 64 14t57 43q9 10 18 1l10 -11q8 -9 0 -17q-66 -67 -154 -67q-81 0 -125 36t-44 108q0 11 1 22t3 23l21 142q27 184 199 184z
M265 467q-70 0 -107 -38.5t-50 -121.5l-6 -38h270l7 40q2 13 3 24.5t1 22.5q0 58 -29 84.5t-89 26.5zM277 567q-9 0 -15 9l-65 124q-7 13 8 13h12q9 0 13 -8l58 -104l92 106q4 6 13 6h16q8 0 10 -4t-3 -9l-107 -126q-6 -7 -15 -7h-17z" />
    <glyph glyph-name="Gcircumflex" unicode="&#x11c;" horiz-adv-x="570" 
d="M513 227q-20 -119 -81.5 -179t-174.5 -60q-98 0 -150 46.5t-52 137.5q0 14 1.5 28.5t3.5 29.5l33 208q19 118 83 178t177 60q78 0 128.5 -31.5t70.5 -95.5q3 -11 -7 -15l-15 -6q-12 -5 -17 8q-33 101 -162 101q-95 0 -148 -52t-70 -161l-29 -186q-2 -16 -3.5 -30.5
t-1.5 -28.5q0 -152 161 -152q96 0 145.5 52.5t68.5 161.5l10 57h-162q-13 0 -11 13l2 15q2 11 13 11h192q13 0 11 -13zM290 740q-5 -6 -13 -6h-16q-8 0 -10 4t3 9l107 126q6 7 15 7h17q9 0 15 -9l65 -124q6 -13 -8 -13h-12q-9 0 -13 8l-58 104z" />
    <glyph glyph-name="gcircumflex" unicode="&#x11d;" horiz-adv-x="487" 
d="M270 503q78 0 119 -37t41 -108q0 -11 -1 -22t-3 -22l-50 -318q-13 -79 -64 -123.5t-133 -44.5q-100 0 -156 60q-9 8 0 17l10 10q8 8 17 -1q47 -50 131 -50q66 0 105.5 37.5t50.5 106.5l10 63h-1q-47 -70 -146 -70q-75 0 -115 36.5t-40 105.5q0 11 1 22.5t3 23.5l20 128
q14 92 63.5 139t137.5 47zM385 308q4 23 4 46q0 58 -30.5 85t-90.5 27q-72 0 -109.5 -39t-50.5 -121l-17 -110q-2 -13 -3 -24.5t-1 -22.5q0 -57 30 -84t90 -27q70 0 109 39.5t51 120.5zM214 573q-5 -6 -13 -6h-16q-8 0 -10 4t3 9l107 126q6 7 15 7h17q9 0 15 -9l65 -124
q6 -13 -8 -13h-12q-9 0 -13 8l-58 104z" />
    <glyph glyph-name="Gbreve" unicode="&#x11e;" horiz-adv-x="570" 
d="M513 227q-20 -119 -81.5 -179t-174.5 -60q-98 0 -150 46.5t-52 137.5q0 14 1.5 28.5t3.5 29.5l33 208q19 118 83 178t177 60q78 0 128.5 -31.5t70.5 -95.5q3 -11 -7 -15l-15 -6q-12 -5 -17 8q-33 101 -162 101q-95 0 -148 -52t-70 -161l-29 -186q-2 -16 -3.5 -30.5
t-1.5 -28.5q0 -152 161 -152q96 0 145.5 52.5t68.5 161.5l10 57h-162q-13 0 -11 13l2 15q2 11 13 11h192q13 0 11 -13zM486 856q13 0 10 -12q-13 -44 -46.5 -68t-79.5 -24q-48 0 -76 24.5t-30 68.5q0 11 11 11h10q9 0 11 -11q3 -27 22 -42.5t51 -15.5q33 0 58 15.5t36 44.5
q3 9 13 9h10z" />
    <glyph glyph-name="gbreve" unicode="&#x11f;" horiz-adv-x="487" 
d="M270 503q78 0 119 -37t41 -108q0 -11 -1 -22t-3 -22l-50 -318q-13 -79 -64 -123.5t-133 -44.5q-100 0 -156 60q-9 8 0 17l10 10q8 8 17 -1q47 -50 131 -50q66 0 105.5 37.5t50.5 106.5l10 63h-1q-47 -70 -146 -70q-75 0 -115 36.5t-40 105.5q0 11 1 22.5t3 23.5l20 128
q14 92 63.5 139t137.5 47zM385 308q4 23 4 46q0 58 -30.5 85t-90.5 27q-72 0 -109.5 -39t-50.5 -121l-17 -110q-2 -13 -3 -24.5t-1 -22.5q0 -57 30 -84t90 -27q70 0 109 39.5t51 120.5zM410 689q13 0 10 -12q-13 -44 -46.5 -68t-79.5 -24q-48 0 -76 24.5t-30 68.5
q0 11 11 11h10q9 0 11 -11q3 -27 22 -42.5t51 -15.5q33 0 58 15.5t36 44.5q3 9 13 9h10z" />
    <glyph glyph-name="Gdotaccent" unicode="&#x120;" horiz-adv-x="570" 
d="M513 227q-20 -119 -81.5 -179t-174.5 -60q-98 0 -150 46.5t-52 137.5q0 14 1.5 28.5t3.5 29.5l33 208q19 118 83 178t177 60q78 0 128.5 -31.5t70.5 -95.5q3 -11 -7 -15l-15 -6q-12 -5 -17 8q-33 101 -162 101q-95 0 -148 -52t-70 -161l-29 -186q-2 -16 -3.5 -30.5
t-1.5 -28.5q0 -152 161 -152q96 0 145.5 52.5t68.5 161.5l10 57h-162q-13 0 -11 13l2 15q2 11 13 11h192q13 0 11 -13zM370 765q-14 0 -22.5 8.5t-8.5 20.5q0 17 10.5 27t25.5 10q14 0 22.5 -8t8.5 -20q0 -17 -10.5 -27.5t-25.5 -10.5z" />
    <glyph glyph-name="gdotaccent" unicode="&#x121;" horiz-adv-x="487" 
d="M270 503q78 0 119 -37t41 -108q0 -11 -1 -22t-3 -22l-50 -318q-13 -79 -64 -123.5t-133 -44.5q-100 0 -156 60q-9 8 0 17l10 10q8 8 17 -1q47 -50 131 -50q66 0 105.5 37.5t50.5 106.5l10 63h-1q-47 -70 -146 -70q-75 0 -115 36.5t-40 105.5q0 11 1 22.5t3 23.5l20 128
q14 92 63.5 139t137.5 47zM385 308q4 23 4 46q0 58 -30.5 85t-90.5 27q-72 0 -109.5 -39t-50.5 -121l-17 -110q-2 -13 -3 -24.5t-1 -22.5q0 -57 30 -84t90 -27q70 0 109 39.5t51 120.5zM294 598q-14 0 -22.5 8.5t-8.5 20.5q0 17 10.5 27t25.5 10q14 0 22.5 -8t8.5 -20
q0 -17 -10.5 -27.5t-25.5 -10.5z" />
    <glyph glyph-name="Gcommaaccent" unicode="&#x122;" horiz-adv-x="570" 
d="M513 227q-20 -119 -81.5 -179t-174.5 -60q-98 0 -150 46.5t-52 137.5q0 14 1.5 28.5t3.5 29.5l33 208q19 118 83 178t177 60q78 0 128.5 -31.5t70.5 -95.5q3 -11 -7 -15l-15 -6q-12 -5 -17 8q-33 101 -162 101q-95 0 -148 -52t-70 -161l-29 -186q-2 -16 -3.5 -30.5
t-1.5 -28.5q0 -152 161 -152q96 0 145.5 52.5t68.5 161.5l10 57h-162q-13 0 -11 13l2 15q2 11 13 11h192q13 0 11 -13zM240 -53q14 0 22 -8.5t8 -22.5q0 -19 -12.5 -42.5t-42.5 -35.5q-6 -3 -9 4l-3 6q-3 6 4 9q18 10 26 29q-28 2 -28 27q0 17 9.5 25.5t25.5 8.5z" />
    <glyph glyph-name="gcommaaccent" unicode="&#x123;" horiz-adv-x="487" 
d="M300 654q28 -2 28 -28q0 -16 -9 -24.5t-23 -8.5t-23 8.5t-9 23.5q0 20 12.5 43t41.5 34q6 1 9 -3l4 -7q4 -5 -3 -9q-19 -10 -28 -29zM270 503q78 0 119 -37t41 -108q0 -11 -1 -22t-3 -22l-50 -318q-13 -79 -64 -123.5t-133 -44.5q-100 0 -156 60q-9 8 0 17l10 10
q8 8 17 -1q47 -50 131 -50q66 0 105.5 37.5t50.5 106.5l10 63h-1q-47 -70 -146 -70q-75 0 -115 36.5t-40 105.5q0 11 1 22.5t3 23.5l20 128q14 92 63.5 139t137.5 47zM385 308q4 23 4 46q0 58 -30.5 85t-90.5 27q-72 0 -109.5 -39t-50.5 -121l-17 -110q-2 -13 -3 -24.5
t-1 -22.5q0 -57 30 -84t90 -27q70 0 109 39.5t51 120.5z" />
    <glyph glyph-name="Hcircumflex" unicode="&#x124;" horiz-adv-x="624" 
d="M500 11q-2 -11 -13 -11h-19q-13 0 -11 13l48 303h-362l-48 -305q-2 -11 -13 -11h-19q-13 0 -11 13l101 640q2 11 13 11h19q13 0 11 -13l-47 -296h362l47 298q2 11 13 11h19q13 0 11 -13zM316 740q-5 -6 -13 -6h-16q-8 0 -10 4t3 9l107 126q6 7 15 7h17q9 0 15 -9l65 -124
q6 -13 -8 -13h-12q-9 0 -13 8l-58 104z" />
    <glyph glyph-name="hcircumflex" unicode="&#x125;" horiz-adv-x="501" 
d="M294 503q73 0 112.5 -35t39.5 -104q0 -21 -4 -44l-49 -309q-2 -11 -13 -11h-17q-13 0 -11 13l48 301q2 12 3 22.5t1 20.5q0 57 -30 83t-88 26q-68 0 -106 -38.5t-50 -116.5l-48 -300q-2 -11 -13 -11h-17q-13 0 -11 13l107 676q2 11 13 11h17q13 0 11 -13l-40 -252h1
q45 68 144 68zM108 771q-5 -6 -13 -6h-16q-8 0 -10 4t3 9l107 126q6 7 15 7h17q9 0 15 -9l65 -124q6 -13 -8 -13h-12q-9 0 -13 8l-58 104z" />
    <glyph glyph-name="Hbar" unicode="&#x126;" horiz-adv-x="633" 
d="M640 509q11 0 10 -12l-2 -14q-1 -10 -12 -10h-59l-73 -462q-2 -11 -13 -11h-19q-13 0 -11 13l48 303h-362l-48 -305q-2 -11 -13 -11h-19q-13 0 -11 13l73 460h-57q-12 0 -10 12l2 14q1 10 12 10h58l23 144q2 11 13 11h19q13 0 11 -13l-23 -142h362l23 144q2 11 13 11h19
q13 0 11 -13l-22 -142h57zM515 355l19 118h-362l-19 -118h362z" />
    <glyph glyph-name="hbar" unicode="&#x127;" horiz-adv-x="503" 
d="M296 503q73 0 112.5 -35t39.5 -104q0 -21 -4 -44l-49 -309q-2 -11 -13 -11h-17q-13 0 -11 13l48 301q2 12 3 22.5t1 20.5q0 57 -30 83t-88 26q-68 0 -106 -38.5t-50 -116.5l-48 -300q-2 -11 -13 -11h-17q-13 0 -11 13l88 556h-62q-13 0 -11 13l2 12q2 11 13 11h64l13 84
q2 11 13 11h17q13 0 11 -13l-13 -82h135q13 0 11 -13l-2 -12q-2 -11 -13 -11h-137l-21 -134h1q45 68 144 68z" />
    <glyph glyph-name="Itilde" unicode="&#x128;" horiz-adv-x="219" 
d="M95 11q-2 -11 -13 -11h-19q-13 0 -11 13l101 640q2 11 13 11h19q13 0 11 -13zM66 749q-12 0 -8 13q11 41 34 62t53 21q17 0 30.5 -7t30.5 -26q13 -14 22 -20t20 -6q19 0 32 12t22 39q3 8 12 8h13q11 0 8 -12q-26 -83 -88 -83q-18 0 -32 7.5t-30 25.5q-13 14 -22 20t-20 6
q-35 0 -53 -51q-3 -9 -12 -9h-12z" />
    <glyph glyph-name="itilde" unicode="&#x129;" horiz-adv-x="196" 
d="M52 0q-13 0 -11 13l74 467q2 11 13 11h17q13 0 11 -13l-74 -467q-2 -11 -13 -11h-17zM29 582q-12 0 -8 13q11 41 34 62t53 21q17 0 30.5 -7t30.5 -26q13 -14 22 -20t20 -6q19 0 32 12t22 39q3 8 12 8h13q11 0 8 -12q-26 -83 -88 -83q-18 0 -32 7.5t-30 25.5
q-13 14 -22 20t-20 6q-35 0 -53 -51q-3 -9 -12 -9h-12z" />
    <glyph glyph-name="Imacron" unicode="&#x12a;" horiz-adv-x="219" 
d="M95 11q-2 -11 -13 -11h-19q-13 0 -11 13l101 640q2 11 13 11h19q13 0 11 -13zM317 788q-2 -11 -13 -11h-223q-13 0 -11 13l2 12q2 11 12 11h224q13 0 11 -13z" />
    <glyph glyph-name="imacron" unicode="&#x12b;" horiz-adv-x="196" 
d="M52 0q-13 0 -11 13l74 467q2 11 13 11h17q13 0 11 -13l-74 -467q-2 -11 -13 -11h-17zM280 621q-2 -11 -13 -11h-223q-13 0 -11 13l2 12q2 11 12 11h224q13 0 11 -13z" />
    <glyph glyph-name="Ibreve" unicode="&#x12c;" horiz-adv-x="219" 
d="M95 11q-2 -11 -13 -11h-19q-13 0 -11 13l101 640q2 11 13 11h19q13 0 11 -13zM310 856q13 0 10 -12q-13 -44 -46.5 -68t-79.5 -24q-48 0 -76 24.5t-30 68.5q0 11 11 11h10q9 0 11 -11q3 -27 22 -42.5t51 -15.5q33 0 58 15.5t36 44.5q3 9 13 9h10z" />
    <glyph glyph-name="ibreve" unicode="&#x12d;" horiz-adv-x="196" 
d="M52 0q-13 0 -11 13l74 467q2 11 13 11h17q13 0 11 -13l-74 -467q-2 -11 -13 -11h-17zM273 689q13 0 10 -12q-13 -44 -46.5 -68t-79.5 -24q-48 0 -76 24.5t-30 68.5q0 11 11 11h10q9 0 11 -11q3 -27 22 -42.5t51 -15.5q33 0 58 15.5t36 44.5q3 9 13 9h10z" />
    <glyph glyph-name="Iogonek" unicode="&#x12e;" horiz-adv-x="219" 
d="M95 11q-1 -7 -7 -10q-89 -42 -89 -102q0 -17 11 -28.5t28 -11.5q28 0 52 22q9 7 15 -2l6 -8q6 -8 -2 -15q-16 -14 -34 -21t-41 -7q-30 0 -50 18t-20 47q0 34 21 64t67 56l101 640q2 11 13 11h19q13 0 11 -13z" />
    <glyph glyph-name="iogonek" unicode="&#x12f;" horiz-adv-x="196" 
d="M145 491q13 0 11 -13l-74 -467q-2 -8 -6 -10q-38 -21 -59.5 -47t-21.5 -53q0 -18 11 -30t28 -12q28 0 51 21q10 8 16 -1l5 -8q6 -9 -1 -15q-16 -14 -34 -21t-41 -7q-30 0 -50 18t-20 47q0 33 20 63t61 54v3l74 467q2 11 13 11h17zM157 598q-13 0 -21.5 8.5t-8.5 22.5
q0 16 10 25.5t26 9.5q13 0 21 -8t8 -21q0 -16 -10 -26.5t-25 -10.5z" />
    <glyph glyph-name="Idotaccent" unicode="&#x130;" horiz-adv-x="219" 
d="M95 11q-2 -11 -13 -11h-19q-13 0 -11 13l101 640q2 11 13 11h19q13 0 11 -13zM194 765q-14 0 -22.5 8.5t-8.5 20.5q0 17 10.5 27t25.5 10q14 0 22.5 -8t8.5 -20q0 -17 -10.5 -27.5t-25.5 -10.5z" />
    <glyph glyph-name="dotlessi" unicode="&#x131;" horiz-adv-x="196" 
d="M52 0q-13 0 -11 13l74 467q2 11 13 11h17q13 0 11 -13l-74 -467q-2 -11 -13 -11h-17z" />
    <glyph glyph-name="IJ" unicode="&#x132;" horiz-adv-x="729" 
d="M95 11q-2 -11 -13 -11h-19q-13 0 -11 13l101 640q2 11 13 11h19q13 0 11 -13zM650 218q-18 -115 -77 -172.5t-165 -57.5q-69 0 -117.5 28.5t-72.5 85.5q-5 11 5 16l15 8q11 6 17 -6q20 -48 59.5 -70.5t95.5 -22.5q88 0 135.5 50t63.5 153l67 423q2 11 13 11h18
q13 0 11 -13z" />
    <glyph glyph-name="ij" unicode="&#x133;" horiz-adv-x="392" 
d="M157 598q-13 0 -21.5 8.5t-8.5 22.5q0 16 10 25.5t26 9.5q13 0 21 -8t8 -21q0 -16 -10 -26.5t-25 -10.5zM52 0q-13 0 -11 13l74 467q2 11 13 11h17q13 0 11 -13l-74 -467q-2 -11 -13 -11h-17zM353 598q-13 0 -21.5 8.5t-8.5 22.5q0 16 10 25.5t26 9.5q13 0 21 -8t8 -21
q0 -16 -10 -26.5t-25 -10.5zM129 -123q86 0 101 92l81 511q2 11 13 11h17q13 0 11 -13l-81 -509q-21 -129 -141 -129h-5q-13 0 -11 13l2 13q2 11 12 11h1z" />
    <glyph glyph-name="Jcircumflex" unicode="&#x134;" horiz-adv-x="516" 
d="M437 218q-18 -115 -77 -172.5t-165 -57.5q-69 0 -117.5 28.5t-72.5 85.5q-5 11 5 16l15 8q11 6 17 -6q20 -48 59.5 -70.5t95.5 -22.5q88 0 135.5 50t63.5 153l67 423q2 11 13 11h18q13 0 11 -13zM424 740q-5 -6 -13 -6h-16q-8 0 -10 4t3 9l107 126q6 7 15 7h17q9 0 15 -9
l65 -124q6 -13 -8 -13h-12q-9 0 -13 8l-58 104z" />
    <glyph glyph-name="jcircumflex" unicode="&#x135;" horiz-adv-x="196" 
d="M-67 -123q86 0 101 92l81 511q2 11 13 11h17q13 0 11 -13l-81 -509q-21 -129 -141 -129h-5q-13 0 -11 13l2 13q2 11 12 11h1zM77 573q-5 -6 -13 -6h-16q-8 0 -10 4t3 9l107 126q6 7 15 7h17q9 0 15 -9l65 -124q6 -13 -8 -13h-12q-9 0 -13 8l-58 104z" />
    <glyph glyph-name="Kcommaaccent" unicode="&#x136;" horiz-adv-x="541" 
d="M466 15q5 -6 3.5 -10.5t-9.5 -4.5h-27q-9 0 -15 7l-273 320l-50 -316q-2 -11 -13 -11h-19q-13 0 -11 13l101 640q2 11 13 11h19q13 0 11 -13l-47 -299l356 306q7 6 15 6h31q8 0 10 -5t-4 -10l-369 -312zM240 -53q14 0 22 -8.5t8 -22.5q0 -19 -12.5 -42.5t-42.5 -35.5
q-6 -3 -9 4l-3 6q-3 6 4 9q18 10 26 29q-28 2 -28 27q0 17 9.5 25.5t25.5 8.5z" />
    <glyph glyph-name="kcommaaccent" unicode="&#x137;" horiz-adv-x="423" 
d="M363 15q5 -6 3.5 -10.5t-9.5 -4.5h-24q-9 0 -15 7l-200 236l-36 -232q-2 -11 -13 -11h-17q-13 0 -11 13l107 676q2 11 13 11h17q13 0 11 -13l-67 -423l260 222q7 5 14 5h25q8 0 10 -5t-4 -10l-264 -226zM188 -53q14 0 22 -8.5t8 -22.5q0 -19 -12.5 -42.5t-42.5 -35.5
q-6 -3 -9 4l-3 6q-3 6 4 9q18 10 26 29q-28 2 -28 27q0 17 9.5 25.5t25.5 8.5z" />
    <glyph glyph-name="kgreenlandic" unicode="&#x138;" horiz-adv-x="423" 
d="M363 15q5 -6 3.5 -10.5t-9.5 -4.5h-24q-9 0 -15 7l-199 236l-37 -232q-2 -11 -13 -11h-17q-13 0 -11 13l74 467q2 11 13 11h17q13 0 11 -13l-34 -214l260 222q7 5 14 5h25q8 0 10 -5t-4 -10l-264 -226z" />
    <glyph glyph-name="Lacute" unicode="&#x139;" horiz-adv-x="495" 
d="M439 11q-2 -11 -13 -11h-363q-13 0 -11 13l101 640q2 11 13 11h19q13 0 11 -13l-97 -612h331q13 0 11 -13zM202 740q-5 -6 -13 -6h-18q-7 0 -9 4t3 9l103 126q6 7 15 7h21q8 0 9.5 -4.5t-3.5 -10.5z" />
    <glyph glyph-name="lacute" unicode="&#x13a;" horiz-adv-x="196" 
d="M52 0q-13 0 -11 13l107 676q2 11 13 11h17q13 0 11 -13l-107 -676q-2 -11 -13 -11h-17zM196 771q-5 -6 -13 -6h-18q-7 0 -9 4t3 9l103 126q6 7 15 7h21q8 0 9.5 -4.5t-3.5 -10.5z" />
    <glyph glyph-name="Lcommaaccent" unicode="&#x13b;" horiz-adv-x="495" 
d="M439 11q-2 -11 -13 -11h-363q-13 0 -11 13l101 640q2 11 13 11h19q13 0 11 -13l-97 -612h331q13 0 11 -13zM229 -53q14 0 22 -8.5t8 -22.5q0 -19 -12.5 -42.5t-42.5 -35.5q-6 -3 -9 4l-3 6q-3 6 4 9q18 10 26 29q-28 2 -28 27q0 17 9.5 25.5t25.5 8.5z" />
    <glyph glyph-name="lcommaaccent" unicode="&#x13c;" horiz-adv-x="196" 
d="M52 0q-13 0 -11 13l107 676q2 11 13 11h17q13 0 11 -13l-107 -676q-2 -11 -13 -11h-17zM49 -53q14 0 22 -8.5t8 -22.5q0 -19 -12.5 -42.5t-42.5 -35.5q-6 -3 -9 4l-3 6q-3 6 4 9q18 10 26 29q-28 2 -28 27q0 17 9.5 25.5t25.5 8.5z" />
    <glyph glyph-name="Lcaron" unicode="&#x13d;" horiz-adv-x="495" 
d="M439 11q-2 -11 -13 -11h-363q-13 0 -11 13l101 640q2 11 13 11h19q13 0 11 -13l-97 -612h331q13 0 11 -13zM297 525q-3 -9 -13 -9h-8q-12 0 -9 12l46 162q3 10 14 10h13q6 0 9 -3.5t1 -10.5z" />
    <glyph glyph-name="lcaron" unicode="&#x13e;" horiz-adv-x="196" 
d="M52 0q-13 0 -11 13l107 676q2 11 13 11h17q13 0 11 -13l-107 -676q-2 -11 -13 -11h-17zM248 525q-3 -9 -13 -9h-8q-12 0 -9 12l46 162q3 10 14 10h13q6 0 9 -3.5t1 -10.5z" />
    <glyph glyph-name="Ldot" unicode="&#x13f;" horiz-adv-x="495" 
d="M439 11q-2 -11 -13 -11h-363q-13 0 -11 13l101 640q2 11 13 11h19q13 0 11 -13l-97 -612h331q13 0 11 -13zM366 299q-14 0 -22.5 8.5t-8.5 20.5q0 17 10.5 27t25.5 10q14 0 22.5 -8t8.5 -20q0 -17 -10.5 -27.5t-25.5 -10.5z" />
    <glyph glyph-name="ldot" unicode="&#x140;" horiz-adv-x="213" 
d="M52 0q-13 0 -11 13l107 676q2 11 13 11h17q13 0 11 -13l-107 -676q-2 -11 -13 -11h-17zM216 299q-14 0 -22.5 8.5t-8.5 20.5q0 17 10.5 27t25.5 10q14 0 22.5 -8t8.5 -20q0 -17 -10.5 -27.5t-25.5 -10.5z" />
    <glyph glyph-name="Lslash" unicode="&#x141;" horiz-adv-x="504" 
d="M439 39q13 0 11 -13l-2 -15q-2 -11 -13 -11h-363q-13 0 -11 13l31 199l-65 -41q-6 -4 -10 -1.5t-2 10.5l3 21q1 8 8 12l74 47l62 393q2 11 13 11h19q13 0 11 -13l-57 -361l251 158q6 4 10.5 2t2.5 -10l-3 -21q-1 -8 -8 -12l-261 -165l-32 -203h331z" />
    <glyph glyph-name="lslash" unicode="&#x142;" horiz-adv-x="216" 
d="M233 480q7 5 11 2t3 -11l-3 -16q-1 -9 -8 -14l-85 -58l-59 -372q-2 -11 -13 -11h-17q-13 0 -11 13l54 338l-76 -51q-7 -5 -11 -2.5t-3 10.5l2 17q1 9 8 14l87 59l46 291q2 11 13 11h17q13 0 11 -13l-41 -258z" />
    <glyph glyph-name="Nacute" unicode="&#x143;" horiz-adv-x="624" 
d="M499 11q-2 -11 -13 -11h-21q-10 0 -14 9l-263 591h-1l-93 -589q-2 -11 -13 -11h-18q-13 0 -11 13l101 640q2 11 13 11h25q9 0 14 -9l260 -583h1l92 581q2 11 13 11h18q13 0 11 -13zM404 740q-5 -6 -13 -6h-18q-7 0 -9 4t3 9l103 126q6 7 15 7h21q8 0 9.5 -4.5t-3.5 -10.5
z" />
    <glyph glyph-name="nacute" unicode="&#x144;" horiz-adv-x="496" 
d="M394 314q2 12 3 23t1 21q0 56 -29.5 82t-88.5 26q-69 0 -106 -38.5t-50 -117.5l-48 -299q-2 -11 -13 -11h-17q-13 0 -11 13l50 310q14 90 62.5 135t134.5 45q76 0 117 -35.5t41 -104.5q0 -11 -1 -21t-3 -22l-49 -309q-2 -11 -13 -11h-17q-13 0 -11 13zM314 573
q-5 -6 -13 -6h-18q-7 0 -9 4t3 9l103 126q6 7 15 7h21q8 0 9.5 -4.5t-3.5 -10.5z" />
    <glyph glyph-name="Ncommaaccent" unicode="&#x145;" horiz-adv-x="624" 
d="M499 11q-2 -11 -13 -11h-21q-10 0 -14 9l-263 591h-1l-93 -589q-2 -11 -13 -11h-18q-13 0 -11 13l101 640q2 11 13 11h25q9 0 14 -9l260 -583h1l92 581q2 11 13 11h18q13 0 11 -13zM262 -53q14 0 22 -8.5t8 -22.5q0 -19 -12.5 -42.5t-42.5 -35.5q-6 -3 -9 4l-3 6
q-3 6 4 9q18 10 26 29q-28 2 -28 27q0 17 9.5 25.5t25.5 8.5z" />
    <glyph glyph-name="ncommaaccent" unicode="&#x146;" horiz-adv-x="496" 
d="M394 314q2 12 3 23t1 21q0 56 -29.5 82t-88.5 26q-69 0 -106 -38.5t-50 -117.5l-48 -299q-2 -11 -13 -11h-17q-13 0 -11 13l50 310q14 90 62.5 135t134.5 45q76 0 117 -35.5t41 -104.5q0 -11 -1 -21t-3 -22l-49 -309q-2 -11 -13 -11h-17q-13 0 -11 13zM198 -53
q14 0 22 -8.5t8 -22.5q0 -19 -12.5 -42.5t-42.5 -35.5q-6 -3 -9 4l-3 6q-3 6 4 9q18 10 26 29q-28 2 -28 27q0 17 9.5 25.5t25.5 8.5z" />
    <glyph glyph-name="Ncaron" unicode="&#x147;" horiz-adv-x="624" 
d="M499 11q-2 -11 -13 -11h-21q-10 0 -14 9l-263 591h-1l-93 -589q-2 -11 -13 -11h-18q-13 0 -11 13l101 640q2 11 13 11h25q9 0 14 -9l260 -583h1l92 581q2 11 13 11h18q13 0 11 -13zM380 734q-9 0 -15 9l-65 124q-7 13 8 13h12q9 0 13 -8l58 -104l92 106q4 6 13 6h16
q8 0 10 -4t-3 -9l-107 -126q-6 -7 -15 -7h-17z" />
    <glyph glyph-name="ncaron" unicode="&#x148;" horiz-adv-x="496" 
d="M394 314q2 12 3 23t1 21q0 56 -29.5 82t-88.5 26q-69 0 -106 -38.5t-50 -117.5l-48 -299q-2 -11 -13 -11h-17q-13 0 -11 13l50 310q14 90 62.5 135t134.5 45q76 0 117 -35.5t41 -104.5q0 -11 -1 -21t-3 -22l-49 -309q-2 -11 -13 -11h-17q-13 0 -11 13zM290 567
q-9 0 -15 9l-65 124q-7 13 8 13h12q9 0 13 -8l58 -104l92 106q4 6 13 6h16q8 0 10 -4t-3 -9l-107 -126q-6 -7 -15 -7h-17z" />
    <glyph glyph-name="napostrophe" unicode="&#x149;" horiz-adv-x="496" 
d="M394 314q2 12 3 23t1 21q0 56 -29.5 82t-88.5 26q-69 0 -106 -38.5t-50 -117.5l-48 -299q-2 -11 -13 -11h-17q-13 0 -11 13l50 310q14 90 62.5 135t134.5 45q76 0 117 -35.5t41 -104.5q0 -11 -1 -21t-3 -22l-49 -309q-2 -11 -13 -11h-17q-13 0 -11 13zM165 686
q14 0 22.5 -8.5t8.5 -24.5q0 -29 -18.5 -58.5t-49.5 -52.5q-7 -6 -12 2l-3 6q-4 6 1 11q33 24 42 62q-11 1 -19 8.5t-8 19.5q0 17 10.5 26t25.5 9z" />
    <glyph glyph-name="Eng" unicode="&#x14a;" horiz-adv-x="624" 
d="M589 664q13 0 11 -13l-108 -682q-20 -129 -141 -129h-26q-13 0 -11 13l3 15q2 11 13 11h20q86 0 101 93l4 26l-267 602h-1l-93 -589q-2 -11 -13 -11h-18q-13 0 -11 13l101 640q2 11 13 11h25q9 0 14 -9l260 -583h1l92 581q2 11 13 11h18z" />
    <glyph glyph-name="eng" unicode="&#x14b;" horiz-adv-x="495" 
d="M394 313q2 12 3 23t1 21q0 57 -29.5 83t-88.5 26q-69 0 -106 -38t-50 -117l-48 -300q-2 -11 -13 -11h-17q-13 0 -11 13l50 310q14 90 62.5 135t134.5 45q76 0 117 -35.5t41 -104.5q0 -11 -1 -21t-3 -22l-56 -351q-21 -129 -141 -129h-5q-13 0 -11 13l2 13q2 11 12 11h1
q86 0 101 92z" />
    <glyph glyph-name="Omacron" unicode="&#x14c;" horiz-adv-x="582" 
d="M93 438q19 118 82 178t176 60q99 0 151.5 -47t52.5 -138q0 -14 -1.5 -28t-3.5 -29l-33 -208q-36 -238 -257 -238q-100 0 -152.5 47t-52.5 138q0 14 1.5 28t3.5 29zM104 237q-2 -16 -3.5 -30t-1.5 -28q0 -152 163 -152q95 0 146 52t68 160l30 188q2 16 3.5 30.5t1.5 27.5
q0 78 -41 115t-121 37q-95 0 -146.5 -52t-68.5 -160zM499 788q-2 -11 -13 -11h-223q-13 0 -11 13l2 12q2 11 12 11h224q13 0 11 -13z" />
    <glyph glyph-name="omacron" unicode="&#x14d;" horiz-adv-x="472" 
d="M270 503q78 0 119 -36.5t41 -106.5q0 -11 -1 -22t-3 -22l-23 -144q-14 -92 -63.5 -138t-137.5 -46q-77 0 -118.5 36.5t-41.5 108.5q0 10 1 21t3 22l22 143q29 184 202 184zM205 25q72 0 109 38.5t50 121.5l20 124q4 23 4 46q0 57 -30 84t-90 27q-72 0 -109.5 -39
t-50.5 -120l-19 -124q-2 -13 -3 -24.5t-1 -22.5q0 -57 30 -84t90 -27zM417 621q-2 -11 -13 -11h-223q-13 0 -11 13l2 12q2 11 12 11h224q13 0 11 -13z" />
    <glyph glyph-name="Obreve" unicode="&#x14e;" horiz-adv-x="582" 
d="M93 438q19 118 82 178t176 60q99 0 151.5 -47t52.5 -138q0 -14 -1.5 -28t-3.5 -29l-33 -208q-36 -238 -257 -238q-100 0 -152.5 47t-52.5 138q0 14 1.5 28t3.5 29zM104 237q-2 -16 -3.5 -30t-1.5 -28q0 -152 163 -152q95 0 146 52t68 160l30 188q2 16 3.5 30.5t1.5 27.5
q0 78 -41 115t-121 37q-95 0 -146.5 -52t-68.5 -160zM492 856q13 0 10 -12q-13 -44 -46.5 -68t-79.5 -24q-48 0 -76 24.5t-30 68.5q0 11 11 11h10q9 0 11 -11q3 -27 22 -42.5t51 -15.5q33 0 58 15.5t36 44.5q3 9 13 9h10z" />
    <glyph glyph-name="obreve" unicode="&#x14f;" horiz-adv-x="472" 
d="M270 503q78 0 119 -36.5t41 -106.5q0 -11 -1 -22t-3 -22l-23 -144q-14 -92 -63.5 -138t-137.5 -46q-77 0 -118.5 36.5t-41.5 108.5q0 10 1 21t3 22l22 143q29 184 202 184zM205 25q72 0 109 38.5t50 121.5l20 124q4 23 4 46q0 57 -30 84t-90 27q-72 0 -109.5 -39
t-50.5 -120l-19 -124q-2 -13 -3 -24.5t-1 -22.5q0 -57 30 -84t90 -27zM410 689q13 0 10 -12q-13 -44 -46.5 -68t-79.5 -24q-48 0 -76 24.5t-30 68.5q0 11 11 11h10q9 0 11 -11q3 -27 22 -42.5t51 -15.5q33 0 58 15.5t36 44.5q3 9 13 9h10z" />
    <glyph glyph-name="Ohungarumlaut" unicode="&#x150;" horiz-adv-x="582" 
d="M93 438q19 118 82 178t176 60q99 0 151.5 -47t52.5 -138q0 -14 -1.5 -28t-3.5 -29l-33 -208q-36 -238 -257 -238q-100 0 -152.5 47t-52.5 138q0 14 1.5 28t3.5 29zM104 237q-2 -16 -3.5 -30t-1.5 -28q0 -152 163 -152q95 0 146 52t68 160l30 188q2 16 3.5 30.5t1.5 27.5
q0 78 -41 115t-121 37q-95 0 -146.5 -52t-68.5 -160zM317 740q-5 -6 -13 -6h-14q-7 0 -9 4t2 9l95 126q6 7 15 7h18q8 0 10 -4.5t-3 -10.5zM453 740q-5 -6 -13 -6h-13q-7 0 -9 4t2 9l95 126q4 7 14 7h18q8 0 10 -4.5t-3 -10.5z" />
    <glyph glyph-name="ohungarumlaut" unicode="&#x151;" horiz-adv-x="472" 
d="M270 503q78 0 119 -36.5t41 -106.5q0 -11 -1 -22t-3 -22l-23 -144q-14 -92 -63.5 -138t-137.5 -46q-77 0 -118.5 36.5t-41.5 108.5q0 10 1 21t3 22l22 143q29 184 202 184zM205 25q72 0 109 38.5t50 121.5l20 124q4 23 4 46q0 57 -30 84t-90 27q-72 0 -109.5 -39
t-50.5 -120l-19 -124q-2 -13 -3 -24.5t-1 -22.5q0 -57 30 -84t90 -27zM235 573q-5 -6 -13 -6h-14q-7 0 -9 4t2 9l95 126q6 7 15 7h18q8 0 10 -4.5t-3 -10.5zM371 573q-5 -6 -13 -6h-13q-7 0 -9 4t2 9l95 126q4 7 14 7h18q8 0 10 -4.5t-3 -10.5z" />
    <glyph glyph-name="OE" unicode="&#x152;" horiz-adv-x="907" 
d="M821 355q13 0 11 -13l-3 -15q-2 -11 -13 -11h-303l-44 -277h345q13 0 11 -13l-2 -15q-2 -11 -12 -11h-556q-99 0 -149.5 44t-50.5 129q0 13 1.5 26.5t3.5 28.5l34 212q35 224 262 224h558q13 0 11 -13l-2 -15q-2 -11 -13 -11h-348l-43 -270h302zM354 626
q-189 0 -220 -200l-30 -190q-2 -15 -3.5 -28.5t-1.5 -26.5q0 -142 160 -142h167l93 587h-165z" />
    <glyph glyph-name="oe" unicode="&#x153;" horiz-adv-x="769" 
d="M587 503q74 0 114 -36.5t40 -106.5q0 -21 -4 -44l-12 -73q-2 -11 -13 -11h-299l-7 -48q-4 -23 -4 -46q0 -60 32.5 -86.5t98.5 -26.5q36 0 65 14t56 44q9 9 18 0l10 -11q8 -9 0 -17q-33 -35 -70 -51t-82 -16q-137 0 -158 104h-1q-22 -52 -63.5 -78t-107.5 -26
q-76 0 -117 36.5t-41 107.5q0 11 1 22t3 22l22 143q29 184 200 184q128 0 149 -102h1q45 102 169 102zM205 25q72 0 109.5 38.5t50.5 121.5l20 124q4 23 4 46q0 57 -30.5 84t-90.5 27q-72 0 -109.5 -39t-50.5 -120l-19 -124q-2 -13 -3 -24.5t-1 -22.5q0 -57 30 -84t90 -27z
M696 309q2 13 3 24.5t1 22.5q0 57 -29.5 83.5t-88.5 26.5q-70 0 -108 -38.5t-50 -120.5l-6 -38h271z" />
    <glyph glyph-name="Racute" unicode="&#x154;" horiz-adv-x="567" 
d="M342 664q201 0 201 -161q0 -101 -47.5 -155t-148.5 -65l132 -269q7 -14 -9 -14h-23q-10 0 -14 9l-132 271h-164l-42 -269q-2 -11 -13 -11h-19q-13 0 -11 13l101 640q2 11 13 11h176zM499 499q0 66 -39.5 96t-120.5 30h-147l-49 -306h145q109 0 160 43.5t51 136.5z
M370 740q-5 -6 -13 -6h-18q-7 0 -9 4t3 9l103 126q6 7 15 7h21q8 0 9.5 -4.5t-3.5 -10.5z" />
    <glyph glyph-name="racute" unicode="&#x155;" horiz-adv-x="361" 
d="M87 335q14 84 56.5 126t118.5 42q32 0 60.5 -9t48.5 -26q9 -9 2 -17l-9 -12q-8 -9 -18 -1q-33 28 -84 28q-61 0 -93 -35.5t-43 -107.5l-50 -312q-2 -11 -13 -11h-17q-13 0 -11 13zM274 573q-5 -6 -13 -6h-18q-7 0 -9 4t3 9l103 126q6 7 15 7h21q8 0 9.5 -4.5t-3.5 -10.5z
" />
    <glyph glyph-name="Rcommaaccent" unicode="&#x156;" horiz-adv-x="567" 
d="M342 664q201 0 201 -161q0 -101 -47.5 -155t-148.5 -65l132 -269q7 -14 -9 -14h-23q-10 0 -14 9l-132 271h-164l-42 -269q-2 -11 -13 -11h-19q-13 0 -11 13l101 640q2 11 13 11h176zM499 499q0 66 -39.5 96t-120.5 30h-147l-49 -306h145q109 0 160 43.5t51 136.5z
M249 -53q14 0 22 -8.5t8 -22.5q0 -19 -12.5 -42.5t-42.5 -35.5q-6 -3 -9 4l-3 6q-3 6 4 9q18 10 26 29q-28 2 -28 27q0 17 9.5 25.5t25.5 8.5z" />
    <glyph glyph-name="rcommaaccent" unicode="&#x157;" horiz-adv-x="361" 
d="M87 335q14 84 56.5 126t118.5 42q32 0 60.5 -9t48.5 -26q9 -9 2 -17l-9 -12q-8 -9 -18 -1q-33 28 -84 28q-61 0 -93 -35.5t-43 -107.5l-50 -312q-2 -11 -13 -11h-17q-13 0 -11 13zM43 -53q14 0 22 -8.5t8 -22.5q0 -19 -12.5 -42.5t-42.5 -35.5q-6 -3 -9 4l-3 6q-3 6 4 9
q18 10 26 29q-28 2 -28 27q0 17 9.5 25.5t25.5 8.5z" />
    <glyph glyph-name="Rcaron" unicode="&#x158;" horiz-adv-x="567" 
d="M342 664q201 0 201 -161q0 -101 -47.5 -155t-148.5 -65l132 -269q7 -14 -9 -14h-23q-10 0 -14 9l-132 271h-164l-42 -269q-2 -11 -13 -11h-19q-13 0 -11 13l101 640q2 11 13 11h176zM499 499q0 66 -39.5 96t-120.5 30h-147l-49 -306h145q109 0 160 43.5t51 136.5z
M346 734q-9 0 -15 9l-65 124q-7 13 8 13h12q9 0 13 -8l58 -104l92 106q4 6 13 6h16q8 0 10 -4t-3 -9l-107 -126q-6 -7 -15 -7h-17z" />
    <glyph glyph-name="rcaron" unicode="&#x159;" horiz-adv-x="361" 
d="M87 335q14 84 56.5 126t118.5 42q32 0 60.5 -9t48.5 -26q9 -9 2 -17l-9 -12q-8 -9 -18 -1q-33 28 -84 28q-61 0 -93 -35.5t-43 -107.5l-50 -312q-2 -11 -13 -11h-17q-13 0 -11 13zM250 567q-9 0 -15 9l-65 124q-7 13 8 13h12q9 0 13 -8l58 -104l92 106q4 6 13 6h16
q8 0 10 -4t-3 -9l-107 -126q-6 -7 -15 -7h-17z" />
    <glyph glyph-name="Sacute" unicode="&#x15a;" horiz-adv-x="505" 
d="M323 676q135 0 184 -90q5 -11 -4 -16l-15 -9q-5 -4 -10 -2.5t-7 6.5q-38 72 -150 72q-42 0 -77.5 -12t-60.5 -33.5t-39 -52t-14 -66.5q0 -26 8 -45.5t26 -34t48 -25.5t75 -19q49 -9 83 -21.5t55 -31t30.5 -43t9.5 -57.5q0 -47 -17 -85.5t-48 -65.5t-74.5 -42t-96.5 -15
q-75 0 -128.5 26t-82.5 77q-6 10 3 16l15 11q11 8 18 -4q49 -87 178 -87q43 0 78 12t60 33.5t38.5 51.5t13.5 67q0 25 -8 44t-26 33.5t-48 25t-74 18.5q-50 9 -84 22t-55 31t-30.5 43t-9.5 58q0 48 17 87t47.5 66t74 42t97.5 15zM349 740q-5 -6 -13 -6h-18q-7 0 -9 4t3 9
l103 126q6 7 15 7h21q8 0 9.5 -4.5t-3.5 -10.5z" />
    <glyph glyph-name="sacute" unicode="&#x15b;" horiz-adv-x="411" 
d="M364 149q0 -75 -50 -118t-137 -43q-117 0 -166 65q-8 10 1 17l12 10q9 8 16 -1q42 -54 138 -54q68 0 106.5 31.5t38.5 88.5q0 37 -27 57.5t-95 29.5q-79 11 -110 37t-31 76q0 73 52 115.5t142 42.5q41 0 76 -12.5t58 -35.5q8 -9 1 -16l-11 -11q-9 -9 -17 0
q-38 38 -109 38q-72 0 -111.5 -31t-39.5 -86q0 -17 5.5 -30t19 -23t36 -16.5t56.5 -11.5q41 -6 69 -15.5t45 -24t24.5 -34t7.5 -45.5zM272 573q-5 -6 -13 -6h-18q-7 0 -9 4t3 9l103 126q6 7 15 7h21q8 0 9.5 -4.5t-3.5 -10.5z" />
    <glyph glyph-name="Scircumflex" unicode="&#x15c;" horiz-adv-x="505" 
d="M323 676q135 0 184 -90q5 -11 -4 -16l-15 -9q-5 -4 -10 -2.5t-7 6.5q-38 72 -150 72q-42 0 -77.5 -12t-60.5 -33.5t-39 -52t-14 -66.5q0 -26 8 -45.5t26 -34t48 -25.5t75 -19q49 -9 83 -21.5t55 -31t30.5 -43t9.5 -57.5q0 -47 -17 -85.5t-48 -65.5t-74.5 -42t-96.5 -15
q-75 0 -128.5 26t-82.5 77q-6 10 3 16l15 11q11 8 18 -4q49 -87 178 -87q43 0 78 12t60 33.5t38.5 51.5t13.5 67q0 25 -8 44t-26 33.5t-48 25t-74 18.5q-50 9 -84 22t-55 31t-30.5 43t-9.5 58q0 48 17 87t47.5 66t74 42t97.5 15zM261 740q-5 -6 -13 -6h-16q-8 0 -10 4t3 9
l107 126q6 7 15 7h17q9 0 15 -9l65 -124q6 -13 -8 -13h-12q-9 0 -13 8l-58 104z" />
    <glyph glyph-name="scircumflex" unicode="&#x15d;" horiz-adv-x="411" 
d="M364 149q0 -75 -50 -118t-137 -43q-117 0 -166 65q-8 10 1 17l12 10q9 8 16 -1q42 -54 138 -54q68 0 106.5 31.5t38.5 88.5q0 37 -27 57.5t-95 29.5q-79 11 -110 37t-31 76q0 73 52 115.5t142 42.5q41 0 76 -12.5t58 -35.5q8 -9 1 -16l-11 -11q-9 -9 -17 0
q-38 38 -109 38q-72 0 -111.5 -31t-39.5 -86q0 -17 5.5 -30t19 -23t36 -16.5t56.5 -11.5q41 -6 69 -15.5t45 -24t24.5 -34t7.5 -45.5zM184 573q-5 -6 -13 -6h-16q-8 0 -10 4t3 9l107 126q6 7 15 7h17q9 0 15 -9l65 -124q6 -13 -8 -13h-12q-9 0 -13 8l-58 104z" />
    <glyph glyph-name="Scedilla" unicode="&#x15e;" horiz-adv-x="505" 
d="M18 91q-6 10 3 16l15 11q11 8 18 -4q49 -87 178 -87q43 0 78 12t60 33.5t38.5 51.5t13.5 67q0 25 -8 44t-26 33.5t-48 25t-74 18.5q-50 9 -84 22t-55 31t-30.5 43t-9.5 58q0 48 17 87t47.5 66t74 42t97.5 15q135 0 184 -90q5 -11 -4 -16l-15 -9q-5 -4 -10 -2.5t-7 6.5
q-38 72 -150 72q-42 0 -77.5 -12t-60.5 -33.5t-39 -52t-14 -66.5q0 -26 8 -45.5t26 -34t48 -25.5t75 -19q49 -9 83 -21.5t55 -31t30.5 -43t9.5 -57.5q0 -46 -16 -83.5t-46 -65t-72.5 -43t-94.5 -16.5l-16 -42q31 -2 47.5 -15t16.5 -36q0 -67 -89 -67q-43 0 -71 19
q-8 5 -3 15l5 10q5 9 15 3q11 -7 24 -11.5t30 -4.5q30 0 42.5 11t12.5 25t-11.5 21.5t-40.5 7.5h-4q-14 0 -9 13l20 52q-134 8 -187 102z" />
    <glyph glyph-name="scedilla" unicode="&#x15f;" horiz-adv-x="411" 
d="M11 53q-8 10 1 17l12 10q9 8 16 -1q42 -54 138 -54q68 0 106.5 31.5t38.5 88.5q0 37 -27 57.5t-95 29.5q-79 11 -110 37t-31 76q0 73 52 115.5t142 42.5q41 0 76 -12.5t58 -35.5q8 -9 1 -16l-11 -11q-9 -9 -17 0q-38 38 -109 38q-72 0 -111.5 -31t-39.5 -86
q0 -17 5.5 -30t19 -23t36 -16.5t56.5 -11.5q41 -6 69 -15.5t45 -24t24.5 -34t7.5 -45.5q0 -72 -47 -115.5t-131 -45.5l-16 -42q31 -2 47.5 -15t16.5 -36q0 -67 -89 -67q-43 0 -71 19q-8 5 -3 15l5 10q5 9 15 3q11 -7 24 -11.5t30 -4.5q30 0 42.5 11t12.5 25t-11.5 21.5
t-40.5 7.5h-4q-14 0 -9 13l20 52q-98 4 -144 64z" />
    <glyph glyph-name="Scaron" unicode="&#x160;" horiz-adv-x="505" 
d="M323 676q135 0 184 -90q5 -11 -4 -16l-15 -9q-5 -4 -10 -2.5t-7 6.5q-38 72 -150 72q-42 0 -77.5 -12t-60.5 -33.5t-39 -52t-14 -66.5q0 -26 8 -45.5t26 -34t48 -25.5t75 -19q49 -9 83 -21.5t55 -31t30.5 -43t9.5 -57.5q0 -47 -17 -85.5t-48 -65.5t-74.5 -42t-96.5 -15
q-75 0 -128.5 26t-82.5 77q-6 10 3 16l15 11q11 8 18 -4q49 -87 178 -87q43 0 78 12t60 33.5t38.5 51.5t13.5 67q0 25 -8 44t-26 33.5t-48 25t-74 18.5q-50 9 -84 22t-55 31t-30.5 43t-9.5 58q0 48 17 87t47.5 66t74 42t97.5 15zM325 734q-9 0 -15 9l-65 124q-7 13 8 13h12
q9 0 13 -8l58 -104l92 106q4 6 13 6h16q8 0 10 -4t-3 -9l-107 -126q-6 -7 -15 -7h-17z" />
    <glyph glyph-name="scaron" unicode="&#x161;" horiz-adv-x="411" 
d="M364 149q0 -75 -50 -118t-137 -43q-117 0 -166 65q-8 10 1 17l12 10q9 8 16 -1q42 -54 138 -54q68 0 106.5 31.5t38.5 88.5q0 37 -27 57.5t-95 29.5q-79 11 -110 37t-31 76q0 73 52 115.5t142 42.5q41 0 76 -12.5t58 -35.5q8 -9 1 -16l-11 -11q-9 -9 -17 0
q-38 38 -109 38q-72 0 -111.5 -31t-39.5 -86q0 -17 5.5 -30t19 -23t36 -16.5t56.5 -11.5q41 -6 69 -15.5t45 -24t24.5 -34t7.5 -45.5zM248 567q-9 0 -15 9l-65 124q-7 13 8 13h12q9 0 13 -8l58 -104l92 106q4 6 13 6h16q8 0 10 -4t-3 -9l-107 -126q-6 -7 -15 -7h-17z" />
    <glyph glyph-name="Tcommaaccent" unicode="&#x162;" horiz-adv-x="477" 
d="M511 664q13 0 11 -13l-3 -15q-2 -11 -13 -11h-185l-97 -614q-1 -7 -7 -10l-21 -55q31 -2 47.5 -15t16.5 -36q0 -67 -89 -67q-43 0 -71 19q-8 5 -3 15l5 10q5 9 15 3q11 -7 24 -11.5t30 -4.5q30 0 42.5 11t12.5 25t-11.5 21.5t-40.5 7.5h-4q-14 0 -9 13l25 64q-6 3 -5 12
l97 612h-185q-13 0 -11 13l2 15q2 11 13 11h414z" />
    <glyph glyph-name="tcommaaccent" unicode="&#x163;" horiz-adv-x="349" 
d="M343 491q14 0 11 -13l-3 -13q-3 -11 -13 -11h-165l-51 -321q-3 -17 -3 -29q0 -79 86 -79q19 0 34.5 5t32.5 16q12 8 18 -3l6 -11q4 -10 -4 -17q-20 -14 -44 -20.5t-48 -6.5q-7 0 -13.5 0.5t-12.5 1.5l-16 -44q31 -2 47.5 -15t16.5 -36q0 -67 -89 -67q-43 0 -71 19
q-8 5 -3 15l5 10q5 9 15 3q11 -7 24 -11.5t30 -4.5q30 0 42.5 11t12.5 25t-11.5 21.5t-40.5 7.5h-4q-14 0 -9 13l23 59q-68 23 -68 103q0 15 3 32l51 323h-66q-13 0 -11 13l2 13q2 11 13 11h68l19 125q2 11 13 11h17q13 0 11 -13l-19 -123h164z" />
    <glyph glyph-name="Tcaron" unicode="&#x164;" horiz-adv-x="477" 
d="M224 11q-2 -11 -13 -11h-19q-13 0 -11 13l97 612h-185q-13 0 -11 13l2 15q2 11 13 11h414q13 0 11 -13l-3 -15q-2 -11 -13 -11h-185zM307 734q-9 0 -15 9l-65 124q-7 13 8 13h12q9 0 13 -8l58 -104l92 106q4 6 13 6h16q8 0 10 -4t-3 -9l-107 -126q-6 -7 -15 -7h-17z" />
    <glyph glyph-name="tcaron" unicode="&#x165;" horiz-adv-x="349" 
d="M122 133q-3 -17 -3 -29q0 -79 86 -79q19 0 34.5 5t32.5 16q12 8 18 -3l6 -11q4 -10 -4 -17q-20 -14 -44 -20.5t-48 -6.5q-59 0 -90.5 28.5t-31.5 82.5q0 15 3 32l51 323h-66q-13 0 -11 13l2 13q2 11 13 11h68l19 125q2 11 13 11h17q13 0 11 -13l-19 -123h164q14 0 11 -13
l-3 -13q-2 -11 -13 -11h-165zM338 557q-3 -9 -13 -9h-8q-12 0 -9 12l46 162q3 10 14 10h13q6 0 9 -3.5t1 -10.5z" />
    <glyph glyph-name="Tbar" unicode="&#x166;" horiz-adv-x="477" 
d="M511 664q13 0 11 -13l-3 -15q-2 -11 -13 -11h-185l-38 -239h120q11 0 10 -12l-2 -14q-1 -10 -12 -10h-121l-54 -339q-2 -11 -13 -11h-19q-13 0 -11 13l53 337h-122q-12 0 -10 12l2 14q1 10 12 10h124l38 239h-185q-13 0 -11 13l2 15q2 11 13 11h414z" />
    <glyph glyph-name="tbar" unicode="&#x167;" horiz-adv-x="362" 
d="M350 491q14 0 11 -13l-3 -13q-3 -11 -13 -11h-165l-25 -155h145q12 0 10 -13l-2 -12q-2 -11 -13 -11h-145l-21 -130q-3 -17 -3 -29q0 -79 86 -79q19 0 34.5 5t32.5 16q12 8 18 -3l6 -11q4 -10 -4 -17q-20 -14 -44 -20.5t-48 -6.5q-59 0 -90.5 28.5t-31.5 82.5q0 15 3 32
l21 132h-57q-12 0 -10 13l2 12q2 11 13 11h58l24 155h-66q-13 0 -11 13l2 13q2 11 13 11h68l19 125q2 11 13 11h17q13 0 11 -13l-19 -123h164z" />
    <glyph glyph-name="Utilde" unicode="&#x168;" horiz-adv-x="588" 
d="M509 218q-19 -115 -79 -172.5t-167 -57.5q-95 0 -145.5 45t-50.5 133q0 13 1.5 27t3.5 28l68 432q2 11 13 11h19q13 0 11 -13l-67 -423q-2 -16 -3.5 -30t-1.5 -27q0 -75 38.5 -109.5t116.5 -34.5q90 0 138.5 50t64.5 154l66 422q2 11 13 11h18q13 0 11 -13zM251 749
q-12 0 -8 13q11 41 34 62t53 21q17 0 30.5 -7t30.5 -26q13 -14 22 -20t20 -6q19 0 32 12t22 39q3 8 12 8h13q11 0 8 -12q-26 -83 -88 -83q-18 0 -32 7.5t-30 25.5q-13 14 -22 20t-20 6q-35 0 -53 -51q-3 -9 -12 -9h-12z" />
    <glyph glyph-name="utilde" unicode="&#x169;" horiz-adv-x="490" 
d="M405 166q-14 -89 -61.5 -133.5t-132.5 -44.5q-75 0 -114.5 35.5t-39.5 104.5q0 18 3 41l50 311q2 11 13 11h17q13 0 11 -13l-48 -303q-2 -12 -3 -23t-1 -21q0 -55 29 -80.5t86 -25.5q68 0 103.5 37t48.5 115l49 303q2 11 13 11h16q13 0 11 -13zM175 582q-12 0 -8 13
q11 41 34 62t53 21q17 0 30.5 -7t30.5 -26q13 -14 22 -20t20 -6q19 0 32 12t22 39q3 8 12 8h13q11 0 8 -12q-26 -83 -88 -83q-18 0 -32 7.5t-30 25.5q-13 14 -22 20t-20 6q-35 0 -53 -51q-3 -9 -12 -9h-12z" />
    <glyph glyph-name="Umacron" unicode="&#x16a;" horiz-adv-x="588" 
d="M509 218q-19 -115 -79 -172.5t-167 -57.5q-95 0 -145.5 45t-50.5 133q0 13 1.5 27t3.5 28l68 432q2 11 13 11h19q13 0 11 -13l-67 -423q-2 -16 -3.5 -30t-1.5 -27q0 -75 38.5 -109.5t116.5 -34.5q90 0 138.5 50t64.5 154l66 422q2 11 13 11h18q13 0 11 -13zM502 788
q-2 -11 -13 -11h-223q-13 0 -11 13l2 12q2 11 12 11h224q13 0 11 -13z" />
    <glyph glyph-name="umacron" unicode="&#x16b;" horiz-adv-x="490" 
d="M405 166q-14 -89 -61.5 -133.5t-132.5 -44.5q-75 0 -114.5 35.5t-39.5 104.5q0 18 3 41l50 311q2 11 13 11h17q13 0 11 -13l-48 -303q-2 -12 -3 -23t-1 -21q0 -55 29 -80.5t86 -25.5q68 0 103.5 37t48.5 115l49 303q2 11 13 11h16q13 0 11 -13zM426 621q-2 -11 -13 -11
h-223q-13 0 -11 13l2 12q2 11 12 11h224q13 0 11 -13z" />
    <glyph glyph-name="Ubreve" unicode="&#x16c;" horiz-adv-x="588" 
d="M509 218q-19 -115 -79 -172.5t-167 -57.5q-95 0 -145.5 45t-50.5 133q0 13 1.5 27t3.5 28l68 432q2 11 13 11h19q13 0 11 -13l-67 -423q-2 -16 -3.5 -30t-1.5 -27q0 -75 38.5 -109.5t116.5 -34.5q90 0 138.5 50t64.5 154l66 422q2 11 13 11h18q13 0 11 -13zM495 856
q13 0 10 -12q-13 -44 -46.5 -68t-79.5 -24q-48 0 -76 24.5t-30 68.5q0 11 11 11h10q9 0 11 -11q3 -27 22 -42.5t51 -15.5q33 0 58 15.5t36 44.5q3 9 13 9h10z" />
    <glyph glyph-name="ubreve" unicode="&#x16d;" horiz-adv-x="490" 
d="M405 166q-14 -89 -61.5 -133.5t-132.5 -44.5q-75 0 -114.5 35.5t-39.5 104.5q0 18 3 41l50 311q2 11 13 11h17q13 0 11 -13l-48 -303q-2 -12 -3 -23t-1 -21q0 -55 29 -80.5t86 -25.5q68 0 103.5 37t48.5 115l49 303q2 11 13 11h16q13 0 11 -13zM419 689q13 0 10 -12
q-13 -44 -46.5 -68t-79.5 -24q-48 0 -76 24.5t-30 68.5q0 11 11 11h10q9 0 11 -11q3 -27 22 -42.5t51 -15.5q33 0 58 15.5t36 44.5q3 9 13 9h10z" />
    <glyph glyph-name="Uring" unicode="&#x16e;" horiz-adv-x="588" 
d="M509 218q-19 -115 -79 -172.5t-167 -57.5q-95 0 -145.5 45t-50.5 133q0 13 1.5 27t3.5 28l68 432q2 11 13 11h19q13 0 11 -13l-67 -423q-2 -16 -3.5 -30t-1.5 -27q0 -75 38.5 -109.5t116.5 -34.5q90 0 138.5 50t64.5 154l66 422q2 11 13 11h18q13 0 11 -13zM377 731
q-31 0 -50.5 19.5t-19.5 49.5q0 35 24 59t59 24q30 0 49.5 -19t19.5 -48q0 -37 -24 -61t-58 -24zM378 763q20 0 34.5 14.5t14.5 36.5q0 17 -11 27t-29 10q-20 0 -34 -14.5t-14 -36.5q0 -17 10.5 -27t28.5 -10z" />
    <glyph glyph-name="uring" unicode="&#x16f;" horiz-adv-x="490" 
d="M405 166q-14 -89 -61.5 -133.5t-132.5 -44.5q-75 0 -114.5 35.5t-39.5 104.5q0 18 3 41l50 311q2 11 13 11h17q13 0 11 -13l-48 -303q-2 -12 -3 -23t-1 -21q0 -55 29 -80.5t86 -25.5q68 0 103.5 37t48.5 115l49 303q2 11 13 11h16q13 0 11 -13zM301 564q-31 0 -50.5 19.5
t-19.5 49.5q0 35 24 59t59 24q30 0 49.5 -19t19.5 -48q0 -37 -24 -61t-58 -24zM302 596q20 0 34.5 14.5t14.5 36.5q0 17 -11 27t-29 10q-20 0 -34 -14.5t-14 -36.5q0 -17 10.5 -27t28.5 -10z" />
    <glyph glyph-name="Uhungarumlaut" unicode="&#x170;" horiz-adv-x="588" 
d="M509 218q-19 -115 -79 -172.5t-167 -57.5q-95 0 -145.5 45t-50.5 133q0 13 1.5 27t3.5 28l68 432q2 11 13 11h19q13 0 11 -13l-67 -423q-2 -16 -3.5 -30t-1.5 -27q0 -75 38.5 -109.5t116.5 -34.5q90 0 138.5 50t64.5 154l66 422q2 11 13 11h18q13 0 11 -13zM320 740
q-5 -6 -13 -6h-14q-7 0 -9 4t2 9l95 126q6 7 15 7h18q8 0 10 -4.5t-3 -10.5zM456 740q-5 -6 -13 -6h-13q-7 0 -9 4t2 9l95 126q4 7 14 7h18q8 0 10 -4.5t-3 -10.5z" />
    <glyph glyph-name="uhungarumlaut" unicode="&#x171;" horiz-adv-x="490" 
d="M405 166q-14 -89 -61.5 -133.5t-132.5 -44.5q-75 0 -114.5 35.5t-39.5 104.5q0 18 3 41l50 311q2 11 13 11h17q13 0 11 -13l-48 -303q-2 -12 -3 -23t-1 -21q0 -55 29 -80.5t86 -25.5q68 0 103.5 37t48.5 115l49 303q2 11 13 11h16q13 0 11 -13zM244 573q-5 -6 -13 -6h-14
q-7 0 -9 4t2 9l95 126q6 7 15 7h18q8 0 10 -4.5t-3 -10.5zM380 573q-5 -6 -13 -6h-13q-7 0 -9 4t2 9l95 126q4 7 14 7h18q8 0 10 -4.5t-3 -10.5z" />
    <glyph glyph-name="Uogonek" unicode="&#x172;" horiz-adv-x="588" 
d="M566 664q13 0 11 -13l-68 -433q-14 -86 -49.5 -137.5t-96.5 -77.5q-45 -18 -68 -46.5t-23 -57.5q0 -17 11.5 -28.5t30.5 -11.5q13 0 25.5 6t23.5 16q9 8 15 -1l7 -9q6 -7 -2 -15q-15 -13 -32 -20.5t-40 -7.5q-33 0 -53 18t-20 48q0 51 51 94v1q-6 -1 -12.5 -1h-13.5
q-95 0 -145.5 45t-50.5 133q0 13 1.5 27t3.5 28l68 432q2 11 13 11h19q13 0 11 -13l-67 -423q-2 -16 -3.5 -30t-1.5 -27q0 -75 38.5 -109.5t116.5 -34.5q90 0 138.5 50t64.5 154l66 422q2 11 13 11h18z" />
    <glyph glyph-name="uogonek" unicode="&#x173;" horiz-adv-x="490" 
d="M444 491q13 0 11 -13l-50 -312q-10 -63 -34.5 -102t-68.5 -59q-45 -21 -68.5 -49t-23.5 -57q0 -17 11.5 -28.5t30.5 -11.5q13 0 25.5 6t23.5 16q9 8 15 -1l7 -9q6 -8 -2 -15q-15 -13 -32 -20.5t-40 -7.5q-33 0 -53 18t-20 48q0 26 13 49.5t36 43.5v1h-14
q-75 0 -114.5 35.5t-39.5 104.5q0 18 3 41l50 311q2 11 13 11h17q13 0 11 -13l-48 -303q-2 -12 -3 -23t-1 -21q0 -55 29 -80.5t86 -25.5q68 0 103.5 37t48.5 115l49 303q2 11 13 11h16z" />
    <glyph glyph-name="Wcircumflex" unicode="&#x174;" horiz-adv-x="848" 
d="M556 0q-10 0 -12 11l-68 568h-1l-249 -570q-5 -9 -14 -9h-25q-10 0 -12 11l-78 640q-2 13 11 13h22q10 0 12 -11l67 -581h1l255 583q4 9 14 9h17q10 0 12 -11l72 -585h1l253 587q4 9 14 9h22q16 0 9 -14l-281 -641q-5 -9 -14 -9h-28zM429 740q-5 -6 -13 -6h-16
q-8 0 -10 4t3 9l107 126q6 7 15 7h17q9 0 15 -9l65 -124q6 -13 -8 -13h-12q-9 0 -13 8l-58 104z" />
    <glyph glyph-name="wcircumflex" unicode="&#x175;" horiz-adv-x="676" 
d="M473 9q-5 -9 -14 -9h-23q-11 0 -13 11l-56 405h-1l-188 -407q-5 -9 -14 -9h-23q-11 0 -13 11l-65 467q-2 13 11 13h18q11 0 12 -10l56 -422h1l194 423q4 9 14 9h15q11 0 13 -11l59 -420h1l191 422q4 9 14 9h17q15 0 10 -14zM317 573q-5 -6 -13 -6h-16q-8 0 -10 4t3 9
l107 126q6 7 15 7h17q9 0 15 -9l65 -124q6 -13 -8 -13h-12q-9 0 -13 8l-58 104z" />
    <glyph glyph-name="Ycircumflex" unicode="&#x176;" horiz-adv-x="511" 
d="M239 11q-2 -11 -13 -11h-19q-13 0 -11 13l46 289l-162 348q-7 14 9 14h22q9 0 14 -9l144 -313l244 315q6 7 15 7h25q8 0 10 -4.5t-3 -10.5l-276 -352zM260 740q-5 -6 -13 -6h-16q-8 0 -10 4t3 9l107 126q6 7 15 7h17q9 0 15 -9l65 -124q6 -13 -8 -13h-12q-9 0 -13 8
l-58 104z" />
    <glyph glyph-name="ycircumflex" unicode="&#x177;" horiz-adv-x="501" 
d="M384 -4q-13 -79 -63.5 -123.5t-132.5 -44.5q-49 0 -89 15t-68 45q-7 9 1 17l10 11q9 9 17 -1q47 -50 130 -50q67 0 106 37t50 106l10 61h-1q-45 -68 -143 -68q-74 0 -113 35t-39 104q0 11 1 22t3 23l47 295q2 11 13 11h17q13 0 11 -13l-46 -286q-2 -12 -3 -23t-1 -21
q0 -57 29.5 -83.5t88.5 -26.5q68 0 106 39t50 117l45 286q2 11 13 11h17q13 0 11 -13zM226 573q-5 -6 -13 -6h-16q-8 0 -10 4t3 9l107 126q6 7 15 7h17q9 0 15 -9l65 -124q6 -13 -8 -13h-12q-9 0 -13 8l-58 104z" />
    <glyph glyph-name="Ydieresis" unicode="&#x178;" horiz-adv-x="511" 
d="M239 11q-2 -11 -13 -11h-19q-13 0 -11 13l46 289l-162 348q-7 14 9 14h22q9 0 14 -9l144 -313l244 315q6 7 15 7h25q8 0 10 -4.5t-3 -10.5l-276 -352zM262 766q-13 0 -20.5 8.5t-7.5 20.5q0 15 9.5 25.5t24.5 10.5q13 0 21 -8.5t8 -21.5q0 -14 -10 -24.5t-25 -10.5z
M417 766q-13 0 -20.5 8.5t-7.5 20.5q0 15 9.5 25.5t24.5 10.5q13 0 21 -8.5t8 -21.5q0 -14 -10 -24.5t-25 -10.5z" />
    <glyph glyph-name="Zacute" unicode="&#x179;" horiz-adv-x="514" 
d="M428 39q13 0 11 -13l-2 -15q-2 -11 -13 -11h-409q-13 0 -11 13l4 20q1 8 6 14l461 578h-347q-13 0 -11 13l3 15q2 11 13 11h389q13 0 11 -13l-4 -20q-1 -8 -6 -14l-463 -578h368zM352 740q-5 -6 -13 -6h-18q-7 0 -9 4t3 9l103 126q6 7 15 7h21q8 0 9.5 -4.5t-3.5 -10.5z
" />
    <glyph glyph-name="zacute" unicode="&#x17a;" horiz-adv-x="418" 
d="M334 37q13 0 11 -13l-2 -13q-2 -11 -13 -11h-317q-13 0 -11 13l3 18q1 8 6 14l347 409h-258q-13 0 -11 13l2 13q2 11 13 11h297q13 0 11 -13l-3 -19q-1 -8 -6 -14l-348 -408h279zM279 573q-5 -6 -13 -6h-18q-7 0 -9 4t3 9l103 126q6 7 15 7h21q8 0 9.5 -4.5t-3.5 -10.5z
" />
    <glyph glyph-name="Zdotaccent" unicode="&#x17b;" horiz-adv-x="514" 
d="M428 39q13 0 11 -13l-2 -15q-2 -11 -13 -11h-409q-13 0 -11 13l4 20q1 8 6 14l461 578h-347q-13 0 -11 13l3 15q2 11 13 11h389q13 0 11 -13l-4 -20q-1 -8 -6 -14l-463 -578h368zM344 765q-14 0 -22.5 8.5t-8.5 20.5q0 17 10.5 27t25.5 10q14 0 22.5 -8t8.5 -20
q0 -17 -10.5 -27.5t-25.5 -10.5z" />
    <glyph glyph-name="zdotaccent" unicode="&#x17c;" horiz-adv-x="418" 
d="M334 37q13 0 11 -13l-2 -13q-2 -11 -13 -11h-317q-13 0 -11 13l3 18q1 8 6 14l347 409h-258q-13 0 -11 13l2 13q2 11 13 11h297q13 0 11 -13l-3 -19q-1 -8 -6 -14l-348 -408h279zM271 598q-14 0 -22.5 8.5t-8.5 20.5q0 17 10.5 27t25.5 10q14 0 22.5 -8t8.5 -20
q0 -17 -10.5 -27.5t-25.5 -10.5z" />
    <glyph glyph-name="Zcaron" unicode="&#x17d;" horiz-adv-x="514" 
d="M428 39q13 0 11 -13l-2 -15q-2 -11 -13 -11h-409q-13 0 -11 13l4 20q1 8 6 14l461 578h-347q-13 0 -11 13l3 15q2 11 13 11h389q13 0 11 -13l-4 -20q-1 -8 -6 -14l-463 -578h368zM328 734q-9 0 -15 9l-65 124q-7 13 8 13h12q9 0 13 -8l58 -104l92 106q4 6 13 6h16
q8 0 10 -4t-3 -9l-107 -126q-6 -7 -15 -7h-17z" />
    <glyph glyph-name="zcaron" unicode="&#x17e;" horiz-adv-x="418" 
d="M334 37q13 0 11 -13l-2 -13q-2 -11 -13 -11h-317q-13 0 -11 13l3 18q1 8 6 14l347 409h-258q-13 0 -11 13l2 13q2 11 13 11h297q13 0 11 -13l-3 -19q-1 -8 -6 -14l-348 -408h279zM255 567q-9 0 -15 9l-65 124q-7 13 8 13h12q9 0 13 -8l58 -104l92 106q4 6 13 6h16
q8 0 10 -4t-3 -9l-107 -126q-6 -7 -15 -7h-17z" />
    <glyph glyph-name="florin" unicode="&#x192;" horiz-adv-x="528" 
d="M441 599q-52 0 -84.5 -31.5t-51.5 -97.5l-19 -65h174q13 0 11 -13l-2 -13q-2 -11 -13 -11h-182l-128 -428q-3 -10 -13 -10h-17q-15 0 -10 14l127 424h-118q-13 0 -11 13l2 13q2 11 13 11h125l21 72q25 81 67 120t110 39q29 0 52.5 -5.5t43.5 -18.5q9 -6 3 -17l-7 -12
q-7 -9 -16 -3q-16 11 -35 15t-42 4z" />
    <glyph glyph-name="AEacute" unicode="&#x1fc;" horiz-adv-x="885" 
d="M798 355q13 0 11 -13l-2 -15q-2 -11 -13 -11h-304l-44 -277h346q13 0 11 -13l-2 -15q-2 -11 -13 -11h-378q-13 0 -11 13l22 141h-281l-114 -147q-6 -7 -15 -7h-24q-8 0 -10.5 4.5t2.5 10.5l503 642q6 7 15 7h394q13 0 11 -13l-2 -15q-2 -11 -13 -11h-348l-43 -270h302z
M428 193l65 416h-1l-322 -416h258zM543 740q-5 -6 -13 -6h-18q-7 0 -9 4t3 9l103 126q6 7 15 7h21q8 0 9.5 -4.5t-3.5 -10.5z" />
    <glyph glyph-name="aeacute" unicode="&#x1fd;" horiz-adv-x="748" 
d="M571 503q74 0 111.5 -35.5t37.5 -104.5q0 -24 -4 -47l-11 -67q-2 -11 -13 -11h-298l-9 -54q-2 -12 -3 -23t-1 -21q0 -60 33 -87.5t99 -27.5q35 0 64 13.5t58 43.5q8 9 17 0l10 -11q8 -8 0 -17q-32 -35 -70 -50.5t-83 -15.5q-136 0 -158 103h-1q-45 -103 -174 -103
q-71 0 -110.5 33.5t-39.5 93.5q0 77 49.5 118.5t145.5 41.5h138l5 32q2 14 3 26t1 23q0 57 -28.5 83.5t-88.5 26.5q-38 0 -69.5 -13.5t-57.5 -37.5q-9 -9 -17 1l-10 12q-7 9 1 17q34 29 73.5 43.5t82.5 14.5q126 0 144 -102h1q46 102 172 102zM675 309q2 14 3.5 27t1.5 24
q0 55 -28 80.5t-86 25.5q-70 0 -109 -38.5t-52 -120.5l-5 -32h269zM182 25q72 0 110 38.5t52 121.5l9 53h-130q-75 0 -115.5 -31t-40.5 -91q0 -91 115 -91zM441 573q-5 -6 -13 -6h-18q-7 0 -9 4t3 9l103 126q6 7 15 7h21q8 0 9.5 -4.5t-3.5 -10.5z" />
    <glyph glyph-name="Oslashacute" unicode="&#x1fe;" horiz-adv-x="582" 
d="M579 658q7 -7 1 -15l-46 -56q21 -41 21 -96q0 -14 -1.5 -28t-3.5 -29l-33 -208q-36 -238 -257 -238q-111 0 -163 58l-39 -48q-7 -8 -15 -2l-12 10q-7 7 -1 15l46 56q-21 40 -21 96q0 14 1.5 28t3.5 29l33 208q19 118 82 178t176 60q110 0 162 -58l39 48q7 8 15 2zM99 179
q0 -32 8 -61h1l377 465q-41 54 -136 54t-146.5 -52t-68.5 -160l-30 -188q-2 -16 -3.5 -30t-1.5 -28zM511 485q0 32 -8 61h-1l-377 -465q40 -54 137 -54q95 0 146 52t68 160l30 188q2 16 3.5 30.5t1.5 27.5zM384 740q-5 -6 -13 -6h-18q-7 0 -9 4t3 9l103 126q6 7 15 7h21
q8 0 9.5 -4.5t-3.5 -10.5z" />
    <glyph glyph-name="oslashacute" unicode="&#x1ff;" horiz-adv-x="472" 
d="M446 487q7 -7 1 -15l-33 -39q16 -29 16 -73q0 -11 -1 -22t-3 -22l-23 -144q-14 -92 -63.5 -138t-137.5 -46q-82 0 -123 41l-27 -32q-7 -7 -15 -1l-11 9q-7 7 -1 15l33 39q-16 31 -16 74q0 10 1 21t3 22l22 143q29 184 202 184q82 0 123 -41l27 32q7 8 15 2zM85 136
q0 -22 4 -38h1l276 332q-29 36 -98 36q-72 0 -109.5 -39t-50.5 -120l-19 -124q-2 -13 -3 -24.5t-1 -22.5zM388 355q0 23 -4 40h-1l-277 -333q28 -37 99 -37q72 0 109 38.5t50 121.5l20 124q4 23 4 46zM302 573q-5 -6 -13 -6h-18q-7 0 -9 4t3 9l103 126q6 7 15 7h21
q8 0 9.5 -4.5t-3.5 -10.5z" />
    <glyph glyph-name="Scommaaccent" unicode="&#x218;" horiz-adv-x="505" 
d="M323 676q135 0 184 -90q5 -11 -4 -16l-15 -9q-5 -4 -10 -2.5t-7 6.5q-38 72 -150 72q-42 0 -77.5 -12t-60.5 -33.5t-39 -52t-14 -66.5q0 -26 8 -45.5t26 -34t48 -25.5t75 -19q49 -9 83 -21.5t55 -31t30.5 -43t9.5 -57.5q0 -47 -17 -85.5t-48 -65.5t-74.5 -42t-96.5 -15
q-75 0 -128.5 26t-82.5 77q-6 10 3 16l15 11q11 8 18 -4q49 -87 178 -87q43 0 78 12t60 33.5t38.5 51.5t13.5 67q0 25 -8 44t-26 33.5t-48 25t-74 18.5q-50 9 -84 22t-55 31t-30.5 43t-9.5 58q0 48 17 87t47.5 66t74 42t97.5 15zM213 -53q14 0 22 -8.5t8 -22.5
q0 -19 -12.5 -42.5t-42.5 -35.5q-6 -3 -9 4l-3 6q-3 6 4 9q18 10 26 29q-28 2 -28 27q0 17 9.5 25.5t25.5 8.5z" />
    <glyph glyph-name="scommaaccent" unicode="&#x219;" horiz-adv-x="411" 
d="M364 149q0 -75 -50 -118t-137 -43q-117 0 -166 65q-8 10 1 17l12 10q9 8 16 -1q42 -54 138 -54q68 0 106.5 31.5t38.5 88.5q0 37 -27 57.5t-95 29.5q-79 11 -110 37t-31 76q0 73 52 115.5t142 42.5q41 0 76 -12.5t58 -35.5q8 -9 1 -16l-11 -11q-9 -9 -17 0
q-38 38 -109 38q-72 0 -111.5 -31t-39.5 -86q0 -17 5.5 -30t19 -23t36 -16.5t56.5 -11.5q41 -6 69 -15.5t45 -24t24.5 -34t7.5 -45.5zM163 -53q14 0 22 -8.5t8 -22.5q0 -19 -12.5 -42.5t-42.5 -35.5q-6 -3 -9 4l-3 6q-3 6 4 9q18 10 26 29q-28 2 -28 27q0 17 9.5 25.5
t25.5 8.5z" />
    <glyph glyph-name="uni021A" unicode="&#x21a;" horiz-adv-x="477" 
d="M224 11q-2 -11 -13 -11h-19q-13 0 -11 13l97 612h-185q-13 0 -11 13l2 15q2 11 13 11h414q13 0 11 -13l-3 -15q-2 -11 -13 -11h-185zM189 -53q14 0 22 -8.5t8 -22.5q0 -19 -12.5 -42.5t-42.5 -35.5q-6 -3 -9 4l-3 6q-3 6 4 9q18 10 26 29q-28 2 -28 27q0 17 9.5 25.5
t25.5 8.5z" />
    <glyph glyph-name="uni021B" unicode="&#x21b;" horiz-adv-x="349" 
d="M122 133q-3 -17 -3 -29q0 -79 86 -79q19 0 34.5 5t32.5 16q12 8 18 -3l6 -11q4 -10 -4 -17q-20 -14 -44 -20.5t-48 -6.5q-59 0 -90.5 28.5t-31.5 82.5q0 15 3 32l51 323h-66q-13 0 -11 13l2 13q2 11 13 11h68l19 125q2 11 13 11h17q13 0 11 -13l-19 -123h164q14 0 11 -13
l-3 -13q-2 -11 -13 -11h-165zM151 -53q14 0 22 -8.5t8 -22.5q0 -19 -12.5 -42.5t-42.5 -35.5q-6 -3 -9 4l-3 6q-3 6 4 9q18 10 26 29q-28 2 -28 27q0 17 9.5 25.5t25.5 8.5z" />
    <glyph glyph-name="uni0237" unicode="&#x237;" horiz-adv-x="196" 
d="M-67 -123q86 0 101 92l81 511q2 11 13 11h17q13 0 11 -13l-81 -509q-21 -129 -141 -129h-5q-13 0 -11 13l2 13q2 11 12 11h1z" />
    <glyph glyph-name="circumflex" unicode="&#x2c6;" horiz-adv-x="500" 
d="M230 573q-5 -6 -13 -6h-16q-8 0 -10 4t3 9l107 126q6 7 15 7h17q9 0 15 -9l65 -124q6 -13 -8 -13h-12q-9 0 -13 8l-58 104z" />
    <glyph glyph-name="caron" unicode="&#x2c7;" horiz-adv-x="500" 
d="M294 567q-9 0 -15 9l-65 124q-7 13 8 13h12q9 0 13 -8l58 -104l92 106q4 6 13 6h16q8 0 10 -4t-3 -9l-107 -126q-6 -7 -15 -7h-17z" />
    <glyph glyph-name="breve" unicode="&#x2d8;" horiz-adv-x="500" 
d="M425 689q13 0 10 -12q-13 -44 -46.5 -68t-79.5 -24q-48 0 -76 24.5t-30 68.5q0 11 11 11h10q9 0 11 -11q3 -27 22 -42.5t51 -15.5q33 0 58 15.5t36 44.5q3 9 13 9h10z" />
    <glyph glyph-name="dotaccent" unicode="&#x2d9;" horiz-adv-x="500" 
d="M309 598q-14 0 -22.5 8.5t-8.5 20.5q0 17 10.5 27t25.5 10q14 0 22.5 -8t8.5 -20q0 -17 -10.5 -27.5t-25.5 -10.5z" />
    <glyph glyph-name="ring" unicode="&#x2da;" horiz-adv-x="500" 
d="M307 564q-31 0 -50.5 19.5t-19.5 49.5q0 35 24 59t59 24q30 0 49.5 -19t19.5 -48q0 -37 -24 -61t-58 -24zM308 596q20 0 34.5 14.5t14.5 36.5q0 17 -11 27t-29 10q-20 0 -34 -14.5t-14 -36.5q0 -17 10.5 -27t28.5 -10z" />
    <glyph glyph-name="ogonek" unicode="&#x2db;" horiz-adv-x="500" 
d="M263 7q-95 -46 -95 -108q0 -17 11.5 -28.5t30.5 -11.5q13 0 25.5 6t23.5 16q9 8 15 -1l7 -9q6 -8 -2 -15q-15 -13 -32 -20.5t-40 -7.5q-33 0 -53 18t-20 48q0 38 27.5 71t79.5 59z" />
    <glyph glyph-name="tilde" unicode="&#x2dc;" horiz-adv-x="500" 
d="M181 582q-12 0 -8 13q11 41 34 62t53 21q17 0 30.5 -7t30.5 -26q13 -14 22 -20t20 -6q19 0 32 12t22 39q3 8 12 8h13q11 0 8 -12q-26 -83 -88 -83q-18 0 -32 7.5t-30 25.5q-13 14 -22 20t-20 6q-35 0 -53 -51q-3 -9 -12 -9h-12z" />
    <glyph glyph-name="hungarumlaut" unicode="&#x2dd;" horiz-adv-x="500" 
d="M250 573q-5 -6 -13 -6h-14q-7 0 -9 4t2 9l95 126q6 7 15 7h18q8 0 10 -4.5t-3 -10.5zM386 573q-5 -6 -13 -6h-13q-7 0 -9 4t2 9l95 126q4 7 14 7h18q8 0 10 -4.5t-3 -10.5z" />
    <glyph glyph-name="Delta" unicode="&#x394;" horiz-adv-x="576" 
d="M329 655q4 9 14 9h23q11 0 13 -11l129 -640q3 -13 -10 -13h-494q-16 0 -9 14zM460 39l-112 569h-1l-291 -569h404z" />
    <glyph glyph-name="Omega" unicode="&#x3a9;" horiz-adv-x="582" 
d="M352 676q99 0 151 -46.5t52 -137.5q0 -14 -1.5 -28.5t-3.5 -29.5l-28 -176q-12 -80 -50 -135.5t-99 -82.5v-1h102q13 0 11 -13l-2 -15q-2 -11 -13 -11h-153q-13 0 -11 13l3 18q1 10 10 13q133 46 160 219l26 164q2 16 3.5 30.5t1.5 28.5q0 151 -161 151q-95 0 -147 -52
t-69 -160l-26 -164q-2 -16 -3.5 -30.5t-1.5 -28.5q0 -120 94 -157q10 -4 8 -15l-3 -19q0 -11 -12 -11h-153q-13 0 -11 13l2 15q2 11 13 11h108v1q-44 23 -66.5 65t-22.5 101q0 14 1.5 27.5t3.5 27.5l28 177q19 118 82.5 178t176.5 60z" />
    <glyph glyph-name="mu" unicode="&#x3bc;" horiz-adv-x="501" 
d="M418 169q-29 -181 -194 -181q-51 0 -84.5 19t-47.5 57h-1l-34 -213q-2 -11 -13 -11h-17q-13 0 -11 13l99 627q2 11 13 11h18q13 0 11 -13l-48 -299q-2 -11 -3 -22t-1 -21q0 -111 118 -111q69 0 106 37.5t50 118.5l47 299q2 11 13 11h17q13 0 11 -13z" />
    <glyph glyph-name="pi" unicode="&#x3c0;" horiz-adv-x="521" 
d="M173 454l-70 -443q-2 -11 -13 -11h-17q-13 0 -11 13l70 441h-66q-13 0 -11 13l2 13q2 11 13 11h459q13 0 11 -13l-2 -13q-2 -11 -13 -11h-68l-70 -443q-2 -11 -13 -11h-17q-13 0 -11 13l70 441h-243z" />
    <glyph glyph-name="uni1E02" unicode="&#x1e02;" horiz-adv-x="561" 
d="M402 338q106 -27 106 -137q0 -103 -59.5 -152t-187.5 -49h-198q-13 0 -11 13l101 640q2 11 13 11h179q98 0 147 -35t49 -109t-33.5 -119.5t-105.5 -61.5v-1zM297 357q103 0 151.5 38t48.5 119q0 58 -38 84.5t-117 26.5h-150l-43 -268h148zM465 202q0 61 -38 88.5
t-116 27.5h-168l-44 -279h166q103 0 151.5 40t48.5 123zM360 765q-14 0 -22.5 8.5t-8.5 20.5q0 17 10.5 27t25.5 10q14 0 22.5 -8t8.5 -20q0 -17 -10.5 -27.5t-25.5 -10.5z" />
    <glyph glyph-name="uni1E03" unicode="&#x1e03;" horiz-adv-x="487" 
d="M290 503q76 0 115.5 -36t39.5 -106q0 -22 -4 -45l-22 -143q-29 -185 -202 -185q-77 0 -118 36.5t-41 106.5q0 11 1 22t3 23l81 513q2 11 13 11h17q13 0 11 -13l-41 -254h1q48 70 146 70zM220 25q72 0 109.5 38.5t50.5 121.5l19 124q2 13 3 24.5t1 22.5q0 110 -120 110
q-69 0 -108 -40t-52 -119l-19 -124q-2 -13 -3 -24.5t-1 -22.5q0 -57 30 -84t90 -27zM182 796q-14 0 -22.5 8.5t-8.5 20.5q0 17 10.5 27t25.5 10q14 0 22.5 -8t8.5 -20q0 -17 -10.5 -27.5t-25.5 -10.5z" />
    <glyph glyph-name="uni1E0A" unicode="&#x1e0a;" horiz-adv-x="590" 
d="M363 664q99 0 149.5 -43.5t50.5 -129.5q0 -13 -1.5 -26.5t-3.5 -28.5l-34 -211q-18 -113 -82.5 -169t-179.5 -56h-199q-13 0 -11 13l101 640q2 11 13 11h197zM513 428q2 15 3.5 28.5t1.5 26.5q0 142 -159 142h-167l-93 -586h164q95 0 149.5 48.5t70.5 150.5zM366 765
q-14 0 -22.5 8.5t-8.5 20.5q0 17 10.5 27t25.5 10q14 0 22.5 -8t8.5 -20q0 -17 -10.5 -27.5t-25.5 -10.5z" />
    <glyph glyph-name="uni1E0B" unicode="&#x1e0b;" horiz-adv-x="487" 
d="M403 173q-14 -92 -63.5 -138.5t-137.5 -46.5q-77 0 -118.5 37t-41.5 108q0 10 1 21t3 22l22 143q29 184 201 184q104 0 133 -76h1l41 262q2 11 13 11h17q13 0 11 -13zM205 25q72 0 109.5 38.5t50.5 121.5l20 124q2 12 3 22.5t1 20.5q0 114 -119 114q-72 0 -110.5 -39
t-51.5 -120l-19 -124q-2 -13 -3 -24.5t-1 -22.5q0 -57 30 -84t90 -27zM484 796q-14 0 -22.5 8.5t-8.5 20.5q0 17 10.5 27t25.5 10q14 0 22.5 -8t8.5 -20q0 -17 -10.5 -27.5t-25.5 -10.5z" />
    <glyph glyph-name="uni1E1E" unicode="&#x1e1e;" horiz-adv-x="500" 
d="M441 352q13 0 11 -13l-3 -15q-2 -11 -13 -11h-294l-47 -302q-2 -11 -13 -11h-19q-13 0 -11 13l101 640q2 11 13 11h368q13 0 11 -13l-2 -15q-2 -11 -13 -11h-338l-43 -273h292zM356 765q-14 0 -22.5 8.5t-8.5 20.5q0 17 10.5 27t25.5 10q14 0 22.5 -8t8.5 -20
q0 -17 -10.5 -27.5t-25.5 -10.5z" />
    <glyph glyph-name="uni1E1F" unicode="&#x1e1f;" horiz-adv-x="316" 
d="M311 675q-54 0 -83 -32t-40 -97l-9 -55h164q14 0 11 -13l-3 -13q-3 -11 -13 -11h-165l-70 -443q-2 -11 -13 -11h-17q-13 0 -11 13l70 441h-66q-13 0 -11 13l2 13q2 11 13 11h68l10 62q12 78 53 118.5t111 40.5q29 0 52 -5t43 -18q13 -7 5 -18l-8 -12q-7 -10 -16 -3
q-15 11 -34 15t-43 4zM292 796q-14 0 -22.5 8.5t-8.5 20.5q0 17 10.5 27t25.5 10q14 0 22.5 -8t8.5 -20q0 -17 -10.5 -27.5t-25.5 -10.5z" />
    <glyph glyph-name="uni1E40" unicode="&#x1e40;" horiz-adv-x="808" 
d="M683 11q-2 -11 -13 -11h-19q-13 0 -11 13l94 591h-1l-346 -596q-4 -8 -15 -8h-13q-11 0 -14 10l-156 594h-1l-94 -593q-2 -11 -13 -11h-18q-13 0 -11 13l101 640q2 11 13 11h38q11 0 14 -10l156 -595l341 597q4 8 15 8h43q13 0 11 -13zM487 765q-14 0 -22.5 8.5
t-8.5 20.5q0 17 10.5 27t25.5 10q14 0 22.5 -8t8.5 -20q0 -17 -10.5 -27.5t-25.5 -10.5z" />
    <glyph glyph-name="uni1E41" unicode="&#x1e41;" horiz-adv-x="763" 
d="M560 503q71 0 109 -34.5t38 -102.5q0 -11 -1 -22t-3 -23l-49 -310q-2 -11 -13 -11h-17q-13 0 -11 13l48 301q2 12 3 23.5t1 21.5q0 56 -27 81.5t-82 25.5q-63 0 -96.5 -37.5t-46.5 -115.5l-48 -302q-2 -11 -13 -11h-17q-13 0 -11 13l48 301q4 23 4 46q0 55 -27 80.5
t-81 25.5q-63 0 -97 -38t-47 -116l-48 -301q-2 -11 -13 -11h-17q-13 0 -11 13l50 311q14 90 59 134.5t125 44.5q114 0 138 -86h1q42 86 152 86zM440 598q-14 0 -22.5 8.5t-8.5 20.5q0 17 10.5 27t25.5 10q14 0 22.5 -8t8.5 -20q0 -17 -10.5 -27.5t-25.5 -10.5z" />
    <glyph glyph-name="uni1E56" unicode="&#x1e56;" horiz-adv-x="538" 
d="M349 664q100 0 149.5 -39.5t49.5 -122.5q0 -114 -62.5 -168.5t-194.5 -54.5h-154l-42 -268q-2 -11 -13 -11h-19q-13 0 -11 13l101 640q2 11 13 11h183zM504 499q0 66 -39 96t-120 30h-153l-49 -307h152q108 0 158.5 43.5t50.5 137.5zM364 765q-14 0 -22.5 8.5t-8.5 20.5
q0 17 10.5 27t25.5 10q14 0 22.5 -8t8.5 -20q0 -17 -10.5 -27.5t-25.5 -10.5z" />
    <glyph glyph-name="uni1E57" unicode="&#x1e57;" horiz-adv-x="487" 
d="M286 503q77 0 118 -37t41 -107q0 -11 -1 -22t-3 -23l-22 -141q-15 -93 -63.5 -139t-134.5 -46q-52 0 -86 19.5t-48 58.5h-1l-34 -215q-2 -11 -13 -11h-18q-13 0 -11 13l74 464q15 92 64.5 139t137.5 47zM220 25q72 0 109 39t50 121l20 123q2 13 3 24.5t1 22.5
q0 57 -30 84t-90 27q-72 0 -109.5 -39t-50.5 -121l-19 -123q-2 -12 -3 -23t-1 -22q0 -57 30.5 -85t89.5 -28zM310 598q-14 0 -22.5 8.5t-8.5 20.5q0 17 10.5 27t25.5 10q14 0 22.5 -8t8.5 -20q0 -17 -10.5 -27.5t-25.5 -10.5z" />
    <glyph glyph-name="uni1E60" unicode="&#x1e60;" horiz-adv-x="505" 
d="M323 676q135 0 184 -90q5 -11 -4 -16l-15 -9q-5 -4 -10 -2.5t-7 6.5q-38 72 -150 72q-42 0 -77.5 -12t-60.5 -33.5t-39 -52t-14 -66.5q0 -26 8 -45.5t26 -34t48 -25.5t75 -19q49 -9 83 -21.5t55 -31t30.5 -43t9.5 -57.5q0 -47 -17 -85.5t-48 -65.5t-74.5 -42t-96.5 -15
q-75 0 -128.5 26t-82.5 77q-6 10 3 16l15 11q11 8 18 -4q49 -87 178 -87q43 0 78 12t60 33.5t38.5 51.5t13.5 67q0 25 -8 44t-26 33.5t-48 25t-74 18.5q-50 9 -84 22t-55 31t-30.5 43t-9.5 58q0 48 17 87t47.5 66t74 42t97.5 15zM341 765q-14 0 -22.5 8.5t-8.5 20.5
q0 17 10.5 27t25.5 10q14 0 22.5 -8t8.5 -20q0 -17 -10.5 -27.5t-25.5 -10.5z" />
    <glyph glyph-name="uni1E61" unicode="&#x1e61;" horiz-adv-x="411" 
d="M364 149q0 -75 -50 -118t-137 -43q-117 0 -166 65q-8 10 1 17l12 10q9 8 16 -1q42 -54 138 -54q68 0 106.5 31.5t38.5 88.5q0 37 -27 57.5t-95 29.5q-79 11 -110 37t-31 76q0 73 52 115.5t142 42.5q41 0 76 -12.5t58 -35.5q8 -9 1 -16l-11 -11q-9 -9 -17 0
q-38 38 -109 38q-72 0 -111.5 -31t-39.5 -86q0 -17 5.5 -30t19 -23t36 -16.5t56.5 -11.5q41 -6 69 -15.5t45 -24t24.5 -34t7.5 -45.5zM264 598q-14 0 -22.5 8.5t-8.5 20.5q0 17 10.5 27t25.5 10q14 0 22.5 -8t8.5 -20q0 -17 -10.5 -27.5t-25.5 -10.5z" />
    <glyph glyph-name="uni1E6A" unicode="&#x1e6a;" horiz-adv-x="477" 
d="M224 11q-2 -11 -13 -11h-19q-13 0 -11 13l97 612h-185q-13 0 -11 13l2 15q2 11 13 11h414q13 0 11 -13l-3 -15q-2 -11 -13 -11h-185zM323 765q-14 0 -22.5 8.5t-8.5 20.5q0 17 10.5 27t25.5 10q14 0 22.5 -8t8.5 -20q0 -17 -10.5 -27.5t-25.5 -10.5z" />
    <glyph glyph-name="uni1E6B" unicode="&#x1e6b;" horiz-adv-x="349" 
d="M122 133q-3 -17 -3 -29q0 -79 86 -79q19 0 34.5 5t32.5 16q12 8 18 -3l6 -11q4 -10 -4 -17q-20 -14 -44 -20.5t-48 -6.5q-59 0 -90.5 28.5t-31.5 82.5q0 15 3 32l51 323h-66q-13 0 -11 13l2 13q2 11 13 11h68l19 125q2 11 13 11h17q13 0 11 -13l-19 -123h164q14 0 11 -13
l-3 -13q-2 -11 -13 -11h-165zM198 728q-14 0 -22.5 8.5t-8.5 20.5q0 17 10.5 27t25.5 10q14 0 22.5 -8t8.5 -20q0 -17 -10.5 -27.5t-25.5 -10.5z" />
    <glyph glyph-name="Wgrave" unicode="&#x1e80;" horiz-adv-x="848" 
d="M556 0q-10 0 -12 11l-68 568h-1l-249 -570q-5 -9 -14 -9h-25q-10 0 -12 11l-78 640q-2 13 11 13h22q10 0 12 -11l67 -581h1l255 583q4 9 14 9h17q10 0 12 -11l72 -585h1l253 587q4 9 14 9h22q16 0 9 -14l-281 -641q-5 -9 -14 -9h-28zM503 734q-9 0 -13 8l-68 124
q-4 6 -1.5 10t9.5 4h18q9 0 14 -9l62 -124q6 -13 -8 -13h-13z" />
    <glyph glyph-name="wgrave" unicode="&#x1e81;" horiz-adv-x="676" 
d="M473 9q-5 -9 -14 -9h-23q-11 0 -13 11l-56 405h-1l-188 -407q-5 -9 -14 -9h-23q-11 0 -13 11l-65 467q-2 13 11 13h18q11 0 12 -10l56 -422h1l194 423q4 9 14 9h15q11 0 13 -11l59 -420h1l191 422q4 9 14 9h17q15 0 10 -14zM391 567q-9 0 -13 8l-68 124q-4 6 -1.5 10
t9.5 4h18q9 0 14 -9l62 -124q6 -13 -8 -13h-13z" />
    <glyph glyph-name="Wacute" unicode="&#x1e82;" horiz-adv-x="848" 
d="M556 0q-10 0 -12 11l-68 568h-1l-249 -570q-5 -9 -14 -9h-25q-10 0 -12 11l-78 640q-2 13 11 13h22q10 0 12 -11l67 -581h1l255 583q4 9 14 9h17q10 0 12 -11l72 -585h1l253 587q4 9 14 9h22q16 0 9 -14l-281 -641q-5 -9 -14 -9h-28zM517 740q-5 -6 -13 -6h-18q-7 0 -9 4
t3 9l103 126q6 7 15 7h21q8 0 9.5 -4.5t-3.5 -10.5z" />
    <glyph glyph-name="wacute" unicode="&#x1e83;" horiz-adv-x="676" 
d="M473 9q-5 -9 -14 -9h-23q-11 0 -13 11l-56 405h-1l-188 -407q-5 -9 -14 -9h-23q-11 0 -13 11l-65 467q-2 13 11 13h18q11 0 12 -10l56 -422h1l194 423q4 9 14 9h15q11 0 13 -11l59 -420h1l191 422q4 9 14 9h17q15 0 10 -14zM405 573q-5 -6 -13 -6h-18q-7 0 -9 4t3 9
l103 126q6 7 15 7h21q8 0 9.5 -4.5t-3.5 -10.5z" />
    <glyph glyph-name="Wdieresis" unicode="&#x1e84;" horiz-adv-x="848" 
d="M556 0q-10 0 -12 11l-68 568h-1l-249 -570q-5 -9 -14 -9h-25q-10 0 -12 11l-78 640q-2 13 11 13h22q10 0 12 -11l67 -581h1l255 583q4 9 14 9h17q10 0 12 -11l72 -585h1l253 587q4 9 14 9h22q16 0 9 -14l-281 -641q-5 -9 -14 -9h-28zM431 766q-13 0 -20.5 8.5t-7.5 20.5
q0 15 9.5 25.5t24.5 10.5q13 0 21 -8.5t8 -21.5q0 -14 -10 -24.5t-25 -10.5zM586 766q-13 0 -20.5 8.5t-7.5 20.5q0 15 9.5 25.5t24.5 10.5q13 0 21 -8.5t8 -21.5q0 -14 -10 -24.5t-25 -10.5z" />
    <glyph glyph-name="wdieresis" unicode="&#x1e85;" horiz-adv-x="676" 
d="M473 9q-5 -9 -14 -9h-23q-11 0 -13 11l-56 405h-1l-188 -407q-5 -9 -14 -9h-23q-11 0 -13 11l-65 467q-2 13 11 13h18q11 0 12 -10l56 -422h1l194 423q4 9 14 9h15q11 0 13 -11l59 -420h1l191 422q4 9 14 9h17q15 0 10 -14zM319 599q-13 0 -20.5 8.5t-7.5 20.5
q0 15 9.5 25.5t24.5 10.5q13 0 21 -8.5t8 -21.5q0 -14 -10 -24.5t-25 -10.5zM474 599q-13 0 -20.5 8.5t-7.5 20.5q0 15 9.5 25.5t24.5 10.5q13 0 21 -8.5t8 -21.5q0 -14 -10 -24.5t-25 -10.5z" />
    <glyph glyph-name="Ygrave" unicode="&#x1ef2;" horiz-adv-x="511" 
d="M239 11q-2 -11 -13 -11h-19q-13 0 -11 13l46 289l-162 348q-7 14 9 14h22q9 0 14 -9l144 -313l244 315q6 7 15 7h25q8 0 10 -4.5t-3 -10.5l-276 -352zM334 734q-9 0 -13 8l-68 124q-4 6 -1.5 10t9.5 4h18q9 0 14 -9l62 -124q6 -13 -8 -13h-13z" />
    <glyph glyph-name="ygrave" unicode="&#x1ef3;" horiz-adv-x="501" 
d="M384 -4q-13 -79 -63.5 -123.5t-132.5 -44.5q-49 0 -89 15t-68 45q-7 9 1 17l10 11q9 9 17 -1q47 -50 130 -50q67 0 106 37t50 106l10 61h-1q-45 -68 -143 -68q-74 0 -113 35t-39 104q0 11 1 22t3 23l47 295q2 11 13 11h17q13 0 11 -13l-46 -286q-2 -12 -3 -23t-1 -21
q0 -57 29.5 -83.5t88.5 -26.5q68 0 106 39t50 117l45 286q2 11 13 11h17q13 0 11 -13zM300 567q-9 0 -13 8l-68 124q-4 6 -1.5 10t9.5 4h18q9 0 14 -9l62 -124q6 -13 -8 -13h-13z" />
    <glyph glyph-name="uni2007" unicode="&#x2007;" horiz-adv-x="528" 
 />
    <glyph glyph-name="figuredash" unicode="&#x2012;" horiz-adv-x="528" 
d="M51 295q-13 0 -11 13l1 10q2 11 13 11h444q13 0 11 -13l-1 -10q-2 -11 -13 -11h-444z" />
    <glyph glyph-name="endash" unicode="&#x2013;" horiz-adv-x="500" 
d="M45 254q-13 0 -11 13l1 10q2 11 13 11h415q13 0 11 -13l-1 -10q-2 -11 -13 -11h-415z" />
    <glyph glyph-name="emdash" unicode="&#x2014;" horiz-adv-x="900" 
d="M45 254q-13 0 -11 13l1 10q2 11 13 11h816q13 0 11 -13l-1 -10q-2 -11 -13 -11h-816z" />
    <glyph glyph-name="quoteleft" unicode="&#x2018;" horiz-adv-x="210" 
d="M152 527q-14 0 -22.5 8.5t-8.5 24.5q0 29 18.5 60t50.5 54q7 5 11 -1l5 -7q4 -5 -3 -11q-15 -12 -26 -28t-16 -36q12 -1 20 -8.5t8 -20.5q0 -17 -10.5 -26t-26.5 -9z" />
    <glyph glyph-name="quoteright" unicode="&#x2019;" horiz-adv-x="210" 
d="M171 676q14 0 22.5 -8.5t8.5 -24.5q0 -29 -18.5 -60t-50.5 -54q-7 -6 -12 2l-4 6q-5 6 2 11q33 25 43 64q-12 1 -20 8.5t-8 20.5q0 17 10.5 26t26.5 9z" />
    <glyph glyph-name="quotesinglbase" unicode="&#x201a;" horiz-adv-x="210" 
d="M73 57q14 0 22.5 -8.5t8.5 -24.5q0 -29 -18.5 -60t-50.5 -54q-7 -6 -12 2l-4 6q-5 6 2 11q33 25 43 64q-12 1 -20 8.5t-8 20.5q0 17 10.5 26t26.5 9z" />
    <glyph glyph-name="quotedblleft" unicode="&#x201c;" horiz-adv-x="364" 
d="M307 527q-14 0 -22.5 8.5t-8.5 24.5q0 29 18.5 60t50.5 54q7 5 11 -1l5 -7q4 -5 -3 -11q-15 -12 -26 -28t-16 -36q12 -1 20 -8.5t8 -20.5q0 -17 -10.5 -26t-26.5 -9zM152 527q-14 0 -22.5 8.5t-8.5 24.5q0 29 18.5 60t50.5 54q7 5 11 -1l5 -7q4 -5 -3 -11
q-15 -12 -26 -28t-16 -36q12 -1 20 -8.5t8 -20.5q0 -17 -10.5 -26t-26.5 -9z" />
    <glyph glyph-name="quotedblright" unicode="&#x201d;" horiz-adv-x="364" 
d="M171 676q14 0 22.5 -8.5t8.5 -24.5q0 -29 -18.5 -60t-50.5 -54q-7 -6 -12 2l-4 6q-5 6 2 11q33 25 43 64q-12 1 -20 8.5t-8 20.5q0 17 10.5 26t26.5 9zM326 676q14 0 22.5 -8.5t8.5 -24.5q0 -29 -18.5 -60t-50.5 -54q-7 -6 -12 2l-4 6q-5 6 2 11q33 25 43 64
q-12 1 -20 8.5t-8 20.5q0 17 10.5 26t26.5 9z" />
    <glyph glyph-name="quotedblbase" unicode="&#x201e;" horiz-adv-x="364" 
d="M228 57q14 0 22.5 -8.5t8.5 -24.5q0 -29 -18.5 -60t-50.5 -54q-7 -6 -12 2l-4 6q-5 6 2 11q33 25 43 64q-12 1 -20 8.5t-8 20.5q0 17 10.5 26t26.5 9zM73 57q14 0 22.5 -8.5t8.5 -24.5q0 -29 -18.5 -60t-50.5 -54q-7 -6 -12 2l-4 6q-5 6 2 11q33 25 43 64q-12 1 -20 8.5
t-8 20.5q0 17 10.5 26t26.5 9z" />
    <glyph glyph-name="dagger" unicode="&#x2020;" horiz-adv-x="432" 
d="M212 98q-1 -10 -12 -10h-15q-12 0 -10 12l63 400h-142q-12 0 -10 12l2 12q1 10 12 10h144l24 156q1 10 12 10h15q11 0 10 -12l-24 -154h142q11 0 10 -12l-2 -12q-1 -10 -12 -10h-144z" />
    <glyph glyph-name="daggerdbl" unicode="&#x2021;" horiz-adv-x="432" 
d="M383 288q11 0 10 -12l-2 -12q-1 -10 -12 -10h-143l-25 -156q-1 -10 -12 -10h-15q-12 0 -10 12l25 154h-142q-12 0 -10 12l2 12q1 10 12 10h143l34 212h-143q-12 0 -10 12l2 12q1 10 12 10h144l25 156q1 10 12 10h15q11 0 10 -12l-25 -154h142q11 0 10 -12l-2 -12
q-1 -10 -12 -10h-143l-34 -212h142z" />
    <glyph glyph-name="bullet" unicode="&#x2022;" horiz-adv-x="500" 
d="M248 180q-45 0 -73.5 28.5t-28.5 71.5q0 25 10 47.5t26.5 39t38.5 26t46 9.5q45 0 73.5 -29t28.5 -72q0 -25 -10 -47t-26.5 -38.5t-38.5 -26t-46 -9.5z" />
    <glyph glyph-name="ellipsis" unicode="&#x2026;" horiz-adv-x="900" 
d="M689 -12q-14 0 -23 8.5t-9 21.5q0 17 11.5 28t27.5 11q14 0 22.5 -8.5t8.5 -22.5q0 -17 -10.5 -27.5t-27.5 -10.5zM411 -12q-14 0 -23 8.5t-9 21.5q0 17 11.5 28t27.5 11q14 0 22.5 -8.5t8.5 -22.5q0 -17 -10.5 -27.5t-27.5 -10.5zM134 -12q-14 0 -23 8.5t-9 21.5
q0 17 11.5 28t27.5 11q14 0 22.5 -8.5t8.5 -22.5q0 -17 -10.5 -27.5t-27.5 -10.5z" />
    <glyph glyph-name="perthousand" unicode="&#x2030;" horiz-adv-x="902" 
d="M629 188q18 120 129 120q49 0 75.5 -24t26.5 -70v-14t-2 -15l-11 -76q-18 -121 -129 -121q-50 0 -77 24t-27 71q0 14 3 29zM653 113q-2 -8 -2 -15v-13q0 -34 17 -49t52 -15q42 0 63 22t29 71l11 70q2 8 2 14.5v13.5q0 33 -17 48t-52 15q-43 0 -63.5 -22.5t-28.5 -70.5z
M78 516q18 120 129 120q49 0 75.5 -24t26.5 -70v-14t-2 -15l-11 -76q-18 -121 -129 -121q-50 0 -77 24t-27 71q0 14 3 29zM102 441q-2 -8 -2 -15v-13q0 -34 17 -49t52 -15q42 0 63 22t29 71l11 70q2 8 2 14.5v13.5q0 33 -17 48t-52 15q-43 0 -63.5 -22.5t-28.5 -70.5z
M347 188q18 120 129 120q49 0 75.5 -24t26.5 -70v-14t-2 -15l-11 -76q-18 -121 -129 -121q-50 0 -77 24t-27 71q0 14 3 29zM371 113q-2 -8 -2 -15v-13q0 -34 17 -49t52 -15q42 0 63 22t29 71l11 70q2 8 2 14.5v13.5q0 33 -17 48t-52 15q-43 0 -63.5 -22.5t-28.5 -70.5z
M548 618q4 6 13 6h18q7 0 9 -4t-3 -9l-491 -605q-5 -6 -13 -6h-19q-7 0 -9 4t3 9z" />
    <glyph glyph-name="guilsinglleft" unicode="&#x2039;" horiz-adv-x="227" 
d="M132 59q-10 0 -14 9l-85 169q-5 9 2 17l137 171q6 7 15 7h14q8 0 10 -4.5t-3 -10.5l-138 -175l83 -169q7 -14 -9 -14h-12z" />
    <glyph glyph-name="guilsinglright" unicode="&#x203a;" horiz-adv-x="227" 
d="M28 59q-8 0 -10 4.5t3 10.5l137 175l-83 169q-7 14 9 14h12q9 0 14 -9l85 -168q4 -8 -2 -17l-136 -172q-6 -7 -15 -7h-14z" />
    <glyph glyph-name="fraction" unicode="&#x2044;" horiz-adv-x="130" 
d="M303 618q4 6 13 6h18q7 0 9 -4t-3 -9l-492 -605q-5 -6 -13 -6h-17q-7 0 -9 4t3 9z" />
    <glyph glyph-name="uni2070" unicode="&#x2070;" 
d="M100 625q21 131 141 131q54 0 83 -26.5t29 -77.5v-15t-2 -15l-22 -134q-11 -66 -44.5 -99t-96.5 -33q-54 0 -83 26t-29 77q0 15 3 32zM114 495q-3 -17 -3 -31q0 -76 80 -76q47 0 71 25t33 80l20 125q3 16 3 30q0 76 -79 76q-48 0 -71.5 -25t-32.5 -79z" />
    <glyph glyph-name="uni2074" unicode="&#x2074;" 
d="M285 373q-1 -10 -12 -10h-13q-12 0 -10 12l13 80h-185q-12 0 -10 12l2 15q2 9 6 13l228 247q6 7 14 7h15q11 0 10 -12l-40 -250h34q11 0 11 -12l-1 -10q-1 -10 -12 -10h-37zM112 487h156l33 206h-1z" />
    <glyph glyph-name="uni2075" unicode="&#x2075;" 
d="M143 584q19 11 40 17.5t45 6.5q48 0 78.5 -29.5t30.5 -80.5q0 -66 -40 -104t-111 -38q-80 0 -115 54q-6 9 2 15l10 7q9 6 15 -3q26 -41 89 -41q53 0 84 29t31 80q0 37 -22.5 58t-59.5 21q-52 0 -90 -32q-5 -5 -14 -4l-5 1q-11 2 -9 13l42 185q1 10 12 10h190q11 0 10 -12
l-1 -10q-1 -10 -12 -10h-171l-30 -133h1z" />
    <glyph glyph-name="uni2076" unicode="&#x2076;" 
d="M231 609q46 0 75.5 -29.5t29.5 -79.5q0 -66 -38.5 -105t-101.5 -39q-51 0 -82 30.5t-31 79.5q0 5 0.5 11t1.5 12l22 140q10 60 46 93.5t95 33.5q33 0 59.5 -11t43.5 -31q6 -8 -2 -16l-10 -8q-9 -6 -15 2q-26 32 -75 32q-91 0 -108 -103l-9 -53h1q35 41 98 41zM198 388
q45 0 74 30t29 79q0 38 -21.5 59t-56.5 21q-42 0 -69.5 -26t-34.5 -69q-1 -5 -1.5 -9.5t-0.5 -9.5q0 -34 22 -54.5t59 -20.5z" />
    <glyph glyph-name="uni2077" unicode="&#x2077;" 
d="M383 722q-2 -9 -5 -13l-223 -339q-4 -7 -14 -7h-15q-7 0 -9 4t2 9l225 341h-192l-9 -58q-1 -10 -12 -10h-12q-12 0 -10 12l12 78q1 10 12 10h243q11 0 10 -12z" />
    <glyph glyph-name="uni2078" unicode="&#x2078;" 
d="M354 665q0 -39 -19.5 -65t-57.5 -36v-1q58 -24 58 -86q0 -58 -39 -89.5t-105 -31.5q-60 0 -93 26.5t-33 74.5q0 44 24 72t66 38v1q-49 22 -49 73q0 54 35.5 84.5t97.5 30.5q55 0 85 -24t30 -67zM320 662q0 62 -82 62q-46 0 -71.5 -22.5t-25.5 -60.5q0 -29 20.5 -44.5
t59.5 -15.5q45 0 72 21.5t27 59.5zM301 481q0 33 -23.5 50.5t-67.5 17.5q-51 0 -80.5 -24.5t-29.5 -67.5q0 -33 23.5 -51t68.5 -18q51 0 80 25t29 68z" />
    <glyph glyph-name="uni2079" unicode="&#x2079;" 
d="M234 756q51 0 82 -30.5t31 -79.5q0 -5 -0.5 -11t-1.5 -12l-22 -140q-10 -60 -46 -93.5t-95 -33.5q-33 0 -60 11t-43 32q-6 8 2 16l7 6q9 8 17 -1q26 -32 76 -32q91 0 108 103l9 53h-1q-17 -20 -41.5 -30.5t-56.5 -10.5q-46 0 -75.5 29.5t-29.5 79.5q0 66 38.5 105
t101.5 39zM207 535q42 0 69.5 26t34.5 69q1 5 1 9v9q0 34 -21.5 55t-58.5 21q-45 0 -74 -30t-29 -80q0 -37 21.5 -58t56.5 -21z" />
    <glyph glyph-name="uni2080" unicode="&#x2080;" 
d="M17 102q21 131 141 131q54 0 83 -26.5t29 -77.5v-15t-2 -15l-22 -134q-11 -66 -44.5 -99t-96.5 -33q-54 0 -83 26t-29 77q0 15 3 32zM31 -28q-3 -17 -3 -31q0 -76 80 -76q47 0 71 25t33 80l20 125q3 16 3 30q0 76 -79 76q-48 0 -71.5 -25t-32.5 -79z" />
    <glyph glyph-name="uni2081" unicode="&#x2081;" 
d="M178 -150q-1 -10 -12 -10h-13q-12 0 -10 12l52 325l-100 -67q-9 -6 -15 3l-5 8q-6 9 3 15l127 86q5 4 13 4h8q11 0 10 -12z" />
    <glyph glyph-name="uni2082" unicode="&#x2082;" 
d="M270 137q0 -19 -3.5 -35t-12.5 -31t-23.5 -30.5t-36.5 -34.5l-154 -133v-1h178q11 0 10 -12l-2 -10q-1 -10 -12 -10h-219q-12 0 -10 12l2 10q1 7 7 13l176 155q35 31 49.5 54t14.5 51q0 31 -18.5 48.5t-53.5 17.5q-64 0 -98 -53q-7 -10 -15 -3l-9 7q-9 6 -3 15
q23 32 56.5 49t72.5 17q48 0 76 -26t28 -70z" />
    <glyph glyph-name="uni2083" unicode="&#x2083;" 
d="M275 142q0 -39 -19.5 -65t-57.5 -34v-1q27 -11 42.5 -32.5t15.5 -53.5q0 -59 -38 -91t-104 -32q-45 0 -75 14t-48 40q-5 9 3 15l9 7q9 6 15 -3q27 -41 96 -41q50 0 78.5 25t28.5 69q0 67 -91 67h-28q-11 0 -11 12l1 10q1 10 12 10h26q109 0 109 79q0 32 -20 48t-57 16
q-31 0 -55 -11.5t-43 -31.5q-7 -9 -16 0l-7 7q-8 8 -1 15q26 27 58 40t68 13q50 0 79.5 -24t29.5 -67z" />
    <glyph glyph-name="uni2084" unicode="&#x2084;" 
d="M202 -150q-1 -10 -12 -10h-13q-12 0 -10 12l13 80h-185q-12 0 -10 12l2 15q1 4 2 7t4 6l228 247q6 7 14 7h15q11 0 10 -12l-40 -250h34q11 0 11 -12l-1 -10q-1 -10 -12 -10h-37zM29 -36h156l33 206h-1z" />
    <glyph glyph-name="uni2085" unicode="&#x2085;" 
d="M60 61q19 11 40 17.5t45 6.5q48 0 78.5 -29.5t30.5 -80.5q0 -66 -40 -104t-111 -38q-80 0 -115 54q-6 9 2 15l10 7q9 6 15 -3q26 -41 89 -41q53 0 84 29t31 80q0 37 -22.5 58t-59.5 21q-52 0 -90 -32q-5 -5 -14 -4l-5 1q-11 2 -9 13l42 185q1 10 12 10h190q11 0 10 -12
l-1 -10q-1 -10 -12 -10h-171l-30 -133h1z" />
    <glyph glyph-name="uni2086" unicode="&#x2086;" 
d="M148 86q46 0 75.5 -29.5t29.5 -79.5q0 -66 -38.5 -105t-101.5 -39q-51 0 -82 30.5t-31 79.5q0 5 0.5 11t1.5 12l22 140q10 60 46 93.5t95 33.5q33 0 59.5 -11t43.5 -31q6 -8 -2 -16l-10 -8q-9 -6 -15 2q-26 32 -75 32q-91 0 -108 -103l-9 -53h1q35 41 98 41zM115 -135
q45 0 74 30t29 79q0 38 -21.5 59t-56.5 21q-42 0 -69.5 -26t-34.5 -69q-1 -5 -1.5 -9.5t-0.5 -9.5q0 -34 22 -54.5t59 -20.5z" />
    <glyph glyph-name="uni2087" unicode="&#x2087;" 
d="M300 199q-2 -9 -5 -13l-223 -339q-4 -7 -14 -7h-15q-7 0 -9 4t2 9l225 341h-192l-9 -58q-1 -10 -12 -10h-12q-12 0 -10 12l12 78q1 10 12 10h243q11 0 10 -12z" />
    <glyph glyph-name="uni2088" unicode="&#x2088;" 
d="M271 142q0 -39 -19.5 -65t-57.5 -36v-1q58 -24 58 -86q0 -58 -39 -89.5t-105 -31.5q-60 0 -93 26.5t-33 74.5q0 44 24 72t66 38v1q-49 22 -49 73q0 54 35.5 84.5t97.5 30.5q55 0 85 -24t30 -67zM237 139q0 62 -82 62q-46 0 -71.5 -22.5t-25.5 -60.5q0 -29 20.5 -44.5
t59.5 -15.5q45 0 72 21.5t27 59.5zM218 -42q0 33 -23.5 50.5t-67.5 17.5q-51 0 -80.5 -24.5t-29.5 -67.5q0 -33 23.5 -51t68.5 -18q51 0 80 25t29 68z" />
    <glyph glyph-name="uni2089" unicode="&#x2089;" 
d="M151 233q51 0 82 -30.5t31 -79.5q0 -5 -0.5 -11t-1.5 -12l-22 -140q-10 -60 -46 -93.5t-95 -33.5q-33 0 -60 11t-43 32q-6 8 2 16l7 6q9 8 17 -1q26 -32 76 -32q91 0 108 103l9 53h-1q-17 -20 -41.5 -30.5t-56.5 -10.5q-46 0 -75.5 29.5t-29.5 79.5q0 66 38.5 105
t101.5 39zM124 12q42 0 69.5 26t34.5 69q1 5 1 9v9q0 34 -21.5 55t-58.5 21q-45 0 -74 -30t-29 -80q0 -37 21.5 -58t56.5 -21z" />
    <glyph glyph-name="Euro" unicode="&#x20ac;" horiz-adv-x="528" 
d="M344 598q-81 0 -127 -47t-61 -144h241q15 0 10 -14l-5 -12q-4 -10 -14 -10h-237l-17 -109h210q15 0 10 -14l-5 -13q-4 -10 -14 -10h-207l-2 -14q-2 -14 -3 -26.5t-1 -24.5q0 -68 36 -101t105 -33q108 0 163 89q7 11 17 4l13 -8q10 -7 4 -17q-35 -53 -84.5 -79.5
t-117.5 -26.5q-87 0 -133.5 43t-46.5 124q0 12 1 24.5t3 25.5l3 20h-38q-13 0 -11 13l2 13q2 11 13 11h40l18 109h-39q-13 0 -11 13l2 12q2 11 13 11h41l2 15q17 105 74 159.5t156 54.5q65 0 112 -28t68 -80q5 -11 -6 -16l-16 -7q-11 -5 -15 6q-17 44 -55 65.5t-91 21.5z
" />
    <glyph glyph-name="uni20B9" unicode="&#x20b9;" horiz-adv-x="528" 
d="M411 587q62 -35 62 -118v-8h50q13 0 8 -13l-5 -14q-3 -9 -12 -9h-44q-13 -85 -75 -123.5t-187 -38.5h-76v-1l258 -247q6 -5 4 -10t-10 -5h-27q-9 0 -15 6l-268 259q-7 7 -4 16l4 11q3 9 13 9h124q102 0 153 29.5t64 94.5h-328q-13 0 -8 13l5 14q3 9 12 9h323v7
q0 63 -41.5 90.5t-132.5 27.5h-132q-14 0 -9 14l5 14q3 10 13 10h413q13 0 8 -13l-5 -14q-3 -9 -12 -9h-128v-1z" />
    <glyph glyph-name="afii61289" unicode="&#x2113;" horiz-adv-x="405" 
d="M140 142q-3 -18 -3 -34q0 -82 78 -82q22 0 41 8t38 23q10 9 18 -3l7 -12q5 -9 -4 -17q-25 -20 -50.5 -28.5t-54.5 -8.5q-56 0 -85.5 29.5t-29.5 83.5q0 18 3 38l3 19h-1q-13 -8 -26 -15.5t-27 -15.5q-11 -6 -16 5l-6 12q-5 11 5 17q21 12 40.5 23t38.5 23l46 297
q10 64 45.5 98t91.5 34q46 0 70.5 -26t24.5 -74q0 -88 -61.5 -177.5t-178.5 -169.5zM156 241q93 69 142 145t49 146q0 66 -58 66q-76 0 -93 -101l-41 -256h1z" />
    <glyph glyph-name="uni2117" unicode="&#x2117;" horiz-adv-x="776" 
d="M443 516q113 0 113 -87q0 -65 -34.5 -98t-110.5 -33h-78l-22 -140q-1 -10 -12 -10h-12q-12 0 -10 12l55 346q1 10 12 10h99zM521 423q0 32 -19.5 47t-61.5 15h-77l-25 -156h75q56 0 82 24.5t26 69.5zM56 287q0 80 30.5 151t83.5 124t123 83.5t150 30.5q67 0 123.5 -22.5
t97 -62t63 -94.5t22.5 -120q0 -80 -31 -151t-83.5 -124t-123.5 -83.5t-150 -30.5q-68 0 -124 22.5t-96 62t-62.5 94.5t-22.5 120zM89 288q0 -59 20 -108t56.5 -85t87 -56t111.5 -20q72 0 136 28.5t112 77t76 113.5t28 138q0 59 -20 108.5t-56.5 85t-87 55.5t-111.5 20
q-72 0 -136 -28.5t-112 -77.5t-76 -113.5t-28 -137.5z" />
    <glyph glyph-name="trademark" unicode="&#x2122;" horiz-adv-x="758" 
d="M326 643q-1 -10 -11 -10h-97l-49 -313q-1 -10 -12 -10h-13q-12 0 -10 12l49 311h-94q-12 0 -10 12l1 9q2 10 11 10h226q11 0 10 -12zM711 320q-1 -10 -12 -10h-13q-12 0 -10 12l47 298h-1l-179 -303q-4 -7 -13 -7h-9q-10 0 -13 9l-82 298h-1l-47 -297q-1 -10 -12 -10h-11
q-12 0 -10 12l52 332q1 10 12 10h27q10 0 13 -9l82 -297h1l177 299q4 7 13 7h31q11 0 10 -12z" />
    <glyph glyph-name="uni2126" unicode="&#x2126;" horiz-adv-x="576" 
d="M349 676q99 0 151 -46.5t52 -137.5q0 -14 -1.5 -28.5t-3.5 -29.5l-28 -176q-12 -80 -50 -135.5t-99 -82.5v-1h102q13 0 11 -13l-2 -15q-2 -11 -13 -11h-153q-13 0 -11 13l3 18q1 10 10 13q133 46 160 219l26 164q2 16 3.5 30.5t1.5 28.5q0 151 -161 151q-95 0 -147 -52
t-69 -160l-26 -164q-2 -16 -3.5 -30.5t-1.5 -28.5q0 -120 94 -157q10 -4 8 -15l-3 -19q0 -11 -12 -11h-153q-13 0 -11 13l2 15q2 11 13 11h108v1q-44 23 -66.5 65t-22.5 101q0 14 1.5 27.5t3.5 27.5l28 177q19 118 82.5 178t176.5 60z" />
    <glyph glyph-name="estimated" unicode="&#x212e;" horiz-adv-x="820" 
d="M203 112q42 -48 99.5 -75.5t123.5 -27.5q70 0 130 31t103 84h54q-51 -62 -126 -98.5t-163 -36.5q-75 0 -141 27t-115 73.5t-77.5 109.5t-28.5 134q0 72 28.5 134.5t77.5 109t115 73.5t141 27t141 -27t115 -73.5t77.5 -109t28.5 -134.5v-8h-587q-4 0 -4 -4v-189
q0 -6 2.5 -10.5t5.5 -9.5zM649 343q6 0 6 6v189q0 12 -10 22q-43 45 -99.5 71t-119.5 26q-66 0 -123 -27t-100 -74q-3 -5 -5.5 -10.5t-2.5 -11.5v-185q0 -6 4 -6h450z" />
    <glyph glyph-name="onethird" unicode="&#x2153;" horiz-adv-x="790" 
d="M633 618q4 6 13 6h18q7 0 9 -4t-3 -9l-492 -605q-5 -6 -13 -6h-17q-7 0 -9 4t3 9zM761 302q0 -39 -19.5 -65t-57.5 -34v-1q27 -11 42.5 -32.5t15.5 -53.5q0 -59 -38 -91t-104 -32q-45 0 -75 14t-48 40q-5 9 3 15l9 7q9 6 15 -3q27 -41 96 -41q50 0 78.5 25t28.5 69
q0 67 -91 67h-28q-11 0 -11 12l1 10q1 10 12 10h26q109 0 109 79q0 32 -20 48t-57 16q-31 0 -55 -11.5t-43 -31.5q-7 -9 -16 0l-7 7q-8 8 -1 15q26 27 58 40t68 13q50 0 79.5 -24t29.5 -67zM242 248q-1 -10 -12 -10h-13q-12 0 -10 12l52 325l-100 -67q-9 -6 -15 3l-5 8
q-6 9 3 15l127 86q5 4 13 4h8q11 0 10 -12z" />
    <glyph glyph-name="twothirds" unicode="&#x2154;" horiz-adv-x="790" 
d="M660 618q4 6 13 6h18q7 0 9 -4t-3 -9l-492 -605q-5 -6 -13 -6h-17q-7 0 -9 4t3 9zM761 302q0 -39 -19.5 -65t-57.5 -34v-1q27 -11 42.5 -32.5t15.5 -53.5q0 -59 -38 -91t-104 -32q-45 0 -75 14t-48 40q-5 9 3 15l9 7q9 6 15 -3q27 -41 96 -41q50 0 78.5 25t28.5 69
q0 67 -91 67h-28q-11 0 -11 12l1 10q1 10 12 10h26q109 0 109 79q0 32 -20 48t-57 16q-31 0 -55 -11.5t-43 -31.5q-7 -9 -16 0l-7 7q-8 8 -1 15q26 27 58 40t68 13q50 0 79.5 -24t29.5 -67zM334 535q0 -19 -3.5 -35t-12.5 -31t-23.5 -30.5t-36.5 -34.5l-154 -133v-1h178
q11 0 10 -12l-2 -10q-1 -10 -12 -10h-219q-12 0 -10 12l2 10q1 7 7 13l176 155q35 31 49.5 54t14.5 51q0 31 -18.5 48.5t-53.5 17.5q-64 0 -98 -53q-7 -10 -15 -3l-9 7q-9 6 -3 15q23 32 56.5 49t72.5 17q48 0 76 -26t28 -70z" />
    <glyph glyph-name="oneeighth" unicode="&#x215b;" horiz-adv-x="790" 
d="M633 618q4 6 13 6h18q7 0 9 -4t-3 -9l-492 -605q-5 -6 -13 -6h-17q-7 0 -9 4t3 9zM757 302q0 -39 -19.5 -65t-57.5 -36v-1q58 -24 58 -86q0 -58 -39 -89.5t-105 -31.5q-60 0 -93 26.5t-33 74.5q0 44 24 72t66 38v1q-49 22 -49 73q0 54 35.5 84.5t97.5 30.5q55 0 85 -24
t30 -67zM723 299q0 62 -82 62q-46 0 -71.5 -22.5t-25.5 -60.5q0 -29 20.5 -44.5t59.5 -15.5q45 0 72 21.5t27 59.5zM704 118q0 33 -23.5 50.5t-67.5 17.5q-51 0 -80.5 -24.5t-29.5 -67.5q0 -33 23.5 -51t68.5 -18q51 0 80 25t29 68zM242 248q-1 -10 -12 -10h-13
q-12 0 -10 12l52 325l-100 -67q-9 -6 -15 3l-5 8q-6 9 3 15l127 86q5 4 13 4h8q11 0 10 -12z" />
    <glyph glyph-name="threeeighths" unicode="&#x215c;" horiz-adv-x="790" 
d="M638 618q4 6 13 6h18q7 0 9 -4t-3 -9l-492 -605q-5 -6 -13 -6h-17q-7 0 -9 4t3 9zM757 302q0 -39 -19.5 -65t-57.5 -36v-1q58 -24 58 -86q0 -58 -39 -89.5t-105 -31.5q-60 0 -93 26.5t-33 74.5q0 44 24 72t66 38v1q-49 22 -49 73q0 54 35.5 84.5t97.5 30.5q55 0 85 -24
t30 -67zM723 299q0 62 -82 62q-46 0 -71.5 -22.5t-25.5 -60.5q0 -29 20.5 -44.5t59.5 -15.5q45 0 72 21.5t27 59.5zM704 118q0 33 -23.5 50.5t-67.5 17.5q-51 0 -80.5 -24.5t-29.5 -67.5q0 -33 23.5 -51t68.5 -18q51 0 80 25t29 68zM339 540q0 -39 -19.5 -65t-57.5 -34v-1
q27 -11 42.5 -32.5t15.5 -53.5q0 -59 -38 -91t-104 -32q-45 0 -75 14t-48 40q-5 9 3 15l9 7q9 6 15 -3q27 -41 96 -41q50 0 78.5 25t28.5 69q0 67 -91 67h-28q-11 0 -11 12l1 10q1 10 12 10h26q109 0 109 79q0 32 -20 48t-57 16q-31 0 -55 -11.5t-43 -31.5q-7 -9 -16 0l-7 7
q-8 8 -1 15q26 27 58 40t68 13q50 0 79.5 -24t29.5 -67z" />
    <glyph glyph-name="fiveeighths" unicode="&#x215d;" horiz-adv-x="790" 
d="M638 618q4 6 13 6h18q7 0 9 -4t-3 -9l-492 -605q-5 -6 -13 -6h-17q-7 0 -9 4t3 9zM757 302q0 -39 -19.5 -65t-57.5 -36v-1q58 -24 58 -86q0 -58 -39 -89.5t-105 -31.5q-60 0 -93 26.5t-33 74.5q0 44 24 72t66 38v1q-49 22 -49 73q0 54 35.5 84.5t97.5 30.5q55 0 85 -24
t30 -67zM723 299q0 62 -82 62q-46 0 -71.5 -22.5t-25.5 -60.5q0 -29 20.5 -44.5t59.5 -15.5q45 0 72 21.5t27 59.5zM704 118q0 33 -23.5 50.5t-67.5 17.5q-51 0 -80.5 -24.5t-29.5 -67.5q0 -33 23.5 -51t68.5 -18q51 0 80 25t29 68zM124 459q19 11 40 17.5t45 6.5
q48 0 78.5 -29.5t30.5 -80.5q0 -66 -40 -104t-111 -38q-80 0 -115 54q-6 9 2 15l10 7q9 6 15 -3q26 -41 89 -41q53 0 84 29t31 80q0 37 -22.5 58t-59.5 21q-52 0 -90 -32q-5 -5 -14 -4l-5 1q-11 2 -9 13l42 185q1 10 12 10h190q11 0 10 -12l-1 -10q-1 -10 -12 -10h-171
l-30 -133h1z" />
    <glyph glyph-name="seveneighths" unicode="&#x215e;" horiz-adv-x="790" 
d="M594 618q4 6 13 6h18q7 0 9 -4t-3 -9l-492 -605q-5 -6 -13 -6h-17q-7 0 -9 4t3 9zM757 302q0 -39 -19.5 -65t-57.5 -36v-1q58 -24 58 -86q0 -58 -39 -89.5t-105 -31.5q-60 0 -93 26.5t-33 74.5q0 44 24 72t66 38v1q-49 22 -49 73q0 54 35.5 84.5t97.5 30.5q55 0 85 -24
t30 -67zM723 299q0 62 -82 62q-46 0 -71.5 -22.5t-25.5 -60.5q0 -29 20.5 -44.5t59.5 -15.5q45 0 72 21.5t27 59.5zM704 118q0 33 -23.5 50.5t-67.5 17.5q-51 0 -80.5 -24.5t-29.5 -67.5q0 -33 23.5 -51t68.5 -18q51 0 80 25t29 68zM364 597q-2 -9 -5 -13l-223 -339
q-4 -7 -14 -7h-15q-7 0 -9 4t2 9l225 341h-192l-9 -58q-1 -10 -12 -10h-12q-12 0 -10 12l12 78q1 10 12 10h243q11 0 10 -12z" />
    <glyph glyph-name="partialdiff" unicode="&#x2202;" horiz-adv-x="538" 
d="M342 676q88 0 130.5 -52t42.5 -154q0 -37 -6 -87t-20.5 -103.5t-38 -106t-58.5 -93.5t-81.5 -66.5t-107.5 -25.5q-75 0 -119 44.5t-44 119.5q0 57 20 107t54.5 87t81 58.5t99.5 21.5q63 0 103 -27.5t56 -73.5h1q8 37 12.5 75t4.5 71q0 83 -32.5 125t-104.5 42
q-37 0 -72 -14t-63 -40q-10 -8 -17 2l-9 13q-6 9 3 17q35 29 77.5 44.5t87.5 15.5zM207 26q76 0 135 58.5t94 167.5q0 61 -36.5 98.5t-102.5 37.5q-45 0 -84 -17.5t-68 -48.5t-45.5 -73.5t-16.5 -91.5q0 -63 32 -97t92 -34z" />
    <glyph glyph-name="uni2206" unicode="&#x2206;" horiz-adv-x="570" 
d="M326 655q4 9 14 9h23q11 0 13 -11l129 -640q3 -13 -10 -13h-494q-16 0 -9 14zM457 39l-112 569h-1l-291 -569h404z" />
    <glyph glyph-name="product" unicode="&#x220f;" horiz-adv-x="606" 
d="M487 -69q-2 -11 -13 -11h-19q-13 0 -11 13l110 692h-381l-110 -694q-2 -11 -13 -11h-19q-13 0 -11 13l114 720q2 11 13 11h443q13 0 11 -13z" />
    <glyph glyph-name="summation" unicode="&#x2211;" horiz-adv-x="476" 
d="M310 296q5 -9 -2 -17l-275 -320h374q13 0 11 -13l-3 -15q-2 -11 -13 -11h-419q-13 0 -10 13l4 20q1 5 2 8t4 6l280 325l-177 324q-4 7 -3 15l3 22q2 11 13 11h419q13 0 11 -13l-2 -15q-2 -11 -13 -11h-384z" />
    <glyph glyph-name="minus" unicode="&#x2212;" horiz-adv-x="528" 
d="M37 260q-13 0 -11 13l2 14q2 11 13 11h462q13 0 11 -13l-2 -14q-2 -11 -13 -11h-462z" />
    <glyph glyph-name="uni2219" unicode="&#x2219;" horiz-adv-x="210" 
d="M112 277q-14 0 -23 8.5t-9 21.5q0 17 11.5 28t27.5 11q14 0 22.5 -8.5t8.5 -22.5q0 -17 -10.5 -27.5t-27.5 -10.5z" />
    <glyph glyph-name="radical" unicode="&#x221a;" horiz-adv-x="502" 
d="M249 -71q-5 -9 -14 -9h-27q-12 0 -13 11l-64 293l-87 -23q-11 -3 -14 10l-2 9q-3 12 8 15l114 29q11 3 14 -9l60 -289h1l289 689q4 9 14 9h17q16 0 9 -14z" />
    <glyph glyph-name="infinity" unicode="&#x221e;" horiz-adv-x="640" 
d="M494 451q54 0 85.5 -32.5t31.5 -88.5q0 -35 -10.5 -64t-29.5 -49.5t-46 -32t-59 -11.5q-44 0 -76 24.5t-63 82.5q-42 -57 -79.5 -82t-79.5 -25q-54 0 -85.5 32.5t-31.5 88.5q0 35 10.5 64t29.5 49.5t46 32t59 11.5q44 0 76 -24.5t63 -82.5q42 57 79.5 82t79.5 25z
M174 207q35 0 66 23.5t71 80.5q-31 59 -58 82.5t-63 23.5q-46 0 -75 -33.5t-29 -86.5q0 -42 23.5 -66t64.5 -24zM576 327q0 42 -23.5 66t-65.5 24q-17 0 -33 -5.5t-32 -17.5t-33.5 -31.5t-37.5 -48.5q30 -59 57 -83t63 -24q46 0 75.5 33.5t29.5 86.5z" />
    <glyph glyph-name="integral" unicode="&#x222b;" horiz-adv-x="312" 
d="M166 532q14 86 60 130.5t114 49.5q14 0 12 -13l-1 -13q-2 -11 -12 -11q-51 -4 -86.5 -41.5t-46.5 -110.5q-10 -60 -15 -122t-10 -126q-5 -66 -10.5 -132.5t-16.5 -134.5q-14 -86 -59.5 -131t-113.5 -49q-13 0 -12 13l1 12q0 12 11 12q51 4 87 41.5t47 110.5q9 60 14 122
t10 126q5 66 10.5 132.5t16.5 134.5z" />
    <glyph glyph-name="approxequal" unicode="&#x2248;" horiz-adv-x="528" 
d="M186 409q-33 0 -60 -17t-56 -55q-7 -10 -18 -2l-10 8q-10 6 -2 17q35 46 69.5 66.5t75.5 20.5q30 0 55 -8.5t58 -33.5q27 -20 47.5 -28.5t43.5 -8.5q32 0 59 17t56 55q7 10 18 2l10 -8q10 -6 2 -17q-35 -45 -69.5 -66t-74.5 -21q-30 0 -55 8.5t-58 33.5
q-27 20 -47.5 28.5t-43.5 8.5zM151 187q-33 0 -60 -17t-56 -55q-7 -10 -18 -2l-10 8q-10 6 -2 17q35 46 69.5 66.5t75.5 20.5q30 0 55 -8.5t58 -33.5q27 -20 47.5 -28.5t43.5 -8.5q32 0 59 17t56 55q7 10 18 2l10 -8q10 -6 2 -17q-35 -45 -69.5 -66t-74.5 -21q-30 0 -55 8.5
t-58 33.5q-27 20 -47.5 28.5t-43.5 8.5z" />
    <glyph glyph-name="notequal" unicode="&#x2260;" horiz-adv-x="528" 
d="M467 187q13 0 11 -13l-2 -14q-2 -11 -13 -11h-274l-95 -125q-6 -7 -14 -7h-15q-8 0 -10 4.5t3 10.5l89 117h-109q-13 0 -11 13l2 14q2 11 13 11h133l139 184h-241q-13 0 -11 13l2 14q2 11 13 11h265l95 125q6 7 14 7h15q8 0 10 -4.5t-3 -10.5l-89 -117h118q13 0 11 -13
l-2 -14q-2 -11 -13 -11h-142l-139 -184h250z" />
    <glyph glyph-name="lessequal" unicode="&#x2264;" horiz-adv-x="528" 
d="M440 38q13 0 11 -13l-2 -14q-2 -11 -13 -11h-420q-13 0 -11 13l2 14q2 11 13 11h420zM56 334q1 9 12 14l450 192q15 5 13 -10l-2 -17q-1 -10 -10 -14l-415 -174l358 -173q8 -6 7 -15l-3 -15q-2 -15 -15 -8l-390 190q-8 6 -7 15z" />
    <glyph glyph-name="greaterequal" unicode="&#x2265;" horiz-adv-x="528" 
d="M498 319q-1 -9 -12 -14l-450 -192q-15 -5 -13 10l2 17q1 10 10 14l415 174l-358 173q-8 6 -7 15l3 15q2 15 15 8l390 -190q8 -6 7 -15zM440 38q13 0 11 -13l-2 -14q-2 -11 -13 -11h-420q-13 0 -11 13l2 14q2 11 13 11h420z" />
    <glyph glyph-name="lozenge" unicode="&#x25ca;" horiz-adv-x="516" 
d="M211 -10q-10 0 -14 9l-136 324q-4 8 2 17l242 327q6 7 14 7h14q9 0 14 -9l137 -324q4 -8 -2 -17l-243 -327q-6 -7 -14 -7h-14zM223 35h1l220 301l-122 292h-1l-220 -300z" />
    <glyph glyph-name="uniE069" unicode="&#xe069;" horiz-adv-x="196" 
d="M157 598q-13 0 -21.5 8.5t-8.5 22.5q0 16 10 25.5t26 9.5q13 0 21 -8t8 -21q0 -16 -10 -26.5t-25 -10.5zM52 0q-13 0 -11 13l74 467q2 11 13 11h17q13 0 11 -13l-74 -467q-2 -11 -13 -11h-17z" />
    <glyph glyph-name="uniEF01" unicode="&#xef01;" horiz-adv-x="500" 
d="M201 -53q14 0 22 -8.5t8 -22.5q0 -19 -12.5 -42.5t-42.5 -35.5q-6 -3 -9 4l-3 6q-3 6 4 9q18 10 26 29q-28 2 -28 27q0 17 9.5 25.5t25.5 8.5z" />
    <glyph glyph-name="uniEF02" unicode="&#xef02;" horiz-adv-x="500" 
d="M297 525q-3 -9 -13 -9h-8q-12 0 -9 12l46 162q3 10 14 10h13q6 0 9 -3.5t1 -10.5z" />
    <glyph glyph-name="uniF8FF" unicode="&#xf8ff;" horiz-adv-x="1000" 
d="M439 262h-1l-17 -78h-23l28 126h27v-66h1l28 66h31l-28 -126h-24l17 78h-1l-22 -52h-16v52zM123 208q-7 -24 -25 -24h-46l28 126h43q18 0 18 -15v-3.5t-1 -6.5zM269 184l6 26h-17l-7 -26h-24l23 103q5 23 26 23h22q18 0 18 -15v-3.5t-1 -6.5l-22 -101h-24zM546 184l6 26
h-17l-7 -26h-24l23 103q5 23 26 23h22q18 0 18 -15v-3.5t-1 -6.5l-22 -101h-24zM390 233q-4 -17 -13 -20l6 -29h-23l-4 26h-13l-6 -26h-24l28 126h43q18 0 18 -15v-3.5t-1 -6.5zM833 232q-4 -22 -24 -22h-22l-6 -26h-24l28 126h43q18 0 18 -15v-3.5t-1 -6.5zM205 184h-24
l6 26h-18l-6 -26h-24l28 126h24l-18 -81h18l18 81h24zM727 310l-17 -75q-1 -6 4 -6h7q5 0 6 4l17 77h24l-17 -78q-4 -22 -24 -22l-14 -26h-24l14 26q-7 0 -12.5 3.5t-5.5 11.5q0 5 1 10l17 75h24zM897 223h-26l-4 -20h33l-5 -19h-56l28 126h57l-5 -19h-32l-11 -49h25z
M647 184h-24l24 107h-19l4 19h61l-4 -19h-18zM80 203h13q4 0 6 5l17 77q1 6 -3 6h-13zM821 285q1 6 -4 6h-12l-14 -62h13q5 0 6 4zM377 285q1 6 -4 6h-12l-14 -62h13q5 0 6 4zM557 291q-5 0 -6 -5l-13 -57h18l12 56q1 6 -4 6h-7zM280 291q-5 0 -6 -5l-13 -57h18l12 56
q1 6 -4 6h-7zM987 303h-6v25h-1l-7 -20h-4l-7 20h-1v-25h-5v30h10l5 -16h1l5 16h10v-30zM952 328h-9v-25h-6v25h-8v5h23v-5z" />
    <glyph glyph-name="zero.numr" 
d="M81 500q21 131 141 131q54 0 83 -26.5t29 -77.5v-15t-2 -15l-22 -134q-11 -66 -44.5 -99t-96.5 -33q-54 0 -83 26t-29 77q0 15 3 32zM95 370q-3 -17 -3 -31q0 -76 80 -76q47 0 71 25t33 80l20 125q3 16 3 30q0 76 -79 76q-48 0 -71.5 -25t-32.5 -79z" />
    <glyph glyph-name="one.numr" 
d="M242 248q-1 -10 -12 -10h-13q-12 0 -10 12l52 325l-100 -67q-9 -6 -15 3l-5 8q-6 9 3 15l127 86q5 4 13 4h8q11 0 10 -12z" />
    <glyph glyph-name="two.numr" 
d="M334 535q0 -19 -3.5 -35t-12.5 -31t-23.5 -30.5t-36.5 -34.5l-154 -133v-1h178q11 0 10 -12l-2 -10q-1 -10 -12 -10h-219q-12 0 -10 12l2 10q1 7 7 13l176 155q35 31 49.5 54t14.5 51q0 31 -18.5 48.5t-53.5 17.5q-64 0 -98 -53q-7 -10 -15 -3l-9 7q-9 6 -3 15
q23 32 56.5 49t72.5 17q48 0 76 -26t28 -70z" />
    <glyph glyph-name="three.numr" 
d="M339 540q0 -39 -19.5 -65t-57.5 -34v-1q27 -11 42.5 -32.5t15.5 -53.5q0 -59 -38 -91t-104 -32q-45 0 -75 14t-48 40q-5 9 3 15l9 7q9 6 15 -3q27 -41 96 -41q50 0 78.5 25t28.5 69q0 67 -91 67h-28q-11 0 -11 12l1 10q1 10 12 10h26q109 0 109 79q0 32 -20 48t-57 16
q-31 0 -55 -11.5t-43 -31.5q-7 -9 -16 0l-7 7q-8 8 -1 15q26 27 58 40t68 13q50 0 79.5 -24t29.5 -67z" />
    <glyph glyph-name="four.numr" 
d="M266 248q-1 -10 -12 -10h-13q-12 0 -10 12l13 80h-185q-12 0 -10 12l2 15q2 9 6 13l228 247q6 7 14 7h15q11 0 10 -12l-40 -250h34q11 0 11 -12l-1 -10q-1 -10 -12 -10h-37zM93 362h156l33 206h-1z" />
    <glyph glyph-name="five.numr" 
d="M124 459q19 11 40 17.5t45 6.5q48 0 78.5 -29.5t30.5 -80.5q0 -66 -40 -104t-111 -38q-80 0 -115 54q-6 9 2 15l10 7q9 6 15 -3q26 -41 89 -41q53 0 84 29t31 80q0 37 -22.5 58t-59.5 21q-52 0 -90 -32q-5 -5 -14 -4l-5 1q-11 2 -9 13l42 185q1 10 12 10h190q11 0 10 -12
l-1 -10q-1 -10 -12 -10h-171l-30 -133h1z" />
    <glyph glyph-name="six.numr" 
d="M212 484q46 0 75.5 -29.5t29.5 -79.5q0 -66 -38.5 -105t-101.5 -39q-51 0 -82 30.5t-31 79.5q0 5 0.5 11t1.5 12l22 140q10 60 46 93.5t95 33.5q33 0 59.5 -11t43.5 -31q6 -8 -2 -16l-10 -8q-9 -6 -15 2q-26 32 -75 32q-91 0 -108 -103l-9 -53h1q35 41 98 41zM179 263
q45 0 74 30t29 79q0 38 -21.5 59t-56.5 21q-42 0 -69.5 -26t-34.5 -69q-1 -5 -1.5 -9.5t-0.5 -9.5q0 -34 22 -54.5t59 -20.5z" />
    <glyph glyph-name="seven.numr" 
d="M364 597q-2 -9 -5 -13l-223 -339q-4 -7 -14 -7h-15q-7 0 -9 4t2 9l225 341h-192l-9 -58q-1 -10 -12 -10h-12q-12 0 -10 12l12 78q1 10 12 10h243q11 0 10 -12z" />
    <glyph glyph-name="eight.numr" 
d="M335 540q0 -39 -19.5 -65t-57.5 -36v-1q58 -24 58 -86q0 -58 -39 -89.5t-105 -31.5q-60 0 -93 26.5t-33 74.5q0 44 24 72t66 38v1q-49 22 -49 73q0 54 35.5 84.5t97.5 30.5q55 0 85 -24t30 -67zM301 537q0 62 -82 62q-46 0 -71.5 -22.5t-25.5 -60.5q0 -29 20.5 -44.5
t59.5 -15.5q45 0 72 21.5t27 59.5zM282 356q0 33 -23.5 50.5t-67.5 17.5q-51 0 -80.5 -24.5t-29.5 -67.5q0 -33 23.5 -51t68.5 -18q51 0 80 25t29 68z" />
    <glyph glyph-name="nine.numr" 
d="M215 631q51 0 82 -30.5t31 -79.5q0 -5 -0.5 -11t-1.5 -12l-22 -140q-10 -60 -46 -93.5t-95 -33.5q-33 0 -60 11t-43 32q-6 8 2 16l7 6q9 8 17 -1q26 -32 76 -32q91 0 108 103l9 53h-1q-17 -20 -41.5 -30.5t-56.5 -10.5q-46 0 -75.5 29.5t-29.5 79.5q0 66 38.5 105
t101.5 39zM188 410q42 0 69.5 26t34.5 69q1 5 1 9v9q0 34 -21.5 55t-58.5 21q-45 0 -74 -30t-29 -80q0 -37 21.5 -58t56.5 -21z" />
    <glyph glyph-name="zero.dnom" 
d="M43 262q21 131 141 131q54 0 83 -26.5t29 -77.5v-15t-2 -15l-22 -134q-11 -66 -44.5 -99t-96.5 -33q-54 0 -83 26t-29 77q0 15 3 32zM57 132q-3 -17 -3 -31q0 -76 80 -76q47 0 71 25t33 80l20 125q3 16 3 30q0 76 -79 76q-48 0 -71.5 -25t-32.5 -79z" />
    <glyph glyph-name="one.dnom" 
d="M204 10q-1 -10 -12 -10h-13q-12 0 -10 12l52 325l-100 -67q-9 -6 -15 3l-5 8q-6 9 3 15l127 86q5 4 13 4h8q11 0 10 -12z" />
    <glyph glyph-name="two.dnom" 
d="M296 297q0 -19 -3.5 -35t-12.5 -31t-23.5 -30.5t-36.5 -34.5l-154 -133v-1h178q11 0 10 -12l-2 -10q-1 -10 -12 -10h-219q-12 0 -10 12l2 10q1 7 7 13l176 155q35 31 49.5 54t14.5 51q0 31 -18.5 48.5t-53.5 17.5q-64 0 -98 -53q-7 -10 -15 -3l-9 7q-9 6 -3 15
q23 32 56.5 49t72.5 17q48 0 76 -26t28 -70z" />
    <glyph glyph-name="three.dnom" 
d="M301 302q0 -39 -19.5 -65t-57.5 -34v-1q27 -11 42.5 -32.5t15.5 -53.5q0 -59 -38 -91t-104 -32q-45 0 -75 14t-48 40q-5 9 3 15l9 7q9 6 15 -3q27 -41 96 -41q50 0 78.5 25t28.5 69q0 67 -91 67h-28q-11 0 -11 12l1 10q1 10 12 10h26q109 0 109 79q0 32 -20 48t-57 16
q-31 0 -55 -11.5t-43 -31.5q-7 -9 -16 0l-7 7q-8 8 -1 15q26 27 58 40t68 13q50 0 79.5 -24t29.5 -67z" />
    <glyph glyph-name="four.dnom" 
d="M228 10q-1 -10 -12 -10h-13q-12 0 -10 12l13 80h-185q-12 0 -10 12l2 15q2 9 6 13l228 247q6 7 14 7h15q11 0 10 -12l-40 -250h34q11 0 11 -12l-1 -10q-1 -10 -12 -10h-37zM55 124h156l33 206h-1z" />
    <glyph glyph-name="five.dnom" 
d="M86 221q19 11 40 17.5t45 6.5q48 0 78.5 -29.5t30.5 -80.5q0 -66 -40 -104t-111 -38q-80 0 -115 54q-6 9 2 15l10 7q9 6 15 -3q26 -41 89 -41q53 0 84 29t31 80q0 37 -22.5 58t-59.5 21q-52 0 -90 -32q-5 -5 -14 -4l-5 1q-11 2 -9 13l42 185q1 10 12 10h190q11 0 10 -12
l-1 -10q-1 -10 -12 -10h-171l-30 -133h1z" />
    <glyph glyph-name="six.dnom" 
d="M174 246q46 0 75.5 -29.5t29.5 -79.5q0 -66 -38.5 -105t-101.5 -39q-51 0 -82 30.5t-31 79.5q0 5 0.5 11t1.5 12l22 140q10 60 46 93.5t95 33.5q33 0 59.5 -11t43.5 -31q6 -8 -2 -16l-10 -8q-9 -6 -15 2q-26 32 -75 32q-91 0 -108 -103l-9 -53h1q35 41 98 41zM141 25
q45 0 74 30t29 79q0 38 -21.5 59t-56.5 21q-42 0 -69.5 -26t-34.5 -69q-1 -5 -1.5 -9.5t-0.5 -9.5q0 -34 22 -54.5t59 -20.5z" />
    <glyph glyph-name="seven.dnom" 
d="M326 359q-2 -9 -5 -13l-223 -339q-4 -7 -14 -7h-15q-7 0 -9 4t2 9l225 341h-192l-9 -58q-1 -10 -12 -10h-12q-12 0 -10 12l12 78q1 10 12 10h243q11 0 10 -12z" />
    <glyph glyph-name="eight.dnom" 
d="M297 302q0 -39 -19.5 -65t-57.5 -36v-1q58 -24 58 -86q0 -58 -39 -89.5t-105 -31.5q-60 0 -93 26.5t-33 74.5q0 44 24 72t66 38v1q-49 22 -49 73q0 54 35.5 84.5t97.5 30.5q55 0 85 -24t30 -67zM263 299q0 62 -82 62q-46 0 -71.5 -22.5t-25.5 -60.5q0 -29 20.5 -44.5
t59.5 -15.5q45 0 72 21.5t27 59.5zM244 118q0 33 -23.5 50.5t-67.5 17.5q-51 0 -80.5 -24.5t-29.5 -67.5q0 -33 23.5 -51t68.5 -18q51 0 80 25t29 68z" />
    <glyph glyph-name="nine.dnom" 
d="M177 393q51 0 82 -30.5t31 -79.5q0 -5 -0.5 -11t-1.5 -12l-22 -140q-10 -60 -46 -93.5t-95 -33.5q-33 0 -60 11t-43 32q-6 8 2 16l7 6q9 8 17 -1q26 -32 76 -32q91 0 108 103l9 53h-1q-17 -20 -41.5 -30.5t-56.5 -10.5q-46 0 -75.5 29.5t-29.5 79.5q0 66 38.5 105
t101.5 39zM150 172q42 0 69.5 26t34.5 69q1 5 1 9v9q0 34 -21.5 55t-58.5 21q-45 0 -74 -30t-29 -80q0 -37 21.5 -58t56.5 -21z" />
    </font>
</defs>
</svg>
